<?xml version="1.0" encoding="UTF-8"?>
<!DOCTYPE svg PUBLIC "-//W3C//DTD SVG 1.1//EN" "http://www.w3.org/Graphics/SVG/1.1/DTD/svg11.dtd">
<svg xmlns="http://www.w3.org/2000/svg" version="1.1" width="455px" height="498px" style="shape-rendering:geometricPrecision; text-rendering:geometricPrecision; image-rendering:optimizeQuality; fill-rule:evenodd; clip-rule:evenodd" xmlns:xlink="http://www.w3.org/1999/xlink">
<g><path style="opacity:1" fill="#f2ceba" d="M 137.5,16.5 C 145.836,20.6653 153.836,25.332 161.5,30.5C 167.301,35.2398 173.634,39.2398 180.5,42.5C 186.254,38.2513 191.588,33.418 196.5,28C 198.588,26.9704 200.755,26.1371 203,25.5C 207.962,30.0947 212.462,35.0947 216.5,40.5C 223.167,44.1667 229.833,47.8333 236.5,51.5C 237.552,51.6495 238.552,51.4828 239.5,51C 243.015,47.3176 246.682,43.8176 250.5,40.5C 260.847,43.4194 269.68,48.7527 277,56.5C 274.405,65.9635 271.571,75.4635 268.5,85C 268.684,86.3756 269.351,87.2089 270.5,87.5C 272.1,88.6444 273.767,89.8111 275.5,91C 285.478,92.1646 295.478,92.9979 305.5,93.5C 307.953,94.2172 310.287,95.3838 312.5,97C 321.167,105 329.833,113 338.5,121C 351.601,123.525 364.601,126.525 377.5,130C 379.167,132.333 380.833,134.667 382.5,137C 373.63,145.039 364.963,153.206 356.5,161.5C 358.724,166.949 361.224,172.282 364,177.5C 364.442,180.305 363.942,182.972 362.5,185.5C 363.086,188.349 364.42,190.682 366.5,192.5C 368.25,193.659 369.25,195.326 369.5,197.5C 369.751,199.17 370.418,200.67 371.5,202C 373.838,202.837 376.172,203.67 378.5,204.5C 386.736,200.27 394.736,195.603 402.5,190.5C 409.982,196.814 417.315,203.314 424.5,210C 428.263,210.134 431.929,209.801 435.5,209C 441.7,216.03 448.033,222.863 454.5,229.5C 454.5,232.833 454.5,236.167 454.5,239.5C 452.526,241.428 451.026,243.761 450,246.5C 447.147,248.161 444.647,250.161 442.5,252.5C 440,262.5 437.5,272.5 435,282.5C 434.022,285.669 434.522,288.503 436.5,291C 435.177,291.816 434.511,292.983 434.5,294.5C 428.399,302.51 422.399,310.677 416.5,319C 409.676,319.438 404.009,322.104 399.5,327C 389.151,327.168 378.817,327.668 368.5,328.5C 366.5,333.167 364.5,337.833 362.5,342.5C 352.641,345.239 342.641,347.405 332.5,349C 330.45,357.021 329.617,365.187 330,373.5C 331.5,375.833 333,378.167 334.5,380.5C 328.062,391.722 321.395,402.722 314.5,413.5C 311.717,417.404 309.717,421.737 308.5,426.5C 309.973,436.11 313.639,444.777 319.5,452.5C 314.447,460.535 309.447,468.535 304.5,476.5C 297.291,479.797 289.624,481.297 281.5,481C 278.58,484.427 275.247,487.261 271.5,489.5C 260.523,486.672 249.523,484.006 238.5,481.5C 238.072,478.215 237.072,475.215 235.5,472.5C 230.349,471.673 225.016,471.173 219.5,471C 210.982,461.983 202.649,452.816 194.5,443.5C 189.802,442.119 185.635,443.119 182,446.5C 178.333,454.5 174.667,462.5 171,470.5C 168.936,471.591 166.769,471.758 164.5,471C 158.167,465.333 151.833,459.667 145.5,454C 140.024,453.004 134.524,452.171 129,451.5C 125.995,451.481 123.162,452.148 120.5,453.5C 114.146,450.404 107.646,447.738 101,445.5C 96.2034,446.493 91.37,447.16 86.5,447.5C 83.0672,444.941 79.4005,442.608 75.5,440.5C 75.1667,439.667 74.8333,438.833 74.5,438C 76.9015,429.298 78.5682,420.465 79.5,411.5C 70.8333,411.5 62.1667,411.5 53.5,411.5C 54.2269,400.837 54.8936,390.171 55.5,379.5C 44.0675,382.755 32.7341,386.422 21.5,390.5C 19.8927,390.363 18.5594,389.696 17.5,388.5C 21.4668,378.099 25.1334,367.599 28.5,357C 25.9751,350.782 23.3084,344.616 20.5,338.5C 21.7189,334.395 23.2189,330.395 25,326.5C 25.6667,324.833 25.6667,323.167 25,321.5C 22.3333,318.833 19.6667,316.167 17,313.5C 15.3209,307.116 13.4875,300.783 11.5,294.5C 20.1049,287.058 29.6049,281.058 40,276.5C 40.6667,275.167 40.6667,273.833 40,272.5C 36.2222,264.612 32.7222,256.612 29.5,248.5C 31.9969,242.172 34.4969,235.838 37,229.5C 38.0113,228.663 39.1779,228.33 40.5,228.5C 40.6665,218.494 40.4998,208.494 40,198.5C 37.3333,195.833 34.6667,193.167 32,190.5C 30.896,185.479 29.7294,180.479 28.5,175.5C 22.0268,172.26 15.3601,169.594 8.5,167.5C 8.35055,166.448 8.51722,165.448 9,164.5C 18.3333,155.167 27.6667,145.833 37,136.5C 37.8275,132.129 37.6609,127.795 36.5,123.5C 32.8579,121.025 29.3579,118.358 26,115.5C 25.8213,111.975 25.3213,108.641 24.5,105.5C 23.2862,102.07 21.7862,98.7365 20,95.5C 19.4913,90.1143 18.6579,84.781 17.5,79.5C 20.8975,75.9545 24.8975,73.1212 29.5,71C 37.1667,70.6667 44.8333,70.3333 52.5,70C 54.7418,62.8685 56.9085,55.7019 59,48.5C 66.4219,44.5389 73.9219,40.7056 81.5,37C 82.8112,34.7265 82.8112,32.5598 81.5,30.5C 79.5487,24.0773 78.2154,17.4107 77.5,10.5C 77.281,9.32496 77.6143,8.32496 78.5,7.5C 89.9814,10.9299 101.648,13.5966 113.5,15.5C 117.318,14.5186 120.818,12.8519 124,10.5C 128.463,12.6493 132.963,14.6493 137.5,16.5 Z"/></g>
<g><path style="opacity:1" fill="#c8a490" d="M 137.5,16.5 C 132.963,14.6493 128.463,12.6493 124,10.5C 120.818,12.8519 117.318,14.5186 113.5,15.5C 101.648,13.5966 89.9814,10.9299 78.5,7.5C 77.6143,8.32496 77.281,9.32496 77.5,10.5C 76.5489,9.08134 76.2155,7.41467 76.5,5.5C 88.6999,7.92439 100.867,10.5911 113,13.5C 116.606,12.0622 120.106,10.3955 123.5,8.5C 128.518,10.6719 133.184,13.3385 137.5,16.5 Z"/></g>
<g><path style="opacity:1" fill="#d2a48c" d="M 216.5,37.5 C 216.5,38.5 216.5,39.5 216.5,40.5C 212.462,35.0947 207.962,30.0947 203,25.5C 200.755,26.1371 198.588,26.9704 196.5,28C 191.588,33.418 186.254,38.2513 180.5,42.5C 173.634,39.2398 167.301,35.2398 161.5,30.5C 167.938,33.553 174.271,36.8863 180.5,40.5C 185.652,35.8485 190.652,31.0151 195.5,26C 198.136,25.0657 200.803,24.2324 203.5,23.5C 205.383,23.8757 206.883,24.8757 208,26.5C 210.853,30.2355 213.687,33.9021 216.5,37.5 Z"/></g>
<g><path style="opacity:1" fill="#dfb6a1" d="M 216.5,37.5 C 223.597,41.9301 230.931,45.9301 238.5,49.5C 237.833,50.1667 237.167,50.8333 236.5,51.5C 229.833,47.8333 223.167,44.1667 216.5,40.5C 216.5,39.5 216.5,38.5 216.5,37.5 Z"/></g>
<g><path style="opacity:1" fill="#d79f89" d="M 270.5,87.5 C 269.351,87.2089 268.684,86.3756 268.5,85C 271.571,75.4635 274.405,65.9635 277,56.5C 269.68,48.7527 260.847,43.4194 250.5,40.5C 246.682,43.8176 243.015,47.3176 239.5,51C 238.552,51.4828 237.552,51.6495 236.5,51.5C 237.167,50.8333 237.833,50.1667 238.5,49.5C 241.882,45.1164 245.882,41.4497 250.5,38.5C 261.765,41.3003 271.265,46.9669 279,55.5C 279.667,56.8333 279.667,58.1667 279,59.5C 275.249,68.585 272.415,77.9184 270.5,87.5 Z"/></g>
<g><path style="opacity:1" fill="#d7a383" d="M 81.5,30.5 C 82.8112,32.5598 82.8112,34.7265 81.5,37C 73.9219,40.7056 66.4219,44.5389 59,48.5C 56.9085,55.7019 54.7418,62.8685 52.5,70C 44.8333,70.3333 37.1667,70.6667 29.5,71C 24.8975,73.1212 20.8975,75.9545 17.5,79.5C 18.6579,84.781 19.4913,90.1143 20,95.5C 21.7862,98.7365 23.2862,102.07 24.5,105.5C 22.4131,104.415 21.0798,102.749 20.5,100.5C 19.1514,96.4108 17.8181,92.4108 16.5,88.5C 15.4731,84.554 15.3064,80.554 16,76.5C 19.2534,74.4569 22.4201,72.2902 25.5,70C 34.0578,68.5592 42.7244,68.0592 51.5,68.5C 53.0293,61.3854 55.0293,54.3854 57.5,47.5C 64.8878,43.1394 72.5545,39.3061 80.5,36C 81.4061,34.3005 81.7394,32.4672 81.5,30.5 Z"/></g>
<g><path style="opacity:0.522" fill="#d489a6" d="M 273.5,87.5 C 285.589,88.4417 297.589,89.7751 309.5,91.5C 309.5,91.8333 309.5,92.1667 309.5,92.5C 299.816,91.9317 290.15,91.0984 280.5,90C 277.809,89.8442 275.476,89.0109 273.5,87.5 Z"/></g>
<g><path style="opacity:1" fill="#d7a084" d="M 270.5,87.5 C 271.5,87.5 272.5,87.5 273.5,87.5C 275.476,89.0109 277.809,89.8442 280.5,90C 290.15,91.0984 299.816,91.9317 309.5,92.5C 308.432,93.4345 307.099,93.7678 305.5,93.5C 295.478,92.9979 285.478,92.1646 275.5,91C 273.767,89.8111 272.1,88.6444 270.5,87.5 Z"/></g>
<g><path style="opacity:0.514" fill="#b9696a" d="M 16.5,88.5 C 17.8181,92.4108 19.1514,96.4108 20.5,100.5C 17.402,97.207 16.0687,93.207 16.5,88.5 Z"/></g>
<g><path style="opacity:1" fill="#d4a88b" d="M 309.5,91.5 C 319.63,100.46 329.63,109.627 339.5,119C 352.558,121.745 365.558,124.745 378.5,128C 381.35,130.786 383.184,133.953 384,137.5C 375.016,145.317 366.516,153.651 358.5,162.5C 361,167.5 363.5,172.5 366,177.5C 366.667,178.833 366.667,180.167 366,181.5C 364.916,182.665 364.083,183.998 363.5,185.5C 364.788,187.739 365.788,190.072 366.5,192.5C 364.42,190.682 363.086,188.349 362.5,185.5C 363.942,182.972 364.442,180.305 364,177.5C 361.224,172.282 358.724,166.949 356.5,161.5C 364.963,153.206 373.63,145.039 382.5,137C 380.833,134.667 379.167,132.333 377.5,130C 364.601,126.525 351.601,123.525 338.5,121C 329.833,113 321.167,105 312.5,97C 310.287,95.3838 307.953,94.2172 305.5,93.5C 307.099,93.7678 308.432,93.4345 309.5,92.5C 309.5,92.1667 309.5,91.8333 309.5,91.5 Z"/></g>
<g><path style="opacity:0.906" fill="#c6857c" d="M 35.5,135.5 C 30.8333,140.833 25.8333,145.833 20.5,150.5C 20.5,150.167 20.5,149.833 20.5,149.5C 24.8918,144.106 29.8918,139.439 35.5,135.5 Z"/></g>
<g><path style="opacity:0.945" fill="#b76368" d="M 20.5,149.5 C 20.5,149.833 20.5,150.167 20.5,150.5C 15.8688,154.63 11.3688,158.963 7,163.5C 6.50999,164.793 6.34332,166.127 6.5,167.5C 5.38705,166.054 5.22039,164.387 6,162.5C 10.4262,157.566 15.2595,153.233 20.5,149.5 Z"/></g>
<g><path style="opacity:0.016" fill="#b9c7a3" d="M 414.5,198.5 C 416.749,199.08 418.415,200.413 419.5,202.5C 417.251,201.92 415.585,200.587 414.5,198.5 Z"/></g>
<g><path style="opacity:1" fill="#d3a385" d="M 414.5,198.5 C 415.585,200.587 417.251,201.92 419.5,202.5C 420.167,202.5 420.5,202.833 420.5,203.5C 422.182,206.015 424.348,208.015 427,209.5C 429.744,208.197 432.577,207.197 435.5,206.5C 440.046,212.256 445.046,217.59 450.5,222.5C 451.833,223.5 453.167,224.5 454.5,225.5C 454.5,226.833 454.5,228.167 454.5,229.5C 448.033,222.863 441.7,216.03 435.5,209C 431.929,209.801 428.263,210.134 424.5,210C 417.315,203.314 409.982,196.814 402.5,190.5C 394.736,195.603 386.736,200.27 378.5,204.5C 376.172,203.67 373.838,202.837 371.5,202C 370.418,200.67 369.751,199.17 369.5,197.5C 372.754,200.864 376.754,202.364 381.5,202C 388.199,196.987 395.199,192.487 402.5,188.5C 406.898,191.364 410.898,194.698 414.5,198.5 Z"/></g>
<g><path style="opacity:0.067" fill="#b7caa5" d="M 420.5,203.5 C 422.822,204.816 425.156,206.149 427.5,207.5C 430.13,206.622 432.797,205.955 435.5,205.5C 435.5,205.833 435.5,206.167 435.5,206.5C 432.577,207.197 429.744,208.197 427,209.5C 424.348,208.015 422.182,206.015 420.5,203.5 Z"/></g>
<g><path style="opacity:0.757" fill="#baa97d" d="M 435.5,205.5 C 437.716,206.203 439.549,207.536 441,209.5C 444.185,213.892 447.352,218.226 450.5,222.5C 445.046,217.59 440.046,212.256 435.5,206.5C 435.5,206.167 435.5,205.833 435.5,205.5 Z"/></g>
<g><path style="opacity:0.38" fill="#b66367" d="M 30.5,239.5 C 29.2074,243.086 28.2074,246.752 27.5,250.5C 26.348,246.41 27.348,242.743 30.5,239.5 Z"/></g>
<g><path style="opacity:0.024" fill="#b76669" d="M 27.5,250.5 C 29.6246,253.088 30.9579,256.088 31.5,259.5C 29.3754,256.912 28.0421,253.912 27.5,250.5 Z"/></g>
<g><path style="opacity:0.988" fill="#d1a282" d="M 454.5,239.5 C 454.5,240.833 454.5,242.167 454.5,243.5C 453.442,244.6 452.608,245.934 452,247.5C 449.147,249.161 446.647,251.161 444.5,253.5C 441.911,264.024 439.244,274.524 436.5,285C 437.033,287.226 437.7,289.393 438.5,291.5C 437.094,291.973 436.427,292.973 436.5,294.5C 435.604,295.506 434.938,295.506 434.5,294.5C 434.511,292.983 435.177,291.816 436.5,291C 434.522,288.503 434.022,285.669 435,282.5C 437.5,272.5 440,262.5 442.5,252.5C 444.647,250.161 447.147,248.161 450,246.5C 451.026,243.761 452.526,241.428 454.5,239.5 Z"/></g>
<g><path style="opacity:0.055" fill="#ca9cb3" d="M 438.5,291.5 C 438.573,293.027 437.906,294.027 436.5,294.5C 436.427,292.973 437.094,291.973 438.5,291.5 Z"/></g>
<g><path style="opacity:0.735" fill="#b56266" d="M 20.5,331.5 C 19.5392,334.426 18.8726,337.426 18.5,340.5C 17.1038,337.155 17.7705,334.155 20.5,331.5 Z"/></g>
<g><path style="opacity:0.929" fill="#d6a18d" d="M 434.5,294.5 C 434.938,295.506 435.604,295.506 436.5,294.5C 430.798,303.715 424.465,312.548 417.5,321C 410.676,321.438 405.009,324.104 400.5,329C 390.172,329.5 379.839,329.666 369.5,329.5C 368.192,334.923 366.192,340.089 363.5,345C 353.546,347.158 343.546,348.991 333.5,350.5C 333.116,356.524 332.449,362.524 331.5,368.5C 331.641,372.448 333.141,375.781 336,378.5C 336.667,379.833 336.667,381.167 336,382.5C 330.333,391.833 324.667,401.167 319,410.5C 317.871,412.141 316.371,413.141 314.5,413.5C 321.395,402.722 328.062,391.722 334.5,380.5C 333,378.167 331.5,375.833 330,373.5C 329.617,365.187 330.45,357.021 332.5,349C 342.641,347.405 352.641,345.239 362.5,342.5C 364.5,337.833 366.5,333.167 368.5,328.5C 378.817,327.668 389.151,327.168 399.5,327C 404.009,322.104 409.676,319.438 416.5,319C 422.399,310.677 428.399,302.51 434.5,294.5 Z"/></g>
<g><path style="opacity:1" fill="#d0937d" d="M 24.5,105.5 C 25.3213,108.641 25.8213,111.975 26,115.5C 29.3579,118.358 32.8579,121.025 36.5,123.5C 37.6609,127.795 37.8275,132.129 37,136.5C 27.6667,145.833 18.3333,155.167 9,164.5C 8.51722,165.448 8.35055,166.448 8.5,167.5C 15.3601,169.594 22.0268,172.26 28.5,175.5C 29.7294,180.479 30.896,185.479 32,190.5C 34.6667,193.167 37.3333,195.833 40,198.5C 40.4998,208.494 40.6665,218.494 40.5,228.5C 39.1779,228.33 38.0113,228.663 37,229.5C 34.4969,235.838 31.9969,242.172 29.5,248.5C 32.7222,256.612 36.2222,264.612 40,272.5C 40.6667,273.833 40.6667,275.167 40,276.5C 29.6049,281.058 20.1049,287.058 11.5,294.5C 13.4875,300.783 15.3209,307.116 17,313.5C 19.6667,316.167 22.3333,318.833 25,321.5C 25.6667,323.167 25.6667,324.833 25,326.5C 23.2189,330.395 21.7189,334.395 20.5,338.5C 23.3084,344.616 25.9751,350.782 28.5,357C 25.1334,367.599 21.4668,378.099 17.5,388.5C 18.5594,389.696 19.8927,390.363 21.5,390.5C 32.7341,386.422 44.0675,382.755 55.5,379.5C 54.8936,390.171 54.2269,400.837 53.5,411.5C 62.1667,411.5 70.8333,411.5 79.5,411.5C 78.5682,420.465 76.9015,429.298 74.5,438C 74.8333,438.833 75.1667,439.667 75.5,440.5C 79.4005,442.608 83.0672,444.941 86.5,447.5C 85.4937,447.938 85.4937,448.604 86.5,449.5C 81.6433,447.486 77.1433,444.819 73,441.5C 73.909,432.114 75.409,422.78 77.5,413.5C 68.8333,413.5 60.1667,413.5 51.5,413.5C 52.2738,402.829 52.7738,392.163 53,381.5C 42.8213,385.56 32.488,389.227 22,392.5C 19.0676,392.289 16.9009,390.956 15.5,388.5C 19.2636,377.709 22.9303,366.876 26.5,356C 23.6874,350.874 21.0207,345.707 18.5,340.5C 18.8726,337.426 19.5392,334.426 20.5,331.5C 21.2122,329.072 22.2122,326.739 23.5,324.5C 20.516,321.015 17.3493,317.682 14,314.5C 12.3421,308.202 10.8421,301.868 9.5,295.5C 9.38977,293.626 10.0564,292.126 11.5,291C 16.8333,287 22.1667,283 27.5,279C 31.2166,277.595 34.8832,276.095 38.5,274.5C 35.8817,269.599 33.5484,264.599 31.5,259.5C 30.9579,256.088 29.6246,253.088 27.5,250.5C 28.2074,246.752 29.2074,243.086 30.5,239.5C 31.8808,235.736 33.5474,232.069 35.5,228.5C 36.325,227.614 37.325,227.281 38.5,227.5C 38.6665,218.161 38.4998,208.827 38,199.5C 30.4667,193.739 26.9667,186.072 27.5,176.5C 20.0943,174.293 13.0943,171.293 6.5,167.5C 6.34332,166.127 6.50999,164.793 7,163.5C 11.3688,158.963 15.8688,154.63 20.5,150.5C 25.8333,145.833 30.8333,140.833 35.5,135.5C 36.7505,132.207 36.7505,128.874 35.5,125.5C 32.086,123.043 28.586,120.709 25,118.5C 24.501,114.179 24.3343,109.846 24.5,105.5 Z"/></g>
<g><path style="opacity:1" fill="#d49f8e" d="M 314.5,413.5 C 313.273,417.681 311.94,421.848 310.5,426C 311.255,429.518 312.088,433.018 313,436.5C 316.476,441.48 319.31,446.814 321.5,452.5C 316.321,461.535 310.655,470.201 304.5,478.5C 304.5,477.833 304.5,477.167 304.5,476.5C 309.447,468.535 314.447,460.535 319.5,452.5C 313.639,444.777 309.973,436.11 308.5,426.5C 309.717,421.737 311.717,417.404 314.5,413.5 Z"/></g>
<g><path style="opacity:1" fill="#d0a986" d="M 235.5,472.5 C 229.974,472.179 224.64,472.512 219.5,473.5C 217.596,473.262 216.262,472.262 215.5,470.5C 215.262,468.596 214.262,467.262 212.5,466.5C 210.5,465.167 208.833,463.5 207.5,461.5C 207.573,459.973 206.906,458.973 205.5,458.5C 201.277,454.398 197.277,450.065 193.5,445.5C 193.217,444.711 192.717,444.044 192,443.5C 190.698,444.085 189.531,444.751 188.5,445.5C 187.081,446.451 185.415,446.784 183.5,446.5C 180.403,455.365 176.737,464.032 172.5,472.5C 169.914,473.48 167.247,473.813 164.5,473.5C 162.431,470.427 159.764,468.094 156.5,466.5C 155.5,466.167 154.833,465.5 154.5,464.5C 153.738,462.738 152.404,461.738 150.5,461.5C 148.37,459.873 146.37,458.04 144.5,456C 138.992,455.221 133.492,454.388 128,453.5C 125.381,453.727 122.881,454.393 120.5,455.5C 115.051,453.276 109.718,450.776 104.5,448C 98.4839,448.034 92.4839,448.534 86.5,449.5C 85.4937,448.604 85.4937,447.938 86.5,447.5C 91.37,447.16 96.2034,446.493 101,445.5C 107.646,447.738 114.146,450.404 120.5,453.5C 123.162,452.148 125.995,451.481 129,451.5C 134.524,452.171 140.024,453.004 145.5,454C 151.833,459.667 158.167,465.333 164.5,471C 166.769,471.758 168.936,471.591 171,470.5C 174.667,462.5 178.333,454.5 182,446.5C 185.635,443.119 189.802,442.119 194.5,443.5C 202.649,452.816 210.982,461.983 219.5,471C 225.016,471.173 230.349,471.673 235.5,472.5 Z"/></g>
<g><path style="opacity:0.302" fill="#a9ce8e" d="M 193.5,445.5 C 191.833,445.5 190.167,445.5 188.5,445.5C 189.531,444.751 190.698,444.085 192,443.5C 192.717,444.044 193.217,444.711 193.5,445.5 Z"/></g>
<g><path style="opacity:0.004" fill="#adc98d" d="M 205.5,458.5 C 206.906,458.973 207.573,459.973 207.5,461.5C 206.094,461.027 205.427,460.027 205.5,458.5 Z"/></g>
<g><path style="opacity:0.729" fill="#b5c690" d="M 150.5,461.5 C 152.404,461.738 153.738,462.738 154.5,464.5C 152.596,464.262 151.262,463.262 150.5,461.5 Z"/></g>
<g><path style="opacity:0.012" fill="#acc98d" d="M 212.5,466.5 C 214.262,467.262 215.262,468.596 215.5,470.5C 213.738,469.738 212.738,468.404 212.5,466.5 Z"/></g>
<g><path style="opacity:0.8" fill="#b1c88e" d="M 156.5,466.5 C 159.764,468.094 162.431,470.427 164.5,473.5C 161.236,471.906 158.569,469.573 156.5,466.5 Z"/></g>
<g><path style="opacity:0.643" fill="#d5a284" d="M 219.5,473.5 C 224.64,472.512 229.974,472.179 235.5,472.5C 237.072,475.215 238.072,478.215 238.5,481.5C 249.523,484.006 260.523,486.672 271.5,489.5C 275.247,487.261 278.58,484.427 281.5,481C 289.624,481.297 297.291,479.797 304.5,476.5C 304.5,477.167 304.5,477.833 304.5,478.5C 304.389,479.117 304.056,479.617 303.5,480C 296.18,481.276 288.847,482.442 281.5,483.5C 279.046,487.129 275.88,489.796 272,491.5C 260.48,488.412 248.98,485.245 237.5,482C 235.804,479.413 234.804,476.579 234.5,473.5C 229.5,473.5 224.5,473.5 219.5,473.5 Z"/></g>
</svg>
