<?xml version="1.0" encoding="UTF-8"?>
<!DOCTYPE svg PUBLIC "-//W3C//DTD SVG 1.1//EN" "http://www.w3.org/Graphics/SVG/1.1/DTD/svg11.dtd">
<svg xmlns="http://www.w3.org/2000/svg" version="1.1" width="783px" height="498px" style="shape-rendering:geometricPrecision; text-rendering:geometricPrecision; image-rendering:optimizeQuality; fill-rule:evenodd; clip-rule:evenodd" xmlns:xlink="http://www.w3.org/1999/xlink">
<g><path style="opacity:1" fill="#deaaac" d="M 726.5,123.5 C 728.795,126.297 731.295,128.964 734,131.5C 734.832,139.853 734.665,148.187 733.5,156.5C 730.077,163.015 726.91,169.681 724,176.5C 723.22,178.387 723.387,180.054 724.5,181.5C 727.135,189.606 730.468,197.439 734.5,205C 725.325,209.509 716.658,214.842 708.5,221C 706.876,222.117 705.876,223.617 705.5,225.5C 706.864,232.624 708.698,239.624 711,246.5C 714.016,249.349 716.85,252.349 719.5,255.5C 718,259.167 716.5,262.833 715,266.5C 714.22,268.387 714.387,270.054 715.5,271.5C 716.674,272.514 717.34,273.847 717.5,275.5C 719.157,279.484 720.824,283.484 722.5,287.5C 719.293,296.456 716.293,305.456 713.5,314.5C 713.737,315.791 713.404,316.791 712.5,317.5C 711.297,321.999 713.297,324.333 718.5,324.5C 728.846,321.162 739.179,317.829 749.5,314.5C 748.091,325.112 747.425,335.778 747.5,346.5C 756.173,346.334 764.84,346.5 773.5,347C 770.837,355.311 769.337,363.811 769,372.5C 773.143,375.819 777.643,378.486 782.5,380.5C 782.5,381.5 782.5,382.5 782.5,383.5C 780.382,389.961 778.548,396.628 777,403.5C 775.167,405.333 773.333,407.167 771.5,409C 764.244,409.893 757.077,411.06 750,412.5C 749,421.5 748,430.5 747,439.5C 743.785,441.671 740.952,444.171 738.5,447C 742.572,455.144 746.905,463.144 751.5,471C 741.483,471.832 731.483,471.666 721.5,470.5C 721.035,468.192 719.701,466.858 717.5,466.5C 707.148,468.059 696.815,469.725 686.5,471.5C 682.818,471.335 679.152,471.501 675.5,472C 674.944,472.383 674.611,472.883 674.5,473.5C 673.738,475.262 672.404,476.262 670.5,476.5C 666.57,478.581 662.736,480.914 659,483.5C 657.167,481.667 655.333,479.833 653.5,478C 648.167,477.833 642.833,477.667 637.5,477.5C 631.789,477.505 626.456,478.172 621.5,479.5C 621.34,481.153 620.674,482.486 619.5,483.5C 611.734,482.142 604.068,480.309 596.5,478C 595,476.5 593.5,475 592,473.5C 591.828,469.129 591.328,464.796 590.5,460.5C 584.949,458.095 579.283,456.095 573.5,454.5C 570.759,454.293 568.426,453.293 566.5,451.5C 566.045,448.797 565.378,446.13 564.5,443.5C 567.055,436.723 569.888,430.056 573,423.5C 573.667,418.833 573.667,414.167 573,409.5C 567.905,408.177 562.739,407.01 557.5,406C 552.753,397.17 547.753,388.503 542.5,380C 538.5,379.667 534.5,379.333 530.5,379C 525.5,372 520.5,365 515.5,358C 506.5,357 497.5,356 488.5,355C 485.119,351.809 481.119,349.976 476.5,349.5C 465.011,351.373 453.678,353.873 442.5,357C 443.448,357.483 444.448,357.649 445.5,357.5C 444.432,358.434 443.099,358.768 441.5,358.5C 439.636,357.207 437.636,357.207 435.5,358.5C 433.628,362.412 431.628,366.245 429.5,370C 424.82,372.258 419.987,374.091 415,375.5C 409.737,374.135 404.571,372.468 399.5,370.5C 396.066,361.364 392.733,352.198 389.5,343C 382.119,342.314 374.786,341.647 367.5,341C 359.681,344.41 352.014,348.077 344.5,352C 345.094,352.464 345.761,352.631 346.5,352.5C 345.486,353.674 344.153,354.34 342.5,354.5C 342.631,353.761 342.464,353.094 342,352.5C 340.561,354.014 339.061,354.347 337.5,353.5C 335.333,349.833 333.167,346.167 331,342.5C 330.839,338.458 331.339,334.458 332.5,330.5C 332.167,329.5 331.833,328.5 331.5,327.5C 327.324,324.912 323.324,322.079 319.5,319C 317.365,318.395 317.031,318.895 318.5,320.5C 316.973,320.573 315.973,319.906 315.5,318.5C 315.167,317.833 314.833,317.167 314.5,316.5C 311.008,313.158 307.175,310.158 303,307.5C 302.625,303.279 301.625,299.279 300,295.5C 299.536,296.094 299.369,296.761 299.5,297.5C 298.596,296.791 298.263,295.791 298.5,294.5C 299.043,294.44 299.376,294.107 299.5,293.5C 291.521,292.335 283.521,292.168 275.5,293C 270.833,297.667 266.167,302.333 261.5,307C 258.007,307.942 254.674,309.275 251.5,311C 248.984,313.683 246.317,316.183 243.5,318.5C 242.264,317.754 240.93,317.421 239.5,317.5C 232.915,314.027 225.915,311.861 218.5,311C 213.973,314.699 209.639,318.532 205.5,322.5C 204.275,323.152 203.608,324.319 203.5,326C 202.667,331.833 201.833,337.667 201,343.5C 197.692,346.735 193.859,348.735 189.5,349.5C 182.891,357.446 175.891,365.113 168.5,372.5C 159.43,368.035 150.096,364.368 140.5,361.5C 138.847,369.447 137.513,377.447 136.5,385.5C 135.287,386.575 133.787,387.241 132,387.5C 124.842,386.594 117.676,385.76 110.5,385C 107.257,381.179 104.257,377.179 101.5,373C 95.5,372 89.5,371 83.5,370C 81.5,367 79.5,364 77.5,361C 71.5,360 65.5,359 59.5,358C 55.7516,351.168 51.7516,344.501 47.5,338C 40.1738,338.454 33.0071,339.954 26,342.5C 21.8833,341.221 19.3833,338.554 18.5,334.5C 18.9402,327.233 20.4402,320.233 23,313.5C 23.6429,307.373 22.9762,301.373 21,295.5C 17.3333,291.167 13.6667,286.833 10,282.5C 10.8529,276.255 12.3529,270.088 14.5,264C 11.4884,257.482 7.82174,251.315 3.5,245.5C 6,241.167 8.5,236.833 11,232.5C 15.6876,228.311 20.5209,224.311 25.5,220.5C 25.8333,219.667 26.1667,218.833 26.5,218C 24.5082,212.885 23.0082,207.718 22,202.5C 27.6667,196.167 33.3333,189.833 39,183.5C 39.171,178.467 39.671,173.467 40.5,168.5C 43.0956,167.518 45.7623,166.851 48.5,166.5C 59.396,171.12 70.0627,175.953 80.5,181C 81.6599,175.872 82.8266,170.705 84,165.5C 90.3729,159.458 97.0396,153.792 104,148.5C 104.581,144.064 104.081,139.731 102.5,135.5C 103.564,133.041 104.898,130.708 106.5,128.5C 120.015,129.092 133.515,129.092 147,128.5C 150.053,122.985 151.387,116.985 151,110.5C 156.015,99.8344 156.848,88.8344 153.5,77.5C 153.833,76.5 154.167,75.5 154.5,74.5C 159.303,71.5289 163.97,68.3623 168.5,65C 174.157,64.5006 179.824,64.3339 185.5,64.5C 190.642,65.6471 195.975,66.4804 201.5,67C 203.401,70.6441 205.401,74.1441 207.5,77.5C 212.067,79.2851 217.067,80.1184 222.5,80C 225.295,81.2997 227.961,82.7997 230.5,84.5C 231.429,85.6888 231.762,87.0222 231.5,88.5C 241.538,90.9561 251.538,93.6227 261.5,96.5C 262.5,96.3333 263.5,96.1667 264.5,96C 267.016,93.3167 269.683,90.8167 272.5,88.5C 280.167,92 287.833,95.5 295.5,99C 300.158,99.8819 304.491,99.0486 308.5,96.5C 311.396,86.5219 314.229,76.5219 317,66.5C 318.18,65.3159 319.68,64.6493 321.5,64.5C 327.569,65.1287 333.569,66.1287 339.5,67.5C 343.5,77.1667 347.5,86.8333 351.5,96.5C 357.472,97.6636 363.472,97.8303 369.5,97C 378.772,94.7455 388.106,92.7455 397.5,91C 399.116,90.3848 400.449,89.3848 401.5,88C 408.448,86.5239 415.448,85.8572 422.5,86C 425.833,88.6667 429.167,91.3333 432.5,94C 438.196,94.8299 443.863,94.6632 449.5,93.5C 453.419,87.3303 457.086,80.9969 460.5,74.5C 468.479,73.3351 476.479,73.1684 484.5,74C 490.542,80.3729 496.208,87.0396 501.5,94C 505.167,94.6667 508.833,94.6667 512.5,94C 518.042,88.7895 523.875,83.9562 530,79.5C 531.636,75.2898 532.803,70.9564 533.5,66.5C 538.545,66.2079 543.545,65.5412 548.5,64.5C 549.167,64.8333 549.833,65.1667 550.5,65.5C 556.167,76.8333 561.833,88.1667 567.5,99.5C 571.38,100.795 575.214,100.795 579,99.5C 582.667,93.8333 586.333,88.1667 590,82.5C 594.084,85.1258 598.25,87.6258 602.5,90C 603.833,90.6667 605.167,90.6667 606.5,90C 615.978,82.6898 625.311,75.1898 634.5,67.5C 638.978,70.8104 643.311,74.3104 647.5,78C 648.793,78.49 650.127,78.6567 651.5,78.5C 653.619,66.4517 655.952,54.4517 658.5,42.5C 664.556,40.7683 670.889,39.935 677.5,40C 678.667,38.8333 679.833,37.6667 681,36.5C 683.068,24.8592 684.901,13.1926 686.5,1.5C 694.669,3.55638 702.669,6.22304 710.5,9.5C 711.988,15.4288 713.155,21.4288 714,27.5C 718.907,33.646 721.24,40.646 721,48.5C 724.151,51.407 727.484,54.0736 731,56.5C 731.667,59.5 731.667,62.5 731,65.5C 721.333,75.1667 711.667,84.8333 702,94.5C 701.257,96.4406 701.424,98.2739 702.5,100C 709.282,102.558 715.949,105.391 722.5,108.5C 723.881,113.618 725.214,118.618 726.5,123.5 Z"/></g>
<g><path style="opacity:0.634" fill="#bb6f6c" d="M 185.5,64.5 C 191.176,64.3339 196.843,64.5006 202.5,65C 204.857,68.9068 206.524,73.0735 207.5,77.5C 205.401,74.1441 203.401,70.6441 201.5,67C 195.975,66.4804 190.642,65.6471 185.5,64.5 Z"/></g>
<g><path style="opacity:1" fill="#be7670" d="M 658.5,42.5 C 655.952,54.4517 653.619,66.4517 651.5,78.5C 650.127,78.6567 648.793,78.49 647.5,78C 643.311,74.3104 638.978,70.8104 634.5,67.5C 625.311,75.1898 615.978,82.6898 606.5,90C 605.167,90.6667 603.833,90.6667 602.5,90C 598.25,87.6258 594.084,85.1258 590,82.5C 586.333,88.1667 582.667,93.8333 579,99.5C 575.214,100.795 571.38,100.795 567.5,99.5C 561.833,88.1667 556.167,76.8333 550.5,65.5C 549.833,65.1667 549.167,64.8333 548.5,64.5C 543.545,65.5412 538.545,66.2079 533.5,66.5C 532.803,70.9564 531.636,75.2898 530,79.5C 523.875,83.9562 518.042,88.7895 512.5,94C 508.833,94.6667 505.167,94.6667 501.5,94C 496.208,87.0396 490.542,80.3729 484.5,74C 476.479,73.1684 468.479,73.3351 460.5,74.5C 457.086,80.9969 453.419,87.3303 449.5,93.5C 443.863,94.6632 438.196,94.8299 432.5,94C 429.167,91.3333 425.833,88.6667 422.5,86C 415.448,85.8572 408.448,86.5239 401.5,88C 400.449,89.3848 399.116,90.3848 397.5,91C 388.106,92.7455 378.772,94.7455 369.5,97C 363.472,97.8303 357.472,97.6636 351.5,96.5C 347.5,86.8333 343.5,77.1667 339.5,67.5C 333.569,66.1287 327.569,65.1287 321.5,64.5C 319.68,64.6493 318.18,65.3159 317,66.5C 314.229,76.5219 311.396,86.5219 308.5,96.5C 304.491,99.0486 300.158,99.8819 295.5,99C 287.833,95.5 280.167,92 272.5,88.5C 269.683,90.8167 267.016,93.3167 264.5,96C 263.5,96.1667 262.5,96.3333 261.5,96.5C 251.538,93.6227 241.538,90.9561 231.5,88.5C 231.762,87.0222 231.429,85.6888 230.5,84.5C 227.961,82.7997 225.295,81.2997 222.5,80C 217.067,80.1184 212.067,79.2851 207.5,77.5C 216.084,76.4404 224.084,78.1071 231.5,82.5C 232.429,83.6888 232.762,85.0222 232.5,86.5C 242.257,88.7512 251.924,91.4178 261.5,94.5C 265.167,91.8333 268.833,89.1667 272.5,86.5C 280.4,89.4494 288.067,92.9494 295.5,97C 299.539,97.0485 303.539,96.5485 307.5,95.5C 310.009,84.4647 312.675,73.4647 315.5,62.5C 323.884,63.2304 332.217,64.397 340.5,66C 345.189,75.5714 349.189,85.4048 352.5,95.5C 358.176,95.6661 363.843,95.4994 369.5,95C 374.779,93.5132 380.112,92.3465 385.5,91.5C 389.874,91.4977 393.874,90.4977 397.5,88.5C 398.627,87.8783 399.627,87.045 400.5,86C 408.118,84.4818 415.785,83.8151 423.5,84C 426.5,86.3333 429.5,88.6667 432.5,91C 437.833,91.6667 443.167,91.6667 448.5,91C 452.5,84.6667 456.5,78.3333 460.5,72C 468.833,71.3333 477.167,71.3333 485.5,72C 491.353,78.3521 497.02,84.8521 502.5,91.5C 505.446,92.6548 508.446,92.8214 511.5,92C 517.02,86.9793 522.686,82.1459 528.5,77.5C 529.914,73.3398 531.247,69.1731 532.5,65C 538.841,63.7634 545.174,63.5967 551.5,64.5C 557.422,75.3433 563.089,86.3433 568.5,97.5C 571.5,98.8333 574.5,98.8333 577.5,97.5C 581.291,92.086 584.957,86.586 588.5,81C 589.5,80.3333 590.5,80.3333 591.5,81C 595.833,83.5 600.167,86 604.5,88.5C 614.016,81.2401 623.349,73.7401 632.5,66C 633.833,65.3333 635.167,65.3333 636.5,66C 640.667,69.5 644.833,73 649,76.5C 651.881,64.9605 655.048,53.6272 658.5,42.5 Z"/></g>
<g><path style="opacity:0.745" fill="#b87072" d="M 185.5,64.5 C 179.824,64.3339 174.157,64.5006 168.5,65C 163.97,68.3623 159.303,71.5289 154.5,74.5C 154.167,75.5 153.833,76.5 153.5,77.5C 156.848,88.8344 156.015,99.8344 151,110.5C 151.387,116.985 150.053,122.985 147,128.5C 133.515,129.092 120.015,129.092 106.5,128.5C 104.898,130.708 103.564,133.041 102.5,135.5C 104.081,139.731 104.581,144.064 104,148.5C 97.0396,153.792 90.3729,159.458 84,165.5C 82.8266,170.705 81.6599,175.872 80.5,181C 70.0627,175.953 59.396,171.12 48.5,166.5C 48.1583,165.662 47.4916,165.328 46.5,165.5C 47.9464,164.387 49.6131,164.22 51.5,165C 60.5,169.5 69.5,174 78.5,178.5C 79.9835,173.584 81.1502,168.584 82,163.5C 89,157.5 96,151.5 103,145.5C 102.412,142.041 101.578,138.541 100.5,135C 101.632,131.739 103.299,128.739 105.5,126C 116.861,125.613 128.194,126.113 139.5,127.5C 143.475,128.3 146.308,126.967 148,123.5C 147.6,114.429 149.266,105.762 153,97.5C 152.76,89.4924 152.427,81.4924 152,73.5C 157.167,70.3333 162.333,67.1667 167.5,64C 173.681,63.1808 179.681,63.3475 185.5,64.5 Z"/></g>
<g><path style="opacity:0.812" fill="#be7271" d="M 684.5,-0.5 C 685.833,-0.5 687.167,-0.5 688.5,-0.5C 696.29,2.37838 704.123,5.37838 712,8.5C 713.496,18.6633 716.496,28.3299 721,37.5C 721.176,40.8818 721.676,44.2152 722.5,47.5C 726.142,49.9749 729.642,52.6415 733,55.5C 733.667,59.1667 733.667,62.8333 733,66.5C 722.153,76.8388 711.987,87.5055 702.5,98.5C 710.26,100.81 717.76,103.81 725,107.5C 725.83,112.808 726.33,118.141 726.5,123.5C 725.214,118.618 723.881,113.618 722.5,108.5C 715.949,105.391 709.282,102.558 702.5,100C 701.424,98.2739 701.257,96.4406 702,94.5C 711.667,84.8333 721.333,75.1667 731,65.5C 731.667,62.5 731.667,59.5 731,56.5C 727.484,54.0736 724.151,51.407 721,48.5C 721.24,40.646 718.907,33.646 714,27.5C 713.155,21.4288 711.988,15.4288 710.5,9.5C 702.669,6.22304 694.669,3.55638 686.5,1.5C 684.901,13.1926 683.068,24.8592 681,36.5C 679.833,37.6667 678.667,38.8333 677.5,40C 670.889,39.935 664.556,40.7683 658.5,42.5C 658.5,41.1667 658.5,39.8333 658.5,38.5C 663.844,38.666 669.177,38.4994 674.5,38C 676.676,37.8371 678.509,37.0037 680,35.5C 681.735,23.5201 683.235,11.5201 684.5,-0.5 Z"/></g>
<g><path style="opacity:1" fill="#cfad75" d="M 397.5,88.5 C 393.874,90.4977 389.874,91.4977 385.5,91.5C 389.264,90.0085 393.264,89.0085 397.5,88.5 Z"/></g>
<g><path style="opacity:0.937" fill="#bb6c6f" d="M 726.5,123.5 C 735.966,127.266 739.299,134.266 736.5,144.5C 736.167,149.167 735.833,153.833 735.5,158.5C 734.098,158.865 733.098,159.699 732.5,161C 729.328,167.689 726.662,174.523 724.5,181.5C 723.387,180.054 723.22,178.387 724,176.5C 726.91,169.681 730.077,163.015 733.5,156.5C 734.665,148.187 734.832,139.853 734,131.5C 731.295,128.964 728.795,126.297 726.5,123.5 Z"/></g>
<g><path style="opacity:0.839" fill="#bd706f" d="M 724.5,181.5 C 728.394,188.959 732.061,196.626 735.5,204.5C 735.392,205.442 735.059,206.275 734.5,207C 724.853,211.655 716.02,217.488 708,224.5C 708.837,231.528 710.17,238.528 712,245.5C 715.427,248.42 718.261,251.753 720.5,255.5C 718.427,260.719 716.76,266.052 715.5,271.5C 714.387,270.054 714.22,268.387 715,266.5C 716.5,262.833 718,259.167 719.5,255.5C 716.85,252.349 714.016,249.349 711,246.5C 708.698,239.624 706.864,232.624 705.5,225.5C 705.876,223.617 706.876,222.117 708.5,221C 716.658,214.842 725.325,209.509 734.5,205C 730.468,197.439 727.135,189.606 724.5,181.5 Z"/></g>
<g><path style="opacity:0.975" fill="#b96c74" d="M 46.5,165.5 C 47.4916,165.328 48.1583,165.662 48.5,166.5C 45.7623,166.851 43.0956,167.518 40.5,168.5C 39.671,173.467 39.171,178.467 39,183.5C 33.3333,189.833 27.6667,196.167 22,202.5C 23.0082,207.718 24.5082,212.885 26.5,218C 26.1667,218.833 25.8333,219.667 25.5,220.5C 20.5209,224.311 15.6876,228.311 11,232.5C 8.5,236.833 6,241.167 3.5,245.5C 7.82174,251.315 11.4884,257.482 14.5,264C 12.3529,270.088 10.8529,276.255 10,282.5C 13.6667,286.833 17.3333,291.167 21,295.5C 22.9762,301.373 23.6429,307.373 23,313.5C 20.4402,320.233 18.9402,327.233 18.5,334.5C 19.3833,338.554 21.8833,341.221 26,342.5C 33.0071,339.954 40.1738,338.454 47.5,338C 51.7516,344.501 55.7516,351.168 59.5,358C 65.5,359 71.5,360 77.5,361C 79.5,364 81.5,367 83.5,370C 89.5,371 95.5,372 101.5,373C 104.257,377.179 107.257,381.179 110.5,385C 117.676,385.76 124.842,386.594 132,387.5C 133.787,387.241 135.287,386.575 136.5,385.5C 136.5,386.5 136.5,387.5 136.5,388.5C 127.482,388.38 118.482,387.88 109.5,387C 106.642,383.642 103.975,380.142 101.5,376.5C 95.2218,374.811 88.8884,373.311 82.5,372C 80.6372,369.636 78.9705,367.136 77.5,364.5C 71.2231,362.514 64.8898,360.68 58.5,359C 54.8333,352.667 51.1667,346.333 47.5,340C 40.8344,340.829 34.1678,341.995 27.5,343.5C 24.0048,343.088 20.6715,342.088 17.5,340.5C 16.3483,337.894 16.1816,335.227 17,332.5C 17.7177,324.622 19.2177,316.955 21.5,309.5C 21.0822,305.157 20.5822,300.824 20,296.5C 15.6667,292.167 11.3333,287.833 7,283.5C 7.58852,277.058 9.42185,270.892 12.5,265C 8.69736,258.56 5.03069,252.06 1.5,245.5C 4.09513,240.395 6.92846,235.395 10,230.5C 15.0081,226.323 19.8414,221.99 24.5,217.5C 21.8507,212.398 20.3507,207.065 20,201.5C 25.6667,195.5 31.3333,189.5 37,183.5C 37.4994,178.177 37.666,172.844 37.5,167.5C 40.5,166.833 43.5,166.167 46.5,165.5 Z"/></g>
<g><path style="opacity:1" fill="#bb6d6e" d="M 717.5,275.5 C 720.833,279.026 723.166,283.193 724.5,288C 721.478,297.197 717.811,306.03 713.5,314.5C 716.293,305.456 719.293,296.456 722.5,287.5C 720.824,283.484 719.157,279.484 717.5,275.5 Z"/></g>
<g><path style="opacity:0.882" fill="#b56b70" d="M 298.5,294.5 C 291.679,293.345 284.679,293.179 277.5,294C 273.167,298.333 268.833,302.667 264.5,307C 260.952,308.941 257.286,310.607 253.5,312C 250.833,314.667 248.167,317.333 245.5,320C 243.735,320.64 242.068,320.473 240.5,319.5C 240.167,318.833 239.833,318.167 239.5,317.5C 240.93,317.421 242.264,317.754 243.5,318.5C 246.317,316.183 248.984,313.683 251.5,311C 254.674,309.275 258.007,307.942 261.5,307C 266.167,302.333 270.833,297.667 275.5,293C 283.521,292.168 291.521,292.335 299.5,293.5C 299.376,294.107 299.043,294.44 298.5,294.5 Z"/></g>
<g><path style="opacity:0.725" fill="#98a0ab" d="M 302.5,309.5 C 304.404,309.738 305.738,310.738 306.5,312.5C 304.596,312.262 303.262,311.262 302.5,309.5 Z"/></g>
<g><path style="opacity:0.99" fill="#b86b6f" d="M 314.5,316.5 C 313.833,316.5 313.167,316.5 312.5,316.5C 312.027,315.094 311.027,314.427 309.5,314.5C 309.027,313.094 308.027,312.427 306.5,312.5C 305.738,310.738 304.404,309.738 302.5,309.5C 300.898,305.761 299.898,301.761 299.5,297.5C 299.369,296.761 299.536,296.094 300,295.5C 301.625,299.279 302.625,303.279 303,307.5C 307.175,310.158 311.008,313.158 314.5,316.5 Z"/></g>
<g><path style="opacity:0.482" fill="#90a7b3" d="M 306.5,312.5 C 308.027,312.427 309.027,313.094 309.5,314.5C 307.973,314.573 306.973,313.906 306.5,312.5 Z"/></g>
<g><path style="opacity:0.851" fill="#be7271" d="M 782.5,378.5 C 782.5,379.167 782.5,379.833 782.5,380.5C 777.643,378.486 773.143,375.819 769,372.5C 769.337,363.811 770.837,355.311 773.5,347C 764.84,346.5 756.173,346.334 747.5,346.5C 747.425,335.778 748.091,325.112 749.5,314.5C 739.179,317.829 728.846,321.162 718.5,324.5C 713.297,324.333 711.297,321.999 712.5,317.5C 713.639,320.506 715.806,322.506 719,323.5C 729.418,319.195 739.918,315.195 750.5,311.5C 750.128,322.499 749.794,333.499 749.5,344.5C 758.167,344.5 766.833,344.5 775.5,344.5C 774.221,352.895 772.554,361.228 770.5,369.5C 773.687,373.443 777.687,376.443 782.5,378.5 Z"/></g>
<g><path style="opacity:0.914" fill="#b1787d" d="M 239.5,317.5 C 239.833,318.167 240.167,318.833 240.5,319.5C 233.985,317.272 227.485,314.939 221,312.5C 215.878,315.973 210.712,319.306 205.5,322.5C 209.639,318.532 213.973,314.699 218.5,311C 225.915,311.861 232.915,314.027 239.5,317.5 Z"/></g>
<g><path style="opacity:0.553" fill="#99a0ac" d="M 309.5,314.5 C 311.027,314.427 312.027,315.094 312.5,316.5C 310.973,316.573 309.973,315.906 309.5,314.5 Z"/></g>
<g><path style="opacity:0.624" fill="#9f9aa3" d="M 312.5,316.5 C 313.167,316.5 313.833,316.5 314.5,316.5C 314.833,317.167 315.167,317.833 315.5,318.5C 313.973,318.573 312.973,317.906 312.5,316.5 Z"/></g>
<g><path style="opacity:0.973" fill="#b07a7f" d="M 342.5,354.5 C 340.881,356.238 338.881,356.738 336.5,356C 334.432,353.358 332.765,350.525 331.5,347.5C 331.573,345.973 330.906,344.973 329.5,344.5C 328.848,343.551 328.514,342.385 328.5,341C 329.422,337.17 329.922,333.337 330,329.5C 327.312,327.636 324.812,325.636 322.5,323.5C 322.027,322.094 321.027,321.427 319.5,321.5C 318.833,321.5 318.5,321.167 318.5,320.5C 317.031,318.895 317.365,318.395 319.5,319C 323.324,322.079 327.324,324.912 331.5,327.5C 331.833,328.5 332.167,329.5 332.5,330.5C 331.339,334.458 330.839,338.458 331,342.5C 333.167,346.167 335.333,349.833 337.5,353.5C 339.061,354.347 340.561,354.014 342,352.5C 342.464,353.094 342.631,353.761 342.5,354.5 Z"/></g>
<g><path style="opacity:0.451" fill="#99a0ac" d="M 319.5,321.5 C 321.027,321.427 322.027,322.094 322.5,323.5C 320.973,323.573 319.973,322.906 319.5,321.5 Z"/></g>
<g><path style="opacity:1" fill="#b37a7e" d="M 205.5,322.5 C 205.09,329.874 204.256,337.207 203,344.5C 200.198,347.146 197.032,349.146 193.5,350.5C 192.432,349.566 191.099,349.232 189.5,349.5C 193.859,348.735 197.692,346.735 201,343.5C 201.833,337.667 202.667,331.833 203.5,326C 203.608,324.319 204.275,323.152 205.5,322.5 Z"/></g>
<g><path style="opacity:0.004" fill="#79b3c4" d="M 329.5,344.5 C 330.906,344.973 331.573,345.973 331.5,347.5C 330.094,347.027 329.427,346.027 329.5,344.5 Z"/></g>
<g><path style="opacity:1" fill="#b17c81" d="M 441.5,358.5 C 440.081,359.451 438.415,359.784 436.5,359.5C 435.531,363.608 433.864,367.441 431.5,371C 427.5,373 423.5,375 419.5,377C 411.522,376.676 404.022,374.51 397,370.5C 393.66,361.981 390.827,353.315 388.5,344.5C 382.87,344.822 377.37,344.155 372,342.5C 363.536,345.984 355.036,349.317 346.5,352.5C 345.761,352.631 345.094,352.464 344.5,352C 352.014,348.077 359.681,344.41 367.5,341C 374.786,341.647 382.119,342.314 389.5,343C 392.733,352.198 396.066,361.364 399.5,370.5C 404.571,372.468 409.737,374.135 415,375.5C 419.987,374.091 424.82,372.258 429.5,370C 431.628,366.245 433.628,362.412 435.5,358.5C 437.636,357.207 439.636,357.207 441.5,358.5 Z"/></g>
<g><path style="opacity:0.271" fill="#b66a6e" d="M 189.5,349.5 C 191.099,349.232 192.432,349.566 193.5,350.5C 192.022,350.238 190.689,350.571 189.5,351.5C 183.353,358.815 177.019,365.982 170.5,373C 161.218,370.96 152.218,367.793 143.5,363.5C 141.136,370.921 138.803,378.254 136.5,385.5C 137.513,377.447 138.847,369.447 140.5,361.5C 150.096,364.368 159.43,368.035 168.5,372.5C 175.891,365.113 182.891,357.446 189.5,349.5 Z"/></g>
<g><path style="opacity:0.125" fill="#77b6c7" d="M 513.5,359.5 C 518.934,366.174 524.268,373.007 529.5,380C 533.688,380.176 537.688,380.676 541.5,381.5C 537.154,381.666 532.821,381.499 528.5,381C 522.865,374.212 517.865,367.045 513.5,359.5 Z"/></g>
<g><path style="opacity:0.4" fill="#b77276" d="M 566.5,451.5 C 564.526,449.048 563.192,446.215 562.5,443C 565.25,435.999 568.416,429.166 572,422.5C 572.81,418.642 572.643,414.976 571.5,411.5C 569.898,409.926 567.898,409.259 565.5,409.5C 561.634,409.046 558.134,407.712 555,405.5C 550.726,397.276 546.226,389.276 541.5,381.5C 537.688,380.676 533.688,380.176 529.5,380C 524.268,373.007 518.934,366.174 513.5,359.5C 504.612,359.217 495.945,358.217 487.5,356.5C 486.738,354.738 485.404,353.738 483.5,353.5C 481.448,352.29 479.282,351.29 477,350.5C 466.556,353.155 456.056,355.489 445.5,357.5C 444.448,357.649 443.448,357.483 442.5,357C 453.678,353.873 465.011,351.373 476.5,349.5C 481.119,349.976 485.119,351.809 488.5,355C 497.5,356 506.5,357 515.5,358C 520.5,365 525.5,372 530.5,379C 534.5,379.333 538.5,379.667 542.5,380C 547.753,388.503 552.753,397.17 557.5,406C 562.739,407.01 567.905,408.177 573,409.5C 573.667,414.167 573.667,418.833 573,423.5C 569.888,430.056 567.055,436.723 564.5,443.5C 565.378,446.13 566.045,448.797 566.5,451.5 Z"/></g>
<g><path style="opacity:0.925" fill="#98a1ac" d="M 483.5,353.5 C 485.404,353.738 486.738,354.738 487.5,356.5C 485.596,356.262 484.262,355.262 483.5,353.5 Z"/></g>
<g><path style="opacity:0.902" fill="#8ea8b5" d="M 565.5,409.5 C 567.898,409.259 569.898,409.926 571.5,411.5C 569.214,411.405 567.214,410.738 565.5,409.5 Z"/></g>
<g><path style="opacity:0.173" fill="#b97471" d="M 782.5,383.5 C 782.5,385.833 782.5,388.167 782.5,390.5C 781.033,394.625 779.867,398.958 779,403.5C 776.833,405.667 774.667,407.833 772.5,410C 765.563,411.621 758.563,412.788 751.5,413.5C 750.997,422.524 750.164,431.524 749,440.5C 745.747,442.543 742.58,444.71 739.5,447C 743.902,453.642 747.902,460.475 751.5,467.5C 751.427,469.027 752.094,470.027 753.5,470.5C 754.774,471.189 754.774,472.023 753.5,473C 742.833,473.667 732.167,473.667 721.5,473C 719.942,470.948 718.608,468.781 717.5,466.5C 719.701,466.858 721.035,468.192 721.5,470.5C 731.483,471.666 741.483,471.832 751.5,471C 746.905,463.144 742.572,455.144 738.5,447C 740.952,444.171 743.785,441.671 747,439.5C 748,430.5 749,421.5 750,412.5C 757.077,411.06 764.244,409.893 771.5,409C 773.333,407.167 775.167,405.333 777,403.5C 778.548,396.628 780.382,389.961 782.5,383.5 Z"/></g>
<g><path style="opacity:0.968" fill="#ba6a6e" d="M 573.5,454.5 C 579.283,456.095 584.949,458.095 590.5,460.5C 591.328,464.796 591.828,469.129 592,473.5C 593.5,475 595,476.5 596.5,478C 604.068,480.309 611.734,482.142 619.5,483.5C 618.903,484.139 618.07,484.472 617,484.5C 609.482,482.745 601.982,480.912 594.5,479C 588.943,474.123 586.943,467.956 588.5,460.5C 583.117,459.266 578.117,457.266 573.5,454.5 Z"/></g>
<g><path style="opacity:0.463" fill="#abbd8a" d="M 751.5,467.5 C 752.906,467.973 753.573,468.973 753.5,470.5C 752.094,470.027 751.427,469.027 751.5,467.5 Z"/></g>
<g><path style="opacity:0.502" fill="#b8666b" d="M 686.5,471.5 C 682.733,472.795 678.733,473.461 674.5,473.5C 674.611,472.883 674.944,472.383 675.5,472C 679.152,471.501 682.818,471.335 686.5,471.5 Z"/></g>
<g><path style="opacity:1" fill="#bc7172" d="M 670.5,476.5 C 667.129,480.032 663.295,483.032 659,485.5C 656.888,484.392 655.054,482.892 653.5,481C 642.757,480.81 632.09,480.31 621.5,479.5C 626.456,478.172 631.789,477.505 637.5,477.5C 642.833,477.667 648.167,477.833 653.5,478C 655.333,479.833 657.167,481.667 659,483.5C 662.736,480.914 666.57,478.581 670.5,476.5 Z"/></g>
</svg>
