<?xml version="1.0" encoding="UTF-8"?>
<!DOCTYPE svg PUBLIC "-//W3C//DTD SVG 1.1//EN" "http://www.w3.org/Graphics/SVG/1.1/DTD/svg11.dtd">
<svg xmlns="http://www.w3.org/2000/svg" version="1.1" width="708px" height="515px" style="shape-rendering:geometricPrecision; text-rendering:geometricPrecision; image-rendering:optimizeQuality; fill-rule:evenodd; clip-rule:evenodd" xmlns:xlink="http://www.w3.org/1999/xlink">
<g><path style="opacity:1" fill="#ddedd4" d="M 507.5,42.5 C 513.987,43.3283 520.654,43.8283 527.5,44C 535.5,49.3333 543.5,54.6667 551.5,60C 556.536,60.0952 561.536,59.5952 566.5,58.5C 565.501,66.4859 565.001,74.4859 565,82.5C 569.11,86.7677 572.61,91.4344 575.5,96.5C 573.516,103.768 571.85,111.101 570.5,118.5C 570.651,121.453 571.317,124.286 572.5,127C 566.493,133.67 559.827,139.67 552.5,145C 542.17,147.771 531.67,149.604 521,150.5C 507.946,144.727 494.78,139.06 481.5,133.5C 476.94,135.885 472.773,138.885 469,142.5C 469.903,150.88 472.236,158.88 476,166.5C 477.72,181.143 479.22,195.809 480.5,210.5C 484.328,213.8 488.328,214.134 492.5,211.5C 498.167,220.833 503.833,230.167 509.5,239.5C 514.358,243.104 519.692,245.271 525.5,246C 528.859,242.992 532.526,240.492 536.5,238.5C 539.211,239.014 541.711,240.014 544,241.5C 548.392,251.952 553.059,262.285 558,272.5C 560.846,274.257 563.512,276.257 566,278.5C 565.425,287.447 563.925,296.28 561.5,305C 563.994,314.648 566.994,324.148 570.5,333.5C 575.804,336.323 581.47,337.823 587.5,338C 591.768,342.11 596.434,345.61 601.5,348.5C 610.324,345.225 618.991,341.558 627.5,337.5C 631.167,342.833 634.833,348.167 638.5,353.5C 639.333,353.833 640.167,354.167 641,354.5C 650.59,352.585 659.924,349.919 669,346.5C 670.128,350.54 671.628,354.373 673.5,358C 677.983,360.789 682.65,361.956 687.5,361.5C 689.553,361.402 691.22,362.069 692.5,363.5C 692.908,364.643 693.575,365.643 694.5,366.5C 696.811,367.214 698.978,368.214 701,369.5C 701.161,376.883 700.495,384.216 699,391.5C 696.92,393.123 694.754,394.623 692.5,396C 686.584,396.19 680.751,396.69 675,397.5C 672.585,407.407 670.752,417.407 669.5,427.5C 665.923,428.579 662.256,429.246 658.5,429.5C 652.179,428.476 645.845,427.976 639.5,428C 636.179,430.977 634.179,434.644 633.5,439C 635.008,446.366 636.675,453.699 638.5,461C 637.42,464.662 635.92,468.162 634,471.5C 627.925,472.93 621.758,474.097 615.5,475C 610.208,481.96 604.542,488.627 598.5,495C 596.5,495.667 594.5,495.667 592.5,495C 587.167,489.667 581.833,484.333 576.5,479C 574.833,478.333 573.167,478.333 571.5,479C 564.795,481.402 558.128,483.902 551.5,486.5C 547.305,480.804 543.305,474.971 539.5,469C 529.448,467.256 519.448,465.256 509.5,463C 498.833,462.333 488.167,462.333 477.5,463C 476.107,464.363 474.441,465.196 472.5,465.5C 468.262,463.546 463.929,461.88 459.5,460.5C 450.914,462.862 442.414,465.528 434,468.5C 428.891,465.696 423.724,463.029 418.5,460.5C 416.792,460.703 415.459,461.536 414.5,463C 403.539,464.406 392.539,465.239 381.5,465.5C 381.5,466.833 381.5,468.167 381.5,469.5C 369.685,472.827 358.018,476.66 346.5,481C 344.098,483.703 342.765,486.87 342.5,490.5C 337.151,491.207 331.818,491.707 326.5,492C 321.833,489.667 317.167,487.333 312.5,485C 310.998,481.995 309.998,478.829 309.5,475.5C 300.118,474.531 290.784,473.198 281.5,471.5C 279.551,466.437 277.218,461.604 274.5,457C 269.106,454.088 263.44,452.421 257.5,452C 254.31,452.568 252.643,454.401 252.5,457.5C 255.17,470.179 257.837,482.846 260.5,495.5C 251.827,495.334 243.16,495.5 234.5,496C 230.585,500.422 226.252,504.255 221.5,507.5C 213.137,505.101 204.803,502.601 196.5,500C 193.232,490.176 190.898,480.01 189.5,469.5C 181.475,469.885 173.475,470.551 165.5,471.5C 165.831,480.192 165.498,488.859 164.5,497.5C 162.56,498.095 160.56,498.428 158.5,498.5C 152.167,497.833 145.833,497.167 139.5,496.5C 135.235,496.359 132.568,498.359 131.5,502.5C 128.602,505.639 124.935,507.139 120.5,507C 113.247,499.906 105.58,493.406 97.5,487.5C 89.5422,491.48 81.8755,495.98 74.5,501C 72.7111,501.52 71.0444,501.187 69.5,500C 66.2916,495.753 63.4583,491.253 61,486.5C 61.9167,483.286 62.2501,479.953 62,476.5C 59.7545,471.674 57.2545,467.008 54.5,462.5C 62.6757,454.492 71.1757,446.825 80,439.5C 79.5976,434.531 77.4309,430.365 73.5,427C 60.5427,423.511 47.5427,420.177 34.5,417C 25.5363,409.705 16.8696,402.038 8.5,394C 7.55198,393.517 6.55198,393.351 5.5,393.5C 7.6519,388.526 9.81856,383.526 12,378.5C 16.7549,375.872 21.5882,373.372 26.5,371C 29.8316,371.147 33.165,371.647 36.5,372.5C 43.1491,371.526 49.8158,370.693 56.5,370C 62.5798,361.785 66.7465,352.618 69,342.5C 72.2486,340.266 74.2486,337.266 75,333.5C 77.3913,332.61 78.8913,330.943 79.5,328.5C 81.1992,328.66 82.8659,328.494 84.5,328C 94.8333,321.667 105.167,315.333 115.5,309C 117.677,307.798 120.011,307.298 122.5,307.5C 122.152,302.955 121.485,298.455 120.5,294C 120.804,289.003 121.804,284.17 123.5,279.5C 135.096,275.531 146.763,271.864 158.5,268.5C 159.03,263.713 157.863,259.38 155,255.5C 150.667,251.167 146.333,246.833 142,242.5C 141.831,235.144 141.331,227.811 140.5,220.5C 137.943,219.593 135.443,218.593 133,217.5C 134.166,205.493 135.666,193.493 137.5,181.5C 136.5,181.5 135.5,181.5 134.5,181.5C 133.306,175.057 131.639,168.724 129.5,162.5C 134.318,157.181 139.318,152.015 144.5,147C 145.873,146.125 147.373,145.625 149,145.5C 154.667,147.167 160.333,148.833 166,150.5C 166.833,150.333 167.667,150.167 168.5,150C 172.099,147.048 175.433,143.882 178.5,140.5C 181.268,138.913 183.935,137.08 186.5,135C 187.804,134.196 188.471,133.029 188.5,131.5C 185.524,124.882 182.024,118.549 178,112.5C 177.333,111.5 177.333,110.5 178,109.5C 185.306,102.207 191.806,94.3738 197.5,86C 194.976,79.118 192.31,72.2847 189.5,65.5C 191.454,61.2621 193.12,56.9288 194.5,52.5C 194.032,49.7666 193.365,47.1 192.5,44.5C 192.84,42.321 193.84,40.4877 195.5,39C 204.39,34.3925 213.057,29.5591 221.5,24.5C 223.044,24.2969 224.378,23.6302 225.5,22.5C 227.5,25.1667 229.5,27.8333 231.5,30.5C 240.5,34.6667 249.5,38.8333 258.5,43C 263.378,44.8062 268.378,45.4728 273.5,45C 278.718,42.224 284.051,39.724 289.5,37.5C 297.388,41.0273 305.222,44.694 313,48.5C 313.945,48.0946 314.612,47.428 315,46.5C 316.837,34.4679 318.837,22.4679 321,10.5C 325.745,12.1923 330.579,13.6923 335.5,15C 341.434,15.6566 347.267,15.1566 353,13.5C 362.211,14.9758 371.378,16.6424 380.5,18.5C 380.169,26.5277 380.502,34.5277 381.5,42.5C 391.716,47.775 402.05,52.775 412.5,57.5C 416.961,52.8671 421.295,48.0337 425.5,43C 434.467,41.7074 443.467,40.7074 452.5,40C 456.862,34.9871 460.362,29.4871 463,23.5C 467.059,19.7697 471.392,16.4363 476,13.5C 482.581,15.2697 489.081,17.2697 495.5,19.5C 498.667,26.5 501.833,33.5 505,40.5C 505.708,41.3805 506.542,42.0472 507.5,42.5 Z"/></g>
<g><path style="opacity:1" fill="#a6c8b0" d="M 220.5,23.5 C 220.5,24.1667 220.833,24.5 221.5,24.5C 213.057,29.5591 204.39,34.3925 195.5,39C 193.84,40.4877 192.84,42.321 192.5,44.5C 191.833,44.5 191.167,44.5 190.5,44.5C 190.557,43.391 190.89,42.391 191.5,41.5C 192.803,39.8577 194.136,38.1911 195.5,36.5C 203.668,31.9153 212.002,27.5819 220.5,23.5 Z"/></g>
<g><path style="opacity:0.788" fill="#78b4bd" d="M 195.5,36.5 C 194.136,38.1911 192.803,39.8577 191.5,41.5C 191.369,38.6333 192.703,36.9666 195.5,36.5 Z"/></g>
<g><path style="opacity:0.765" fill="#becca7" d="M 526.5,41.5 C 519.978,41.1765 513.645,41.5098 507.5,42.5C 506.542,42.0472 505.708,41.3805 505,40.5C 501.833,33.5 498.667,26.5 495.5,19.5C 489.081,17.2697 482.581,15.2697 476,13.5C 471.392,16.4363 467.059,19.7697 463,23.5C 460.362,29.4871 456.862,34.9871 452.5,40C 443.467,40.7074 434.467,41.7074 425.5,43C 421.295,48.0337 416.961,52.8671 412.5,57.5C 402.05,52.775 391.716,47.775 381.5,42.5C 380.502,34.5277 380.169,26.5277 380.5,18.5C 371.378,16.6424 362.211,14.9758 353,13.5C 347.267,15.1566 341.434,15.6566 335.5,15C 330.579,13.6923 325.745,12.1923 321,10.5C 318.837,22.4679 316.837,34.4679 315,46.5C 314.612,47.428 313.945,48.0946 313,48.5C 305.222,44.694 297.388,41.0273 289.5,37.5C 284.051,39.724 278.718,42.224 273.5,45C 268.378,45.4728 263.378,44.8062 258.5,43C 249.5,38.8333 240.5,34.6667 231.5,30.5C 229.5,27.8333 227.5,25.1667 225.5,22.5C 224.378,23.6302 223.044,24.2969 221.5,24.5C 220.833,24.5 220.5,24.1667 220.5,23.5C 222.425,21.5381 224.758,20.7048 227.5,21C 229.312,24.1345 231.479,26.9678 234,29.5C 245.109,34.3046 256.276,38.9713 267.5,43.5C 270.808,42.6047 274.141,41.7713 277.5,41C 281.67,36.7439 286.67,35.0772 292.5,36C 299.324,39.2451 305.991,42.7451 312.5,46.5C 315.152,33.9384 317.152,21.2717 318.5,8.5C 324.605,9.4774 330.605,10.9774 336.5,13C 342.221,13.3228 347.887,12.8228 353.5,11.5C 363.196,13.0394 372.863,14.7061 382.5,16.5C 382.169,24.8599 382.502,33.1932 383.5,41.5C 392.833,46.1667 402.167,50.8333 411.5,55.5C 415.99,50.8414 420.323,46.0081 424.5,41C 433.881,40.1621 443.214,38.9954 452.5,37.5C 456.468,32.7173 459.301,27.384 461,21.5C 465.819,17.4929 470.985,14.1596 476.5,11.5C 483.247,13.0265 489.914,14.8599 496.5,17C 500.567,24.3005 504.234,31.8005 507.5,39.5C 513.988,40.1668 520.321,40.8334 526.5,41.5 Z"/></g>
<g><path style="opacity:0.988" fill="#bbc6aa" d="M 190.5,44.5 C 191.167,44.5 191.833,44.5 192.5,44.5C 193.365,47.1 194.032,49.7666 194.5,52.5C 193.12,56.9288 191.454,61.2621 189.5,65.5C 192.31,72.2847 194.976,79.118 197.5,86C 191.806,94.3738 185.306,102.207 178,109.5C 177.333,110.5 177.333,111.5 178,112.5C 182.024,118.549 185.524,124.882 188.5,131.5C 188.471,133.029 187.804,134.196 186.5,135C 183.935,137.08 181.268,138.913 178.5,140.5C 179.833,138.833 181.167,137.167 182.5,135.5C 183.625,133.871 184.959,132.371 186.5,131C 182.435,124.368 178.768,117.535 175.5,110.5C 176.434,107.898 178.101,105.898 180.5,104.5C 182.262,103.738 183.262,102.404 183.5,100.5C 183.833,99.5 184.5,98.8333 185.5,98.5C 187.587,97.4154 188.92,95.7488 189.5,93.5C 189.833,92.5 190.5,91.8333 191.5,91.5C 193.129,90.3747 194.629,89.0414 196,87.5C 196.692,86.5632 196.525,85.8966 195.5,85.5C 192.738,79.0505 190.072,72.5505 187.5,66C 189.167,61.6667 190.833,57.3333 192.5,53C 191.725,50.1776 191.058,47.3443 190.5,44.5 Z"/></g>
<g><path style="opacity:0.616" fill="#cc8aa3" d="M 195.5,85.5 C 196.525,85.8966 196.692,86.5632 196,87.5C 194.629,89.0414 193.129,90.3747 191.5,91.5C 192.415,89.2459 193.748,87.2459 195.5,85.5 Z"/></g>
<g><path style="opacity:0.498" fill="#cc8ea5" d="M 189.5,93.5 C 188.92,95.7488 187.587,97.4154 185.5,98.5C 186.08,96.2512 187.413,94.5846 189.5,93.5 Z"/></g>
<g><path style="opacity:0.82" fill="#c99fa8" d="M 183.5,100.5 C 183.262,102.404 182.262,103.738 180.5,104.5C 180.738,102.596 181.738,101.262 183.5,100.5 Z"/></g>
<g><path style="opacity:0.918" fill="#c6aaa9" d="M 182.5,135.5 C 181.167,137.167 179.833,138.833 178.5,140.5C 177.833,140.5 177.167,140.5 176.5,140.5C 177.911,138.086 179.911,136.419 182.5,135.5 Z"/></g>
<g><path style="opacity:0.998" fill="#b3c9af" d="M 526.5,41.5 C 535.279,46.7287 543.946,52.2287 552.5,58C 557.851,57.966 563.184,57.466 568.5,56.5C 567.583,64.8263 567.083,73.1597 567,81.5C 571.516,85.8922 575.016,90.8922 577.5,96.5C 575.754,103.984 574.087,111.484 572.5,119C 572.857,121.904 573.523,124.737 574.5,127.5C 573.441,130.068 571.774,132.235 569.5,134C 564.167,138.333 558.833,142.667 553.5,147C 542.026,148.996 530.526,150.829 519,152.5C 506.787,146.977 494.62,141.31 482.5,135.5C 480.708,134.527 479.375,135.194 478.5,137.5C 475.614,139.774 472.948,142.274 470.5,145C 478.373,165.421 482.04,186.588 481.5,208.5C 481.973,209.906 482.973,210.573 484.5,210.5C 488.08,210.921 491.58,210.921 495,210.5C 500.775,219.724 506.275,229.057 511.5,238.5C 511.973,239.906 512.973,240.573 514.5,240.5C 517.141,242.109 519.974,243.443 523,244.5C 526.768,242.403 530.268,239.903 533.5,237C 537.58,236.579 541.413,237.413 545,239.5C 550.167,250.333 555.333,261.167 560.5,272C 562.464,273.987 564.797,275.487 567.5,276.5C 567.833,277.5 568.167,278.5 568.5,279.5C 566.832,288.171 565.166,296.838 563.5,305.5C 565.855,314.066 568.521,322.566 571.5,331C 571.836,332.03 572.503,332.53 573.5,332.5C 577.738,334.956 582.404,335.956 587.5,335.5C 588.585,337.587 590.251,338.92 592.5,339.5C 595.8,341.63 598.966,343.964 602,346.5C 610.447,342.693 618.947,339.026 627.5,335.5C 628.442,335.608 629.275,335.941 630,336.5C 633.129,341.926 636.629,347.093 640.5,352C 649.754,350.143 658.92,347.643 668,344.5C 669.107,344.585 670.107,344.919 671,345.5C 672.352,348.72 673.186,352.053 673.5,355.5C 675.426,357.293 677.759,358.293 680.5,358.5C 683.241,358.707 685.574,359.707 687.5,361.5C 682.65,361.956 677.983,360.789 673.5,358C 671.628,354.373 670.128,350.54 669,346.5C 659.924,349.919 650.59,352.585 641,354.5C 640.167,354.167 639.333,353.833 638.5,353.5C 634.833,348.167 631.167,342.833 627.5,337.5C 618.991,341.558 610.324,345.225 601.5,348.5C 596.434,345.61 591.768,342.11 587.5,338C 581.47,337.823 575.804,336.323 570.5,333.5C 566.994,324.148 563.994,314.648 561.5,305C 563.925,296.28 565.425,287.447 566,278.5C 563.512,276.257 560.846,274.257 558,272.5C 553.059,262.285 548.392,251.952 544,241.5C 541.711,240.014 539.211,239.014 536.5,238.5C 532.526,240.492 528.859,242.992 525.5,246C 519.692,245.271 514.358,243.104 509.5,239.5C 503.833,230.167 498.167,220.833 492.5,211.5C 488.328,214.134 484.328,213.8 480.5,210.5C 479.22,195.809 477.72,181.143 476,166.5C 472.236,158.88 469.903,150.88 469,142.5C 472.773,138.885 476.94,135.885 481.5,133.5C 494.78,139.06 507.946,144.727 521,150.5C 531.67,149.604 542.17,147.771 552.5,145C 559.827,139.67 566.493,133.67 572.5,127C 571.317,124.286 570.651,121.453 570.5,118.5C 571.85,111.101 573.516,103.768 575.5,96.5C 572.61,91.4344 569.11,86.7677 565,82.5C 565.001,74.4859 565.501,66.4859 566.5,58.5C 561.536,59.5952 556.536,60.0952 551.5,60C 543.5,54.6667 535.5,49.3333 527.5,44C 520.654,43.8283 513.987,43.3283 507.5,42.5C 513.645,41.5098 519.978,41.1765 526.5,41.5 Z"/></g>
<g><path style="opacity:0.216" fill="#a4adc3" d="M 482.5,135.5 C 481.395,136.6 480.062,137.267 478.5,137.5C 479.375,135.194 480.708,134.527 482.5,135.5 Z"/></g>
<g><path style="opacity:0.749" fill="#cb98a7" d="M 176.5,140.5 C 175.415,142.587 173.749,143.92 171.5,144.5C 172.585,142.413 174.251,141.08 176.5,140.5 Z"/></g>
<g><path style="opacity:0.878" fill="#bdc3aa" d="M 176.5,140.5 C 177.167,140.5 177.833,140.5 178.5,140.5C 175.433,143.882 172.099,147.048 168.5,150C 167.667,150.167 166.833,150.333 166,150.5C 160.333,148.833 154.667,147.167 149,145.5C 147.373,145.625 145.873,146.125 144.5,147C 139.318,152.015 134.318,157.181 129.5,162.5C 131.639,168.724 133.306,175.057 134.5,181.5C 135.5,181.5 136.5,181.5 137.5,181.5C 135.666,193.493 134.166,205.493 133,217.5C 135.443,218.593 137.943,219.593 140.5,220.5C 141.331,227.811 141.831,235.144 142,242.5C 146.333,246.833 150.667,251.167 155,255.5C 157.863,259.38 159.03,263.713 158.5,268.5C 146.763,271.864 135.096,275.531 123.5,279.5C 121.804,284.17 120.804,289.003 120.5,294C 121.485,298.455 122.152,302.955 122.5,307.5C 120.011,307.298 117.677,307.798 115.5,309C 105.167,315.333 94.8333,321.667 84.5,328C 82.8659,328.494 81.1992,328.66 79.5,328.5C 80.6594,326.75 82.326,325.75 84.5,325.5C 86.0269,325.573 87.0269,324.906 87.5,323.5C 89.0269,323.573 90.0269,322.906 90.5,321.5C 90.8417,320.662 91.5084,320.328 92.5,320.5C 94.0269,320.573 95.0269,319.906 95.5,318.5C 95.8417,317.662 96.5084,317.328 97.5,317.5C 99.0269,317.573 100.027,316.906 100.5,315.5C 100.842,314.662 101.508,314.328 102.5,314.5C 104.027,314.573 105.027,313.906 105.5,312.5C 105.842,311.662 106.508,311.328 107.5,311.5C 109.027,311.573 110.027,310.906 110.5,309.5C 110.842,308.662 111.508,308.328 112.5,308.5C 114.027,308.573 115.027,307.906 115.5,306.5C 117.195,305.989 118.861,305.322 120.5,304.5C 119.401,301.704 118.401,298.871 117.5,296C 118.601,289.652 120.268,283.486 122.5,277.5C 133.855,273.818 145.188,270.152 156.5,266.5C 156.675,264.379 156.341,262.379 155.5,260.5C 153.906,257.236 151.573,254.569 148.5,252.5C 145.536,250.038 142.703,247.371 140,244.5C 139.5,236.841 139.334,229.174 139.5,221.5C 136.5,220.833 133.5,220.167 130.5,219.5C 131.515,207.087 133.182,194.754 135.5,182.5C 134.5,182.5 133.5,182.5 132.5,182.5C 131.312,176.767 129.812,171.1 128,165.5C 127.333,163.833 127.333,162.167 128,160.5C 133.571,154.258 139.738,148.758 146.5,144C 148.5,143.333 150.5,143.333 152.5,144C 156.854,145.514 161.188,147.014 165.5,148.5C 165.897,149.525 166.563,149.692 167.5,149C 169.041,147.629 170.375,146.129 171.5,144.5C 173.749,143.92 175.415,142.587 176.5,140.5 Z"/></g>
<g><path style="opacity:0.918" fill="#cc90a5" d="M 171.5,144.5 C 170.375,146.129 169.041,147.629 167.5,149C 166.563,149.692 165.897,149.525 165.5,148.5C 167.246,146.748 169.246,145.415 171.5,144.5 Z"/></g>
<g><path style="opacity:0.086" fill="#a2aac5" d="M 481.5,208.5 C 483.027,208.427 484.027,209.094 484.5,210.5C 482.973,210.573 481.973,209.906 481.5,208.5 Z"/></g>
<g><path style="opacity:0.012" fill="#a2aac5" d="M 511.5,238.5 C 513.027,238.427 514.027,239.094 514.5,240.5C 512.973,240.573 511.973,239.906 511.5,238.5 Z"/></g>
<g><path style="opacity:0.012" fill="#d183a5" d="M 148.5,252.5 C 151.573,254.569 153.906,257.236 155.5,260.5C 152.427,258.431 150.094,255.764 148.5,252.5 Z"/></g>
<g><path style="opacity:1" fill="#cc8ca4" d="M 115.5,306.5 C 115.027,307.906 114.027,308.573 112.5,308.5C 112.973,307.094 113.973,306.427 115.5,306.5 Z"/></g>
<g><path style="opacity:0.855" fill="#cc8ca4" d="M 110.5,309.5 C 110.027,310.906 109.027,311.573 107.5,311.5C 107.973,310.094 108.973,309.427 110.5,309.5 Z"/></g>
<g><path style="opacity:0.835" fill="#cc8ca4" d="M 105.5,312.5 C 105.027,313.906 104.027,314.573 102.5,314.5C 102.973,313.094 103.973,312.427 105.5,312.5 Z"/></g>
<g><path style="opacity:0.812" fill="#cc8ca4" d="M 100.5,315.5 C 100.027,316.906 99.0269,317.573 97.5,317.5C 97.9731,316.094 98.9731,315.427 100.5,315.5 Z"/></g>
<g><path style="opacity:0.792" fill="#cc8ba4" d="M 95.5,318.5 C 95.0269,319.906 94.0269,320.573 92.5,320.5C 92.9731,319.094 93.9731,318.427 95.5,318.5 Z"/></g>
<g><path style="opacity:0.769" fill="#cc8ba4" d="M 90.5,321.5 C 90.0269,322.906 89.0269,323.573 87.5,323.5C 87.9731,322.094 88.9731,321.427 90.5,321.5 Z"/></g>
<g><path style="opacity:0.902" fill="#ca9ba7" d="M 87.5,323.5 C 87.0269,324.906 86.0269,325.573 84.5,325.5C 84.9731,324.094 85.9731,323.427 87.5,323.5 Z"/></g>
<g><path style="opacity:0.69" fill="#a3aac6" d="M 573.5,332.5 C 578.391,333.01 583.058,334.01 587.5,335.5C 582.404,335.956 577.738,334.956 573.5,332.5 Z"/></g>
<g><path style="opacity:0.012" fill="#a4acc4" d="M 587.5,335.5 C 589.749,336.08 591.415,337.413 592.5,339.5C 590.251,338.92 588.585,337.587 587.5,335.5 Z"/></g>
<g><path style="opacity:0.855" fill="#caa0a8" d="M 73.5,333.5 C 72.6872,336.989 70.6872,339.656 67.5,341.5C 69.1223,338.545 71.1223,335.878 73.5,333.5 Z"/></g>
<g><path style="opacity:1" fill="#bdc4aa" d="M 79.5,328.5 C 78.8913,330.943 77.3913,332.61 75,333.5C 74.2486,337.266 72.2486,340.266 69,342.5C 66.7465,352.618 62.5798,361.785 56.5,370C 49.8158,370.693 43.1491,371.526 36.5,372.5C 33.165,371.647 29.8316,371.147 26.5,371C 21.5882,373.372 16.7549,375.872 12,378.5C 9.81856,383.526 7.6519,388.526 5.5,393.5C 4.40168,392.399 4.23502,391.066 5,389.5C 6.66667,385.5 8.33333,381.5 10,377.5C 12.1572,375.505 14.6572,374.172 17.5,373.5C 20.4848,372.674 23.1515,371.341 25.5,369.5C 26.2739,368.853 27.2739,368.52 28.5,368.5C 31.8489,369.852 35.3489,370.519 39,370.5C 44.518,369.605 50.018,368.605 55.5,367.5C 57.2624,366.738 58.2624,365.404 58.5,363.5C 61.5055,356.146 64.5055,348.812 67.5,341.5C 70.6872,339.656 72.6872,336.989 73.5,333.5C 74.2678,330.438 76.2678,328.772 79.5,328.5 Z"/></g>
<g><path style="opacity:0.688" fill="#a2aac5" d="M 673.5,355.5 C 676.241,355.707 678.574,356.707 680.5,358.5C 677.759,358.293 675.426,357.293 673.5,355.5 Z"/></g>
<g><path style="opacity:0.753" fill="#ca98a6" d="M 58.5,363.5 C 58.2624,365.404 57.2624,366.738 55.5,367.5C 55.7376,365.596 56.7376,364.262 58.5,363.5 Z"/></g>
<g><path style="opacity:0.294" fill="#cd85a2" d="M 25.5,369.5 C 23.1515,371.341 20.4848,372.674 17.5,373.5C 19.5792,371.127 22.2459,369.794 25.5,369.5 Z"/></g>
<g><path style="opacity:1" fill="#c1c4a1" d="M 5.5,393.5 C 6.55198,393.351 7.55198,393.517 8.5,394C 16.8696,402.038 25.5363,409.705 34.5,417C 47.5427,420.177 60.5427,423.511 73.5,427C 77.4309,430.365 79.5976,434.531 80,439.5C 71.1757,446.825 62.6757,454.492 54.5,462.5C 57.2545,467.008 59.7545,471.674 62,476.5C 62.2501,479.953 61.9167,483.286 61,486.5C 63.4583,491.253 66.2916,495.753 69.5,500C 71.0444,501.187 72.7111,501.52 74.5,501C 81.8755,495.98 89.5422,491.48 97.5,487.5C 105.58,493.406 113.247,499.906 120.5,507C 124.935,507.139 128.602,505.639 131.5,502.5C 132.167,502.5 132.833,502.5 133.5,502.5C 133.141,504.371 132.141,505.871 130.5,507C 126.983,508.734 123.316,509.401 119.5,509C 112.315,502.314 104.982,495.814 97.5,489.5C 90.0346,493.802 82.7012,498.302 75.5,503C 73.0288,503.706 70.6954,503.373 68.5,502C 64.9401,497.437 61.7734,492.604 59,487.5C 58.336,484.484 58.836,481.651 60.5,479C 57.8333,473.333 55.1667,467.667 52.5,462C 60.7981,453.37 69.4647,445.037 78.5,437C 76.7424,433.627 74.4091,430.793 71.5,428.5C 58.4397,425.485 45.4397,422.318 32.5,419C 23.3022,410.633 14.3022,402.133 5.5,393.5 Z"/></g>
<g><path style="opacity:1" fill="#b8c7a0" d="M 692.5,363.5 C 695.889,364.631 699.222,365.964 702.5,367.5C 703.086,375.843 702.586,384.177 701,392.5C 698.926,394.452 696.759,396.285 694.5,398C 688.509,398.499 682.509,398.666 676.5,398.5C 674.991,408.546 673.158,418.546 671,428.5C 667.421,430.414 663.588,431.414 659.5,431.5C 653.179,430.476 646.845,429.976 640.5,430C 637.968,432.529 636.302,435.529 635.5,439C 637.325,446.301 638.992,453.634 640.5,461C 639.586,465.828 637.586,470.162 634.5,474C 628.429,474.845 622.429,476.012 616.5,477.5C 611.02,484.148 605.353,490.648 599.5,497C 596.833,497.667 594.167,497.667 591.5,497C 585.957,491.121 580.123,485.621 574,480.5C 567.167,483 560.333,485.5 553.5,488C 552.167,488.667 550.833,488.667 549.5,488C 545.307,482.64 541.307,477.14 537.5,471.5C 527.887,469.144 518.221,466.977 508.5,465C 498.167,464.333 487.833,464.333 477.5,465C 476.107,466.363 474.441,467.196 472.5,467.5C 468.383,465.691 464.216,464.024 460,462.5C 451.333,465.167 442.667,467.833 434,470.5C 428.825,468.495 423.992,465.828 419.5,462.5C 418.3,463.531 416.966,464.365 415.5,465C 404.52,466.165 393.52,466.998 382.5,467.5C 382.5,468.833 382.5,470.167 382.5,471.5C 370.5,475.167 358.5,478.833 346.5,482.5C 346.002,485.829 345.002,488.995 343.5,492C 337.909,493.587 332.242,494.254 326.5,494C 321.167,491.333 315.833,488.667 310.5,486C 308.998,482.995 307.998,479.829 307.5,476.5C 298.476,475.997 289.476,475.164 280.5,474C 277.808,469.089 275.808,463.923 274.5,458.5C 269.86,456.851 265.193,455.184 260.5,453.5C 257.774,453.855 255.774,455.188 254.5,457.5C 257.807,470.723 260.473,484.057 262.5,497.5C 253.494,497.334 244.494,497.5 235.5,498C 231.544,502.634 227.044,506.468 222,509.5C 212.443,506.87 202.943,504.037 193.5,501C 191.056,491.283 189.056,481.449 187.5,471.5C 180.5,472.167 173.5,472.833 166.5,473.5C 166.666,482.173 166.5,490.84 166,499.5C 164.644,500.38 163.144,500.714 161.5,500.5C 153.836,499.224 146.002,498.224 138,497.5C 135.926,498.072 134.76,499.405 134.5,501.5C 134.5,502.167 134.167,502.5 133.5,502.5C 132.833,502.5 132.167,502.5 131.5,502.5C 132.568,498.359 135.235,496.359 139.5,496.5C 145.833,497.167 152.167,497.833 158.5,498.5C 160.56,498.428 162.56,498.095 164.5,497.5C 165.498,488.859 165.831,480.192 165.5,471.5C 173.475,470.551 181.475,469.885 189.5,469.5C 190.898,480.01 193.232,490.176 196.5,500C 204.803,502.601 213.137,505.101 221.5,507.5C 226.252,504.255 230.585,500.422 234.5,496C 243.16,495.5 251.827,495.334 260.5,495.5C 257.837,482.846 255.17,470.179 252.5,457.5C 252.643,454.401 254.31,452.568 257.5,452C 263.44,452.421 269.106,454.088 274.5,457C 277.218,461.604 279.551,466.437 281.5,471.5C 290.784,473.198 300.118,474.531 309.5,475.5C 309.998,478.829 310.998,481.995 312.5,485C 317.167,487.333 321.833,489.667 326.5,492C 331.818,491.707 337.151,491.207 342.5,490.5C 342.765,486.87 344.098,483.703 346.5,481C 358.018,476.66 369.685,472.827 381.5,469.5C 381.5,468.167 381.5,466.833 381.5,465.5C 392.539,465.239 403.539,464.406 414.5,463C 415.459,461.536 416.792,460.703 418.5,460.5C 423.724,463.029 428.891,465.696 434,468.5C 442.414,465.528 450.914,462.862 459.5,460.5C 463.929,461.88 468.262,463.546 472.5,465.5C 474.441,465.196 476.107,464.363 477.5,463C 488.167,462.333 498.833,462.333 509.5,463C 519.448,465.256 529.448,467.256 539.5,469C 543.305,474.971 547.305,480.804 551.5,486.5C 558.128,483.902 564.795,481.402 571.5,479C 573.167,478.333 574.833,478.333 576.5,479C 581.833,484.333 587.167,489.667 592.5,495C 594.5,495.667 596.5,495.667 598.5,495C 604.542,488.627 610.208,481.96 615.5,475C 621.758,474.097 627.925,472.93 634,471.5C 635.92,468.162 637.42,464.662 638.5,461C 636.675,453.699 635.008,446.366 633.5,439C 634.179,434.644 636.179,430.977 639.5,428C 645.845,427.976 652.179,428.476 658.5,429.5C 662.256,429.246 665.923,428.579 669.5,427.5C 670.752,417.407 672.585,407.407 675,397.5C 680.751,396.69 686.584,396.19 692.5,396C 694.754,394.623 696.92,393.123 699,391.5C 700.495,384.216 701.161,376.883 701,369.5C 698.978,368.214 696.811,367.214 694.5,366.5C 693.575,365.643 692.908,364.643 692.5,363.5 Z"/></g>
<g><path style="opacity:0.039" fill="#b7ac7f" d="M 161.5,500.5 C 153.166,499.948 144.832,499.781 136.5,500C 135.956,500.717 135.289,501.217 134.5,501.5C 134.76,499.405 135.926,498.072 138,497.5C 146.002,498.224 153.836,499.224 161.5,500.5 Z"/></g>
</svg>
