<?xml version="1.0" encoding="UTF-8"?>
<!DOCTYPE svg PUBLIC "-//W3C//DTD SVG 1.1//EN" "http://www.w3.org/Graphics/SVG/1.1/DTD/svg11.dtd">
<svg xmlns="http://www.w3.org/2000/svg" version="1.1" width="576px" height="319px" style="shape-rendering:geometricPrecision; text-rendering:geometricPrecision; image-rendering:optimizeQuality; fill-rule:evenodd; clip-rule:evenodd" xmlns:xlink="http://www.w3.org/1999/xlink">
<g><path style="opacity:1" fill="#ded4b6" d="M 507.5,26.5 C 510.386,32.6044 513.553,38.6044 517,44.5C 517.328,51.043 516.828,57.543 515.5,64C 515.833,65.5 516.167,67 516.5,68.5C 522.147,72.9791 527.647,77.6457 533,82.5C 534,90.5 535,98.5 536,106.5C 538.167,108.667 540.333,110.833 542.5,113C 546.167,113.333 549.833,113.667 553.5,114C 557.333,117.167 561.167,120.333 565,123.5C 565.5,134.161 565.667,144.828 565.5,155.5C 555.878,158.391 548.378,164.057 543,172.5C 542.333,174.167 542.333,175.833 543,177.5C 545.78,186.486 548.113,195.486 550,204.5C 548.833,205.667 547.667,206.833 546.5,208C 539.167,208.333 531.833,208.667 524.5,209C 519.262,213.203 513.762,217.036 508,220.5C 498.621,210.624 489.454,200.624 480.5,190.5C 474.348,196.152 468.348,201.985 462.5,208C 459.167,208.667 455.833,208.667 452.5,208C 446.5,203.667 440.5,199.333 434.5,195C 429.432,194.681 424.432,195.181 419.5,196.5C 419.334,200.514 419.501,204.514 420,208.5C 422.148,217.391 423.648,226.391 424.5,235.5C 424.519,238.883 423.853,242.05 422.5,245C 424.272,254.516 425.772,264.016 427,273.5C 420.76,279.376 413.594,283.876 405.5,287C 403.239,289.772 401.739,292.938 401,296.5C 399.087,298.187 396.92,298.687 394.5,298C 389.833,295.667 385.167,293.333 380.5,291C 373.5,290.333 366.5,290.333 359.5,291C 355.375,297.416 351.375,303.916 347.5,310.5C 345.925,309.544 344.258,308.877 342.5,308.5C 336.379,305.275 330.045,302.275 323.5,299.5C 321.167,291.5 318.833,283.5 316.5,275.5C 305.808,271.484 295.141,267.484 284.5,263.5C 284.363,254.959 282.696,246.626 279.5,238.5C 279.108,236.821 278.608,235.154 278,233.5C 272.775,229.132 268.608,224.132 265.5,218.5C 261.013,209.527 256.513,200.527 252,191.5C 251.333,185.833 251.333,180.167 252,174.5C 252.667,173.833 253.333,173.167 254,172.5C 254.667,159.5 254.667,146.5 254,133.5C 253.128,128.805 252.128,124.139 251,119.5C 246.833,114.667 242.667,109.833 238.5,105C 229.5,104.333 220.5,104.333 211.5,105C 210.167,105.667 208.833,106.333 207.5,107C 202.833,107.333 198.167,107.667 193.5,108C 191.833,109.667 190.167,111.333 188.5,113C 183.104,115.115 177.937,117.615 173,120.5C 170.327,127.019 168.16,133.686 166.5,140.5C 165.557,143.109 163.89,145.109 161.5,146.5C 150.312,148.755 139.145,151.421 128,154.5C 121.988,148.988 116.488,142.988 111.5,136.5C 106.035,138.616 100.368,139.616 94.5,139.5C 85.5061,138.518 76.5061,138.018 67.5,138C 64.1667,141.346 60.3334,143.846 56,145.5C 49.6667,143.833 43.3333,142.167 37,140.5C 31.6578,142.755 26.4911,145.422 21.5,148.5C 18.1331,146.775 14.7997,145.108 11.5,143.5C 9.01396,141.845 7.01396,139.678 5.5,137C 8.35192,125.59 11.3519,114.257 14.5,103C 16.6641,102.086 18.6641,100.919 20.5,99.5C 23.4384,94.6219 26.1051,89.6219 28.5,84.5C 21.2394,75.2326 13.5727,66.2326 5.5,57.5C 6.98967,53.6683 9.65633,51.335 13.5,50.5C 21.7929,51.9222 30.1262,52.4222 38.5,52C 39,51.5 39.5,51 40,50.5C 40.4997,42.1733 40.6664,33.84 40.5,25.5C 41.8333,25.5 43.1667,25.5 44.5,25.5C 49.4704,24.6471 54.4704,23.9805 59.5,23.5C 61.3126,33.397 63.3126,43.2303 65.5,53C 75.4768,55.937 85.4768,58.7703 95.5,61.5C 100.496,59.0226 104.829,55.5226 108.5,51C 117.827,50.5002 127.161,50.3335 136.5,50.5C 134.698,36.3585 132.031,22.3585 128.5,8.5C 129.079,6.53935 130.413,5.53935 132.5,5.5C 136.939,6.88606 141.273,8.55272 145.5,10.5C 148.09,15.3489 150.424,20.3489 152.5,25.5C 161.5,26.8333 170.5,28.1667 179.5,29.5C 180.324,33.159 181.99,36.3256 184.5,39C 189.38,41.6067 194.38,43.94 199.5,46C 205.242,46.2541 210.909,45.5875 216.5,44C 218.251,40.941 219.918,37.7743 221.5,34.5C 233.003,30.2209 244.669,26.5542 256.5,23.5C 256.5,22.1667 256.5,20.8333 256.5,19.5C 267.502,18.7575 278.502,17.9242 289.5,17C 290.333,16.1667 291.167,15.3333 292,14.5C 296.743,17.7039 301.743,20.3706 307,22.5C 315.528,19.9351 324.028,17.2685 332.5,14.5C 336.912,15.9704 341.245,17.6371 345.5,19.5C 346.938,19.2811 348.271,18.7811 349.5,18C 361.167,17.3333 372.833,17.3333 384.5,18C 393.143,19.7952 401.809,21.4618 410.5,23C 414.043,28.586 417.709,34.086 421.5,39.5C 422.5,39.8333 423.5,40.1667 424.5,40.5C 431.821,37.8351 439.154,35.1684 446.5,32.5C 452.652,38.1518 458.652,43.9851 464.5,50C 467.167,50.6667 469.833,50.6667 472.5,50C 478.126,42.7055 484.126,35.7055 490.5,29C 496.076,27.5149 501.743,26.6816 507.5,26.5 Z"/></g>
<g><path style="opacity:1" fill="#b9af84" d="M 153.5,23.5 C 154.263,24.2679 155.263,24.7679 156.5,25C 162.149,25.7575 167.816,26.2575 173.5,26.5C 175.857,26.3367 178.19,26.5034 180.5,27C 181.734,30.2001 183.067,33.3668 184.5,36.5C 189.5,39 194.5,41.5 199.5,44C 205.168,43.8363 210.835,43.3363 216.5,42.5C 216.804,39.4208 217.804,36.5875 219.5,34C 231.348,29.3289 243.348,25.1622 255.5,21.5C 255.5,20.1667 255.5,18.8333 255.5,17.5C 265.017,17.1375 274.517,16.4709 284,15.5C 287.141,15.4623 289.808,14.4623 292,12.5C 297.109,15.3044 302.276,17.9711 307.5,20.5C 315.972,17.7315 324.472,15.0649 333,12.5C 337.489,13.8281 341.656,15.8281 345.5,18.5C 347.002,17.9169 348.335,17.0836 349.5,16C 370.472,14.1243 391.138,15.791 411.5,21C 415.48,27.1391 419.813,32.9724 424.5,38.5C 432.309,35.0619 440.309,32.5619 448.5,31C 454.537,37.7224 461.037,43.5557 468,48.5C 469.167,48.1667 470.333,47.8333 471.5,47.5C 477.314,40.5184 483.314,33.6851 489.5,27C 495.464,25.8391 501.464,25.0058 507.5,24.5C 507.5,25.1667 507.5,25.8333 507.5,26.5C 501.743,26.6816 496.076,27.5149 490.5,29C 484.126,35.7055 478.126,42.7055 472.5,50C 469.833,50.6667 467.167,50.6667 464.5,50C 458.652,43.9851 452.652,38.1518 446.5,32.5C 439.154,35.1684 431.821,37.8351 424.5,40.5C 423.5,40.1667 422.5,39.8333 421.5,39.5C 417.709,34.086 414.043,28.586 410.5,23C 401.809,21.4618 393.143,19.7952 384.5,18C 372.833,17.3333 361.167,17.3333 349.5,18C 348.271,18.7811 346.938,19.2811 345.5,19.5C 341.245,17.6371 336.912,15.9704 332.5,14.5C 324.028,17.2685 315.528,19.9351 307,22.5C 301.743,20.3706 296.743,17.7039 292,14.5C 291.167,15.3333 290.333,16.1667 289.5,17C 278.502,17.9242 267.502,18.7575 256.5,19.5C 256.5,20.8333 256.5,22.1667 256.5,23.5C 244.669,26.5542 233.003,30.2209 221.5,34.5C 219.918,37.7743 218.251,40.941 216.5,44C 210.909,45.5875 205.242,46.2541 199.5,46C 194.38,43.94 189.38,41.6067 184.5,39C 181.99,36.3256 180.324,33.159 179.5,29.5C 170.5,28.1667 161.5,26.8333 152.5,25.5C 150.424,20.3489 148.09,15.3489 145.5,10.5C 141.273,8.55272 136.939,6.88606 132.5,5.5C 130.413,5.53935 129.079,6.53935 128.5,8.5C 132.031,22.3585 134.698,36.3585 136.5,50.5C 127.161,50.3335 117.827,50.5002 108.5,51C 104.829,55.5226 100.496,59.0226 95.5,61.5C 85.4768,58.7703 75.4768,55.937 65.5,53C 63.3126,43.2303 61.3126,33.397 59.5,23.5C 54.4704,23.9805 49.4704,24.6471 44.5,25.5C 43.0813,24.5489 41.4147,24.2155 39.5,24.5C 46.6006,22.7721 53.934,21.7721 61.5,21.5C 63.2948,31.1412 64.9615,40.8079 66.5,50.5C 69.9961,53.0479 73.9961,54.3813 78.5,54.5C 84.2075,55.9573 89.8742,57.624 95.5,59.5C 99.9171,56.5899 103.917,53.0899 107.5,49C 116.494,48.5002 125.494,48.3336 134.5,48.5C 131.964,35.154 129.297,21.8206 126.5,8.5C 127.363,5.30138 129.53,3.63471 133,3.5C 137.976,4.93664 142.809,6.76997 147.5,9C 149.993,13.6503 151.993,18.4836 153.5,23.5 Z"/></g>
<g><path style="opacity:0.665" fill="#b4c9a2" d="M 66.5,50.5 C 70.7843,51.2613 74.7843,52.5947 78.5,54.5C 73.9961,54.3813 69.9961,53.0479 66.5,50.5 Z"/></g>
<g><path style="opacity:0.998" fill="#b7c6a0" d="M 153.5,23.5 C 160.407,23.7715 167.074,24.7715 173.5,26.5C 167.816,26.2575 162.149,25.7575 156.5,25C 155.263,24.7679 154.263,24.2679 153.5,23.5 Z"/></g>
<g><path style="opacity:0.967" fill="#beaa80" d="M 507.5,24.5 C 511.559,30.9407 515.392,37.6074 519,44.5C 518.948,51.8588 518.614,59.1922 518,66.5C 523.667,71.5 529.333,76.5 535,81.5C 536,89.5 537,97.5 538,105.5C 542.143,110.639 547.643,112.806 554.5,112C 558.667,115.5 562.833,119 567,122.5C 567.5,133.828 567.667,145.162 567.5,156.5C 566.508,156.672 565.842,156.338 565.5,155.5C 565.667,144.828 565.5,134.161 565,123.5C 561.167,120.333 557.333,117.167 553.5,114C 549.833,113.667 546.167,113.333 542.5,113C 540.333,110.833 538.167,108.667 536,106.5C 535,98.5 534,90.5 533,82.5C 527.647,77.6457 522.147,72.9791 516.5,68.5C 516.167,67 515.833,65.5 515.5,64C 516.828,57.543 517.328,51.043 517,44.5C 513.553,38.6044 510.386,32.6044 507.5,26.5C 507.5,25.8333 507.5,25.1667 507.5,24.5 Z"/></g>
<g><path style="opacity:0.937" fill="#72b8c0" d="M 231.5,105.5 C 234.57,106.532 237.57,107.865 240.5,109.5C 247.012,116.529 250.845,124.862 252,134.5C 252.667,146.833 252.667,159.167 252,171.5C 249.757,175.131 248.923,179.131 249.5,183.5C 248.542,185.302 247.875,187.302 247.5,189.5C 246.662,189.842 246.328,190.508 246.5,191.5C 244.469,193.522 242.135,195.189 239.5,196.5C 235.87,197.641 232.203,198.808 228.5,200C 227.944,200.383 227.611,200.883 227.5,201.5C 219.576,203.097 211.576,203.597 203.5,203C 202.069,202.535 200.903,201.701 200,200.5C 199.086,198.336 197.919,196.336 196.5,194.5C 191.293,191.068 186.293,187.402 181.5,183.5C 180.221,180.348 177.888,178.348 174.5,177.5C 171.827,175.824 169.16,174.157 166.5,172.5C 160.755,175.425 155.255,175.092 150,171.5C 146.337,174.359 142.17,175.193 137.5,174C 133.561,170.571 130.228,166.737 127.5,162.5C 126.974,159.192 128.307,157.026 131.5,156C 139.667,153.833 147.667,151.167 155.5,148C 157.473,147.505 159.473,147.338 161.5,147.5C 163.144,147.714 164.644,147.38 166,146.5C 166.505,144.482 167.005,142.482 167.5,140.5C 168.833,137.167 170.167,133.833 171.5,130.5C 173.699,125.958 176.699,121.958 180.5,118.5C 185.638,116.431 190.305,113.598 194.5,110C 199.104,108.939 203.771,108.273 208.5,108C 209.833,107.333 211.167,106.667 212.5,106C 218.825,105.5 225.158,105.334 231.5,105.5 Z"/></g>
<g><path style="opacity:0.98" fill="#cca482" d="M 10.5,109.5 C 9.74404,115.869 8.07737,121.869 5.5,127.5C 6.56463,121.231 8.23129,115.231 10.5,109.5 Z"/></g>
<g><path style="opacity:1" fill="#b8aa7e" d="M 265.5,218.5 C 264.833,218.5 264.167,218.5 263.5,218.5C 259.341,208.849 254.675,199.516 249.5,190.5C 249.5,190.167 249.5,189.833 249.5,189.5C 249.5,187.5 249.5,185.5 249.5,183.5C 248.923,179.131 249.757,175.131 252,171.5C 252.667,159.167 252.667,146.833 252,134.5C 250.845,124.862 247.012,116.529 240.5,109.5C 238.575,105.992 235.575,104.659 231.5,105.5C 225.158,105.334 218.825,105.5 212.5,106C 211.167,106.667 209.833,107.333 208.5,108C 203.771,108.273 199.104,108.939 194.5,110C 190.305,113.598 185.638,116.431 180.5,118.5C 178.009,118.829 175.843,119.829 174,121.5C 172.855,124.432 172.022,127.432 171.5,130.5C 170.167,133.833 168.833,137.167 167.5,140.5C 167.167,140.5 166.833,140.5 166.5,140.5C 168.16,133.686 170.327,127.019 173,120.5C 177.937,117.615 183.104,115.115 188.5,113C 190.167,111.333 191.833,109.667 193.5,108C 198.167,107.667 202.833,107.333 207.5,107C 208.833,106.333 210.167,105.667 211.5,105C 220.5,104.333 229.5,104.333 238.5,105C 242.667,109.833 246.833,114.667 251,119.5C 252.128,124.139 253.128,128.805 254,133.5C 254.667,146.5 254.667,159.5 254,172.5C 253.333,173.167 252.667,173.833 252,174.5C 251.333,180.167 251.333,185.833 252,191.5C 256.513,200.527 261.013,209.527 265.5,218.5 Z"/></g>
<g><path style="opacity:1" fill="#d3d0b7" d="M 231.5,105.5 C 235.575,104.659 238.575,105.992 240.5,109.5C 237.57,107.865 234.57,106.532 231.5,105.5 Z"/></g>
<g><path style="opacity:1" fill="#d5d0b4" d="M 180.5,118.5 C 176.699,121.958 173.699,125.958 171.5,130.5C 172.022,127.432 172.855,124.432 174,121.5C 175.843,119.829 178.009,118.829 180.5,118.5 Z"/></g>
<g><path style="opacity:0.914" fill="#d49c7e" d="M 5.5,127.5 C 4.83333,131.5 4.16667,135.5 3.5,139.5C 2.53506,135.329 3.20173,131.329 5.5,127.5 Z"/></g>
<g><path style="opacity:1" fill="#baa97e" d="M 39.5,24.5 C 41.4147,24.2155 43.0813,24.5489 44.5,25.5C 43.1667,25.5 41.8333,25.5 40.5,25.5C 40.6664,33.84 40.4997,42.1733 40,50.5C 39.5,51 39,51.5 38.5,52C 30.1262,52.4222 21.7929,51.9222 13.5,50.5C 9.65633,51.335 6.98967,53.6683 5.5,57.5C 13.5727,66.2326 21.2394,75.2326 28.5,84.5C 26.1051,89.6219 23.4384,94.6219 20.5,99.5C 18.6641,100.919 16.6641,102.086 14.5,103C 11.3519,114.257 8.35192,125.59 5.5,137C 7.01396,139.678 9.01396,141.845 11.5,143.5C 10.8333,143.5 10.1667,143.5 9.5,143.5C 7.20475,142.525 5.20475,141.192 3.5,139.5C 4.16667,135.5 4.83333,131.5 5.5,127.5C 8.07737,121.869 9.74404,115.869 10.5,109.5C 10.523,107.073 11.023,104.74 12,102.5C 14.2503,101.292 16.417,99.9587 18.5,98.5C 21.1667,93.8333 23.8333,89.1667 26.5,84.5C 19.3333,76.1667 12.1667,67.8333 5,59.5C 4.83711,55.6365 6.00377,52.1365 8.5,49C 18.5,49.3333 28.5,49.6667 38.5,50C 39.4832,41.5851 39.8166,33.0851 39.5,24.5 Z"/></g>
<g><path style="opacity:0.98" fill="#bba986" d="M 161.5,146.5 C 161.5,146.833 161.5,147.167 161.5,147.5C 159.473,147.338 157.473,147.505 155.5,148C 147.667,151.167 139.667,153.833 131.5,156C 128.307,157.026 126.974,159.192 127.5,162.5C 126.686,160.369 126.186,158.036 126,155.5C 121.101,149.674 115.768,144.341 110,139.5C 105.955,140.896 101.788,141.563 97.5,141.5C 87.8445,140.425 78.1778,139.925 68.5,140C 64.916,143.285 60.916,145.785 56.5,147.5C 50.1296,145.991 43.7963,144.324 37.5,142.5C 32.1667,145.167 26.8333,147.833 21.5,150.5C 17.1463,148.661 13.1463,146.327 9.5,143.5C 10.1667,143.5 10.8333,143.5 11.5,143.5C 14.7997,145.108 18.1331,146.775 21.5,148.5C 26.4911,145.422 31.6578,142.755 37,140.5C 43.3333,142.167 49.6667,143.833 56,145.5C 60.3334,143.846 64.1667,141.346 67.5,138C 76.5061,138.018 85.5061,138.518 94.5,139.5C 100.368,139.616 106.035,138.616 111.5,136.5C 116.488,142.988 121.988,148.988 128,154.5C 139.145,151.421 150.312,148.755 161.5,146.5 Z"/></g>
<g><path style="opacity:0.963" fill="#809b85" d="M 166.5,140.5 C 166.833,140.5 167.167,140.5 167.5,140.5C 167.005,142.482 166.505,144.482 166,146.5C 164.644,147.38 163.144,147.714 161.5,147.5C 161.5,147.167 161.5,146.833 161.5,146.5C 163.89,145.109 165.557,143.109 166.5,140.5 Z"/></g>
<g><path style="opacity:0.663" fill="#b699b3" d="M 174.5,177.5 C 177.888,178.348 180.221,180.348 181.5,183.5C 178.94,181.727 176.607,179.727 174.5,177.5 Z"/></g>
<g><path style="opacity:1" fill="#d3d1b9" d="M 249.5,183.5 C 249.5,185.5 249.5,187.5 249.5,189.5C 248.833,189.5 248.167,189.5 247.5,189.5C 247.875,187.302 248.542,185.302 249.5,183.5 Z"/></g>
<g><path style="opacity:0.906" fill="#dabbcf" d="M 247.5,189.5 C 248.167,189.5 248.833,189.5 249.5,189.5C 249.5,189.833 249.5,190.167 249.5,190.5C 248.609,191.11 247.609,191.443 246.5,191.5C 246.328,190.508 246.662,189.842 247.5,189.5 Z"/></g>
<g><path style="opacity:0.937" fill="#9ab5c4" d="M 239.5,196.5 C 236.244,199.79 232.244,201.457 227.5,201.5C 227.611,200.883 227.944,200.383 228.5,200C 232.203,198.808 235.87,197.641 239.5,196.5 Z"/></g>
<g><path style="opacity:1" fill="#b7ac85" d="M 565.5,155.5 C 565.842,156.338 566.508,156.672 567.5,156.5C 558.588,159.222 551.088,164.222 545,171.5C 544.333,173.5 544.333,175.5 545,177.5C 547.066,184.53 549.232,191.53 551.5,198.5C 553.598,203.498 552.264,207.331 547.5,210C 539.833,210.333 532.167,210.667 524.5,211C 519.266,215.238 513.766,219.071 508,222.5C 498.371,213.202 489.037,203.536 480,193.5C 474.5,199 469,204.5 463.5,210C 459.5,210.667 455.5,210.667 451.5,210C 445.5,205.667 439.5,201.333 433.5,197C 431.153,196.666 428.819,196.833 426.5,197.5C 421.491,196.5 419.824,198.167 421.5,202.5C 423.436,213.95 425.103,225.45 426.5,237C 426.608,240.238 425.941,243.238 424.5,246C 426.917,255.742 428.417,265.575 429,275.5C 427.629,277.041 426.129,278.375 424.5,279.5C 420.849,280.659 417.515,282.326 414.5,284.5C 411.912,286.625 408.912,287.958 405.5,288.5C 405.388,294.743 402.388,298.743 396.5,300.5C 390.56,298.196 384.893,295.363 379.5,292C 373.141,291.169 366.807,291.336 360.5,292.5C 356.707,298.584 353.041,304.751 349.5,311C 346.935,311.609 344.601,311.109 342.5,309.5C 342.5,309.167 342.5,308.833 342.5,308.5C 344.258,308.877 345.925,309.544 347.5,310.5C 351.375,303.916 355.375,297.416 359.5,291C 366.5,290.333 373.5,290.333 380.5,291C 385.167,293.333 389.833,295.667 394.5,298C 396.92,298.687 399.087,298.187 401,296.5C 401.739,292.938 403.239,289.772 405.5,287C 413.594,283.876 420.76,279.376 427,273.5C 425.772,264.016 424.272,254.516 422.5,245C 423.853,242.05 424.519,238.883 424.5,235.5C 423.648,226.391 422.148,217.391 420,208.5C 419.501,204.514 419.334,200.514 419.5,196.5C 424.432,195.181 429.432,194.681 434.5,195C 440.5,199.333 446.5,203.667 452.5,208C 455.833,208.667 459.167,208.667 462.5,208C 468.348,201.985 474.348,196.152 480.5,190.5C 489.454,200.624 498.621,210.624 508,220.5C 513.762,217.036 519.262,213.203 524.5,209C 531.833,208.667 539.167,208.333 546.5,208C 547.667,206.833 548.833,205.667 550,204.5C 548.113,195.486 545.78,186.486 543,177.5C 542.333,175.833 542.333,174.167 543,172.5C 548.378,164.057 555.878,158.391 565.5,155.5 Z"/></g>
<g><path style="opacity:0.364" fill="#a6b6b4" d="M 426.5,197.5 C 425.359,198.339 424.026,199.006 422.5,199.5C 421.614,200.325 421.281,201.325 421.5,202.5C 419.824,198.167 421.491,196.5 426.5,197.5 Z"/></g>
<g><path style="opacity:1" fill="#bfa98e" d="M 263.5,218.5 C 264.167,218.5 264.833,218.5 265.5,218.5C 268.608,224.132 272.775,229.132 278,233.5C 278.608,235.154 279.108,236.821 279.5,238.5C 278.662,238.842 278.328,239.508 278.5,240.5C 277.655,239.329 276.989,237.995 276.5,236.5C 276.262,234.596 275.262,233.262 273.5,232.5C 270.312,229.632 267.145,226.632 264,223.5C 263.506,221.866 263.34,220.199 263.5,218.5 Z"/></g>
<g><path style="opacity:0.008" fill="#cda1bb" d="M 273.5,232.5 C 275.262,233.262 276.262,234.596 276.5,236.5C 274.738,235.738 273.738,234.404 273.5,232.5 Z"/></g>
<g><path style="opacity:1" fill="#bba289" d="M 279.5,238.5 C 282.696,246.626 284.363,254.959 284.5,263.5C 284.158,264.338 283.492,264.672 282.5,264.5C 281.925,256.5 280.592,248.5 278.5,240.5C 278.328,239.508 278.662,238.842 279.5,238.5 Z"/></g>
<g><path style="opacity:0.055" fill="#aab9b6" d="M 424.5,279.5 C 421.753,282.207 418.42,283.873 414.5,284.5C 417.515,282.326 420.849,280.659 424.5,279.5 Z"/></g>
<g><path style="opacity:0.961" fill="#bba885" d="M 284.5,263.5 C 295.141,267.484 305.808,271.484 316.5,275.5C 318.833,283.5 321.167,291.5 323.5,299.5C 330.045,302.275 336.379,305.275 342.5,308.5C 342.5,308.833 342.5,309.167 342.5,309.5C 335.137,306.99 327.971,303.99 321,300.5C 318.847,292.556 317.014,284.556 315.5,276.5C 304.131,273.268 293.131,269.268 282.5,264.5C 283.492,264.672 284.158,264.338 284.5,263.5 Z"/></g>
</svg>
