<?xml version="1.0" encoding="UTF-8"?>
<!DOCTYPE svg PUBLIC "-//W3C//DTD SVG 1.1//EN" "http://www.w3.org/Graphics/SVG/1.1/DTD/svg11.dtd">
<svg xmlns="http://www.w3.org/2000/svg" version="1.1" width="611px" height="371px" style="shape-rendering:geometricPrecision; text-rendering:geometricPrecision; image-rendering:optimizeQuality; fill-rule:evenodd; clip-rule:evenodd" xmlns:xlink="http://www.w3.org/1999/xlink">
<g><path style="opacity:1" fill="#f1e3c1" d="M 103.5,41.5 C 106.974,44.8017 110.641,47.9684 114.5,51C 123.483,52.2492 132.483,52.9159 141.5,53C 142.833,51.6667 144.167,50.3333 145.5,49C 152.833,48.3333 160.167,48.3333 167.5,49C 172.328,52.5814 177.328,55.9148 182.5,59C 187.5,59.3333 192.5,59.6667 197.5,60C 198.482,68.081 198.816,76.2476 198.5,84.5C 201.167,84.5 203.833,84.5 206.5,84.5C 214.634,85.1889 222.634,86.5223 230.5,88.5C 232.607,89.4682 234.941,89.8016 237.5,89.5C 237.481,84.592 238.481,79.9254 240.5,75.5C 252.417,78.6458 264.417,81.4791 276.5,84C 277.585,86.6959 279.251,88.8626 281.5,90.5C 285.723,91.9128 290.057,92.5795 294.5,92.5C 296.275,80.8483 297.942,69.1816 299.5,57.5C 309.172,57.3335 318.839,57.5002 328.5,58C 329.263,58.9435 330.263,59.4435 331.5,59.5C 342.951,54.2749 354.284,48.7749 365.5,43C 371.5,42.3333 377.5,42.3333 383.5,43C 387.5,45.3333 391.5,47.6667 395.5,50C 397.209,51.9157 398.543,54.0824 399.5,56.5C 406.438,57.9914 413.438,59.158 420.5,60C 421.46,61.4194 422.293,62.9194 423,64.5C 423.725,65.0585 424.558,65.3918 425.5,65.5C 431.568,63.6995 437.568,61.6995 443.5,59.5C 445.43,54.2095 447.264,48.8762 449,43.5C 449.383,42.944 449.883,42.6107 450.5,42.5C 453.431,44.0908 456.098,46.0908 458.5,48.5C 460.388,52.6056 462.554,56.6056 465,60.5C 465.49,61.7932 465.657,63.1266 465.5,64.5C 465.5,65.5 465.5,66.5 465.5,67.5C 464.058,69.5396 463.058,71.873 462.5,74.5C 460.032,77.8792 457.032,80.5459 453.5,82.5C 448.395,84.8869 443.395,87.5536 438.5,90.5C 437.523,92.4109 436.857,94.4109 436.5,96.5C 436.483,98.5648 436.15,100.565 435.5,102.5C 435.672,103.492 435.338,104.158 434.5,104.5C 433.871,111.994 431.538,118.994 427.5,125.5C 420.777,127.06 418.777,131.06 421.5,137.5C 421.552,139.903 421.219,142.236 420.5,144.5C 417.655,149.527 414.321,154.194 410.5,158.5C 409.094,158.973 408.427,159.973 408.5,161.5C 405.459,162.375 403.625,164.375 403,167.5C 397.48,171.844 393.313,177.178 390.5,183.5C 387.274,186.131 383.607,187.798 379.5,188.5C 372.98,186.881 366.647,184.881 360.5,182.5C 360.365,177.047 361.032,171.714 362.5,166.5C 362.328,165.508 362.662,164.842 363.5,164.5C 364.833,163.167 366.167,161.833 367.5,160.5C 374.482,157.118 376.148,151.951 372.5,145C 366.333,142.555 360,140.388 353.5,138.5C 349.684,140.457 347.017,143.457 345.5,147.5C 340.578,150.314 335.578,152.98 330.5,155.5C 326.486,155.334 322.486,155.501 318.5,156C 314,159.085 309.333,161.918 304.5,164.5C 303.167,166.833 303.167,169.167 304.5,171.5C 308.978,174.81 313.311,178.31 317.5,182C 320.192,182.43 322.859,182.263 325.5,181.5C 327.371,181.859 328.871,182.859 330,184.5C 331.524,186.898 333.024,189.231 334.5,191.5C 334.379,195.107 336.045,197.273 339.5,198C 340.053,199.878 341.053,201.378 342.5,202.5C 342.833,203.833 343.167,205.167 343.5,206.5C 343.755,209.016 344.589,211.35 346,213.5C 348.111,215.102 349.611,217.102 350.5,219.5C 349.724,223.159 349.057,226.825 348.5,230.5C 348.122,232.921 347.455,235.254 346.5,237.5C 344.629,237.859 343.129,238.859 342,240.5C 340.661,252.07 341.661,263.403 345,274.5C 346.488,276.16 348.321,277.16 350.5,277.5C 353.687,279.344 355.687,282.011 356.5,285.5C 354.555,293.983 356.889,300.817 363.5,306C 365.81,306.497 368.143,306.663 370.5,306.5C 370.833,306.5 371.167,306.5 371.5,306.5C 374.534,308.018 377.867,308.851 381.5,309C 372.667,319.833 363.833,330.667 355,341.5C 350.833,336.453 345.666,334.786 339.5,336.5C 333.586,344.66 327.919,352.993 322.5,361.5C 321.833,361.833 321.167,362.167 320.5,362.5C 315.588,360.927 310.588,360.427 305.5,361C 304.833,361.667 304.167,362.333 303.5,363C 296.178,363.999 288.844,364.832 281.5,365.5C 281.43,358.744 280.596,352.077 279,345.5C 273.284,339.289 267.784,332.956 262.5,326.5C 255.954,328.427 249.454,330.427 243,332.5C 238.705,324.077 234.539,315.577 230.5,307C 219.306,309.563 208.306,313.063 197.5,317.5C 194.349,314.85 191.349,312.016 188.5,309C 173.822,308.277 159.156,307.443 144.5,306.5C 145.596,312.135 146.096,317.801 146,323.5C 143.833,327.167 141.667,330.833 139.5,334.5C 132.524,335.664 125.524,335.831 118.5,335C 115.651,331.984 112.651,329.15 109.5,326.5C 102.143,335.356 94.9765,344.356 88,353.5C 82.4308,348.965 76.5975,344.799 70.5,341C 69.9032,339.938 69.5698,338.772 69.5,337.5C 74.4521,316.43 76.9521,295.096 77,273.5C 69.6364,270.211 62.1364,267.211 54.5,264.5C 52.7628,259.65 51.5962,254.65 51,249.5C 47.3333,246.833 43.6667,244.167 40,241.5C 40.1349,239.575 40.3016,237.575 40.5,235.5C 43.1,230.466 45.1,225.132 46.5,219.5C 48.5551,218.052 50.7218,216.719 53,215.5C 53.6667,214.5 53.6667,213.5 53,212.5C 44.3333,201.833 35.6667,191.167 27,180.5C 25.6667,179.833 24.3333,179.167 23,178.5C 18.5975,167.793 14.0975,157.126 9.5,146.5C 14.8333,142.833 20.1667,139.167 25.5,135.5C 26.6517,132.894 26.8184,130.227 26,127.5C 24.1751,120.205 22.6751,112.872 21.5,105.5C 20.1667,105.5 18.8333,105.5 17.5,105.5C 18.031,96.5864 16.3644,88.0864 12.5,80C 14.8661,75.4354 17.3661,70.9354 20,66.5C 28.0514,64.8895 36.2181,63.8895 44.5,63.5C 44.8128,59.9581 44.4794,56.6248 43.5,53.5C 43.1818,47.0984 43.1818,40.7651 43.5,34.5C 49.5,31.1667 55.5,27.8333 61.5,24.5C 62.9587,22.417 64.2921,20.2503 65.5,18C 69.3797,16.3601 73.3797,15.6934 77.5,16C 85.1667,20.1667 92.8333,24.3333 100.5,28.5C 100.877,33.2431 101.877,37.5764 103.5,41.5 Z"/></g>
<g><path style="opacity:1" fill="#d4c08f" d="M 103.5,41.5 C 101.877,37.5764 100.877,33.2431 100.5,28.5C 92.8333,24.3333 85.1667,20.1667 77.5,16C 73.3797,15.6934 69.3797,16.3601 65.5,18C 64.2921,20.2503 62.9587,22.417 61.5,24.5C 55.5,27.8333 49.5,31.1667 43.5,34.5C 43.1818,40.7651 43.1818,47.0984 43.5,53.5C 42.2639,47.2814 41.4306,40.948 41,34.5C 47.0855,30.8735 53.2521,27.3735 59.5,24C 61.7972,21.9013 63.4639,19.4013 64.5,16.5C 68.571,15.8156 72.571,14.8156 76.5,13.5C 85.0053,18.5869 93.672,23.4202 102.5,28C 103.467,32.4014 103.8,36.9014 103.5,41.5 Z"/></g>
<g><path style="opacity:0.82" fill="#94a0a4" d="M 449.5,39.5 C 453.5,41.5 456.5,44.5 458.5,48.5C 456.098,46.0908 453.431,44.0908 450.5,42.5C 450.167,41.8333 449.833,41.1667 449.5,40.5C 449.5,40.1667 449.5,39.8333 449.5,39.5 Z"/></g>
<g><path style="opacity:0.227" fill="#d0b9a8" d="M 449.5,39.5 C 449.5,39.8333 449.5,40.1667 449.5,40.5C 447.02,46.6177 444.353,52.6177 441.5,58.5C 442.827,52.6861 444.66,47.0194 447,41.5C 447.417,40.244 448.25,39.5774 449.5,39.5 Z"/></g>
<g><path style="opacity:1" fill="#d4bf8b" d="M 103.5,41.5 C 108.021,44.5095 112.687,47.3429 117.5,50C 125.147,51.2487 132.814,51.9154 140.5,52C 142.167,50.3333 143.833,48.6667 145.5,47C 152.5,46.3333 159.5,46.3333 166.5,47C 172.167,50.6667 177.833,54.3333 183.5,58C 188.823,58.4994 194.156,58.666 199.5,58.5C 199.334,66.5069 199.5,74.5069 200,82.5C 202.277,83.1172 204.444,83.7839 206.5,84.5C 203.833,84.5 201.167,84.5 198.5,84.5C 198.816,76.2476 198.482,68.081 197.5,60C 192.5,59.6667 187.5,59.3333 182.5,59C 177.328,55.9148 172.328,52.5814 167.5,49C 160.167,48.3333 152.833,48.3333 145.5,49C 144.167,50.3333 142.833,51.6667 141.5,53C 132.483,52.9159 123.483,52.2492 114.5,51C 110.641,47.9684 106.974,44.8017 103.5,41.5 Z"/></g>
<g><path style="opacity:0.826" fill="#d5bdab" d="M 441.5,58.5 C 436.343,60.6676 431.01,62.6676 425.5,64.5C 423.812,62.9706 422.479,61.1373 421.5,59C 414.848,57.9068 408.181,56.9068 401.5,56C 393.032,43.6009 381.366,38.6009 366.5,41C 354.833,46.8333 343.167,52.6667 331.5,58.5C 330.354,57.8551 329.354,57.0217 328.5,56C 318.506,55.5002 308.506,55.3335 298.5,55.5C 296.5,67.5 294.5,79.5 292.5,91.5C 288.812,90.8283 285.145,89.9949 281.5,89C 279.919,87.172 278.585,85.172 277.5,83C 264.605,79.9558 251.772,76.7891 239,73.5C 237.617,78.0801 236.617,82.7468 236,87.5C 234.301,88.4061 232.467,88.7394 230.5,88.5C 222.634,86.5223 214.634,85.1889 206.5,84.5C 204.444,83.7839 202.277,83.1172 200,82.5C 199.5,74.5069 199.334,66.5069 199.5,58.5C 194.156,58.666 188.823,58.4994 183.5,58C 177.833,54.3333 172.167,50.6667 166.5,47C 159.5,46.3333 152.5,46.3333 145.5,47C 143.833,48.6667 142.167,50.3333 140.5,52C 132.814,51.9154 125.147,51.2487 117.5,50C 112.687,47.3429 108.021,44.5095 103.5,41.5C 103.8,36.9014 103.467,32.4014 102.5,28C 93.672,23.4202 85.0053,18.5869 76.5,13.5C 72.571,14.8156 68.571,15.8156 64.5,16.5C 64.5,16.1667 64.5,15.8333 64.5,15.5C 68.7876,13.019 73.4543,11.8523 78.5,12C 86.6717,16.9201 95.005,21.5868 103.5,26C 104.143,30.7838 104.809,35.6171 105.5,40.5C 108.975,42.8076 112.308,45.3076 115.5,48C 123.472,49.331 131.472,49.9977 139.5,50C 140.833,48.6667 142.167,47.3333 143.5,46C 152.167,45.3333 160.833,45.3333 169.5,46C 174.5,49.6667 179.5,53.3333 184.5,57C 189.823,57.4994 195.156,57.666 200.5,57.5C 200.5,65.5 200.5,73.5 200.5,81.5C 212.184,83.0585 223.851,84.7252 235.5,86.5C 235.833,81.8333 236.167,77.1667 236.5,72.5C 250.266,74.7533 263.933,77.5867 277.5,81C 280.339,86.7116 285.006,89.2116 291.5,88.5C 293.167,77.164 294.834,65.8307 296.5,54.5C 307.838,54.3335 319.172,54.5001 330.5,55C 331.025,55.6924 331.692,56.1924 332.5,56.5C 343.5,51 354.5,45.5 365.5,40C 372.167,39.3333 378.833,39.3333 385.5,40C 389.007,42.254 392.673,44.254 396.5,46C 398.787,48.0698 400.453,50.5698 401.5,53.5C 408.438,54.9914 415.438,56.158 422.5,57C 423.12,59.2123 424.287,61.0456 426,62.5C 431.085,60.7706 436.252,59.4372 441.5,58.5 Z"/></g>
<g><path style="opacity:0.992" fill="#909083" d="M 458.5,48.5 C 462.564,52.1225 465.231,56.6225 466.5,62C 466.472,63.0698 466.139,63.9032 465.5,64.5C 465.657,63.1266 465.49,61.7932 465,60.5C 462.554,56.6056 460.388,52.6056 458.5,48.5 Z"/></g>
<g><path style="opacity:0.373" fill="#abb0c7" d="M 64.5,15.5 C 64.5,15.8333 64.5,16.1667 64.5,16.5C 63.4639,19.4013 61.7972,21.9013 59.5,24C 53.2521,27.3735 47.0855,30.8735 41,34.5C 41.4306,40.948 42.2639,47.2814 43.5,53.5C 43.5,56.1667 43.5,58.8333 43.5,61.5C 35.4873,62.5018 27.4873,63.6685 19.5,65C 16.6143,69.9452 13.6143,74.7785 10.5,79.5C 10.1667,79.5 9.83333,79.5 9.5,79.5C 11.5664,73.5371 14.5664,68.0371 18.5,63C 26.147,61.919 33.8137,61.0857 41.5,60.5C 40.4455,51.1829 39.9455,41.8496 40,32.5C 46.419,28.7067 52.919,25.04 59.5,21.5C 61.1851,19.4293 62.8518,17.4293 64.5,15.5 Z"/></g>
<g><path style="opacity:1" fill="#d6c290" d="M 441.5,58.5 C 444.353,52.6177 447.02,46.6177 449.5,40.5C 449.833,41.1667 450.167,41.8333 450.5,42.5C 449.883,42.6107 449.383,42.944 449,43.5C 447.264,48.8762 445.43,54.2095 443.5,59.5C 437.568,61.6995 431.568,63.6995 425.5,65.5C 424.558,65.3918 423.725,65.0585 423,64.5C 422.293,62.9194 421.46,61.4194 420.5,60C 413.438,59.158 406.438,57.9914 399.5,56.5C 398.543,54.0824 397.209,51.9157 395.5,50C 391.5,47.6667 387.5,45.3333 383.5,43C 377.5,42.3333 371.5,42.3333 365.5,43C 354.284,48.7749 342.951,54.2749 331.5,59.5C 330.263,59.4435 329.263,58.9435 328.5,58C 318.839,57.5002 309.172,57.3335 299.5,57.5C 297.942,69.1816 296.275,80.8483 294.5,92.5C 290.057,92.5795 285.723,91.9128 281.5,90.5C 279.251,88.8626 277.585,86.6959 276.5,84C 264.417,81.4791 252.417,78.6458 240.5,75.5C 238.481,79.9254 237.481,84.592 237.5,89.5C 234.941,89.8016 232.607,89.4682 230.5,88.5C 232.467,88.7394 234.301,88.4061 236,87.5C 236.617,82.7468 237.617,78.0801 239,73.5C 251.772,76.7891 264.605,79.9558 277.5,83C 278.585,85.172 279.919,87.172 281.5,89C 285.145,89.9949 288.812,90.8283 292.5,91.5C 294.5,79.5 296.5,67.5 298.5,55.5C 308.506,55.3335 318.506,55.5002 328.5,56C 329.354,57.0217 330.354,57.8551 331.5,58.5C 343.167,52.6667 354.833,46.8333 366.5,41C 381.366,38.6009 393.032,43.6009 401.5,56C 408.181,56.9068 414.848,57.9068 421.5,59C 422.479,61.1373 423.812,62.9706 425.5,64.5C 431.01,62.6676 436.343,60.6676 441.5,58.5 Z"/></g>
<g><path style="opacity:0.961" fill="#a2a396" d="M 465.5,67.5 C 465.725,75.5944 462.058,80.9278 454.5,83.5C 454.167,83.5 453.833,83.5 453.5,83.5C 453.5,83.1667 453.5,82.8333 453.5,82.5C 457.032,80.5459 460.032,77.8792 462.5,74.5C 463.058,71.873 464.058,69.5396 465.5,67.5 Z"/></g>
<g><path style="opacity:1" fill="#d4c192" d="M 453.5,82.5 C 453.5,82.8333 453.5,83.1667 453.5,83.5C 446.947,86.0536 441.947,90.387 438.5,96.5C 437.833,96.5 437.167,96.5 436.5,96.5C 436.857,94.4109 437.523,92.4109 438.5,90.5C 443.395,87.5536 448.395,84.8869 453.5,82.5 Z"/></g>
<g><path style="opacity:0.737" fill="#92a5b3" d="M 453.5,83.5 C 453.833,83.5 454.167,83.5 454.5,83.5C 448.751,87.7052 443.418,92.3719 438.5,97.5C 438.5,97.1667 438.5,96.8333 438.5,96.5C 441.947,90.387 446.947,86.0536 453.5,83.5 Z"/></g>
<g><path style="opacity:0.31" fill="#9e967d" d="M 436.5,96.5 C 437.167,96.5 437.833,96.5 438.5,96.5C 438.5,96.8333 438.5,97.1667 438.5,97.5C 438.25,99.674 437.25,101.341 435.5,102.5C 436.15,100.565 436.483,98.5648 436.5,96.5 Z"/></g>
<g><path style="opacity:1" fill="#d5bf8c" d="M 43.5,53.5 C 44.4794,56.6248 44.8128,59.9581 44.5,63.5C 36.2181,63.8895 28.0514,64.8895 20,66.5C 17.3661,70.9354 14.8661,75.4354 12.5,80C 16.3644,88.0864 18.031,96.5864 17.5,105.5C 18.8333,105.5 20.1667,105.5 21.5,105.5C 22.6751,112.872 24.1751,120.205 26,127.5C 26.8184,130.227 26.6517,132.894 25.5,135.5C 20.1667,139.167 14.8333,142.833 9.5,146.5C 14.0975,157.126 18.5975,167.793 23,178.5C 24.3333,179.167 25.6667,179.833 27,180.5C 35.6667,191.167 44.3333,201.833 53,212.5C 53.6667,213.5 53.6667,214.5 53,215.5C 50.7218,216.719 48.5551,218.052 46.5,219.5C 46.5569,218.391 46.8902,217.391 47.5,216.5C 47.8417,215.662 48.5084,215.328 49.5,215.5C 51.2252,215.157 51.7252,214.157 51,212.5C 43.0104,202.015 34.5104,192.015 25.5,182.5C 24.469,181.751 23.3024,181.085 22,180.5C 17.9992,169.843 13.4992,159.51 8.5,149.5C 8.66997,148.178 8.33663,147.011 7.5,146C 12.5585,141.943 17.8918,138.276 23.5,135C 24.5742,134.261 25.2409,133.261 25.5,132C 23.5382,123.857 21.7048,115.69 20,107.5C 18.9887,106.663 17.8221,106.33 16.5,106.5C 16.5713,97.0455 14.5713,88.0455 10.5,79.5C 13.6143,74.7785 16.6143,69.9452 19.5,65C 27.4873,63.6685 35.4873,62.5018 43.5,61.5C 43.5,58.8333 43.5,56.1667 43.5,53.5 Z"/></g>
<g><path style="opacity:0.639" fill="#9daaac" d="M 434.5,104.5 C 434.666,109.511 434.499,114.511 434,119.5C 432.389,123.275 429.889,126.275 426.5,128.5C 426.557,127.391 426.89,126.391 427.5,125.5C 431.538,118.994 433.871,111.994 434.5,104.5 Z"/></g>
<g><path style="opacity:0.996" fill="#d7a687" d="M 9.5,79.5 C 9.83333,79.5 10.1667,79.5 10.5,79.5C 14.5713,88.0455 16.5713,97.0455 16.5,106.5C 17.8221,106.33 18.9887,106.663 20,107.5C 21.7048,115.69 23.5382,123.857 25.5,132C 25.2409,133.261 24.5742,134.261 23.5,135C 17.8918,138.276 12.5585,141.943 7.5,146C 8.33663,147.011 8.66997,148.178 8.5,149.5C 6.76154,147.881 6.26154,145.881 7,143.5C 11.7478,140.209 16.5812,137.042 21.5,134C 22.8045,133.196 23.4712,132.029 23.5,130.5C 21.3541,122.919 19.6874,115.252 18.5,107.5C 17.5,107.5 16.5,107.5 15.5,107.5C 15.6653,103.818 15.4986,100.152 15,96.5C 12.5746,90.9927 10.7413,85.3261 9.5,79.5 Z"/></g>
<g><path style="opacity:1" fill="#cebd91" d="M 427.5,125.5 C 426.89,126.391 426.557,127.391 426.5,128.5C 426.167,128.5 425.833,128.5 425.5,128.5C 423.432,131.212 422.099,134.212 421.5,137.5C 418.777,131.06 420.777,127.06 427.5,125.5 Z"/></g>
<g><path style="opacity:0.922" fill="#98b5cd" d="M 372.5,153.5 C 372.131,151.559 371.464,149.725 370.5,148C 366.41,146.303 362.243,144.803 358,143.5C 354.209,144.152 350.709,145.486 347.5,147.5C 347.916,145.248 349.249,143.748 351.5,143C 354.833,142.333 358.167,142.333 361.5,143C 364.731,144.466 368.065,145.633 371.5,146.5C 373.553,148.729 373.886,151.062 372.5,153.5 Z"/></g>
<g><path style="opacity:0.216" fill="#979890" d="M 425.5,128.5 C 424.099,132.686 423.266,137.019 423,141.5C 422.623,142.942 421.79,143.942 420.5,144.5C 421.219,142.236 421.552,139.903 421.5,137.5C 422.099,134.212 423.432,131.212 425.5,128.5 Z"/></g>
<g><path style="opacity:1" fill="#c9b78c" d="M 367.5,160.5 C 367.5,160.167 367.5,159.833 367.5,159.5C 369.413,157.709 371.08,155.709 372.5,153.5C 373.886,151.062 373.553,148.729 371.5,146.5C 368.065,145.633 364.731,144.466 361.5,143C 358.167,142.333 354.833,142.333 351.5,143C 349.249,143.748 347.916,145.248 347.5,147.5C 346.833,147.5 346.167,147.5 345.5,147.5C 347.017,143.457 349.684,140.457 353.5,138.5C 360,140.388 366.333,142.555 372.5,145C 376.148,151.951 374.482,157.118 367.5,160.5 Z"/></g>
<g><path style="opacity:0.355" fill="#a4d0f4" d="M 339.5,153.5 C 337.664,155.588 335.331,156.921 332.5,157.5C 334.336,155.412 336.669,154.079 339.5,153.5 Z"/></g>
<g><path style="opacity:0.086" fill="#d7a586" d="M 8.5,149.5 C 13.4992,159.51 17.9992,169.843 22,180.5C 23.3024,181.085 24.469,181.751 25.5,182.5C 23.712,182.785 22.0453,182.452 20.5,181.5C 15.924,171.021 11.924,160.354 8.5,149.5 Z"/></g>
<g><path style="opacity:0.988" fill="#9b9887" d="M 345.5,147.5 C 346.167,147.5 346.833,147.5 347.5,147.5C 345.557,150.471 342.891,152.471 339.5,153.5C 336.669,154.079 334.336,155.412 332.5,157.5C 332.167,157.5 331.833,157.5 331.5,157.5C 329.833,157.5 328.167,157.5 326.5,157.5C 327.833,156.833 329.167,156.167 330.5,155.5C 335.578,152.98 340.578,150.314 345.5,147.5 Z"/></g>
<g><path style="opacity:0.929" fill="#96b1c6" d="M 372.5,153.5 C 371.08,155.709 369.413,157.709 367.5,159.5C 367.167,159.5 366.833,159.5 366.5,159.5C 367.5,156.5 369.5,154.5 372.5,153.5 Z"/></g>
<g><path style="opacity:0.271" fill="#93a7b6" d="M 326.5,157.5 C 328.167,157.5 329.833,157.5 331.5,157.5C 327.02,158.521 322.353,159.187 317.5,159.5C 320.171,157.882 323.171,157.215 326.5,157.5 Z"/></g>
<g><path style="opacity:0.039" fill="#98927d" d="M 410.5,158.5 C 410.573,160.027 409.906,161.027 408.5,161.5C 408.427,159.973 409.094,158.973 410.5,158.5 Z"/></g>
<g><path style="opacity:0.824" fill="#919185" d="M 366.5,159.5 C 366.833,159.5 367.167,159.5 367.5,159.5C 367.5,159.833 367.5,160.167 367.5,160.5C 366.167,161.833 364.833,163.167 363.5,164.5C 363.75,162.326 364.75,160.659 366.5,159.5 Z"/></g>
<g><path style="opacity:0.027" fill="#8ea1af" d="M 313.5,161.5 C 313.027,162.906 312.027,163.573 310.5,163.5C 310.973,162.094 311.973,161.427 313.5,161.5 Z"/></g>
<g><path style="opacity:0.996" fill="#a19f92" d="M 408.5,161.5 C 407.191,164.778 405.358,167.778 403,170.5C 401.629,172.041 400.129,173.375 398.5,174.5C 397.094,174.973 396.427,175.973 396.5,177.5C 394.833,179.833 392.833,181.833 390.5,183.5C 393.313,177.178 397.48,171.844 403,167.5C 403.625,164.375 405.459,162.375 408.5,161.5 Z"/></g>
<g><path style="opacity:1" fill="#cbb98d" d="M 330.5,155.5 C 329.167,156.167 327.833,156.833 326.5,157.5C 323.171,157.215 320.171,157.882 317.5,159.5C 316.486,160.674 315.153,161.34 313.5,161.5C 311.973,161.427 310.973,162.094 310.5,163.5C 309.71,164.401 308.71,165.068 307.5,165.5C 304.924,165.722 304.09,167.055 305,169.5C 307.931,173.034 311.431,175.701 315.5,177.5C 316.492,177.328 317.158,177.662 317.5,178.5C 320.02,179.918 322.687,180.918 325.5,181.5C 322.859,182.263 320.192,182.43 317.5,182C 313.311,178.31 308.978,174.81 304.5,171.5C 303.167,169.167 303.167,166.833 304.5,164.5C 309.333,161.918 314,159.085 318.5,156C 322.486,155.501 326.486,155.334 330.5,155.5 Z"/></g>
<g><path style="opacity:0.467" fill="#91a0aa" d="M 307.5,165.5 C 306.588,166.738 306.421,168.072 307,169.5C 310.003,172.067 312.836,174.734 315.5,177.5C 311.431,175.701 307.931,173.034 305,169.5C 304.09,167.055 304.924,165.722 307.5,165.5 Z"/></g>
<g><path style="opacity:0.918" fill="#9dc4e3" d="M 359.5,172.5 C 358.949,175.807 358.616,179.14 358.5,182.5C 357.135,179.041 357.469,175.708 359.5,172.5 Z"/></g>
<g><path style="opacity:0.004" fill="#9cc0dc" d="M 398.5,174.5 C 398.573,176.027 397.906,177.027 396.5,177.5C 396.427,175.973 397.094,174.973 398.5,174.5 Z"/></g>
<g><path style="opacity:0.994" fill="#9a9d93" d="M 512.5,202.5 C 508.473,196.35 503.806,190.517 498.5,185C 492.217,184.431 488.217,187.264 486.5,193.5C 486.021,197.64 485.021,201.64 483.5,205.5C 483.789,200.056 484.622,194.723 486,189.5C 487.901,185.43 491.068,183.097 495.5,182.5C 504.419,186.301 510.086,192.968 512.5,202.5 Z"/></g>
<g><path style="opacity:1" fill="#989685" d="M 362.5,166.5 C 361.032,171.714 360.365,177.047 360.5,182.5C 366.647,184.881 372.98,186.881 379.5,188.5C 383.607,187.798 387.274,186.131 390.5,183.5C 388.665,188.173 385.165,190.173 380,189.5C 372.262,188.642 365.095,186.309 358.5,182.5C 358.616,179.14 358.949,175.807 359.5,172.5C 359.992,170.181 360.992,168.181 362.5,166.5 Z"/></g>
<g><path style="opacity:1" fill="#f1e3c1" d="M 512.5,202.5 C 512.5,203.5 512.5,204.5 512.5,205.5C 513.968,212.113 516.302,218.446 519.5,224.5C 521.045,225.452 522.712,225.785 524.5,225.5C 527.093,226.754 529.427,228.42 531.5,230.5C 533.414,234.639 536.08,238.305 539.5,241.5C 546.811,242.665 554.144,242.831 561.5,242C 564.309,240.907 566.976,239.74 569.5,238.5C 570.568,237.566 571.901,237.232 573.5,237.5C 579.146,236.69 584.813,236.024 590.5,235.5C 594.327,237.246 597.993,239.246 601.5,241.5C 603.311,244.444 605.144,247.444 607,250.5C 607.602,253.221 607.435,255.887 606.5,258.5C 604.37,260.127 602.37,261.96 600.5,264C 599.552,264.483 598.552,264.649 597.5,264.5C 597.288,267.712 595.621,269.712 592.5,270.5C 588.923,271.269 585.423,272.269 582,273.5C 580.541,279.446 579.874,285.446 580,291.5C 581.517,293.24 583.017,294.906 584.5,296.5C 586.163,298.438 586.829,300.772 586.5,303.5C 586.027,304.906 585.027,305.573 583.5,305.5C 578.993,307.113 574.327,307.779 569.5,307.5C 564.656,302.999 559.323,302.332 553.5,305.5C 550.402,305.244 547.402,304.578 544.5,303.5C 540.323,299.599 535.989,299.599 531.5,303.5C 529.636,309.351 528.636,315.351 528.5,321.5C 526.181,321.992 524.181,322.992 522.5,324.5C 514.404,327.713 506.404,331.213 498.5,335C 489.137,335.072 479.803,334.405 470.5,333C 468.332,329.64 465.332,327.806 461.5,327.5C 452.989,329.102 444.489,330.769 436,332.5C 431.392,331.945 426.892,330.945 422.5,329.5C 420.629,324.926 418.629,320.426 416.5,316C 406.606,314.18 396.606,312.846 386.5,312C 385.667,311.167 384.833,310.333 384,309.5C 386.069,303.662 387.903,297.662 389.5,291.5C 391.062,287.608 393.395,284.275 396.5,281.5C 400.872,277.752 404.538,273.419 407.5,268.5C 405.993,264.809 403.993,261.476 401.5,258.5C 400.666,253.996 398,251.663 393.5,251.5C 390.502,248.333 387.669,245 385,241.5C 382.046,234.984 383.213,229.484 388.5,225C 391.611,224.556 394.277,223.223 396.5,221C 399.817,220.502 403.15,220.335 406.5,220.5C 407.492,220.328 408.158,220.662 408.5,221.5C 412.847,224.848 416.514,228.848 419.5,233.5C 419.338,235.527 419.505,237.527 420,239.5C 423.833,243.333 427.667,247.167 431.5,251C 439.931,252.975 447.264,251.142 453.5,245.5C 456.587,242.559 460.253,240.559 464.5,239.5C 468.477,238.518 472.477,237.518 476.5,236.5C 479.46,229.066 481.46,221.4 482.5,213.5C 482.5,212.167 482.5,210.833 482.5,209.5C 484.074,209.063 485.241,208.063 486,206.5C 486.499,202.179 486.666,197.846 486.5,193.5C 488.217,187.264 492.217,184.431 498.5,185C 503.806,190.517 508.473,196.35 512.5,202.5 Z"/></g>
<g><path style="opacity:0.996" fill="#9ba09b" d="M 317.5,178.5 C 323.328,177.497 328.161,179.164 332,183.5C 333.86,187.22 335.693,190.886 337.5,194.5C 336.272,193.694 335.272,192.694 334.5,191.5C 333.024,189.231 331.524,186.898 330,184.5C 328.871,182.859 327.371,181.859 325.5,181.5C 322.687,180.918 320.02,179.918 317.5,178.5 Z"/></g>
<g><path style="opacity:0.153" fill="#d6a485" d="M 25.5,182.5 C 34.5104,192.015 43.0104,202.015 51,212.5C 51.7252,214.157 51.2252,215.157 49.5,215.5C 49.6107,214.883 49.944,214.383 50.5,214C 41.9291,203.606 33.5957,193.106 25.5,182.5 Z"/></g>
<g><path style="opacity:1" fill="#aca182" d="M 334.5,191.5 C 335.272,192.694 336.272,193.694 337.5,194.5C 339.883,195.885 341.55,197.885 342.5,200.5C 342.5,201.167 342.5,201.833 342.5,202.5C 341.053,201.378 340.053,199.878 339.5,198C 336.045,197.273 334.379,195.107 334.5,191.5 Z"/></g>
<g><path style="opacity:0.996" fill="#98a5ab" d="M 342.5,200.5 C 345.245,205.658 348.245,210.658 351.5,215.5C 348.119,213.12 345.453,210.12 343.5,206.5C 343.167,205.167 342.833,203.833 342.5,202.5C 342.5,201.833 342.5,201.167 342.5,200.5 Z"/></g>
<g><path style="opacity:1" fill="#c6b790" d="M 486.5,193.5 C 486.666,197.846 486.499,202.179 486,206.5C 485.241,208.063 484.074,209.063 482.5,209.5C 482.232,207.901 482.566,206.568 483.5,205.5C 485.021,201.64 486.021,197.64 486.5,193.5 Z"/></g>
<g><path style="opacity:0.988" fill="#94a0a5" d="M 512.5,202.5 C 515.893,209.619 519.56,216.619 523.5,223.5C 521.983,223.489 520.816,222.823 520,221.5C 517.188,216.192 514.688,210.859 512.5,205.5C 512.5,204.5 512.5,203.5 512.5,202.5 Z"/></g>
<g><path style="opacity:1" fill="#beb08b" d="M 343.5,206.5 C 345.453,210.12 348.119,213.12 351.5,215.5C 352.833,218.5 352.833,221.5 351.5,224.5C 350.797,226.629 349.797,228.629 348.5,230.5C 349.057,226.825 349.724,223.159 350.5,219.5C 349.611,217.102 348.111,215.102 346,213.5C 344.589,211.35 343.755,209.016 343.5,206.5 Z"/></g>
<g><path style="opacity:0.745" fill="#8e8b7c" d="M 482.5,209.5 C 482.5,210.833 482.5,212.167 482.5,213.5C 481.833,214.5 481.167,215.5 480.5,216.5C 480.41,213.848 481.076,211.515 482.5,209.5 Z"/></g>
<g><path style="opacity:1" fill="#d1bd8d" d="M 512.5,205.5 C 514.688,210.859 517.188,216.192 520,221.5C 520.816,222.823 521.983,223.489 523.5,223.5C 523.833,224.167 524.167,224.833 524.5,225.5C 522.712,225.785 521.045,225.452 519.5,224.5C 516.302,218.446 513.968,212.113 512.5,205.5 Z"/></g>
<g><path style="opacity:0.49" fill="#94968a" d="M 523.5,223.5 C 527.141,223.652 529.807,225.318 531.5,228.5C 531.5,229.167 531.5,229.833 531.5,230.5C 529.427,228.42 527.093,226.754 524.5,225.5C 524.167,224.833 523.833,224.167 523.5,223.5 Z"/></g>
<g><path style="opacity:0.965" fill="#929fa5" d="M 479.5,220.5 C 479.231,225.264 477.898,229.597 475.5,233.5C 476.057,228.835 477.39,224.502 479.5,220.5 Z"/></g>
<g><path style="opacity:0.447" fill="#929790" d="M 408.5,221.5 C 410.783,221.608 412.783,222.441 414.5,224C 417.802,227.456 420.469,231.289 422.5,235.5C 422.5,236.167 422.5,236.833 422.5,237.5C 421.5,236.167 420.5,234.833 419.5,233.5C 416.514,228.848 412.847,224.848 408.5,221.5 Z"/></g>
<g><path style="opacity:0.976" fill="#d6a887" d="M 47.5,216.5 C 46.8902,217.391 46.5569,218.391 46.5,219.5C 45.1,225.132 43.1,230.466 40.5,235.5C 37.2593,238.735 37.2593,241.735 40.5,244.5C 38.1816,244.182 36.8483,242.848 36.5,240.5C 38.8998,233.468 41.3998,226.468 44,219.5C 44.4224,217.574 45.5891,216.574 47.5,216.5 Z"/></g>
<g><path style="opacity:0.259" fill="#969c96" d="M 581.5,234.5 C 589.935,231.715 596.601,234.048 601.5,241.5C 597.993,239.246 594.327,237.246 590.5,235.5C 587.713,234.523 584.713,234.19 581.5,234.5 Z"/></g>
<g><path style="opacity:1" fill="#cbb98e" d="M 482.5,213.5 C 481.46,221.4 479.46,229.066 476.5,236.5C 472.477,237.518 468.477,238.518 464.5,239.5C 465.833,238.5 467.167,237.5 468.5,236.5C 470.687,235.242 473.02,234.242 475.5,233.5C 477.898,229.597 479.231,225.264 479.5,220.5C 479.232,218.901 479.566,217.568 480.5,216.5C 481.167,215.5 481.833,214.5 482.5,213.5 Z"/></g>
<g><path style="opacity:1" fill="#c3b48d" d="M 580.5,234.5 C 580.833,234.5 581.167,234.5 581.5,234.5C 584.713,234.19 587.713,234.523 590.5,235.5C 584.813,236.024 579.146,236.69 573.5,237.5C 575.888,236.651 578.221,235.651 580.5,234.5 Z"/></g>
<g><path style="opacity:0.182" fill="#a3cbeb" d="M 422.5,235.5 C 424.9,237.296 426.567,239.63 427.5,242.5C 426.167,241.5 424.833,240.5 423.5,239.5C 422.662,239.158 422.328,238.492 422.5,237.5C 422.5,236.833 422.5,236.167 422.5,235.5 Z"/></g>
<g><path style="opacity:0.765" fill="#90a0a9" d="M 531.5,228.5 C 539.35,237.916 549.35,241.416 561.5,239C 567.735,237.024 574.068,235.524 580.5,234.5C 578.221,235.651 575.888,236.651 573.5,237.5C 571.901,237.232 570.568,237.566 569.5,238.5C 566.053,238.814 562.72,239.648 559.5,241C 548.089,242.92 538.756,239.42 531.5,230.5C 531.5,229.833 531.5,229.167 531.5,228.5 Z"/></g>
<g><path style="opacity:1" fill="#979c97" d="M 468.5,236.5 C 467.167,237.5 465.833,238.5 464.5,239.5C 460.253,240.559 456.587,242.559 453.5,245.5C 451.784,245.629 450.117,245.962 448.5,246.5C 454.318,241.591 460.985,238.258 468.5,236.5 Z"/></g>
<g><path style="opacity:1" fill="#cfbb8b" d="M 531.5,230.5 C 538.756,239.42 548.089,242.92 559.5,241C 562.72,239.648 566.053,238.814 569.5,238.5C 566.976,239.74 564.309,240.907 561.5,242C 554.144,242.831 546.811,242.665 539.5,241.5C 536.08,238.305 533.414,234.639 531.5,230.5 Z"/></g>
<g><path style="opacity:0.529" fill="#949283" d="M 406.5,220.5 C 403.15,220.335 399.817,220.502 396.5,221C 394.277,223.223 391.611,224.556 388.5,225C 383.213,229.484 382.046,234.984 385,241.5C 387.669,245 390.502,248.333 393.5,251.5C 384.081,246.655 380.581,238.988 383,228.5C 387.392,223.262 392.892,219.928 399.5,218.5C 402.08,218.724 404.414,219.391 406.5,220.5 Z"/></g>
<g><path style="opacity:0.996" fill="#939182" d="M 601.5,241.5 C 607.657,245.172 609.823,250.506 608,257.5C 607.617,258.056 607.117,258.389 606.5,258.5C 607.435,255.887 607.602,253.221 607,250.5C 605.144,247.444 603.311,244.444 601.5,241.5 Z"/></g>
<g><path style="opacity:0.624" fill="#969fa2" d="M 423.5,239.5 C 424.833,240.5 426.167,241.5 427.5,242.5C 430.644,246.964 434.978,249.298 440.5,249.5C 432.81,250.14 427.143,246.806 423.5,239.5 Z"/></g>
<g><path style="opacity:0.745" fill="#929c9f" d="M 351.5,224.5 C 351.043,231.705 348.876,238.371 345,244.5C 344.5,251.158 344.334,257.825 344.5,264.5C 343.345,257.679 343.179,250.679 344,243.5C 344.573,241.359 345.406,239.359 346.5,237.5C 347.455,235.254 348.122,232.921 348.5,230.5C 349.797,228.629 350.797,226.629 351.5,224.5 Z"/></g>
<g><path style="opacity:1" fill="#cdbb8e" d="M 419.5,233.5 C 420.5,234.833 421.5,236.167 422.5,237.5C 422.328,238.492 422.662,239.158 423.5,239.5C 427.143,246.806 432.81,250.14 440.5,249.5C 443.167,248.5 445.833,247.5 448.5,246.5C 450.117,245.962 451.784,245.629 453.5,245.5C 447.264,251.142 439.931,252.975 431.5,251C 427.667,247.167 423.833,243.333 420,239.5C 419.505,237.527 419.338,235.527 419.5,233.5 Z"/></g>
<g><path style="opacity:1" fill="#b8ad90" d="M 393.5,251.5 C 398,251.663 400.666,253.996 401.5,258.5C 401.5,258.833 401.5,259.167 401.5,259.5C 401.167,259.5 400.833,259.5 400.5,259.5C 398.539,256.537 396.206,253.871 393.5,251.5 Z"/></g>
<g><path style="opacity:1" fill="#d7a788" d="M 48.5,250.5 C 49.1174,250.611 49.6174,250.944 50,251.5C 50.8547,256.613 52.0213,261.613 53.5,266.5C 52.5041,266.586 51.6708,266.252 51,265.5C 49.8416,260.543 49.0083,255.543 48.5,250.5 Z"/></g>
<g><path style="opacity:1" fill="#d4c08d" d="M 401.5,258.5 C 403.993,261.476 405.993,264.809 407.5,268.5C 404.538,273.419 400.872,277.752 396.5,281.5C 396.5,280.833 396.5,280.167 396.5,279.5C 397.906,279.027 398.573,278.027 398.5,276.5C 399.728,275.694 400.728,274.694 401.5,273.5C 403.479,272.188 405.145,270.521 406.5,268.5C 405.143,266.435 403.81,264.435 402.5,262.5C 401.89,261.609 401.557,260.609 401.5,259.5C 401.5,259.167 401.5,258.833 401.5,258.5 Z"/></g>
<g><path style="opacity:0.961" fill="#94a5b1" d="M 400.5,259.5 C 400.833,259.5 401.167,259.5 401.5,259.5C 401.557,260.609 401.89,261.609 402.5,262.5C 402.577,266.215 402.244,269.881 401.5,273.5C 400.728,274.694 399.728,275.694 398.5,276.5C 400.283,271.02 400.949,265.353 400.5,259.5 Z"/></g>
<g><path style="opacity:1" fill="#e7d9b8" d="M 402.5,262.5 C 403.81,264.435 405.143,266.435 406.5,268.5C 405.145,270.521 403.479,272.188 401.5,273.5C 402.244,269.881 402.577,266.215 402.5,262.5 Z"/></g>
<g><path style="opacity:0.478" fill="#949a95" d="M 606.5,258.5 C 603.102,263.406 599.102,267.906 594.5,272C 592.975,273.009 591.308,273.509 589.5,273.5C 590.694,272.728 591.694,271.728 592.5,270.5C 595.621,269.712 597.288,267.712 597.5,264.5C 598.552,264.649 599.552,264.483 600.5,264C 602.37,261.96 604.37,260.127 606.5,258.5 Z"/></g>
<g><path style="opacity:1" fill="#d4c091" d="M 592.5,270.5 C 591.694,271.728 590.694,272.728 589.5,273.5C 585.856,274.477 583.523,276.811 582.5,280.5C 581.631,282.984 580.964,285.651 580.5,288.5C 581.095,290.761 582.429,292.428 584.5,293.5C 584.5,293.833 584.5,294.167 584.5,294.5C 584.5,295.167 584.5,295.833 584.5,296.5C 583.017,294.906 581.517,293.24 580,291.5C 579.874,285.446 580.541,279.446 582,273.5C 585.423,272.269 588.923,271.269 592.5,270.5 Z"/></g>
<g><path style="opacity:1" fill="#d2bf90" d="M 346.5,237.5 C 345.406,239.359 344.573,241.359 344,243.5C 343.179,250.679 343.345,257.679 344.5,264.5C 344.5,264.833 344.5,265.167 344.5,265.5C 345.158,270.162 347.158,274.162 350.5,277.5C 348.321,277.16 346.488,276.16 345,274.5C 341.661,263.403 340.661,252.07 342,240.5C 343.129,238.859 344.629,237.859 346.5,237.5 Z"/></g>
<g><path style="opacity:0.016" fill="#a7d3f5" d="M 352.5,276.5 C 354.027,276.427 355.027,277.094 355.5,278.5C 353.973,278.573 352.973,277.906 352.5,276.5 Z"/></g>
<g><path style="opacity:0.584" fill="#8b9498" d="M 398.5,276.5 C 398.573,278.027 397.906,279.027 396.5,279.5C 396.427,277.973 397.094,276.973 398.5,276.5 Z"/></g>
<g><path style="opacity:0.42" fill="#95afc3" d="M 589.5,273.5 C 585.315,277.205 583.315,281.872 583.5,287.5C 582.532,285.393 582.198,283.059 582.5,280.5C 583.523,276.811 585.856,274.477 589.5,273.5 Z"/></g>
<g><path style="opacity:0.341" fill="#959a93" d="M 344.5,265.5 C 346.396,269.729 349.063,273.396 352.5,276.5C 352.973,277.906 353.973,278.573 355.5,278.5C 358.055,281.627 359.055,285.294 358.5,289.5C 357.833,288.167 357.167,286.833 356.5,285.5C 355.687,282.011 353.687,279.344 350.5,277.5C 347.158,274.162 345.158,270.162 344.5,265.5 Z"/></g>
<g><path style="opacity:0.941" fill="#91938b" d="M 396.5,279.5 C 396.5,280.167 396.5,280.833 396.5,281.5C 393.395,284.275 391.062,287.608 389.5,291.5C 389.167,291.5 388.833,291.5 388.5,291.5C 389.956,286.707 392.623,282.707 396.5,279.5 Z"/></g>
<g><path style="opacity:1" fill="#c1baa3" d="M 582.5,280.5 C 582.198,283.059 582.532,285.393 583.5,287.5C 583.833,289.5 584.167,291.5 584.5,293.5C 582.429,292.428 581.095,290.761 580.5,288.5C 580.964,285.651 581.631,282.984 582.5,280.5 Z"/></g>
<g><path style="opacity:1" fill="#cebd95" d="M 356.5,285.5 C 357.167,286.833 357.833,288.167 358.5,289.5C 359.473,291.948 359.806,294.615 359.5,297.5C 359.738,299.404 360.738,300.738 362.5,301.5C 364.612,303.771 367.279,305.104 370.5,305.5C 370.5,305.833 370.5,306.167 370.5,306.5C 368.143,306.663 365.81,306.497 363.5,306C 356.889,300.817 354.555,293.983 356.5,285.5 Z"/></g>
<g><path style="opacity:0.992" fill="#939185" d="M 584.5,294.5 C 585.458,294.953 586.292,295.619 587,296.5C 587.796,299.039 587.629,301.372 586.5,303.5C 586.829,300.772 586.163,298.438 584.5,296.5C 584.5,295.833 584.5,295.167 584.5,294.5 Z"/></g>
<g><path style="opacity:0.227" fill="#8c989f" d="M 540.5,303.5 C 538.901,303.232 537.568,303.566 536.5,304.5C 535.609,305.11 534.609,305.443 533.5,305.5C 535.265,302.551 537.598,301.885 540.5,303.5 Z"/></g>
<g><path style="opacity:0.29" fill="#9dc3e2" d="M 536.5,304.5 C 537.568,303.566 538.901,303.232 540.5,303.5C 541.167,303.5 541.833,303.5 542.5,303.5C 543.167,304.167 543.833,304.833 544.5,305.5C 541.873,304.908 539.206,304.575 536.5,304.5 Z"/></g>
<g><path style="opacity:1" fill="#cdbb8d" d="M 569.5,307.5 C 564.304,305.913 558.97,305.246 553.5,305.5C 559.323,302.332 564.656,302.999 569.5,307.5 Z"/></g>
<g><path style="opacity:1" fill="#d4c08f" d="M 544.5,303.5 C 543.833,303.5 543.167,303.5 542.5,303.5C 541.833,303.5 541.167,303.5 540.5,303.5C 537.598,301.885 535.265,302.551 533.5,305.5C 533.737,306.791 533.404,307.791 532.5,308.5C 531.778,308.918 531.278,309.584 531,310.5C 530.501,314.486 530.334,318.486 530.5,322.5C 530.167,322.5 529.833,322.5 529.5,322.5C 528.833,322.5 528.5,322.167 528.5,321.5C 528.636,315.351 529.636,309.351 531.5,303.5C 535.989,299.599 540.323,299.599 544.5,303.5 Z"/></g>
<g><path style="opacity:0.553" fill="#94958b" d="M 542.5,303.5 C 543.167,303.5 543.833,303.5 544.5,303.5C 547.402,304.578 550.402,305.244 553.5,305.5C 558.97,305.246 564.304,305.913 569.5,307.5C 574.327,307.779 578.993,307.113 583.5,305.5C 582.942,306.79 581.942,307.623 580.5,308C 576.805,308.318 573.138,308.818 569.5,309.5C 561.334,307.079 553.001,305.746 544.5,305.5C 543.833,304.833 543.167,304.167 542.5,303.5 Z"/></g>
<g><path style="opacity:1" fill="#d9a88b" d="M 74.5,274.5 C 75.4972,274.47 76.1639,274.97 76.5,276C 75.3398,297.274 72.3398,318.274 67.5,339C 67.7432,339.902 68.0766,340.735 68.5,341.5C 67.8333,341.5 67.1667,341.5 66.5,341.5C 68.245,326.118 70.4117,310.785 73,295.5C 73.7714,288.515 74.2714,281.515 74.5,274.5 Z"/></g>
<g><path style="opacity:0.992" fill="#a39c8d" d="M 532.5,308.5 C 532.008,313.324 531.341,317.99 530.5,322.5C 530.334,318.486 530.501,314.486 531,310.5C 531.278,309.584 531.778,308.918 532.5,308.5 Z"/></g>
<g><path style="opacity:1" fill="#d6ac93" d="M 528.5,321.5 C 528.5,322.167 528.833,322.5 529.5,322.5C 527.151,324.341 524.485,325.674 521.5,326.5C 521.833,325.833 522.167,325.167 522.5,324.5C 524.181,322.992 526.181,321.992 528.5,321.5 Z"/></g>
<g><path style="opacity:1" fill="#d3bd90" d="M 40.5,235.5 C 40.3016,237.575 40.1349,239.575 40,241.5C 43.6667,244.167 47.3333,246.833 51,249.5C 51.5962,254.65 52.7628,259.65 54.5,264.5C 62.1364,267.211 69.6364,270.211 77,273.5C 76.9521,295.096 74.4521,316.43 69.5,337.5C 69.5698,338.772 69.9032,339.938 70.5,341C 76.5975,344.799 82.4308,348.965 88,353.5C 94.9765,344.356 102.143,335.356 109.5,326.5C 112.651,329.15 115.651,331.984 118.5,335C 125.524,335.831 132.524,335.664 139.5,334.5C 141.667,330.833 143.833,327.167 146,323.5C 146.096,317.801 145.596,312.135 144.5,306.5C 159.156,307.443 173.822,308.277 188.5,309C 191.349,312.016 194.349,314.85 197.5,317.5C 208.306,313.063 219.306,309.563 230.5,307C 234.539,315.577 238.705,324.077 243,332.5C 249.454,330.427 255.954,328.427 262.5,326.5C 267.784,332.956 273.284,339.289 279,345.5C 280.596,352.077 281.43,358.744 281.5,365.5C 288.844,364.832 296.178,363.999 303.5,363C 304.167,362.333 304.833,361.667 305.5,361C 310.588,360.427 315.588,360.927 320.5,362.5C 321.167,362.167 321.833,361.833 322.5,361.5C 327.919,352.993 333.586,344.66 339.5,336.5C 345.666,334.786 350.833,336.453 355,341.5C 363.833,330.667 372.667,319.833 381.5,309C 377.867,308.851 374.534,308.018 371.5,306.5C 375.225,306.595 378.891,306.762 382.5,307C 384.016,305.103 384.683,302.936 384.5,300.5C 386.213,299.365 386.88,297.698 386.5,295.5C 386.733,293.938 387.4,292.605 388.5,291.5C 388.833,291.5 389.167,291.5 389.5,291.5C 387.903,297.662 386.069,303.662 384,309.5C 384.833,310.333 385.667,311.167 386.5,312C 396.606,312.846 406.606,314.18 416.5,316C 418.629,320.426 420.629,324.926 422.5,329.5C 426.892,330.945 431.392,331.945 436,332.5C 444.489,330.769 452.989,329.102 461.5,327.5C 465.332,327.806 468.332,329.64 470.5,333C 479.803,334.405 489.137,335.072 498.5,335C 506.404,331.213 514.404,327.713 522.5,324.5C 522.167,325.167 521.833,325.833 521.5,326.5C 520.486,327.674 519.153,328.34 517.5,328.5C 510.062,331.592 502.562,334.592 495,337.5C 486.479,336.479 477.979,335.312 469.5,334C 467.571,331.562 465.238,329.728 462.5,328.5C 453.5,330.5 444.5,332.5 435.5,334.5C 431.127,333.626 426.794,332.626 422.5,331.5C 420.038,326.743 417.705,321.91 415.5,317C 405.555,315.405 395.555,314.071 385.5,313C 384.892,312.13 384.059,311.63 383,311.5C 378.897,314.384 375.73,318.051 373.5,322.5C 369.785,325.607 366.785,329.273 364.5,333.5C 361.328,336.53 358.161,339.53 355,342.5C 352.248,341.414 349.748,339.914 347.5,338C 344.961,337.204 342.628,337.371 340.5,338.5C 339.094,338.973 338.427,339.973 338.5,341.5C 337.094,341.973 336.427,342.973 336.5,344.5C 335.094,344.973 334.427,345.973 334.5,347.5C 333.094,347.973 332.427,348.973 332.5,350.5C 331.094,350.973 330.427,351.973 330.5,353.5C 329.094,353.973 328.427,354.973 328.5,356.5C 327.094,356.973 326.427,357.973 326.5,359.5C 325.094,359.973 324.427,360.973 324.5,362.5C 323.406,363.582 322.073,364.248 320.5,364.5C 316.253,363.685 312.086,362.685 308,361.5C 307.283,362.044 306.783,362.711 306.5,363.5C 306.5,364.167 306.167,364.5 305.5,364.5C 297.175,365.573 288.842,366.573 280.5,367.5C 279.903,360.234 278.57,353.234 276.5,346.5C 275.581,343.911 273.914,341.911 271.5,340.5C 270.581,337.911 268.914,335.911 266.5,334.5C 265.604,331.931 263.938,329.931 261.5,328.5C 254.913,330.978 248.246,332.811 241.5,334C 237.189,325.212 233.022,316.378 229,307.5C 226.942,308.229 225.109,309.229 223.5,310.5C 214.59,313.192 205.757,316.192 197,319.5C 193.679,317.012 190.512,314.345 187.5,311.5C 181.788,311.687 176.121,311.354 170.5,310.5C 163.018,309.148 155.351,308.148 147.5,307.5C 146.833,307.833 146.167,308.167 145.5,308.5C 146.817,312.582 147.817,316.749 148.5,321C 147.378,324.278 146.045,327.444 144.5,330.5C 142.75,331.659 141.75,333.326 141.5,335.5C 140.711,335.783 140.044,336.283 139.5,337C 132.167,337.667 124.833,337.667 117.5,337C 114.984,334.317 112.317,331.817 109.5,329.5C 102.511,338.127 95.5107,346.794 88.5,355.5C 81.8043,350.824 75.1376,346.157 68.5,341.5C 68.0766,340.735 67.7432,339.902 67.5,339C 72.3398,318.274 75.3398,297.274 76.5,276C 76.1639,274.97 75.4972,274.47 74.5,274.5C 67.2685,272.204 60.2685,269.538 53.5,266.5C 52.0213,261.613 50.8547,256.613 50,251.5C 49.6174,250.944 49.1174,250.611 48.5,250.5C 45.4669,248.984 42.8003,246.984 40.5,244.5C 37.2593,241.735 37.2593,238.735 40.5,235.5 Z"/></g>
<g><path style="opacity:0.082" fill="#d58199" d="M 373.5,322.5 C 371.215,326.727 368.215,330.393 364.5,333.5C 366.785,329.273 369.785,325.607 373.5,322.5 Z"/></g>
<g><path style="opacity:0.545" fill="#9d94ba" d="M 266.5,334.5 C 264.814,332.984 262.981,331.65 261,330.5C 254.664,332.168 248.331,333.834 242,335.5C 241.167,335.167 240.333,334.833 239.5,334.5C 235.833,326.5 232.167,318.5 228.5,310.5C 226.997,309.948 225.331,309.948 223.5,310.5C 225.109,309.229 226.942,308.229 229,307.5C 233.022,316.378 237.189,325.212 241.5,334C 248.246,332.811 254.913,330.978 261.5,328.5C 263.938,329.931 265.604,331.931 266.5,334.5 Z"/></g>
<g><path style="opacity:0.004" fill="#a098bf" d="M 223.5,310.5 C 214.683,315.41 205.35,318.91 195.5,321C 192.223,318.234 189.557,315.067 187.5,311.5C 190.512,314.345 193.679,317.012 197,319.5C 205.757,316.192 214.59,313.192 223.5,310.5 Z"/></g>
<g><path style="opacity:0.551" fill="#988fb5" d="M 170.5,310.5 C 162.842,310.014 155.175,309.68 147.5,309.5C 148.228,313.31 148.895,317.143 149.5,321C 149.256,324.99 147.59,328.157 144.5,330.5C 146.045,327.444 147.378,324.278 148.5,321C 147.817,316.749 146.817,312.582 145.5,308.5C 146.167,308.167 146.833,307.833 147.5,307.5C 155.351,308.148 163.018,309.148 170.5,310.5 Z"/></g>
<g><path style="opacity:1" fill="#cfc4a9" d="M 384.5,300.5 C 384.683,302.936 384.016,305.103 382.5,307C 378.891,306.762 375.225,306.595 371.5,306.5C 371.167,306.5 370.833,306.5 370.5,306.5C 370.5,306.167 370.5,305.833 370.5,305.5C 373.898,305.82 377.232,305.487 380.5,304.5C 381.521,302.812 382.855,301.479 384.5,300.5 Z"/></g>
<g><path style="opacity:0.537" fill="#95b0c4" d="M 384.5,298.5 C 384.5,299.167 384.5,299.833 384.5,300.5C 382.855,301.479 381.521,302.812 380.5,304.5C 377.232,305.487 373.898,305.82 370.5,305.5C 367.279,305.104 364.612,303.771 362.5,301.5C 366.543,302.886 370.71,303.886 375,304.5C 376.167,304.333 377.333,304.167 378.5,304C 380.37,301.96 382.37,300.127 384.5,298.5 Z"/></g>
<g><path style="opacity:0.976" fill="#95a4ae" d="M 386.5,295.5 C 386.88,297.698 386.213,299.365 384.5,300.5C 384.5,299.833 384.5,299.167 384.5,298.5C 384.427,296.973 385.094,295.973 386.5,295.5 Z"/></g>
<g><path style="opacity:0.698" fill="#8f999f" d="M 359.5,297.5 C 361.262,298.262 362.262,299.596 362.5,301.5C 360.738,300.738 359.738,299.404 359.5,297.5 Z"/></g>
<g><path style="opacity:0.012" fill="#988eb6" d="M 144.5,330.5 C 144.25,332.674 143.25,334.341 141.5,335.5C 141.75,333.326 142.75,331.659 144.5,330.5 Z"/></g>
<g><path style="opacity:0.218" fill="#d7889d" d="M 517.5,328.5 C 510.199,333.483 502.199,336.817 493.5,338.5C 485.489,337.777 477.489,336.943 469.5,336C 467.519,333.338 465.019,331.505 462,330.5C 452.015,333.543 441.848,335.043 431.5,335C 427.55,334.538 423.716,333.704 420,332.5C 417.664,327.657 415.831,322.657 414.5,317.5C 404.804,317.064 395.138,316.231 385.5,315C 384.667,314.167 383.833,313.333 383,312.5C 380.048,316.099 376.882,319.433 373.5,322.5C 375.73,318.051 378.897,314.384 383,311.5C 384.059,311.63 384.892,312.13 385.5,313C 395.555,314.071 405.555,315.405 415.5,317C 417.705,321.91 420.038,326.743 422.5,331.5C 426.794,332.626 431.127,333.626 435.5,334.5C 444.5,332.5 453.5,330.5 462.5,328.5C 465.238,329.728 467.571,331.562 469.5,334C 477.979,335.312 486.479,336.479 495,337.5C 502.562,334.592 510.062,331.592 517.5,328.5 Z"/></g>
<g><path style="opacity:0.039" fill="#9990b6" d="M 266.5,334.5 C 268.914,335.911 270.581,337.911 271.5,340.5C 269.086,339.089 267.419,337.089 266.5,334.5 Z"/></g>
<g><path style="opacity:0.086" fill="#d48097" d="M 340.5,338.5 C 340.573,340.027 339.906,341.027 338.5,341.5C 338.427,339.973 339.094,338.973 340.5,338.5 Z"/></g>
<g><path style="opacity:0.039" fill="#d58199" d="M 364.5,333.5 C 362.27,337.949 359.103,341.616 355,344.5C 351.928,343.047 349.095,341.213 346.5,339C 344.527,338.505 342.527,338.338 340.5,338.5C 342.628,337.371 344.961,337.204 347.5,338C 349.748,339.914 352.248,341.414 355,342.5C 358.161,339.53 361.328,336.53 364.5,333.5 Z"/></g>
<g><path style="opacity:0.059" fill="#9990b6" d="M 271.5,340.5 C 273.914,341.911 275.581,343.911 276.5,346.5C 274.086,345.089 272.419,343.089 271.5,340.5 Z"/></g>
<g><path style="opacity:0.086" fill="#d48097" d="M 338.5,341.5 C 338.573,343.027 337.906,344.027 336.5,344.5C 336.427,342.973 337.094,341.973 338.5,341.5 Z"/></g>
<g><path style="opacity:0.086" fill="#d48097" d="M 336.5,344.5 C 336.573,346.027 335.906,347.027 334.5,347.5C 334.427,345.973 335.094,344.973 336.5,344.5 Z"/></g>
<g><path style="opacity:0.859" fill="#a198be" d="M 141.5,335.5 C 141.586,336.496 141.252,337.329 140.5,338C 132.5,338.667 124.5,338.667 116.5,338C 114.333,335.833 112.167,333.667 110,331.5C 103.951,338.548 98.2841,345.881 93,353.5C 89.7252,357.32 86.2252,357.487 82.5,354C 76.9804,349.97 71.6471,345.803 66.5,341.5C 67.1667,341.5 67.8333,341.5 68.5,341.5C 75.1376,346.157 81.8043,350.824 88.5,355.5C 95.5107,346.794 102.511,338.127 109.5,329.5C 112.317,331.817 114.984,334.317 117.5,337C 124.833,337.667 132.167,337.667 139.5,337C 140.044,336.283 140.711,335.783 141.5,335.5 Z"/></g>
<g><path style="opacity:0.086" fill="#d48097" d="M 334.5,347.5 C 334.573,349.027 333.906,350.027 332.5,350.5C 332.427,348.973 333.094,347.973 334.5,347.5 Z"/></g>
<g><path style="opacity:0.086" fill="#d48097" d="M 332.5,350.5 C 332.573,352.027 331.906,353.027 330.5,353.5C 330.427,351.973 331.094,350.973 332.5,350.5 Z"/></g>
<g><path style="opacity:0.086" fill="#d48097" d="M 330.5,353.5 C 330.573,355.027 329.906,356.027 328.5,356.5C 328.427,354.973 329.094,353.973 330.5,353.5 Z"/></g>
<g><path style="opacity:0.086" fill="#d48097" d="M 328.5,356.5 C 328.573,358.027 327.906,359.027 326.5,359.5C 326.427,357.973 327.094,356.973 328.5,356.5 Z"/></g>
<g><path style="opacity:0.086" fill="#d48097" d="M 326.5,359.5 C 326.573,361.027 325.906,362.027 324.5,362.5C 324.427,360.973 325.094,359.973 326.5,359.5 Z"/></g>
<g><path style="opacity:0.202" fill="#9d8db5" d="M 324.5,362.5 C 324.315,364.89 322.982,365.89 320.5,365.5C 315.881,364.442 311.214,363.776 306.5,363.5C 306.783,362.711 307.283,362.044 308,361.5C 312.086,362.685 316.253,363.685 320.5,364.5C 322.073,364.248 323.406,363.582 324.5,362.5 Z"/></g>
<g><path style="opacity:0.253" fill="#9c93b9" d="M 276.5,346.5 C 278.57,353.234 279.903,360.234 280.5,367.5C 288.842,366.573 297.175,365.573 305.5,364.5C 305.389,365.117 305.056,365.617 304.5,366C 295.875,367.328 287.208,368.162 278.5,368.5C 277.739,361.176 277.073,353.842 276.5,346.5 Z"/></g>
</svg>
