<?xml version="1.0" encoding="UTF-8"?>
<!DOCTYPE svg PUBLIC "-//W3C//DTD SVG 1.1//EN" "http://www.w3.org/Graphics/SVG/1.1/DTD/svg11.dtd">
<svg xmlns="http://www.w3.org/2000/svg" version="1.1" width="587px" height="509px" style="shape-rendering:geometricPrecision; text-rendering:geometricPrecision; image-rendering:optimizeQuality; fill-rule:evenodd; clip-rule:evenodd" xmlns:xlink="http://www.w3.org/1999/xlink">
<g><path style="opacity:1" fill="#ebc4c1" d="M 415.5,212.5 C 412.833,218.483 408.167,221.816 401.5,222.5C 398.221,223.492 394.888,223.659 391.5,223C 386.725,221.297 381.892,219.797 377,218.5C 374.817,218.522 373.317,219.522 372.5,221.5C 368.707,221.269 365.374,219.935 362.5,217.5C 359.291,213.555 355.624,210.055 351.5,207C 347.665,206.751 344.332,207.918 341.5,210.5C 337.041,211.293 334.708,213.96 334.5,218.5C 333.5,220.5 332.5,222.5 331.5,224.5C 326.476,226.515 323.809,230.181 323.5,235.5C 316.273,239.974 308.273,241.974 299.5,241.5C 295.806,239.588 291.806,239.088 287.5,240C 286.944,240.383 286.611,240.883 286.5,241.5C 282.668,240.345 279.668,238.012 277.5,234.5C 275.42,230.914 272.754,227.747 269.5,225C 268.207,224.51 266.873,224.343 265.5,224.5C 263.112,223.781 261.612,222.115 261,219.5C 258.845,212.634 258.178,205.634 259,198.5C 259.748,196.249 261.248,194.916 263.5,194.5C 266.572,194.817 269.572,194.484 272.5,193.5C 274.453,189.931 276.119,186.264 277.5,182.5C 279.973,178.229 282.473,173.896 285,169.5C 285.798,167.741 285.631,166.074 284.5,164.5C 278.642,162.124 272.642,161.458 266.5,162.5C 264.091,164.902 262.091,167.569 260.5,170.5C 258.155,173.177 255.488,175.51 252.5,177.5C 250.011,177.702 247.677,177.202 245.5,176C 242.642,172.642 239.975,169.142 237.5,165.5C 233.447,163.71 230.113,161.043 227.5,157.5C 226.094,154.586 224.094,152.086 221.5,150C 218.961,149.204 216.628,149.371 214.5,150.5C 211.012,150.54 207.679,151.207 204.5,152.5C 201.206,153.115 198.039,154.115 195,155.5C 193.601,165.448 191.767,175.281 189.5,185C 189.584,187.501 190.25,189.834 191.5,192C 189.969,196.228 188.302,200.395 186.5,204.5C 189.09,212.358 191.756,220.191 194.5,228C 195.786,229.649 197.453,230.815 199.5,231.5C 199.833,232.333 200.167,233.167 200.5,234C 198.274,241.76 197.94,249.593 199.5,257.5C 199.107,259.284 198.441,260.95 197.5,262.5C 192.863,264.149 190.529,267.482 190.5,272.5C 189.929,276.468 187.596,278.635 183.5,279C 180.773,279.818 178.106,279.652 175.5,278.5C 175.137,277.817 174.804,277.15 174.5,276.5C 176.394,269.418 174.061,264.751 167.5,262.5C 165.64,261.061 163.973,259.395 162.5,257.5C 163.06,252.274 160.727,249.274 155.5,248.5C 152.752,246.399 149.752,244.566 146.5,243C 143.8,241.143 142.134,238.643 141.5,235.5C 141.664,232.813 141.497,230.146 141,227.5C 138.63,224.961 136.13,222.628 133.5,220.5C 131.674,218.853 130.34,216.853 129.5,214.5C 130.672,209.007 128.672,205.674 123.5,204.5C 120.21,202.876 117.543,200.543 115.5,197.5C 115.018,194.698 114.684,191.865 114.5,189C 115.465,180.518 116.132,172.018 116.5,163.5C 124.012,164.76 130.678,163.093 136.5,158.5C 138.604,150.855 139.937,143.022 140.5,135C 140.34,130.513 138.673,126.679 135.5,123.5C 141.71,114.246 148.043,105.08 154.5,96C 158.871,95.8275 163.204,95.3275 167.5,94.5C 170.675,88.8148 172.509,82.8148 173,76.5C 168.627,68.253 164.127,60.0863 159.5,52C 170.071,38.7388 183.738,33.0722 200.5,35C 210.997,27.9172 221.664,21.0838 232.5,14.5C 239.379,18.4391 246.379,22.1057 253.5,25.5C 259.806,18.8597 266.139,12.193 272.5,5.5C 279.5,8.16667 286.5,10.8333 293.5,13.5C 294.328,17.7956 294.828,22.1289 295,26.5C 296.833,28.3333 298.667,30.1667 300.5,32C 309.042,34.6388 317.708,36.3055 326.5,37C 327.293,35.9148 327.96,34.7481 328.5,33.5C 338.483,32.3344 348.483,32.1678 358.5,33C 360.227,34.3894 361.561,36.0561 362.5,38C 360.873,42.0506 360.373,46.2172 361,50.5C 368.178,54.4225 375.512,58.0892 383,61.5C 382.081,70.4527 381.748,79.4527 382,88.5C 387.088,91.2943 392.255,93.961 397.5,96.5C 397.833,97.5 398.167,98.5 398.5,99.5C 397.337,107.465 396.504,115.465 396,123.5C 393.333,126.833 390.667,130.167 388,133.5C 387.677,140.57 388.343,147.57 390,154.5C 395.276,156.088 400.609,157.421 406,158.5C 411.078,168.99 416.411,179.323 422,189.5C 422.166,194.845 420.499,199.512 417,203.5C 416.047,206.432 415.547,209.432 415.5,212.5 Z"/></g>
<g><path style="opacity:0.623" fill="#b66468" d="M 273.5,3.5 C 281.042,5.29188 288.375,7.79188 295.5,11C 296.3,15.08 296.8,19.2467 297,23.5C 298.833,25.3333 300.667,27.1667 302.5,29C 309.312,30.9112 316.145,32.7446 323,34.5C 324.715,33.3955 326.215,32.0622 327.5,30.5C 327.496,32.8421 326.663,34.8421 325,36.5C 317.217,34.2618 309.384,32.0952 301.5,30C 299.667,28.1667 297.833,26.3333 296,24.5C 295.8,20.2467 295.3,16.08 294.5,12C 287.36,9.23796 280.36,6.40462 273.5,3.5 Z"/></g>
<g><path style="opacity:0.867" fill="#7db9c9" d="M 231.5,12.5 C 221.232,19.3098 210.899,26.1431 200.5,33C 193.061,33.0699 185.728,33.7365 178.5,35C 175.167,37 171.833,39 168.5,41C 164.964,44.7039 161.298,48.2039 157.5,51.5C 159.12,47.3576 161.786,43.8576 165.5,41C 170.167,38.3333 174.833,35.6667 179.5,33C 185.833,32.6667 192.167,32.3333 198.5,32C 208.5,25.6667 218.5,19.3333 228.5,13C 229.448,12.5172 230.448,12.3505 231.5,12.5 Z"/></g>
<g><path style="opacity:0.333" fill="#7eb9c9" d="M 271.5,3.5 C 265.542,10.6286 259.375,17.6286 253,24.5C 246.328,20.6368 239.828,16.6368 233.5,12.5C 240.295,15.1482 246.795,18.4815 253,22.5C 256.667,18.1667 260.333,13.8333 264,9.5C 266.106,6.88229 268.606,4.88229 271.5,3.5 Z"/></g>
<g><path style="opacity:0.631" fill="#b35e63" d="M 327.5,30.5 C 338.326,29.341 349.326,29.1743 360.5,30C 362.373,31.7038 364.04,33.5372 365.5,35.5C 363.114,34.6267 361.114,33.1267 359.5,31C 348.839,30.5002 338.172,30.3335 327.5,30.5 Z"/></g>
<g><path style="opacity:0.557" fill="#7bb8c9" d="M 157.5,52.5 C 162.473,61.1039 167.473,69.7705 172.5,78.5C 170.569,83.1271 168.735,87.7938 167,92.5C 162.92,93.3002 158.753,93.8002 154.5,94C 147.637,103.683 140.637,113.183 133.5,122.5C 138.814,113.216 144.647,104.216 151,95.5C 151.833,94.6667 152.667,93.8333 153.5,93C 157.541,92.8265 161.541,92.3265 165.5,91.5C 167.916,87.0325 169.416,82.3658 170,77.5C 165.274,69.3813 161.107,61.048 157.5,52.5 Z"/></g>
<g><path style="opacity:1" fill="#ca928d" d="M 271.5,3.5 C 272.167,3.5 272.833,3.5 273.5,3.5C 280.36,6.40462 287.36,9.23796 294.5,12C 295.3,16.08 295.8,20.2467 296,24.5C 297.833,26.3333 299.667,28.1667 301.5,30C 309.384,32.0952 317.217,34.2618 325,36.5C 326.663,34.8421 327.496,32.8421 327.5,30.5C 338.172,30.3335 348.839,30.5002 359.5,31C 361.114,33.1267 363.114,34.6267 365.5,35.5C 365.5,35.8333 365.5,36.1667 365.5,36.5C 363.407,40.2018 362.24,44.2018 362,48.5C 363.167,49.6667 364.333,50.8333 365.5,52C 372.182,54.4484 378.682,57.2818 385,60.5C 384.406,69.5127 383.739,78.5127 383,87.5C 388.667,90.5 394.333,93.5 400,96.5C 399.663,105.869 398.663,115.202 397,124.5C 393.767,128.063 390.933,131.896 388.5,136C 388.99,138.346 389.657,140.513 390.5,142.5C 391.461,144.265 391.795,146.265 391.5,148.5C 391.5,150.167 391.5,151.833 391.5,153.5C 396.927,153.885 402.094,155.218 407,157.5C 411.667,166.833 416.333,176.167 421,185.5C 422.371,187.041 423.871,188.375 425.5,189.5C 425.435,192.428 424.768,195.095 423.5,197.5C 422.186,200.128 420.853,202.795 419.5,205.5C 419.5,205.833 419.5,206.167 419.5,206.5C 418.015,208.249 417.015,210.249 416.5,212.5C 416.167,212.5 415.833,212.5 415.5,212.5C 415.547,209.432 416.047,206.432 417,203.5C 420.499,199.512 422.166,194.845 422,189.5C 416.411,179.323 411.078,168.99 406,158.5C 400.609,157.421 395.276,156.088 390,154.5C 388.343,147.57 387.677,140.57 388,133.5C 390.667,130.167 393.333,126.833 396,123.5C 396.504,115.465 397.337,107.465 398.5,99.5C 398.167,98.5 397.833,97.5 397.5,96.5C 392.255,93.961 387.088,91.2943 382,88.5C 381.748,79.4527 382.081,70.4527 383,61.5C 375.512,58.0892 368.178,54.4225 361,50.5C 360.373,46.2172 360.873,42.0506 362.5,38C 361.561,36.0561 360.227,34.3894 358.5,33C 348.483,32.1678 338.483,32.3344 328.5,33.5C 327.96,34.7481 327.293,35.9148 326.5,37C 317.708,36.3055 309.042,34.6388 300.5,32C 298.667,30.1667 296.833,28.3333 295,26.5C 294.828,22.1289 294.328,17.7956 293.5,13.5C 286.5,10.8333 279.5,8.16667 272.5,5.5C 266.139,12.193 259.806,18.8597 253.5,25.5C 246.379,22.1057 239.379,18.4391 232.5,14.5C 221.664,21.0838 210.997,27.9172 200.5,35C 183.738,33.0722 170.071,38.7388 159.5,52C 164.127,60.0863 168.627,68.253 173,76.5C 172.509,82.8148 170.675,88.8148 167.5,94.5C 163.204,95.3275 158.871,95.8275 154.5,96C 148.043,105.08 141.71,114.246 135.5,123.5C 138.673,126.679 140.34,130.513 140.5,135C 139.937,143.022 138.604,150.855 136.5,158.5C 130.678,163.093 124.012,164.76 116.5,163.5C 116.132,172.018 115.465,180.518 114.5,189C 114.684,191.865 115.018,194.698 115.5,197.5C 114.609,196.89 113.609,196.557 112.5,196.5C 111.766,195.292 111.433,193.959 111.5,192.5C 113.351,182.705 114.684,172.705 115.5,162.5C 123.503,164.049 130.336,162.049 136,156.5C 137.249,148.844 138.415,141.178 139.5,133.5C 138.234,129.957 136.234,126.957 133.5,124.5C 133.5,123.833 133.5,123.167 133.5,122.5C 140.637,113.183 147.637,103.683 154.5,94C 158.753,93.8002 162.92,93.3002 167,92.5C 168.735,87.7938 170.569,83.1271 172.5,78.5C 167.473,69.7705 162.473,61.1039 157.5,52.5C 157.5,52.1667 157.5,51.8333 157.5,51.5C 161.298,48.2039 164.964,44.7039 168.5,41C 171.833,39 175.167,37 178.5,35C 185.728,33.7365 193.061,33.0699 200.5,33C 210.899,26.1431 221.232,19.3098 231.5,12.5C 232.167,12.5 232.833,12.5 233.5,12.5C 239.828,16.6368 246.328,20.6368 253,24.5C 259.375,17.6286 265.542,10.6286 271.5,3.5 Z"/></g>
<g><path style="opacity:0.333" fill="#aacd90" d="M 365.5,36.5 C 364.662,40.4992 364.162,44.4992 364,48.5C 371.178,52.4225 378.512,56.0892 386,59.5C 386.044,68.4381 385.21,77.2715 383.5,86C 389.573,88.7854 395.406,91.9521 401,95.5C 400.955,105.576 399.955,115.576 398,125.5C 395.667,128.5 393.333,131.5 391,134.5C 390.503,137.146 390.336,139.813 390.5,142.5C 389.657,140.513 388.99,138.346 388.5,136C 390.933,131.896 393.767,128.063 397,124.5C 398.663,115.202 399.663,105.869 400,96.5C 394.333,93.5 388.667,90.5 383,87.5C 383.739,78.5127 384.406,69.5127 385,60.5C 378.682,57.2818 372.182,54.4484 365.5,52C 364.333,50.8333 363.167,49.6667 362,48.5C 362.24,44.2018 363.407,40.2018 365.5,36.5 Z"/></g>
<g><path style="opacity:1" fill="#be8784" d="M 214.5,150.5 C 216.628,149.371 218.961,149.204 221.5,150C 224.094,152.086 226.094,154.586 227.5,157.5C 226.833,157.5 226.167,157.5 225.5,157.5C 224.833,156.5 224.167,155.5 223.5,154.5C 221.575,150.992 218.575,149.659 214.5,150.5 Z"/></g>
<g><path style="opacity:1" fill="#a99094" d="M 214.5,150.5 C 218.575,149.659 221.575,150.992 223.5,154.5C 222.833,154.5 222.167,154.5 221.5,154.5C 220.738,152.738 219.404,151.738 217.5,151.5C 214.848,151.41 212.515,152.076 210.5,153.5C 208.485,154.924 206.152,155.59 203.5,155.5C 204.11,154.609 204.443,153.609 204.5,152.5C 207.679,151.207 211.012,150.54 214.5,150.5 Z"/></g>
<g><path style="opacity:0.227" fill="#a1caec" d="M 217.5,151.5 C 215.485,152.924 213.152,153.59 210.5,153.5C 212.515,152.076 214.848,151.41 217.5,151.5 Z"/></g>
<g><path style="opacity:0.122" fill="#a0c6e5" d="M 221.5,154.5 C 222.167,154.5 222.833,154.5 223.5,154.5C 224.167,155.5 224.833,156.5 225.5,157.5C 227.833,160.167 230.167,162.833 232.5,165.5C 227.855,162.855 224.188,159.188 221.5,154.5 Z"/></g>
<g><path style="opacity:0.867" fill="#78b8c9" d="M 133.5,124.5 C 136.234,126.957 138.234,129.957 139.5,133.5C 138.415,141.178 137.249,148.844 136,156.5C 130.336,162.049 123.503,164.049 115.5,162.5C 122.88,162.884 129.38,160.551 135,155.5C 136.66,147.562 137.326,139.562 137,131.5C 135.121,129.473 133.954,127.14 133.5,124.5 Z"/></g>
<g><path style="opacity:0.824" fill="#c4a7a6" d="M 203.5,155.5 C 201.786,156.738 199.786,157.405 197.5,157.5C 197.483,159.565 197.15,161.565 196.5,163.5C 195.833,163.833 195.167,164.167 194.5,164.5C 195.226,161.821 196.059,159.154 197,156.5C 199.041,155.577 201.208,155.244 203.5,155.5 Z"/></g>
<g><path style="opacity:1" fill="#c7928f" d="M 277.5,182.5 C 277.5,181.833 277.5,181.167 277.5,180.5C 278.227,178.046 279.227,175.713 280.5,173.5C 282.585,171.316 283.585,168.649 283.5,165.5C 280.214,164.793 276.881,164.46 273.5,164.5C 269.74,163.774 267.073,165.107 265.5,168.5C 263.833,169.167 262.167,169.833 260.5,170.5C 262.091,167.569 264.091,164.902 266.5,162.5C 272.642,161.458 278.642,162.124 284.5,164.5C 285.631,166.074 285.798,167.741 285,169.5C 282.473,173.896 279.973,178.229 277.5,182.5 Z"/></g>
<g><path style="opacity:0.536" fill="#78b8c9" d="M 115.5,162.5 C 114.684,172.705 113.351,182.705 111.5,192.5C 112.134,183.155 112.968,173.822 114,164.5C 114.278,163.584 114.778,162.918 115.5,162.5 Z"/></g>
<g><path style="opacity:0.376" fill="#aed094" d="M 391.5,148.5 C 392.434,149.568 392.768,150.901 392.5,152.5C 397.19,153.138 401.856,153.971 406.5,155C 407.333,155.833 408.167,156.667 409,157.5C 414.271,168.377 419.771,179.044 425.5,189.5C 423.871,188.375 422.371,187.041 421,185.5C 416.333,176.167 411.667,166.833 407,157.5C 402.094,155.218 396.927,153.885 391.5,153.5C 391.5,151.833 391.5,150.167 391.5,148.5 Z"/></g>
<g><path style="opacity:1" fill="#a38283" d="M 225.5,157.5 C 226.167,157.5 226.833,157.5 227.5,157.5C 230.113,161.043 233.447,163.71 237.5,165.5C 239.975,169.142 242.642,172.642 245.5,176C 247.677,177.202 250.011,177.702 252.5,177.5C 249.974,178.657 247.307,178.657 244.5,177.5C 243.833,177.5 243.5,177.167 243.5,176.5C 241.628,173.418 239.295,170.751 236.5,168.5C 235.128,167.488 233.795,166.488 232.5,165.5C 230.167,162.833 227.833,160.167 225.5,157.5 Z"/></g>
<g><path style="opacity:0.984" fill="#939dab" d="M 273.5,164.5 C 276.881,164.46 280.214,164.793 283.5,165.5C 283.585,168.649 282.585,171.316 280.5,173.5C 280.5,172.833 280.5,172.167 280.5,171.5C 280.751,169.83 281.418,168.33 282.5,167C 279.322,166.34 276.322,165.507 273.5,164.5 Z"/></g>
<g><path style="opacity:0.996" fill="#9d9baa" d="M 265.5,168.5 C 261.629,174.208 256.462,178.208 250,180.5C 247.704,180.141 245.871,179.141 244.5,177.5C 247.307,178.657 249.974,178.657 252.5,177.5C 255.488,175.51 258.155,173.177 260.5,170.5C 262.167,169.833 263.833,169.167 265.5,168.5 Z"/></g>
<g><path style="opacity:0.039" fill="#a4cdef" d="M 236.5,168.5 C 239.295,170.751 241.628,173.418 243.5,176.5C 241.983,176.489 240.816,175.823 240,174.5C 238.579,172.595 237.412,170.595 236.5,168.5 Z"/></g>
<g><path style="opacity:0.353" fill="#a1cbec" d="M 280.5,171.5 C 280.5,172.167 280.5,172.833 280.5,173.5C 279.227,175.713 278.227,178.046 277.5,180.5C 276.833,180.833 276.167,181.167 275.5,181.5C 276.659,177.849 278.326,174.515 280.5,171.5 Z"/></g>
<g><path style="opacity:0.298" fill="#99b8d3" d="M 196.5,163.5 C 195.307,170.682 193.974,177.849 192.5,185C 193.077,187.137 193.41,189.304 193.5,191.5C 192.163,189.651 191.497,187.484 191.5,185C 192.862,178.211 193.862,171.378 194.5,164.5C 195.167,164.167 195.833,163.833 196.5,163.5 Z"/></g>
<g><path style="opacity:0.992" fill="#97949d" d="M 277.5,180.5 C 277.5,181.167 277.5,181.833 277.5,182.5C 276.061,184.36 274.395,186.027 272.5,187.5C 272.992,185.181 273.992,183.181 275.5,181.5C 276.167,181.167 276.833,180.833 277.5,180.5 Z"/></g>
<g><path style="opacity:1" fill="#d19b97" d="M 277.5,182.5 C 276.119,186.264 274.453,189.931 272.5,193.5C 269.572,194.484 266.572,194.817 263.5,194.5C 264.833,193.5 266.167,192.5 267.5,191.5C 268.675,191.719 269.675,191.386 270.5,190.5C 270.942,189.261 271.609,188.261 272.5,187.5C 274.395,186.027 276.061,184.36 277.5,182.5 Z"/></g>
<g><path style="opacity:0.722" fill="#9bbfdd" d="M 193.5,193.5 C 193.267,196.542 192.267,199.208 190.5,201.5C 190.733,198.458 191.733,195.792 193.5,193.5 Z"/></g>
<g><path style="opacity:0.237" fill="#a7d4f8" d="M 258.5,195.5 C 258.204,197.403 257.537,199.07 256.5,200.5C 256.12,198.302 256.787,196.635 258.5,195.5 Z"/></g>
<g><path style="opacity:0.294" fill="#a3cdef" d="M 423.5,197.5 C 423.741,201.019 422.407,203.685 419.5,205.5C 420.853,202.795 422.186,200.128 423.5,197.5 Z"/></g>
<g><path style="opacity:0.906" fill="#a3bfde" d="M 115.5,201.5 C 117.404,201.738 118.738,202.738 119.5,204.5C 117.596,204.262 116.262,203.262 115.5,201.5 Z"/></g>
<g><path style="opacity:0.996" fill="#9c9aa6" d="M 112.5,196.5 C 113.609,196.557 114.609,196.89 115.5,197.5C 117.543,200.543 120.21,202.876 123.5,204.5C 124.315,205.837 125.482,206.837 127,207.5C 127.39,210.104 128.224,212.438 129.5,214.5C 130.34,216.853 131.674,218.853 133.5,220.5C 134.833,223.167 136.167,225.833 137.5,228.5C 134.427,226.431 132.094,223.764 130.5,220.5C 130.262,218.596 129.262,217.262 127.5,216.5C 126.834,213.972 126.168,211.306 125.5,208.5C 123.089,207.639 121.089,206.306 119.5,204.5C 118.738,202.738 117.404,201.738 115.5,201.5C 113.75,200.341 112.75,198.674 112.5,196.5 Z"/></g>
<g><path style="opacity:1" fill="#d19a96" d="M 123.5,204.5 C 128.672,205.674 130.672,209.007 129.5,214.5C 128.224,212.438 127.39,210.104 127,207.5C 125.482,206.837 124.315,205.837 123.5,204.5 Z"/></g>
<g><path style="opacity:0.556" fill="#deb7b4" d="M 353.5,211.5 C 353.167,211.5 352.833,211.5 352.5,211.5C 351.518,210.859 350.518,210.193 349.5,209.5C 348.583,210.127 347.583,210.461 346.5,210.5C 345.833,210.5 345.167,210.5 344.5,210.5C 348.024,206.234 351.024,206.568 353.5,211.5 Z"/></g>
<g><path style="opacity:1" fill="#b98b89" d="M 204.5,152.5 C 204.443,153.609 204.11,154.609 203.5,155.5C 201.208,155.244 199.041,155.577 197,156.5C 196.059,159.154 195.226,161.821 194.5,164.5C 193.862,171.378 192.862,178.211 191.5,185C 191.497,187.484 192.163,189.651 193.5,191.5C 193.5,192.167 193.5,192.833 193.5,193.5C 191.733,195.792 190.733,198.458 190.5,201.5C 189.962,203.117 189.629,204.784 189.5,206.5C 190.142,212.437 192.142,217.77 195.5,222.5C 196.313,224.261 197.313,225.928 198.5,227.5C 199.527,229.526 200.861,231.359 202.5,233C 200.302,240.071 199.969,247.238 201.5,254.5C 201.36,256.03 200.693,257.03 199.5,257.5C 197.94,249.593 198.274,241.76 200.5,234C 200.167,233.167 199.833,232.333 199.5,231.5C 197.453,230.815 195.786,229.649 194.5,228C 191.756,220.191 189.09,212.358 186.5,204.5C 188.302,200.395 189.969,196.228 191.5,192C 190.25,189.834 189.584,187.501 189.5,185C 191.767,175.281 193.601,165.448 195,155.5C 198.039,154.115 201.206,153.115 204.5,152.5 Z"/></g>
<g><path style="opacity:1" fill="#c58c89" d="M 362.5,217.5 C 362.167,217.5 361.833,217.5 361.5,217.5C 360.395,216.4 359.062,215.733 357.5,215.5C 356.5,213.833 355.167,212.5 353.5,211.5C 351.024,206.568 348.024,206.234 344.5,210.5C 343.5,210.5 342.5,210.5 341.5,210.5C 344.332,207.918 347.665,206.751 351.5,207C 355.624,210.055 359.291,213.555 362.5,217.5 Z"/></g>
<g><path style="opacity:0.725" fill="#969ba8" d="M 341.5,210.5 C 342.5,210.5 343.5,210.5 344.5,210.5C 345.167,210.5 345.833,210.5 346.5,210.5C 344.365,212.071 342.032,213.404 339.5,214.5C 339.733,212.938 340.4,211.605 341.5,210.5 Z"/></g>
<g><path style="opacity:0.247" fill="#9fc0dd" d="M 419.5,206.5 C 419.253,209.854 418.253,212.854 416.5,215.5C 416.5,214.5 416.5,213.5 416.5,212.5C 417.015,210.249 418.015,208.249 419.5,206.5 Z"/></g>
<g><path style="opacity:1" fill="#c99390" d="M 341.5,210.5 C 340.4,211.605 339.733,212.938 339.5,214.5C 339.167,214.5 338.833,214.5 338.5,214.5C 337.167,215.833 335.833,217.167 334.5,218.5C 334.708,213.96 337.041,211.293 341.5,210.5 Z"/></g>
<g><path style="opacity:0.545" fill="#959ba5" d="M 352.5,211.5 C 352.833,211.5 353.167,211.5 353.5,211.5C 355.167,212.5 356.5,213.833 357.5,215.5C 355.251,214.92 353.585,213.587 352.5,211.5 Z"/></g>
<g><path style="opacity:0.213" fill="#a4cdef" d="M 256.5,209.5 C 257.997,214.459 259.664,219.459 261.5,224.5C 259.978,223.809 258.978,222.642 258.5,221C 257.381,217.239 256.714,213.406 256.5,209.5 Z"/></g>
<g><path style="opacity:0.102" fill="#a5c7e8" d="M 127.5,216.5 C 129.262,217.262 130.262,218.596 130.5,220.5C 128.738,219.738 127.738,218.404 127.5,216.5 Z"/></g>
<g><path style="opacity:0.91" fill="#94a2b2" d="M 189.5,206.5 C 192.013,211.547 194.013,216.88 195.5,222.5C 192.142,217.77 190.142,212.437 189.5,206.5 Z"/></g>
<g><path style="opacity:0.722" fill="#9cc0dd" d="M 357.5,215.5 C 359.062,215.733 360.395,216.4 361.5,217.5C 362.167,218.5 362.833,219.5 363.5,220.5C 360.911,219.581 358.911,217.914 357.5,215.5 Z"/></g>
<g><path style="opacity:0.988" fill="#918890" d="M 338.5,214.5 C 338.204,216.403 337.537,218.07 336.5,219.5C 335.326,220.514 334.66,221.847 334.5,223.5C 334.5,224.167 334.167,224.5 333.5,224.5C 332.833,224.833 332.167,225.167 331.5,225.5C 331.5,225.167 331.5,224.833 331.5,224.5C 332.5,222.5 333.5,220.5 334.5,218.5C 335.833,217.167 337.167,215.833 338.5,214.5 Z"/></g>
<g><path style="opacity:0.996" fill="#9a8b93" d="M 267.5,191.5 C 266.167,192.5 264.833,193.5 263.5,194.5C 261.248,194.916 259.748,196.249 259,198.5C 258.178,205.634 258.845,212.634 261,219.5C 261.612,222.115 263.112,223.781 265.5,224.5C 266.167,225.167 266.833,225.833 267.5,226.5C 264.99,226.946 262.99,226.28 261.5,224.5C 259.664,219.459 257.997,214.459 256.5,209.5C 255.167,206.5 255.167,203.5 256.5,200.5C 257.537,199.07 258.204,197.403 258.5,195.5C 258.574,193.589 259.574,192.422 261.5,192C 263.473,191.505 265.473,191.338 267.5,191.5 Z"/></g>
<g><path style="opacity:0.176" fill="#a6d2f5" d="M 336.5,219.5 C 336.771,221.38 336.104,222.713 334.5,223.5C 334.66,221.847 335.326,220.514 336.5,219.5 Z"/></g>
<g><path style="opacity:1" fill="#cd9995" d="M 133.5,220.5 C 136.13,222.628 138.63,224.961 141,227.5C 141.497,230.146 141.664,232.813 141.5,235.5C 140.687,233.739 139.687,232.072 138.5,230.5C 138.167,229.833 137.833,229.167 137.5,228.5C 136.167,225.833 134.833,223.167 133.5,220.5 Z"/></g>
<g><path style="opacity:0.792" fill="#a8cbed" d="M 363.5,220.5 C 365.027,220.427 366.027,221.094 366.5,222.5C 364.973,222.573 363.973,221.906 363.5,220.5 Z"/></g>
<g><path style="opacity:0.992" fill="#968c96" d="M 361.5,217.5 C 361.833,217.5 362.167,217.5 362.5,217.5C 365.374,219.935 368.707,221.269 372.5,221.5C 373.833,221.5 375.167,221.5 376.5,221.5C 373.486,225.087 370.153,225.421 366.5,222.5C 366.027,221.094 365.027,220.427 363.5,220.5C 362.833,219.5 362.167,218.5 361.5,217.5 Z"/></g>
<g><path style="opacity:0.91" fill="#919eaf" d="M 379.5,221.5 C 384.529,221.92 389.195,223.254 393.5,225.5C 392.833,225.5 392.167,225.5 391.5,225.5C 387.216,224.739 383.216,223.405 379.5,221.5 Z"/></g>
<g><path style="opacity:1" fill="#b78785" d="M 401.5,222.5 C 401.167,223.167 400.833,223.833 400.5,224.5C 398.283,225.369 395.95,225.702 393.5,225.5C 389.195,223.254 384.529,221.92 379.5,221.5C 378.5,221.5 377.5,221.5 376.5,221.5C 375.167,221.5 373.833,221.5 372.5,221.5C 373.317,219.522 374.817,218.522 377,218.5C 381.892,219.797 386.725,221.297 391.5,223C 394.888,223.659 398.221,223.492 401.5,222.5 Z"/></g>
<g><path style="opacity:1" fill="#9b8388" d="M 415.5,212.5 C 415.833,212.5 416.167,212.5 416.5,212.5C 416.5,213.5 416.5,214.5 416.5,215.5C 415.5,218.5 413.5,220.5 410.5,221.5C 407.167,222.5 403.833,223.5 400.5,224.5C 400.833,223.833 401.167,223.167 401.5,222.5C 408.167,221.816 412.833,218.483 415.5,212.5 Z"/></g>
<g><path style="opacity:0.627" fill="#a3cdef" d="M 410.5,221.5 C 404.722,225.766 398.388,227.1 391.5,225.5C 392.167,225.5 392.833,225.5 393.5,225.5C 395.95,225.702 398.283,225.369 400.5,224.5C 403.833,223.5 407.167,222.5 410.5,221.5 Z"/></g>
<g><path style="opacity:1" fill="#c38c89" d="M 265.5,224.5 C 266.873,224.343 268.207,224.51 269.5,225C 272.754,227.747 275.42,230.914 277.5,234.5C 276.833,234.5 276.167,234.5 275.5,234.5C 273.712,230.896 271.045,228.23 267.5,226.5C 266.833,225.833 266.167,225.167 265.5,224.5 Z"/></g>
<g><path style="opacity:1" fill="#c28e8b" d="M 331.5,224.5 C 331.5,224.833 331.5,225.167 331.5,225.5C 328.738,227.596 326.738,230.262 325.5,233.5C 324.833,234.167 324.167,234.833 323.5,235.5C 323.809,230.181 326.476,226.515 331.5,224.5 Z"/></g>
<g><path style="opacity:0.545" fill="#9ab3cb" d="M 333.5,224.5 C 330.363,228.282 327.696,232.282 325.5,236.5C 325.5,235.5 325.5,234.5 325.5,233.5C 326.738,230.262 328.738,227.596 331.5,225.5C 332.167,225.167 332.833,224.833 333.5,224.5 Z"/></g>
<g><path style="opacity:0.631" fill="#96a6b8" d="M 267.5,226.5 C 271.045,228.23 273.712,230.896 275.5,234.5C 275.167,234.5 274.833,234.5 274.5,234.5C 271.705,232.249 269.372,229.582 267.5,226.5 Z"/></g>
<g><path style="opacity:0.102" fill="#a5cff1" d="M 274.5,234.5 C 274.833,234.5 275.167,234.5 275.5,234.5C 277.833,237.167 280.167,239.833 282.5,242.5C 278.833,240.833 276.167,238.167 274.5,234.5 Z"/></g>
<g><path style="opacity:0.961" fill="#9d898f" d="M 138.5,230.5 C 139.687,232.072 140.687,233.739 141.5,235.5C 142.134,238.643 143.8,241.143 146.5,243C 149.752,244.566 152.752,246.399 155.5,248.5C 156.11,249.391 156.443,250.391 156.5,251.5C 155.508,251.672 154.842,251.338 154.5,250.5C 154.027,249.094 153.027,248.427 151.5,248.5C 149.853,246.674 147.853,245.34 145.5,244.5C 145.027,243.094 144.027,242.427 142.5,242.5C 139.075,239.313 137.741,235.313 138.5,230.5 Z"/></g>
<g><path style="opacity:0.98" fill="#90848d" d="M 325.5,233.5 C 325.5,234.5 325.5,235.5 325.5,236.5C 324.738,238.262 323.404,239.262 321.5,239.5C 318.215,239.928 315.215,240.928 312.5,242.5C 304.993,243.562 297.326,243.562 289.5,242.5C 287.167,243.833 284.833,243.833 282.5,242.5C 280.167,239.833 277.833,237.167 275.5,234.5C 276.167,234.5 276.833,234.5 277.5,234.5C 279.668,238.012 282.668,240.345 286.5,241.5C 290.833,241.5 295.167,241.5 299.5,241.5C 308.273,241.974 316.273,239.974 323.5,235.5C 324.167,234.833 324.833,234.167 325.5,233.5 Z"/></g>
<g><path style="opacity:1" fill="#b88683" d="M 299.5,241.5 C 295.167,241.5 290.833,241.5 286.5,241.5C 286.611,240.883 286.944,240.383 287.5,240C 291.806,239.088 295.806,239.588 299.5,241.5 Z"/></g>
<g><path style="opacity:0.39" fill="#a4cef1" d="M 321.5,239.5 C 318.916,241.472 315.916,242.472 312.5,242.5C 315.215,240.928 318.215,239.928 321.5,239.5 Z"/></g>
<g><path style="opacity:0.792" fill="#a9caea" d="M 142.5,242.5 C 144.027,242.427 145.027,243.094 145.5,244.5C 143.973,244.573 142.973,243.906 142.5,242.5 Z"/></g>
<g><path style="opacity:0.116" fill="#a8d6fc" d="M 282.5,242.5 C 284.833,243.833 287.167,243.833 289.5,242.5C 288.866,243.947 287.699,244.613 286,244.5C 284.301,244.613 283.134,243.947 282.5,242.5 Z"/></g>
<g><path style="opacity:0.285" fill="#97a8bc" d="M 198.5,227.5 C 201.635,228.3 203.302,230.3 203.5,233.5C 202.639,237.637 201.973,241.804 201.5,246C 204.503,255.082 202.336,262.582 195,268.5C 194.337,272.035 192.837,275.035 190.5,277.5C 191.038,275.883 191.371,274.216 191.5,272.5C 193.129,268.887 195.129,265.554 197.5,262.5C 198.441,260.95 199.107,259.284 199.5,257.5C 200.693,257.03 201.36,256.03 201.5,254.5C 199.969,247.238 200.302,240.071 202.5,233C 200.861,231.359 199.527,229.526 198.5,227.5 Z"/></g>
<g><path style="opacity:0.42" fill="#a1c9ea" d="M 145.5,244.5 C 147.853,245.34 149.853,246.674 151.5,248.5C 148.802,248.155 146.802,246.822 145.5,244.5 Z"/></g>
<g><path style="opacity:0.992" fill="#9b9ba9" d="M 447.5,250.5 C 445.5,249.833 443.5,249.167 441.5,248.5C 439.167,248.5 436.833,248.5 434.5,248.5C 434.167,248.5 433.833,248.5 433.5,248.5C 433.5,248.167 433.5,247.833 433.5,247.5C 438.851,244.416 443.518,245.416 447.5,250.5 Z"/></g>
<g><path style="opacity:1" fill="#ebc4c1" d="M 434.5,248.5 C 436.833,248.5 439.167,248.5 441.5,248.5C 445.951,254.02 451.284,255.02 457.5,251.5C 462.247,252.428 466.914,253.595 471.5,255C 475.3,256.642 478.3,259.142 480.5,262.5C 480.045,271.014 483.712,276.848 491.5,280C 494.833,283.333 498.167,286.667 501.5,290C 505.486,290.499 509.486,290.666 513.5,290.5C 516.642,290.799 518.809,292.466 520,295.5C 520.5,298.5 521,301.5 521.5,304.5C 521.229,306.693 520.229,308.359 518.5,309.5C 513.535,313.963 508.702,318.63 504,323.5C 503.503,326.146 503.336,328.813 503.5,331.5C 503.141,333.371 502.141,334.871 500.5,336C 497.928,338.287 494.928,339.453 491.5,339.5C 489.682,337.42 487.349,336.086 484.5,335.5C 478.153,338.337 472.153,341.671 466.5,345.5C 466.167,345.5 465.833,345.5 465.5,345.5C 456.535,344.419 447.535,344.252 438.5,345C 437.748,345.671 437.414,346.504 437.5,347.5C 436.849,348.091 436.182,348.757 435.5,349.5C 424.817,345.002 418.484,337.169 416.5,326C 416.427,322.39 417.427,319.223 419.5,316.5C 420.458,316.047 421.292,315.381 422,314.5C 422.667,308.167 422.667,301.833 422,295.5C 421.722,294.584 421.222,293.918 420.5,293.5C 419.925,290.384 419.591,287.217 419.5,284C 420.953,277.249 421.953,270.416 422.5,263.5C 425.71,257.947 429.71,252.947 434.5,248.5 Z"/></g>
<g><path style="opacity:0.361" fill="#93b3cd" d="M 151.5,248.5 C 153.027,248.427 154.027,249.094 154.5,250.5C 152.973,250.573 151.973,249.906 151.5,248.5 Z"/></g>
<g><path style="opacity:1" fill="#cb9693" d="M 155.5,248.5 C 160.727,249.274 163.06,252.274 162.5,257.5C 161.728,256.306 160.728,255.306 159.5,254.5C 158.694,253.272 157.694,252.272 156.5,251.5C 156.443,250.391 156.11,249.391 155.5,248.5 Z"/></g>
<g><path style="opacity:0.322" fill="#a1c7e8" d="M 477.5,255.5 C 471.444,253.704 465.444,251.704 459.5,249.5C 457.218,250.223 454.884,250.557 452.5,250.5C 455.885,248.755 459.552,248.255 463.5,249C 466.948,250.927 470.615,252.261 474.5,253C 475.942,253.377 476.942,254.21 477.5,255.5 Z"/></g>
<g><path style="opacity:0.996" fill="#998083" d="M 477.5,255.5 C 478.5,255.833 479.167,256.5 479.5,257.5C 479.629,259.216 479.962,260.883 480.5,262.5C 478.3,259.142 475.3,256.642 471.5,255C 466.914,253.595 462.247,252.428 457.5,251.5C 454.287,251.81 451.287,251.477 448.5,250.5C 449.833,250.5 451.167,250.5 452.5,250.5C 454.884,250.557 457.218,250.223 459.5,249.5C 465.444,251.704 471.444,253.704 477.5,255.5 Z"/></g>
<g><path style="opacity:1" fill="#ca908c" d="M 441.5,248.5 C 443.5,249.167 445.5,249.833 447.5,250.5C 447.833,250.5 448.167,250.5 448.5,250.5C 451.287,251.477 454.287,251.81 457.5,251.5C 451.284,255.02 445.951,254.02 441.5,248.5 Z"/></g>
<g><path style="opacity:1" fill="#95868d" d="M 369.5,251.5 C 371.849,253.341 374.515,254.674 377.5,255.5C 380.5,256.5 382.5,258.5 383.5,261.5C 384.995,265.998 386.662,270.332 388.5,274.5C 388.448,277.346 387.448,279.68 385.5,281.5C 385.5,280.167 385.5,278.833 385.5,277.5C 385.451,262.622 378.117,254.789 363.5,254C 361.611,256.382 359.945,258.882 358.5,261.5C 358.167,261.5 357.833,261.5 357.5,261.5C 358.655,257.856 360.322,254.523 362.5,251.5C 364.941,250.244 367.274,250.244 369.5,251.5 Z"/></g>
<g><path style="opacity:1" fill="#ebc4c1" d="M 385.5,277.5 C 383.429,278.572 382.095,280.239 381.5,282.5C 382.772,285.44 384.772,287.773 387.5,289.5C 390.075,291.845 391.075,294.845 390.5,298.5C 388.613,299.768 387.613,301.601 387.5,304C 388.731,308.527 390.065,313.027 391.5,317.5C 389.745,321.262 388.745,325.262 388.5,329.5C 387.99,332.539 387.323,335.539 386.5,338.5C 383.026,341.802 379.359,344.968 375.5,348C 366.46,348.241 357.46,347.741 348.5,346.5C 346.414,345.391 344.08,344.724 341.5,344.5C 338.391,345.39 335.225,345.39 332,344.5C 322.458,345.726 312.958,347.059 303.5,348.5C 301.02,347.758 298.687,346.758 296.5,345.5C 293.261,341.69 289.261,340.69 284.5,342.5C 283.833,342.5 283.167,342.5 282.5,342.5C 279.175,340.169 275.842,337.836 272.5,335.5C 270.205,332.703 267.705,330.036 265,327.5C 264.814,322.172 266.148,317.172 269,312.5C 270.129,310.859 271.629,309.859 273.5,309.5C 275.258,309.123 276.925,308.456 278.5,307.5C 283.48,301.353 288.646,295.353 294,289.5C 294.248,286.081 294.748,282.747 295.5,279.5C 301.068,276.049 307.068,273.716 313.5,272.5C 318.648,272.968 323.648,273.968 328.5,275.5C 328.611,276.117 328.944,276.617 329.5,277C 334.833,277.667 340.167,277.667 345.5,277C 349.167,274.167 352.833,271.333 356.5,268.5C 357.946,266.382 358.613,264.049 358.5,261.5C 359.945,258.882 361.611,256.382 363.5,254C 378.117,254.789 385.451,262.622 385.5,277.5 Z"/></g>
<g><path style="opacity:0.394" fill="#a8d1f5" d="M 369.5,251.5 C 372.754,251.794 375.421,253.127 377.5,255.5C 374.515,254.674 371.849,253.341 369.5,251.5 Z"/></g>
<g><path style="opacity:0.612" fill="#a6d2f5" d="M 362.5,251.5 C 360.322,254.523 358.655,257.856 357.5,261.5C 357.167,261.5 356.833,261.5 356.5,261.5C 356.977,257.207 358.977,253.873 362.5,251.5 Z"/></g>
<g><path style="opacity:0.631" fill="#a5cbed" d="M 433.5,247.5 C 433.5,247.833 433.5,248.167 433.5,248.5C 429.473,251.86 425.806,255.527 422.5,259.5C 424.777,254.223 428.444,250.223 433.5,247.5 Z"/></g>
<g><path style="opacity:0.996" fill="#92797c" d="M 433.5,248.5 C 433.833,248.5 434.167,248.5 434.5,248.5C 429.71,252.947 425.71,257.947 422.5,263.5C 422.5,262.167 422.5,260.833 422.5,259.5C 425.806,255.527 429.473,251.86 433.5,248.5 Z"/></g>
<g><path style="opacity:0.49" fill="#a5cdf0" d="M 479.5,257.5 C 481.293,259.426 482.293,261.759 482.5,264.5C 481.833,263.833 481.167,263.167 480.5,262.5C 479.962,260.883 479.629,259.216 479.5,257.5 Z"/></g>
<g><path style="opacity:0.102" fill="#a5d0f3" d="M 161.5,259.5 C 163.167,260.5 164.5,261.833 165.5,263.5C 163.167,263.167 161.833,261.833 161.5,259.5 Z"/></g>
<g><path style="opacity:0.996" fill="#988387" d="M 159.5,254.5 C 160.728,255.306 161.728,256.306 162.5,257.5C 163.973,259.395 165.64,261.061 167.5,262.5C 167.5,262.833 167.5,263.167 167.5,263.5C 166.833,263.5 166.167,263.5 165.5,263.5C 164.5,261.833 163.167,260.5 161.5,259.5C 159.787,258.365 159.12,256.698 159.5,254.5 Z"/></g>
<g><path style="opacity:0.957" fill="#9ba1b4" d="M 422.5,259.5 C 422.5,260.833 422.5,262.167 422.5,263.5C 421.833,266.167 421.167,268.833 420.5,271.5C 420.5,270.833 420.5,270.167 420.5,269.5C 420.336,266.813 420.503,264.146 421,261.5C 421.278,260.584 421.778,259.918 422.5,259.5 Z"/></g>
<g><path style="opacity:1" fill="#cd9491" d="M 167.5,262.5 C 174.061,264.751 176.394,269.418 174.5,276.5C 173.833,275.5 173.167,274.5 172.5,273.5C 172.662,271.473 172.495,269.473 172,267.5C 170.333,266.267 168.833,264.933 167.5,263.5C 167.5,263.167 167.5,262.833 167.5,262.5 Z"/></g>
<g><path style="opacity:0.961" fill="#9095a1" d="M 356.5,261.5 C 356.833,261.5 357.167,261.5 357.5,261.5C 357.25,263.674 356.25,265.341 354.5,266.5C 354.796,264.597 355.463,262.93 356.5,261.5 Z"/></g>
<g><path style="opacity:0.229" fill="#a6cdf0" d="M 383.5,261.5 C 386.515,265.196 388.182,269.53 388.5,274.5C 386.662,270.332 384.995,265.998 383.5,261.5 Z"/></g>
<g><path style="opacity:0.29" fill="#b7b0b9" d="M 165.5,263.5 C 166.167,263.5 166.833,263.5 167.5,263.5C 168.833,264.933 170.333,266.267 172,267.5C 172.495,269.473 172.662,271.473 172.5,273.5C 172.5,275.167 172.5,276.833 172.5,278.5C 171.679,275.359 171.179,272.025 171,268.5C 168.809,267.167 166.976,265.5 165.5,263.5 Z"/></g>
<g><path style="opacity:1" fill="#c8908d" d="M 197.5,262.5 C 195.129,265.554 193.129,268.887 191.5,272.5C 191.167,272.5 190.833,272.5 190.5,272.5C 190.529,267.482 192.863,264.149 197.5,262.5 Z"/></g>
<g><path style="opacity:0.667" fill="#8f9dac" d="M 354.5,266.5 C 352.107,270.214 348.774,272.881 344.5,274.5C 347.52,271.484 350.854,268.817 354.5,266.5 Z"/></g>
<g><path style="opacity:0.363" fill="#a4cff2" d="M 314.5,270.5 C 319.076,270.438 323.409,271.105 327.5,272.5C 322.924,272.562 318.591,271.895 314.5,270.5 Z"/></g>
<g><path style="opacity:1" fill="#c18d8a" d="M 357.5,261.5 C 357.833,261.5 358.167,261.5 358.5,261.5C 358.613,264.049 357.946,266.382 356.5,268.5C 352.833,271.333 349.167,274.167 345.5,277C 340.167,277.667 334.833,277.667 329.5,277C 328.944,276.617 328.611,276.117 328.5,275.5C 329.167,275.5 329.833,275.5 330.5,275.5C 334.268,276.787 337.935,276.787 341.5,275.5C 342.391,274.89 343.391,274.557 344.5,274.5C 348.774,272.881 352.107,270.214 354.5,266.5C 356.25,265.341 357.25,263.674 357.5,261.5 Z"/></g>
<g><path style="opacity:0.984" fill="#968085" d="M 314.5,270.5 C 318.591,271.895 322.924,272.562 327.5,272.5C 328.694,273.272 329.694,274.272 330.5,275.5C 329.833,275.5 329.167,275.5 328.5,275.5C 323.648,273.968 318.648,272.968 313.5,272.5C 307.068,273.716 301.068,276.049 295.5,279.5C 293.438,281.361 292.105,283.695 291.5,286.5C 291.194,283.615 291.527,280.948 292.5,278.5C 297.689,276.403 302.689,274.07 307.5,271.5C 309.717,270.631 312.05,270.298 314.5,270.5 Z"/></g>
<g><path style="opacity:0.294" fill="#a5d1f5" d="M 307.5,271.5 C 302.689,274.07 297.689,276.403 292.5,278.5C 296.808,274.848 301.808,272.514 307.5,271.5 Z"/></g>
<g><path style="opacity:1" fill="#bf918f" d="M 480.5,262.5 C 481.167,263.167 481.833,263.833 482.5,264.5C 483.604,267.81 485.271,270.81 487.5,273.5C 488.359,276.452 490.359,278.285 493.5,279C 495.468,282.806 498.468,285.306 502.5,286.5C 503.391,287.11 504.391,287.443 505.5,287.5C 508.246,288.251 510.913,289.251 513.5,290.5C 509.486,290.666 505.486,290.499 501.5,290C 498.167,286.667 494.833,283.333 491.5,280C 483.712,276.848 480.045,271.014 480.5,262.5 Z"/></g>
<g><path style="opacity:0.667" fill="#94a2b1" d="M 327.5,272.5 C 329.681,272.284 331.347,273.117 332.5,275C 335.482,275.498 338.482,275.665 341.5,275.5C 337.935,276.787 334.268,276.787 330.5,275.5C 329.694,274.272 328.694,273.272 327.5,272.5 Z"/></g>
<g><path style="opacity:0.235" fill="#9ab9d4" d="M 487.5,273.5 C 493.411,276.742 498.411,281.075 502.5,286.5C 498.468,285.306 495.468,282.806 493.5,279C 490.359,278.285 488.359,276.452 487.5,273.5 Z"/></g>
<g><path style="opacity:0.957" fill="#9a919e" d="M 190.5,272.5 C 190.833,272.5 191.167,272.5 191.5,272.5C 191.371,274.216 191.038,275.883 190.5,277.5C 187.704,280.802 184.037,282.469 179.5,282.5C 176.372,282.439 174.039,281.106 172.5,278.5C 172.5,276.833 172.5,275.167 172.5,273.5C 173.167,274.5 173.833,275.5 174.5,276.5C 174.804,277.15 175.137,277.817 175.5,278.5C 178.106,279.652 180.773,279.818 183.5,279C 187.596,278.635 189.929,276.468 190.5,272.5 Z"/></g>
<g><path style="opacity:1" fill="#ca9491" d="M 385.5,277.5 C 385.5,278.833 385.5,280.167 385.5,281.5C 385.5,282.167 385.5,282.833 385.5,283.5C 385.733,285.062 386.4,286.395 387.5,287.5C 387.5,288.167 387.5,288.833 387.5,289.5C 384.772,287.773 382.772,285.44 381.5,282.5C 382.095,280.239 383.429,278.572 385.5,277.5 Z"/></g>
<g><path style="opacity:0.675" fill="#9dc5e5" d="M 420.5,269.5 C 420.5,270.167 420.5,270.833 420.5,271.5C 418.949,275.278 418.282,279.278 418.5,283.5C 418.278,287.797 418.945,291.797 420.5,295.5C 420.5,296.5 420.5,297.5 420.5,298.5C 419.442,297.4 418.608,296.066 418,294.5C 417.333,287.5 417.333,280.5 418,273.5C 418.608,271.934 419.442,270.6 420.5,269.5 Z"/></g>
<g><path style="opacity:0.941" fill="#9fa2b5" d="M 55.5,284.5 C 51.9581,284.187 48.6248,284.521 45.5,285.5C 44.8333,285.5 44.1667,285.5 43.5,285.5C 43.1667,285.5 42.8333,285.5 42.5,285.5C 42.5,284.833 42.5,284.167 42.5,283.5C 46.9298,282.139 51.2632,282.473 55.5,284.5 Z"/></g>
<g><path style="opacity:1" fill="#ebc4c1" d="M 43.5,285.5 C 44.1667,285.5 44.8333,285.5 45.5,285.5C 49.448,285.686 53.2813,286.352 57,287.5C 57.9953,292.305 58.8287,297.139 59.5,302C 58.1325,306.087 57.6325,310.254 58,314.5C 61.0299,319.015 64.1966,323.349 67.5,327.5C 67.7512,329.17 68.4178,330.67 69.5,332C 73.1516,332.499 76.8183,332.665 80.5,332.5C 83.4534,332.15 85.7867,333.15 87.5,335.5C 89.9635,340.26 93.6302,343.76 98.5,346C 103.289,351.003 104.622,356.837 102.5,363.5C 99.9694,365.966 99.1361,368.966 100,372.5C 103.402,382.016 107.236,391.349 111.5,400.5C 117.481,405.313 123.314,410.313 129,415.5C 129.8,419.469 131.966,422.469 135.5,424.5C 136.939,426.588 137.606,428.921 137.5,431.5C 134.32,437.91 134.987,443.91 139.5,449.5C 141.164,451.679 140.83,453.512 138.5,455C 132.548,456.33 126.548,456.663 120.5,456C 118.983,454.315 117.316,452.815 115.5,451.5C 112.833,445.833 110.167,440.167 107.5,434.5C 99.6406,430.141 93.6406,423.974 89.5,416C 81.2099,412.211 75.5432,406.045 72.5,397.5C 74.4689,390.936 75.8023,384.269 76.5,377.5C 77.9953,373.32 77.3286,369.32 74.5,365.5C 68.3526,360.52 62.3526,355.354 56.5,350C 50.9474,349.391 45.9474,347.391 41.5,344C 39.1902,343.503 36.8568,343.337 34.5,343.5C 23.9797,339.782 20.1464,332.448 23,321.5C 23.2359,319.189 24.0693,317.189 25.5,315.5C 28.0574,313.968 30.5574,312.301 33,310.5C 33.6103,307.173 34.1103,303.839 34.5,300.5C 36.2176,294.732 39.2176,289.732 43.5,285.5 Z"/></g>
<g><path style="opacity:0.224" fill="#a4cdef" d="M 58.5,285.5 C 59.1174,285.611 59.6174,285.944 60,286.5C 60.4955,288.473 60.6621,290.473 60.5,292.5C 59.5933,290.343 58.9267,288.01 58.5,285.5 Z"/></g>
<g><path style="opacity:0.991" fill="#8e7476" d="M 422.5,263.5 C 421.953,270.416 420.953,277.249 419.5,284C 419.591,287.217 419.925,290.384 420.5,293.5C 420.5,294.167 420.5,294.833 420.5,295.5C 418.945,291.797 418.278,287.797 418.5,283.5C 418.282,279.278 418.949,275.278 420.5,271.5C 421.167,268.833 421.833,266.167 422.5,263.5 Z"/></g>
<g><path style="opacity:0.573" fill="#9bbad5" d="M 385.5,283.5 C 388.243,285.239 390.243,287.573 391.5,290.5C 390.167,289.5 388.833,288.5 387.5,287.5C 386.4,286.395 385.733,285.062 385.5,283.5 Z"/></g>
<g><path style="opacity:0.827" fill="#a2c4e4" d="M 42.5,283.5 C 42.5,284.167 42.5,284.833 42.5,285.5C 39.4728,287.86 36.8062,290.527 34.5,293.5C 36.0332,289.296 38.6998,285.963 42.5,283.5 Z"/></g>
<g><path style="opacity:0.996" fill="#997d80" d="M 42.5,285.5 C 42.8333,285.5 43.1667,285.5 43.5,285.5C 39.2176,289.732 36.2176,294.732 34.5,300.5C 34.1667,300.5 33.8333,300.5 33.5,300.5C 33.6741,298.139 34.0074,295.806 34.5,293.5C 36.8062,290.527 39.4728,287.86 42.5,285.5 Z"/></g>
<g><path style="opacity:0.325" fill="#a7d4f9" d="M 521.5,292.5 C 522.924,294.515 523.59,296.848 523.5,299.5C 522.076,297.485 521.41,295.152 521.5,292.5 Z"/></g>
<g><path style="opacity:0.976" fill="#98878e" d="M 387.5,287.5 C 388.833,288.5 390.167,289.5 391.5,290.5C 393.074,292.102 393.741,294.102 393.5,296.5C 392.069,297.78 391.402,299.447 391.5,301.5C 391.5,302.167 391.167,302.5 390.5,302.5C 390.5,301.167 390.5,299.833 390.5,298.5C 391.075,294.845 390.075,291.845 387.5,289.5C 387.5,288.833 387.5,288.167 387.5,287.5 Z"/></g>
<g><path style="opacity:1" fill="#b58a88" d="M 420.5,293.5 C 421.222,293.918 421.722,294.584 422,295.5C 422.667,301.833 422.667,308.167 422,314.5C 421.292,315.381 420.458,316.047 419.5,316.5C 419.629,314.784 419.962,313.117 420.5,311.5C 420.5,307.167 420.5,302.833 420.5,298.5C 420.5,297.5 420.5,296.5 420.5,295.5C 420.5,294.833 420.5,294.167 420.5,293.5 Z"/></g>
<g><path style="opacity:1" fill="#c7908d" d="M 295.5,279.5 C 294.748,282.747 294.248,286.081 294,289.5C 288.646,295.353 283.48,301.353 278.5,307.5C 276.925,308.456 275.258,309.123 273.5,309.5C 274.5,308.167 275.5,306.833 276.5,305.5C 278.371,305.141 279.871,304.141 281,302.5C 284.333,298.5 287.667,294.5 291,290.5C 291.483,289.552 291.649,288.552 291.5,287.5C 291.5,287.167 291.5,286.833 291.5,286.5C 292.105,283.695 293.438,281.361 295.5,279.5 Z"/></g>
<g><path style="opacity:0.62" fill="#94a0af" d="M 291.5,287.5 C 291.649,288.552 291.483,289.552 291,290.5C 287.667,294.5 284.333,298.5 281,302.5C 279.871,304.141 278.371,305.141 276.5,305.5C 281.53,299.475 286.53,293.475 291.5,287.5 Z"/></g>
<g><path style="opacity:0.451" fill="#9ec5e5" d="M 393.5,296.5 C 393.598,298.553 392.931,300.22 391.5,301.5C 391.402,299.447 392.069,297.78 393.5,296.5 Z"/></g>
<g><path style="opacity:0.957" fill="#97adc6" d="M 60.5,292.5 C 61.5794,295.617 62.2461,298.95 62.5,302.5C 62.5596,305.155 61.8929,307.489 60.5,309.5C 60.5,303.833 60.5,298.167 60.5,292.5 Z"/></g>
<g><path style="opacity:1" fill="#c5918e" d="M 390.5,298.5 C 390.5,299.833 390.5,301.167 390.5,302.5C 390.5,303.833 390.5,305.167 390.5,306.5C 390.849,310.382 391.515,314.215 392.5,318C 391.969,320.817 391.636,323.65 391.5,326.5C 391.5,326.833 391.5,327.167 391.5,327.5C 391.167,327.5 390.833,327.5 390.5,327.5C 389.833,328.167 389.167,328.833 388.5,329.5C 388.745,325.262 389.745,321.262 391.5,317.5C 390.065,313.027 388.731,308.527 387.5,304C 387.613,301.601 388.613,299.768 390.5,298.5 Z"/></g>
<g><path style="opacity:0.569" fill="#a6adbc" d="M 34.5,293.5 C 34.0074,295.806 33.6741,298.139 33.5,300.5C 32.7345,303.48 31.9011,306.48 31,309.5C 28.6716,310.664 26.8382,312.33 25.5,314.5C 24.8333,314.5 24.1667,314.5 23.5,314.5C 25.1696,311.998 27.3363,309.998 30,308.5C 30.8217,303.165 32.3217,298.165 34.5,293.5 Z"/></g>
<g><path style="opacity:0.906" fill="#a0c6e6" d="M 273.5,306.5 C 273.027,307.906 272.027,308.573 270.5,308.5C 270.973,307.094 271.973,306.427 273.5,306.5 Z"/></g>
<g><path style="opacity:1" fill="#9f9099" d="M 505.5,287.5 C 509.182,287.335 512.848,287.501 516.5,288C 518.66,288.996 520.327,290.496 521.5,292.5C 521.41,295.152 522.076,297.485 523.5,299.5C 524.657,302.307 524.657,304.974 523.5,307.5C 522.167,308.5 520.833,309.5 519.5,310.5C 519.5,309.833 519.167,309.5 518.5,309.5C 520.229,308.359 521.229,306.693 521.5,304.5C 521,301.5 520.5,298.5 520,295.5C 518.809,292.466 516.642,290.799 513.5,290.5C 510.913,289.251 508.246,288.251 505.5,287.5 Z"/></g>
<g><path style="opacity:1" fill="#c38d8a" d="M 33.5,300.5 C 33.8333,300.5 34.1667,300.5 34.5,300.5C 34.1103,303.839 33.6103,307.173 33,310.5C 30.5574,312.301 28.0574,313.968 25.5,315.5C 25.5,315.167 25.5,314.833 25.5,314.5C 26.8382,312.33 28.6716,310.664 31,309.5C 31.9011,306.48 32.7345,303.48 33.5,300.5 Z"/></g>
<g><path style="opacity:0.275" fill="#a1caeb" d="M 523.5,307.5 C 519.227,313.442 514.227,318.776 508.5,323.5C 511.768,318.893 515.435,314.559 519.5,310.5C 520.833,309.5 522.167,308.5 523.5,307.5 Z"/></g>
<g><path style="opacity:0.42" fill="#a4ccee" d="M 267.5,311.5 C 266.674,314.485 265.341,317.151 263.5,319.5C 263.794,316.246 265.127,313.579 267.5,311.5 Z"/></g>
<g><path style="opacity:0.592" fill="#a1c6e6" d="M 418.5,313.5 C 418.25,315.674 417.25,317.341 415.5,318.5C 415.75,316.326 416.75,314.659 418.5,313.5 Z"/></g>
<g><path style="opacity:0.439" fill="#97a3b2" d="M 60.5,313.5 C 62.3264,315.147 63.6597,317.147 64.5,319.5C 62.1782,318.198 60.8449,316.198 60.5,313.5 Z"/></g>
<g><path style="opacity:0.961" fill="#95a2b4" d="M 390.5,306.5 C 395.061,313.109 395.394,319.775 391.5,326.5C 391.636,323.65 391.969,320.817 392.5,318C 391.515,314.215 390.849,310.382 390.5,306.5 Z"/></g>
<g><path style="opacity:0.929" fill="#a1b5d0" d="M 22.5,315.5 C 21.2885,321.771 20.6218,328.104 20.5,334.5C 19.3547,330.689 19.1881,326.689 20,322.5C 20.1558,319.809 20.9891,317.476 22.5,315.5 Z"/></g>
<g><path style="opacity:1" fill="#b98b89" d="M 45.5,285.5 C 48.6248,284.521 51.9581,284.187 55.5,284.5C 56.791,284.263 57.791,284.596 58.5,285.5C 58.9267,288.01 59.5933,290.343 60.5,292.5C 60.5,298.167 60.5,303.833 60.5,309.5C 60.5,310.833 60.5,312.167 60.5,313.5C 60.8449,316.198 62.1782,318.198 64.5,319.5C 64.427,321.027 65.0937,322.027 66.5,322.5C 67.038,324.117 67.3713,325.784 67.5,327.5C 64.1966,323.349 61.0299,319.015 58,314.5C 57.6325,310.254 58.1325,306.087 59.5,302C 58.8287,297.139 57.9953,292.305 57,287.5C 53.2813,286.352 49.448,285.686 45.5,285.5 Z"/></g>
<g><path style="opacity:0.431" fill="#9dbbd5" d="M 64.5,319.5 C 65.9063,319.973 66.573,320.973 66.5,322.5C 65.0937,322.027 64.427,321.027 64.5,319.5 Z"/></g>
<g><path style="opacity:0.996" fill="#9f8588" d="M 23.5,314.5 C 24.1667,314.5 24.8333,314.5 25.5,314.5C 25.5,314.833 25.5,315.167 25.5,315.5C 24.0693,317.189 23.2359,319.189 23,321.5C 20.1464,332.448 23.9797,339.782 34.5,343.5C 35.5,344.167 36.5,344.833 37.5,345.5C 37.1667,345.5 36.8333,345.5 36.5,345.5C 33.1476,345.216 30.1476,344.05 27.5,342C 25.0343,339.521 22.701,337.021 20.5,334.5C 20.6218,328.104 21.2885,321.771 22.5,315.5C 22.5,314.833 22.8333,314.5 23.5,314.5 Z"/></g>
<g><path style="opacity:1" fill="#bd8f8d" d="M 518.5,309.5 C 519.167,309.5 519.5,309.833 519.5,310.5C 515.435,314.559 511.768,318.893 508.5,323.5C 507.833,324.5 507.167,325.5 506.5,326.5C 505.313,328.072 504.313,329.739 503.5,331.5C 503.336,328.813 503.503,326.146 504,323.5C 508.702,318.63 513.535,313.963 518.5,309.5 Z"/></g>
<g><path style="opacity:0.988" fill="#957c7f" d="M 276.5,305.5 C 275.5,306.833 274.5,308.167 273.5,309.5C 271.629,309.859 270.129,310.859 269,312.5C 266.148,317.172 264.814,322.172 265,327.5C 267.705,330.036 270.205,332.703 272.5,335.5C 271.833,335.5 271.167,335.5 270.5,335.5C 268.205,332.703 265.705,330.036 263,327.5C 262.825,324.843 262.992,322.176 263.5,319.5C 265.341,317.151 266.674,314.485 267.5,311.5C 267.5,309.5 268.5,308.5 270.5,308.5C 272.027,308.573 273.027,307.906 273.5,306.5C 274.391,305.89 275.391,305.557 276.5,305.5 Z"/></g>
<g><path style="opacity:0.433" fill="#a4caeb" d="M 263.5,319.5 C 262.992,322.176 262.825,324.843 263,327.5C 265.705,330.036 268.205,332.703 270.5,335.5C 264.042,332.905 261.209,328.238 262,321.5C 262.278,320.584 262.778,319.918 263.5,319.5 Z"/></g>
<g><path style="opacity:1" fill="#c1b3bb" d="M 66.5,322.5 C 68.3031,324.481 69.9697,326.648 71.5,329C 75.6877,329.176 79.6877,329.676 83.5,330.5C 81.5,330.5 79.5,330.5 77.5,330.5C 73.5669,331.143 70.2336,330.143 67.5,327.5C 67.3713,325.784 67.038,324.117 66.5,322.5 Z"/></g>
<g><path style="opacity:1" fill="#987b7c" d="M 390.5,327.5 C 389.833,330.833 389.167,334.167 388.5,337.5C 387.833,337.833 387.167,338.167 386.5,338.5C 387.323,335.539 387.99,332.539 388.5,329.5C 389.167,328.833 389.833,328.167 390.5,327.5 Z"/></g>
<g><path style="opacity:0.237" fill="#a2c3e2" d="M 390.5,327.5 C 390.833,327.5 391.167,327.5 391.5,327.5C 391.483,331.534 390.483,335.201 388.5,338.5C 388.5,338.167 388.5,337.833 388.5,337.5C 389.167,334.167 389.833,330.833 390.5,327.5 Z"/></g>
<g><path style="opacity:1" fill="#d29b97" d="M 67.5,327.5 C 70.2336,330.143 73.5669,331.143 77.5,330.5C 78.5,331.167 79.5,331.833 80.5,332.5C 76.8183,332.665 73.1516,332.499 69.5,332C 68.4178,330.67 67.7512,329.17 67.5,327.5 Z"/></g>
<g><path style="opacity:0.945" fill="#9d8a92" d="M 77.5,330.5 C 79.5,330.5 81.5,330.5 83.5,330.5C 85.3797,330.229 86.713,330.896 87.5,332.5C 87.5569,333.609 87.8902,334.609 88.5,335.5C 88.1667,335.5 87.8333,335.5 87.5,335.5C 85.7867,333.15 83.4534,332.15 80.5,332.5C 79.5,331.833 78.5,331.167 77.5,330.5 Z"/></g>
<g><path style="opacity:0.827" fill="#9fc1de" d="M 87.5,332.5 C 90.2427,334.239 92.2427,336.573 93.5,339.5C 91.8333,338.167 90.1667,336.833 88.5,335.5C 87.8902,334.609 87.5569,333.609 87.5,332.5 Z"/></g>
<g><path style="opacity:0.969" fill="#978890" d="M 420.5,311.5 C 419.962,313.117 419.629,314.784 419.5,316.5C 417.427,319.223 416.427,322.39 416.5,326C 418.484,337.169 424.817,345.002 435.5,349.5C 436.182,348.757 436.849,348.091 437.5,347.5C 438.5,347.5 439.5,347.5 440.5,347.5C 440.5,348.167 440.167,348.5 439.5,348.5C 438.167,349.167 437.167,350.167 436.5,351.5C 436.167,351.5 435.833,351.5 435.5,351.5C 432.669,349.583 429.669,347.917 426.5,346.5C 424.431,343.427 421.764,341.094 418.5,339.5C 416.59,338.025 415.424,336.025 415,333.5C 414.184,328.316 414.35,323.316 415.5,318.5C 417.25,317.341 418.25,315.674 418.5,313.5C 418.833,312.5 419.5,311.833 420.5,311.5 Z"/></g>
<g><path style="opacity:1" fill="#c3908d" d="M 491.5,339.5 C 490.833,339.5 490.167,339.5 489.5,339.5C 488.5,339.5 487.5,339.5 486.5,339.5C 484.901,338.438 483.234,338.438 481.5,339.5C 476.783,340.692 472.45,342.692 468.5,345.5C 467.833,345.5 467.167,345.5 466.5,345.5C 472.153,341.671 478.153,338.337 484.5,335.5C 487.349,336.086 489.682,337.42 491.5,339.5 Z"/></g>
<g><path style="opacity:0.992" fill="#937a7d" d="M 272.5,335.5 C 275.842,337.836 279.175,340.169 282.5,342.5C 281.798,343.116 280.798,343.116 279.5,342.5C 276.861,340.527 274.527,338.194 272.5,335.5 Z"/></g>
<g><path style="opacity:0.349" fill="#a5d0f4" d="M 504.5,334.5 C 503.221,337.652 500.888,339.652 497.5,340.5C 499.607,338.273 501.94,336.273 504.5,334.5 Z"/></g>
<g><path style="opacity:0.612" fill="#a1c9ea" d="M 270.5,335.5 C 271.167,335.5 271.833,335.5 272.5,335.5C 274.527,338.194 276.861,340.527 279.5,342.5C 275.637,341.306 272.637,338.973 270.5,335.5 Z"/></g>
<g><path style="opacity:0.929" fill="#a0c1e0" d="M 418.5,339.5 C 421.764,341.094 424.431,343.427 426.5,346.5C 423.236,344.906 420.569,342.573 418.5,339.5 Z"/></g>
<g><path style="opacity:0.984" fill="#8c8189" d="M 506.5,326.5 C 506.663,328.857 506.497,331.19 506,333.5C 505.617,334.056 505.117,334.389 504.5,334.5C 501.94,336.273 499.607,338.273 497.5,340.5C 494.615,340.806 491.948,340.473 489.5,339.5C 490.167,339.5 490.833,339.5 491.5,339.5C 494.928,339.453 497.928,338.287 500.5,336C 502.141,334.871 503.141,333.371 503.5,331.5C 504.313,329.739 505.313,328.072 506.5,326.5 Z"/></g>
<g><path style="opacity:0.553" fill="#a5d0f3" d="M 20.5,334.5 C 22.701,337.021 25.0343,339.521 27.5,342C 30.1476,344.05 33.1476,345.216 36.5,345.5C 36.5,345.833 36.5,346.167 36.5,346.5C 28.5989,345.933 23.2656,341.933 20.5,334.5 Z"/></g>
<g><path style="opacity:0.945" fill="#a2a9c0" d="M 486.5,339.5 C 487.5,339.5 488.5,339.5 489.5,339.5C 491.948,340.473 494.615,340.806 497.5,340.5C 496.207,341.158 494.707,341.492 493,341.5C 490.456,341.664 488.29,340.997 486.5,339.5 Z"/></g>
<g><path style="opacity:0.133" fill="#a4c6e5" d="M 93.5,339.5 C 100.492,342.154 104.492,347.154 105.5,354.5C 104.295,351.766 102.795,349.099 101,346.5C 99.6811,344.513 97.8477,343.346 95.5,343C 94.1772,342.184 93.5106,341.017 93.5,339.5 Z"/></g>
<g><path style="opacity:1" fill="#c9918e" d="M 296.5,345.5 C 292.443,344.312 288.443,343.312 284.5,342.5C 289.261,340.69 293.261,341.69 296.5,345.5 Z"/></g>
<g><path style="opacity:0.51" fill="#9bb6cf" d="M 481.5,339.5 C 476.273,343.281 470.607,346.281 464.5,348.5C 465.833,347.5 467.167,346.5 468.5,345.5C 472.45,342.692 476.783,340.692 481.5,339.5 Z"/></g>
<g><path style="opacity:1" fill="#bd8b89" d="M 34.5,343.5 C 36.8568,343.337 39.1902,343.503 41.5,344C 45.9474,347.391 50.9474,349.391 56.5,350C 62.3526,355.354 68.3526,360.52 74.5,365.5C 77.3286,369.32 77.9953,373.32 76.5,377.5C 76.7947,375.265 76.4614,373.265 75.5,371.5C 74.5692,367.571 72.2359,364.905 68.5,363.5C 67.0892,361.086 65.0892,359.419 62.5,358.5C 61.0401,356.537 59.3734,354.704 57.5,353C 50.9387,350.286 44.272,347.786 37.5,345.5C 36.5,344.833 35.5,344.167 34.5,343.5 Z"/></g>
<g><path style="opacity:0.996" fill="#a5898b" d="M 87.5,335.5 C 87.8333,335.5 88.1667,335.5 88.5,335.5C 90.1667,336.833 91.8333,338.167 93.5,339.5C 93.5106,341.017 94.1772,342.184 95.5,343C 97.8477,343.346 99.6811,344.513 101,346.5C 102.795,349.099 104.295,351.766 105.5,354.5C 105.428,358.626 104.761,362.626 103.5,366.5C 102.37,369.137 102.37,371.803 103.5,374.5C 103.5,375.167 103.5,375.833 103.5,376.5C 102.33,374.35 101.33,372.016 100.5,369.5C 101.747,367.677 102.414,365.677 102.5,363.5C 104.622,356.837 103.289,351.003 98.5,346C 93.6302,343.76 89.9635,340.26 87.5,335.5 Z"/></g>
<g><path style="opacity:1" fill="#b08a8a" d="M 465.5,345.5 C 463.735,346.461 461.735,346.795 459.5,346.5C 452.978,346.177 446.645,346.51 440.5,347.5C 439.5,347.5 438.5,347.5 437.5,347.5C 437.414,346.504 437.748,345.671 438.5,345C 447.535,344.252 456.535,344.419 465.5,345.5 Z"/></g>
<g><path style="opacity:1" fill="#af8887" d="M 348.5,346.5 C 343.807,346.54 339.141,346.873 334.5,347.5C 332.167,347.5 329.833,347.5 327.5,347.5C 322.924,347.438 318.591,348.105 314.5,349.5C 314.167,349.5 313.833,349.5 313.5,349.5C 312.167,349.5 310.833,349.5 309.5,349.5C 307.265,349.795 305.265,349.461 303.5,348.5C 312.958,347.059 322.458,345.726 332,344.5C 335.225,345.39 338.391,345.39 341.5,344.5C 344.08,344.724 346.414,345.391 348.5,346.5 Z"/></g>
<g><path style="opacity:0.976" fill="#9292a1" d="M 465.5,345.5 C 465.833,345.5 466.167,345.5 466.5,345.5C 467.167,345.5 467.833,345.5 468.5,345.5C 467.167,346.5 465.833,347.5 464.5,348.5C 462.302,348.88 460.635,348.213 459.5,346.5C 461.735,346.795 463.735,346.461 465.5,345.5 Z"/></g>
<g><path style="opacity:0.384" fill="#a7d2f6" d="M 384.5,343.5 C 383.089,345.914 381.089,347.581 378.5,348.5C 379.911,346.086 381.911,344.419 384.5,343.5 Z"/></g>
<g><path style="opacity:0.482" fill="#a5d2f6" d="M 295.5,347.5 C 297.38,347.229 298.713,347.896 299.5,349.5C 297.847,349.34 296.514,348.674 295.5,347.5 Z"/></g>
<g><path style="opacity:0.988" fill="#978c96" d="M 279.5,342.5 C 280.798,343.116 281.798,343.116 282.5,342.5C 283.167,342.5 283.833,342.5 284.5,342.5C 288.443,343.312 292.443,344.312 296.5,345.5C 298.687,346.758 301.02,347.758 303.5,348.5C 305.265,349.461 307.265,349.795 309.5,349.5C 308.5,350.167 307.5,350.833 306.5,351.5C 305.5,351.5 304.5,351.5 303.5,351.5C 302.713,349.896 301.38,349.229 299.5,349.5C 298.713,347.896 297.38,347.229 295.5,347.5C 293.534,346.559 291.534,345.559 289.5,344.5C 285.589,346.185 282.255,345.518 279.5,342.5 Z"/></g>
<g><path style="opacity:0.573" fill="#9bc1e0" d="M 327.5,347.5 C 323.409,348.895 319.076,349.562 314.5,349.5C 318.591,348.105 322.924,347.438 327.5,347.5 Z"/></g>
<g><path style="opacity:0.393" fill="#a2cdef" d="M 344.5,347.5 C 348.078,347.549 351.411,348.215 354.5,349.5C 350.878,349.678 347.544,349.011 344.5,347.5 Z"/></g>
<g><path style="opacity:0.992" fill="#968a92" d="M 388.5,337.5 C 388.5,337.833 388.5,338.167 388.5,338.5C 387.92,340.749 386.587,342.415 384.5,343.5C 381.911,344.419 379.911,346.086 378.5,348.5C 374.295,349.91 369.962,350.577 365.5,350.5C 361.865,349.886 358.198,349.552 354.5,349.5C 351.411,348.215 348.078,347.549 344.5,347.5C 341.001,348.444 337.668,348.444 334.5,347.5C 339.141,346.873 343.807,346.54 348.5,346.5C 357.46,347.741 366.46,348.241 375.5,348C 379.359,344.968 383.026,341.802 386.5,338.5C 387.167,338.167 387.833,337.833 388.5,337.5 Z"/></g>
<g><path style="opacity:0.308" fill="#a3cbed" d="M 426.5,346.5 C 429.669,347.917 432.669,349.583 435.5,351.5C 431.453,351.645 428.453,349.978 426.5,346.5 Z"/></g>
<g><path style="opacity:0.384" fill="#a9d0f2" d="M 299.5,349.5 C 301.38,349.229 302.713,349.896 303.5,351.5C 301.847,351.34 300.514,350.674 299.5,349.5 Z"/></g>
<g><path style="opacity:0.395" fill="#a4cdf0" d="M 309.5,349.5 C 310.833,349.5 312.167,349.5 313.5,349.5C 311.485,350.924 309.152,351.59 306.5,351.5C 307.5,350.833 308.5,350.167 309.5,349.5 Z"/></g>
<g><path style="opacity:0.475" fill="#a7b4cf" d="M 378.5,348.5 C 377.653,349.966 376.32,350.8 374.5,351C 371.304,351.805 368.304,351.638 365.5,350.5C 369.962,350.577 374.295,349.91 378.5,348.5 Z"/></g>
<g><path style="opacity:0.035" fill="#a8d2f5" d="M 439.5,348.5 C 439.5,350.5 438.5,351.5 436.5,351.5C 437.167,350.167 438.167,349.167 439.5,348.5 Z"/></g>
<g><path style="opacity:0.651" fill="#98aec3" d="M 36.5,346.5 C 36.5,346.167 36.5,345.833 36.5,345.5C 36.8333,345.5 37.1667,345.5 37.5,345.5C 44.272,347.786 50.9387,350.286 57.5,353C 59.3734,354.704 61.0401,356.537 62.5,358.5C 59.7318,356.913 57.0652,355.08 54.5,353C 48.3846,351.107 42.3846,348.94 36.5,346.5 Z"/></g>
<g><path style="opacity:0.914" fill="#99b6cf" d="M 62.5,358.5 C 65.0892,359.419 67.0892,361.086 68.5,363.5C 65.9108,362.581 63.9108,360.914 62.5,358.5 Z"/></g>
<g><path style="opacity:0.62" fill="#a4c4e3" d="M 105.5,354.5 C 106.981,358.789 106.315,362.789 103.5,366.5C 104.761,362.626 105.428,358.626 105.5,354.5 Z"/></g>
<g><path style="opacity:0.302" fill="#95a9bc" d="M 68.5,363.5 C 72.2359,364.905 74.5692,367.571 75.5,371.5C 75.7489,375.458 75.0823,379.124 73.5,382.5C 75.979,375.012 74.3123,368.678 68.5,363.5 Z"/></g>
<g><path style="opacity:0.427" fill="#9bbad5" d="M 103.5,374.5 C 106.227,382.637 109.56,390.637 113.5,398.5C 111.314,397.177 109.814,395.177 109,392.5C 107.352,387.072 105.518,381.739 103.5,376.5C 103.5,375.833 103.5,375.167 103.5,374.5 Z"/></g>
<g><path style="opacity:0.424" fill="#a9d3f6" d="M 330.5,376.5 C 327.164,378.731 323.497,380.397 319.5,381.5C 322.481,378.512 326.148,376.846 330.5,376.5 Z"/></g>
<g><path style="opacity:0.365" fill="#a8ccee" d="M 273.5,378.5 C 276.877,378.068 279.877,378.735 282.5,380.5C 279.273,380.324 276.273,379.657 273.5,378.5 Z"/></g>
<g><path style="opacity:0.26" fill="#aacff2" d="M 336.5,376.5 C 338.911,377.517 340.578,379.184 341.5,381.5C 339.089,380.483 337.422,378.816 336.5,376.5 Z"/></g>
<g><path style="opacity:1" fill="#eac3c1" d="M 339.5,395.5 C 338.334,399.124 337,402.79 335.5,406.5C 332.979,405.215 330.313,404.548 327.5,404.5C 322.045,402.874 318.878,399.207 318,393.5C 317.056,386.4 320.223,381.9 327.5,380C 330.5,379.333 333.5,379.333 336.5,380C 340.557,384.497 341.557,389.664 339.5,395.5 Z"/></g>
<g><path style="opacity:0.976" fill="#97878f" d="M 330.5,376.5 C 332.5,376.5 334.5,376.5 336.5,376.5C 337.422,378.816 339.089,380.483 341.5,381.5C 342.345,382.671 343.011,384.005 343.5,385.5C 342.293,390.199 340.96,394.866 339.5,399.5C 339.5,398.167 339.5,396.833 339.5,395.5C 341.557,389.664 340.557,384.497 336.5,380C 333.5,379.333 330.5,379.333 327.5,380C 320.223,381.9 317.056,386.4 318,393.5C 318.878,399.207 322.045,402.874 327.5,404.5C 329.5,405.5 331.5,406.5 333.5,407.5C 332.167,407.5 330.833,407.5 329.5,407.5C 326.162,406.319 322.995,404.653 320,402.5C 318.041,398.096 316.208,393.762 314.5,389.5C 314.701,385.87 316.368,383.203 319.5,381.5C 323.497,380.397 327.164,378.731 330.5,376.5 Z"/></g>
<g><path style="opacity:1" fill="#ebc4c1" d="M 287.5,405.5 C 287.337,407.857 287.503,410.19 288,412.5C 289.517,414.24 291.017,415.906 292.5,417.5C 295.231,420.634 296.564,424.301 296.5,428.5C 294.692,433.241 294.192,438.241 295,443.5C 295.66,445.324 296.827,446.657 298.5,447.5C 299.832,451.51 298.832,454.843 295.5,457.5C 293.201,458.632 291.868,460.465 291.5,463C 291.822,466.509 292.822,469.675 294.5,472.5C 296.63,478.349 295.63,483.515 291.5,488C 288.937,489.079 286.271,489.579 283.5,489.5C 276.222,486.429 268.555,484.429 260.5,483.5C 255.204,481.234 253.37,477.234 255,471.5C 256.026,468.761 257.526,466.428 259.5,464.5C 262.13,462.372 264.63,460.039 267,457.5C 267.667,444.833 267.667,432.167 267,419.5C 265.629,417.959 264.129,416.625 262.5,415.5C 259.741,411.316 258.574,406.65 259,401.5C 261.284,393.76 265.45,387.26 271.5,382C 279.282,379.78 284.116,382.613 286,390.5C 286.748,395.481 287.248,400.481 287.5,405.5 Z"/></g>
<g><path style="opacity:0.996" fill="#b28584" d="M 102.5,363.5 C 102.414,365.677 101.747,367.677 100.5,369.5C 101.33,372.016 102.33,374.35 103.5,376.5C 105.518,381.739 107.352,387.072 109,392.5C 109.814,395.177 111.314,397.177 113.5,398.5C 113.859,400.371 114.859,401.871 116.5,403C 124.404,408.069 130.737,414.569 135.5,422.5C 135.5,423.167 135.5,423.833 135.5,424.5C 131.966,422.469 129.8,419.469 129,415.5C 123.314,410.313 117.481,405.313 111.5,400.5C 107.236,391.349 103.402,382.016 100,372.5C 99.1361,368.966 99.9694,365.966 102.5,363.5 Z"/></g>
<g><path style="opacity:0.341" fill="#a0c4e2" d="M 73.5,382.5 C 73.4188,387.477 72.4188,392.143 70.5,396.5C 70.8985,391.588 71.8985,386.921 73.5,382.5 Z"/></g>
<g><path style="opacity:0.297" fill="#a5caec" d="M 270.5,379.5 C 264.819,386.198 260.152,393.531 256.5,401.5C 258.338,392.336 263.005,385.003 270.5,379.5 Z"/></g>
<g><path style="opacity:0.119" fill="#a6cef0" d="M 314.5,389.5 C 316.208,393.762 318.041,398.096 320,402.5C 322.995,404.653 326.162,406.319 329.5,407.5C 324.933,407.479 321.099,405.812 318,402.5C 316.316,398.284 315.149,393.951 314.5,389.5 Z"/></g>
<g><path style="opacity:0.346" fill="#a1c9eb" d="M 287.5,388.5 C 289.136,392.21 289.802,396.21 289.5,400.5C 288.383,396.705 287.717,392.705 287.5,388.5 Z"/></g>
<g><path style="opacity:0.42" fill="#a1c8e9" d="M 343.5,385.5 C 342.8,393.303 341.3,400.969 339,408.5C 335.639,409.658 332.473,409.325 329.5,407.5C 330.833,407.5 332.167,407.5 333.5,407.5C 335.01,408.728 336.51,408.728 338,407.5C 338.822,404.883 339.322,402.216 339.5,399.5C 340.96,394.866 342.293,390.199 343.5,385.5 Z"/></g>
<g><path style="opacity:0.377" fill="#a0c8e9" d="M 493.5,413.5 C 479.247,402.663 463.247,399.33 445.5,403.5C 445.611,402.883 445.944,402.383 446.5,402C 456.167,401.333 465.833,401.333 475.5,402C 480.833,404.667 486.167,407.333 491.5,410C 492.823,410.816 493.489,411.983 493.5,413.5 Z"/></g>
<g><path style="opacity:0.984" fill="#937e83" d="M 273.5,378.5 C 276.273,379.657 279.273,380.324 282.5,380.5C 285.682,382.193 287.348,384.859 287.5,388.5C 287.717,392.705 288.383,396.705 289.5,400.5C 289.5,400.833 289.5,401.167 289.5,401.5C 289.5,404.5 289.5,407.5 289.5,410.5C 288.833,408.833 288.167,407.167 287.5,405.5C 287.248,400.481 286.748,395.481 286,390.5C 284.116,382.613 279.282,379.78 271.5,382C 265.45,387.26 261.284,393.76 259,401.5C 258.574,406.65 259.741,411.316 262.5,415.5C 262.5,416.167 262.5,416.833 262.5,417.5C 260.864,416.251 259.697,414.584 259,412.5C 258.454,409.621 257.621,406.954 256.5,404.5C 256.5,403.5 256.5,402.5 256.5,401.5C 260.152,393.531 264.819,386.198 270.5,379.5C 271.209,378.596 272.209,378.263 273.5,378.5 Z"/></g>
<g><path style="opacity:0.976" fill="#9492a0" d="M 445.5,403.5 C 440.833,404.167 436.167,404.833 431.5,405.5C 429.223,406.449 427.223,407.782 425.5,409.5C 424.833,409.5 424.167,409.5 423.5,409.5C 425.5,407.5 427.5,405.5 429.5,403.5C 434.675,402.441 440.009,402.441 445.5,403.5 Z"/></g>
<g><path style="opacity:1" fill="#ebc4c1" d="M 491.5,417.5 C 489.011,421.881 489.011,426.214 491.5,430.5C 493.031,434.846 492.365,438.846 489.5,442.5C 486.75,445.661 484.75,449.327 483.5,453.5C 484.086,456.349 485.42,458.682 487.5,460.5C 487.5,460.833 487.5,461.167 487.5,461.5C 487.646,466.701 485.98,471.201 482.5,475C 478.332,477.303 474.665,476.803 471.5,473.5C 468.525,466.673 464.192,465.673 458.5,470.5C 453.886,471.232 449.886,470.232 446.5,467.5C 444.554,463.683 441.554,461.85 437.5,462C 431.927,464.738 427.927,468.905 425.5,474.5C 411.57,482.086 396.903,483.586 381.5,479C 376,473.88 370,469.38 363.5,465.5C 362.737,463.632 361.737,461.965 360.5,460.5C 359.988,454.612 360.655,448.945 362.5,443.5C 368.948,438.888 374.948,433.721 380.5,428C 386.794,426.51 393.127,425.177 399.5,424C 402.5,421.667 405.5,419.333 408.5,417C 416.023,418.34 421.689,415.84 425.5,409.5C 427.223,407.782 429.223,406.449 431.5,405.5C 435.697,405.429 439.863,405.763 444,406.5C 446.348,406.742 448.182,405.908 449.5,404C 457.167,403.333 464.833,403.333 472.5,404C 477.833,406.667 483.167,409.333 488.5,412C 490.607,413.264 491.607,415.097 491.5,417.5 Z"/></g>
<g><path style="opacity:1" fill="#a17d7d" d="M 493.5,413.5 C 493.435,416.428 492.768,419.095 491.5,421.5C 491.5,420.167 491.5,418.833 491.5,417.5C 491.607,415.097 490.607,413.264 488.5,412C 483.167,409.333 477.833,406.667 472.5,404C 464.833,403.333 457.167,403.333 449.5,404C 448.182,405.908 446.348,406.742 444,406.5C 439.863,405.763 435.697,405.429 431.5,405.5C 436.167,404.833 440.833,404.167 445.5,403.5C 463.247,399.33 479.247,402.663 493.5,413.5 Z"/></g>
<g><path style="opacity:1" fill="#b58886" d="M 339.5,395.5 C 339.5,396.833 339.5,398.167 339.5,399.5C 339.322,402.216 338.822,404.883 338,407.5C 336.51,408.728 335.01,408.728 333.5,407.5C 331.5,406.5 329.5,405.5 327.5,404.5C 330.313,404.548 332.979,405.215 335.5,406.5C 337,402.79 338.334,399.124 339.5,395.5 Z"/></g>
<g><path style="opacity:0.604" fill="#a2c8e8" d="M 429.5,403.5 C 427.5,405.5 425.5,407.5 423.5,409.5C 422.609,410.11 421.609,410.443 420.5,410.5C 422.637,407.027 425.637,404.694 429.5,403.5 Z"/></g>
<g><path style="opacity:0.192" fill="#a0c2e0" d="M 113.5,398.5 C 119.461,403.29 125.294,408.29 131,413.5C 132.992,416.983 135.158,420.316 137.5,423.5C 136.833,423.167 136.167,422.833 135.5,422.5C 130.737,414.569 124.404,408.069 116.5,403C 114.859,401.871 113.859,400.371 113.5,398.5 Z"/></g>
<g><path style="opacity:0.553" fill="#a4cef1" d="M 70.5,400.5 C 73.5798,404.975 76.9132,409.308 80.5,413.5C 75.5072,410.547 72.1739,406.214 70.5,400.5 Z"/></g>
<g><path style="opacity:0.355" fill="#a5d0f4" d="M 527.5,408.5 C 532.991,406.814 537.991,407.814 542.5,411.5C 537.716,409.462 532.716,408.462 527.5,408.5 Z"/></g>
<g><path style="opacity:1" fill="#ebc4c1" d="M 542.5,413.5 C 542.5,414.167 542.5,414.833 542.5,415.5C 542.334,420.511 542.501,425.511 543,430.5C 543.949,432.093 545.115,433.426 546.5,434.5C 547.167,437.833 549.167,439.833 552.5,440.5C 554.849,442.341 557.515,443.674 560.5,444.5C 560.611,445.117 560.944,445.617 561.5,446C 564.482,446.498 567.482,446.665 570.5,446.5C 573.408,447.287 576.074,448.62 578.5,450.5C 579.412,452.595 580.579,454.595 582,456.5C 582.494,458.134 582.66,459.801 582.5,461.5C 580.203,463.294 578.037,465.294 576,467.5C 575.498,470.513 574.998,473.513 574.5,476.5C 574.167,478.5 573.833,480.5 573.5,482.5C 572.448,482.351 571.448,482.517 570.5,483C 568.603,487.958 564.937,490.458 559.5,490.5C 556.045,489.804 552.712,488.804 549.5,487.5C 543.078,484.558 536.412,482.225 529.5,480.5C 524.564,479.475 520.064,477.475 516,474.5C 513.826,470.454 512.993,466.121 513.5,461.5C 517.991,456.845 520.658,451.178 521.5,444.5C 521.5,443.833 521.5,443.167 521.5,442.5C 523.366,440.075 524.366,437.241 524.5,434C 524.693,431.992 524.026,430.492 522.5,429.5C 520.75,424 519.75,418.333 519.5,412.5C 527.332,409.584 534.999,409.918 542.5,413.5 Z"/></g>
<g><path style="opacity:0.537" fill="#93b0c8" d="M 289.5,401.5 C 290.307,405.021 290.974,408.688 291.5,412.5C 290.5,412.167 289.833,411.5 289.5,410.5C 289.5,407.5 289.5,404.5 289.5,401.5 Z"/></g>
<g><path style="opacity:0.451" fill="#9fc7e8" d="M 522.5,409.5 C 518.241,409.78 516.574,412.114 517.5,416.5C 515.094,411.352 516.761,409.018 522.5,409.5 Z"/></g>
<g><path style="opacity:1" fill="#c2908d" d="M 287.5,405.5 C 288.167,407.167 288.833,408.833 289.5,410.5C 289.833,411.5 290.5,412.167 291.5,412.5C 291.557,413.609 291.89,414.609 292.5,415.5C 292.5,416.167 292.5,416.833 292.5,417.5C 291.017,415.906 289.517,414.24 288,412.5C 287.503,410.19 287.337,407.857 287.5,405.5 Z"/></g>
<g><path style="opacity:0.48" fill="#9bb8d2" d="M 542.5,411.5 C 543.458,411.953 544.292,412.619 545,413.5C 545.499,418.155 545.666,422.821 545.5,427.5C 544.539,425.735 544.205,423.735 544.5,421.5C 544.663,419.143 544.497,416.81 544,414.5C 543.617,413.944 543.117,413.611 542.5,413.5C 542.5,412.833 542.5,412.167 542.5,411.5 Z"/></g>
<g><path style="opacity:0.427" fill="#9dc5e5" d="M 80.5,413.5 C 82.0269,413.427 83.0269,414.094 83.5,415.5C 81.9731,415.573 80.9731,414.906 80.5,413.5 Z"/></g>
<g><path style="opacity:0.291" fill="#a4cdef" d="M 256.5,404.5 C 257.621,406.954 258.454,409.621 259,412.5C 259.697,414.584 260.864,416.251 262.5,417.5C 262.5,418.167 262.5,418.833 262.5,419.5C 257.942,415.665 255.942,410.665 256.5,404.5 Z"/></g>
<g><path style="opacity:0.686" fill="#9abedb" d="M 291.5,412.5 C 293.262,413.262 294.262,414.596 294.5,416.5C 293.833,416.167 293.167,415.833 292.5,415.5C 291.89,414.609 291.557,413.609 291.5,412.5 Z"/></g>
<g><path style="opacity:0.647" fill="#9bb9d4" d="M 83.5,415.5 C 85.0269,415.427 86.0269,416.094 86.5,417.5C 84.9731,417.573 83.9731,416.906 83.5,415.5 Z"/></g>
<g><path style="opacity:0.31" fill="#a5d0f3" d="M 408.5,414.5 C 406.853,416.326 404.853,417.66 402.5,418.5C 403.802,416.178 405.802,414.845 408.5,414.5 Z"/></g>
<g><path style="opacity:0.98" fill="#897274" d="M 542.5,413.5 C 543.117,413.611 543.617,413.944 544,414.5C 544.497,416.81 544.663,419.143 544.5,421.5C 543.833,419.5 543.167,417.5 542.5,415.5C 542.5,414.833 542.5,414.167 542.5,413.5 Z"/></g>
<g><path style="opacity:0.359" fill="#a7cff2" d="M 294.5,416.5 C 296.25,417.659 297.25,419.326 297.5,421.5C 295.75,420.341 294.75,418.674 294.5,416.5 Z"/></g>
<g><path style="opacity:0.449" fill="#a3cbed" d="M 25.5,420.5 C 35.7998,416.481 42.4665,419.814 45.5,430.5C 42.9704,427.312 40.3038,424.145 37.5,421C 33.5138,420.501 29.5138,420.334 25.5,420.5 Z"/></g>
<g><path style="opacity:0.686" fill="#98bad6" d="M 402.5,418.5 C 401.738,420.262 400.404,421.262 398.5,421.5C 399.262,419.738 400.596,418.738 402.5,418.5 Z"/></g>
<g><path style="opacity:1" fill="#9b878c" d="M 527.5,408.5 C 532.716,408.462 537.716,409.462 542.5,411.5C 542.5,412.167 542.5,412.833 542.5,413.5C 534.999,409.918 527.332,409.584 519.5,412.5C 519.75,418.333 520.75,424 522.5,429.5C 522.414,433.857 522.08,438.19 521.5,442.5C 521.5,443.167 521.5,443.833 521.5,444.5C 521.167,444.5 520.833,444.5 520.5,444.5C 520.5,442.833 520.5,441.167 520.5,439.5C 520.674,437.139 521.007,434.806 521.5,432.5C 520.87,428.952 519.87,425.619 518.5,422.5C 517.539,420.735 517.205,418.735 517.5,416.5C 516.574,412.114 518.241,409.78 522.5,409.5C 523.919,408.549 525.585,408.216 527.5,408.5 Z"/></g>
<g><path style="opacity:0.996" fill="#ab898b" d="M 75.5,371.5 C 76.4614,373.265 76.7947,375.265 76.5,377.5C 75.8023,384.269 74.4689,390.936 72.5,397.5C 75.5432,406.045 81.2099,412.211 89.5,416C 93.6406,423.974 99.6406,430.141 107.5,434.5C 110.167,440.167 112.833,445.833 115.5,451.5C 117.316,452.815 118.983,454.315 120.5,456C 126.548,456.663 132.548,456.33 138.5,455C 140.83,453.512 141.164,451.679 139.5,449.5C 139.5,448.833 139.5,448.167 139.5,447.5C 140.313,449.261 141.313,450.928 142.5,452.5C 142.771,454.38 142.104,455.713 140.5,456.5C 137.627,456.802 134.961,457.469 132.5,458.5C 128.601,459.791 124.601,459.791 120.5,458.5C 117.874,456.177 115.207,453.843 112.5,451.5C 112.065,448.843 111.065,446.509 109.5,444.5C 109.174,441.689 108.341,439.022 107,436.5C 106.184,435.177 105.017,434.511 103.5,434.5C 102.738,432.738 101.404,431.738 99.5,431.5C 95.7859,427.95 92.6193,423.95 90,419.5C 89.1841,418.177 88.0174,417.511 86.5,417.5C 86.0269,416.094 85.0269,415.427 83.5,415.5C 83.0269,414.094 82.0269,413.427 80.5,413.5C 76.9132,409.308 73.5798,404.975 70.5,400.5C 70.5,399.167 70.5,397.833 70.5,396.5C 72.4188,392.143 73.4188,387.477 73.5,382.5C 75.0823,379.124 75.7489,375.458 75.5,371.5 Z"/></g>
<g><path style="opacity:0.261" fill="#a0c4e4" d="M 398.5,421.5 C 398.389,422.117 398.056,422.617 397.5,423C 391.314,423.57 385.314,424.904 379.5,427C 373.638,432.033 367.971,437.199 362.5,442.5C 361.609,443.11 360.609,443.443 359.5,443.5C 365.637,437.533 371.97,431.699 378.5,426C 385.013,423.798 391.679,422.298 398.5,421.5 Z"/></g>
<g><path style="opacity:1" fill="#ac8888" d="M 423.5,409.5 C 424.167,409.5 424.833,409.5 425.5,409.5C 421.689,415.84 416.023,418.34 408.5,417C 405.5,419.333 402.5,421.667 399.5,424C 393.127,425.177 386.794,426.51 380.5,428C 374.948,433.721 368.948,438.888 362.5,443.5C 362.5,443.167 362.5,442.833 362.5,442.5C 367.971,437.199 373.638,432.033 379.5,427C 385.314,424.904 391.314,423.57 397.5,423C 398.056,422.617 398.389,422.117 398.5,421.5C 400.404,421.262 401.738,420.262 402.5,418.5C 404.853,417.66 406.853,416.326 408.5,414.5C 411.305,413.681 414.305,413.181 417.5,413C 418.373,411.955 419.373,411.122 420.5,410.5C 421.609,410.443 422.609,410.11 423.5,409.5 Z"/></g>
<g><path style="opacity:1" fill="#c38b88" d="M 491.5,417.5 C 491.5,418.833 491.5,420.167 491.5,421.5C 491.5,423.833 491.5,426.167 491.5,428.5C 491.5,429.167 491.5,429.833 491.5,430.5C 489.011,426.214 489.011,421.881 491.5,417.5 Z"/></g>
<g><path style="opacity:0.218" fill="#a1c4e2" d="M 86.5,417.5 C 88.0174,417.511 89.1841,418.177 90,419.5C 92.6193,423.95 95.7859,427.95 99.5,431.5C 97.236,430.419 95.0693,429.085 93,427.5C 91.004,424.014 88.8373,420.681 86.5,417.5 Z"/></g>
<g><path style="opacity:0.294" fill="#9fc4e4" d="M 518.5,422.5 C 519.87,425.619 520.87,428.952 521.5,432.5C 519.025,429.749 518.025,426.416 518.5,422.5 Z"/></g>
<g><path style="opacity:0.987" fill="#8e8993" d="M 292.5,415.5 C 293.167,415.833 293.833,416.167 294.5,416.5C 294.75,418.674 295.75,420.341 297.5,421.5C 298.499,428.005 298.499,434.671 297.5,441.5C 296.515,437.366 296.182,433.032 296.5,428.5C 296.564,424.301 295.231,420.634 292.5,417.5C 292.5,416.833 292.5,416.167 292.5,415.5 Z"/></g>
<g><path style="opacity:0.686" fill="#8c9fb1" d="M 262.5,417.5 C 263.315,418.429 264.148,419.429 265,420.5C 265.5,430.494 265.666,440.494 265.5,450.5C 265.167,450.5 264.833,450.5 264.5,450.5C 264.666,440.828 264.5,431.161 264,421.5C 263.283,420.956 262.783,420.289 262.5,419.5C 262.5,418.833 262.5,418.167 262.5,417.5 Z"/></g>
<g><path style="opacity:0.502" fill="#a3cef1" d="M 493.5,413.5 C 494.139,414.097 494.472,414.93 494.5,416C 493.833,419 493.167,422 492.5,425C 495.953,433.25 494.953,440.75 489.5,447.5C 489.5,446.5 489.5,445.5 489.5,444.5C 493.226,440.616 494.393,435.949 493,430.5C 492.722,429.584 492.222,428.918 491.5,428.5C 491.5,426.167 491.5,423.833 491.5,421.5C 492.768,419.095 493.435,416.428 493.5,413.5 Z"/></g>
<g><path style="opacity:0.446" fill="#a8d5f9" d="M 25.5,420.5 C 22.6754,424.137 19.8421,427.803 17,431.5C 16.5012,435.486 16.3345,439.486 16.5,443.5C 14.0952,436.002 15.5952,429.335 21,423.5C 22.129,421.859 23.629,420.859 25.5,420.5 Z"/></g>
<g><path style="opacity:1" fill="#ca9591" d="M 542.5,415.5 C 543.167,417.5 543.833,419.5 544.5,421.5C 544.205,423.735 544.539,425.735 545.5,427.5C 545.5,427.833 545.5,428.167 545.5,428.5C 545.833,430.5 546.167,432.5 546.5,434.5C 545.115,433.426 543.949,432.093 543,430.5C 542.501,425.511 542.334,420.511 542.5,415.5 Z"/></g>
<g><path style="opacity:0.827" fill="#9cbcd8" d="M 99.5,431.5 C 101.404,431.738 102.738,432.738 103.5,434.5C 101.596,434.262 100.262,433.262 99.5,431.5 Z"/></g>
<g><path style="opacity:0.984" fill="#93919c" d="M 135.5,422.5 C 136.167,422.833 136.833,423.167 137.5,423.5C 138.845,426.051 139.511,428.884 139.5,432C 138.431,436.208 138.431,440.375 139.5,444.5C 139.5,445.167 139.5,445.833 139.5,446.5C 138.778,446.082 138.278,445.416 138,444.5C 137.501,440.179 137.334,435.846 137.5,431.5C 137.606,428.921 136.939,426.588 135.5,424.5C 135.5,423.833 135.5,423.167 135.5,422.5 Z"/></g>
<g><path style="opacity:0.992" fill="#90797b" d="M 491.5,428.5 C 492.222,428.918 492.722,429.584 493,430.5C 494.393,435.949 493.226,440.616 489.5,444.5C 489.5,443.833 489.5,443.167 489.5,442.5C 492.365,438.846 493.031,434.846 491.5,430.5C 491.5,429.833 491.5,429.167 491.5,428.5 Z"/></g>
<g><path style="opacity:0.827" fill="#9bafc3" d="M 103.5,434.5 C 105.017,434.511 106.184,435.177 107,436.5C 108.341,439.022 109.174,441.689 109.5,444.5C 107.515,441.202 105.515,437.869 103.5,434.5 Z"/></g>
<g><path style="opacity:1" fill="#cd9591" d="M 522.5,429.5 C 524.026,430.492 524.693,431.992 524.5,434C 524.366,437.241 523.366,440.075 521.5,442.5C 522.08,438.19 522.414,433.857 522.5,429.5 Z"/></g>
<g><path style="opacity:0.996" fill="#9794a0" d="M 545.5,428.5 C 547.664,430.822 549.331,433.489 550.5,436.5C 549.167,435.833 547.833,435.167 546.5,434.5C 546.167,432.5 545.833,430.5 545.5,428.5 Z"/></g>
<g><path style="opacity:1" fill="#c39492" d="M 296.5,428.5 C 296.182,433.032 296.515,437.366 297.5,441.5C 297.833,442.167 298.167,442.833 298.5,443.5C 298.5,444.833 298.5,446.167 298.5,447.5C 296.827,446.657 295.66,445.324 295,443.5C 294.192,438.241 294.692,433.241 296.5,428.5 Z"/></g>
<g><path style="opacity:1" fill="#c08d8a" d="M 546.5,434.5 C 547.833,435.167 549.167,435.833 550.5,436.5C 550.733,438.062 551.4,439.395 552.5,440.5C 549.167,439.833 547.167,437.833 546.5,434.5 Z"/></g>
<g><path style="opacity:1" fill="#c58e8a" d="M 137.5,431.5 C 137.334,435.846 137.501,440.179 138,444.5C 138.278,445.416 138.778,446.082 139.5,446.5C 139.5,446.833 139.5,447.167 139.5,447.5C 139.5,448.167 139.5,448.833 139.5,449.5C 134.987,443.91 134.32,437.91 137.5,431.5 Z"/></g>
<g><path style="opacity:0.404" fill="#9ec6e6" d="M 553.5,438.5 C 557.151,439.659 560.485,441.326 563.5,443.5C 559.58,442.873 556.247,441.207 553.5,438.5 Z"/></g>
<g><path style="opacity:0.359" fill="#a7d1f5" d="M 45.5,435.5 C 44.2213,442.224 41.2213,448.058 36.5,453C 35.2068,453.49 33.8734,453.657 32.5,453.5C 34.3545,452.31 36.1879,450.977 38,449.5C 40.7969,444.899 43.2969,440.232 45.5,435.5 Z"/></g>
<g><path style="opacity:0.976" fill="#99b6d0" d="M 520.5,439.5 C 520.5,441.167 520.5,442.833 520.5,444.5C 518.361,450.251 516.028,455.918 513.5,461.5C 511.777,463.78 511.111,466.447 511.5,469.5C 510.371,467.372 510.204,465.039 511,462.5C 515.057,455.153 518.224,447.486 520.5,439.5 Z"/></g>
<g><path style="opacity:1" fill="#d09b98" d="M 560.5,444.5 C 564.122,444.322 567.456,444.989 570.5,446.5C 567.482,446.665 564.482,446.498 561.5,446C 560.944,445.617 560.611,445.117 560.5,444.5 Z"/></g>
<g><path style="opacity:0.945" fill="#998d97" d="M 550.5,436.5 C 551.71,436.932 552.71,437.599 553.5,438.5C 556.247,441.207 559.58,442.873 563.5,443.5C 566.85,443.335 570.183,443.502 573.5,444C 575.66,444.996 577.327,446.496 578.5,448.5C 578.5,449.167 578.5,449.833 578.5,450.5C 576.074,448.62 573.408,447.287 570.5,446.5C 567.456,444.989 564.122,444.322 560.5,444.5C 557.515,443.674 554.849,442.341 552.5,440.5C 551.4,439.395 550.733,438.062 550.5,436.5 Z"/></g>
<g><path style="opacity:0.247" fill="#a8d6fb" d="M 299.5,445.5 C 301.104,446.287 301.771,447.62 301.5,449.5C 300.326,448.486 299.66,447.153 299.5,445.5 Z"/></g>
<g><path style="opacity:0.229" fill="#a5cef1" d="M 109.5,444.5 C 111.065,446.509 112.065,448.843 112.5,451.5C 110.552,449.68 109.552,447.346 109.5,444.5 Z"/></g>
<g><path style="opacity:0.145" fill="#a4cdf0" d="M 139.5,444.5 C 141.585,446.684 142.585,449.351 142.5,452.5C 141.313,450.928 140.313,449.261 139.5,447.5C 139.5,447.167 139.5,446.833 139.5,446.5C 139.5,445.833 139.5,445.167 139.5,444.5 Z"/></g>
<g><path style="opacity:0.973" fill="#958086" d="M 25.5,420.5 C 29.5138,420.334 33.5138,420.501 37.5,421C 40.3038,424.145 42.9704,427.312 45.5,430.5C 45.5,432.167 45.5,433.833 45.5,435.5C 43.2969,440.232 40.7969,444.899 38,449.5C 36.1879,450.977 34.3545,452.31 32.5,453.5C 31.8333,453.5 31.1667,453.5 30.5,453.5C 26.342,450.586 22.0086,447.919 17.5,445.5C 16.6618,445.158 16.3284,444.492 16.5,443.5C 16.3345,439.486 16.5012,435.486 17,431.5C 19.8421,427.803 22.6754,424.137 25.5,420.5 Z"/></g>
<g><path style="opacity:1" fill="#eac2bf" d="M 27.5,421.5 C 38.7054,420.877 43.5387,426.21 42,437.5C 40.4861,442.029 38.3194,446.195 35.5,450C 33.1667,450.667 30.8333,450.667 28.5,450C 16.018,444.374 14.1847,436.208 23,425.5C 24.3968,423.93 25.8968,422.596 27.5,421.5 Z"/></g>
<g><path style="opacity:0.584" fill="#9a99a2" d="M 489.5,447.5 C 488.89,449.434 487.89,451.101 486.5,452.5C 486.259,449.966 487.259,448.3 489.5,447.5 Z"/></g>
<g><path style="opacity:0.312" fill="#a8d4f8" d="M 17.5,445.5 C 22.0086,447.919 26.342,450.586 30.5,453.5C 25.3664,452.101 21.033,449.435 17.5,445.5 Z"/></g>
<g><path style="opacity:0.294" fill="#a7d1f4" d="M 112.5,451.5 C 115.207,453.843 117.874,456.177 120.5,458.5C 116.571,457.569 113.905,455.236 112.5,451.5 Z"/></g>
<g><path style="opacity:0.976" fill="#9c94a1" d="M 362.5,442.5 C 362.5,442.833 362.5,443.167 362.5,443.5C 360.655,448.945 359.988,454.612 360.5,460.5C 359.596,461.209 359.263,462.209 359.5,463.5C 358.778,463.082 358.278,462.416 358,461.5C 356.979,455.29 357.479,449.29 359.5,443.5C 360.609,443.443 361.609,443.11 362.5,442.5 Z"/></g>
<g><path style="opacity:0.282" fill="#a3c8e9" d="M 578.5,448.5 C 581.647,450.313 583.647,452.98 584.5,456.5C 582.861,454.194 580.861,452.194 578.5,450.5C 578.5,449.833 578.5,449.167 578.5,448.5 Z"/></g>
<g><path style="opacity:0.723" fill="#cbafaf" d="M 264.5,450.5 C 264.833,450.5 265.167,450.5 265.5,450.5C 266.863,456.084 264.863,459.751 259.5,461.5C 259.5,461.167 259.5,460.833 259.5,460.5C 260.793,458.704 262.293,457.037 264,455.5C 264.494,453.866 264.66,452.199 264.5,450.5 Z"/></g>
<g><path style="opacity:1" fill="#b58684" d="M 520.5,444.5 C 520.833,444.5 521.167,444.5 521.5,444.5C 520.658,451.178 517.991,456.845 513.5,461.5C 516.028,455.918 518.361,450.251 520.5,444.5 Z"/></g>
<g><path style="opacity:1" fill="#c5908d" d="M 489.5,442.5 C 489.5,443.167 489.5,443.833 489.5,444.5C 489.5,445.5 489.5,446.5 489.5,447.5C 487.259,448.3 486.259,449.966 486.5,452.5C 486.557,453.609 486.89,454.609 487.5,455.5C 487.5,457.167 487.5,458.833 487.5,460.5C 485.42,458.682 484.086,456.349 483.5,453.5C 484.75,449.327 486.75,445.661 489.5,442.5 Z"/></g>
<g><path style="opacity:0.282" fill="#a4cef1" d="M 301.5,451.5 C 301.645,455.547 299.978,458.547 296.5,460.5C 297.917,457.331 299.583,454.331 301.5,451.5 Z"/></g>
<g><path style="opacity:0.135" fill="#a5cff2" d="M 140.5,456.5 C 138.22,458.223 135.553,458.889 132.5,458.5C 134.961,457.469 137.627,456.802 140.5,456.5 Z"/></g>
<g><path style="opacity:1" fill="#978286" d="M 298.5,443.5 C 299.338,443.842 299.672,444.508 299.5,445.5C 299.66,447.153 300.326,448.486 301.5,449.5C 301.5,450.167 301.5,450.833 301.5,451.5C 299.583,454.331 297.917,457.331 296.5,460.5C 296.167,461.5 295.5,462.167 294.5,462.5C 295.038,460.883 295.371,459.216 295.5,457.5C 298.832,454.843 299.832,451.51 298.5,447.5C 298.5,446.167 298.5,444.833 298.5,443.5 Z"/></g>
<g><path style="opacity:1" fill="#c6918d" d="M 262.5,415.5 C 264.129,416.625 265.629,417.959 267,419.5C 267.667,432.167 267.667,444.833 267,457.5C 264.63,460.039 262.13,462.372 259.5,464.5C 259.5,463.833 259.5,463.167 259.5,462.5C 259.5,462.167 259.5,461.833 259.5,461.5C 264.863,459.751 266.863,456.084 265.5,450.5C 265.666,440.494 265.5,430.494 265,420.5C 264.148,419.429 263.315,418.429 262.5,417.5C 262.5,416.833 262.5,416.167 262.5,415.5 Z"/></g>
<g><path style="opacity:1" fill="#cb9491" d="M 295.5,457.5 C 295.371,459.216 295.038,460.883 294.5,462.5C 294.5,463.5 294.5,464.5 294.5,465.5C 294.5,467.833 294.5,470.167 294.5,472.5C 292.822,469.675 291.822,466.509 291.5,463C 291.868,460.465 293.201,458.632 295.5,457.5 Z"/></g>
<g><path style="opacity:0.953" fill="#9ca3b7" d="M 487.5,455.5 C 490.229,458.878 490.895,462.545 489.5,466.5C 489.598,464.447 488.931,462.78 487.5,461.5C 487.5,461.167 487.5,460.833 487.5,460.5C 487.5,458.833 487.5,457.167 487.5,455.5 Z"/></g>
<g><path style="opacity:0.202" fill="#a9d4f9" d="M 72.5,463.5 C 69.1401,463.616 65.8067,463.949 62.5,464.5C 65.7076,462.469 69.041,462.135 72.5,463.5 Z"/></g>
<g><path style="opacity:0.604" fill="#a3caeb" d="M 259.5,460.5 C 259.5,460.833 259.5,461.167 259.5,461.5C 259.5,461.833 259.5,462.167 259.5,462.5C 257.861,464.806 255.861,466.806 253.5,468.5C 254.529,465.109 256.529,462.443 259.5,460.5 Z"/></g>
<g><path style="opacity:0.563" fill="#9fa2b4" d="M 360.5,460.5 C 361.737,461.965 362.737,463.632 363.5,465.5C 363.733,467.062 364.4,468.395 365.5,469.5C 365.167,469.5 364.833,469.5 364.5,469.5C 362.086,468.089 360.419,466.089 359.5,463.5C 359.263,462.209 359.596,461.209 360.5,460.5 Z"/></g>
<g><path style="opacity:0.949" fill="#978d98" d="M 487.5,461.5 C 488.931,462.78 489.598,464.447 489.5,466.5C 487.796,469.256 486.463,472.256 485.5,475.5C 485.047,476.458 484.381,477.292 483.5,478C 479.642,478.81 475.976,478.643 472.5,477.5C 471.5,476.167 470.5,474.833 469.5,473.5C 470.167,473.5 470.833,473.5 471.5,473.5C 474.665,476.803 478.332,477.303 482.5,475C 485.98,471.201 487.646,466.701 487.5,461.5 Z"/></g>
<g><path style="opacity:1" fill="#c4928f" d="M 446.5,467.5 C 445.833,467.5 445.167,467.5 444.5,467.5C 443.395,466.4 442.062,465.733 440.5,465.5C 439.5,464.167 438.5,464.167 437.5,465.5C 432.358,466.638 428.691,469.638 426.5,474.5C 426.167,474.5 425.833,474.5 425.5,474.5C 427.927,468.905 431.927,464.738 437.5,462C 441.554,461.85 444.554,463.683 446.5,467.5 Z"/></g>
<g><path style="opacity:1" fill="#c48d8a" d="M 582.5,461.5 C 582.649,462.552 582.483,463.552 582,464.5C 578.323,466.857 576.489,470.19 576.5,474.5C 575.833,475.167 575.167,475.833 574.5,476.5C 574.998,473.513 575.498,470.513 576,467.5C 578.037,465.294 580.203,463.294 582.5,461.5 Z"/></g>
<g><path style="opacity:0.953" fill="#94848b" d="M 72.5,463.5 C 74.9328,463.273 76.5994,464.273 77.5,466.5C 79.1801,471.257 80.8468,475.923 82.5,480.5C 81.8333,484.833 81.1667,489.167 80.5,493.5C 79.5,495.167 78.1667,496.5 76.5,497.5C 70.4561,500.508 64.4561,503.508 58.5,506.5C 56.8333,506.5 55.1667,506.5 53.5,506.5C 51.4922,504.732 49.3256,503.066 47,501.5C 45.7874,499.075 44.6207,496.741 43.5,494.5C 43.2155,492.585 43.5489,490.919 44.5,489.5C 48.4159,483.338 52.0825,477.005 55.5,470.5C 57.2393,467.757 59.5726,465.757 62.5,464.5C 65.8067,463.949 69.1401,463.616 72.5,463.5 Z"/></g>
<g><path style="opacity:1" fill="#eac3c0" d="M 66.5,465.5 C 70.1916,464.971 73.3583,465.971 76,468.5C 84.6977,484.57 80.531,495.736 63.5,502C 51.0492,506.55 45.5492,502.384 47,489.5C 50.472,478.808 56.972,470.808 66.5,465.5 Z"/></g>
<g><path style="opacity:0.38" fill="#93a8bc" d="M 437.5,465.5 C 433.209,468.123 429.543,471.456 426.5,475.5C 426.5,475.167 426.5,474.833 426.5,474.5C 428.691,469.638 432.358,466.638 437.5,465.5 Z"/></g>
<g><path style="opacity:0.391" fill="#a9d4f8" d="M 77.5,466.5 C 80.6786,470.502 82.3453,475.169 82.5,480.5C 80.8468,475.923 79.1801,471.257 77.5,466.5 Z"/></g>
<g><path style="opacity:0.332" fill="#a1c3e1" d="M 440.5,465.5 C 442.062,465.733 443.395,466.4 444.5,467.5C 446.36,468.939 448.027,470.605 449.5,472.5C 445.637,471.306 442.637,468.973 440.5,465.5 Z"/></g>
<g><path style="opacity:1" fill="#c78d89" d="M 471.5,473.5 C 470.833,473.5 470.167,473.5 469.5,473.5C 468.836,471.513 467.669,469.846 466,468.5C 463.699,469.867 461.199,470.534 458.5,470.5C 464.192,465.673 468.525,466.673 471.5,473.5 Z"/></g>
<g><path style="opacity:0.355" fill="#a7d2f6" d="M 364.5,469.5 C 364.833,469.5 365.167,469.5 365.5,469.5C 367.389,470.604 369.055,471.937 370.5,473.5C 367.802,473.155 365.802,471.822 364.5,469.5 Z"/></g>
<g><path style="opacity:0.961" fill="#a28f94" d="M 444.5,467.5 C 445.167,467.5 445.833,467.5 446.5,467.5C 449.886,470.232 453.886,471.232 458.5,470.5C 461.199,470.534 463.699,469.867 466,468.5C 467.669,469.846 468.836,471.513 469.5,473.5C 469.167,473.5 468.833,473.5 468.5,473.5C 467.288,472.77 466.288,471.77 465.5,470.5C 464.264,471.246 462.93,471.579 461.5,471.5C 459.102,471.259 457.102,471.926 455.5,473.5C 453.265,473.795 451.265,473.461 449.5,472.5C 448.027,470.605 446.36,468.939 444.5,467.5 Z"/></g>
<g><path style="opacity:0.433" fill="#a4cbed" d="M 489.5,466.5 C 489.498,470.165 488.165,473.165 485.5,475.5C 486.463,472.256 487.796,469.256 489.5,466.5 Z"/></g>
<g><path style="opacity:0.404" fill="#a2ccef" d="M 295.5,469.5 C 297.04,471.838 297.706,474.505 297.5,477.5C 296.232,475.095 295.565,472.428 295.5,469.5 Z"/></g>
<g><path style="opacity:0.348" fill="#a3cbed" d="M 461.5,471.5 C 459.898,473.074 457.898,473.741 455.5,473.5C 457.102,471.926 459.102,471.259 461.5,471.5 Z"/></g>
<g><path style="opacity:0.878" fill="#a4c9ea" d="M 511.5,469.5 C 512.931,470.78 513.598,472.447 513.5,474.5C 512.069,473.22 511.402,471.553 511.5,469.5 Z"/></g>
<g><path style="opacity:0.706" fill="#9799a6" d="M 578.5,450.5 C 580.861,452.194 582.861,454.194 584.5,456.5C 585.414,462.005 583.58,466.338 579,469.5C 578.648,471.247 578.148,472.914 577.5,474.5C 577.167,474.5 576.833,474.5 576.5,474.5C 576.489,470.19 578.323,466.857 582,464.5C 582.483,463.552 582.649,462.552 582.5,461.5C 582.66,459.801 582.494,458.134 582,456.5C 580.579,454.595 579.412,452.595 578.5,450.5 Z"/></g>
<g><path style="opacity:0.345" fill="#a3cef1" d="M 370.5,473.5 C 372.674,473.75 374.341,474.75 375.5,476.5C 373.326,476.25 371.659,475.25 370.5,473.5 Z"/></g>
<g><path style="opacity:0.102" fill="#a7d2f6" d="M 468.5,473.5 C 468.833,473.5 469.167,473.5 469.5,473.5C 470.5,474.833 471.5,476.167 472.5,477.5C 470.167,477.167 468.833,475.833 468.5,473.5 Z"/></g>
<g><path style="opacity:0.574" fill="#98868e" d="M 513.5,461.5 C 512.993,466.121 513.826,470.454 516,474.5C 520.064,477.475 524.564,479.475 529.5,480.5C 530.5,481.167 531.5,481.833 532.5,482.5C 531.167,482.5 529.833,482.5 528.5,482.5C 525.785,480.928 522.785,479.928 519.5,479.5C 516.268,479.228 514.268,477.562 513.5,474.5C 513.598,472.447 512.931,470.78 511.5,469.5C 511.111,466.447 511.777,463.78 513.5,461.5 Z"/></g>
<g><path style="opacity:0.325" fill="#a5cef0" d="M 379.5,480.5 C 382.689,480.858 385.689,481.525 388.5,482.5C 385.123,482.932 382.123,482.265 379.5,480.5 Z"/></g>
<g><path style="opacity:1" fill="#a18689" d="M 363.5,465.5 C 370,469.38 376,473.88 381.5,479C 396.903,483.586 411.57,482.086 425.5,474.5C 425.833,474.5 426.167,474.5 426.5,474.5C 426.5,474.833 426.5,475.167 426.5,475.5C 426.167,476.5 425.5,477.167 424.5,477.5C 415.503,481.083 406.17,483.083 396.5,483.5C 393.615,483.806 390.948,483.473 388.5,482.5C 385.689,481.525 382.689,480.858 379.5,480.5C 378.5,478.833 377.167,477.5 375.5,476.5C 374.341,474.75 372.674,473.75 370.5,473.5C 369.055,471.937 367.389,470.604 365.5,469.5C 364.4,468.395 363.733,467.062 363.5,465.5 Z"/></g>
<g><path style="opacity:0.237" fill="#a4d0f3" d="M 519.5,479.5 C 522.785,479.928 525.785,480.928 528.5,482.5C 525.084,482.472 522.084,481.472 519.5,479.5 Z"/></g>
<g><path style="opacity:0.401" fill="#a7cef1" d="M 55.5,470.5 C 52.0825,477.005 48.4159,483.338 44.5,489.5C 46.6888,484.107 49.1888,478.774 52,473.5C 53.0391,472.29 54.2058,471.29 55.5,470.5 Z"/></g>
<g><path style="opacity:0.957" fill="#96929f" d="M 259.5,462.5 C 259.5,463.167 259.5,463.833 259.5,464.5C 257.526,466.428 256.026,468.761 255,471.5C 253.37,477.234 255.204,481.234 260.5,483.5C 261.5,484.167 262.5,484.833 263.5,485.5C 261.139,485.326 258.806,484.993 256.5,484.5C 255.206,483.71 254.039,482.71 253,481.5C 252.232,477.08 252.398,472.747 253.5,468.5C 255.861,466.806 257.861,464.806 259.5,462.5 Z"/></g>
<g><path style="opacity:0.333" fill="#a1c9eb" d="M 424.5,477.5 C 415.734,482.695 406.4,484.695 396.5,483.5C 406.17,483.083 415.503,481.083 424.5,477.5 Z"/></g>
<g><path style="opacity:0.976" fill="#96b1c9" d="M 528.5,482.5 C 529.833,482.5 531.167,482.5 532.5,482.5C 535.48,483.323 538.147,484.657 540.5,486.5C 536.315,485.46 532.315,484.127 528.5,482.5 Z"/></g>
<g><path style="opacity:0.486" fill="#a4cdf0" d="M 576.5,474.5 C 576.833,474.5 577.167,474.5 577.5,474.5C 577.554,477.992 576.554,480.992 574.5,483.5C 575.323,480.539 575.99,477.539 576.5,474.5 Z"/></g>
<g><path style="opacity:1" fill="#b58885" d="M 529.5,480.5 C 536.412,482.225 543.078,484.558 549.5,487.5C 548.5,487.5 547.5,487.5 546.5,487.5C 544.621,486.659 542.621,486.325 540.5,486.5C 538.147,484.657 535.48,483.323 532.5,482.5C 531.5,481.833 530.5,481.167 529.5,480.5 Z"/></g>
<g><path style="opacity:0.259" fill="#a2ccee" d="M 256.5,484.5 C 258.806,484.993 261.139,485.326 263.5,485.5C 265.306,486.024 266.972,486.691 268.5,487.5C 264.126,487.498 260.126,486.498 256.5,484.5 Z"/></g>
<g><path style="opacity:1" fill="#b48b8a" d="M 260.5,483.5 C 268.555,484.429 276.222,486.429 283.5,489.5C 282.5,489.5 281.5,489.5 280.5,489.5C 276.5,488.833 272.5,488.167 268.5,487.5C 266.972,486.691 265.306,486.024 263.5,485.5C 262.5,484.833 261.5,484.167 260.5,483.5 Z"/></g>
<g><path style="opacity:0.996" fill="#967b7c" d="M 576.5,474.5 C 575.99,477.539 575.323,480.539 574.5,483.5C 573.325,483.281 572.325,483.614 571.5,484.5C 570.699,487.133 569.033,488.967 566.5,490C 562.94,491.237 559.273,491.737 555.5,491.5C 552.5,490.167 549.5,488.833 546.5,487.5C 547.5,487.5 548.5,487.5 549.5,487.5C 552.712,488.804 556.045,489.804 559.5,490.5C 564.937,490.458 568.603,487.958 570.5,483C 571.448,482.517 572.448,482.351 573.5,482.5C 573.833,480.5 574.167,478.5 574.5,476.5C 575.167,475.833 575.833,475.167 576.5,474.5 Z"/></g>
<g><path style="opacity:0.22" fill="#a4c7e7" d="M 574.5,483.5 C 570.321,491.426 563.987,494.093 555.5,491.5C 559.273,491.737 562.94,491.237 566.5,490C 569.033,488.967 570.699,487.133 571.5,484.5C 572.325,483.614 573.325,483.281 574.5,483.5 Z"/></g>
<g><path style="opacity:0.389" fill="#a8d1f4" d="M 82.5,480.5 C 83.8919,485.086 83.2252,489.42 80.5,493.5C 81.1667,489.167 81.8333,484.833 82.5,480.5 Z"/></g>
<g><path style="opacity:0.804" fill="#9fc5e5" d="M 268.5,487.5 C 272.5,488.167 276.5,488.833 280.5,489.5C 281.5,490.167 282.5,490.833 283.5,491.5C 278.194,490.947 273.194,489.614 268.5,487.5 Z"/></g>
<g><path style="opacity:0.969" fill="#99929f" d="M 294.5,465.5 C 295.434,466.568 295.768,467.901 295.5,469.5C 295.565,472.428 296.232,475.095 297.5,477.5C 299.019,485.839 295.519,490.839 287,492.5C 285.744,492.352 284.577,492.018 283.5,491.5C 282.5,490.833 281.5,490.167 280.5,489.5C 281.5,489.5 282.5,489.5 283.5,489.5C 286.271,489.579 288.937,489.079 291.5,488C 295.63,483.515 296.63,478.349 294.5,472.5C 294.5,470.167 294.5,467.833 294.5,465.5 Z"/></g>
<g><path style="opacity:0.431" fill="#a4caeb" d="M 540.5,486.5 C 542.621,486.325 544.621,486.659 546.5,487.5C 549.5,488.833 552.5,490.167 555.5,491.5C 550.085,490.806 545.085,489.14 540.5,486.5 Z"/></g>
<g><path style="opacity:0.366" fill="#a6d0f4" d="M 76.5,497.5 C 71.3654,502.067 65.3654,505.067 58.5,506.5C 64.4561,503.508 70.4561,500.508 76.5,497.5 Z"/></g>
<g><path style="opacity:0.42" fill="#a7cff2" d="M 43.5,494.5 C 44.6207,496.741 45.7874,499.075 47,501.5C 49.3256,503.066 51.4922,504.732 53.5,506.5C 46.9188,505.249 43.5855,501.249 43.5,494.5 Z"/></g>
</svg>
