<?xml version="1.0" encoding="UTF-8"?>
<!DOCTYPE svg PUBLIC "-//W3C//DTD SVG 1.1//EN" "http://www.w3.org/Graphics/SVG/1.1/DTD/svg11.dtd">
<svg xmlns="http://www.w3.org/2000/svg" version="1.1" width="305px" height="360px" style="shape-rendering:geometricPrecision; text-rendering:geometricPrecision; image-rendering:optimizeQuality; fill-rule:evenodd; clip-rule:evenodd" xmlns:xlink="http://www.w3.org/1999/xlink">
<g><path style="opacity:1" fill="#eebad0" d="M 297.5,32.5 C 298.674,33.5137 299.34,34.847 299.5,36.5C 298.637,35.537 297.97,35.537 297.5,36.5C 299.857,41.9345 302.191,47.2678 304.5,52.5C 304.5,53.1667 304.5,53.8333 304.5,54.5C 303.833,54.8333 303.167,55.1667 302.5,55.5C 302.631,54.7611 302.464,54.0944 302,53.5C 299.387,55.4015 297.72,57.7348 297,60.5C 297.383,59.944 297.883,59.6107 298.5,59.5C 298.262,61.4044 297.262,62.7377 295.5,63.5C 295.631,62.7611 295.464,62.0944 295,61.5C 290.916,66.0247 287.083,70.6914 283.5,75.5C 286.768,82.5351 290.435,89.3685 294.5,96C 291.167,99 287.833,102 284.5,105C 285.094,105.464 285.761,105.631 286.5,105.5C 286.167,106.5 285.5,107.167 284.5,107.5C 284.167,107.5 283.833,107.5 283.5,107.5C 283.103,106.475 282.437,106.308 281.5,107C 279.571,109.438 277.238,111.272 274.5,112.5C 268.688,110.896 263.021,108.896 257.5,106.5C 249.31,111.183 242.143,117.183 236,124.5C 236.025,133.941 238.525,142.608 243.5,150.5C 241.071,162.069 239.405,173.736 238.5,185.5C 240.937,185.756 243.271,186.423 245.5,187.5C 246.331,194.476 246.831,201.476 247,208.5C 253.064,214.395 258.897,220.395 264.5,226.5C 264.773,228.451 264.107,229.951 262.5,231C 251.387,234.537 240.387,238.371 229.5,242.5C 226.855,250.36 226.188,258.36 227.5,266.5C 227.248,268.073 226.582,269.406 225.5,270.5C 210.725,278.724 196.058,287.224 181.5,296C 180.773,297.399 180.273,298.899 180,300.5C 177.23,302.601 175.23,305.268 174,308.5C 171.935,317.219 168.435,325.219 163.5,332.5C 157.476,332.884 151.476,333.551 145.5,334.5C 142.165,333.647 138.832,333.147 135.5,333C 130.167,335.667 124.833,338.333 119.5,341C 116.911,345.512 114.577,350.178 112.5,355C 101.792,355.263 91.1254,354.597 80.5,353C 78.9336,352.392 77.6002,351.558 76.5,350.5C 78.8802,340.69 81.8802,331.023 85.5,321.5C 82.6828,318.182 79.6828,315.015 76.5,312C 69.5,308.833 62.5,305.667 55.5,302.5C 54.171,294.211 53.171,285.878 52.5,277.5C 52.4439,275.36 51.7773,273.694 50.5,272.5C 49.1516,271.399 47.6516,270.399 46,269.5C 42.7977,259.56 39.7977,249.56 37,239.5C 28.9901,237.123 20.8235,235.29 12.5,234C 11.4844,233.481 10.8178,232.647 10.5,231.5C 11.1224,227.717 12.1224,224.05 13.5,220.5C 23.0577,216.593 32.5577,212.593 42,208.5C 42.5835,201.665 41.7502,194.999 39.5,188.5C 34.5837,187.016 29.5837,185.85 24.5,185C 18.39,180.623 12.7233,175.789 7.5,170.5C 13.9702,161.848 20.3035,153.014 26.5,144C 27.8333,143.333 29.1667,143.333 30.5,144C 34.92,148.779 40.0867,152.279 46,154.5C 54.8221,152.613 63.6554,150.78 72.5,149C 75.1667,146.333 77.8333,143.667 80.5,141C 87.8258,140.5 95.1591,140.334 102.5,140.5C 101.704,128.391 100.038,116.391 97.5,104.5C 102.75,99.0825 108.917,95.0825 116,92.5C 121.833,93.3333 127.667,94.1667 133.5,95C 135.167,99.3333 138.167,102.333 142.5,104C 149.276,106.932 156.276,108.599 163.5,109C 165.167,108.167 166.833,107.333 168.5,106.5C 174.624,97.7532 180.624,88.9199 186.5,80C 194.217,79.0468 201.884,77.8802 209.5,76.5C 209.833,74.5 210.167,72.5 210.5,70.5C 209.7,62.5054 209.034,54.5054 208.5,46.5C 216.985,42.6766 225.485,38.6766 234,34.5C 234.33,27.1292 233.83,19.7959 232.5,12.5C 233.155,8.8513 234.655,5.51797 237,2.5C 244.465,7.80102 252.298,12.4677 260.5,16.5C 267.833,12.8333 275.167,9.16667 282.5,5.5C 288.094,6.91864 293.427,8.91864 298.5,11.5C 299.469,13.5728 300.135,15.7395 300.5,18C 299.42,21.6618 297.92,25.1618 296,28.5C 295.18,30.728 295.513,32.728 297,34.5C 297.464,33.9056 297.631,33.2389 297.5,32.5 Z"/></g>
<g><path style="opacity:1" fill="#c38ca9" d="M 275.5,6.5 C 277.027,6.57298 278.027,5.90632 278.5,4.5C 280.288,3.37753 282.288,3.21086 284.5,4C 289.759,5.64143 294.926,7.47476 300,9.5C 301.336,12.0094 302.17,14.676 302.5,17.5C 300.536,22.4223 298.869,27.4223 297.5,32.5C 297.631,33.2389 297.464,33.9056 297,34.5C 295.513,32.728 295.18,30.728 296,28.5C 297.92,25.1618 299.42,21.6618 300.5,18C 300.135,15.7395 299.469,13.5728 298.5,11.5C 293.427,8.91864 288.094,6.91864 282.5,5.5C 275.167,9.16667 267.833,12.8333 260.5,16.5C 252.298,12.4677 244.465,7.80102 237,2.5C 234.655,5.51797 233.155,8.8513 232.5,12.5C 233.83,19.7959 234.33,27.1292 234,34.5C 225.485,38.6766 216.985,42.6766 208.5,46.5C 207.833,46.5 207.167,46.5 206.5,46.5C 206.369,45.6236 206.702,44.9569 207.5,44.5C 215.5,40.8333 223.5,37.1667 231.5,33.5C 231.833,32.1667 232.167,30.8333 232.5,29.5C 231.17,22.2041 230.67,14.8708 231,7.5C 232.5,5.33333 234,3.16667 235.5,1C 237.289,0.479542 238.956,0.812876 240.5,2C 246.998,6.41697 253.665,10.5836 260.5,14.5C 265.395,11.5536 270.395,8.88691 275.5,6.5 Z"/></g>
<g><path style="opacity:0.863" fill="#8ca8ba" d="M 278.5,4.5 C 278.027,5.90632 277.027,6.57298 275.5,6.5C 275.973,5.09368 276.973,4.42702 278.5,4.5 Z"/></g>
<g><path style="opacity:0.902" fill="#cc93a5" d="M 299.5,36.5 C 301.181,39.9072 302.847,43.2406 304.5,46.5C 304.5,48.5 304.5,50.5 304.5,52.5C 302.191,47.2678 299.857,41.9345 297.5,36.5C 297.97,35.537 298.637,35.537 299.5,36.5 Z"/></g>
<g><path style="opacity:0.918" fill="#cc8ea4" d="M 302.5,55.5 C 301.5,57.1667 300.167,58.5 298.5,59.5C 297.883,59.6107 297.383,59.944 297,60.5C 297.72,57.7348 299.387,55.4015 302,53.5C 302.464,54.0944 302.631,54.7611 302.5,55.5 Z"/></g>
<g><path style="opacity:0.847" fill="#78abbc" d="M 188.5,77.5 C 186.909,78.2189 185.409,79.2189 184,80.5C 182.301,83.921 180.135,86.921 177.5,89.5C 179.055,86.0604 180.888,82.7271 183,79.5C 184.444,77.8446 186.278,77.178 188.5,77.5 Z"/></g>
<g><path style="opacity:1" fill="#cb97a6" d="M 295.5,63.5 C 292.566,67.7728 289.233,71.7728 285.5,75.5C 289.301,82.2696 292.968,89.1029 296.5,96C 295.35,98.3164 293.683,100.15 291.5,101.5C 289.251,102.08 287.585,103.413 286.5,105.5C 285.761,105.631 285.094,105.464 284.5,105C 287.833,102 291.167,99 294.5,96C 290.435,89.3685 286.768,82.5351 283.5,75.5C 287.083,70.6914 290.916,66.0247 295,61.5C 295.464,62.0944 295.631,62.7611 295.5,63.5 Z"/></g>
<g><path style="opacity:0.635" fill="#79aabc" d="M 177.5,89.5 C 177.573,91.0269 176.906,92.0269 175.5,92.5C 175.427,90.9731 176.094,89.9731 177.5,89.5 Z"/></g>
<g><path style="opacity:1" fill="#c889a9" d="M 206.5,46.5 C 207.167,46.5 207.833,46.5 208.5,46.5C 209.034,54.5054 209.7,62.5054 210.5,70.5C 210.167,72.5 209.833,74.5 209.5,76.5C 201.884,77.8802 194.217,79.0468 186.5,80C 180.624,88.9199 174.624,97.7532 168.5,106.5C 166.833,107.333 165.167,108.167 163.5,109C 156.276,108.599 149.276,106.932 142.5,104C 138.167,102.333 135.167,99.3333 133.5,95C 127.667,94.1667 121.833,93.3333 116,92.5C 108.917,95.0825 102.75,99.0825 97.5,104.5C 100.038,116.391 101.704,128.391 102.5,140.5C 95.1591,140.334 87.8258,140.5 80.5,141C 77.8333,143.667 75.1667,146.333 72.5,149C 63.6554,150.78 54.8221,152.613 46,154.5C 40.0867,152.279 34.92,148.779 30.5,144C 29.1667,143.333 27.8333,143.333 26.5,144C 20.3035,153.014 13.9702,161.848 7.5,170.5C 7.5,169.833 7.5,169.167 7.5,168.5C 13.4465,159.461 19.7798,150.627 26.5,142C 28.1667,141.333 29.8333,141.333 31.5,142C 35.3442,145.743 39.3442,149.243 43.5,152.5C 46.5911,153.621 49.5911,153.287 52.5,151.5C 58.2486,149.548 64.2486,148.214 70.5,147.5C 74.4356,145.234 77.7689,142.234 80.5,138.5C 87.5316,138.83 94.5316,138.497 101.5,137.5C 101.376,136.893 101.043,136.56 100.5,136.5C 98.8333,125.167 97.1667,113.833 95.5,102.5C 98.4735,100.853 101.14,98.8532 103.5,96.5C 105.027,96.573 106.027,95.9063 106.5,94.5C 109.092,91.5441 112.426,90.2108 116.5,90.5C 121.538,90.9817 126.538,91.6484 131.5,92.5C 133.707,93.1303 135.374,94.4637 136.5,96.5C 137.404,97.209 137.737,98.209 137.5,99.5C 138.791,99.2627 139.791,99.596 140.5,100.5C 141.78,101.931 143.447,102.598 145.5,102.5C 151.097,104.365 156.763,106.032 162.5,107.5C 165.198,107.155 167.198,105.822 168.5,103.5C 168.328,102.508 168.662,101.842 169.5,101.5C 170.906,101.027 171.573,100.027 171.5,98.5C 172.906,98.0269 173.573,97.0269 173.5,95.5C 174.906,95.0269 175.573,94.0269 175.5,92.5C 176.906,92.0269 177.573,91.0269 177.5,89.5C 180.135,86.921 182.301,83.921 184,80.5C 185.409,79.2189 186.909,78.2189 188.5,77.5C 195.13,76.5047 201.797,75.838 208.5,75.5C 207.9,65.8285 207.233,56.1618 206.5,46.5 Z"/></g>
<g><path style="opacity:0.067" fill="#7caabc" d="M 131.5,92.5 C 134.95,91.7564 136.616,93.0897 136.5,96.5C 135.374,94.4637 133.707,93.1303 131.5,92.5 Z"/></g>
<g><path style="opacity:0.557" fill="#79aabc" d="M 175.5,92.5 C 175.573,94.0269 174.906,95.0269 173.5,95.5C 173.427,93.9731 174.094,92.9731 175.5,92.5 Z"/></g>
<g><path style="opacity:0.796" fill="#83a9bb" d="M 106.5,94.5 C 106.027,95.9063 105.027,96.573 103.5,96.5C 103.973,95.0937 104.973,94.427 106.5,94.5 Z"/></g>
<g><path style="opacity:0.361" fill="#73acbd" d="M 103.5,96.5 C 101.14,98.8532 98.4735,100.853 95.5,102.5C 97.2431,99.4423 99.9098,97.4423 103.5,96.5 Z"/></g>
<g><path style="opacity:0.478" fill="#79aabc" d="M 173.5,95.5 C 173.573,97.0269 172.906,98.0269 171.5,98.5C 171.427,96.9731 172.094,95.9731 173.5,95.5 Z"/></g>
<g><path style="opacity:0.31" fill="#74acbc" d="M 140.5,100.5 C 142.553,100.402 144.22,101.069 145.5,102.5C 143.447,102.598 141.78,101.931 140.5,100.5 Z"/></g>
<g><path style="opacity:0.396" fill="#79aabc" d="M 171.5,98.5 C 171.573,100.027 170.906,101.027 169.5,101.5C 169.427,99.9731 170.094,98.9731 171.5,98.5 Z"/></g>
<g><path style="opacity:0.871" fill="#74acbd" d="M 168.5,103.5 C 167.198,105.822 165.198,107.155 162.5,107.5C 164.147,105.674 166.147,104.34 168.5,103.5 Z"/></g>
<g><path style="opacity:0.004" fill="#b5c9a7" d="M 291.5,101.5 C 290.415,103.587 288.749,104.92 286.5,105.5C 287.585,103.413 289.251,102.08 291.5,101.5 Z"/></g>
<g><path style="opacity:0.051" fill="#b5cba7" d="M 283.5,107.5 C 283.833,107.5 284.167,107.5 284.5,107.5C 282.431,110.573 279.764,112.906 276.5,114.5C 278.5,111.833 280.833,109.5 283.5,107.5 Z"/></g>
<g><path style="opacity:1" fill="#bbcbad" d="M 259.5,109.5 C 252.557,113.777 245.89,118.444 239.5,123.5C 244.33,116.835 250.497,111.835 258,108.5C 258.765,108.57 259.265,108.903 259.5,109.5 Z"/></g>
<g><path style="opacity:0.474" fill="#66acbc" d="M 100.5,136.5 C 101.043,136.56 101.376,136.893 101.5,137.5C 94.5316,138.497 87.5316,138.83 80.5,138.5C 87.1667,137.833 93.8333,137.167 100.5,136.5 Z"/></g>
<g><path style="opacity:0.937" fill="#abd9fe" d="M 148.5,138.5 C 154.898,137.053 159.731,139.053 163,144.5C 164.456,150.097 164.789,155.763 164,161.5C 163.654,163.848 162.487,165.681 160.5,167C 140.952,171.111 134.452,163.611 141,144.5C 143.114,141.879 145.614,139.879 148.5,138.5 Z"/></g>
<g><path style="opacity:0.796" fill="#9ca4b8" d="M 80.5,138.5 C 77.7689,142.234 74.4356,145.234 70.5,147.5C 73.2311,143.766 76.5644,140.766 80.5,138.5 Z"/></g>
<g><path style="opacity:0.973" fill="#b19ab3" d="M 52.5,151.5 C 49.5911,153.287 46.5911,153.621 43.5,152.5C 46.4824,152.037 49.4824,151.704 52.5,151.5 Z"/></g>
<g><path style="opacity:1" fill="#cf8ca5" d="M 283.5,107.5 C 280.833,109.5 278.5,111.833 276.5,114.5C 270.775,113.036 265.108,111.369 259.5,109.5C 259.265,108.903 258.765,108.57 258,108.5C 250.497,111.835 244.33,116.835 239.5,123.5C 238.524,124.815 237.524,126.148 236.5,127.5C 238.908,133.724 240.908,140.057 242.5,146.5C 243.5,146.5 244.5,146.5 245.5,146.5C 244.269,157.885 242.603,169.219 240.5,180.5C 241.847,183.981 244.514,185.648 248.5,185.5C 248.334,193.174 248.5,200.841 249,208.5C 254.37,213.702 259.536,219.035 264.5,224.5C 264.5,225.167 264.5,225.833 264.5,226.5C 258.897,220.395 253.064,214.395 247,208.5C 246.831,201.476 246.331,194.476 245.5,187.5C 243.271,186.423 240.937,185.756 238.5,185.5C 239.405,173.736 241.071,162.069 243.5,150.5C 238.525,142.608 236.025,133.941 236,124.5C 242.143,117.183 249.31,111.183 257.5,106.5C 263.021,108.896 268.688,110.896 274.5,112.5C 277.238,111.272 279.571,109.438 281.5,107C 282.437,106.308 283.103,106.475 283.5,107.5 Z"/></g>
<g><path style="opacity:0.699" fill="#6cafbe" d="M 12.5,218.5 C 9.81823,223.905 8.81823,229.572 9.5,235.5C 8.30652,235.03 7.63985,234.03 7.5,232.5C 8.26908,228.155 9.10241,223.821 10,219.5C 10.6708,218.748 11.5041,218.414 12.5,218.5 Z"/></g>
<g><path style="opacity:0.247" fill="#bcc2aa" d="M 264.5,224.5 C 265.906,224.973 266.573,225.973 266.5,227.5C 265.833,227.167 265.167,226.833 264.5,226.5C 264.5,225.833 264.5,225.167 264.5,224.5 Z"/></g>
<g><path style="opacity:1" fill="#cd90a4" d="M 264.5,226.5 C 265.167,226.833 265.833,227.167 266.5,227.5C 266.5,229.167 266.5,230.833 266.5,232.5C 254.5,236.167 242.5,239.833 230.5,243.5C 230.802,246.059 230.468,248.393 229.5,250.5C 227.744,254.773 227.41,259.106 228.5,263.5C 229.11,264.391 229.443,265.391 229.5,266.5C 229.433,267.959 229.766,269.292 230.5,270.5C 229.167,270.5 227.833,270.5 226.5,270.5C 226.167,270.5 225.833,270.5 225.5,270.5C 226.582,269.406 227.248,268.073 227.5,266.5C 226.188,258.36 226.855,250.36 229.5,242.5C 240.387,238.371 251.387,234.537 262.5,231C 264.107,229.951 264.773,228.451 264.5,226.5 Z"/></g>
<g><path style="opacity:0.863" fill="#c38dab" d="M 7.5,168.5 C 7.5,169.167 7.5,169.833 7.5,170.5C 12.7233,175.789 18.39,180.623 24.5,185C 29.5837,185.85 34.5837,187.016 39.5,188.5C 41.7502,194.999 42.5835,201.665 42,208.5C 32.5577,212.593 23.0577,216.593 13.5,220.5C 12.1224,224.05 11.1224,227.717 10.5,231.5C 10.8178,232.647 11.4844,233.481 12.5,234C 20.8235,235.29 28.9901,237.123 37,239.5C 39.7977,249.56 42.7977,259.56 46,269.5C 47.6516,270.399 49.1516,271.399 50.5,272.5C 48.2972,272.396 46.2972,271.73 44.5,270.5C 43.871,267.603 42.871,264.936 41.5,262.5C 38.898,255.434 36.898,248.101 35.5,240.5C 26.7685,239.15 18.1018,237.484 9.5,235.5C 8.81823,229.572 9.81823,223.905 12.5,218.5C 21.3197,214.664 30.3197,210.997 39.5,207.5C 39.8333,206.5 40.1667,205.5 40.5,204.5C 39.5056,199.535 38.839,194.535 38.5,189.5C 32.6804,189.036 27.0137,187.869 21.5,186C 16.3333,181.5 11.1667,177 6,172.5C 5.2274,170.648 5.7274,169.314 7.5,168.5 Z"/></g>
<g><path style="opacity:0.424" fill="#bec1ac" d="M 229.5,250.5 C 229.261,254.842 228.927,259.176 228.5,263.5C 227.41,259.106 227.744,254.773 229.5,250.5 Z"/></g>
<g><path style="opacity:0.02" fill="#77aabb" d="M 41.5,262.5 C 42.871,264.936 43.871,267.603 44.5,270.5C 42.3455,268.383 41.3455,265.716 41.5,262.5 Z"/></g>
<g><path style="opacity:0.437" fill="#b3caa5" d="M 229.5,266.5 C 231.138,267.705 231.471,269.038 230.5,270.5C 229.766,269.292 229.433,267.959 229.5,266.5 Z"/></g>
<g><path style="opacity:0.502" fill="#b8c5a7" d="M 182.5,300.5 C 181.243,303.427 179.243,305.761 176.5,307.5C 177.757,304.573 179.757,302.239 182.5,300.5 Z"/></g>
<g><path style="opacity:1" fill="#d48ba2" d="M 50.5,272.5 C 51.7773,273.694 52.4439,275.36 52.5,277.5C 53.171,285.878 54.171,294.211 55.5,302.5C 62.5,305.667 69.5,308.833 76.5,312C 79.6828,315.015 82.6828,318.182 85.5,321.5C 81.8802,331.023 78.8802,340.69 76.5,350.5C 75.8333,349.833 75.1667,349.167 74.5,348.5C 77.0591,339.654 79.7257,330.821 82.5,322C 79.8458,318.012 76.5124,314.679 72.5,312C 65.8007,309.234 59.3007,306.067 53,302.5C 51.8354,292.522 51.0021,282.522 50.5,272.5 Z"/></g>
<g><path style="opacity:1" fill="#ce8fa6" d="M 225.5,270.5 C 225.833,270.5 226.167,270.5 226.5,270.5C 212.473,279.835 198.14,288.835 183.5,297.5C 182.614,298.325 182.281,299.325 182.5,300.5C 179.757,302.239 177.757,304.573 176.5,307.5C 174.577,312.768 172.744,318.101 171,323.5C 169.556,327.411 167.389,330.744 164.5,333.5C 164.5,332.833 164.167,332.5 163.5,332.5C 168.435,325.219 171.935,317.219 174,308.5C 175.23,305.268 177.23,302.601 180,300.5C 180.273,298.899 180.773,297.399 181.5,296C 196.058,287.224 210.725,278.724 225.5,270.5 Z"/></g>
<g><path style="opacity:0.241" fill="#b7c9a9" d="M 120.5,342.5 C 119.624,346.582 117.957,350.249 115.5,353.5C 116.221,349.311 117.887,345.645 120.5,342.5 Z"/></g>
<g><path style="opacity:0.473" fill="#cc90a3" d="M 163.5,332.5 C 164.167,332.5 164.5,332.833 164.5,333.5C 158.539,334.902 152.372,335.902 146,336.5C 143.145,336.554 140.478,335.888 138,334.5C 132.205,337.315 126.371,339.982 120.5,342.5C 117.887,345.645 116.221,349.311 115.5,353.5C 115.461,354.583 115.127,355.583 114.5,356.5C 112.833,356.833 111.167,357.167 109.5,357.5C 99.4959,356.37 89.4959,355.203 79.5,354C 76.293,353.428 74.6263,351.595 74.5,348.5C 75.1667,349.167 75.8333,349.833 76.5,350.5C 77.6002,351.558 78.9336,352.392 80.5,353C 91.1254,354.597 101.792,355.263 112.5,355C 114.577,350.178 116.911,345.512 119.5,341C 124.833,338.333 130.167,335.667 135.5,333C 138.832,333.147 142.165,333.647 145.5,334.5C 151.476,333.551 157.476,332.884 163.5,332.5 Z"/></g>
</svg>
