<?xml version="1.0" encoding="UTF-8"?>
<!DOCTYPE svg PUBLIC "-//W3C//DTD SVG 1.1//EN" "http://www.w3.org/Graphics/SVG/1.1/DTD/svg11.dtd">
<svg xmlns="http://www.w3.org/2000/svg" version="1.1" width="461px" height="406px" style="shape-rendering:geometricPrecision; text-rendering:geometricPrecision; image-rendering:optimizeQuality; fill-rule:evenodd; clip-rule:evenodd" xmlns:xlink="http://www.w3.org/1999/xlink">
<g><path style="opacity:1" fill="#dbb8b6" d="M 195.5,44.5 C 198.701,46.2603 202.367,47.0936 206.5,47C 211.833,50.6667 217.167,54.3333 222.5,58C 226.284,59.0711 230.118,59.9045 234,60.5C 236.348,60.7418 238.182,59.9084 239.5,58C 247.5,57 255.5,56 263.5,55C 266.513,51.1337 270.18,48.3004 274.5,46.5C 285.143,48.3851 295.81,50.0518 306.5,51.5C 306.898,55.7607 307.898,59.7607 309.5,63.5C 315.979,64.4907 322.646,64.824 329.5,64.5C 329.5,75.5 329.5,86.5 329.5,97.5C 323.347,97.5483 320.681,100.548 321.5,106.5C 322.444,117.158 323.277,127.825 324,138.5C 324.667,139.167 325.333,139.833 326,140.5C 326.195,149.244 326.695,157.911 327.5,166.5C 330.357,173.049 333.357,179.549 336.5,186C 341.817,185.538 347.151,185.204 352.5,185C 359.333,192.5 366.167,200 373,207.5C 374.827,212.433 374.993,217.433 373.5,222.5C 372.218,223.708 372.218,225.042 373.5,226.5C 393.99,236.237 413.323,247.737 431.5,261C 436.823,261.499 442.156,261.666 447.5,261.5C 447.791,267.204 448.458,272.871 449.5,278.5C 449.377,279.925 449.043,281.258 448.5,282.5C 442.965,285.19 437.799,288.523 433,292.5C 432.695,299.205 433.195,305.872 434.5,312.5C 433.179,318.965 431.346,325.299 429,331.5C 428.774,335.887 428.274,340.221 427.5,344.5C 425.667,344.833 423.833,345.167 422,345.5C 410.526,344.13 399.026,343.63 387.5,344C 385.667,346.5 383.833,349 382,351.5C 382.015,356.211 382.348,360.878 383,365.5C 376.627,371.542 369.96,377.208 363,382.5C 361.872,387.139 360.872,391.805 360,396.5C 351.245,391.872 342.411,387.372 333.5,383C 328.432,382.681 323.432,383.181 318.5,384.5C 316.076,383.97 313.743,383.136 311.5,382C 308.874,377.916 306.374,373.75 304,369.5C 303.261,368.426 302.261,367.759 301,367.5C 290.667,373.833 280.333,380.167 270,386.5C 269.228,386.355 268.561,386.022 268,385.5C 265.75,381.332 263.25,377.332 260.5,373.5C 254.55,371.295 248.55,369.295 242.5,367.5C 230.011,366.505 217.344,366.171 204.5,366.5C 204.784,364.585 204.451,362.919 203.5,361.5C 194.408,354.776 185.074,348.276 175.5,342C 173.343,340.019 171.676,337.686 170.5,335C 169.167,334.333 167.833,334.333 166.5,335C 159.474,338.181 152.474,341.348 145.5,344.5C 143.771,345.117 142.271,346.117 141,347.5C 139.5,350.5 138,353.5 136.5,356.5C 134.667,356.833 132.833,357.167 131,357.5C 123.175,356.667 115.342,356.001 107.5,355.5C 107.002,352.171 106.002,349.005 104.5,346C 91.5855,343.346 78.5855,341.679 65.5,341C 62.4653,344.017 58.7986,345.683 54.5,346C 50.9374,349.233 47.1041,352.067 43,354.5C 37.7722,352.136 32.6056,349.636 27.5,347C 19.6784,329.3 17.345,310.8 20.5,291.5C 19.5,291.5 18.5,291.5 17.5,291.5C 17.7373,290.209 17.404,289.209 16.5,288.5C 14.913,282.189 15.2463,276.023 17.5,270C 16.6119,268.78 15.9452,267.447 15.5,266C 16.8725,259.471 18.3725,252.971 20,246.5C 23.975,242.572 26.975,237.906 29,232.5C 34.0956,225.981 39.429,219.648 45,213.5C 45.4935,211.866 45.6602,210.199 45.5,208.5C 47.6326,206.909 49.2993,204.909 50.5,202.5C 57.0082,196.276 58.0082,189.276 53.5,181.5C 52.9198,177.19 52.5865,172.857 52.5,168.5C 54.5803,166.682 55.9136,164.349 56.5,161.5C 55.4212,159.42 53.7545,158.087 51.5,157.5C 50.075,156.078 49.075,154.411 48.5,152.5C 48.6657,148.154 48.499,143.821 48,139.5C 43.5378,138.449 39.0378,137.449 34.5,136.5C 33.3483,133.894 33.1816,131.227 34,128.5C 37.3486,124.984 40.8486,121.651 44.5,118.5C 49.4647,120.099 54.4647,121.599 59.5,123C 64.7513,123.804 69.918,123.637 75,122.5C 75.7485,120.668 76.7485,119.001 78,117.5C 78.6667,109.833 78.6667,102.167 78,94.5C 76.1282,92.5618 75.2948,90.2285 75.5,87.5C 76.2685,82.4907 77.1018,77.4907 78,72.5C 78.5,72 79,71.5 79.5,71C 86.8333,70.6667 94.1667,70.3333 101.5,70C 106.959,62.8725 112.792,56.0392 119,49.5C 119.738,47.1195 119.238,45.1195 117.5,43.5C 116.51,40.8495 115.51,38.1828 114.5,35.5C 114.76,33.8129 115.427,32.3129 116.5,31C 124.147,29.7513 131.814,29.0846 139.5,29C 142.167,31.6667 144.833,34.3333 147.5,37C 152.202,37.8283 156.869,37.6616 161.5,36.5C 165.243,28.014 169.243,19.6807 173.5,11.5C 178.752,14.7087 183.918,18.042 189,21.5C 190.726,29.4181 192.892,37.0848 195.5,44.5 Z"/></g>
<g><path style="opacity:0.936" fill="#b78981" d="M 195.5,44.5 C 192.892,37.0848 190.726,29.4181 189,21.5C 183.918,18.042 178.752,14.7087 173.5,11.5C 169.243,19.6807 165.243,28.014 161.5,36.5C 156.869,37.6616 152.202,37.8283 147.5,37C 144.833,34.3333 142.167,31.6667 139.5,29C 131.814,29.0846 124.147,29.7513 116.5,31C 115.427,32.3129 114.76,33.8129 114.5,35.5C 115.51,38.1828 116.51,40.8495 117.5,43.5C 117.5,44.1667 117.5,44.8333 117.5,45.5C 111.951,40.5874 111.284,35.0874 115.5,29C 123.799,27.5865 132.132,26.9199 140.5,27C 143.017,29.3494 145.35,31.8494 147.5,34.5C 151.783,35.4922 156.116,35.8256 160.5,35.5C 163.603,25.9642 167.769,16.9642 173,8.5C 178.933,12.0965 184.6,16.0965 190,20.5C 192.153,28.4439 193.986,36.4439 195.5,44.5 Z"/></g>
<g><path style="opacity:0.416" fill="#b5877f" d="M 195.5,44.5 C 199.167,44.5 202.833,44.5 206.5,44.5C 206.973,45.9063 207.973,46.573 209.5,46.5C 209.973,47.9063 210.973,48.573 212.5,48.5C 215.982,50.7476 219.316,53.2476 222.5,56C 226.07,57.3095 229.737,58.1428 233.5,58.5C 234.251,59.5735 235.251,59.7401 236.5,59C 237.955,57.3743 239.622,56.2076 241.5,55.5C 248.48,54.5859 255.48,53.7525 262.5,53C 265.566,48.9076 269.399,46.0742 274,44.5C 285.175,46.2792 296.342,48.1125 307.5,50C 309.046,54.0187 310.046,58.1854 310.5,62.5C 309.833,62.5 309.5,62.8333 309.5,63.5C 307.898,59.7607 306.898,55.7607 306.5,51.5C 295.81,50.0518 285.143,48.3851 274.5,46.5C 270.18,48.3004 266.513,51.1337 263.5,55C 255.5,56 247.5,57 239.5,58C 238.182,59.9084 236.348,60.7418 234,60.5C 230.118,59.9045 226.284,59.0711 222.5,58C 217.167,54.3333 211.833,50.6667 206.5,47C 202.367,47.0936 198.701,46.2603 195.5,44.5 Z"/></g>
<g><path style="opacity:0.008" fill="#b1c885" d="M 209.5,46.5 C 211.027,46.427 212.027,47.0937 212.5,48.5C 210.973,48.573 209.973,47.9063 209.5,46.5 Z"/></g>
<g><path style="opacity:0.055" fill="#b1c785" d="M 206.5,44.5 C 208.027,44.427 209.027,45.0937 209.5,46.5C 207.973,46.573 206.973,45.9063 206.5,44.5 Z"/></g>
<g><path style="opacity:0.914" fill="#b7b98b" d="M 241.5,55.5 C 239.622,56.2076 237.955,57.3743 236.5,59C 235.251,59.7401 234.251,59.5735 233.5,58.5C 235.781,56.5721 238.447,55.5721 241.5,55.5 Z"/></g>
<g><path style="opacity:0.981" fill="#b37c79" d="M 309.5,63.5 C 309.5,62.8333 309.833,62.5 310.5,62.5C 317.5,62.5 324.5,62.5 331.5,62.5C 331.832,74.5185 331.499,86.5185 330.5,98.5C 324.588,100.178 322.255,104.178 323.5,110.5C 324,119.5 324.5,128.5 325,137.5C 326,138.5 327,139.5 328,140.5C 328.5,148.827 328.666,157.16 328.5,165.5C 328.5,166.167 328.167,166.5 327.5,166.5C 326.695,157.911 326.195,149.244 326,140.5C 325.333,139.833 324.667,139.167 324,138.5C 323.277,127.825 322.444,117.158 321.5,106.5C 320.681,100.548 323.347,97.5483 329.5,97.5C 330.495,86.3456 330.828,75.0123 330.5,63.5C 323.5,63.5 316.5,63.5 309.5,63.5 Z"/></g>
<g><path style="opacity:1" fill="#c39593" d="M 309.5,63.5 C 316.5,63.5 323.5,63.5 330.5,63.5C 330.828,75.0123 330.495,86.3456 329.5,97.5C 329.5,86.5 329.5,75.5 329.5,64.5C 322.646,64.824 315.979,64.4907 309.5,63.5 Z"/></g>
<g><path style="opacity:1" fill="#b58380" d="M 117.5,43.5 C 119.238,45.1195 119.738,47.1195 119,49.5C 112.792,56.0392 106.959,62.8725 101.5,70C 94.1667,70.3333 86.8333,70.6667 79.5,71C 79,71.5 78.5,72 78,72.5C 77.1018,77.4907 76.2685,82.4907 75.5,87.5C 75.2948,90.2285 76.1282,92.5618 78,94.5C 78.6667,102.167 78.6667,109.833 78,117.5C 76.7485,119.001 75.7485,120.668 75,122.5C 69.918,123.637 64.7513,123.804 59.5,123C 54.4647,121.599 49.4647,120.099 44.5,118.5C 40.8486,121.651 37.3486,124.984 34,128.5C 33.1816,131.227 33.3483,133.894 34.5,136.5C 39.0378,137.449 43.5378,138.449 48,139.5C 48.499,143.821 48.6657,148.154 48.5,152.5C 47.469,150.039 46.8023,147.373 46.5,144.5C 46.5,143.167 46.5,141.833 46.5,140.5C 44.7839,140.371 43.1172,140.038 41.5,139.5C 40.8333,139.5 40.1667,139.5 39.5,139.5C 33.7845,139.584 30.7845,136.751 30.5,131C 33.8333,127 37.1667,123 40.5,119C 42.0344,118.077 43.701,117.577 45.5,117.5C 51.2641,118.585 56.9307,119.918 62.5,121.5C 65.9758,122.643 69.6425,122.81 73.5,122C 74.2524,121.329 74.5858,120.496 74.5,119.5C 77.4403,108.829 77.107,98.3287 73.5,88C 74.5383,82.4754 75.705,76.9754 77,71.5C 77.8333,70.6667 78.6667,69.8333 79.5,69C 86.5236,68.8311 93.5236,68.3311 100.5,67.5C 106.333,61.1667 112.167,54.8333 118,48.5C 118.47,47.4232 118.303,46.4232 117.5,45.5C 117.5,44.8333 117.5,44.1667 117.5,43.5 Z"/></g>
<g><path style="opacity:0.384" fill="#cdb38e" d="M 74.5,119.5 C 74.5858,120.496 74.2524,121.329 73.5,122C 69.6425,122.81 65.9758,122.643 62.5,121.5C 66.8131,122.01 70.8131,121.343 74.5,119.5 Z"/></g>
<g><path style="opacity:1" fill="#d2b0ae" d="M 41.5,139.5 C 43.1172,140.038 44.7839,140.371 46.5,140.5C 46.5,141.833 46.5,143.167 46.5,144.5C 46.1667,144.5 45.8333,144.5 45.5,144.5C 44.5161,142.52 43.1827,140.853 41.5,139.5 Z"/></g>
<g><path style="opacity:0.859" fill="#8f99a6" d="M 39.5,139.5 C 40.1667,139.5 40.8333,139.5 41.5,139.5C 43.1827,140.853 44.5161,142.52 45.5,144.5C 42.9108,143.581 40.9108,141.914 39.5,139.5 Z"/></g>
<g><path style="opacity:0.941" fill="#8f8a96" d="M 45.5,144.5 C 45.8333,144.5 46.1667,144.5 46.5,144.5C 46.8023,147.373 47.469,150.039 48.5,152.5C 49.075,154.411 50.075,156.078 51.5,157.5C 53.5525,160.319 53.8858,163.319 52.5,166.5C 52.1667,166.5 51.8333,166.5 51.5,166.5C 51.6621,164.473 51.4955,162.473 51,160.5C 46.491,156.141 44.6577,150.808 45.5,144.5 Z"/></g>
<g><path style="opacity:1" fill="#b17e7d" d="M 51.5,157.5 C 53.7545,158.087 55.4212,159.42 56.5,161.5C 55.9136,164.349 54.5803,166.682 52.5,168.5C 52.5,167.833 52.5,167.167 52.5,166.5C 53.8858,163.319 53.5525,160.319 51.5,157.5 Z"/></g>
<g><path style="opacity:0.871" fill="#9eadc9" d="M 51.5,166.5 C 51.2368,169.205 50.9035,171.871 50.5,174.5C 49.8476,173.551 49.5143,172.385 49.5,171C 49.3068,168.992 49.9735,167.492 51.5,166.5 Z"/></g>
<g><path style="opacity:0.992" fill="#94909d" d="M 51.5,166.5 C 51.8333,166.5 52.1667,166.5 52.5,166.5C 52.5,167.167 52.5,167.833 52.5,168.5C 52.5865,172.857 52.9198,177.19 53.5,181.5C 53.8168,185.702 53.4834,189.702 52.5,193.5C 52.3948,187.099 51.7282,180.766 50.5,174.5C 50.9035,171.871 51.2368,169.205 51.5,166.5 Z"/></g>
<g><path style="opacity:1" fill="#ba8a7d" d="M 328.5,165.5 C 331.864,171.221 334.864,177.221 337.5,183.5C 338.333,183.833 339.167,184.167 340,184.5C 344.445,183.208 348.945,182.708 353.5,183C 360.667,190.833 367.833,198.667 375,206.5C 378.549,212.413 378.049,217.746 373.5,222.5C 374.993,217.433 374.827,212.433 373,207.5C 366.167,200 359.333,192.5 352.5,185C 347.151,185.204 341.817,185.538 336.5,186C 333.357,179.549 330.357,173.049 327.5,166.5C 328.167,166.5 328.5,166.167 328.5,165.5 Z"/></g>
<g><path style="opacity:1" fill="#ad8382" d="M 53.5,181.5 C 58.0082,189.276 57.0082,196.276 50.5,202.5C 50.7036,200.315 51.3702,198.315 52.5,196.5C 52.5,195.5 52.5,194.5 52.5,193.5C 53.4834,189.702 53.8168,185.702 53.5,181.5 Z"/></g>
<g><path style="opacity:1" fill="#978389" d="M 52.5,196.5 C 51.3702,198.315 50.7036,200.315 50.5,202.5C 49.2993,204.909 47.6326,206.909 45.5,208.5C 44.8333,208.833 44.1667,209.167 43.5,209.5C 45.7629,204.635 48.7629,200.302 52.5,196.5 Z"/></g>
<g><path style="opacity:0.855" fill="#93abc1" d="M 43.5,209.5 C 43.6567,210.873 43.49,212.207 43,213.5C 37.5945,219.397 32.4278,225.397 27.5,231.5C 32.4536,223.881 37.787,216.548 43.5,209.5 Z"/></g>
<g><path style="opacity:0.976" fill="#bb8b7a" d="M 373.5,222.5 C 373.369,223.376 373.702,224.043 374.5,224.5C 387.625,231.132 400.625,237.965 413.5,245C 420.015,249.759 426.348,254.759 432.5,260C 438.157,260.499 443.824,260.666 449.5,260.5C 449.884,266.524 450.551,272.524 451.5,278.5C 451.333,279.833 451.167,281.167 451,282.5C 450.617,283.056 450.117,283.389 449.5,283.5C 449.5,282.833 449.167,282.5 448.5,282.5C 449.043,281.258 449.377,279.925 449.5,278.5C 448.458,272.871 447.791,267.204 447.5,261.5C 442.156,261.666 436.823,261.499 431.5,261C 413.323,247.737 393.99,236.237 373.5,226.5C 372.218,225.042 372.218,223.708 373.5,222.5 Z"/></g>
<g><path style="opacity:0.647" fill="#93787c" d="M 45.5,208.5 C 45.6602,210.199 45.4935,211.866 45,213.5C 39.429,219.648 34.0956,225.981 29,232.5C 26.975,237.906 23.975,242.572 20,246.5C 18.3725,252.971 16.8725,259.471 15.5,266C 15.9452,267.447 16.6119,268.78 17.5,270C 15.2463,276.023 14.913,282.189 16.5,288.5C 16.5,289.833 16.5,291.167 16.5,292.5C 13.9057,286.174 13.0724,279.507 14,272.5C 17.2998,270.443 17.1331,269.443 13.5,269.5C 15.1914,260.401 17.358,251.401 20,242.5C 22.5228,238.767 25.0228,235.101 27.5,231.5C 32.4278,225.397 37.5945,219.397 43,213.5C 43.49,212.207 43.6567,210.873 43.5,209.5C 44.1667,209.167 44.8333,208.833 45.5,208.5 Z"/></g>
<g><path style="opacity:0.698" fill="#a0c9eb" d="M 16.5,293.5 C 16.8333,293.5 17.1667,293.5 17.5,293.5C 18.2186,295.764 18.552,298.097 18.5,300.5C 17.3882,298.401 16.7215,296.067 16.5,293.5 Z"/></g>
<g><path style="opacity:0.98" fill="#908f96" d="M 17.5,293.5 C 19.4228,297.029 20.0894,301.029 19.5,305.5C 18.5489,304.081 18.2155,302.415 18.5,300.5C 18.552,298.097 18.2186,295.764 17.5,293.5 Z"/></g>
<g><path style="opacity:0.843" fill="#98979f" d="M 19.5,308.5 C 20.0545,312.012 19.3878,315.012 17.5,317.5C 17.6761,314.273 18.3428,311.273 19.5,308.5 Z"/></g>
<g><path style="opacity:0.757" fill="#b57f81" d="M 16.5,288.5 C 17.404,289.209 17.7373,290.209 17.5,291.5C 18.5,291.5 19.5,291.5 20.5,291.5C 17.345,310.8 19.6784,329.3 27.5,347C 32.6056,349.636 37.7722,352.136 43,354.5C 47.1041,352.067 50.9374,349.233 54.5,346C 58.7986,345.683 62.4653,344.017 65.5,341C 78.5855,341.679 91.5855,343.346 104.5,346C 106.002,349.005 107.002,352.171 107.5,355.5C 115.342,356.001 123.175,356.667 131,357.5C 132.833,357.167 134.667,356.833 136.5,356.5C 138,353.5 139.5,350.5 141,347.5C 142.271,346.117 143.771,345.117 145.5,344.5C 145.443,345.609 145.11,346.609 144.5,347.5C 143.791,348.404 142.791,348.737 141.5,348.5C 140.74,352.027 139.406,355.36 137.5,358.5C 127.16,359.068 116.827,358.568 106.5,357C 104.998,353.995 103.998,350.829 103.5,347.5C 92.3037,346.106 81.137,344.44 70,342.5C 60.544,344.716 52.3774,349.216 45.5,356C 44.1667,356.667 42.8333,356.667 41.5,356C 35.9184,352.96 30.4184,349.793 25,346.5C 22.026,336.937 19.526,327.27 17.5,317.5C 19.3878,315.012 20.0545,312.012 19.5,308.5C 19.5,307.5 19.5,306.5 19.5,305.5C 20.0894,301.029 19.4228,297.029 17.5,293.5C 17.1667,293.5 16.8333,293.5 16.5,293.5C 16.5,293.167 16.5,292.833 16.5,292.5C 16.5,291.167 16.5,289.833 16.5,288.5 Z"/></g>
<g><path style="opacity:1" fill="#c39593" d="M 203.5,361.5 C 204.451,362.919 204.784,364.585 204.5,366.5C 217.344,366.171 230.011,366.505 242.5,367.5C 229.5,367.5 216.5,367.5 203.5,367.5C 203.5,365.5 203.5,363.5 203.5,361.5 Z"/></g>
<g><path style="opacity:1" fill="#b57c83" d="M 203.5,361.5 C 203.5,363.5 203.5,365.5 203.5,367.5C 216.5,367.5 229.5,367.5 242.5,367.5C 248.55,369.295 254.55,371.295 260.5,373.5C 263.25,377.332 265.75,381.332 268,385.5C 268.561,386.022 269.228,386.355 270,386.5C 280.333,380.167 290.667,373.833 301,367.5C 302.261,367.759 303.261,368.426 304,369.5C 306.374,373.75 308.874,377.916 311.5,382C 313.743,383.136 316.076,383.97 318.5,384.5C 318.389,385.117 318.056,385.617 317.5,386C 318.416,386.278 319.082,386.778 319.5,387.5C 316.689,387.174 314.022,386.341 311.5,385C 307.878,380.255 304.378,375.422 301,370.5C 290.485,377.423 279.818,384.09 269,390.5C 265.038,385.942 261.538,380.942 258.5,375.5C 253.289,373.062 247.955,370.895 242.5,369C 229.167,368.667 215.833,368.333 202.5,368C 201.897,366.175 201.23,364.341 200.5,362.5C 190.528,355.694 180.694,348.694 171,341.5C 170.798,339.744 170.298,338.078 169.5,336.5C 161.263,340.454 152.929,344.12 144.5,347.5C 145.11,346.609 145.443,345.609 145.5,344.5C 152.474,341.348 159.474,338.181 166.5,335C 167.833,334.333 169.167,334.333 170.5,335C 171.676,337.686 173.343,340.019 175.5,342C 185.074,348.276 194.408,354.776 203.5,361.5 Z"/></g>
<g><path style="opacity:1" fill="#b47878" d="M 448.5,282.5 C 449.167,282.5 449.5,282.833 449.5,283.5C 444.547,286.613 439.714,289.946 435,293.5C 435.803,302.131 436.136,310.798 436,319.5C 432.862,328.337 430.362,337.337 428.5,346.5C 426.167,346.833 423.833,347.167 421.5,347.5C 410.514,346.36 399.514,345.86 388.5,346C 387.333,347.833 386.167,349.667 385,351.5C 385,356.833 385,362.167 385,367.5C 378.981,373.02 372.814,378.353 366.5,383.5C 364.697,388.377 363.364,393.377 362.5,398.5C 352.626,394.564 342.959,390.064 333.5,385C 328.738,385.081 324.072,385.915 319.5,387.5C 319.082,386.778 318.416,386.278 317.5,386C 318.056,385.617 318.389,385.117 318.5,384.5C 323.432,383.181 328.432,382.681 333.5,383C 342.411,387.372 351.245,391.872 360,396.5C 360.872,391.805 361.872,387.139 363,382.5C 369.96,377.208 376.627,371.542 383,365.5C 382.348,360.878 382.015,356.211 382,351.5C 383.833,349 385.667,346.5 387.5,344C 399.026,343.63 410.526,344.13 422,345.5C 423.833,345.167 425.667,344.833 427.5,344.5C 428.274,340.221 428.774,335.887 429,331.5C 431.346,325.299 433.179,318.965 434.5,312.5C 433.195,305.872 432.695,299.205 433,292.5C 437.799,288.523 442.965,285.19 448.5,282.5 Z"/></g>
</svg>
