<?xml version="1.0" encoding="UTF-8"?>
<!DOCTYPE svg PUBLIC "-//W3C//DTD SVG 1.1//EN" "http://www.w3.org/Graphics/SVG/1.1/DTD/svg11.dtd">
<svg xmlns="http://www.w3.org/2000/svg" version="1.1" width="490px" height="417px" style="shape-rendering:geometricPrecision; text-rendering:geometricPrecision; image-rendering:optimizeQuality; fill-rule:evenodd; clip-rule:evenodd" xmlns:xlink="http://www.w3.org/1999/xlink">
<g><path style="opacity:0.749" fill="#b9a880" d="M 212.5,5.5 C 211.415,7.58689 209.749,8.92022 207.5,9.5C 208.585,7.41311 210.251,6.07978 212.5,5.5 Z"/></g>
<g><path style="opacity:1" fill="#ebcede" d="M 292.5,40.5 C 293.5,40.5 294.5,40.5 295.5,40.5C 300.38,46.9344 305.213,46.9344 310,40.5C 314.084,43.1258 318.25,45.6258 322.5,48C 324.291,50.414 325.957,52.914 327.5,55.5C 332.693,58.2598 337.693,61.2598 342.5,64.5C 341.812,70.4137 344.312,73.4137 350,73.5C 358.705,71.45 367.539,70.2833 376.5,70C 381.662,66.2513 386.996,62.7513 392.5,59.5C 393.183,59.8627 393.85,60.1961 394.5,60.5C 398.049,68.5998 401.883,76.5998 406,84.5C 406.333,86.5 406.667,88.5 407,90.5C 420.069,101.345 426.402,115.345 426,132.5C 436.366,136.79 446.866,140.79 457.5,144.5C 459.82,152.111 461.986,159.777 464,167.5C 470.176,171.171 476.676,174.171 483.5,176.5C 477.046,188.729 470.046,200.729 462.5,212.5C 459.215,213.324 455.882,213.824 452.5,214C 449.017,217.239 445.35,220.239 441.5,223C 436.344,227.181 433.177,232.348 432,238.5C 437.4,245.205 441.9,252.372 445.5,260C 445.333,261.167 445.167,262.333 445,263.5C 439.414,267.043 433.914,270.709 428.5,274.5C 427.348,277.106 427.182,279.773 428,282.5C 431.088,287.675 433.921,293.008 436.5,298.5C 426.513,305.658 415.847,311.492 404.5,316C 401.64,318.36 398.64,320.527 395.5,322.5C 393.549,331.388 392.549,340.388 392.5,349.5C 387.614,350.877 382.614,351.711 377.5,352C 374.833,354.667 372.167,357.333 369.5,360C 367.51,359.862 365.51,359.362 363.5,358.5C 361.239,359.095 359.572,360.429 358.5,362.5C 356.379,363.943 354.046,364.943 351.5,365.5C 349.793,365.272 348.126,364.938 346.5,364.5C 345.5,364.167 344.833,363.5 344.5,362.5C 341.947,357.062 339.113,351.729 336,346.5C 333.897,338.96 331.23,331.627 328,324.5C 322.847,319.2 318.347,313.533 314.5,307.5C 311.069,297.997 308.403,288.331 306.5,278.5C 305.868,270.49 307.368,262.823 311,255.5C 310.496,244.631 313.496,234.965 320,226.5C 327.233,220.464 335.067,215.297 343.5,211C 349.14,211.384 354.806,211.384 360.5,211C 364.017,208.674 367.683,206.84 371.5,205.5C 378.772,205.179 385.439,203.179 391.5,199.5C 393.017,199.489 394.184,198.823 395,197.5C 398.614,190.588 398.281,183.921 394,177.5C 390.5,174 387,170.5 383.5,167C 379.404,164.741 375.071,163.741 370.5,164C 368.76,165.517 367.094,167.017 365.5,168.5C 358.649,172.257 351.315,173.424 343.5,172C 338.7,166.905 335.034,161.072 332.5,154.5C 332.5,154.167 332.5,153.833 332.5,153.5C 333.94,152.054 334.607,150.221 334.5,148C 333.904,144.118 333.071,140.284 332,136.5C 328.167,134 324.333,131.5 320.5,129C 318.787,127.622 317.453,125.955 316.5,124C 309.268,119.769 302.601,114.769 296.5,109C 294.51,107.249 292.177,106.249 289.5,106C 287.293,101.753 284.96,97.5859 282.5,93.5C 278.373,89.9907 273.707,87.9907 268.5,87.5C 266.973,87.573 265.973,86.9063 265.5,85.5C 263.07,80.2363 259.07,78.4029 253.5,80C 250.996,80.6976 248.663,81.5309 246.5,82.5C 243.733,82.8583 241.067,83.525 238.5,84.5C 235.342,86.906 233.675,90.2393 233.5,94.5C 233.8,97.7665 235.133,100.433 237.5,102.5C 239.726,106.654 240.059,110.987 238.5,115.5C 236.106,117.278 234.44,119.611 233.5,122.5C 234.667,126.168 236.334,129.502 238.5,132.5C 239.692,135.408 240.692,138.408 241.5,141.5C 238.643,146.697 238.976,151.697 242.5,156.5C 250.309,162.982 258.642,168.649 267.5,173.5C 268.631,175.074 268.798,176.741 268,178.5C 265.881,182.402 264.048,186.402 262.5,190.5C 262.672,191.492 262.338,192.158 261.5,192.5C 260.094,192.973 259.427,193.973 259.5,195.5C 255.095,200.266 249.762,201.933 243.5,200.5C 239.899,198.023 236.233,195.523 232.5,193C 229.183,192.502 225.85,192.335 222.5,192.5C 216.197,191.024 209.864,189.524 203.5,188C 200.408,187.264 197.408,187.431 194.5,188.5C 190.418,188.344 186.418,188.844 182.5,190C 180.959,191.371 179.625,192.871 178.5,194.5C 176.819,196.008 174.819,197.008 172.5,197.5C 166.971,197.652 161.471,197.318 156,196.5C 153.425,196.09 151.758,197.09 151,199.5C 148.888,206.333 149.388,213 152.5,219.5C 156.027,220.921 159.694,221.588 163.5,221.5C 165.806,221.993 168.139,222.326 170.5,222.5C 171.317,224.478 172.817,225.478 175,225.5C 177.867,225.161 180.367,224.161 182.5,222.5C 187.91,219.954 193.577,219.121 199.5,220C 201.346,221.03 203.013,222.196 204.5,223.5C 207.187,228.894 211.521,230.894 217.5,229.5C 221.856,230.511 225.856,232.344 229.5,235C 231.049,236.214 232.215,237.714 233,239.5C 233.268,248.887 234.101,258.22 235.5,267.5C 234.401,272.366 232.734,277.033 230.5,281.5C 230.722,283.055 231.389,284.389 232.5,285.5C 231.754,286.736 231.421,288.07 231.5,289.5C 226.728,296.396 226.228,303.729 230,311.5C 237.155,317.539 245.322,320.205 254.5,319.5C 265.161,322.343 268.661,329.01 265,339.5C 263.167,341.333 261.333,343.167 259.5,345C 246.686,349.695 235.019,356.195 224.5,364.5C 222.143,364.337 219.81,364.503 217.5,365C 213.976,368.025 210.309,370.858 206.5,373.5C 205.276,378.116 203.609,382.449 201.5,386.5C 195.613,389.184 189.446,391.184 183,392.5C 176.944,392.234 173.111,389.234 171.5,383.5C 171.162,381.146 170.662,378.813 170,376.5C 164.074,371.786 158.241,366.953 152.5,362C 147.843,360.422 144.843,361.922 143.5,366.5C 141.861,368.806 139.861,370.806 137.5,372.5C 132.08,371.668 129.413,374.001 129.5,379.5C 128.126,383.201 125.46,385.535 121.5,386.5C 115.815,386.197 110.148,386.03 104.5,386C 102.667,388.5 100.833,391 99,393.5C 98.2971,396.482 98.7971,399.149 100.5,401.5C 100.152,405.557 99.4855,409.557 98.5,413.5C 98.4431,414.609 98.1098,415.609 97.5,416.5C 90.8333,416.5 84.1667,416.5 77.5,416.5C 76.6983,408.955 78.0316,401.955 81.5,395.5C 84.0489,395.063 85.3822,393.563 85.5,391C 83.8694,385.108 82.0361,379.275 80,373.5C 73.5809,372.687 67.0809,372.187 60.5,372C 58.0319,370.061 56.0319,367.728 54.5,365C 61.6336,355.245 69.1336,345.745 77,336.5C 77.3333,318.167 77.6667,299.833 78,281.5C 79.6667,279.833 81.3333,278.167 83,276.5C 83.6667,271.833 83.6667,267.167 83,262.5C 74.2779,260.389 65.4446,258.723 56.5,257.5C 55.4324,256.566 54.099,256.232 52.5,256.5C 52.8032,247.749 52.4699,239.082 51.5,230.5C 50.2048,227.371 48.0381,225.038 45,223.5C 35.6036,228.448 26.4369,233.781 17.5,239.5C 13.0071,227.187 9.00709,214.687 5.5,202C 6.4158,201.722 7.08247,201.222 7.5,200.5C 11.2196,200.704 14.553,199.704 17.5,197.5C 23,189.167 28.5,180.833 34,172.5C 34.6667,171.167 34.6667,169.833 34,168.5C 28.4507,161.232 24.9507,153.066 23.5,144C 25.6783,136.496 29.5116,129.996 35,124.5C 39.6667,116.5 44.3333,108.5 49,100.5C 49.3656,96.554 48.0323,93.2207 45,90.5C 44.8333,89 44.6667,87.5 44.5,86C 45.4938,80.5334 46.1605,75.0334 46.5,69.5C 56.5178,67.6298 66.5178,65.6298 76.5,63.5C 78.3712,58.9258 80.3712,54.4258 82.5,50C 92.5,49.6667 102.5,49.3333 112.5,49C 117.078,43.3388 123.078,40.3388 130.5,40C 137.124,30.5868 143.624,21.0868 150,11.5C 150.986,10.8288 152.153,10.8288 153.5,11.5C 156.965,14.6057 160.965,16.939 165.5,18.5C 170.724,15.9711 175.891,13.3044 181,10.5C 187.258,12.481 193.591,14.1476 200,15.5C 202.008,15.6932 203.508,15.0265 204.5,13.5C 207.283,11.9335 209.949,10.1001 212.5,8C 221.176,8.03265 229.843,8.53265 238.5,9.5C 243.785,9.64513 248.952,8.97846 254,7.5C 258.965,12.1345 263.631,17.1345 268,22.5C 268.333,25.1667 268.667,27.8333 269,30.5C 273.022,35.0212 276.856,39.6879 280.5,44.5C 284.987,44.9375 288.987,43.6042 292.5,40.5 Z"/></g>
<g><path style="opacity:1" fill="#cca5b6" d="M 212.5,5.5 C 220.633,5.75776 228.633,6.75776 236.5,8.5C 241.122,8.84394 245.455,8.17727 249.5,6.5C 251.628,5.37086 253.961,5.20419 256.5,6C 262.176,11.4949 266.842,17.6616 270.5,24.5C 269.659,28.5749 270.992,31.5749 274.5,33.5C 275.728,34.3065 276.728,35.3065 277.5,36.5C 280.405,41.1974 284.405,42.5307 289.5,40.5C 289.833,40.5 290.167,40.5 290.5,40.5C 291.167,40.5 291.833,40.5 292.5,40.5C 288.987,43.6042 284.987,44.9375 280.5,44.5C 276.856,39.6879 273.022,35.0212 269,30.5C 268.667,27.8333 268.333,25.1667 268,22.5C 263.631,17.1345 258.965,12.1345 254,7.5C 248.952,8.97846 243.785,9.64513 238.5,9.5C 229.843,8.53265 221.176,8.03265 212.5,8C 209.949,10.1001 207.283,11.9335 204.5,13.5C 205.5,12.1667 206.5,10.8333 207.5,9.5C 209.749,8.92022 211.415,7.58689 212.5,5.5 Z"/></g>
<g><path style="opacity:0.384" fill="#b7a77c" d="M 249.5,6.5 C 245.455,8.17727 241.122,8.84394 236.5,8.5C 240.618,7.29112 244.951,6.62446 249.5,6.5 Z"/></g>
<g><path style="opacity:1" fill="#caa6ae" d="M 207.5,9.5 C 206.5,10.8333 205.5,12.1667 204.5,13.5C 203.508,15.0265 202.008,15.6932 200,15.5C 193.591,14.1476 187.258,12.481 181,10.5C 175.891,13.3044 170.724,15.9711 165.5,18.5C 160.965,16.939 156.965,14.6057 153.5,11.5C 153.167,10.8333 152.833,10.1667 152.5,9.5C 156.939,11.554 161.272,13.8873 165.5,16.5C 169.833,14 174.167,11.5 178.5,9C 185.964,9.52968 193.297,11.0297 200.5,13.5C 202.844,12.1491 205.178,10.8157 207.5,9.5 Z"/></g>
<g><path style="opacity:0.992" fill="#bdc2cf" d="M 270.5,24.5 C 271.98,27.3877 273.313,30.3877 274.5,33.5C 270.992,31.5749 269.659,28.5749 270.5,24.5 Z"/></g>
<g><path style="opacity:0.616" fill="#81b6c3" d="M 277.5,36.5 C 281.122,38.978 285.122,40.3113 289.5,40.5C 284.405,42.5307 280.405,41.1974 277.5,36.5 Z"/></g>
<g><path style="opacity:0.965" fill="#8396ab" d="M 297.5,40.5 C 296.833,40.5 296.167,40.5 295.5,40.5C 294.5,40.5 293.5,40.5 292.5,40.5C 291.833,40.5 291.167,40.5 290.5,40.5C 292.916,37.9659 295.25,37.9659 297.5,40.5 Z"/></g>
<g><path style="opacity:1" fill="#b7a1b9" d="M 342.5,64.5 C 337.693,61.2598 332.693,58.2598 327.5,55.5C 325.957,52.914 324.291,50.414 322.5,48C 318.25,45.6258 314.084,43.1258 310,40.5C 305.213,46.9344 300.38,46.9344 295.5,40.5C 296.167,40.5 296.833,40.5 297.5,40.5C 302.017,43.3063 306.017,42.8063 309.5,39C 310.5,38.3333 311.5,38.3333 312.5,39C 321.507,46.0472 330.507,53.0472 339.5,60C 341.141,61.129 342.141,62.629 342.5,64.5 Z"/></g>
<g><path style="opacity:0.516" fill="#d3997d" d="M 117.5,41.5 C 116.04,43.4628 114.373,45.2962 112.5,47C 102.839,47.4998 93.1724,47.6665 83.5,47.5C 92.6577,46.6701 101.991,46.1701 111.5,46C 113.114,43.8733 115.114,42.3733 117.5,41.5 Z"/></g>
<g><path style="opacity:1" fill="#c7a8bf" d="M 394.5,58.5 C 394.5,59.1667 394.5,59.8333 394.5,60.5C 393.85,60.1961 393.183,59.8627 392.5,59.5C 386.996,62.7513 381.662,66.2513 376.5,70C 367.539,70.2833 358.705,71.45 350,73.5C 344.312,73.4137 341.812,70.4137 342.5,64.5C 343.97,66.1513 345.303,67.9847 346.5,70C 350.5,70.6667 354.5,70.6667 358.5,70C 364.393,68.3602 370.393,67.3602 376.5,67C 381.763,63.1192 387.263,59.6192 393,56.5C 394.03,56.8361 394.53,57.5028 394.5,58.5 Z"/></g>
<g><path style="opacity:1" fill="#d1aac1" d="M 265.5,85.5 C 263.254,84.5448 260.921,83.8782 258.5,83.5C 254.702,82.5166 250.702,82.1832 246.5,82.5C 248.663,81.5309 250.996,80.6976 253.5,80C 259.07,78.4029 263.07,80.2363 265.5,85.5 Z"/></g>
<g><path style="opacity:1" fill="#ab9bae" d="M 246.5,82.5 C 250.702,82.1832 254.702,82.5166 258.5,83.5C 255.813,83.3359 253.146,83.5026 250.5,84C 246.979,85.6738 243.313,86.8404 239.5,87.5C 239.918,86.7784 240.584,86.2784 241.5,86C 240.263,85.7679 239.263,85.2679 238.5,84.5C 241.067,83.525 243.733,82.8583 246.5,82.5 Z"/></g>
<g><path style="opacity:0.651" fill="#96a3b9" d="M 258.5,83.5 C 260.921,83.8782 263.254,84.5448 265.5,85.5C 265.973,86.9063 266.973,87.573 268.5,87.5C 268.5,87.8333 268.5,88.1667 268.5,88.5C 264.269,88.5963 260.935,86.9297 258.5,83.5 Z"/></g>
<g><path style="opacity:1" fill="#d0a8bf" d="M 238.5,84.5 C 239.263,85.2679 240.263,85.7679 241.5,86C 240.584,86.2784 239.918,86.7784 239.5,87.5C 237.201,88.6322 235.868,90.4655 235.5,93C 236.25,96.1635 236.916,99.3301 237.5,102.5C 235.133,100.433 233.8,97.7665 233.5,94.5C 233.675,90.2393 235.342,86.906 238.5,84.5 Z"/></g>
<g><path style="opacity:0.651" fill="#cfa1b0" d="M 152.5,9.5 C 152.833,10.1667 153.167,10.8333 153.5,11.5C 152.153,10.8288 150.986,10.8288 150,11.5C 143.624,21.0868 137.124,30.5868 130.5,40C 123.078,40.3388 117.078,43.3388 112.5,49C 102.5,49.3333 92.5,49.6667 82.5,50C 80.3712,54.4258 78.3712,58.9258 76.5,63.5C 66.5178,65.6298 56.5178,67.6298 46.5,69.5C 46.1605,75.0334 45.4938,80.5334 44.5,86C 44.6667,87.5 44.8333,89 45,90.5C 48.0323,93.2207 49.3656,96.554 49,100.5C 44.3333,108.5 39.6667,116.5 35,124.5C 29.5116,129.996 25.6783,136.496 23.5,144C 24.9507,153.066 28.4507,161.232 34,168.5C 34.6667,169.833 34.6667,171.167 34,172.5C 28.5,180.833 23,189.167 17.5,197.5C 14.553,199.704 11.2196,200.704 7.5,200.5C 7.5,200.167 7.5,199.833 7.5,199.5C 10.0571,198.515 12.7237,197.515 15.5,196.5C 21.1667,187.833 26.8333,179.167 32.5,170.5C 29.0637,164.627 25.897,158.627 23,152.5C 20.4782,142.936 22.8115,134.936 30,128.5C 35.8333,118.833 41.6667,109.167 47.5,99.5C 44.8586,95.8741 43.1919,91.8741 42.5,87.5C 43.4733,81.1332 44.64,74.7998 46,68.5C 55.4898,66.2342 64.9898,63.9009 74.5,61.5C 76.6667,57.1667 78.8333,52.8333 81,48.5C 81.6708,47.7476 82.5041,47.4142 83.5,47.5C 93.1724,47.6665 102.839,47.4998 112.5,47C 114.373,45.2962 116.04,43.4628 117.5,41.5C 121.392,40.1851 125.392,38.8518 129.5,37.5C 136.166,27.3524 143.333,17.6857 151,8.5C 151.765,8.56993 152.265,8.90326 152.5,9.5 Z"/></g>
<g><path style="opacity:1" fill="#c7a2aa" d="M 394.5,58.5 C 401.093,68.3559 406.093,79.0225 409.5,90.5C 422.748,100.885 428.415,114.552 426.5,131.5C 437.653,134.829 448.653,138.662 459.5,143C 462.046,151.017 464.046,159.184 465.5,167.5C 472.906,169.707 479.906,172.707 486.5,176.5C 485.5,176.5 484.5,176.5 483.5,176.5C 476.676,174.171 470.176,171.171 464,167.5C 461.986,159.777 459.82,152.111 457.5,144.5C 446.866,140.79 436.366,136.79 426,132.5C 426.402,115.345 420.069,101.345 407,90.5C 406.667,88.5 406.333,86.5 406,84.5C 401.883,76.5998 398.049,68.5998 394.5,60.5C 394.5,59.8333 394.5,59.1667 394.5,58.5 Z"/></g>
<g><path style="opacity:1" fill="#a997ab" d="M 268.5,87.5 C 273.707,87.9907 278.373,89.9907 282.5,93.5C 284.96,97.5859 287.293,101.753 289.5,106C 292.177,106.249 294.51,107.249 296.5,109C 302.601,114.769 309.268,119.769 316.5,124C 317.453,125.955 318.787,127.622 320.5,129C 324.333,131.5 328.167,134 332,136.5C 333.071,140.284 333.904,144.118 334.5,148C 334.607,150.221 333.94,152.054 332.5,153.5C 332.417,147.318 330.583,141.651 327,136.5C 322.004,132.601 317.171,128.601 312.5,124.5C 311.415,122.413 309.749,121.08 307.5,120.5C 295.919,114.252 286.585,105.585 279.5,94.5C 275.775,92.4019 272.108,90.4019 268.5,88.5C 268.5,88.1667 268.5,87.8333 268.5,87.5 Z"/></g>
<g><path style="opacity:0.996" fill="#9596a9" d="M 239.5,87.5 C 237.616,90.9007 237.116,94.5674 238,98.5C 239.219,102.605 240.719,106.605 242.5,110.5C 239.715,116.186 238.381,122.186 238.5,128.5C 237.264,124.299 237.264,119.965 238.5,115.5C 240.059,110.987 239.726,106.654 237.5,102.5C 236.916,99.3301 236.25,96.1635 235.5,93C 235.868,90.4655 237.201,88.6322 239.5,87.5 Z"/></g>
<g><path style="opacity:0.471" fill="#95b4ce" d="M 307.5,120.5 C 309.749,121.08 311.415,122.413 312.5,124.5C 310.251,123.92 308.585,122.587 307.5,120.5 Z"/></g>
<g><path style="opacity:1" fill="#cda6bd" d="M 238.5,115.5 C 237.264,119.965 237.264,124.299 238.5,128.5C 238.5,129.833 238.5,131.167 238.5,132.5C 236.334,129.502 234.667,126.168 233.5,122.5C 234.44,119.611 236.106,117.278 238.5,115.5 Z"/></g>
<g><path style="opacity:1" fill="#c79eb7" d="M 391.5,199.5 C 391.062,199.565 390.728,199.399 390.5,199C 393.078,197.284 394.411,194.784 394.5,191.5C 395.867,187.895 395.7,184.229 394,180.5C 390.603,175.601 386.436,171.601 381.5,168.5C 379.509,166.939 377.176,165.939 374.5,165.5C 371.408,166.308 368.408,167.308 365.5,168.5C 367.094,167.017 368.76,165.517 370.5,164C 375.071,163.741 379.404,164.741 383.5,167C 387,170.5 390.5,174 394,177.5C 398.281,183.921 398.614,190.588 395,197.5C 394.184,198.823 393.017,199.489 391.5,199.5 Z"/></g>
<g><path style="opacity:0.922" fill="#a38ea1" d="M 238.5,128.5 C 242.245,135.337 243.412,142.671 242,150.5C 246.806,156.64 252.306,162.14 258.5,167C 262.167,168.833 265.833,170.667 269.5,172.5C 270.641,174.421 270.808,176.421 270,178.5C 268.032,182.939 265.532,186.939 262.5,190.5C 264.048,186.402 265.881,182.402 268,178.5C 268.798,176.741 268.631,175.074 267.5,173.5C 258.642,168.649 250.309,162.982 242.5,156.5C 238.976,151.697 238.643,146.697 241.5,141.5C 240.692,138.408 239.692,135.408 238.5,132.5C 238.5,131.167 238.5,129.833 238.5,128.5 Z"/></g>
<g><path style="opacity:0.435" fill="#9391a4" d="M 332.5,154.5 C 335.034,161.072 338.7,166.905 343.5,172C 351.315,173.424 358.649,172.257 365.5,168.5C 368.408,167.308 371.408,166.308 374.5,165.5C 377.176,165.939 379.509,166.939 381.5,168.5C 378.201,167.624 374.868,167.457 371.5,168C 361.793,173.218 351.46,174.885 340.5,173C 335.081,167.698 332.414,161.531 332.5,154.5 Z"/></g>
<g><path style="opacity:0.914" fill="#93a3b8" d="M 381.5,168.5 C 386.436,171.601 390.603,175.601 394,180.5C 395.7,184.229 395.867,187.895 394.5,191.5C 393.833,191.833 393.167,192.167 392.5,192.5C 393.014,190.634 393.68,188.8 394.5,187C 393.922,185.189 393.422,183.355 393,181.5C 389.33,176.998 385.497,172.665 381.5,168.5 Z"/></g>
<g><path style="opacity:1" fill="#c8a0b8" d="M 194.5,188.5 C 189.055,189.876 183.722,191.876 178.5,194.5C 179.625,192.871 180.959,191.371 182.5,190C 186.418,188.844 190.418,188.344 194.5,188.5 Z"/></g>
<g><path style="opacity:0.714" fill="#9495a7" d="M 222.5,192.5 C 224.5,193.167 226.5,193.833 228.5,194.5C 223.343,194.706 218.343,194.039 213.5,192.5C 211.485,191.076 209.152,190.41 206.5,190.5C 195.091,188.907 184.758,191.74 175.5,199C 168.048,199.089 160.714,199.922 153.5,201.5C 153.953,200.542 154.619,199.708 155.5,199C 161.348,198.827 167.015,198.327 172.5,197.5C 174.819,197.008 176.819,196.008 178.5,194.5C 183.722,191.876 189.055,189.876 194.5,188.5C 197.408,187.431 200.408,187.264 203.5,188C 209.864,189.524 216.197,191.024 222.5,192.5 Z"/></g>
<g><path style="opacity:0.69" fill="#98bbd8" d="M 206.5,190.5 C 209.152,190.41 211.485,191.076 213.5,192.5C 210.848,192.59 208.515,191.924 206.5,190.5 Z"/></g>
<g><path style="opacity:0.004" fill="#8f7f8e" d="M 261.5,192.5 C 261.573,194.027 260.906,195.027 259.5,195.5C 259.427,193.973 260.094,192.973 261.5,192.5 Z"/></g>
<g><path style="opacity:0.976" fill="#b998ac" d="M 222.5,192.5 C 225.85,192.335 229.183,192.502 232.5,193C 236.233,195.523 239.899,198.023 243.5,200.5C 238.507,198.513 233.507,196.513 228.5,194.5C 226.5,193.833 224.5,193.167 222.5,192.5 Z"/></g>
<g><path style="opacity:0.839" fill="#a2cdf0" d="M 392.5,193.5 C 390.049,196.277 387.049,198.277 383.5,199.5C 385.975,196.759 388.975,194.759 392.5,193.5 Z"/></g>
<g><path style="opacity:1" fill="#c4a4b9" d="M 172.5,197.5 C 167.015,198.327 161.348,198.827 155.5,199C 154.619,199.708 153.953,200.542 153.5,201.5C 152.972,202.721 152.305,203.887 151.5,205C 152.046,209.142 153.379,212.975 155.5,216.5C 157.863,218.68 160.53,220.347 163.5,221.5C 159.694,221.588 156.027,220.921 152.5,219.5C 149.388,213 148.888,206.333 151,199.5C 151.758,197.09 153.425,196.09 156,196.5C 161.471,197.318 166.971,197.652 172.5,197.5 Z"/></g>
<g><path style="opacity:1" fill="#b8a1b3" d="M 394.5,191.5 C 394.411,194.784 393.078,197.284 390.5,199C 390.728,199.399 391.062,199.565 391.5,199.5C 385.439,203.179 378.772,205.179 371.5,205.5C 375.579,203.694 379.579,201.694 383.5,199.5C 387.049,198.277 390.049,196.277 392.5,193.5C 392.5,193.167 392.5,192.833 392.5,192.5C 393.167,192.167 393.833,191.833 394.5,191.5 Z"/></g>
<g><path style="opacity:0.392" fill="#938b9d" d="M 259.5,195.5 C 255.885,202.636 250.551,204.303 243.5,200.5C 249.762,201.933 255.095,200.266 259.5,195.5 Z"/></g>
<g><path style="opacity:0.998" fill="#ddc2d1" d="M 297.5,219.5 C 297.702,221.95 297.369,224.283 296.5,226.5C 290.229,225.669 287.562,222.002 288.5,215.5C 292.575,214.659 295.575,215.992 297.5,219.5 Z"/></g>
<g><path style="opacity:0.98" fill="#9393a5" d="M 155.5,216.5 C 161.483,218.871 167.65,220.537 174,221.5C 178.287,221.294 182.453,220.461 186.5,219C 196.806,216.402 205.472,218.902 212.5,226.5C 209.833,225.5 207.167,224.5 204.5,223.5C 203.013,222.196 201.346,221.03 199.5,220C 193.577,219.121 187.91,219.954 182.5,222.5C 178.458,223.45 174.458,223.45 170.5,222.5C 168.139,222.326 165.806,221.993 163.5,221.5C 160.53,220.347 157.863,218.68 155.5,216.5 Z"/></g>
<g><path style="opacity:1" fill="#cba1ba" d="M 170.5,222.5 C 174.458,223.45 178.458,223.45 182.5,222.5C 180.367,224.161 177.867,225.161 175,225.5C 172.817,225.478 171.317,224.478 170.5,222.5 Z"/></g>
<g><path style="opacity:1" fill="#caa5bb" d="M 204.5,223.5 C 207.167,224.5 209.833,225.5 212.5,226.5C 213.391,227.11 214.391,227.443 215.5,227.5C 216.167,228.167 216.833,228.833 217.5,229.5C 211.521,230.894 207.187,228.894 204.5,223.5 Z"/></g>
<g><path style="opacity:0.49" fill="#988b9b" d="M 297.5,219.5 C 298.152,220.449 298.486,221.615 298.5,223C 298.392,224.681 297.725,225.848 296.5,226.5C 297.369,224.283 297.702,221.95 297.5,219.5 Z"/></g>
<g><path style="opacity:0.808" fill="#c7acb3" d="M 7.5,199.5 C 7.5,199.833 7.5,200.167 7.5,200.5C 7.08247,201.222 6.4158,201.722 5.5,202C 9.00709,214.687 13.0071,227.187 17.5,239.5C 26.4369,233.781 35.6036,228.448 45,223.5C 48.0381,225.038 50.2048,227.371 51.5,230.5C 50.8333,230.5 50.5,230.833 50.5,231.5C 48.9013,229.396 47.068,227.396 45,225.5C 35.2892,231.771 25.1226,237.105 14.5,241.5C 10.5179,227.571 6.85123,213.571 3.5,199.5C 4.83333,199.5 6.16667,199.5 7.5,199.5 Z"/></g>
<g><path style="opacity:1" fill="#c799b4" d="M 51.5,230.5 C 52.4699,239.082 52.8032,247.749 52.5,256.5C 54.099,256.232 55.4324,256.566 56.5,257.5C 54.8333,257.5 53.1667,257.5 51.5,257.5C 51.8032,248.749 51.4699,240.082 50.5,231.5C 50.5,230.833 50.8333,230.5 51.5,230.5 Z"/></g>
<g><path style="opacity:0.976" fill="#958a9c" d="M 371.5,205.5 C 367.683,206.84 364.017,208.674 360.5,211C 354.806,211.384 349.14,211.384 343.5,211C 335.067,215.297 327.233,220.464 320,226.5C 313.496,234.965 310.496,244.631 311,255.5C 307.368,262.823 305.868,270.49 306.5,278.5C 305.163,277.685 304.163,276.518 303.5,275C 304.621,268.02 306.454,261.187 309,254.5C 310.13,247.852 311.13,241.186 312,234.5C 319.756,223.418 329.923,215.251 342.5,210C 347.505,209.918 352.505,209.918 357.5,210C 361.892,207.591 366.558,206.091 371.5,205.5 Z"/></g>
<g><path style="opacity:0.984" fill="#988fa1" d="M 215.5,227.5 C 222.986,228.327 229.152,231.661 234,237.5C 234.835,248.228 236.002,258.895 237.5,269.5C 236.633,272.935 235.466,276.269 234,279.5C 233.986,285.683 232.986,291.683 231,297.5C 230.55,301.188 230.717,304.854 231.5,308.5C 230.074,306.321 229.408,303.821 229.5,301C 230.067,297.139 230.733,293.305 231.5,289.5C 231.421,288.07 231.754,286.736 232.5,285.5C 231.389,284.389 230.722,283.055 230.5,281.5C 232.734,277.033 234.401,272.366 235.5,267.5C 234.101,258.22 233.268,248.887 233,239.5C 232.215,237.714 231.049,236.214 229.5,235C 225.856,232.344 221.856,230.511 217.5,229.5C 216.833,228.833 216.167,228.167 215.5,227.5 Z"/></g>
<g><path style="opacity:0.996" fill="#9790a5" d="M 306.5,278.5 C 308.403,288.331 311.069,297.997 314.5,307.5C 311.063,304.299 308.896,300.299 308,295.5C 306.869,289.888 306.369,284.221 306.5,278.5 Z"/></g>
<g><path style="opacity:0.965" fill="#c5a8bb" d="M 483.5,176.5 C 484.5,176.5 485.5,176.5 486.5,176.5C 479.275,189.276 471.775,201.943 464,214.5C 460.255,215.297 456.421,215.797 452.5,216C 444.908,221.755 438.575,228.588 433.5,236.5C 438,242.833 442.5,249.167 447,255.5C 447.667,258.5 447.667,261.5 447,264.5C 441.414,268.043 435.914,271.709 430.5,275.5C 429.353,277.765 429.186,280.098 430,282.5C 433.811,288.111 436.478,294.111 438,300.5C 424.809,308.891 411.309,316.558 397.5,323.5C 396.005,332.451 394.839,341.451 394,350.5C 388.927,351.916 383.76,353.082 378.5,354C 375.631,357.038 372.631,359.871 369.5,362.5C 365.833,361.167 362.167,361.167 358.5,362.5C 359.572,360.429 361.239,359.095 363.5,358.5C 365.51,359.362 367.51,359.862 369.5,360C 372.167,357.333 374.833,354.667 377.5,352C 382.614,351.711 387.614,350.877 392.5,349.5C 392.549,340.388 393.549,331.388 395.5,322.5C 398.64,320.527 401.64,318.36 404.5,316C 415.847,311.492 426.513,305.658 436.5,298.5C 433.921,293.008 431.088,287.675 428,282.5C 427.182,279.773 427.348,277.106 428.5,274.5C 433.914,270.709 439.414,267.043 445,263.5C 445.167,262.333 445.333,261.167 445.5,260C 441.9,252.372 437.4,245.205 432,238.5C 433.177,232.348 436.344,227.181 441.5,223C 445.35,220.239 449.017,217.239 452.5,214C 455.882,213.824 459.215,213.324 462.5,212.5C 470.046,200.729 477.046,188.729 483.5,176.5 Z"/></g>
<g><path style="opacity:0.945" fill="#9aabc0" d="M 231.5,308.5 C 234.709,310.265 237.709,312.265 240.5,314.5C 235.948,314.641 232.948,312.641 231.5,308.5 Z"/></g>
<g><path style="opacity:1" fill="#c49fb6" d="M 231.5,289.5 C 230.733,293.305 230.067,297.139 229.5,301C 229.408,303.821 230.074,306.321 231.5,308.5C 232.948,312.641 235.948,314.641 240.5,314.5C 240.5,314.833 240.5,315.167 240.5,315.5C 245.037,317.257 249.704,318.59 254.5,319.5C 245.322,320.205 237.155,317.539 230,311.5C 226.228,303.729 226.728,296.396 231.5,289.5 Z"/></g>
<g><path style="opacity:0.21" fill="#a2ccee" d="M 240.5,315.5 C 240.5,315.167 240.5,314.833 240.5,314.5C 243.428,314.565 246.095,315.232 248.5,316.5C 245.794,316.425 243.127,316.092 240.5,315.5 Z"/></g>
<g><path style="opacity:0.992" fill="#998fa2" d="M 240.5,315.5 C 243.127,316.092 245.794,316.425 248.5,316.5C 265.928,318.034 271.428,326.7 265,342.5C 259.175,347.33 252.675,350.997 245.5,353.5C 243.973,353.427 242.973,354.094 242.5,355.5C 237.054,359.556 231.054,362.556 224.5,364.5C 235.019,356.195 246.686,349.695 259.5,345C 261.333,343.167 263.167,341.333 265,339.5C 268.661,329.01 265.161,322.343 254.5,319.5C 249.704,318.59 245.037,317.257 240.5,315.5 Z"/></g>
<g><path style="opacity:1" fill="#9e94a7" d="M 314.5,307.5 C 318.347,313.533 322.847,319.2 328,324.5C 331.23,331.627 333.897,338.96 336,346.5C 339.113,351.729 341.947,357.062 344.5,362.5C 342.203,360.706 340.037,358.706 338,356.5C 334.34,349.187 331.673,341.52 330,333.5C 326.448,326.618 322.115,320.284 317,314.5C 315.589,312.35 314.755,310.016 314.5,307.5 Z"/></g>
<g><path style="opacity:0.976" fill="#caa4b9" d="M 51.5,257.5 C 53.1667,257.5 54.8333,257.5 56.5,257.5C 65.4446,258.723 74.2779,260.389 83,262.5C 83.6667,267.167 83.6667,271.833 83,276.5C 81.3333,278.167 79.6667,279.833 78,281.5C 77.6667,299.833 77.3333,318.167 77,336.5C 69.1336,345.745 61.6336,355.245 54.5,365C 56.0319,367.728 58.0319,370.061 60.5,372C 67.0809,372.187 73.5809,372.687 80,373.5C 82.0361,379.275 83.8694,385.108 85.5,391C 85.3822,393.563 84.0489,395.063 81.5,395.5C 84.2261,387.588 82.2261,381.255 75.5,376.5C 70.2277,375.145 64.8944,373.979 59.5,373C 56.3587,371.114 53.692,368.78 51.5,366C 59.2081,356.093 67.0415,346.26 75,336.5C 75.3333,317.833 75.6667,299.167 76,280.5C 81.1508,276.079 82.9841,270.412 81.5,263.5C 71.2562,262.118 61.2562,260.118 51.5,257.5 Z"/></g>
<g><path style="opacity:0.004" fill="#a1cbed" d="M 245.5,353.5 C 245.027,354.906 244.027,355.573 242.5,355.5C 242.973,354.094 243.973,353.427 245.5,353.5 Z"/></g>
<g><path style="opacity:0.627" fill="#9392a2" d="M 369.5,362.5 C 363.602,363.104 357.602,364.438 351.5,366.5C 350.167,366.333 348.833,366.167 347.5,366C 346.944,365.617 346.611,365.117 346.5,364.5C 348.126,364.938 349.793,365.272 351.5,365.5C 354.046,364.943 356.379,363.943 358.5,362.5C 362.167,361.167 365.833,361.167 369.5,362.5 Z"/></g>
<g><path style="opacity:0.529" fill="#9297aa" d="M 154.5,366.5 C 152.429,364.9 150.095,364.4 147.5,365C 144.794,367.371 142.461,370.037 140.5,373C 135.5,375.333 131.833,379 129.5,384C 127.33,385.586 124.996,386.92 122.5,388C 116.851,388.757 111.184,389.257 105.5,389.5C 105.918,388.778 106.584,388.278 107.5,388C 112.351,387.826 117.018,387.326 121.5,386.5C 125.46,385.535 128.126,383.201 129.5,379.5C 131.549,376.45 134.216,374.117 137.5,372.5C 139.861,370.806 141.861,368.806 143.5,366.5C 145.186,364.984 147.019,363.65 149,362.5C 151.505,362.994 153.339,364.328 154.5,366.5 Z"/></g>
<g><path style="opacity:1" fill="#cba1ba" d="M 137.5,372.5 C 134.216,374.117 131.549,376.45 129.5,379.5C 129.413,374.001 132.08,371.668 137.5,372.5 Z"/></g>
<g><path style="opacity:1" fill="#bd9cb2" d="M 171.5,383.5 C 170.167,382.167 168.833,380.833 167.5,379.5C 163.806,374.473 159.473,370.139 154.5,366.5C 153.339,364.328 151.505,362.994 149,362.5C 147.019,363.65 145.186,364.984 143.5,366.5C 144.843,361.922 147.843,360.422 152.5,362C 158.241,366.953 164.074,371.786 170,376.5C 170.662,378.813 171.162,381.146 171.5,383.5 Z"/></g>
<g><path style="opacity:1" fill="#b09db1" d="M 224.5,364.5 C 214.956,368.543 208.789,375.543 206,385.5C 205.329,386.252 204.496,386.586 203.5,386.5C 202.833,386.5 202.167,386.5 201.5,386.5C 203.609,382.449 205.276,378.116 206.5,373.5C 210.309,370.858 213.976,368.025 217.5,365C 219.81,364.503 222.143,364.337 224.5,364.5 Z"/></g>
<g><path style="opacity:1" fill="#c8a0b8" d="M 121.5,386.5 C 117.018,387.326 112.351,387.826 107.5,388C 106.584,388.278 105.918,388.778 105.5,389.5C 103.248,389.916 101.748,391.249 101,393.5C 100.503,396.146 100.336,398.813 100.5,401.5C 98.7971,399.149 98.2971,396.482 99,393.5C 100.833,391 102.667,388.5 104.5,386C 110.148,386.03 115.815,386.197 121.5,386.5 Z"/></g>
<g><path style="opacity:0.792" fill="#948da0" d="M 167.5,379.5 C 168.833,380.833 170.167,382.167 171.5,383.5C 173.111,389.234 176.944,392.234 183,392.5C 189.446,391.184 195.613,389.184 201.5,386.5C 202.167,386.5 202.833,386.5 203.5,386.5C 195.084,392.696 185.75,394.863 175.5,393C 171.159,389.485 168.493,384.985 167.5,379.5 Z"/></g>
<g><path style="opacity:0.984" fill="#928d9f" d="M 75.5,376.5 C 82.2261,381.255 84.2261,387.588 81.5,395.5C 78.0316,401.955 76.6983,408.955 77.5,416.5C 76.8333,416.5 76.1667,416.5 75.5,416.5C 75.8159,411.156 76.3159,405.822 77,400.5C 78.7908,396.589 80.2908,392.589 81.5,388.5C 79.938,384.274 77.938,380.274 75.5,376.5 Z"/></g>
<g><path style="opacity:0.974" fill="#8b8796" d="M 105.5,389.5 C 104.093,391.308 102.926,393.308 102,395.5C 101.667,400.5 101.333,405.5 101,410.5C 100.623,411.942 99.7899,412.942 98.5,413.5C 99.4855,409.557 100.152,405.557 100.5,401.5C 100.336,398.813 100.503,396.146 101,393.5C 101.748,391.249 103.248,389.916 105.5,389.5 Z"/></g>
</svg>
