<?xml version="1.0" encoding="UTF-8"?>
<!DOCTYPE svg PUBLIC "-//W3C//DTD SVG 1.1//EN" "http://www.w3.org/Graphics/SVG/1.1/DTD/svg11.dtd">
<svg xmlns="http://www.w3.org/2000/svg" version="1.1" width="432px" height="532px" style="shape-rendering:geometricPrecision; text-rendering:geometricPrecision; image-rendering:optimizeQuality; fill-rule:evenodd; clip-rule:evenodd" xmlns:xlink="http://www.w3.org/1999/xlink">
<g><path style="opacity:1" fill="#e2e3c4" d="M 88.5,24.5 C 92.5704,24.5682 96.237,23.5682 99.5,21.5C 101.199,21.3398 102.866,21.5065 104.5,22C 107.78,25.1214 111.447,27.6214 115.5,29.5C 120.289,27.2716 124.955,24.7716 129.5,22C 135.167,21.3333 140.833,21.3333 146.5,22C 149.86,24.3661 152.86,27.0327 155.5,30C 153.18,39.4338 151.18,48.9338 149.5,58.5C 151.23,65.0211 153.564,71.3544 156.5,77.5C 162.565,79.7994 168.732,81.7994 175,83.5C 177.46,82.6866 179.96,82.0199 182.5,81.5C 193.816,83.4416 205.15,85.2749 216.5,87C 217.585,89.6959 219.251,91.8626 221.5,93.5C 230.793,96.3764 240.127,99.0431 249.5,101.5C 250.006,107.536 250.839,113.536 252,119.5C 258.752,123.46 265.586,127.293 272.5,131C 274.081,132.828 275.415,134.828 276.5,137C 279.5,137.667 282.5,137.667 285.5,137C 292.717,133.225 300.05,129.725 307.5,126.5C 313.833,129.228 320.5,130.894 327.5,131.5C 328.241,138.177 328.741,144.843 329,151.5C 325.434,154.699 321.6,157.533 317.5,160C 316.663,161.011 316.33,162.178 316.5,163.5C 315.599,164.29 314.932,165.29 314.5,166.5C 312.733,170.908 312.233,175.574 313,180.5C 313.377,181.942 314.21,182.942 315.5,183.5C 315.5,185.167 315.5,186.833 315.5,188.5C 313.413,189.585 312.08,191.251 311.5,193.5C 311.5,194.167 311.167,194.5 310.5,194.5C 306.628,196.193 303.128,198.526 300,201.5C 299.506,203.134 299.34,204.801 299.5,206.5C 298.564,207.974 297.23,208.974 295.5,209.5C 291.125,210.387 287.459,212.387 284.5,215.5C 282.983,221.418 281.983,227.418 281.5,233.5C 281.427,238.199 282.427,242.533 284.5,246.5C 284.822,251.465 286.156,256.132 288.5,260.5C 288.5,261.167 288.5,261.833 288.5,262.5C 289.504,268.171 292.837,271.504 298.5,272.5C 303.763,273.651 308.763,275.484 313.5,278C 317.358,278.81 321.024,278.643 324.5,277.5C 327.162,276.501 329.828,275.501 332.5,274.5C 335.16,273.653 337.826,273.153 340.5,273C 344.159,276.673 348.326,279.506 353,281.5C 357.729,280.035 362.396,278.368 367,276.5C 371.232,278.7 375.398,281.033 379.5,283.5C 380.386,284.325 380.719,285.325 380.5,286.5C 378.549,289.786 376.215,292.786 373.5,295.5C 367.151,295.179 360.818,295.013 354.5,295C 353.695,296.113 353.028,297.279 352.5,298.5C 349.017,301.237 345.017,302.903 340.5,303.5C 337.624,303.927 334.791,304.594 332,305.5C 330.405,306.356 329.572,307.689 329.5,309.5C 328.167,311.5 326.5,313.167 324.5,314.5C 321.054,315.612 319.054,317.945 318.5,321.5C 313.978,325.761 308.645,328.428 302.5,329.5C 299.813,329.336 297.146,329.503 294.5,330C 293.62,331.356 293.286,332.856 293.5,334.5C 292.167,336.167 290.833,337.833 289.5,339.5C 286.142,340.527 284.475,342.86 284.5,346.5C 283.833,347.833 282.833,348.833 281.5,349.5C 275.633,355.267 268.633,358.601 260.5,359.5C 258.325,357.024 256.325,354.357 254.5,351.5C 251.572,350.516 248.572,350.183 245.5,350.5C 243.29,350.106 241.957,348.773 241.5,346.5C 240.949,343.193 240.616,339.86 240.5,336.5C 233.549,337.204 226.883,339.038 220.5,342C 218.549,343.734 217.549,345.901 217.5,348.5C 216.694,349.728 215.694,350.728 214.5,351.5C 213.167,351.5 211.833,351.5 210.5,351.5C 207.385,349.712 205.385,347.046 204.5,343.5C 203.344,339.207 202.344,334.874 201.5,330.5C 196.167,330.5 190.833,330.5 185.5,330.5C 179.957,327.376 173.957,325.543 167.5,325C 166.29,326.039 165.29,327.206 164.5,328.5C 163.609,329.11 162.609,329.443 161.5,329.5C 159.881,327.762 157.881,327.262 155.5,328C 150.283,334.216 143.617,337.216 135.5,337C 134.944,337.383 134.611,337.883 134.5,338.5C 130.167,338.5 125.833,338.5 121.5,338.5C 119.727,337.108 117.727,335.941 115.5,335C 112.584,330.08 108.918,325.747 104.5,322C 100.346,319.34 96.3462,316.507 92.5,313.5C 91.8333,313.5 91.5,313.167 91.5,312.5C 90.9791,308.519 90.6458,304.519 90.5,300.5C 90.6663,293.492 90.4996,286.492 90,279.5C 89.2917,278.619 88.4584,277.953 87.5,277.5C 87.5,272.5 87.5,267.5 87.5,262.5C 88.9973,260.71 89.664,258.544 89.5,256C 89.3333,254.5 89.1667,253 89,251.5C 88.6174,250.944 88.1174,250.611 87.5,250.5C 87.8333,249.167 88.1667,247.833 88.5,246.5C 90.3325,244.168 91.6659,241.502 92.5,238.5C 90.8835,234.929 88.5502,231.929 85.5,229.5C 81.4905,224.823 78.4905,219.489 76.5,213.5C 75.2907,210.279 73.624,207.279 71.5,204.5C 61.5222,203.501 51.5222,203.168 41.5,203.5C 36.5399,200.208 32.2066,196.208 28.5,191.5C 28.16,189.321 27.16,187.488 25.5,186C 20.5543,184.184 15.5543,182.684 10.5,181.5C 6.9513,180.726 3.61797,179.393 0.5,177.5C 7.26694,165.543 15.1003,154.209 24,143.5C 24.6667,129.833 24.6667,116.167 24,102.5C 22.2486,88.1555 20.4153,73.8221 18.5,59.5C 18.5698,58.2284 18.9032,57.0617 19.5,56C 22.3927,55.4993 24.8927,54.3326 27,52.5C 28.9432,41.8405 30.7765,31.1738 32.5,20.5C 42.1527,19.4674 51.8193,18.9674 61.5,19C 63.8811,23.3019 67.0478,26.8019 71,29.5C 77.1519,28.5128 82.9852,26.8462 88.5,24.5 Z"/></g>
<g><path style="opacity:1" fill="#c0c294" d="M 99.5,21.5 C 96.237,23.5682 92.5704,24.5682 88.5,24.5C 91.8544,22.7424 95.521,21.7424 99.5,21.5 Z"/></g>
<g><path style="opacity:0.643" fill="#d4a586" d="M 102.5,19.5 C 101.5,20.1667 100.5,20.8333 99.5,21.5C 95.521,21.7424 91.8544,22.7424 88.5,24.5C 82.4898,25.1279 76.6565,26.4612 71,28.5C 70.2828,27.9558 69.7828,27.2891 69.5,26.5C 80.5279,24.2944 91.5279,21.9611 102.5,19.5 Z"/></g>
<g><path style="opacity:1" fill="#bebf94" d="M 69.5,26.5 C 69.7828,27.2891 70.2828,27.9558 71,28.5C 76.6565,26.4612 82.4898,25.1279 88.5,24.5C 82.9852,26.8462 77.1519,28.5128 71,29.5C 67.0478,26.8019 63.8811,23.3019 61.5,19C 51.8193,18.9674 42.1527,19.4674 32.5,20.5C 30.7765,31.1738 28.9432,41.8405 27,52.5C 24.8927,54.3326 22.3927,55.4993 19.5,56C 18.9032,57.0617 18.5698,58.2284 18.5,59.5C 20.4153,73.8221 22.2486,88.1555 24,102.5C 24.6667,116.167 24.6667,129.833 24,143.5C 15.1003,154.209 7.26694,165.543 0.5,177.5C 0.166667,177.5 -0.166667,177.5 -0.5,177.5C -0.5,176.167 -0.5,174.833 -0.5,173.5C 7.13662,163.684 14.6366,153.684 22,143.5C 22.6667,128.5 22.6667,113.5 22,98.5C 20.3133,84.333 18.48,70.333 16.5,56.5C 19.0878,54.3754 22.0878,53.0421 25.5,52.5C 26.8028,41.1811 28.8028,30.0145 31.5,19C 41.4719,17.5948 51.4719,16.9281 61.5,17C 64.2935,20.1051 66.9602,23.2717 69.5,26.5 Z"/></g>
<g><path style="opacity:0.729" fill="#948cb4" d="M 154.5,44.5 C 154.03,49.0196 153.363,53.5196 152.5,58C 152.788,60.187 153.122,62.3537 153.5,64.5C 152.003,62.7103 151.336,60.5437 151.5,58C 151.819,53.2228 152.819,48.7228 154.5,44.5 Z"/></g>
<g><path style="opacity:0.008" fill="#978eb6" d="M 153.5,64.5 C 154.931,65.7804 155.598,67.4471 155.5,69.5C 154.069,68.2196 153.402,66.5529 153.5,64.5 Z"/></g>
<g><path style="opacity:0.489" fill="#978fb5" d="M 202.5,82.5 C 195.776,81.935 189.109,80.935 182.5,79.5C 181.151,79.8457 179.817,80.179 178.5,80.5C 178.611,79.8826 178.944,79.3826 179.5,79C 187.465,78.8307 195.132,79.9973 202.5,82.5 Z"/></g>
<g><path style="opacity:0.2" fill="#9a92b4" d="M 214.5,84.5 C 218.697,84.1937 220.697,86.1937 220.5,90.5C 219.442,89.3998 218.608,88.0664 218,86.5C 216.698,85.9152 215.531,85.2485 214.5,84.5 Z"/></g>
<g><path style="opacity:0.422" fill="#d2dddd" d="M 18.5,86.5 C 20.2106,95.2726 20.8772,104.273 20.5,113.5C 19.2277,104.694 18.561,95.6939 18.5,86.5 Z"/></g>
<g><path style="opacity:0.831" fill="#958db4" d="M 220.5,90.5 C 223.785,90.9281 226.785,91.9281 229.5,93.5C 226.084,93.4725 223.084,92.4725 220.5,90.5 Z"/></g>
<g><path style="opacity:0.843" fill="#9990b7" d="M 251.5,104.5 C 252.967,108.675 254.3,113.008 255.5,117.5C 259.25,119.363 262.583,121.697 265.5,124.5C 261.327,123.163 257.494,121.163 254,118.5C 252.844,113.878 252.01,109.211 251.5,104.5 Z"/></g>
<g><path style="opacity:0.031" fill="#9990b8" d="M 308.5,124.5 C 313.072,125.388 317.405,126.721 321.5,128.5C 316.67,128.412 312.337,127.078 308.5,124.5 Z"/></g>
<g><path style="opacity:1" fill="#b8b898" d="M 102.5,19.5 C 103.552,19.3505 104.552,19.5172 105.5,20C 108.531,22.5081 111.531,25.0081 114.5,27.5C 115.721,28.4646 117.054,28.298 118.5,27C 122.345,24.637 126.011,22.137 129.5,19.5C 135.509,19.3338 141.509,19.5005 147.5,20C 150.167,22 152.833,24 155.5,26C 156.944,27.126 157.61,28.626 157.5,30.5C 156.914,35.3885 155.914,40.0551 154.5,44.5C 152.819,48.7228 151.819,53.2228 151.5,58C 151.336,60.5437 152.003,62.7103 153.5,64.5C 153.402,66.5529 154.069,68.2196 155.5,69.5C 156.924,71.5145 157.59,73.8478 157.5,76.5C 163.208,77.9573 168.874,79.624 174.5,81.5C 175.849,81.1543 177.183,80.821 178.5,80.5C 179.817,80.179 181.151,79.8457 182.5,79.5C 189.109,80.935 195.776,81.935 202.5,82.5C 206.64,82.5291 210.64,83.1958 214.5,84.5C 215.531,85.2485 216.698,85.9152 218,86.5C 218.608,88.0664 219.442,89.3998 220.5,90.5C 223.084,92.4725 226.084,93.4725 229.5,93.5C 236.573,95.357 243.573,97.5237 250.5,100C 251.38,101.356 251.714,102.856 251.5,104.5C 252.01,109.211 252.844,113.878 254,118.5C 257.494,121.163 261.327,123.163 265.5,124.5C 265.973,125.906 266.973,126.573 268.5,126.5C 272.725,127.722 275.725,130.388 277.5,134.5C 280.106,135.652 282.773,135.818 285.5,135C 292.961,130.934 300.627,127.434 308.5,124.5C 312.337,127.078 316.67,128.412 321.5,128.5C 324.199,128.466 326.699,129.133 329,130.5C 330.424,137.793 331.091,145.126 331,152.5C 326.814,155.497 322.981,158.83 319.5,162.5C 318.391,162.557 317.391,162.89 316.5,163.5C 316.33,162.178 316.663,161.011 317.5,160C 321.6,157.533 325.434,154.699 329,151.5C 328.741,144.843 328.241,138.177 327.5,131.5C 320.5,130.894 313.833,129.228 307.5,126.5C 300.05,129.725 292.717,133.225 285.5,137C 282.5,137.667 279.5,137.667 276.5,137C 275.415,134.828 274.081,132.828 272.5,131C 265.586,127.293 258.752,123.46 252,119.5C 250.839,113.536 250.006,107.536 249.5,101.5C 240.127,99.0431 230.793,96.3764 221.5,93.5C 219.251,91.8626 217.585,89.6959 216.5,87C 205.15,85.2749 193.816,83.4416 182.5,81.5C 179.96,82.0199 177.46,82.6866 175,83.5C 168.732,81.7994 162.565,79.7994 156.5,77.5C 153.564,71.3544 151.23,65.0211 149.5,58.5C 151.18,48.9338 153.18,39.4338 155.5,30C 152.86,27.0327 149.86,24.3661 146.5,22C 140.833,21.3333 135.167,21.3333 129.5,22C 124.955,24.7716 120.289,27.2716 115.5,29.5C 111.447,27.6214 107.78,25.1214 104.5,22C 102.866,21.5065 101.199,21.3398 99.5,21.5C 100.5,20.8333 101.5,20.1667 102.5,19.5 Z"/></g>
<g><path style="opacity:0.031" fill="#968db4" d="M 265.5,124.5 C 267.027,124.427 268.027,125.094 268.5,126.5C 266.973,126.573 265.973,125.906 265.5,124.5 Z"/></g>
<g><path style="opacity:0.445" fill="#d5a586" d="M 129.5,19.5 C 126.011,22.137 122.345,24.637 118.5,27C 117.054,28.298 115.721,28.4646 114.5,27.5C 117.975,25.5928 121.309,23.4262 124.5,21C 126.025,19.9914 127.692,19.4914 129.5,19.5 Z"/></g>
<g><path style="opacity:0.4" fill="#abbcba" d="M 16.5,56.5 C 18.48,70.333 20.3133,84.333 22,98.5C 22.6667,113.5 22.6667,128.5 22,143.5C 14.6366,153.684 7.13662,163.684 -0.5,173.5C -0.5,172.5 -0.5,171.5 -0.5,170.5C 7.18611,161.637 14.3528,152.303 21,142.5C 21.2116,132.834 21.0449,123.168 20.5,113.5C 20.8772,104.273 20.2106,95.2726 18.5,86.5C 17.2665,76.5624 16.5998,66.5624 16.5,56.5 Z"/></g>
<g><path style="opacity:0.329" fill="#9dc4e4" d="M 319.5,162.5 C 318.488,163.872 317.488,165.205 316.5,166.5C 316.5,165.5 316.5,164.5 316.5,163.5C 317.391,162.89 318.391,162.557 319.5,162.5 Z"/></g>
<g><path style="opacity:1" fill="#bdbf94" d="M 314.5,166.5 C 314.375,172.203 314.708,177.87 315.5,183.5C 314.21,182.942 313.377,181.942 313,180.5C 312.233,175.574 312.733,170.908 314.5,166.5 Z"/></g>
<g><path style="opacity:0.982" fill="#909d9e" d="M 316.5,163.5 C 316.5,164.5 316.5,165.5 316.5,166.5C 316.825,174.019 316.492,181.352 315.5,188.5C 315.5,186.833 315.5,185.167 315.5,183.5C 314.708,177.87 314.375,172.203 314.5,166.5C 314.932,165.29 315.599,164.29 316.5,163.5 Z"/></g>
<g><path style="opacity:1" fill="#bbbe92" d="M 10.5,181.5 C 15.5543,182.684 20.5543,184.184 25.5,186C 27.16,187.488 28.16,189.321 28.5,191.5C 23.0456,187.108 17.0456,183.775 10.5,181.5 Z"/></g>
<g><path style="opacity:0.255" fill="#8d917d" d="M 315.5,188.5 C 314.92,190.749 313.587,192.415 311.5,193.5C 312.08,191.251 313.413,189.585 315.5,188.5 Z"/></g>
<g><path style="opacity:0.467" fill="#8c9da0" d="M -0.5,177.5 C -0.166667,177.5 0.166667,177.5 0.5,177.5C 3.61797,179.393 6.9513,180.726 10.5,181.5C 17.0456,183.775 23.0456,187.108 28.5,191.5C 32.2066,196.208 36.5399,200.208 41.5,203.5C 42.6085,204.29 43.9419,204.79 45.5,205C 50.8229,205.499 56.1563,205.666 61.5,205.5C 61.5,205.833 61.5,206.167 61.5,206.5C 54.1044,206.8 46.771,206.3 39.5,205C 33.4789,199.977 27.8122,194.644 22.5,189C 15.0113,185.339 7.34461,182.172 -0.5,179.5C -0.5,178.833 -0.5,178.167 -0.5,177.5 Z"/></g>
<g><path style="opacity:1" fill="#b7b992" d="M 310.5,194.5 C 308.167,197.167 305.833,199.833 303.5,202.5C 302.167,203.833 300.833,205.167 299.5,206.5C 299.34,204.801 299.506,203.134 300,201.5C 303.128,198.526 306.628,196.193 310.5,194.5 Z"/></g>
<g><path style="opacity:1" fill="#c8cbb6" d="M 61.5,205.5 C 64.5184,205.335 67.5184,205.502 70.5,206C 71.305,207.113 71.9717,208.279 72.5,209.5C 70.6854,208.37 68.6854,207.704 66.5,207.5C 64.5853,207.784 62.9187,207.451 61.5,206.5C 61.5,206.167 61.5,205.833 61.5,205.5 Z"/></g>
<g><path style="opacity:0.196" fill="#8b9794" d="M 303.5,202.5 C 302.866,205.643 301.2,208.143 298.5,210C 294.805,212.51 291.138,215.01 287.5,217.5C 287.369,216.761 287.536,216.094 288,215.5C 290.688,213.636 293.188,211.636 295.5,209.5C 297.23,208.974 298.564,207.974 299.5,206.5C 300.833,205.167 302.167,203.833 303.5,202.5 Z"/></g>
<g><path style="opacity:0.706" fill="#94a9b6" d="M 66.5,207.5 C 68.6854,207.704 70.6854,208.37 72.5,209.5C 73.6005,210.605 74.2671,211.938 74.5,213.5C 71.4669,211.984 68.8003,209.984 66.5,207.5 Z"/></g>
<g><path style="opacity:1" fill="#bcbe93" d="M 41.5,203.5 C 51.5222,203.168 61.5222,203.501 71.5,204.5C 73.624,207.279 75.2907,210.279 76.5,213.5C 75.8333,213.5 75.1667,213.5 74.5,213.5C 74.2671,211.938 73.6005,210.605 72.5,209.5C 71.9717,208.279 71.305,207.113 70.5,206C 67.5184,205.502 64.5184,205.335 61.5,205.5C 56.1563,205.666 50.8229,205.499 45.5,205C 43.9419,204.79 42.6085,204.29 41.5,203.5 Z"/></g>
<g><path style="opacity:1" fill="#bcbf9b" d="M 295.5,209.5 C 293.188,211.636 290.688,213.636 288,215.5C 287.536,216.094 287.369,216.761 287.5,217.5C 286.833,218.5 286.167,219.5 285.5,220.5C 283.96,222.838 283.294,225.505 283.5,228.5C 284.363,234.455 284.697,240.455 284.5,246.5C 282.427,242.533 281.427,238.199 281.5,233.5C 281.983,227.418 282.983,221.418 284.5,215.5C 287.459,212.387 291.125,210.387 295.5,209.5 Z"/></g>
<g><path style="opacity:0.02" fill="#8d9388" d="M 285.5,220.5 C 285.435,223.428 284.768,226.095 283.5,228.5C 283.294,225.505 283.96,222.838 285.5,220.5 Z"/></g>
<g><path style="opacity:0.043" fill="#a5d2f4" d="M 79.5,224.5 C 80.9063,224.973 81.573,225.973 81.5,227.5C 80.0937,227.027 79.427,226.027 79.5,224.5 Z"/></g>
<g><path style="opacity:0.886" fill="#91a5ae" d="M 74.5,213.5 C 75.1667,213.5 75.8333,213.5 76.5,213.5C 78.4905,219.489 81.4905,224.823 85.5,229.5C 86.1667,231.5 86.8333,233.5 87.5,235.5C 85.0252,233.23 83.0252,230.563 81.5,227.5C 81.573,225.973 80.9063,224.973 79.5,224.5C 78.1481,220.789 76.4815,217.122 74.5,213.5 Z"/></g>
<g><path style="opacity:1" fill="#c0c298" d="M 85.5,229.5 C 88.5502,231.929 90.8835,234.929 92.5,238.5C 91.6659,241.502 90.3325,244.168 88.5,246.5C 88.5,245.5 88.5,244.5 88.5,243.5C 88.5,243.167 88.5,242.833 88.5,242.5C 89.8674,239.988 89.534,237.655 87.5,235.5C 86.8333,233.5 86.1667,231.5 85.5,229.5 Z"/></g>
<g><path style="opacity:0.956" fill="#9ea7a4" d="M 87.5,235.5 C 89.534,237.655 89.8674,239.988 88.5,242.5C 88.0074,240.194 87.6741,237.861 87.5,235.5 Z"/></g>
<g><path style="opacity:0.988" fill="#8b9b9c" d="M 88.5,243.5 C 88.5,244.5 88.5,245.5 88.5,246.5C 88.1667,247.833 87.8333,249.167 87.5,250.5C 87.5,254.5 87.5,258.5 87.5,262.5C 87.5,267.5 87.5,272.5 87.5,277.5C 87.5,278.167 87.5,278.833 87.5,279.5C 86.8826,279.389 86.3826,279.056 86,278.5C 85.8333,276.333 85.6667,274.167 85.5,272C 86.6304,264.653 86.6304,257.319 85.5,250C 85.8586,247.454 86.8586,245.287 88.5,243.5 Z"/></g>
<g><path style="opacity:1" fill="#a9ab8a" d="M 87.5,250.5 C 88.1174,250.611 88.6174,250.944 89,251.5C 89.1667,253 89.3333,254.5 89.5,256C 89.664,258.544 88.9973,260.71 87.5,262.5C 87.5,258.5 87.5,254.5 87.5,250.5 Z"/></g>
<g><path style="opacity:0.584" fill="#91a0a7" d="M 288.5,260.5 C 291.98,264.33 295.98,267.33 300.5,269.5C 300.833,270.167 301.167,270.833 301.5,271.5C 300.833,271.5 300.167,271.5 299.5,271.5C 295.568,268.908 291.901,265.908 288.5,262.5C 288.5,261.833 288.5,261.167 288.5,260.5 Z"/></g>
<g><path style="opacity:1" fill="#c5c79d" d="M 288.5,262.5 C 291.901,265.908 295.568,268.908 299.5,271.5C 298.833,271.5 298.5,271.833 298.5,272.5C 292.837,271.504 289.504,268.171 288.5,262.5 Z"/></g>
<g><path style="opacity:0.416" fill="#9fc8e8" d="M 300.5,269.5 C 303.485,270.326 306.151,271.659 308.5,273.5C 306.079,273.122 303.746,272.455 301.5,271.5C 301.167,270.833 300.833,270.167 300.5,269.5 Z"/></g>
<g><path style="opacity:1" fill="#a9ac87" d="M 298.5,272.5 C 298.5,271.833 298.833,271.5 299.5,271.5C 300.167,271.5 300.833,271.5 301.5,271.5C 303.746,272.455 306.079,273.122 308.5,273.5C 310.176,275.834 312.509,276.834 315.5,276.5C 318.287,277.477 321.287,277.81 324.5,277.5C 321.024,278.643 317.358,278.81 313.5,278C 308.763,275.484 303.763,273.651 298.5,272.5 Z"/></g>
<g><path style="opacity:0.702" fill="#94b0c4" d="M 308.5,273.5 C 313.644,275.264 318.977,275.931 324.5,275.5C 321.713,276.477 318.713,276.81 315.5,276.5C 312.509,276.834 310.176,275.834 308.5,273.5 Z"/></g>
<g><path style="opacity:1" fill="#8d9895" d="M 336.5,270.5 C 335.473,272.194 334.139,273.527 332.5,274.5C 329.828,275.501 327.162,276.501 324.5,277.5C 321.287,277.81 318.287,277.477 315.5,276.5C 318.713,276.81 321.713,276.477 324.5,275.5C 328.5,273.833 332.5,272.167 336.5,270.5 Z"/></g>
<g><path style="opacity:0.016" fill="#978eb4" d="M 370.5,275.5 C 372.027,275.427 373.027,276.094 373.5,277.5C 371.973,277.573 370.973,276.906 370.5,275.5 Z"/></g>
<g><path style="opacity:0.004" fill="#978eb4" d="M 375.5,278.5 C 377.027,278.427 378.027,279.094 378.5,280.5C 376.973,280.573 375.973,279.906 375.5,278.5 Z"/></g>
<g><path style="opacity:1" fill="#b9ba96" d="M 336.5,270.5 C 338.199,270.34 339.866,270.506 341.5,271C 345.063,274.233 348.896,277.067 353,279.5C 357.243,278.197 361.41,276.697 365.5,275C 367.387,274.22 369.054,274.387 370.5,275.5C 370.973,276.906 371.973,277.573 373.5,277.5C 374.492,277.328 375.158,277.662 375.5,278.5C 375.973,279.906 376.973,280.573 378.5,280.5C 378.973,281.906 379.973,282.573 381.5,282.5C 381.5,283.833 381.5,285.167 381.5,286.5C 381.167,286.5 380.833,286.5 380.5,286.5C 380.719,285.325 380.386,284.325 379.5,283.5C 375.398,281.033 371.232,278.7 367,276.5C 362.396,278.368 357.729,280.035 353,281.5C 348.326,279.506 344.159,276.673 340.5,273C 337.826,273.153 335.16,273.653 332.5,274.5C 334.139,273.527 335.473,272.194 336.5,270.5 Z"/></g>
<g><path style="opacity:1" fill="#c6c89e" d="M 87.5,277.5 C 88.4584,277.953 89.2917,278.619 90,279.5C 90.4996,286.492 90.6663,293.492 90.5,300.5C 89.8769,293.783 88.8769,287.116 87.5,280.5C 87.5,280.167 87.5,279.833 87.5,279.5C 87.5,278.833 87.5,278.167 87.5,277.5 Z"/></g>
<g><path style="opacity:0.043" fill="#9890b3" d="M 378.5,280.5 C 380.027,280.427 381.027,281.094 381.5,282.5C 379.973,282.573 378.973,281.906 378.5,280.5 Z"/></g>
<g><path style="opacity:0.986" fill="#92998c" d="M 87.5,280.5 C 88.8769,287.116 89.8769,293.783 90.5,300.5C 90.6458,304.519 90.9791,308.519 91.5,312.5C 89.9891,310.524 89.1558,308.191 89,305.5C 87.5357,297.148 87.0357,288.815 87.5,280.5 Z"/></g>
<g><path style="opacity:0.295" fill="#a3cff0" d="M 380.5,290.5 C 380.512,293.142 379.179,294.475 376.5,294.5C 377.5,292.833 378.833,291.5 380.5,290.5 Z"/></g>
<g><path style="opacity:0.965" fill="#8c9485" d="M 380.5,286.5 C 380.833,286.5 381.167,286.5 381.5,286.5C 381.768,288.099 381.434,289.432 380.5,290.5C 378.833,291.5 377.5,292.833 376.5,294.5C 375.791,295.404 374.791,295.737 373.5,295.5C 376.215,292.786 378.549,289.786 380.5,286.5 Z"/></g>
<g><path style="opacity:1" fill="#aaae90" d="M 373.5,295.5 C 370.124,297.082 366.458,297.749 362.5,297.5C 359.098,297.342 355.764,297.676 352.5,298.5C 353.028,297.279 353.695,296.113 354.5,295C 360.818,295.013 367.151,295.179 373.5,295.5 Z"/></g>
<g><path style="opacity:0.553" fill="#8f9b94" d="M 362.5,297.5 C 354.614,300.089 346.614,302.756 338.5,305.5C 339.167,304.833 339.833,304.167 340.5,303.5C 345.017,302.903 349.017,301.237 352.5,298.5C 355.764,297.676 359.098,297.342 362.5,297.5 Z"/></g>
<g><path style="opacity:1" fill="#b4b793" d="M 340.5,303.5 C 339.833,304.167 339.167,304.833 338.5,305.5C 336.297,307.1 333.964,308.433 331.5,309.5C 330.833,309.5 330.167,309.5 329.5,309.5C 329.572,307.689 330.405,306.356 332,305.5C 334.791,304.594 337.624,303.927 340.5,303.5 Z"/></g>
<g><path style="opacity:0.918" fill="#929e96" d="M 329.5,309.5 C 330.167,309.5 330.833,309.5 331.5,309.5C 329.746,313.588 326.746,316.255 322.5,317.5C 323.167,316.5 323.833,315.5 324.5,314.5C 326.5,313.167 328.167,311.5 329.5,309.5 Z"/></g>
<g><path style="opacity:0.89" fill="#a5a988" d="M 324.5,314.5 C 323.833,315.5 323.167,316.5 322.5,317.5C 321.5,319.167 320.167,320.5 318.5,321.5C 319.054,317.945 321.054,315.612 324.5,314.5 Z"/></g>
<g><path style="opacity:1" fill="#9ba087" d="M 92.5,313.5 C 96.3462,316.507 100.346,319.34 104.5,322C 108.918,325.747 112.584,330.08 115.5,335C 117.727,335.941 119.727,337.108 121.5,338.5C 119.784,338.371 118.117,338.038 116.5,337.5C 114.167,335.833 112.167,333.833 110.5,331.5C 109.5,328.5 107.5,326.5 104.5,325.5C 100.167,321.833 96.1667,317.833 92.5,313.5 Z"/></g>
<g><path style="opacity:0.925" fill="#8c988e" d="M 318.5,321.5 C 315.152,327.815 309.819,330.815 302.5,330.5C 302.5,330.167 302.5,329.833 302.5,329.5C 308.645,328.428 313.978,325.761 318.5,321.5 Z"/></g>
<g><path style="opacity:0.953" fill="#96b7d0" d="M 104.5,325.5 C 107.5,326.5 109.5,328.5 110.5,331.5C 108.167,329.833 106.167,327.833 104.5,325.5 Z"/></g>
<g><path style="opacity:1" fill="#aaae90" d="M 185.5,330.5 C 179.227,329.313 172.894,328.646 166.5,328.5C 165.833,328.5 165.167,328.5 164.5,328.5C 165.29,327.206 166.29,326.039 167.5,325C 173.957,325.543 179.957,327.376 185.5,330.5 Z"/></g>
<g><path style="opacity:0.829" fill="#838a7d" d="M 164.5,328.5 C 165.167,328.5 165.833,328.5 166.5,328.5C 166.389,329.117 166.056,329.617 165.5,330C 163.19,330.497 160.857,330.663 158.5,330.5C 158.167,330.5 157.833,330.5 157.5,330.5C 158.568,329.566 159.901,329.232 161.5,329.5C 162.609,329.443 163.609,329.11 164.5,328.5 Z"/></g>
<g><path style="opacity:1" fill="#b5b892" d="M 302.5,329.5 C 302.5,329.833 302.5,330.167 302.5,330.5C 300.958,331.301 299.292,331.634 297.5,331.5C 296.167,332.5 294.833,333.5 293.5,334.5C 293.286,332.856 293.62,331.356 294.5,330C 297.146,329.503 299.813,329.336 302.5,329.5 Z"/></g>
<g><path style="opacity:0.773" fill="#8898a1" d="M 188.5,331.5 C 190.167,331.5 191.833,331.5 193.5,331.5C 194.167,332.167 194.833,332.833 195.5,333.5C 192.933,333.279 190.599,332.612 188.5,331.5 Z"/></g>
<g><path style="opacity:1" fill="#dbdcbe" d="M 193.5,331.5 C 195.527,331.338 197.527,331.505 199.5,332C 200.38,333.356 200.714,334.856 200.5,336.5C 199.167,335.5 197.833,334.5 196.5,333.5C 196.167,333.5 195.833,333.5 195.5,333.5C 194.833,332.833 194.167,332.167 193.5,331.5 Z"/></g>
<g><path style="opacity:0.286" fill="#92acbf" d="M 157.5,330.5 C 157.833,330.5 158.167,330.5 158.5,330.5C 155.965,332.017 153.298,333.35 150.5,334.5C 152.052,331.888 154.386,330.555 157.5,330.5 Z"/></g>
<g><path style="opacity:0.031" fill="#90a1ab" d="M 196.5,333.5 C 197.833,334.5 199.167,335.5 200.5,336.5C 200.5,337.167 200.5,337.833 200.5,338.5C 199.833,338.167 199.167,337.833 198.5,337.5C 197.326,336.486 196.66,335.153 196.5,333.5 Z"/></g>
<g><path style="opacity:1" fill="#a4a989" d="M 161.5,329.5 C 159.901,329.232 158.568,329.566 157.5,330.5C 154.386,330.555 152.052,331.888 150.5,334.5C 146.597,336.898 142.264,338.231 137.5,338.5C 136.5,338.5 135.5,338.5 134.5,338.5C 134.611,337.883 134.944,337.383 135.5,337C 143.617,337.216 150.283,334.216 155.5,328C 157.881,327.262 159.881,327.762 161.5,329.5 Z"/></g>
<g><path style="opacity:1" fill="#b9bb90" d="M 185.5,330.5 C 190.833,330.5 196.167,330.5 201.5,330.5C 202.344,334.874 203.344,339.207 204.5,343.5C 203.728,342.306 202.728,341.306 201.5,340.5C 201.672,339.508 201.338,338.842 200.5,338.5C 200.5,337.833 200.5,337.167 200.5,336.5C 200.714,334.856 200.38,333.356 199.5,332C 197.527,331.505 195.527,331.338 193.5,331.5C 191.833,331.5 190.167,331.5 188.5,331.5C 187.209,331.737 186.209,331.404 185.5,330.5 Z"/></g>
<g><path style="opacity:1" fill="#c1c399" d="M 241.5,346.5 C 237.432,340.194 232.099,338.861 225.5,342.5C 223.167,342.833 221.833,344.167 221.5,346.5C 219.938,346.733 218.605,347.4 217.5,348.5C 217.549,345.901 218.549,343.734 220.5,342C 226.883,339.038 233.549,337.204 240.5,336.5C 240.616,339.86 240.949,343.193 241.5,346.5 Z"/></g>
<g><path style="opacity:0.961" fill="#8e9d9c" d="M 297.5,331.5 C 295.792,335.572 293.126,338.905 289.5,341.5C 289.5,340.833 289.5,340.167 289.5,339.5C 290.833,337.833 292.167,336.167 293.5,334.5C 294.833,333.5 296.167,332.5 297.5,331.5 Z"/></g>
<g><path style="opacity:0.303" fill="#a5d0ee" d="M 116.5,337.5 C 118.117,338.038 119.784,338.371 121.5,338.5C 121.5,338.833 121.5,339.167 121.5,339.5C 119.302,339.88 117.635,339.213 116.5,337.5 Z"/></g>
<g><path style="opacity:1" fill="#8e988f" d="M 121.5,339.5 C 121.5,339.167 121.5,338.833 121.5,338.5C 125.833,338.5 130.167,338.5 134.5,338.5C 135.5,338.5 136.5,338.5 137.5,338.5C 132.364,340.47 127.03,340.803 121.5,339.5 Z"/></g>
<g><path style="opacity:0.343" fill="#a2cae9" d="M 198.5,337.5 C 199.167,337.833 199.833,338.167 200.5,338.5C 201.338,338.842 201.672,339.508 201.5,340.5C 202.167,342.5 202.833,344.5 203.5,346.5C 201.076,343.992 199.41,340.992 198.5,337.5 Z"/></g>
<g><path style="opacity:1" fill="#a1a78f" d="M 289.5,339.5 C 289.5,340.167 289.5,340.833 289.5,341.5C 288.027,343.395 286.36,345.061 284.5,346.5C 284.475,342.86 286.142,340.527 289.5,339.5 Z"/></g>
<g><path style="opacity:0.486" fill="#8ea2ae" d="M 225.5,342.5 C 224.5,344.167 223.167,345.5 221.5,346.5C 221.833,344.167 223.167,342.833 225.5,342.5 Z"/></g>
<g><path style="opacity:0.992" fill="#8f9d97" d="M 201.5,340.5 C 202.728,341.306 203.728,342.306 204.5,343.5C 205.385,347.046 207.385,349.712 210.5,351.5C 206.763,351.759 204.43,350.093 203.5,346.5C 202.833,344.5 202.167,342.5 201.5,340.5 Z"/></g>
<g><path style="opacity:0.063" fill="#899794" d="M 221.5,346.5 C 219.977,349.364 217.643,351.031 214.5,351.5C 215.694,350.728 216.694,349.728 217.5,348.5C 218.605,347.4 219.938,346.733 221.5,346.5 Z"/></g>
<g><path style="opacity:0.241" fill="#8e9e9d" d="M 241.5,346.5 C 241.957,348.773 243.29,350.106 245.5,350.5C 249.132,351.984 252.466,353.984 255.5,356.5C 251.217,354.905 246.883,353.405 242.5,352C 240.905,348.142 238.572,344.809 235.5,342C 232.174,341.828 228.841,341.995 225.5,342.5C 232.099,338.861 237.432,340.194 241.5,346.5 Z"/></g>
<g><path style="opacity:1" fill="#b7ba96" d="M 245.5,350.5 C 248.572,350.183 251.572,350.516 254.5,351.5C 256.325,354.357 258.325,357.024 260.5,359.5C 258.326,359.25 256.659,358.25 255.5,356.5C 252.466,353.984 249.132,351.984 245.5,350.5 Z"/></g>
<g><path style="opacity:0.243" fill="#8a958f" d="M 281.5,349.5 C 277.629,356.032 271.795,359.699 264,360.5C 262.615,360.486 261.449,360.152 260.5,359.5C 268.633,358.601 275.633,355.267 281.5,349.5 Z"/></g>
<g><path style="opacity:1" fill="#e2e3c4" d="M 326.5,372.5 C 330.858,373.394 335.191,374.728 339.5,376.5C 341.867,380.57 343.867,384.903 345.5,389.5C 350.982,391.771 356.648,393.438 362.5,394.5C 366.833,394.833 369.167,397.167 369.5,401.5C 369.18,404.898 369.513,408.232 370.5,411.5C 373.279,413.624 376.279,415.291 379.5,416.5C 383.752,419.774 386.419,424.107 387.5,429.5C 387.335,432.518 387.502,435.518 388,438.5C 390.031,441.355 392.197,444.022 394.5,446.5C 396.316,448.118 397.649,450.118 398.5,452.5C 398.335,455.518 398.502,458.518 399,461.5C 401.382,463.389 403.882,465.055 406.5,466.5C 407.906,466.973 408.573,467.973 408.5,469.5C 409.606,478.368 408.272,486.868 404.5,495C 403.552,495.483 402.552,495.649 401.5,495.5C 395.842,493.06 389.842,492.227 383.5,493C 382.619,493.708 381.953,494.542 381.5,495.5C 374.175,497.021 366.841,497.354 359.5,496.5C 354.959,493.875 349.959,492.209 344.5,491.5C 339.491,490.24 335.325,487.574 332,483.5C 326.967,475.432 322.467,467.098 318.5,458.5C 318.666,452.824 318.499,447.157 318,441.5C 314.643,437.644 311.476,433.644 308.5,429.5C 305.572,428.516 302.572,428.183 299.5,428.5C 292.669,426.588 287.003,422.921 282.5,417.5C 281.008,409.573 280.508,401.573 281,393.5C 285.442,387.22 290.942,382.22 297.5,378.5C 306.869,375.105 316.536,373.105 326.5,372.5 Z"/></g>
<g><path style="opacity:1" fill="#969c86" d="M 326.5,372.5 C 316.536,373.105 306.869,375.105 297.5,378.5C 299.612,376.794 301.945,375.461 304.5,374.5C 309.803,373.141 315.303,372.141 321,371.5C 323.033,371.506 324.866,371.839 326.5,372.5 Z"/></g>
<g><path style="opacity:0.988" fill="#8e9584" d="M 326.5,372.5 C 329.85,372.335 333.183,372.502 336.5,373C 337.71,374.039 338.71,375.206 339.5,376.5C 335.191,374.728 330.858,373.394 326.5,372.5 Z"/></g>
<g><path style="opacity:0.941" fill="#8e9a9d" d="M 344.5,382.5 C 346.833,384.167 348.833,386.167 350.5,388.5C 347.5,387.5 345.5,385.5 344.5,382.5 Z"/></g>
<g><path style="opacity:1" fill="#bcbf95" d="M 339.5,376.5 C 341.914,377.911 343.581,379.911 344.5,382.5C 345.5,385.5 347.5,387.5 350.5,388.5C 354.412,390.692 358.412,392.692 362.5,394.5C 356.648,393.438 350.982,391.771 345.5,389.5C 343.867,384.903 341.867,380.57 339.5,376.5 Z"/></g>
<g><path style="opacity:0.867" fill="#8a9591" d="M 350.5,388.5 C 356.792,389.811 362.792,391.977 368.5,395C 370.863,399.59 372.53,404.423 373.5,409.5C 371.619,407.07 370.285,404.404 369.5,401.5C 369.167,397.167 366.833,394.833 362.5,394.5C 358.412,392.692 354.412,390.692 350.5,388.5 Z"/></g>
<g><path style="opacity:1" fill="#bdbf97" d="M 369.5,401.5 C 370.285,404.404 371.619,407.07 373.5,409.5C 373.833,409.5 374.167,409.5 374.5,409.5C 375.754,412.093 377.42,414.427 379.5,416.5C 376.279,415.291 373.279,413.624 370.5,411.5C 369.513,408.232 369.18,404.898 369.5,401.5 Z"/></g>
<g><path style="opacity:0.718" fill="#8b948b" d="M 304.5,374.5 C 301.945,375.461 299.612,376.794 297.5,378.5C 290.942,382.22 285.442,387.22 281,393.5C 280.508,401.573 281.008,409.573 282.5,417.5C 280.933,416.319 280.099,414.653 280,412.5C 279.333,405.5 279.333,398.5 280,391.5C 285.62,384.873 292.12,379.373 299.5,375C 301.134,374.506 302.801,374.34 304.5,374.5 Z"/></g>
<g><path style="opacity:0.984" fill="#8d9a99" d="M 374.5,409.5 C 380.987,414.155 385.82,420.155 389,427.5C 389.494,429.134 389.66,430.801 389.5,432.5C 388.833,431.5 388.167,430.5 387.5,429.5C 386.419,424.107 383.752,419.774 379.5,416.5C 377.42,414.427 375.754,412.093 374.5,409.5 Z"/></g>
<g><path style="opacity:0.98" fill="#899590" d="M 282.5,417.5 C 287.003,422.921 292.669,426.588 299.5,428.5C 300.5,429.167 301.5,429.833 302.5,430.5C 301.5,430.5 300.5,430.5 299.5,430.5C 291.766,428.755 286.1,424.421 282.5,417.5 Z"/></g>
<g><path style="opacity:0.271" fill="#9cb8cd" d="M 299.5,430.5 C 300.5,430.5 301.5,430.5 302.5,430.5C 308.297,430.969 311.964,433.969 313.5,439.5C 311.704,438.207 310.037,436.707 308.5,435C 305.16,433.997 302.16,432.497 299.5,430.5 Z"/></g>
<g><path style="opacity:1" fill="#bec097" d="M 299.5,428.5 C 302.572,428.183 305.572,428.516 308.5,429.5C 311.476,433.644 314.643,437.644 318,441.5C 318.499,447.157 318.666,452.824 318.5,458.5C 317.743,454.119 316.743,449.786 315.5,445.5C 315.029,443.421 314.363,441.421 313.5,439.5C 311.964,433.969 308.297,430.969 302.5,430.5C 301.5,429.833 300.5,429.167 299.5,428.5 Z"/></g>
<g><path style="opacity:1" fill="#b2b596" d="M 387.5,429.5 C 388.167,430.5 388.833,431.5 389.5,432.5C 391.165,436.495 392.832,440.495 394.5,444.5C 394.5,445.167 394.5,445.833 394.5,446.5C 392.197,444.022 390.031,441.355 388,438.5C 387.502,435.518 387.335,432.518 387.5,429.5 Z"/></g>
<g><path style="opacity:0.969" fill="#8a958a" d="M 394.5,444.5 C 399.466,447.765 401.799,452.432 401.5,458.5C 400.203,456.629 399.203,454.629 398.5,452.5C 397.649,450.118 396.316,448.118 394.5,446.5C 394.5,445.833 394.5,445.167 394.5,444.5 Z"/></g>
<g><path style="opacity:1" fill="#b2b593" d="M 398.5,452.5 C 399.203,454.629 400.203,456.629 401.5,458.5C 403.985,460.652 405.651,463.319 406.5,466.5C 403.882,465.055 401.382,463.389 399,461.5C 398.502,458.518 398.335,455.518 398.5,452.5 Z"/></g>
<g><path style="opacity:0.992" fill="#919c93" d="M 315.5,445.5 C 316.743,449.786 317.743,454.119 318.5,458.5C 322.467,467.098 326.967,475.432 332,483.5C 335.325,487.574 339.491,490.24 344.5,491.5C 348.251,492.973 351.917,494.64 355.5,496.5C 354.833,496.5 354.167,496.5 353.5,496.5C 347.413,494.626 341.413,492.459 335.5,490C 328.203,480.582 322.036,470.416 317,459.5C 315.691,454.934 315.191,450.267 315.5,445.5 Z"/></g>
<g><path style="opacity:1" fill="#a7aa86" d="M 401.5,495.5 C 398.833,495.5 396.167,495.5 393.5,495.5C 393.167,495.5 392.833,495.5 392.5,495.5C 389.5,494.167 386.5,494.167 383.5,495.5C 382.833,495.5 382.167,495.5 381.5,495.5C 381.953,494.542 382.619,493.708 383.5,493C 389.842,492.227 395.842,493.06 401.5,495.5 Z"/></g>
<g><path style="opacity:0.922" fill="#92afc4" d="M 392.5,495.5 C 389.545,496.159 386.545,496.492 383.5,496.5C 383.5,496.167 383.5,495.833 383.5,495.5C 386.5,494.167 389.5,494.167 392.5,495.5 Z"/></g>
<g><path style="opacity:0.498" fill="#8e978a" d="M 408.5,469.5 C 410.033,471.634 410.7,474.134 410.5,477C 409.996,483.688 408.662,490.188 406.5,496.5C 401.968,496.818 397.634,496.485 393.5,495.5C 396.167,495.5 398.833,495.5 401.5,495.5C 402.552,495.649 403.552,495.483 404.5,495C 408.272,486.868 409.606,478.368 408.5,469.5 Z"/></g>
<g><path style="opacity:1" fill="#b0b38d" d="M 344.5,491.5 C 349.959,492.209 354.959,493.875 359.5,496.5C 358.833,496.5 358.167,496.5 357.5,496.5C 356.833,496.5 356.167,496.5 355.5,496.5C 351.917,494.64 348.251,492.973 344.5,491.5 Z"/></g>
<g><path style="opacity:1" fill="#939e91" d="M 381.5,495.5 C 382.167,495.5 382.833,495.5 383.5,495.5C 383.5,495.833 383.5,496.167 383.5,496.5C 377.101,498.415 370.435,499.415 363.5,499.5C 361.5,498.5 359.5,497.5 357.5,496.5C 358.167,496.5 358.833,496.5 359.5,496.5C 366.841,497.354 374.175,497.021 381.5,495.5 Z"/></g>
<g><path style="opacity:0.392" fill="#a4d0f2" d="M 353.5,496.5 C 354.167,496.5 354.833,496.5 355.5,496.5C 356.167,496.5 356.833,496.5 357.5,496.5C 359.5,497.5 361.5,498.5 363.5,499.5C 359.742,499.605 356.408,498.605 353.5,496.5 Z"/></g>
</svg>
