<?xml version="1.0" encoding="UTF-8"?>
<!DOCTYPE svg PUBLIC "-//W3C//DTD SVG 1.1//EN" "http://www.w3.org/Graphics/SVG/1.1/DTD/svg11.dtd">
<svg xmlns="http://www.w3.org/2000/svg" version="1.1" width="288px" height="239px" style="shape-rendering:geometricPrecision; text-rendering:geometricPrecision; image-rendering:optimizeQuality; fill-rule:evenodd; clip-rule:evenodd" xmlns:xlink="http://www.w3.org/1999/xlink">
<g><path style="opacity:1" fill="#aee5d9" d="M 55.5,5.5 C 68.0595,4.55909 74.3928,10.3924 74.5,23C 74.6616,25.502 73.9949,27.6687 72.5,29.5C 71.2058,30.2899 70.0391,31.2899 69,32.5C 68.5014,36.1516 68.3347,39.8183 68.5,43.5C 68.4287,46.6523 67.0954,48.9856 64.5,50.5C 62.0721,51.2122 59.7388,52.2122 57.5,53.5C 56.5067,58.1196 56.1734,62.7863 56.5,67.5C 56.4828,69.5648 56.1495,71.5648 55.5,73.5C 55.5,74.1667 55.1667,74.5 54.5,74.5C 50.0452,79.5467 44.8786,80.5467 39,77.5C 36.8713,74.2328 35.038,70.8995 33.5,67.5C 33.8503,64.2785 34.5169,61.1118 35.5,58C 31.2693,53.5386 26.2693,50.0386 20.5,47.5C 19.8333,47.5 19.1667,47.5 18.5,47.5C 17.7377,45.7376 16.4044,44.7376 14.5,44.5C 12.5389,42.0365 10.3722,39.7032 8,37.5C 5.34122,32.2558 5.00789,26.9224 7,21.5C 9.67699,18.99 12.177,16.3233 14.5,13.5C 15.391,12.8902 16.391,12.5569 17.5,12.5C 21.8495,14.5825 25.1829,13.5825 27.5,9.5C 29.8453,6.92497 32.8453,5.92497 36.5,6.5C 41.0849,9.18961 46.0849,10.3563 51.5,10C 53.0414,8.62879 54.3747,7.12879 55.5,5.5 Z"/></g>
<g><path style="opacity:0.898" fill="#7ca4af" d="M 51.5,6.5 C 46.6529,7.61862 41.6529,7.61862 36.5,6.5C 32.8453,5.92497 29.8453,6.92497 27.5,9.5C 25.8828,10.038 24.2161,10.3713 22.5,10.5C 20.8333,10.5 19.1667,10.5 17.5,10.5C 19.631,9.68618 21.9644,9.18618 24.5,9C 25.8782,7.28663 27.5448,5.9533 29.5,5C 36.8749,4.72808 44.2083,5.22808 51.5,6.5 Z"/></g>
<g><path style="opacity:1" fill="#78c1b3" d="M 55.5,5.5 C 54.3747,7.12879 53.0414,8.62879 51.5,10C 46.0849,10.3563 41.0849,9.18961 36.5,6.5C 41.6529,7.61862 46.6529,7.61862 51.5,6.5C 52.8333,6.16667 54.1667,5.83333 55.5,5.5 Z"/></g>
<g><path style="opacity:0.988" fill="#6d9595" d="M 55.5,5.5 C 68.9863,3.1374 75.653,8.97074 75.5,23C 75.3333,25.1667 75.1667,27.3333 75,29.5C 74.2917,30.3805 73.4584,31.0472 72.5,31.5C 72.5,30.8333 72.5,30.1667 72.5,29.5C 73.9949,27.6687 74.6616,25.502 74.5,23C 74.3928,10.3924 68.0595,4.55909 55.5,5.5 Z"/></g>
<g><path style="opacity:0.996" fill="#6b9292" d="M 17.5,10.5 C 19.1667,10.5 20.8333,10.5 22.5,10.5C 20.8333,11.1667 19.1667,11.8333 17.5,12.5C 16.391,12.5569 15.391,12.8902 14.5,13.5C 14.1667,13.5 13.8333,13.5 13.5,13.5C 14.2623,11.7376 15.5956,10.7376 17.5,10.5 Z"/></g>
<g><path style="opacity:1" fill="#74c3b3" d="M 27.5,9.5 C 25.1829,13.5825 21.8495,14.5825 17.5,12.5C 19.1667,11.8333 20.8333,11.1667 22.5,10.5C 24.2161,10.3713 25.8828,10.038 27.5,9.5 Z"/></g>
<g><path style="opacity:0.996" fill="#6d9b9b" d="M 13.5,13.5 C 13.8333,13.5 14.1667,13.5 14.5,13.5C 12.177,16.3233 9.67699,18.99 7,21.5C 5.00789,26.9224 5.34122,32.2558 8,37.5C 10.3722,39.7032 12.5389,42.0365 14.5,44.5C 3.76738,38.1414 1.26738,29.4747 7,18.5C 9.32793,17.0007 11.4946,15.334 13.5,13.5 Z"/></g>
<g><path style="opacity:1" fill="#7cc9ba" d="M 72.5,29.5 C 72.5,30.1667 72.5,30.8333 72.5,31.5C 72.5,31.8333 72.5,32.1667 72.5,32.5C 70.7202,33.9899 70.0535,35.9899 70.5,38.5C 69.8333,40.1667 69.1667,41.8333 68.5,43.5C 68.3347,39.8183 68.5014,36.1516 69,32.5C 70.0391,31.2899 71.2058,30.2899 72.5,29.5 Z"/></g>
<g><path style="opacity:0.992" fill="#8dabb7" d="M 72.5,32.5 C 72.1916,36.3597 71.5249,40.0264 70.5,43.5C 70.5,41.8333 70.5,40.1667 70.5,38.5C 70.0535,35.9899 70.7202,33.9899 72.5,32.5 Z"/></g>
<g><path style="opacity:0.808" fill="#68918f" d="M 14.5,44.5 C 16.4044,44.7376 17.7377,45.7376 18.5,47.5C 16.5956,47.2624 15.2623,46.2624 14.5,44.5 Z"/></g>
<g><path style="opacity:0.969" fill="#68999b" d="M 70.5,38.5 C 70.5,40.1667 70.5,41.8333 70.5,43.5C 70.4997,47.1746 68.833,49.8413 65.5,51.5C 65.1667,51.5 64.8333,51.5 64.5,51.5C 64.5,51.1667 64.5,50.8333 64.5,50.5C 67.0954,48.9856 68.4287,46.6523 68.5,43.5C 69.1667,41.8333 69.8333,40.1667 70.5,38.5 Z"/></g>
<g><path style="opacity:0.714" fill="#83a1ac" d="M 18.5,47.5 C 19.1667,47.5 19.8333,47.5 20.5,47.5C 23.5203,50.5162 26.8536,53.1829 30.5,55.5C 30.5,56.1667 30.5,56.8333 30.5,57.5C 29.8333,57.1667 29.1667,56.8333 28.5,56.5C 25.1667,53.5 21.8333,50.5 18.5,47.5 Z"/></g>
<g><path style="opacity:1" fill="#7bcaba" d="M 64.5,50.5 C 64.5,50.8333 64.5,51.1667 64.5,51.5C 63.5,52.1667 62.5,52.8333 61.5,53.5C 60.5041,53.4142 59.6708,53.7476 59,54.5C 58.5045,56.4727 58.3379,58.4727 58.5,60.5C 58.5,61.5 58.5,62.5 58.5,63.5C 57.8333,64.8333 57.1667,66.1667 56.5,67.5C 56.1734,62.7863 56.5067,58.1196 57.5,53.5C 59.7388,52.2122 62.0721,51.2122 64.5,50.5 Z"/></g>
<g><path style="opacity:1" fill="#a8dbd0" d="M 61.5,53.5 C 60.3443,55.8239 59.3443,58.1572 58.5,60.5C 58.3379,58.4727 58.5045,56.4727 59,54.5C 59.6708,53.7476 60.5041,53.4142 61.5,53.5 Z"/></g>
<g><path style="opacity:1" fill="#6cbbac" d="M 20.5,47.5 C 26.2693,50.0386 31.2693,53.5386 35.5,58C 34.5169,61.1118 33.8503,64.2785 33.5,67.5C 32.596,66.791 32.2627,65.791 32.5,64.5C 32.5,63.5 32.5,62.5 32.5,61.5C 35.5377,58.4861 34.871,56.4861 30.5,55.5C 26.8536,53.1829 23.5203,50.5162 20.5,47.5 Z"/></g>
<g><path style="opacity:1" fill="#a5ddd1" d="M 30.5,55.5 C 34.871,56.4861 35.5377,58.4861 32.5,61.5C 32.7709,59.6203 32.1042,58.287 30.5,57.5C 30.5,56.8333 30.5,56.1667 30.5,55.5 Z"/></g>
<g><path style="opacity:0.984" fill="#8dabbc" d="M 64.5,51.5 C 64.8333,51.5 65.1667,51.5 65.5,51.5C 62.0362,56.4193 59.7028,61.7526 58.5,67.5C 58.5,66.1667 58.5,64.8333 58.5,63.5C 58.5,62.5 58.5,61.5 58.5,60.5C 59.3443,58.1572 60.3443,55.8239 61.5,53.5C 62.5,52.8333 63.5,52.1667 64.5,51.5 Z"/></g>
<g><path style="opacity:0.194" fill="#a2cef0" d="M 28.5,56.5 C 29.1667,56.8333 29.8333,57.1667 30.5,57.5C 30.6596,59.153 31.3263,60.4863 32.5,61.5C 32.5,62.5 32.5,63.5 32.5,64.5C 30.659,62.1515 29.3257,59.4848 28.5,56.5 Z"/></g>
<g><path style="opacity:0.973" fill="#80969e" d="M 30.5,57.5 C 32.1042,58.287 32.7709,59.6203 32.5,61.5C 31.3263,60.4863 30.6596,59.153 30.5,57.5 Z"/></g>
<g><path style="opacity:0.624" fill="#6b9596" d="M 58.5,63.5 C 58.5,64.8333 58.5,66.1667 58.5,67.5C 58.539,70.089 57.539,72.089 55.5,73.5C 56.1495,71.5648 56.4828,69.5648 56.5,67.5C 57.1667,66.1667 57.8333,64.8333 58.5,63.5 Z"/></g>
<g><path style="opacity:0.533" fill="#6c9594" d="M 33.5,67.5 C 35.038,70.8995 36.8713,74.2328 39,77.5C 44.8786,80.5467 50.0452,79.5467 54.5,74.5C 53.7457,77.091 52.079,78.9243 49.5,80C 39.3983,82.0739 34.065,77.9072 33.5,67.5 Z"/></g>
<g><path style="opacity:1" fill="#aee5d9" d="M 184.5,96.5 C 185.833,97.1667 186.833,98.1667 187.5,99.5C 188.051,102.807 188.384,106.14 188.5,109.5C 194.264,108.937 199.597,107.271 204.5,104.5C 208.532,103.234 212.532,103.234 216.5,104.5C 217.191,108.272 219.524,109.938 223.5,109.5C 227.713,109.282 231.713,108.616 235.5,107.5C 238.513,107.107 241.18,107.774 243.5,109.5C 243.953,110.458 244.619,111.292 245.5,112C 249.486,112.499 253.486,112.666 257.5,112.5C 258.167,112.5 258.833,112.5 259.5,112.5C 260.514,113.674 261.847,114.34 263.5,114.5C 267.025,119.907 269.025,125.907 269.5,132.5C 267.011,136.881 267.011,141.214 269.5,145.5C 268.167,149.833 268.167,154.167 269.5,158.5C 267.124,162.405 266.124,166.739 266.5,171.5C 264.833,175.5 263.167,179.5 261.5,183.5C 259.547,187.12 256.881,190.12 253.5,192.5C 250.111,194.22 246.444,194.887 242.5,194.5C 242.5,193.833 242.167,193.5 241.5,193.5C 238.078,191.182 234.245,189.515 230,188.5C 228.124,188.525 226.624,189.191 225.5,190.5C 223.5,190.5 221.5,190.5 219.5,190.5C 215.806,188.588 211.806,188.088 207.5,189C 202.757,190.47 198.091,192.136 193.5,194C 191.84,195.488 190.84,197.321 190.5,199.5C 190.5,200.167 190.5,200.833 190.5,201.5C 190.5,201.833 190.5,202.167 190.5,202.5C 185.998,209.486 180.998,216.153 175.5,222.5C 168.872,226.993 161.538,228.659 153.5,227.5C 152.209,227.737 151.209,227.404 150.5,226.5C 149.069,222.277 146.069,220.277 141.5,220.5C 139.167,219.167 136.833,217.833 134.5,216.5C 133.5,216.167 132.833,215.5 132.5,214.5C 131.758,212.02 130.758,209.687 129.5,207.5C 128.83,204.327 127.664,201.327 126,198.5C 124.301,197.594 122.467,197.261 120.5,197.5C 117.937,197.269 116.27,195.935 115.5,193.5C 115.461,190.679 114.795,188.012 113.5,185.5C 109.939,183.221 106.273,181.221 102.5,179.5C 101.486,178.326 100.153,177.66 98.5,177.5C 96.1645,174.835 93.1645,173.502 89.5,173.5C 89.5,174.833 89.5,176.167 89.5,177.5C 87.8067,180.184 86.14,182.851 84.5,185.5C 83.1667,187.5 81.5,189.167 79.5,190.5C 77.1667,190.5 74.8333,190.5 72.5,190.5C 72.5,191.833 72.5,193.167 72.5,194.5C 71.2921,195.234 69.9587,195.567 68.5,195.5C 61.3763,197.292 54.7097,196.292 48.5,192.5C 42.674,185.29 43.674,178.957 51.5,173.5C 58.1478,172.191 61.4812,168.191 61.5,161.5C 62.0102,158.326 63.6769,155.992 66.5,154.5C 71.8791,151.775 75.5458,147.441 77.5,141.5C 77.3318,139.829 76.6651,138.496 75.5,137.5C 75.4672,133.131 75.8005,128.798 76.5,124.5C 78.2766,121.495 79.2766,118.162 79.5,114.5C 79.3284,113.508 79.6618,112.842 80.5,112.5C 82.2459,110.748 84.2459,109.415 86.5,108.5C 91.2219,108.313 94.2219,105.98 95.5,101.5C 95.7329,99.9382 96.3995,98.6049 97.5,97.5C 99.1667,97.5 100.833,97.5 102.5,97.5C 106.738,98.5156 111.071,99.6823 115.5,101C 118.065,103.08 120.732,104.913 123.5,106.5C 123.738,108.404 124.738,109.738 126.5,110.5C 126.427,112.027 127.094,113.027 128.5,113.5C 129.338,113.842 129.672,114.508 129.5,115.5C 129.232,117.099 129.566,118.432 130.5,119.5C 130.97,127.094 134.97,131.76 142.5,133.5C 147.267,131.112 151.267,127.779 154.5,123.5C 158.105,121.073 161.605,118.407 165,115.5C 165.498,112.518 165.665,109.518 165.5,106.5C 169.48,98.8836 175.813,95.5503 184.5,96.5 Z"/></g>
<g><path style="opacity:0.694" fill="#679693" d="M 102.5,97.5 C 111.348,96.4475 118.348,99.4475 123.5,106.5C 120.732,104.913 118.065,103.08 115.5,101C 111.071,99.6823 106.738,98.5156 102.5,97.5 Z"/></g>
<g><path style="opacity:0.984" fill="#659190" d="M 184.5,96.5 C 175.813,95.5503 169.48,98.8836 165.5,106.5C 164.833,107.5 164.167,108.5 163.5,109.5C 163.5,108.833 163.5,108.167 163.5,107.5C 167.675,97.9142 174.675,94.2475 184.5,96.5 Z"/></g>
<g><path style="opacity:0.678" fill="#7f9ea6" d="M 97.5,97.5 C 96.3995,98.6049 95.7329,99.9382 95.5,101.5C 92.6372,104.01 89.6372,106.343 86.5,108.5C 84.2459,109.415 82.2459,110.748 80.5,112.5C 81.2026,110.284 82.5359,108.451 84.5,107C 89.3146,104.332 93.6479,101.165 97.5,97.5 Z"/></g>
<g><path style="opacity:1" fill="#6dbfaf" d="M 95.5,101.5 C 94.2219,105.98 91.2219,108.313 86.5,108.5C 89.6372,106.343 92.6372,104.01 95.5,101.5 Z"/></g>
<g><path style="opacity:1" fill="#abe3d7" d="M 189.5,102.5 C 191.461,104.312 193.794,105.312 196.5,105.5C 194.891,106.771 193.058,107.771 191,108.5C 190.495,106.482 189.995,104.482 189.5,102.5 Z"/></g>
<g><path style="opacity:0.984" fill="#7fa2a6" d="M 189.5,102.5 C 189.5,102.167 189.5,101.833 189.5,101.5C 191.426,102.242 193.259,103.242 195,104.5C 200.428,103.345 205.928,102.345 211.5,101.5C 216.681,102.94 221.681,104.607 226.5,106.5C 225.167,106.5 223.833,106.5 222.5,106.5C 220.421,106.029 218.421,105.363 216.5,104.5C 212.532,103.234 208.532,103.234 204.5,104.5C 201.833,104.833 199.167,105.167 196.5,105.5C 193.794,105.312 191.461,104.312 189.5,102.5 Z"/></g>
<g><path style="opacity:1" fill="#6bc2b1" d="M 187.5,99.5 C 188.5,99.8333 189.167,100.5 189.5,101.5C 189.5,101.833 189.5,102.167 189.5,102.5C 189.995,104.482 190.495,106.482 191,108.5C 193.058,107.771 194.891,106.771 196.5,105.5C 199.167,105.167 201.833,104.833 204.5,104.5C 199.597,107.271 194.264,108.937 188.5,109.5C 188.384,106.14 188.051,102.807 187.5,99.5 Z"/></g>
<g><path style="opacity:0.992" fill="#739496" d="M 222.5,106.5 C 223.833,106.5 225.167,106.5 226.5,106.5C 232.509,106.334 238.509,106.501 244.5,107C 246.898,108.524 249.231,110.024 251.5,111.5C 248.673,111.416 246.006,110.75 243.5,109.5C 241.18,107.774 238.513,107.107 235.5,107.5C 230.968,107.818 226.634,107.485 222.5,106.5 Z"/></g>
<g><path style="opacity:0.784" fill="#61948d" d="M 123.5,106.5 C 125.262,107.262 126.262,108.596 126.5,110.5C 124.738,109.738 123.738,108.404 123.5,106.5 Z"/></g>
<g><path style="opacity:1" fill="#74c7b6" d="M 216.5,104.5 C 218.421,105.363 220.421,106.029 222.5,106.5C 226.634,107.485 230.968,107.818 235.5,107.5C 231.713,108.616 227.713,109.282 223.5,109.5C 219.524,109.938 217.191,108.272 216.5,104.5 Z"/></g>
<g><path style="opacity:1" fill="#65b4a5" d="M 243.5,109.5 C 246.006,110.75 248.673,111.416 251.5,111.5C 253.735,111.205 255.735,111.539 257.5,112.5C 253.486,112.666 249.486,112.499 245.5,112C 244.619,111.292 243.953,110.458 243.5,109.5 Z"/></g>
<g><path style="opacity:0.431" fill="#61928b" d="M 126.5,110.5 C 127.906,110.973 128.573,111.973 128.5,113.5C 127.094,113.027 126.427,112.027 126.5,110.5 Z"/></g>
<g><path style="opacity:0.976" fill="#88a2b0" d="M 163.5,107.5 C 163.5,108.167 163.5,108.833 163.5,109.5C 162.773,111.954 161.773,114.287 160.5,116.5C 160.167,116.5 159.833,116.5 159.5,116.5C 159.5,115.833 159.5,115.167 159.5,114.5C 160.839,112.127 162.172,109.793 163.5,107.5 Z"/></g>
<g><path style="opacity:0.996" fill="#609089" d="M 259.5,112.5 C 261.38,112.229 262.713,112.896 263.5,114.5C 261.847,114.34 260.514,113.674 259.5,112.5 Z"/></g>
<g><path style="opacity:1" fill="#6ba39a" d="M 79.5,114.5 C 79.2766,118.162 78.2766,121.495 76.5,124.5C 76.5,123.833 76.5,123.167 76.5,122.5C 76.7329,119.458 77.7329,116.792 79.5,114.5 Z"/></g>
<g><path style="opacity:1" fill="#74c6b6" d="M 165.5,106.5 C 165.665,109.518 165.498,112.518 165,115.5C 161.605,118.407 158.105,121.073 154.5,123.5C 156.5,121.167 158.5,118.833 160.5,116.5C 161.773,114.287 162.773,111.954 163.5,109.5C 164.167,108.5 164.833,107.5 165.5,106.5 Z"/></g>
<g><path style="opacity:0.776" fill="#9fc9e9" d="M 159.5,114.5 C 159.5,115.167 159.5,115.833 159.5,116.5C 156.833,118.5 154.5,120.833 152.5,123.5C 152.5,124.167 152.167,124.5 151.5,124.5C 150.833,124.5 150.167,124.5 149.5,124.5C 152.5,120.833 155.833,117.5 159.5,114.5 Z"/></g>
<g><path style="opacity:0.584" fill="#699292" d="M 263.5,114.5 C 269.957,120.346 272.291,127.679 270.5,136.5C 270.167,136.5 269.833,136.5 269.5,136.5C 269.5,135.167 269.5,133.833 269.5,132.5C 269.025,125.907 267.025,119.907 263.5,114.5 Z"/></g>
<g><path style="opacity:0.918" fill="#6e9da0" d="M 19.5,111.5 C 28.6114,111.138 36.1114,114.471 42,121.5C 42.848,139.739 35.6813,143.573 20.5,133C 13.0228,126.272 12.6894,119.105 19.5,111.5 Z"/></g>
<g><path style="opacity:1" fill="#abe3d7" d="M 20.5,112.5 C 28.9147,113.125 35.748,116.792 41,123.5C 41.3693,128.276 39.8693,132.443 36.5,136C 29.0981,136.052 22.9315,133.219 18,127.5C 15.6243,121.963 16.4576,116.963 20.5,112.5 Z"/></g>
<g><path style="opacity:1" fill="#79a09b" d="M 159.5,116.5 C 159.833,116.5 160.167,116.5 160.5,116.5C 158.5,118.833 156.5,121.167 154.5,123.5C 153.833,123.5 153.167,123.5 152.5,123.5C 154.5,120.833 156.833,118.5 159.5,116.5 Z"/></g>
<g><path style="opacity:0.71" fill="#88a8b2" d="M 129.5,115.5 C 132.021,119.354 134.688,123.188 137.5,127C 138.872,127.402 140.205,127.902 141.5,128.5C 144.426,127.547 147.093,126.213 149.5,124.5C 150.167,124.5 150.833,124.5 151.5,124.5C 149.5,126.167 147.5,127.833 145.5,129.5C 143.167,129.5 140.833,129.5 138.5,129.5C 136.771,128.883 135.271,127.883 134,126.5C 133.102,123.931 131.935,121.598 130.5,119.5C 129.566,118.432 129.232,117.099 129.5,115.5 Z"/></g>
<g><path style="opacity:1" fill="#6cc2b1" d="M 130.5,119.5 C 131.935,121.598 133.102,123.931 134,126.5C 135.271,127.883 136.771,128.883 138.5,129.5C 140.956,133.255 143.29,133.255 145.5,129.5C 147.5,127.833 149.5,126.167 151.5,124.5C 152.167,124.5 152.5,124.167 152.5,123.5C 153.167,123.5 153.833,123.5 154.5,123.5C 151.267,127.779 147.267,131.112 142.5,133.5C 134.97,131.76 130.97,127.094 130.5,119.5 Z"/></g>
<g><path style="opacity:1" fill="#a3dbcf" d="M 138.5,129.5 C 140.833,129.5 143.167,129.5 145.5,129.5C 143.29,133.255 140.956,133.255 138.5,129.5 Z"/></g>
<g><path style="opacity:0.992" fill="#7399a0" d="M 76.5,122.5 C 76.5,123.167 76.5,123.833 76.5,124.5C 75.8005,128.798 75.4672,133.131 75.5,137.5C 75.8893,140.553 75.2227,143.22 73.5,145.5C 73.3342,140.821 73.5008,136.155 74,131.5C 74.2037,128.203 75.037,125.203 76.5,122.5 Z"/></g>
<g><path style="opacity:1" fill="#6db4a6" d="M 269.5,132.5 C 269.5,133.833 269.5,135.167 269.5,136.5C 269.5,138.5 269.5,140.5 269.5,142.5C 269.5,143.5 269.5,144.5 269.5,145.5C 267.011,141.214 267.011,136.881 269.5,132.5 Z"/></g>
<g><path style="opacity:0.918" fill="#96b9d1" d="M 269.5,136.5 C 269.833,136.5 270.167,136.5 270.5,136.5C 271.299,139.43 271.632,142.43 271.5,145.5C 270.833,144.5 270.167,143.5 269.5,142.5C 269.5,140.5 269.5,138.5 269.5,136.5 Z"/></g>
<g><path style="opacity:1" fill="#6ec1b0" d="M 75.5,137.5 C 76.6651,138.496 77.3318,139.829 77.5,141.5C 75.5458,147.441 71.8791,151.775 66.5,154.5C 69.2394,151.767 71.5727,148.767 73.5,145.5C 75.2227,143.22 75.8893,140.553 75.5,137.5 Z"/></g>
<g><path style="opacity:1" fill="#74a0a3" d="M 269.5,142.5 C 270.167,143.5 270.833,144.5 271.5,145.5C 272.093,154.597 270.76,163.264 267.5,171.5C 267.748,167.094 268.415,162.76 269.5,158.5C 268.167,154.167 268.167,149.833 269.5,145.5C 269.5,144.5 269.5,143.5 269.5,142.5 Z"/></g>
<g><path style="opacity:0.961" fill="#6d9394" d="M 73.5,145.5 C 71.5727,148.767 69.2394,151.767 66.5,154.5C 63.6769,155.992 62.0102,158.326 61.5,161.5C 60.8333,162.167 60.1667,162.833 59.5,163.5C 59.5,162.833 59.5,162.167 59.5,161.5C 63.0549,155.273 67.7216,149.94 73.5,145.5 Z"/></g>
<g><path style="opacity:0.525" fill="#a2ccee" d="M 59.5,161.5 C 59.5,162.167 59.5,162.833 59.5,163.5C 58.8333,163.833 58.1667,164.167 57.5,164.5C 57.427,162.973 58.0937,161.973 59.5,161.5 Z"/></g>
<g><path style="opacity:1" fill="#72c2b2" d="M 269.5,158.5 C 268.415,162.76 267.748,167.094 267.5,171.5C 267.167,171.5 266.833,171.5 266.5,171.5C 266.124,166.739 267.124,162.405 269.5,158.5 Z"/></g>
<g><path style="opacity:0.941" fill="#8faec1" d="M 59.5,163.5 C 58.2249,167.773 55.5582,170.773 51.5,172.5C 50.8333,172.5 50.1667,172.5 49.5,172.5C 52.5,170.167 55.1667,167.5 57.5,164.5C 58.1667,164.167 58.8333,163.833 59.5,163.5 Z"/></g>
<g><path style="opacity:1" fill="#71c2b2" d="M 61.5,161.5 C 61.4812,168.191 58.1478,172.191 51.5,173.5C 51.5,173.167 51.5,172.833 51.5,172.5C 55.5582,170.773 58.2249,167.773 59.5,163.5C 60.1667,162.833 60.8333,162.167 61.5,161.5 Z"/></g>
<g><path style="opacity:1" fill="#70c3b3" d="M 98.5,177.5 C 96.6336,176.986 94.8003,176.32 93,175.5C 91.6974,175.978 90.5307,176.645 89.5,177.5C 89.5,176.167 89.5,174.833 89.5,173.5C 93.1645,173.502 96.1645,174.835 98.5,177.5 Z"/></g>
<g><path style="opacity:0.984" fill="#669692" d="M 266.5,171.5 C 266.833,171.5 267.167,171.5 267.5,171.5C 267.067,176.367 265.067,180.367 261.5,183.5C 263.167,179.5 264.833,175.5 266.5,171.5 Z"/></g>
<g><path style="opacity:1" fill="#76a1a2" d="M 98.5,177.5 C 100.153,177.66 101.486,178.326 102.5,179.5C 103.167,180.5 103.833,181.5 104.5,182.5C 100.63,180.983 96.7964,179.316 93,177.5C 89.948,179.941 87.1147,182.607 84.5,185.5C 86.14,182.851 87.8067,180.184 89.5,177.5C 90.5307,176.645 91.6974,175.978 93,175.5C 94.8003,176.32 96.6336,176.986 98.5,177.5 Z"/></g>
<g><path style="opacity:0.988" fill="#849ea7" d="M 104.5,182.5 C 107.427,183.757 109.761,185.757 111.5,188.5C 108.573,187.243 106.239,185.243 104.5,182.5 Z"/></g>
<g><path style="opacity:1" fill="#77c4b5" d="M 102.5,179.5 C 106.273,181.221 109.939,183.221 113.5,185.5C 114.795,188.012 115.461,190.679 115.5,193.5C 114.728,192.306 113.728,191.306 112.5,190.5C 111.662,190.158 111.328,189.492 111.5,188.5C 109.761,185.757 107.427,183.757 104.5,182.5C 103.833,181.5 103.167,180.5 102.5,179.5 Z"/></g>
<g><path style="opacity:0.953" fill="#70989b" d="M 49.5,172.5 C 50.1667,172.5 50.8333,172.5 51.5,172.5C 51.5,172.833 51.5,173.167 51.5,173.5C 43.674,178.957 42.674,185.29 48.5,192.5C 45.0645,191.398 43.0645,189.064 42.5,185.5C 43.5517,180.392 45.885,176.058 49.5,172.5 Z"/></g>
<g><path style="opacity:1" fill="#70c0b0" d="M 241.5,193.5 C 236.355,191.548 231.022,190.548 225.5,190.5C 226.624,189.191 228.124,188.525 230,188.5C 234.245,189.515 238.078,191.182 241.5,193.5 Z"/></g>
<g><path style="opacity:1" fill="#6db7a8" d="M 79.5,190.5 C 79.5,191.167 79.1667,191.5 78.5,191.5C 75.9664,191.259 74.2998,192.259 73.5,194.5C 73.1667,194.5 72.8333,194.5 72.5,194.5C 72.5,193.167 72.5,191.833 72.5,190.5C 74.8333,190.5 77.1667,190.5 79.5,190.5 Z"/></g>
<g><path style="opacity:0.953" fill="#93b5ca" d="M 207.5,191.5 C 208.5,191.5 209.5,191.5 210.5,191.5C 207.45,193.101 204.116,194.101 200.5,194.5C 201.167,193.833 201.833,193.167 202.5,192.5C 204.042,191.699 205.708,191.366 207.5,191.5 Z"/></g>
<g><path style="opacity:0.788" fill="#78969b" d="M 78.5,191.5 C 77.0351,192.737 75.3684,193.737 73.5,194.5C 74.2998,192.259 75.9664,191.259 78.5,191.5 Z"/></g>
<g><path style="opacity:1" fill="#6dbeae" d="M 219.5,190.5 C 215.298,190.183 211.298,190.517 207.5,191.5C 205.708,191.366 204.042,191.699 202.5,192.5C 197.55,193.305 193.55,195.638 190.5,199.5C 190.84,197.321 191.84,195.488 193.5,194C 198.091,192.136 202.757,190.47 207.5,189C 211.806,188.088 215.806,188.588 219.5,190.5 Z"/></g>
<g><path style="opacity:0.745" fill="#82a3af" d="M 207.5,191.5 C 211.298,190.517 215.298,190.183 219.5,190.5C 221.5,190.5 223.5,190.5 225.5,190.5C 231.022,190.548 236.355,191.548 241.5,193.5C 242.167,193.5 242.5,193.833 242.5,194.5C 242.5,194.833 242.5,195.167 242.5,195.5C 232.165,192.103 221.498,190.77 210.5,191.5C 209.5,191.5 208.5,191.5 207.5,191.5 Z"/></g>
<g><path style="opacity:0.834" fill="#5f8584" d="M 253.5,192.5 C 253.047,193.458 252.381,194.292 251.5,195C 248.518,195.498 245.518,195.665 242.5,195.5C 242.5,195.167 242.5,194.833 242.5,194.5C 246.444,194.887 250.111,194.22 253.5,192.5 Z"/></g>
<g><path style="opacity:0.412" fill="#659394" d="M 48.5,192.5 C 54.7097,196.292 61.3763,197.292 68.5,195.5C 62.5851,198.169 56.5851,198.002 50.5,195C 49.6195,194.292 48.9528,193.458 48.5,192.5 Z"/></g>
<g><path style="opacity:0.98" fill="#86a5b0" d="M 202.5,192.5 C 201.833,193.167 201.167,193.833 200.5,194.5C 196.635,196.025 193.302,198.358 190.5,201.5C 190.5,200.833 190.5,200.167 190.5,199.5C 193.55,195.638 197.55,193.305 202.5,192.5 Z"/></g>
<g><path style="opacity:0.996" fill="#799da1" d="M 112.5,190.5 C 113.728,191.306 114.728,192.306 115.5,193.5C 116.27,195.935 117.937,197.269 120.5,197.5C 124.212,200.211 127.212,203.544 129.5,207.5C 130.758,209.687 131.758,212.02 132.5,214.5C 129.082,211.561 126.582,207.894 125,203.5C 121.567,201.349 118.234,199.015 115,196.5C 113.878,194.593 113.045,192.593 112.5,190.5 Z"/></g>
<g><path style="opacity:1" fill="#77c7b7" d="M 120.5,197.5 C 122.467,197.261 124.301,197.594 126,198.5C 127.664,201.327 128.83,204.327 129.5,207.5C 127.212,203.544 124.212,200.211 120.5,197.5 Z"/></g>
<g><path style="opacity:0.024" fill="#a4d2f5" d="M 189.5,207.5 C 189.573,209.027 188.906,210.027 187.5,210.5C 187.427,208.973 188.094,207.973 189.5,207.5 Z"/></g>
<g><path style="opacity:0.949" fill="#6f9ea1" d="M 190.5,202.5 C 190.784,204.415 190.451,206.081 189.5,207.5C 188.094,207.973 187.427,208.973 187.5,210.5C 184.535,215.43 180.869,219.763 176.5,223.5C 176.5,222.833 176.167,222.5 175.5,222.5C 180.998,216.153 185.998,209.486 190.5,202.5 Z"/></g>
<g><path style="opacity:0.749" fill="#7b9b9f" d="M 134.5,216.5 C 136.833,217.833 139.167,219.167 141.5,220.5C 144.009,221.921 146.343,223.588 148.5,225.5C 142.805,223.992 138.138,220.992 134.5,216.5 Z"/></g>
<g><path style="opacity:1" fill="#6dbaab" d="M 141.5,220.5 C 146.069,220.277 149.069,222.277 150.5,226.5C 149.508,226.672 148.842,226.338 148.5,225.5C 146.343,223.588 144.009,221.921 141.5,220.5 Z"/></g>
<g><path style="opacity:0.651" fill="#608e88" d="M 175.5,222.5 C 176.167,222.5 176.5,222.833 176.5,223.5C 169.38,228.36 161.713,229.693 153.5,227.5C 161.538,228.659 168.872,226.993 175.5,222.5 Z"/></g>
</svg>
