<?xml version="1.0" encoding="UTF-8"?>
<!DOCTYPE svg PUBLIC "-//W3C//DTD SVG 1.1//EN" "http://www.w3.org/Graphics/SVG/1.1/DTD/svg11.dtd">
<svg xmlns="http://www.w3.org/2000/svg" version="1.1" width="685px" height="504px" style="shape-rendering:geometricPrecision; text-rendering:geometricPrecision; image-rendering:optimizeQuality; fill-rule:evenodd; clip-rule:evenodd" xmlns:xlink="http://www.w3.org/1999/xlink">
<g><path style="opacity:1" fill="#f1e4ca" d="M 491.5,19.5 C 492.331,22.659 493.331,25.659 494.5,28.5C 494.5,28.8333 494.5,29.1667 494.5,29.5C 494.891,34.2587 494.891,38.9253 494.5,43.5C 491.597,45.3047 490.264,47.9714 490.5,51.5C 490.678,54.7374 491.345,57.7374 492.5,60.5C 492.326,62.861 491.993,65.1944 491.5,67.5C 489.549,68.7158 488.049,70.3825 487,72.5C 484.965,83.4264 484.298,94.4264 485,105.5C 488.036,108.704 491.203,111.704 494.5,114.5C 499.972,123.69 506.972,125.024 515.5,118.5C 519.881,118.372 524.215,118.705 528.5,119.5C 531.564,122.06 534.897,122.726 538.5,121.5C 542.332,120.697 544.665,118.363 545.5,114.5C 549.369,112.811 552.869,110.478 556,107.5C 556.499,103.848 556.665,100.182 556.5,96.5C 556.366,94.7085 556.699,93.0418 557.5,91.5C 561.261,88.9565 564.594,85.9565 567.5,82.5C 565.271,77.5993 562.605,72.9326 559.5,68.5C 559.043,67.7025 558.376,67.3691 557.5,67.5C 557.167,66.8333 556.833,66.1667 556.5,65.5C 558.127,63.3702 559.96,61.3702 562,59.5C 562.499,53.5092 562.666,47.5092 562.5,41.5C 563.527,39.8058 564.861,38.4725 566.5,37.5C 570.853,37.2354 575.187,36.7354 579.5,36C 580.397,33.9129 581.064,31.7463 581.5,29.5C 582.167,28.1667 583.167,27.1667 584.5,26.5C 591.468,22.6427 598.801,21.6427 606.5,23.5C 606.414,24.4959 606.748,25.3292 607.5,26C 608.833,26.1667 610.167,26.3333 611.5,26.5C 617.474,25.6923 623.474,25.359 629.5,25.5C 632.802,28.0869 635.136,31.4202 636.5,35.5C 636.338,37.5273 636.505,39.5273 637,41.5C 638.395,45.9219 640.229,49.9219 642.5,53.5C 642.5,54.1667 642.5,54.8333 642.5,55.5C 642.552,58.3462 643.552,60.6796 645.5,62.5C 647.681,66.5261 649.181,70.8594 650,75.5C 650.678,77.5976 650.511,79.5976 649.5,81.5C 647.078,82.6923 646.078,84.6923 646.5,87.5C 646.44,90.1554 647.107,92.4888 648.5,94.5C 648.5,97.1667 648.5,99.8333 648.5,102.5C 646.762,104.119 646.262,106.119 647,108.5C 648.709,111.418 650.542,114.252 652.5,117C 659.158,117.5 665.825,117.666 672.5,117.5C 671.823,122.559 670.823,127.559 669.5,132.5C 662.833,135.5 656.167,138.5 649.5,141.5C 646.667,145.167 643.833,148.833 641,152.5C 641.693,158.725 644.193,164.225 648.5,169C 644.993,171.254 641.327,173.254 637.5,175C 638.598,175.77 638.598,176.603 637.5,177.5C 635.901,177.232 634.568,177.566 633.5,178.5C 627.396,181.386 621.396,184.553 615.5,188C 611.833,188.333 608.167,188.667 604.5,189C 596.691,196.838 587.857,203.005 578,207.5C 580.454,223.491 583.954,239.325 588.5,255C 587.214,256.649 585.547,257.815 583.5,258.5C 582.114,263.428 581.114,268.428 580.5,273.5C 569.535,276.325 558.535,278.991 547.5,281.5C 548.005,289.525 548.838,297.525 550,305.5C 555.455,310.4 558.288,316.4 558.5,323.5C 558.167,326.167 557.833,328.833 557.5,331.5C 550.255,335.039 543.089,338.706 536,342.5C 536.701,350.308 538.201,357.974 540.5,365.5C 534.866,371.304 529.366,377.304 524,383.5C 524.543,389.984 526.043,396.317 528.5,402.5C 526.256,405.972 523.756,409.305 521,412.5C 519.991,414.025 519.491,415.692 519.5,417.5C 515.838,417.277 512.505,416.277 509.5,414.5C 503.938,412.034 498.105,410.034 492,408.5C 484.896,411.966 478.396,416.299 472.5,421.5C 470.608,424.276 468.941,427.276 467.5,430.5C 465.234,431.314 462.9,431.814 460.5,432C 459.663,433.011 459.33,434.178 459.5,435.5C 449.858,437.395 440.192,439.228 430.5,441C 425.5,446 420.5,451 415.5,456C 406.583,458.32 397.583,460.32 388.5,462C 386.833,463.667 385.167,465.333 383.5,467C 378.893,466.283 374.226,465.949 369.5,466C 361.964,473.368 354.631,480.868 347.5,488.5C 341.491,488.666 335.491,488.499 329.5,488C 325.5,480.333 321.5,472.667 317.5,465C 309.95,462.475 302.283,460.809 294.5,460C 289.979,464.022 285.312,467.856 280.5,471.5C 278.407,476.843 275.407,481.677 271.5,486C 262.533,487.293 253.533,488.293 244.5,489C 240.946,493.953 237.279,498.786 233.5,503.5C 232.833,503.5 232.167,503.5 231.5,503.5C 223.385,498.941 215.052,494.608 206.5,490.5C 205.82,481.941 205.153,473.441 204.5,465C 194.396,462.779 184.23,460.946 174,459.5C 169.618,459.845 165.285,460.512 161,461.5C 153.556,459.517 146.056,457.851 138.5,456.5C 137.322,469.255 135.489,481.921 133,494.5C 125.694,490.431 118.194,486.764 110.5,483.5C 105.051,485.724 99.7179,488.224 94.5,491C 89.8315,490.838 85.1648,490.338 80.5,489.5C 72.4964,485.168 64.1631,481.335 55.5,478C 53.6667,475.5 51.8333,473 50,470.5C 49.8026,453.083 48.8026,435.749 47,418.5C 52.15,413.927 57.4833,409.594 63,405.5C 66.8483,399.01 68.3483,392.01 67.5,384.5C 54.3499,386.37 41.3499,389.037 28.5,392.5C 28.0358,390.025 27.0358,388.025 25.5,386.5C 25.5,379.833 25.5,373.167 25.5,366.5C 22.8806,366.768 20.3806,366.435 18,365.5C 13.5526,357.604 9.38591,349.604 5.5,341.5C 19.8069,337.926 33.9735,333.926 48,329.5C 48.6667,328.5 48.6667,327.5 48,326.5C 44.2277,319.954 40.7277,313.288 37.5,306.5C 39.1594,298.833 42.1594,291.833 46.5,285.5C 48.9806,285.226 50.6473,283.893 51.5,281.5C 59.3787,280.011 67.3787,279.011 75.5,278.5C 76.9149,274.334 78.2482,270.167 79.5,266C 88.0969,263.189 96.7636,260.689 105.5,258.5C 107.012,253.272 108.012,247.938 108.5,242.5C 117.149,241.446 125.816,240.946 134.5,241C 136.167,242.667 137.833,244.333 139.5,246C 150.431,248.455 161.431,250.122 172.5,251C 173.381,250.292 174.047,249.458 174.5,248.5C 172.287,233.933 169.62,219.433 166.5,205C 169.989,197.215 173.489,189.382 177,181.5C 179.069,180.736 181.236,180.236 183.5,180C 185.054,177.713 186.721,175.546 188.5,173.5C 191.089,172.581 193.089,170.914 194.5,168.5C 196.749,167.92 198.415,166.587 199.5,164.5C 201.749,163.92 203.415,162.587 204.5,160.5C 206.749,159.92 208.415,158.587 209.5,156.5C 210.167,156.5 210.833,156.5 211.5,156.5C 213.98,157.242 216.313,158.242 218.5,159.5C 221.687,161.344 223.687,164.011 224.5,167.5C 223.903,171.832 223.737,176.165 224,180.5C 224.377,181.942 225.21,182.942 226.5,183.5C 227.239,188.399 230.072,190.399 235,189.5C 239.491,189.827 242.991,188.161 245.5,184.5C 248.288,182.024 251.622,181.024 255.5,181.5C 259.495,183.825 263.828,184.992 268.5,185C 269.823,184.184 270.489,183.017 270.5,181.5C 272.401,181.567 274.234,181.233 276,180.5C 280.355,182.317 284.855,182.817 289.5,182C 291.324,181.34 292.657,180.173 293.5,178.5C 296.096,177.735 298.763,177.401 301.5,177.5C 305.244,179.152 309.244,179.652 313.5,179C 316.692,176.308 320.025,173.808 323.5,171.5C 324.631,169.926 324.798,168.259 324,166.5C 322.167,162.167 320.333,157.833 318.5,153.5C 316.757,151.962 314.757,150.962 312.5,150.5C 310.833,148.5 309.167,146.5 307.5,144.5C 307.291,143.078 306.791,141.745 306,140.5C 302.91,138.549 300.41,136.049 298.5,133C 299.916,130.355 300.583,127.521 300.5,124.5C 299.096,109.199 298.263,93.8661 298,78.5C 296.933,76.3083 295.433,74.6417 293.5,73.5C 292.094,73.0269 291.427,72.0269 291.5,70.5C 289.903,66.8106 287.903,63.3106 285.5,60C 281.179,59.501 276.846,59.3343 272.5,59.5C 271.5,57.8333 270.167,56.5 268.5,55.5C 267.088,50.9289 266.088,46.2622 265.5,41.5C 265.383,38.56 266.05,35.8933 267.5,33.5C 275.927,33.0963 284.26,33.763 292.5,35.5C 298.423,35.1473 304.089,34.1473 309.5,32.5C 311.5,32.5 313.5,32.5 315.5,32.5C 319.884,32.8256 324.217,32.4922 328.5,31.5C 329.63,30.3777 330.297,29.0443 330.5,27.5C 332.275,24.7891 334.609,22.7891 337.5,21.5C 337.842,20.6618 338.508,20.3284 339.5,20.5C 342.187,20.3359 344.854,20.5026 347.5,21C 349.734,22.7498 352.068,24.2498 354.5,25.5C 356.077,27.5837 357.91,29.5837 360,31.5C 360.49,32.7932 360.657,34.1266 360.5,35.5C 359.833,36.1667 359.167,36.8333 358.5,37.5C 357.001,39.1643 356.001,41.1643 355.5,43.5C 357.117,47.603 357.951,51.9364 358,56.5C 361.197,60.5024 364.697,64.1691 368.5,67.5C 369.338,67.8417 369.672,68.5084 369.5,69.5C 368.305,74.8325 369.972,78.8325 374.5,81.5C 377.557,86.9294 381.557,91.5961 386.5,95.5C 392.06,93.4879 397.227,90.8212 402,87.5C 401.888,80.4812 401.221,73.4812 400,66.5C 398.292,64.4565 396.292,62.7899 394,61.5C 393.517,60.552 393.351,59.552 393.5,58.5C 396.135,55.921 398.301,52.921 400,49.5C 402.069,47.9146 404.236,46.5813 406.5,45.5C 409.247,45.8134 411.914,45.48 414.5,44.5C 416.765,40.6511 418.431,36.6511 419.5,32.5C 420.08,30.2512 421.413,28.5846 423.5,27.5C 425.801,26.9396 428.134,26.4396 430.5,26C 431.823,25.1841 432.489,24.0174 432.5,22.5C 434.102,20.9261 436.102,20.2594 438.5,20.5C 443.768,20.1132 448.934,20.1132 454,20.5C 457.383,17.4081 461.217,16.7415 465.5,18.5C 467.408,22.0801 470.074,25.0801 473.5,27.5C 477.188,24.479 480.521,21.1456 483.5,17.5C 486.685,15.963 489.352,16.6296 491.5,19.5 Z"/></g>
<g><path style="opacity:1" fill="#aea794" d="M 465.5,18.5 C 461.217,16.7415 457.383,17.4081 454,20.5C 448.934,20.1132 443.768,20.1132 438.5,20.5C 446.879,17.8413 455.545,16.6747 464.5,17C 465.056,17.3826 465.389,17.8826 465.5,18.5 Z"/></g>
<g><path style="opacity:0.992" fill="#959b9b" d="M 491.5,19.5 C 489.352,16.6296 486.685,15.963 483.5,17.5C 481.002,18.9123 478.336,20.0789 475.5,21C 473.613,21.7796 471.946,21.6129 470.5,20.5C 476,19.2213 481.334,17.5546 486.5,15.5C 489.533,15.3075 491.199,16.6408 491.5,19.5 Z"/></g>
<g><path style="opacity:0.973" fill="#999b95" d="M 339.5,20.5 C 342.64,19.3592 345.973,19.1925 349.5,20C 352.079,21.0757 353.746,22.909 354.5,25.5C 352.068,24.2498 349.734,22.7498 347.5,21C 344.854,20.5026 342.187,20.3359 339.5,20.5 Z"/></g>
<g><path style="opacity:0.663" fill="#8f928d" d="M 491.5,19.5 C 494.075,21.8453 495.075,24.8453 494.5,28.5C 493.331,25.659 492.331,22.659 491.5,19.5 Z"/></g>
<g><path style="opacity:0.988" fill="#908f83" d="M 337.5,21.5 C 334.609,22.7891 332.275,24.7891 330.5,27.5C 330.167,27.5 329.833,27.5 329.5,27.5C 329.5,27.1667 329.5,26.8333 329.5,26.5C 331.159,23.167 333.825,21.5003 337.5,21.5 Z"/></g>
<g><path style="opacity:0.714" fill="#919898" d="M 623.5,24.5 C 617.788,24.687 612.121,24.3537 606.5,23.5C 598.801,21.6427 591.468,22.6427 584.5,26.5C 589.503,22.4475 595.336,20.4475 602,20.5C 609.206,21.8771 616.373,23.2105 623.5,24.5 Z"/></g>
<g><path style="opacity:1" fill="#baad92" d="M 432.5,22.5 C 432.489,24.0174 431.823,25.1841 430.5,26C 428.134,26.4396 425.801,26.9396 423.5,27.5C 426.008,25.0764 429.008,23.4097 432.5,22.5 Z"/></g>
<g><path style="opacity:1" fill="#dac9a7" d="M 483.5,17.5 C 480.521,21.1456 477.188,24.479 473.5,27.5C 470.074,25.0801 467.408,22.0801 465.5,18.5C 467.167,19.1667 468.833,19.8333 470.5,20.5C 471.946,21.6129 473.613,21.7796 475.5,21C 478.336,20.0789 481.002,18.9123 483.5,17.5 Z"/></g>
<g><path style="opacity:1" fill="#cdbc99" d="M 606.5,23.5 C 612.121,24.3537 617.788,24.687 623.5,24.5C 625.5,24.5 627.5,24.5 629.5,24.5C 629.5,24.8333 629.5,25.1667 629.5,25.5C 623.474,25.359 617.474,25.6923 611.5,26.5C 610.167,26.3333 608.833,26.1667 607.5,26C 606.748,25.3292 606.414,24.4959 606.5,23.5 Z"/></g>
<g><path style="opacity:0.773" fill="#929ca1" d="M 354.5,25.5 C 359.696,27.2824 361.696,30.6158 360.5,35.5C 360.657,34.1266 360.49,32.7932 360,31.5C 357.91,29.5837 356.077,27.5837 354.5,25.5 Z"/></g>
<g><path style="opacity:0.561" fill="#9abeda" d="M 329.5,26.5 C 329.5,26.8333 329.5,27.1667 329.5,27.5C 327.287,28.7729 324.954,29.7729 322.5,30.5C 324.336,28.412 326.669,27.0787 329.5,26.5 Z"/></g>
<g><path style="opacity:0.894" fill="#97a2a5" d="M 629.5,24.5 C 632.643,25.1335 635.143,26.8002 637,29.5C 638.154,33.447 638.987,37.447 639.5,41.5C 638.5,39.5 637.5,37.5 636.5,35.5C 635.136,31.4202 632.802,28.0869 629.5,25.5C 629.5,25.1667 629.5,24.8333 629.5,24.5 Z"/></g>
<g><path style="opacity:1" fill="#c1b395" d="M 329.5,27.5 C 329.833,27.5 330.167,27.5 330.5,27.5C 330.297,29.0443 329.63,30.3777 328.5,31.5C 324.217,32.4922 319.884,32.8256 315.5,32.5C 317.515,31.0762 319.848,30.4095 322.5,30.5C 324.954,29.7729 327.287,28.7729 329.5,27.5 Z"/></g>
<g><path style="opacity:1" fill="#d3c3a1" d="M 267.5,33.5 C 279.171,32.895 290.838,32.5617 302.5,32.5C 304.833,32.5 307.167,32.5 309.5,32.5C 304.089,34.1473 298.423,35.1473 292.5,35.5C 284.26,33.763 275.927,33.0963 267.5,33.5 Z"/></g>
<g><path style="opacity:0.988" fill="#93a4b0" d="M 578.5,31.5 C 576.008,34.6747 572.674,36.3414 568.5,36.5C 571.515,34.3256 574.849,32.6589 578.5,31.5 Z"/></g>
<g><path style="opacity:1" fill="#cfbf9d" d="M 581.5,29.5 C 581.064,31.7463 580.397,33.9129 579.5,36C 575.187,36.7354 570.853,37.2354 566.5,37.5C 566.842,36.6618 567.508,36.3284 568.5,36.5C 572.674,36.3414 576.008,34.6747 578.5,31.5C 579.5,30.8333 580.5,30.1667 581.5,29.5 Z"/></g>
<g><path style="opacity:1" fill="#999b95" d="M 566.5,37.5 C 564.861,38.4725 563.527,39.8058 562.5,41.5C 561.5,46.1667 560.5,50.8333 559.5,55.5C 559.313,49.7876 559.646,44.1209 560.5,38.5C 562.5,38.1667 564.5,37.8333 566.5,37.5 Z"/></g>
<g><path style="opacity:0.827" fill="#919087" d="M 302.5,32.5 C 290.838,32.5617 279.171,32.895 267.5,33.5C 266.05,35.8933 265.383,38.56 265.5,41.5C 266.088,46.2622 267.088,50.9289 268.5,55.5C 266.59,54.0254 265.424,52.0254 265,49.5C 264.333,44.1667 264.333,38.8333 265,33.5C 265.5,33 266,32.5 266.5,32C 278.508,31.5003 290.508,31.667 302.5,32.5 Z"/></g>
<g><path style="opacity:0.625" fill="#8c9191" d="M 360.5,35.5 C 359.626,38.7893 358.959,42.1226 358.5,45.5C 357.503,42.995 357.503,40.3283 358.5,37.5C 359.167,36.8333 359.833,36.1667 360.5,35.5 Z"/></g>
<g><path style="opacity:1" fill="#b8ac92" d="M 636.5,35.5 C 637.5,37.5 638.5,39.5 639.5,41.5C 640.79,44.6418 641.79,47.9752 642.5,51.5C 642.5,52.1667 642.5,52.8333 642.5,53.5C 640.229,49.9219 638.395,45.9219 637,41.5C 636.505,39.5273 636.338,37.5273 636.5,35.5 Z"/></g>
<g><path style="opacity:0.459" fill="#a4d1f4" d="M 413.5,39.5 C 412.016,41.0737 410.349,42.407 408.5,43.5C 407.5,43.5 406.5,43.5 405.5,43.5C 407.849,41.659 410.515,40.3257 413.5,39.5 Z"/></g>
<g><path style="opacity:1" fill="#cabc9f" d="M 419.5,32.5 C 418.431,36.6511 416.765,40.6511 414.5,44.5C 411.914,45.48 409.247,45.8134 406.5,45.5C 407.167,44.8333 407.833,44.1667 408.5,43.5C 410.349,42.407 412.016,41.0737 413.5,39.5C 415.5,37.1667 417.5,34.8333 419.5,32.5 Z"/></g>
<g><path style="opacity:0.988" fill="#979c98" d="M 405.5,43.5 C 406.5,43.5 407.5,43.5 408.5,43.5C 407.833,44.1667 407.167,44.8333 406.5,45.5C 404.236,46.5813 402.069,47.9146 400,49.5C 398.301,52.921 396.135,55.921 393.5,58.5C 395.659,53.3316 398.659,48.6649 402.5,44.5C 403.417,43.8728 404.417,43.5394 405.5,43.5 Z"/></g>
<g><path style="opacity:1" fill="#d1bf9a" d="M 494.5,43.5 C 492.717,48.98 492.051,54.6466 492.5,60.5C 491.345,57.7374 490.678,54.7374 490.5,51.5C 490.264,47.9714 491.597,45.3047 494.5,43.5 Z"/></g>
<g><path style="opacity:0.667" fill="#8f928e" d="M 494.5,29.5 C 497.277,36.1044 497.11,42.7711 494,49.5C 493.667,55.5 493.333,61.5 493,67.5C 492.722,68.4158 492.222,69.0825 491.5,69.5C 491.5,68.8333 491.5,68.1667 491.5,67.5C 491.993,65.1944 492.326,62.861 492.5,60.5C 492.051,54.6466 492.717,48.98 494.5,43.5C 494.891,38.9253 494.891,34.2587 494.5,29.5 Z"/></g>
<g><path style="opacity:0.09" fill="#93958f" d="M 268.5,55.5 C 270.167,56.5 271.5,57.8333 272.5,59.5C 270.167,59.1667 268.833,57.8333 268.5,55.5 Z"/></g>
<g><path style="opacity:1" fill="#b9b19d" d="M 358.5,37.5 C 357.503,40.3283 357.503,42.995 358.5,45.5C 359.117,45.6107 359.617,45.944 360,46.5C 360.333,49.1667 360.667,51.8333 361,54.5C 364.155,58.4802 366.655,62.8136 368.5,67.5C 364.697,64.1691 361.197,60.5024 358,56.5C 357.951,51.9364 357.117,47.603 355.5,43.5C 356.001,41.1643 357.001,39.1643 358.5,37.5 Z"/></g>
<g><path style="opacity:1" fill="#beae8d" d="M 642.5,55.5 C 644.065,57.5093 645.065,59.8427 645.5,62.5C 643.552,60.6796 642.552,58.3462 642.5,55.5 Z"/></g>
<g><path style="opacity:1" fill="#d3c29e" d="M 562.5,41.5 C 562.666,47.5092 562.499,53.5092 562,59.5C 559.96,61.3702 558.127,63.3702 556.5,65.5C 555.957,65.44 555.624,65.1067 555.5,64.5C 557.11,62.2746 558.443,59.9413 559.5,57.5C 559.5,56.8333 559.5,56.1667 559.5,55.5C 560.5,50.8333 561.5,46.1667 562.5,41.5 Z"/></g>
<g><path style="opacity:1" fill="#cfbfa0" d="M 272.5,59.5 C 276.846,59.3343 281.179,59.501 285.5,60C 287.903,63.3106 289.903,66.8106 291.5,70.5C 289.251,69.9202 287.585,68.5869 286.5,66.5C 285.198,64.1782 283.198,62.8449 280.5,62.5C 277.458,62.2671 274.792,61.2671 272.5,59.5 Z"/></g>
<g><path style="opacity:0.604" fill="#959c9e" d="M 280.5,62.5 C 283.198,62.8449 285.198,64.1782 286.5,66.5C 284.147,65.6597 282.147,64.3264 280.5,62.5 Z"/></g>
<g><path style="opacity:0.604" fill="#909491" d="M 559.5,57.5 C 558.443,59.9413 557.11,62.2746 555.5,64.5C 555.624,65.1067 555.957,65.44 556.5,65.5C 556.833,66.1667 557.167,66.8333 557.5,67.5C 558.11,68.391 558.443,69.391 558.5,70.5C 553.067,65.8511 553.4,61.5177 559.5,57.5 Z"/></g>
<g><path style="opacity:0.502" fill="#97a9b5" d="M 370.5,71.5 C 373.883,75.5526 376.883,79.8859 379.5,84.5C 377.999,83.2485 376.332,82.2485 374.5,81.5C 372.98,78.2801 371.647,74.9468 370.5,71.5 Z"/></g>
<g><path style="opacity:1" fill="#c1b498" d="M 491.5,67.5 C 491.5,68.1667 491.5,68.8333 491.5,69.5C 490.282,74.2932 488.949,78.9598 487.5,83.5C 486.111,88.2688 485.444,93.2688 485.5,98.5C 486.382,101.385 487.716,104.052 489.5,106.5C 490.08,108.749 491.413,110.415 493.5,111.5C 497.535,113.848 501.535,116.182 505.5,118.5C 501.736,117.452 498.069,116.119 494.5,114.5C 491.203,111.704 488.036,108.704 485,105.5C 484.298,94.4264 484.965,83.4264 487,72.5C 488.049,70.3825 489.549,68.7158 491.5,67.5 Z"/></g>
<g><path style="opacity:1" fill="#cfbe9a" d="M 369.5,69.5 C 370.338,69.8417 370.672,70.5084 370.5,71.5C 371.647,74.9468 372.98,78.2801 374.5,81.5C 369.972,78.8325 368.305,74.8325 369.5,69.5 Z"/></g>
<g><path style="opacity:1" fill="#d2c2a1" d="M 557.5,67.5 C 558.376,67.3691 559.043,67.7025 559.5,68.5C 562.605,72.9326 565.271,77.5993 567.5,82.5C 564.594,85.9565 561.261,88.9565 557.5,91.5C 557.733,89.9382 558.4,88.6049 559.5,87.5C 561.539,86.089 562.539,84.089 562.5,81.5C 561.619,77.6244 560.286,73.9577 558.5,70.5C 558.443,69.391 558.11,68.391 557.5,67.5 Z"/></g>
<g><path style="opacity:0.908" fill="#939591" d="M 642.5,51.5 C 645.833,58.1845 648.666,65.1845 651,72.5C 649.928,84.4199 649.428,96.4199 649.5,108.5C 648.539,106.735 648.205,104.735 648.5,102.5C 648.5,99.8333 648.5,97.1667 648.5,94.5C 648.372,90.1186 648.705,85.7853 649.5,81.5C 650.511,79.5976 650.678,77.5976 650,75.5C 649.181,70.8594 647.681,66.5261 645.5,62.5C 645.065,59.8427 644.065,57.5093 642.5,55.5C 642.5,54.8333 642.5,54.1667 642.5,53.5C 642.5,52.8333 642.5,52.1667 642.5,51.5 Z"/></g>
<g><path style="opacity:1" fill="#d4c19c" d="M 649.5,81.5 C 648.705,85.7853 648.372,90.1186 648.5,94.5C 647.107,92.4888 646.44,90.1554 646.5,87.5C 646.078,84.6923 647.078,82.6923 649.5,81.5 Z"/></g>
<g><path style="opacity:0.145" fill="#8ea2b1" d="M 394.5,63.5 C 399.603,70.2507 401.437,77.9174 400,86.5C 398.961,87.7101 397.794,88.7101 396.5,89.5C 398.179,87.3045 399.179,84.8045 399.5,82C 398.527,75.6055 396.86,69.4388 394.5,63.5 Z"/></g>
<g><path style="opacity:0.459" fill="#8a9dab" d="M 562.5,81.5 C 562.539,84.089 561.539,86.089 559.5,87.5C 559.992,85.1815 560.992,83.1815 562.5,81.5 Z"/></g>
<g><path style="opacity:1" fill="#ccbb99" d="M 393.5,58.5 C 393.351,59.552 393.517,60.552 394,61.5C 396.292,62.7899 398.292,64.4565 400,66.5C 401.221,73.4812 401.888,80.4812 402,87.5C 397.227,90.8212 392.06,93.4879 386.5,95.5C 381.557,91.5961 377.557,86.9294 374.5,81.5C 376.332,82.2485 377.999,83.2485 379.5,84.5C 382.311,90.4441 386.978,92.6107 393.5,91C 394.056,90.6174 394.389,90.1174 394.5,89.5C 395.167,89.5 395.833,89.5 396.5,89.5C 397.794,88.7101 398.961,87.7101 400,86.5C 401.437,77.9174 399.603,70.2507 394.5,63.5C 392.403,62.1214 392.07,60.4547 393.5,58.5 Z"/></g>
<g><path style="opacity:0.027" fill="#96afc3" d="M 379.5,84.5 C 382.286,86.1126 384.953,87.946 387.5,90C 389.847,90.3336 392.181,90.167 394.5,89.5C 394.389,90.1174 394.056,90.6174 393.5,91C 386.978,92.6107 382.311,90.4441 379.5,84.5 Z"/></g>
<g><path style="opacity:0.639" fill="#8b9090" d="M 487.5,83.5 C 487.556,88.7312 486.889,93.7312 485.5,98.5C 485.444,93.2688 486.111,88.2688 487.5,83.5 Z"/></g>
<g><path style="opacity:0.882" fill="#9c9e94" d="M 559.5,87.5 C 558.4,88.6049 557.733,89.9382 557.5,91.5C 556.699,93.0418 556.366,94.7085 556.5,96.5C 555.833,97.8333 555.167,99.1667 554.5,100.5C 554.335,97.1501 554.502,93.8168 555,90.5C 556.129,88.8588 557.629,87.8588 559.5,87.5 Z"/></g>
<g><path style="opacity:0.918" fill="#959997" d="M 489.5,106.5 C 491.587,107.585 492.92,109.251 493.5,111.5C 491.413,110.415 490.08,108.749 489.5,106.5 Z"/></g>
<g><path style="opacity:1" fill="#c7ba9e" d="M 556.5,96.5 C 556.665,100.182 556.499,103.848 556,107.5C 552.869,110.478 549.369,112.811 545.5,114.5C 548.988,110.201 551.988,105.535 554.5,100.5C 555.167,99.1667 555.833,97.8333 556.5,96.5 Z"/></g>
<g><path style="opacity:0.516" fill="#898f8f" d="M 296.5,102.5 C 297.946,108.274 298.612,114.274 298.5,120.5C 297.19,114.712 296.523,108.712 296.5,102.5 Z"/></g>
<g><path style="opacity:1" fill="#d0ba9d" d="M 648.5,102.5 C 648.205,104.735 648.539,106.735 649.5,108.5C 651.266,110.771 653.266,112.937 655.5,115C 661.825,115.5 668.158,115.666 674.5,115.5C 674.81,118.713 674.477,121.713 673.5,124.5C 672.257,127.677 671.257,131.01 670.5,134.5C 663.271,136.452 656.604,139.452 650.5,143.5C 647.175,146.832 644.175,150.499 641.5,154.5C 643.109,158.74 645.442,162.407 648.5,165.5C 650.099,166.799 650.599,168.465 650,170.5C 646.021,173.238 641.855,175.571 637.5,177.5C 638.598,176.603 638.598,175.77 637.5,175C 641.327,173.254 644.993,171.254 648.5,169C 644.193,164.225 641.693,158.725 641,152.5C 643.833,148.833 646.667,145.167 649.5,141.5C 656.167,138.5 662.833,135.5 669.5,132.5C 670.823,127.559 671.823,122.559 672.5,117.5C 665.825,117.666 659.158,117.5 652.5,117C 650.542,114.252 648.709,111.418 647,108.5C 646.262,106.119 646.762,104.119 648.5,102.5 Z"/></g>
<g><path style="opacity:0.996" fill="#99988d" d="M 530.5,119.5 C 529.833,119.5 529.167,119.5 528.5,119.5C 524.215,118.705 519.881,118.372 515.5,118.5C 515.167,118.5 514.833,118.5 514.5,118.5C 516.29,117.003 518.456,116.336 521,116.5C 524.61,116.427 527.777,117.427 530.5,119.5 Z"/></g>
<g><path style="opacity:1" fill="#ada592" d="M 545.5,114.5 C 544.665,118.363 542.332,120.697 538.5,121.5C 536.5,120.833 534.5,120.167 532.5,119.5C 535.247,119.813 537.914,119.48 540.5,118.5C 541.605,116.389 543.271,115.055 545.5,114.5 Z"/></g>
<g><path style="opacity:1" fill="#dac9a6" d="M 494.5,114.5 C 498.069,116.119 501.736,117.452 505.5,118.5C 508.5,118.5 511.5,118.5 514.5,118.5C 514.833,118.5 515.167,118.5 515.5,118.5C 506.972,125.024 499.972,123.69 494.5,114.5 Z"/></g>
<g><path style="opacity:1" fill="#d1be98" d="M 528.5,119.5 C 529.167,119.5 529.833,119.5 530.5,119.5C 531.167,119.5 531.833,119.5 532.5,119.5C 534.5,120.167 536.5,120.833 538.5,121.5C 534.897,122.726 531.564,122.06 528.5,119.5 Z"/></g>
<g><path style="opacity:1" fill="#c1b394" d="M 293.5,73.5 C 295.433,74.6417 296.933,76.3083 298,78.5C 298.263,93.8661 299.096,109.199 300.5,124.5C 300.583,127.521 299.916,130.355 298.5,133C 300.41,136.049 302.91,138.549 306,140.5C 306.791,141.745 307.291,143.078 307.5,144.5C 306.061,142.64 304.395,140.973 302.5,139.5C 300.5,138.167 298.833,136.5 297.5,134.5C 298.2,130.202 298.533,125.869 298.5,121.5C 298.5,121.167 298.5,120.833 298.5,120.5C 298.612,114.274 297.946,108.274 296.5,102.5C 297.191,92.5981 296.191,82.9314 293.5,73.5 Z"/></g>
<g><path style="opacity:0.445" fill="#b881af" d="M 673.5,124.5 C 673.665,127.518 673.498,130.518 673,133.5C 672.329,134.252 671.496,134.586 670.5,134.5C 671.257,131.01 672.257,127.677 673.5,124.5 Z"/></g>
<g><path style="opacity:0.984" fill="#8e9eaa" d="M 298.5,121.5 C 298.533,125.869 298.2,130.202 297.5,134.5C 296.853,133.726 296.52,132.726 296.5,131.5C 296.901,127.976 297.567,124.642 298.5,121.5 Z"/></g>
<g><path style="opacity:0.225" fill="#b67bae" d="M 670.5,134.5 C 664.128,138.017 657.462,141.017 650.5,143.5C 656.604,139.452 663.271,136.452 670.5,134.5 Z"/></g>
<g><path style="opacity:0.973" fill="#94a2aa" d="M 302.5,139.5 C 304.395,140.973 306.061,142.64 307.5,144.5C 309.167,146.5 310.833,148.5 312.5,150.5C 314.909,152.902 316.909,155.569 318.5,158.5C 311.669,153.344 306.336,147.01 302.5,139.5 Z"/></g>
<g><path style="opacity:0.89" fill="#afd29e" d="M 214.5,152.5 C 214.5,153.167 214.5,153.833 214.5,154.5C 212.973,154.427 211.973,155.094 211.5,156.5C 210.833,156.5 210.167,156.5 209.5,156.5C 210.585,154.413 212.251,153.08 214.5,152.5 Z"/></g>
<g><path style="opacity:1" fill="#cfbe9c" d="M 214.5,154.5 C 216.587,155.585 217.92,157.251 218.5,159.5C 216.313,158.242 213.98,157.242 211.5,156.5C 211.973,155.094 212.973,154.427 214.5,154.5 Z"/></g>
<g><path style="opacity:0.957" fill="#a9ce93" d="M 209.5,156.5 C 208.415,158.587 206.749,159.92 204.5,160.5C 205.585,158.413 207.251,157.08 209.5,156.5 Z"/></g>
<g><path style="opacity:0.984" fill="#969d9d" d="M 214.5,152.5 C 217.797,155.296 220.964,158.296 224,161.5C 225.128,163.345 225.628,165.345 225.5,167.5C 225.167,167.5 224.833,167.5 224.5,167.5C 223.687,164.011 221.687,161.344 218.5,159.5C 217.92,157.251 216.587,155.585 214.5,154.5C 214.5,153.833 214.5,153.167 214.5,152.5 Z"/></g>
<g><path style="opacity:0.894" fill="#b77eb0" d="M 650.5,143.5 C 648.614,147.399 646.281,151.066 643.5,154.5C 645.453,158.069 647.119,161.736 648.5,165.5C 645.442,162.407 643.109,158.74 641.5,154.5C 644.175,150.499 647.175,146.832 650.5,143.5 Z"/></g>
<g><path style="opacity:0.949" fill="#a9ce93" d="M 204.5,160.5 C 203.415,162.587 201.749,163.92 199.5,164.5C 200.585,162.413 202.251,161.08 204.5,160.5 Z"/></g>
<g><path style="opacity:0.933" fill="#a9ce93" d="M 199.5,164.5 C 198.415,166.587 196.749,167.92 194.5,168.5C 195.585,166.413 197.251,165.08 199.5,164.5 Z"/></g>
<g><path style="opacity:1" fill="#cebfa0" d="M 312.5,150.5 C 314.757,150.962 316.757,151.962 318.5,153.5C 320.333,157.833 322.167,162.167 324,166.5C 324.798,168.259 324.631,169.926 323.5,171.5C 320.025,173.808 316.692,176.308 313.5,179C 309.244,179.652 305.244,179.152 301.5,177.5C 306.248,177.725 310.915,177.225 315.5,176C 317.464,174.549 318.797,172.716 319.5,170.5C 319.817,166.298 319.483,162.298 318.5,158.5C 316.909,155.569 314.909,152.902 312.5,150.5 Z"/></g>
<g><path style="opacity:0.922" fill="#accd93" d="M 194.5,168.5 C 193.089,170.914 191.089,172.581 188.5,173.5C 189.911,171.086 191.911,169.419 194.5,168.5 Z"/></g>
<g><path style="opacity:1" fill="#bbb199" d="M 224.5,167.5 C 224.833,167.5 225.167,167.5 225.5,167.5C 225.263,174.147 226.929,180.147 230.5,185.5C 229.167,184.833 227.833,184.167 226.5,183.5C 225.21,182.942 224.377,181.942 224,180.5C 223.737,176.165 223.903,171.832 224.5,167.5 Z"/></g>
<g><path style="opacity:0.271" fill="#9bc2e0" d="M 314.5,174.5 C 309.928,176.558 305.262,176.891 300.5,175.5C 305.193,175.46 309.859,175.127 314.5,174.5 Z"/></g>
<g><path style="opacity:1" fill="#9a9c98" d="M 319.5,170.5 C 318.797,172.716 317.464,174.549 315.5,176C 310.915,177.225 306.248,177.725 301.5,177.5C 298.763,177.401 296.096,177.735 293.5,178.5C 290.692,179.929 287.692,180.595 284.5,180.5C 289.574,178.031 294.907,176.364 300.5,175.5C 305.262,176.891 309.928,176.558 314.5,174.5C 316.142,173.197 317.809,171.864 319.5,170.5 Z"/></g>
<g><path style="opacity:0.435" fill="#8dd087" d="M 183.5,177.5 C 181.369,178.314 179.036,178.814 176.5,179C 175.201,182.434 173.535,185.6 171.5,188.5C 172.337,184.824 173.67,181.324 175.5,178C 178.146,177.503 180.813,177.336 183.5,177.5 Z"/></g>
<g><path style="opacity:1" fill="#c397a5" d="M 637.5,177.5 C 636.101,178.89 634.434,179.89 632.5,180.5C 632.833,179.833 633.167,179.167 633.5,178.5C 634.568,177.566 635.901,177.232 637.5,177.5 Z"/></g>
<g><path style="opacity:1" fill="#cbbb9b" d="M 293.5,178.5 C 292.657,180.173 291.324,181.34 289.5,182C 284.855,182.817 280.355,182.317 276,180.5C 274.234,181.233 272.401,181.567 270.5,181.5C 271.946,180.06 273.779,179.393 276,179.5C 278.817,180.031 281.65,180.364 284.5,180.5C 287.692,180.595 290.692,179.929 293.5,178.5 Z"/></g>
<g><path style="opacity:0.035" fill="#b57aac" d="M 630.5,181.5 C 630.027,182.906 629.027,183.573 627.5,183.5C 627.973,182.094 628.973,181.427 630.5,181.5 Z"/></g>
<g><path style="opacity:1" fill="#c5b89b" d="M 255.5,181.5 C 255.833,181.5 256.167,181.5 256.5,181.5C 261.167,181.5 265.833,181.5 270.5,181.5C 270.489,183.017 269.823,184.184 268.5,185C 263.828,184.992 259.495,183.825 255.5,181.5 Z"/></g>
<g><path style="opacity:0.035" fill="#b378ac" d="M 625.5,184.5 C 625.027,185.906 624.027,186.573 622.5,186.5C 622.973,185.094 623.973,184.427 625.5,184.5 Z"/></g>
<g><path style="opacity:0.914" fill="#939a9a" d="M 256.5,181.5 C 256.167,181.5 255.833,181.5 255.5,181.5C 251.622,181.024 248.288,182.024 245.5,184.5C 242.309,185.896 238.976,186.896 235.5,187.5C 233.443,187.564 231.777,186.898 230.5,185.5C 232.401,185.433 234.234,185.767 236,186.5C 239.894,184.803 243.727,182.97 247.5,181C 250.696,180.195 253.696,180.362 256.5,181.5 Z"/></g>
<g><path style="opacity:1" fill="#d5c29c" d="M 226.5,183.5 C 227.833,184.167 229.167,184.833 230.5,185.5C 231.777,186.898 233.443,187.564 235.5,187.5C 238.976,186.896 242.309,185.896 245.5,184.5C 242.991,188.161 239.491,189.827 235,189.5C 230.072,190.399 227.239,188.399 226.5,183.5 Z"/></g>
<g><path style="opacity:0.269" fill="#b67ead" d="M 620.5,187.5 C 619.341,189.25 617.674,190.25 615.5,190.5C 616.659,188.75 618.326,187.75 620.5,187.5 Z"/></g>
<g><path style="opacity:0.4" fill="#8ed088" d="M 171.5,188.5 C 171.598,190.553 170.931,192.22 169.5,193.5C 169.402,191.447 170.069,189.78 171.5,188.5 Z"/></g>
<g><path style="opacity:0.02" fill="#b479ac" d="M 600.5,195.5 C 599.738,197.262 598.404,198.262 596.5,198.5C 597.262,196.738 598.596,195.738 600.5,195.5 Z"/></g>
<g><path style="opacity:0.031" fill="#b478ad" d="M 594.5,200.5 C 593.089,202.914 591.089,204.581 588.5,205.5C 589.911,203.086 591.911,201.419 594.5,200.5 Z"/></g>
<g><path style="opacity:0.086" fill="#ba84ae" d="M 581.5,207.5 C 580.4,208.605 579.733,209.938 579.5,211.5C 578.024,209.291 578.691,207.958 581.5,207.5 Z"/></g>
<g><path style="opacity:0.984" fill="#c5c595" d="M 188.5,173.5 C 186.721,175.546 185.054,177.713 183.5,180C 181.236,180.236 179.069,180.736 177,181.5C 173.489,189.382 169.989,197.215 166.5,205C 169.62,219.433 172.287,233.933 174.5,248.5C 173.391,248.557 172.391,248.89 171.5,249.5C 171.938,247.874 172.272,246.207 172.5,244.5C 169.021,229.946 166.521,215.28 165,200.5C 166.781,198.276 168.281,195.942 169.5,193.5C 170.931,192.22 171.598,190.553 171.5,188.5C 173.535,185.6 175.201,182.434 176.5,179C 179.036,178.814 181.369,178.314 183.5,177.5C 184.585,175.413 186.251,174.08 188.5,173.5 Z"/></g>
<g><path style="opacity:0.698" fill="#c49aac" d="M 584.5,232.5 C 585.924,234.515 586.59,236.848 586.5,239.5C 585.076,237.485 584.41,235.152 584.5,232.5 Z"/></g>
<g><path style="opacity:0.678" fill="#99d08d" d="M 139.5,243.5 C 145.456,244.087 151.122,245.421 156.5,247.5C 150.468,247.165 144.801,245.831 139.5,243.5 Z"/></g>
<g><path style="opacity:0.6" fill="#9bcf8d" d="M 107.5,241.5 C 106.5,246.832 105.5,252.165 104.5,257.5C 102.194,257.993 99.861,258.326 97.5,258.5C 99.2143,257.262 101.214,256.595 103.5,256.5C 104.076,251.191 105.409,246.191 107.5,241.5 Z"/></g>
<g><path style="opacity:0.016" fill="#b479ae" d="M 587.5,258.5 C 587.027,259.906 586.027,260.573 584.5,260.5C 584.973,259.094 585.973,258.427 587.5,258.5 Z"/></g>
<g><path style="opacity:0.868" fill="#cec499" d="M 139.5,243.5 C 144.801,245.831 150.468,247.165 156.5,247.5C 158.415,247.216 160.081,247.549 161.5,248.5C 164.77,250.16 168.103,250.494 171.5,249.5C 172.391,248.89 173.391,248.557 174.5,248.5C 174.047,249.458 173.381,250.292 172.5,251C 161.431,250.122 150.431,248.455 139.5,246C 137.833,244.333 136.167,242.667 134.5,241C 125.816,240.946 117.149,241.446 108.5,242.5C 108.012,247.938 107.012,253.272 105.5,258.5C 96.7636,260.689 88.0969,263.189 79.5,266C 78.2482,270.167 76.9149,274.334 75.5,278.5C 67.3787,279.011 59.3787,280.011 51.5,281.5C 52.2899,280.206 53.2899,279.039 54.5,278C 61.346,277.828 68.0126,277.328 74.5,276.5C 75.866,273.039 76.866,269.373 77.5,265.5C 84.0112,262.774 90.6779,260.44 97.5,258.5C 99.861,258.326 102.194,257.993 104.5,257.5C 105.5,252.165 106.5,246.832 107.5,241.5C 116.616,239.619 125.95,238.786 135.5,239C 137.041,240.371 138.375,241.871 139.5,243.5 Z"/></g>
<g><path style="opacity:0.057" fill="#9bd190" d="M 161.5,248.5 C 164.939,248.253 168.272,248.586 171.5,249.5C 168.103,250.494 164.77,250.16 161.5,248.5 Z"/></g>
<g><path style="opacity:0.98" fill="#9fd091" d="M 77.5,265.5 C 76.866,269.373 75.866,273.039 74.5,276.5C 74.6744,273.126 75.1744,269.793 76,266.5C 76.3826,265.944 76.8826,265.611 77.5,265.5 Z"/></g>
<g><path style="opacity:0.216" fill="#ba83af" d="M 584.5,261.5 C 584.235,265.853 583.735,270.187 583,274.5C 580.699,275.867 578.199,276.534 575.5,276.5C 577.214,275.262 579.214,274.595 581.5,274.5C 581.882,269.908 582.882,265.575 584.5,261.5 Z"/></g>
<g><path style="opacity:1" fill="#d0b59e" d="M 633.5,178.5 C 633.167,179.167 632.833,179.833 632.5,180.5C 632.158,181.338 631.492,181.672 630.5,181.5C 628.973,181.427 627.973,182.094 627.5,183.5C 627.158,184.338 626.492,184.672 625.5,184.5C 623.973,184.427 622.973,185.094 622.5,186.5C 622.158,187.338 621.492,187.672 620.5,187.5C 618.326,187.75 616.659,188.75 615.5,190.5C 612.15,190.335 608.817,190.502 605.5,191C 603.963,192.707 602.296,194.207 600.5,195.5C 598.596,195.738 597.262,196.738 596.5,198.5C 596.167,199.5 595.5,200.167 594.5,200.5C 591.911,201.419 589.911,203.086 588.5,205.5C 585.892,205.4 583.558,206.067 581.5,207.5C 578.691,207.958 578.024,209.291 579.5,211.5C 581.633,218.367 583.3,225.367 584.5,232.5C 584.41,235.152 585.076,237.485 586.5,239.5C 588.197,244.108 589.53,248.941 590.5,254C 590.478,256.183 589.478,257.683 587.5,258.5C 585.973,258.427 584.973,259.094 584.5,260.5C 584.5,260.833 584.5,261.167 584.5,261.5C 582.882,265.575 581.882,269.908 581.5,274.5C 579.214,274.595 577.214,275.262 575.5,276.5C 567.041,279.202 558.374,281.535 549.5,283.5C 549.731,291.475 551.064,299.142 553.5,306.5C 553.738,308.404 554.738,309.738 556.5,310.5C 557.08,312.749 558.413,314.415 560.5,315.5C 560.666,321.176 560.499,326.843 560,332.5C 558.007,333.914 555.84,334.914 553.5,335.5C 547.377,337.727 541.711,340.727 536.5,344.5C 536.994,346.026 537.661,347.359 538.5,348.5C 538.171,351.228 538.837,353.562 540.5,355.5C 541.301,357.042 541.634,358.708 541.5,360.5C 541.784,362.415 541.451,364.081 540.5,365.5C 538.201,357.974 536.701,350.308 536,342.5C 543.089,338.706 550.255,335.039 557.5,331.5C 557.833,328.833 558.167,326.167 558.5,323.5C 558.288,316.4 555.455,310.4 550,305.5C 548.838,297.525 548.005,289.525 547.5,281.5C 558.535,278.991 569.535,276.325 580.5,273.5C 581.114,268.428 582.114,263.428 583.5,258.5C 585.547,257.815 587.214,256.649 588.5,255C 583.954,239.325 580.454,223.491 578,207.5C 587.857,203.005 596.691,196.838 604.5,189C 608.167,188.667 611.833,188.333 615.5,188C 621.396,184.553 627.396,181.386 633.5,178.5 Z"/></g>
<g><path style="opacity:0.973" fill="#bec895" d="M 51.5,281.5 C 50.6473,283.893 48.9806,285.226 46.5,285.5C 47.5846,283.413 49.2512,282.08 51.5,281.5 Z"/></g>
<g><path style="opacity:0.678" fill="#bb88af" d="M 553.5,306.5 C 555.262,307.262 556.262,308.596 556.5,310.5C 554.738,309.738 553.738,308.404 553.5,306.5 Z"/></g>
<g><path style="opacity:0.308" fill="#b77eae" d="M 556.5,310.5 C 558.587,311.585 559.92,313.251 560.5,315.5C 558.413,314.415 557.08,312.749 556.5,310.5 Z"/></g>
<g><path style="opacity:0.925" fill="#c6c798" d="M 46.5,285.5 C 42.1594,291.833 39.1594,298.833 37.5,306.5C 40.7277,313.288 44.2277,319.954 48,326.5C 48.6667,327.5 48.6667,328.5 48,329.5C 33.9735,333.926 19.8069,337.926 5.5,341.5C 4.79105,340.596 3.79105,340.263 2.5,340.5C 16.9597,336.048 31.6264,331.881 46.5,328C 42.2949,321.255 38.6282,314.255 35.5,307C 37.1306,301.108 38.9639,295.275 41,289.5C 42.451,287.536 44.2843,286.203 46.5,285.5 Z"/></g>
<g><path style="opacity:0.461" fill="#b87fb1" d="M 553.5,335.5 C 549.063,338.559 544.397,341.392 539.5,344C 538.62,345.356 538.286,346.856 538.5,348.5C 537.661,347.359 536.994,346.026 536.5,344.5C 541.711,340.727 547.377,337.727 553.5,335.5 Z"/></g>
<g><path style="opacity:0.994" fill="#b3bba9" d="M 2.5,340.5 C 3.79105,340.263 4.79105,340.596 5.5,341.5C 9.38591,349.604 13.5526,357.604 18,365.5C 20.3806,366.435 22.8806,366.768 25.5,366.5C 25.5,373.167 25.5,379.833 25.5,386.5C 24.1901,380.712 23.5234,374.712 23.5,368.5C 20.6354,368.945 18.1354,368.278 16,366.5C 11.2191,357.937 6.71912,349.27 2.5,340.5 Z"/></g>
<g><path style="opacity:1" fill="#bd8dac" d="M 538.5,348.5 C 539.612,350.599 540.279,352.933 540.5,355.5C 538.837,353.562 538.171,351.228 538.5,348.5 Z"/></g>
<g><path style="opacity:1" fill="#cac1a0" d="M 80.5,489.5 C 70.8739,487.69 61.8739,484.19 53.5,479C 50.8539,476.198 48.8539,473.032 47.5,469.5C 47.6665,458.162 47.4999,446.828 47,435.5C 46.8171,432.635 46.3171,429.969 45.5,427.5C 45.5,427.167 45.5,426.833 45.5,426.5C 45.7683,423.881 45.435,421.381 44.5,419C 46.0414,417.629 47.3747,416.129 48.5,414.5C 50.7488,413.92 52.4154,412.587 53.5,410.5C 55.4044,410.262 56.7377,409.262 57.5,407.5C 58.8606,405.473 60.5273,403.806 62.5,402.5C 65.1092,397.253 66.1092,391.586 65.5,385.5C 64.209,385.263 63.209,385.596 62.5,386.5C 50.3505,389.93 38.0172,392.597 25.5,394.5C 25.5,391.833 25.5,389.167 25.5,386.5C 27.0358,388.025 28.0358,390.025 28.5,392.5C 41.3499,389.037 54.3499,386.37 67.5,384.5C 68.3483,392.01 66.8483,399.01 63,405.5C 57.4833,409.594 52.15,413.927 47,418.5C 48.8026,435.749 49.8026,453.083 50,470.5C 51.8333,473 53.6667,475.5 55.5,478C 64.1631,481.335 72.4964,485.168 80.5,489.5 Z"/></g>
<g><path style="opacity:0.124" fill="#72b1bd" d="M 62.5,386.5 C 63.209,385.596 64.209,385.263 65.5,385.5C 66.1092,391.586 65.1092,397.253 62.5,402.5C 63.1634,398.51 63.8301,394.51 64.5,390.5C 64.4146,388.667 63.7479,387.334 62.5,386.5 Z"/></g>
<g><path style="opacity:0.947" fill="#cdb09f" d="M 541.5,360.5 C 542.622,362.288 542.789,364.288 542,366.5C 536.667,372.5 531.333,378.5 526,384.5C 527.166,391.183 528.666,397.85 530.5,404.5C 528.413,405.585 527.08,407.251 526.5,409.5C 526.5,410.167 526.167,410.5 525.5,410.5C 523.738,411.262 522.738,412.596 522.5,414.5C 521.833,415.833 520.833,416.833 519.5,417.5C 519.491,415.692 519.991,414.025 521,412.5C 523.756,409.305 526.256,405.972 528.5,402.5C 526.043,396.317 524.543,389.984 524,383.5C 529.366,377.304 534.866,371.304 540.5,365.5C 541.451,364.081 541.784,362.415 541.5,360.5 Z"/></g>
<g><path style="opacity:0.059" fill="#b57aae" d="M 530.5,404.5 C 529.92,406.749 528.587,408.415 526.5,409.5C 527.08,407.251 528.413,405.585 530.5,404.5 Z"/></g>
<g><path style="opacity:0.82" fill="#93b8b8" d="M 57.5,407.5 C 56.7377,409.262 55.4044,410.262 53.5,410.5C 54.2623,408.738 55.5956,407.738 57.5,407.5 Z"/></g>
<g><path style="opacity:0.702" fill="#7db4be" d="M 53.5,410.5 C 52.4154,412.587 50.7488,413.92 48.5,414.5C 49.5846,412.413 51.2512,411.08 53.5,410.5 Z"/></g>
<g><path style="opacity:0.035" fill="#b57aad" d="M 525.5,410.5 C 525.262,412.404 524.262,413.738 522.5,414.5C 522.738,412.596 523.738,411.262 525.5,410.5 Z"/></g>
<g><path style="opacity:0.937" fill="#cabba1" d="M 509.5,414.5 C 504.089,413.481 498.756,412.147 493.5,410.5C 491.872,409.147 490.538,409.481 489.5,411.5C 487.973,411.427 486.973,412.094 486.5,413.5C 482.5,416.167 478.5,418.833 474.5,421.5C 473.833,421.833 473.167,422.167 472.5,422.5C 472.5,422.167 472.5,421.833 472.5,421.5C 478.396,416.299 484.896,411.966 492,408.5C 498.105,410.034 503.938,412.034 509.5,414.5 Z"/></g>
<g><path style="opacity:0.004" fill="#a0a6c4" d="M 489.5,411.5 C 489.027,412.906 488.027,413.573 486.5,413.5C 486.973,412.094 487.973,411.427 489.5,411.5 Z"/></g>
<g><path style="opacity:0.039" fill="#a4aac4" d="M 493.5,410.5 C 492.167,410.833 490.833,411.167 489.5,411.5C 490.538,409.481 491.872,409.147 493.5,410.5 Z"/></g>
<g><path style="opacity:0.478" fill="#77b1bc" d="M 48.5,414.5 C 47.3747,416.129 46.0414,417.629 44.5,419C 45.435,421.381 45.7683,423.881 45.5,426.5C 43.9236,423.772 43.4236,420.772 44,417.5C 45.129,415.859 46.629,414.859 48.5,414.5 Z"/></g>
<g><path style="opacity:0.024" fill="#a4aac6" d="M 474.5,421.5 C 473.145,426.229 470.812,430.229 467.5,433.5C 469.438,429.957 471.105,426.29 472.5,422.5C 473.167,422.167 473.833,421.833 474.5,421.5 Z"/></g>
<g><path style="opacity:0.521" fill="#6eafbc" d="M 45.5,427.5 C 46.3171,429.969 46.8171,432.635 47,435.5C 47.4999,446.828 47.6665,458.162 47.5,469.5C 46.3859,455.677 45.7192,441.677 45.5,427.5 Z"/></g>
<g><path style="opacity:1" fill="#cfbea1" d="M 472.5,421.5 C 472.5,421.833 472.5,422.167 472.5,422.5C 471.105,426.29 469.438,429.957 467.5,433.5C 465.5,433.5 463.5,433.5 461.5,433.5C 461.5,434.833 461.5,436.167 461.5,437.5C 451.454,439.009 441.454,440.842 431.5,443C 426.833,447.667 422.167,452.333 417.5,457C 408.223,459.486 398.89,461.653 389.5,463.5C 387.086,464.911 385.419,466.911 384.5,469.5C 381.941,469.802 379.607,469.468 377.5,468.5C 375.392,467.225 373.058,466.725 370.5,467C 362.964,474.368 355.631,481.868 348.5,489.5C 342.355,490.49 336.022,490.823 329.5,490.5C 335.5,489.833 341.5,489.167 347.5,488.5C 354.631,480.868 361.964,473.368 369.5,466C 374.226,465.949 378.893,466.283 383.5,467C 385.167,465.333 386.833,463.667 388.5,462C 397.583,460.32 406.583,458.32 415.5,456C 420.5,451 425.5,446 430.5,441C 440.192,439.228 449.858,437.395 459.5,435.5C 459.33,434.178 459.663,433.011 460.5,432C 462.9,431.814 465.234,431.314 467.5,430.5C 468.941,427.276 470.608,424.276 472.5,421.5 Z"/></g>
<g><path style="opacity:0.519" fill="#d1c49d" d="M 231.5,503.5 C 230.5,503.5 229.5,503.5 228.5,503.5C 220.692,499.328 212.692,495.328 204.5,491.5C 203.502,483.193 203.169,474.86 203.5,466.5C 193.666,464.584 183.832,462.584 174,460.5C 169.667,461.5 165.333,462.5 161,463.5C 153.845,461.753 146.679,460.086 139.5,458.5C 138.166,471.168 136.833,483.835 135.5,496.5C 127.077,493.123 118.743,489.457 110.5,485.5C 104.364,487.988 98.1975,490.321 92,492.5C 87.9093,492.02 84.076,491.02 80.5,489.5C 85.1648,490.338 89.8315,490.838 94.5,491C 99.7179,488.224 105.051,485.724 110.5,483.5C 118.194,486.764 125.694,490.431 133,494.5C 135.489,481.921 137.322,469.255 138.5,456.5C 146.056,457.851 153.556,459.517 161,461.5C 165.285,460.512 169.618,459.845 174,459.5C 184.23,460.946 194.396,462.779 204.5,465C 205.153,473.441 205.82,481.941 206.5,490.5C 215.052,494.608 223.385,498.941 231.5,503.5 Z"/></g>
<g><path style="opacity:0.063" fill="#a9abc1" d="M 389.5,463.5 C 388.581,466.089 386.914,468.089 384.5,469.5C 385.419,466.911 387.086,464.911 389.5,463.5 Z"/></g>
<g><path style="opacity:0.976" fill="#cec59e" d="M 347.5,488.5 C 341.5,489.167 335.5,489.833 329.5,490.5C 323.932,483.365 319.932,475.365 317.5,466.5C 310.18,464.664 302.847,463.164 295.5,462C 291.311,465.69 286.978,469.19 282.5,472.5C 280.908,478.179 277.908,483.012 273.5,487C 264.106,488.175 254.773,489.675 245.5,491.5C 241.767,495.227 238.434,499.227 235.5,503.5C 234.833,503.5 234.167,503.5 233.5,503.5C 237.279,498.786 240.946,493.953 244.5,489C 253.533,488.293 262.533,487.293 271.5,486C 275.407,481.677 278.407,476.843 280.5,471.5C 285.312,467.856 289.979,464.022 294.5,460C 302.283,460.809 309.95,462.475 317.5,465C 321.5,472.667 325.5,480.333 329.5,488C 335.491,488.499 341.491,488.666 347.5,488.5 Z"/></g>
<g><path style="opacity:0.404" fill="#a7abc2" d="M 377.5,468.5 C 375.143,468.337 372.81,468.503 370.5,469C 363.578,476.428 356.244,483.261 348.5,489.5C 355.631,481.868 362.964,474.368 370.5,467C 373.058,466.725 375.392,467.225 377.5,468.5 Z"/></g>
</svg>
