<?xml version="1.0" encoding="UTF-8"?>
<!DOCTYPE svg PUBLIC "-//W3C//DTD SVG 1.1//EN" "http://www.w3.org/Graphics/SVG/1.1/DTD/svg11.dtd">
<svg xmlns="http://www.w3.org/2000/svg" version="1.1" width="714px" height="711px" style="shape-rendering:geometricPrecision; text-rendering:geometricPrecision; image-rendering:optimizeQuality; fill-rule:evenodd; clip-rule:evenodd" xmlns:xlink="http://www.w3.org/1999/xlink">
<g><path style="opacity:1" fill="#d5eec4" d="M 380.5,107.5 C 381.791,107.263 382.791,107.596 383.5,108.5C 381.621,108.393 381.288,108.893 382.5,110C 390.788,111.825 399.121,113.325 407.5,114.5C 408.942,121.103 407.109,126.436 402,130.5C 401.667,149.167 401.333,167.833 401,186.5C 393.859,195.942 386.359,205.109 378.5,214C 374.5,215 370.5,216 366.5,217C 365.944,217.383 365.611,217.883 365.5,218.5C 363.565,219.15 361.565,219.483 359.5,219.5C 351.804,219.169 344.138,219.503 336.5,220.5C 335.253,222.323 334.586,224.323 334.5,226.5C 333.833,228.5 332.5,229.833 330.5,230.5C 326.373,230.635 323.706,232.635 322.5,236.5C 319.341,241.912 314.675,244.412 308.5,244C 306.627,242.296 304.96,240.463 303.5,238.5C 302.496,234.992 300.829,231.826 298.5,229C 293.106,226.088 287.44,224.421 281.5,224C 279.5,225 277.5,226 275.5,227C 273.963,228.11 273.297,229.61 273.5,231.5C 268.194,234.496 262.861,237.496 257.5,240.5C 254.364,240.603 251.698,241.603 249.5,243.5C 249.167,243.5 248.833,243.5 248.5,243.5C 242.988,245.123 237.322,245.79 231.5,245.5C 230.508,245.672 229.842,245.338 229.5,244.5C 224.065,241.239 218.065,239.739 211.5,240C 207.135,237.432 202.468,236.098 197.5,236C 195.859,237.129 194.859,238.629 194.5,240.5C 193.079,243.009 191.412,245.343 189.5,247.5C 188.761,247.369 188.094,247.536 187.5,248C 185.353,251.115 182.853,253.948 180,256.5C 179.5,265.16 179.334,273.827 179.5,282.5C 179.5,283.5 179.5,284.5 179.5,285.5C 179.167,285.5 178.833,285.5 178.5,285.5C 173.835,286.45 171.835,289.45 172.5,294.5C 168.252,299.705 162.752,302.039 156,301.5C 147.631,301.897 140.798,298.897 135.5,292.5C 135.167,291.833 134.833,291.167 134.5,290.5C 132.039,286.904 130.706,282.904 130.5,278.5C 131.167,276.181 131.334,273.847 131,271.5C 126.386,268.205 121.219,266.705 115.5,267C 114.167,266.333 112.833,265.667 111.5,265C 102.5,264.333 93.5,264.333 84.5,265C 83.944,265.383 83.6107,265.883 83.5,266.5C 81.1522,268.097 78.4855,269.097 75.5,269.5C 70.7816,270.802 66.1149,271.968 61.5,273C 55.1976,262.899 49.5309,252.399 44.5,241.5C 39.6262,239.932 34.6262,238.932 29.5,238.5C 29.7678,236.901 29.4345,235.568 28.5,234.5C 27.5386,232.735 27.2053,230.735 27.5,228.5C 27.7063,221.403 30.5396,215.403 36,210.5C 37.1851,200.844 37.8518,191.177 38,181.5C 32.9117,178.706 27.7451,176.039 22.5,173.5C 22.1667,171.833 21.8333,170.167 21.5,168.5C 22.6286,160.852 23.1286,153.185 23,145.5C 15.5117,142.089 8.17836,138.423 1,134.5C 1.16743,130.812 1.83409,127.145 3,123.5C 8.25315,120.124 13.4198,116.624 18.5,113C 32.7658,109.907 47.0991,108.074 61.5,107.5C 62.1667,108.833 62.8333,110.167 63.5,111.5C 75.1477,112.499 86.8143,112.832 98.5,112.5C 94.9281,102.689 90.2614,93.3561 84.5,84.5C 87.3818,82.5642 90.0485,80.3976 92.5,78C 93.902,69.2158 94.902,60.3824 95.5,51.5C 102.531,50.9957 109.531,50.1624 116.5,49C 119.04,46.7953 121.207,44.2953 123,41.5C 125.309,33.9323 127.142,26.2656 128.5,18.5C 133.783,17.2748 139.117,16.7748 144.5,17C 149.718,19.776 155.051,22.276 160.5,24.5C 164.655,22.8152 168.988,22.1486 173.5,22.5C 175.735,22.2053 177.735,22.5386 179.5,23.5C 188.741,28.5429 197.074,35.0429 204.5,43C 207.227,43.8184 209.894,43.6517 212.5,42.5C 216.5,33.8333 220.5,25.1667 224.5,16.5C 226.42,15.0239 228.587,14.0239 231,13.5C 240.832,22.6668 249.998,32.5002 258.5,43C 263.5,43.3333 268.5,43.6667 273.5,44C 274.593,46.4433 275.593,48.9433 276.5,51.5C 289.242,55.7704 302.242,58.6038 315.5,60C 317.833,57.6667 320.167,55.3333 322.5,53C 325.167,52.3333 327.833,52.3333 330.5,53C 334.036,66.4773 338.036,79.8107 342.5,93C 345.017,93.2566 347.35,92.5899 349.5,91C 357.25,86.0413 365.083,81.208 373,76.5C 374.333,78.5 375.667,80.5 377,82.5C 377.5,91.1603 377.666,99.8269 377.5,108.5C 378.791,108.737 379.791,108.404 380.5,107.5 Z"/></g>
<g><path style="opacity:0.855" fill="#d5a183" d="M 332.5,50.5 C 332.167,50.5 331.833,50.5 331.5,50.5C 328.482,50.3354 325.482,50.502 322.5,51C 319.58,54.4274 316.247,57.2608 312.5,59.5C 301.167,56.6667 289.833,53.8333 278.5,51C 276.695,48.4325 275.362,45.5992 274.5,42.5C 269.198,41.6705 263.864,41.1705 258.5,41C 250.037,30.8684 241.204,21.0351 232,11.5C 228.917,12.6392 225.917,13.9725 223,15.5C 219.57,24.1932 215.736,32.6932 211.5,41C 209.167,41.6667 206.833,41.6667 204.5,41C 198.5,35.6667 192.5,30.3333 186.5,25C 184.323,23.7978 181.989,23.2978 179.5,23.5C 177.735,22.5386 175.735,22.2053 173.5,22.5C 171.513,21.6568 169.346,20.9902 167,20.5C 164.773,21.3632 162.607,22.3632 160.5,23.5C 154.283,20.2243 147.949,17.2243 141.5,14.5C 136.815,15.5034 132.148,16.5034 127.5,17.5C 127.167,17.5 126.833,17.5 126.5,17.5C 126.611,16.8826 126.944,16.3826 127.5,16C 133.411,14.2822 139.411,13.6155 145.5,14C 150.5,16.5 155.5,19 160.5,21.5C 162.62,20.1091 164.953,19.4424 167.5,19.5C 173.921,20.2367 180.254,21.4033 186.5,23C 193.139,29.8167 200.472,35.6501 208.5,40.5C 209.167,40.1667 209.833,39.8333 210.5,39.5C 214.333,31.1667 218.167,22.8333 222,14.5C 225.929,11.4053 230.263,10.4053 235,11.5C 243.129,21.298 251.629,30.798 260.5,40C 265.5,40.3333 270.5,40.6667 275.5,41C 276.443,44.1879 277.943,47.0213 280,49.5C 290.479,52.2447 300.979,54.9114 311.5,57.5C 314.911,55.5969 317.911,53.0969 320.5,50C 324.689,49.1881 328.689,49.3547 332.5,50.5 Z"/></g>
<g><path style="opacity:0.292" fill="#b7696b" d="M 126.5,17.5 C 126.833,17.5 127.167,17.5 127.5,17.5C 125.494,25.858 123.327,34.1913 121,42.5C 119.5,44 118,45.5 116.5,47C 109.195,48.4952 101.862,49.6619 94.5,50.5C 94.6107,49.8826 94.944,49.3826 95.5,49C 101.864,48.1861 108.197,47.1861 114.5,46C 116.333,44.1667 118.167,42.3333 120,40.5C 122.037,32.6713 124.203,25.0046 126.5,17.5 Z"/></g>
<g><path style="opacity:0.493" fill="#b56467" d="M 94.5,50.5 C 93.4437,59.5057 92.277,68.5057 91,77.5C 88.2872,79.7195 85.4539,81.7195 82.5,83.5C 82.5106,81.9826 83.1772,80.8159 84.5,80C 86.3333,78.8333 88.1667,77.6667 90,76.5C 91.219,68.5289 92.219,60.5289 93,52.5C 93.2784,51.5842 93.7784,50.9175 94.5,50.5 Z"/></g>
<g><path style="opacity:1" fill="#add195" d="M 331.5,50.5 C 335.66,64.4652 339.826,78.4652 344,92.5C 353.649,86.6003 363.149,80.6003 372.5,74.5C 372.833,74.5 373.167,74.5 373.5,74.5C 375.113,77.2861 376.946,79.9528 379,82.5C 379.171,91.0101 379.671,99.3434 380.5,107.5C 379.791,108.404 378.791,108.737 377.5,108.5C 377.666,99.8269 377.5,91.1603 377,82.5C 375.667,80.5 374.333,78.5 373,76.5C 365.083,81.208 357.25,86.0413 349.5,91C 347.35,92.5899 345.017,93.2566 342.5,93C 338.036,79.8107 334.036,66.4773 330.5,53C 327.833,52.3333 325.167,52.3333 322.5,53C 320.167,55.3333 317.833,57.6667 315.5,60C 302.242,58.6038 289.242,55.7704 276.5,51.5C 275.593,48.9433 274.593,46.4433 273.5,44C 268.5,43.6667 263.5,43.3333 258.5,43C 249.998,32.5002 240.832,22.6668 231,13.5C 228.587,14.0239 226.42,15.0239 224.5,16.5C 220.5,25.1667 216.5,33.8333 212.5,42.5C 209.894,43.6517 207.227,43.8184 204.5,43C 197.074,35.0429 188.741,28.5429 179.5,23.5C 181.989,23.2978 184.323,23.7978 186.5,25C 192.5,30.3333 198.5,35.6667 204.5,41C 206.833,41.6667 209.167,41.6667 211.5,41C 215.736,32.6932 219.57,24.1932 223,15.5C 225.917,13.9725 228.917,12.6392 232,11.5C 241.204,21.0351 250.037,30.8684 258.5,41C 263.864,41.1705 269.198,41.6705 274.5,42.5C 275.362,45.5992 276.695,48.4325 278.5,51C 289.833,53.8333 301.167,56.6667 312.5,59.5C 316.247,57.2608 319.58,54.4274 322.5,51C 325.482,50.502 328.482,50.3354 331.5,50.5 Z"/></g>
<g><path style="opacity:0.624" fill="#c99db7" d="M 373.5,74.5 C 376.552,75.8803 378.718,78.2136 380,81.5C 380.5,89.8267 380.666,98.16 380.5,106.5C 390.191,108.138 399.857,109.971 409.5,112C 410.637,117.082 410.804,122.249 410,127.5C 408.333,129.167 406.667,130.833 405,132.5C 404.667,150.833 404.333,169.167 404,187.5C 396.344,197.651 388.178,207.318 379.5,216.5C 387.095,206.394 394.928,196.394 403,186.5C 403.333,168.167 403.667,149.833 404,131.5C 409.535,126.455 411.035,120.288 408.5,113C 400.212,111.175 391.879,109.675 383.5,108.5C 382.791,107.596 381.791,107.263 380.5,107.5C 379.671,99.3434 379.171,91.0101 379,82.5C 376.946,79.9528 375.113,77.2861 373.5,74.5 Z"/></g>
<g><path style="opacity:0.804" fill="#caa0b8" d="M 331.5,50.5 C 331.833,50.5 332.167,50.5 332.5,50.5C 336.56,63.2201 340.56,76.0534 344.5,89C 353.594,83.951 362.928,79.1177 372.5,74.5C 363.149,80.6003 353.649,86.6003 344,92.5C 339.826,78.4652 335.66,64.4652 331.5,50.5 Z"/></g>
<g><path style="opacity:0.494" fill="#b6686a" d="M 82.5,84.5 C 87.8518,92.69 92.8518,101.19 97.5,110C 86.5,110.667 75.5,110.667 64.5,110C 63.5214,107.863 62.1881,106.029 60.5,104.5C 46.5437,106.828 32.5437,108.995 18.5,111C 13.672,114.581 8.67202,117.915 3.5,121C 1.50123,123.255 0.167899,125.755 -0.5,128.5C -0.5,126.5 -0.5,124.5 -0.5,122.5C 5.29658,118.097 11.2966,113.93 17.5,110C 32.4407,107.231 47.4407,105.231 62.5,104C 63.8721,105.242 64.8721,106.742 65.5,108.5C 75.1667,109.833 84.8333,109.833 94.5,108.5C 89.9407,100.715 85.9407,92.7147 82.5,84.5 Z"/></g>
<g><path style="opacity:1" fill="#acce91" d="M 173.5,22.5 C 168.988,22.1486 164.655,22.8152 160.5,24.5C 155.051,22.276 149.718,19.776 144.5,17C 139.117,16.7748 133.783,17.2748 128.5,18.5C 127.142,26.2656 125.309,33.9323 123,41.5C 121.207,44.2953 119.04,46.7953 116.5,49C 109.531,50.1624 102.531,50.9957 95.5,51.5C 94.902,60.3824 93.902,69.2158 92.5,78C 90.0485,80.3976 87.3818,82.5642 84.5,84.5C 90.2614,93.3561 94.9281,102.689 98.5,112.5C 86.8143,112.832 75.1477,112.499 63.5,111.5C 62.8333,110.167 62.1667,108.833 61.5,107.5C 47.0991,108.074 32.7658,109.907 18.5,113C 13.4198,116.624 8.25315,120.124 3,123.5C 1.83409,127.145 1.16743,130.812 1,134.5C 8.17836,138.423 15.5117,142.089 23,145.5C 23.1286,153.185 22.6286,160.852 21.5,168.5C 21.8333,170.167 22.1667,171.833 22.5,173.5C 27.7451,176.039 32.9117,178.706 38,181.5C 37.8518,191.177 37.1851,200.844 36,210.5C 30.5396,215.403 27.7063,221.403 27.5,228.5C 26.6568,226.513 25.9902,224.346 25.5,222C 28.206,218.095 31.0393,214.262 34,210.5C 35.6629,201.202 36.6629,191.869 37,182.5C 31.3333,179.5 25.6667,176.5 20,173.5C 20.7391,164.513 21.4057,155.513 22,146.5C 14.2357,143.305 6.73565,139.638 -0.5,135.5C -0.5,133.167 -0.5,130.833 -0.5,128.5C 0.167899,125.755 1.50123,123.255 3.5,121C 8.67202,117.915 13.672,114.581 18.5,111C 32.5437,108.995 46.5437,106.828 60.5,104.5C 62.1881,106.029 63.5214,107.863 64.5,110C 75.5,110.667 86.5,110.667 97.5,110C 92.8518,101.19 87.8518,92.69 82.5,84.5C 82.5,84.1667 82.5,83.8333 82.5,83.5C 85.4539,81.7195 88.2872,79.7195 91,77.5C 92.277,68.5057 93.4437,59.5057 94.5,50.5C 101.862,49.6619 109.195,48.4952 116.5,47C 118,45.5 119.5,44 121,42.5C 123.327,34.1913 125.494,25.858 127.5,17.5C 132.148,16.5034 136.815,15.5034 141.5,14.5C 147.949,17.2243 154.283,20.2243 160.5,23.5C 162.607,22.3632 164.773,21.3632 167,20.5C 169.346,20.9902 171.513,21.6568 173.5,22.5 Z"/></g>
<g><path style="opacity:0.537" fill="#ca928d" d="M -0.5,135.5 C 6.73565,139.638 14.2357,143.305 22,146.5C 21.4057,155.513 20.7391,164.513 20,173.5C 25.6667,176.5 31.3333,179.5 37,182.5C 36.6629,191.869 35.6629,201.202 34,210.5C 31.0393,214.262 28.206,218.095 25.5,222C 25.9902,224.346 26.6568,226.513 27.5,228.5C 27.2053,230.735 27.5386,232.735 28.5,234.5C 28.2148,236.288 28.5481,237.955 29.5,239.5C 34.4433,240.52 39.2767,241.854 44,243.5C 48.6667,252.833 53.3333,262.167 58,271.5C 59.5707,273.923 61.7374,275.256 64.5,275.5C 61.5696,277.074 59.0696,276.408 57,273.5C 52.1667,263.833 47.3333,254.167 42.5,244.5C 37.9605,242.891 33.2938,241.725 28.5,241C 25.8771,234.095 24.7104,226.929 25,219.5C 27.9113,216.01 30.578,212.344 33,208.5C 34.0975,200.276 35.2642,192.109 36.5,184C 30.427,181.215 24.5936,178.048 19,174.5C 18.9565,165.562 19.7898,156.729 21.5,148C 14.2616,144.546 6.9283,141.379 -0.5,138.5C -0.5,137.5 -0.5,136.5 -0.5,135.5 Z"/></g>
<g><path style="opacity:1" fill="#add296" d="M 383.5,108.5 C 391.879,109.675 400.212,111.175 408.5,113C 411.035,120.288 409.535,126.455 404,131.5C 403.667,149.833 403.333,168.167 403,186.5C 394.928,196.394 387.095,206.394 379.5,216.5C 379.5,217.167 379.167,217.5 378.5,217.5C 374.735,216.226 371.069,216.559 367.5,218.5C 366.833,218.5 366.167,218.5 365.5,218.5C 365.611,217.883 365.944,217.383 366.5,217C 370.5,216 374.5,215 378.5,214C 386.359,205.109 393.859,195.942 401,186.5C 401.333,167.833 401.667,149.167 402,130.5C 407.109,126.436 408.942,121.103 407.5,114.5C 399.121,113.325 390.788,111.825 382.5,110C 381.288,108.893 381.621,108.393 383.5,108.5 Z"/></g>
<g><path style="opacity:0.373" fill="#93afbb" d="M 378.5,217.5 C 373.095,218.637 367.761,219.97 362.5,221.5C 364.072,220.313 365.739,219.313 367.5,218.5C 371.069,216.559 374.735,216.226 378.5,217.5 Z"/></g>
<g><path style="opacity:1" fill="#b0d49a" d="M 359.5,219.5 C 354.107,220.142 348.774,221.142 343.5,222.5C 340.68,222.087 338.68,223.087 337.5,225.5C 336.391,225.557 335.391,225.89 334.5,226.5C 334.586,224.323 335.253,222.323 336.5,220.5C 344.138,219.503 351.804,219.169 359.5,219.5 Z"/></g>
<g><path style="opacity:0.99" fill="#869e93" d="M 365.5,218.5 C 366.167,218.5 366.833,218.5 367.5,218.5C 365.739,219.313 364.072,220.313 362.5,221.5C 356.355,222.49 350.022,222.823 343.5,222.5C 348.774,221.142 354.107,220.142 359.5,219.5C 361.565,219.483 363.565,219.15 365.5,218.5 Z"/></g>
<g><path style="opacity:0.522" fill="#93b1c0" d="M 293.5,229.5 C 290.314,228.662 287.147,227.662 284,226.5C 282.107,227.196 280.274,228.03 278.5,229C 270.928,236.453 261.928,241.286 251.5,243.5C 253.629,242.797 255.629,241.797 257.5,240.5C 262.861,237.496 268.194,234.496 273.5,231.5C 279.474,224.284 286.141,223.617 293.5,229.5 Z"/></g>
<g><path style="opacity:1" fill="#a8cc94" d="M 303.5,238.5 C 302.24,236.633 300.573,235.3 298.5,234.5C 297.456,232.157 295.79,230.49 293.5,229.5C 286.141,223.617 279.474,224.284 273.5,231.5C 273.297,229.61 273.963,228.11 275.5,227C 277.5,226 279.5,225 281.5,224C 287.44,224.421 293.106,226.088 298.5,229C 300.829,231.826 302.496,234.992 303.5,238.5 Z"/></g>
<g><path style="opacity:1" fill="#a4cc8d" d="M 330.5,230.5 C 327.872,232.488 325.205,234.488 322.5,236.5C 323.706,232.635 326.373,230.635 330.5,230.5 Z"/></g>
<g><path style="opacity:0.953" fill="#90abb8" d="M 209.5,241.5 C 206.427,240.801 203.427,239.801 200.5,238.5C 196.119,242.215 192.119,246.215 188.5,250.5C 188.557,249.391 188.89,248.391 189.5,247.5C 191.412,245.343 193.079,243.009 194.5,240.5C 199.676,236.725 204.676,237.059 209.5,241.5 Z"/></g>
<g><path style="opacity:1" fill="#a1c48f" d="M 229.5,244.5 C 222.904,243.106 216.237,242.106 209.5,241.5C 204.676,237.059 199.676,236.725 194.5,240.5C 194.859,238.629 195.859,237.129 197.5,236C 202.468,236.098 207.135,237.432 211.5,240C 218.065,239.739 224.065,241.239 229.5,244.5 Z"/></g>
<g><path style="opacity:0.969" fill="#8ca9a4" d="M 337.5,225.5 C 335.899,230.927 332.233,234.093 326.5,235C 322.877,241.316 317.544,245.483 310.5,247.5C 307.783,247.148 305.783,245.815 304.5,243.5C 304.573,241.973 303.906,240.973 302.5,240.5C 300.684,238.882 299.351,236.882 298.5,234.5C 300.573,235.3 302.24,236.633 303.5,238.5C 304.96,240.463 306.627,242.296 308.5,244C 314.675,244.412 319.341,241.912 322.5,236.5C 325.205,234.488 327.872,232.488 330.5,230.5C 332.5,229.833 333.833,228.5 334.5,226.5C 335.391,225.89 336.391,225.557 337.5,225.5 Z"/></g>
<g><path style="opacity:0.984" fill="#7f9480" d="M 257.5,240.5 C 255.629,241.797 253.629,242.797 251.5,243.5C 250.833,243.5 250.167,243.5 249.5,243.5C 251.698,241.603 254.364,240.603 257.5,240.5 Z"/></g>
<g><path style="opacity:0.067" fill="#a5d3f4" d="M 302.5,240.5 C 303.906,240.973 304.573,241.973 304.5,243.5C 303.094,243.027 302.427,242.027 302.5,240.5 Z"/></g>
<g><path style="opacity:0.902" fill="#94b3c4" d="M 209.5,241.5 C 216.237,242.106 222.904,243.106 229.5,244.5C 229.842,245.338 230.508,245.672 231.5,245.5C 232.167,246.167 232.833,246.833 233.5,247.5C 225.417,245.239 217.417,243.239 209.5,241.5 Z"/></g>
<g><path style="opacity:1" fill="#d3ecc2" d="M 342.5,265.5 C 342.5,261.167 342.5,256.833 342.5,252.5C 342.5,252.167 342.5,251.833 342.5,251.5C 347.486,243.438 353.653,242.438 361,248.5C 365.965,257.756 369.798,267.423 372.5,277.5C 371.907,282.935 368.907,286.435 363.5,288C 354.379,290.212 347.879,287.045 344,278.5C 343.825,273.981 343.325,269.647 342.5,265.5 Z"/></g>
<g><path style="opacity:0.992" fill="#849d8a" d="M 248.5,243.5 C 246.036,244.567 243.703,245.9 241.5,247.5C 238.796,248.714 236.129,248.714 233.5,247.5C 232.833,246.833 232.167,246.167 231.5,245.5C 237.322,245.79 242.988,245.123 248.5,243.5 Z"/></g>
<g><path style="opacity:0.337" fill="#a4d1f1" d="M 248.5,243.5 C 248.833,243.5 249.167,243.5 249.5,243.5C 250.167,243.5 250.833,243.5 251.5,243.5C 248.63,245.794 245.297,247.128 241.5,247.5C 243.703,245.9 246.036,244.567 248.5,243.5 Z"/></g>
<g><path style="opacity:0.969" fill="#8caaa0" d="M 363.5,247.5 C 363.928,250.785 364.928,253.785 366.5,256.5C 369.54,261.436 372.04,266.769 374,272.5C 374.667,276.5 374.667,280.5 374,284.5C 373.617,285.056 373.117,285.389 372.5,285.5C 368.182,286.992 364.182,288.992 360.5,291.5C 357.813,291.664 355.146,291.497 352.5,291C 351.584,290.722 350.918,290.222 350.5,289.5C 347.785,286.118 344.785,283.118 341.5,280.5C 340.3,277.031 340.3,273.698 341.5,270.5C 342.451,269.081 342.784,267.415 342.5,265.5C 343.325,269.647 343.825,273.981 344,278.5C 347.879,287.045 354.379,290.212 363.5,288C 368.907,286.435 371.907,282.935 372.5,277.5C 369.798,267.423 365.965,257.756 361,248.5C 353.653,242.438 347.486,243.438 342.5,251.5C 343.091,248.386 344.758,245.886 347.5,244C 347.272,243.601 346.938,243.435 346.5,243.5C 346.611,242.883 346.944,242.383 347.5,242C 354.295,240.02 359.628,241.853 363.5,247.5 Z"/></g>
<g><path style="opacity:0.573" fill="#91acb9" d="M 188.5,250.5 C 187.581,253.089 185.914,255.089 183.5,256.5C 184.247,253.638 185.914,251.638 188.5,250.5 Z"/></g>
<g><path style="opacity:0.341" fill="#a6d3f7" d="M 363.5,247.5 C 365.472,250.084 366.472,253.084 366.5,256.5C 364.928,253.785 363.928,250.785 363.5,247.5 Z"/></g>
<g><path style="opacity:1" fill="#b0d29c" d="M 189.5,247.5 C 188.89,248.391 188.557,249.391 188.5,250.5C 185.914,251.638 184.247,253.638 183.5,256.5C 183.672,257.492 183.338,258.158 182.5,258.5C 181.778,258.918 181.278,259.584 181,260.5C 180.829,268.011 180.329,275.345 179.5,282.5C 179.334,273.827 179.5,265.16 180,256.5C 182.853,253.948 185.353,251.115 187.5,248C 188.094,247.536 188.761,247.369 189.5,247.5 Z"/></g>
<g><path style="opacity:0.337" fill="#9ec8e2" d="M 346.5,243.5 C 346.938,243.435 347.272,243.601 347.5,244C 344.758,245.886 343.091,248.386 342.5,251.5C 342.5,251.833 342.5,252.167 342.5,252.5C 341.612,255.483 340.946,258.65 340.5,262C 340.387,263.699 341.053,264.866 342.5,265.5C 342.784,267.415 342.451,269.081 341.5,270.5C 338.918,262.098 339.418,253.765 343,245.5C 343.816,244.177 344.983,243.511 346.5,243.5 Z"/></g>
<g><path style="opacity:1" fill="#abcc90" d="M 28.5,234.5 C 29.4345,235.568 29.7678,236.901 29.5,238.5C 34.6262,238.932 39.6262,239.932 44.5,241.5C 49.5309,252.399 55.1976,262.899 61.5,273C 66.1149,271.968 70.7816,270.802 75.5,269.5C 71.8677,270.984 68.5344,272.984 65.5,275.5C 65.1667,275.5 64.8333,275.5 64.5,275.5C 61.7374,275.256 59.5707,273.923 58,271.5C 53.3333,262.167 48.6667,252.833 44,243.5C 39.2767,241.854 34.4433,240.52 29.5,239.5C 28.5481,237.955 28.2148,236.288 28.5,234.5 Z"/></g>
<g><path style="opacity:1" fill="#859f82" d="M 342.5,252.5 C 342.5,256.833 342.5,261.167 342.5,265.5C 341.053,264.866 340.387,263.699 340.5,262C 340.946,258.65 341.612,255.483 342.5,252.5 Z"/></g>
<g><path style="opacity:1" fill="#a8ca93" d="M 130.5,278.5 C 129.833,276.5 129.167,274.5 128.5,272.5C 127.025,270.59 125.025,269.424 122.5,269C 119.854,268.503 117.187,268.336 114.5,268.5C 113.737,267.732 112.737,267.232 111.5,267C 102.173,266.5 92.8393,266.334 83.5,266.5C 83.6107,265.883 83.944,265.383 84.5,265C 93.5,264.333 102.5,264.333 111.5,265C 112.833,265.667 114.167,266.333 115.5,267C 121.219,266.705 126.386,268.205 131,271.5C 131.334,273.847 131.167,276.181 130.5,278.5 Z"/></g>
<g><path style="opacity:0.522" fill="#91adbf" d="M 114.5,268.5 C 117.187,268.336 119.854,268.503 122.5,269C 125.025,269.424 127.025,270.59 128.5,272.5C 128.5,272.833 128.5,273.167 128.5,273.5C 123.965,271.208 119.299,269.542 114.5,268.5 Z"/></g>
<g><path style="opacity:0.373" fill="#8ea9b4" d="M 83.5,266.5 C 92.8393,266.334 102.173,266.5 111.5,267C 112.737,267.232 113.737,267.732 114.5,268.5C 105.189,267.479 95.8559,267.313 86.5,268C 79.6663,271 72.6663,273.5 65.5,275.5C 68.5344,272.984 71.8677,270.984 75.5,269.5C 78.4855,269.097 81.1522,268.097 83.5,266.5 Z"/></g>
<g><path style="opacity:0.99" fill="#89a395" d="M 182.5,258.5 C 182.827,267.682 182.493,276.682 181.5,285.5C 180.833,285.5 180.167,285.5 179.5,285.5C 179.5,284.5 179.5,283.5 179.5,282.5C 180.329,275.345 180.829,268.011 181,260.5C 181.278,259.584 181.778,258.918 182.5,258.5 Z"/></g>
<g><path style="opacity:0.336" fill="#a8d8fb" d="M 341.5,280.5 C 344.785,283.118 347.785,286.118 350.5,289.5C 346.522,287.522 343.522,284.522 341.5,280.5 Z"/></g>
<g><path style="opacity:0.941" fill="#8faea1" d="M 128.5,272.5 C 129.167,274.5 129.833,276.5 130.5,278.5C 130.706,282.904 132.039,286.904 134.5,290.5C 132.97,289.789 131.637,288.789 130.5,287.5C 127.389,283.293 126.722,278.626 128.5,273.5C 128.5,273.167 128.5,272.833 128.5,272.5 Z"/></g>
<g><path style="opacity:0.334" fill="#a6d5f5" d="M 372.5,285.5 C 369.35,289.075 365.35,291.075 360.5,291.5C 364.182,288.992 368.182,286.992 372.5,285.5 Z"/></g>
<g><path style="opacity:1" fill="#a3c790" d="M 178.5,285.5 C 177.685,286.837 176.518,287.837 175,288.5C 174.155,290.611 173.322,292.611 172.5,294.5C 171.835,289.45 173.835,286.45 178.5,285.5 Z"/></g>
<g><path style="opacity:0.949" fill="#96b9cc" d="M 130.5,287.5 C 131.637,288.789 132.97,289.789 134.5,290.5C 134.833,291.167 135.167,291.833 135.5,292.5C 136.167,294.167 136.833,295.833 137.5,297.5C 134.395,294.725 132.062,291.392 130.5,287.5 Z"/></g>
<g><path style="opacity:0.973" fill="#8eadaa" d="M 178.5,285.5 C 178.833,285.5 179.167,285.5 179.5,285.5C 180.167,285.5 180.833,285.5 181.5,285.5C 180.439,287.532 178.772,288.866 176.5,289.5C 174.905,296.223 170.905,300.723 164.5,303C 158.833,303.667 153.167,303.667 147.5,303C 143.914,301.458 140.581,299.625 137.5,297.5C 136.833,295.833 136.167,294.167 135.5,292.5C 140.798,298.897 147.631,301.897 156,301.5C 162.752,302.039 168.252,299.705 172.5,294.5C 173.322,292.611 174.155,290.611 175,288.5C 176.518,287.837 177.685,286.837 178.5,285.5 Z"/></g>
<g><path style="opacity:0.405" fill="#9fc8e9" d="M 276.5,343.5 C 275.833,343.5 275.167,343.5 274.5,343.5C 273.738,341.738 272.404,340.738 270.5,340.5C 270.389,339.883 270.056,339.383 269.5,339C 259.715,338.012 250.049,338.512 240.5,340.5C 241.6,339.442 242.934,338.608 244.5,338C 253.167,337.333 261.833,337.333 270.5,338C 272.996,339.331 274.996,341.164 276.5,343.5 Z"/></g>
<g><path style="opacity:1" fill="#81997a" d="M 270.5,340.5 C 260.45,339.036 250.45,339.369 240.5,341.5C 240.5,341.167 240.5,340.833 240.5,340.5C 250.049,338.512 259.715,338.012 269.5,339C 270.056,339.383 270.389,339.883 270.5,340.5 Z"/></g>
<g><path style="opacity:1" fill="#d5eec4" d="M 270.5,340.5 C 272.404,340.738 273.738,341.738 274.5,343.5C 281.473,349.47 283.306,356.804 280,365.5C 277.584,368.423 274.75,370.757 271.5,372.5C 267.886,374.307 264.22,376.14 260.5,378C 256.604,382.743 255.104,388.243 256,394.5C 257.049,396.618 258.549,398.284 260.5,399.5C 261.365,402.1 262.032,404.767 262.5,407.5C 261.615,412.145 260.948,416.811 260.5,421.5C 259.833,424.167 259.167,426.833 258.5,429.5C 255.962,433.4 255.128,437.734 256,442.5C 258.334,446 261.168,449 264.5,451.5C 265.648,454.087 267.315,455.087 269.5,454.5C 273.272,451.906 276.939,449.073 280.5,446C 282.611,445.155 284.611,444.322 286.5,443.5C 289.326,443.002 291.66,441.669 293.5,439.5C 296.926,437.924 300.26,436.091 303.5,434C 307.357,433.242 311.023,433.742 314.5,435.5C 315.514,436.674 316.847,437.34 318.5,437.5C 322.432,440.092 326.099,443.092 329.5,446.5C 330.373,448.886 331.873,450.886 334,452.5C 335.009,454.025 335.509,455.692 335.5,457.5C 334.197,459.142 332.864,460.809 331.5,462.5C 328.59,464.239 326.09,466.572 324,469.5C 323.667,471.167 323.333,472.833 323,474.5C 314.789,479.177 312.122,486.177 315,495.5C 319.167,499.667 323.333,503.833 327.5,508C 333.167,508.667 338.833,508.667 344.5,508C 345.381,507.292 346.047,506.458 346.5,505.5C 351.844,505.666 357.177,505.499 362.5,505C 363.71,503.961 364.71,502.794 365.5,501.5C 368.728,500.586 372.061,500.253 375.5,500.5C 380.028,502.51 384.861,503.843 390,504.5C 392.008,504.693 393.508,504.026 394.5,502.5C 398.37,503.263 401.37,505.263 403.5,508.5C 405.963,512.3 409.296,514.967 413.5,516.5C 415.833,517.5 417.5,519.167 418.5,521.5C 420.021,525.115 422.687,527.615 426.5,529C 430.167,529.667 433.833,529.667 437.5,529C 441.333,525.167 445.167,521.333 449,517.5C 449.381,510.446 448.881,503.446 447.5,496.5C 444.833,496.5 442.167,496.5 439.5,496.5C 438.078,496.291 436.745,495.791 435.5,495C 433.034,492.521 430.701,490.021 428.5,487.5C 427.331,484.489 425.664,481.822 423.5,479.5C 420.563,474.624 417.896,469.624 415.5,464.5C 415.634,462.708 415.301,461.042 414.5,459.5C 414.046,456.135 413.38,452.802 412.5,449.5C 412.84,447.488 413.173,445.488 413.5,443.5C 413.75,441.326 414.75,439.659 416.5,438.5C 418.326,436.853 419.66,434.853 420.5,432.5C 425.369,427.437 428.702,421.437 430.5,414.5C 433.98,410.637 435.647,405.971 435.5,400.5C 435.5,400.167 435.5,399.833 435.5,399.5C 436.51,395.684 438.843,392.851 442.5,391C 452.167,390.333 461.833,390.333 471.5,391C 472.416,391.278 473.082,391.778 473.5,392.5C 474.29,393.794 475.29,394.961 476.5,396C 482.148,395.97 487.815,395.803 493.5,395.5C 494.5,395.5 495.5,395.5 496.5,395.5C 500.768,396.967 504.768,398.967 508.5,401.5C 508.833,402.5 509.5,403.167 510.5,403.5C 511.669,408.01 513.336,412.344 515.5,416.5C 515.334,421.844 515.501,427.177 516,432.5C 517.039,433.71 518.206,434.71 519.5,435.5C 520.483,439.298 520.817,443.298 520.5,447.5C 518.7,452.639 515.7,456.972 511.5,460.5C 507.892,461.125 505.225,462.958 503.5,466C 501.736,472.123 501.403,478.29 502.5,484.5C 507.333,487.082 512,489.915 516.5,493C 521.167,493.667 525.833,493.667 530.5,493C 534.455,490.738 538.455,488.572 542.5,486.5C 543.298,486.043 543.631,485.376 543.5,484.5C 544.262,482.738 545.596,481.738 547.5,481.5C 556.114,480.392 562.614,483.725 567,491.5C 567.497,493.81 567.663,496.143 567.5,498.5C 563.085,504.434 563.752,509.767 569.5,514.5C 571.5,516.833 573.5,519.167 575.5,521.5C 576.338,521.842 576.672,522.508 576.5,523.5C 577.654,526.479 578.82,529.479 580,532.5C 580.949,540.613 577.782,546.28 570.5,549.5C 564.491,549.334 558.491,549.501 552.5,550C 550.767,551.189 549.1,552.356 547.5,553.5C 547.5,553.833 547.5,554.167 547.5,554.5C 539.077,555.85 530.744,556.85 522.5,557.5C 520.596,557.738 519.262,558.738 518.5,560.5C 515.94,562.273 513.607,564.273 511.5,566.5C 510.391,566.557 509.391,566.89 508.5,567.5C 504.886,569.307 501.22,571.14 497.5,573C 494.679,575.141 493.346,577.975 493.5,581.5C 488.258,591.949 480.258,594.782 469.5,590C 467.7,588.188 466.033,586.355 464.5,584.5C 464.5,583.833 464.5,583.167 464.5,582.5C 464.03,579.255 462.697,576.421 460.5,574C 456.614,571.89 452.614,570.057 448.5,568.5C 442.24,572.752 436.24,577.419 430.5,582.5C 430.167,583.5 429.833,584.5 429.5,585.5C 431.227,591.181 433.06,596.847 435,602.5C 435.377,603.942 436.21,604.942 437.5,605.5C 441.874,610.466 443.04,616.133 441,622.5C 437.938,625.732 434.771,628.732 431.5,631.5C 429.473,631.338 427.473,631.505 425.5,632C 420.979,636.022 416.312,639.856 411.5,643.5C 409.636,649.351 408.636,655.351 408.5,661.5C 395.021,663.158 381.854,666.158 369,670.5C 368.517,671.448 368.351,672.448 368.5,673.5C 366.62,673.229 365.287,673.896 364.5,675.5C 363.833,675.5 363.167,675.5 362.5,675.5C 358.818,675.335 355.152,675.501 351.5,676C 350.244,676.417 349.577,677.25 349.5,678.5C 343.182,678.992 337.682,681.326 333,685.5C 326.455,685.921 320.622,688.088 315.5,692C 312.843,692.175 310.176,692.008 307.5,691.5C 305.192,689.529 302.858,687.529 300.5,685.5C 298.801,678.696 299.801,672.363 303.5,666.5C 308.786,663.498 311.452,658.832 311.5,652.5C 312.124,650.246 313.457,648.579 315.5,647.5C 318.777,644.899 320.777,641.565 321.5,637.5C 324.394,636.047 327.394,635.047 330.5,634.5C 334.833,634.5 339.167,634.5 343.5,634.5C 352.839,634.666 362.173,634.5 371.5,634C 374.563,632.475 377.23,630.475 379.5,628C 383.341,627.124 387.007,625.791 390.5,624C 394.333,620.167 398.167,616.333 402,612.5C 402.667,606.833 402.667,601.167 402,595.5C 400.708,593.751 399.542,591.918 398.5,590C 392.141,590.257 386.141,591.757 380.5,594.5C 375.86,595.397 371.194,595.564 366.5,595C 363.926,592.682 362.259,589.849 361.5,586.5C 360.83,581.504 358.497,577.504 354.5,574.5C 352.954,570.787 350.287,568.287 346.5,567C 341.979,561.98 337.645,556.813 333.5,551.5C 327.193,550.336 320.859,550.169 314.5,551C 312.21,552.777 310.543,554.944 309.5,557.5C 305.544,559.788 302.211,562.788 299.5,566.5C 296.642,569.086 293.642,571.42 290.5,573.5C 288.326,573.75 286.659,574.75 285.5,576.5C 285.167,576.5 284.833,576.5 284.5,576.5C 282.738,577.262 281.738,578.596 281.5,580.5C 277.756,584.217 273.423,587.217 268.5,589.5C 264.563,589.793 260.73,589.46 257,588.5C 256.221,583.682 256.721,579.015 258.5,574.5C 258.427,572.973 259.094,571.973 260.5,571.5C 262.833,569.5 265.167,567.5 267.5,565.5C 272.942,564.703 275.609,561.37 275.5,555.5C 278.095,550.504 280.095,545.17 281.5,539.5C 280.019,535.873 278.019,532.54 275.5,529.5C 264.963,528.832 254.463,527.832 244,526.5C 240.832,526.106 238.332,527.106 236.5,529.5C 228.312,529.644 223.978,525.644 223.5,517.5C 224.401,514.128 224.401,510.795 223.5,507.5C 222.06,506.048 220.394,505.048 218.5,504.5C 214.013,500.53 211.347,495.53 210.5,489.5C 211.898,488.223 212.564,486.557 212.5,484.5C 212.41,477.813 209.41,473.147 203.5,470.5C 200.019,465.868 197.352,460.868 195.5,455.5C 195.424,448.21 194.424,441.043 192.5,434C 193.617,431.269 194.283,428.435 194.5,425.5C 197.279,420.097 199.612,414.43 201.5,408.5C 203.083,406.337 204.416,404.004 205.5,401.5C 209.14,397.194 213.14,393.194 217.5,389.5C 219.394,388.952 221.06,387.952 222.5,386.5C 223.803,384.032 225.303,381.699 227,379.5C 227.692,375.102 226.859,371.102 224.5,367.5C 224.035,363.208 224.868,359.208 227,355.5C 231.031,350.304 235.531,345.637 240.5,341.5C 250.45,339.369 260.45,339.036 270.5,340.5 Z M 486.5,521.5 C 489.561,521.444 491.728,522.778 493,525.5C 494.421,538.414 488.588,544.581 475.5,544C 471.895,537.354 472.562,531.02 477.5,525C 480.571,523.704 483.571,522.538 486.5,521.5 Z"/></g>
<g><path style="opacity:0.592" fill="#a4d2f2" d="M 240.5,340.5 C 240.5,340.833 240.5,341.167 240.5,341.5C 234.237,344.761 229.237,349.428 225.5,355.5C 225.167,355.5 224.833,355.5 224.5,355.5C 227.926,348.405 233.259,343.405 240.5,340.5 Z"/></g>
<g><path style="opacity:0.992" fill="#829886" d="M 240.5,341.5 C 235.531,345.637 231.031,350.304 227,355.5C 224.868,359.208 224.035,363.208 224.5,367.5C 224.5,369.833 224.5,372.167 224.5,374.5C 223.596,373.791 223.263,372.791 223.5,371.5C 222.214,365.928 222.881,360.595 225.5,355.5C 229.237,349.428 234.237,344.761 240.5,341.5 Z"/></g>
<g><path style="opacity:0.933" fill="#96c4c7" d="M 224.5,355.5 C 224.833,355.5 225.167,355.5 225.5,355.5C 222.881,360.595 222.214,365.928 223.5,371.5C 221.033,366.727 220.867,361.727 223,356.5C 223.383,355.944 223.883,355.611 224.5,355.5 Z"/></g>
<g><path style="opacity:0.378" fill="#a7d6f9" d="M 283.5,355.5 C 284.629,357.628 284.796,359.961 284,362.5C 283.8,364.32 282.966,365.653 281.5,366.5C 282.919,362.985 283.586,359.319 283.5,355.5 Z"/></g>
<g><path style="opacity:0.976" fill="#85a294" d="M 274.5,343.5 C 275.167,343.5 275.833,343.5 276.5,343.5C 280.887,346.271 283.221,350.271 283.5,355.5C 283.586,359.319 282.919,362.985 281.5,366.5C 280.833,369.167 279.167,370.833 276.5,371.5C 274.833,372.167 273.167,372.833 271.5,373.5C 271.5,373.167 271.5,372.833 271.5,372.5C 274.75,370.757 277.584,368.423 280,365.5C 283.306,356.804 281.473,349.47 274.5,343.5 Z"/></g>
<g><path style="opacity:0.435" fill="#94b0c2" d="M 276.5,371.5 C 276.047,372.458 275.381,373.292 274.5,374C 270.78,375.86 267.114,377.693 263.5,379.5C 265.77,377.025 268.437,375.025 271.5,373.5C 273.167,372.833 274.833,372.167 276.5,371.5 Z"/></g>
<g><path style="opacity:1" fill="#abcf95" d="M 224.5,367.5 C 226.859,371.102 227.692,375.102 227,379.5C 225.303,381.699 223.803,384.032 222.5,386.5C 221.06,387.952 219.394,388.952 217.5,389.5C 217.833,388.833 218.167,388.167 218.5,387.5C 221.737,385.37 223.737,382.37 224.5,378.5C 224.5,377.167 224.5,375.833 224.5,374.5C 224.5,372.167 224.5,369.833 224.5,367.5 Z"/></g>
<g><path style="opacity:0.475" fill="#8ea7b4" d="M 224.5,378.5 C 223.737,382.37 221.737,385.37 218.5,387.5C 218.167,387.5 217.833,387.5 217.5,387.5C 217.5,387.167 217.5,386.833 217.5,386.5C 219.823,383.874 222.157,381.207 224.5,378.5 Z"/></g>
<g><path style="opacity:0.639" fill="#93a49a" d="M 259.5,384.5 C 259.326,386.861 258.993,389.194 258.5,391.5C 257.853,390.726 257.52,389.726 257.5,388.5C 257.34,386.645 258.007,385.312 259.5,384.5 Z"/></g>
<g><path style="opacity:0.682" fill="#98bedb" d="M 477.5,392.5 C 476.833,392.5 476.167,392.5 475.5,392.5C 474.942,391.21 473.942,390.377 472.5,390C 462.167,389.333 451.833,389.333 441.5,390C 440.255,390.791 438.922,391.291 437.5,391.5C 438.058,390.21 439.058,389.377 440.5,389C 451.5,388.333 462.5,388.333 473.5,389C 475.324,389.66 476.657,390.827 477.5,392.5 Z"/></g>
<g><path style="opacity:0.992" fill="#7f987b" d="M 475.5,392.5 C 474.833,392.5 474.167,392.5 473.5,392.5C 473.082,391.778 472.416,391.278 471.5,391C 461.833,390.333 452.167,390.333 442.5,391C 438.843,392.851 436.51,395.684 435.5,399.5C 435.674,397.139 436.007,394.806 436.5,392.5C 436.5,391.833 436.833,391.5 437.5,391.5C 438.922,391.291 440.255,390.791 441.5,390C 451.833,389.333 462.167,389.333 472.5,390C 473.942,390.377 474.942,391.21 475.5,392.5 Z"/></g>
<g><path style="opacity:1" fill="#849c7c" d="M 217.5,387.5 C 217.833,387.5 218.167,387.5 218.5,387.5C 218.167,388.167 217.833,388.833 217.5,389.5C 213.14,393.194 209.14,397.194 205.5,401.5C 208.383,395.945 212.383,391.278 217.5,387.5 Z"/></g>
<g><path style="opacity:1" fill="#aacf94" d="M 473.5,392.5 C 474.167,392.5 474.833,392.5 475.5,392.5C 475.918,393.222 476.584,393.722 477.5,394C 482.823,394.499 488.156,394.666 493.5,394.5C 493.5,394.833 493.5,395.167 493.5,395.5C 487.815,395.803 482.148,395.97 476.5,396C 475.29,394.961 474.29,393.794 473.5,392.5 Z"/></g>
<g><path style="opacity:1" fill="#abd096" d="M 271.5,372.5 C 271.5,372.833 271.5,373.167 271.5,373.5C 268.437,375.025 265.77,377.025 263.5,379.5C 261.464,380.626 260.13,382.293 259.5,384.5C 258.007,385.312 257.34,386.645 257.5,388.5C 257.52,389.726 257.853,390.726 258.5,391.5C 258.5,392.167 258.5,392.833 258.5,393.5C 259.167,395.5 259.833,397.5 260.5,399.5C 258.549,398.284 257.049,396.618 256,394.5C 255.104,388.243 256.604,382.743 260.5,378C 264.22,376.14 267.886,374.307 271.5,372.5 Z"/></g>
<g><path style="opacity:0.672" fill="#83948c" d="M 475.5,392.5 C 476.167,392.5 476.833,392.5 477.5,392.5C 480.391,393.403 483.391,393.736 486.5,393.5C 490.362,393.066 492.695,393.4 493.5,394.5C 488.156,394.666 482.823,394.499 477.5,394C 476.584,393.722 475.918,393.222 475.5,392.5 Z"/></g>
<g><path style="opacity:0.925" fill="#96c5bd" d="M 486.5,393.5 C 491.867,391.989 497.2,392.322 502.5,394.5C 502.5,394.833 502.5,395.167 502.5,395.5C 500.347,394.427 498.347,394.427 496.5,395.5C 495.5,395.5 494.5,395.5 493.5,395.5C 493.5,395.167 493.5,394.833 493.5,394.5C 492.695,393.4 490.362,393.066 486.5,393.5 Z"/></g>
<g><path style="opacity:0.686" fill="#92adb7" d="M 258.5,393.5 C 261.182,395.53 262.849,398.197 263.5,401.5C 262.778,400.449 261.778,399.782 260.5,399.5C 259.833,397.5 259.167,395.5 258.5,393.5 Z"/></g>
<g><path style="opacity:0.996" fill="#839985" d="M 496.5,395.5 C 498.347,394.427 500.347,394.427 502.5,395.5C 504.806,397.139 506.806,399.139 508.5,401.5C 504.768,398.967 500.768,396.967 496.5,395.5 Z"/></g>
<g><path style="opacity:0.383" fill="#97bad4" d="M 660.5,395.5 C 666.18,396.647 671.847,396.647 677.5,395.5C 676.5,396.167 675.5,396.833 674.5,397.5C 671.5,397.5 668.5,397.5 665.5,397.5C 663.833,396.833 662.167,396.167 660.5,395.5 Z"/></g>
<g><path style="opacity:1" fill="#9dba8c" d="M 661.5,398.5 C 662.568,397.566 663.901,397.232 665.5,397.5C 668.5,397.5 671.5,397.5 674.5,397.5C 676.735,397.205 678.735,397.539 680.5,398.5C 674.15,399.587 667.817,399.587 661.5,398.5 Z"/></g>
<g><path style="opacity:0.973" fill="#8caba6" d="M 660.5,395.5 C 662.167,396.167 663.833,396.833 665.5,397.5C 663.901,397.232 662.568,397.566 661.5,398.5C 659.566,399.11 657.899,400.11 656.5,401.5C 654.304,402.838 652.304,404.505 650.5,406.5C 651.809,403.222 653.642,400.222 656,397.5C 657.33,396.418 658.83,395.751 660.5,395.5 Z"/></g>
<g><path style="opacity:1" fill="#d4edc3" d="M 661.5,398.5 C 667.817,399.587 674.15,399.587 680.5,398.5C 683.167,399.5 685.833,400.5 688.5,401.5C 691.833,404.167 694.833,407.167 697.5,410.5C 698.906,410.973 699.573,411.973 699.5,413.5C 700.045,415.593 700.878,417.593 702,419.5C 702.667,421.5 702.667,423.5 702,425.5C 696.659,429.752 690.825,432.752 684.5,434.5C 681.812,434.166 679.479,434.832 677.5,436.5C 674.214,437.207 670.881,437.54 667.5,437.5C 663.212,435.019 658.546,433.852 653.5,434C 648.667,438.167 643.833,442.333 639,446.5C 637.991,448.025 637.491,449.692 637.5,451.5C 637.047,452.458 636.381,453.292 635.5,454C 630.665,454.774 626.332,456.608 622.5,459.5C 619.365,461.023 616.032,461.69 612.5,461.5C 607.026,455.867 602.026,456.201 597.5,462.5C 593.832,464.721 589.832,465.721 585.5,465.5C 583.668,464.752 582.001,463.752 580.5,462.5C 577.265,457.639 576.599,452.306 578.5,446.5C 582.382,442.736 586.715,439.736 591.5,437.5C 593.621,437.675 595.621,437.341 597.5,436.5C 599.833,436.5 602.167,436.5 604.5,436.5C 607.885,438.245 611.552,438.745 615.5,438C 620.021,433.978 624.688,430.144 629.5,426.5C 630.325,424.199 630.992,421.865 631.5,419.5C 633.004,416.069 635.671,414.069 639.5,413.5C 643.188,413.219 646.855,412.719 650.5,412C 652.76,408.591 654.76,405.091 656.5,401.5C 657.899,400.11 659.566,399.11 661.5,398.5 Z"/></g>
<g><path style="opacity:0.992" fill="#809b88" d="M 677.5,395.5 C 679.415,395.216 681.081,395.549 682.5,396.5C 684.5,398.167 686.5,399.833 688.5,401.5C 685.833,400.5 683.167,399.5 680.5,398.5C 678.735,397.539 676.735,397.205 674.5,397.5C 675.5,396.833 676.5,396.167 677.5,395.5 Z"/></g>
<g><path style="opacity:0.553" fill="#a0caea" d="M 217.5,386.5 C 217.5,386.833 217.5,387.167 217.5,387.5C 212.383,391.278 208.383,395.945 205.5,401.5C 203.806,402.527 202.473,403.861 201.5,405.5C 201.351,404.448 201.517,403.448 202,402.5C 204.333,399.5 206.667,396.5 209,393.5C 211.436,390.553 214.269,388.22 217.5,386.5 Z"/></g>
<g><path style="opacity:0.297" fill="#a3d0ef" d="M 682.5,396.5 C 687.022,397.589 690.689,399.922 693.5,403.5C 691.833,402.833 690.167,402.167 688.5,401.5C 686.5,399.833 684.5,398.167 682.5,396.5 Z"/></g>
<g><path style="opacity:1" fill="#d3ecc2" d="M 353.5,400.5 C 365.555,404.934 370.055,413.6 367,426.5C 365.668,428.66 364.168,430.66 362.5,432.5C 360.236,433.219 357.903,433.552 355.5,433.5C 355.167,432.833 354.833,432.167 354.5,431.5C 353.535,427.892 351.202,426.226 347.5,426.5C 344.113,423.117 341.113,419.45 338.5,415.5C 340.158,411.87 341.492,408.203 342.5,404.5C 345.405,401.22 349.071,399.887 353.5,400.5 Z"/></g>
<g><path style="opacity:1" fill="#7b927c" d="M 353.5,400.5 C 349.071,399.887 345.405,401.22 342.5,404.5C 343.359,401.548 345.359,399.715 348.5,399C 350.535,398.401 352.201,398.901 353.5,400.5 Z"/></g>
<g><path style="opacity:0.639" fill="#9cc4e1" d="M 436.5,392.5 C 436.007,394.806 435.674,397.139 435.5,399.5C 435.5,399.833 435.5,400.167 435.5,400.5C 434.833,401.833 434.167,403.167 433.5,404.5C 433.502,400.126 434.502,396.126 436.5,392.5 Z"/></g>
<g><path style="opacity:0.996" fill="#809681" d="M 205.5,401.5 C 204.416,404.004 203.083,406.337 201.5,408.5C 201.5,407.833 201.5,407.167 201.5,406.5C 201.5,406.167 201.5,405.833 201.5,405.5C 202.473,403.861 203.806,402.527 205.5,401.5 Z"/></g>
<g><path style="opacity:0.286" fill="#a4d0f2" d="M 502.5,394.5 C 512.703,400.567 518.036,409.567 518.5,421.5C 517.196,414.929 514.529,408.929 510.5,403.5C 509.5,403.167 508.833,402.5 508.5,401.5C 506.806,399.139 504.806,397.139 502.5,395.5C 502.5,395.167 502.5,394.833 502.5,394.5 Z"/></g>
<g><path style="opacity:0.949" fill="#809b86" d="M 688.5,401.5 C 690.167,402.167 691.833,402.833 693.5,403.5C 694.5,403.833 695.167,404.5 695.5,405.5C 696.167,407.167 696.833,408.833 697.5,410.5C 694.833,407.167 691.833,404.167 688.5,401.5 Z"/></g>
<g><path style="opacity:0.988" fill="#829e88" d="M 260.5,399.5 C 261.778,399.782 262.778,400.449 263.5,401.5C 265.514,403.902 265.847,406.568 264.5,409.5C 263.167,413.5 261.833,417.5 260.5,421.5C 260.948,416.811 261.615,412.145 262.5,407.5C 262.032,404.767 261.365,402.1 260.5,399.5 Z"/></g>
<g><path style="opacity:0.773" fill="#8a9f96" d="M 435.5,400.5 C 435.647,405.971 433.98,410.637 430.5,414.5C 430.833,413.167 431.167,411.833 431.5,410.5C 432.167,408.5 432.833,406.5 433.5,404.5C 434.167,403.167 434.833,401.833 435.5,400.5 Z"/></g>
<g><path style="opacity:1" fill="#aed199" d="M 656.5,401.5 C 654.76,405.091 652.76,408.591 650.5,412C 646.855,412.719 643.188,413.219 639.5,413.5C 640.833,412.5 642.167,411.5 643.5,410.5C 646.533,410.185 648.866,408.851 650.5,406.5C 652.304,404.505 654.304,402.838 656.5,401.5 Z"/></g>
<g><path style="opacity:0.474" fill="#a6d4f6" d="M 364.5,403.5 C 360.914,402.207 357.248,401.207 353.5,400.5C 352.201,398.901 350.535,398.401 348.5,399C 345.359,399.715 343.359,401.548 342.5,404.5C 338.316,408.561 336.649,413.561 337.5,419.5C 335.858,411.556 338.191,404.723 344.5,399C 347.077,397.75 349.743,397.416 352.5,398C 355.5,399 358.5,400 361.5,401C 362.942,401.377 363.942,402.21 364.5,403.5 Z"/></g>
<g><path style="opacity:0.347" fill="#9abfd9" d="M 264.5,409.5 C 262.868,418.694 260.868,427.694 258.5,436.5C 258.5,434.167 258.5,431.833 258.5,429.5C 259.167,426.833 259.833,424.167 260.5,421.5C 261.833,417.5 263.167,413.5 264.5,409.5 Z"/></g>
<g><path style="opacity:0.332" fill="#a5d2f5" d="M 201.5,406.5 C 201.5,407.167 201.5,407.833 201.5,408.5C 198.984,411.534 196.984,414.868 195.5,418.5C 195.933,413.633 197.933,409.633 201.5,406.5 Z"/></g>
<g><path style="opacity:0.32" fill="#a8d7fa" d="M 368.5,409.5 C 370.211,413.881 370.877,418.547 370.5,423.5C 369.479,419.02 368.813,414.353 368.5,409.5 Z"/></g>
<g><path style="opacity:1" fill="#879f86" d="M 510.5,403.5 C 514.529,408.929 517.196,414.929 518.5,421.5C 518.5,424.5 518.5,427.5 518.5,430.5C 517.21,425.887 516.21,421.22 515.5,416.5C 513.336,412.344 511.669,408.01 510.5,403.5 Z"/></g>
<g><path style="opacity:0.511" fill="#8caca2" d="M 643.5,410.5 C 642.167,411.5 640.833,412.5 639.5,413.5C 635.671,414.069 633.004,416.069 631.5,419.5C 629.926,420.984 628.593,422.651 627.5,424.5C 628.116,414.555 633.449,409.889 643.5,410.5 Z"/></g>
<g><path style="opacity:0.37" fill="#a3cef0" d="M 695.5,405.5 C 702.46,411.053 705.127,418.053 703.5,426.5C 704.337,421.364 703.003,417.031 699.5,413.5C 699.573,411.973 698.906,410.973 697.5,410.5C 696.833,408.833 696.167,407.167 695.5,405.5 Z"/></g>
<g><path style="opacity:0.973" fill="#85a087" d="M 342.5,404.5 C 341.492,408.203 340.158,411.87 338.5,415.5C 341.113,419.45 344.113,423.117 347.5,426.5C 346.833,426.5 346.167,426.5 345.5,426.5C 343.249,423.705 340.582,421.372 337.5,419.5C 336.649,413.561 338.316,408.561 342.5,404.5 Z"/></g>
<g><path style="opacity:0.314" fill="#a3cff2" d="M 431.5,410.5 C 431.167,411.833 430.833,413.167 430.5,414.5C 427.5,419.167 424.5,423.833 421.5,428.5C 423.823,421.847 427.156,415.847 431.5,410.5 Z"/></g>
<g><path style="opacity:1" fill="#94b08d" d="M 430.5,414.5 C 428.702,421.437 425.369,427.437 420.5,432.5C 420.5,431.833 420.5,431.167 420.5,430.5C 420.328,429.508 420.662,428.842 421.5,428.5C 424.5,423.833 427.5,419.167 430.5,414.5 Z"/></g>
<g><path style="opacity:1" fill="#849d80" d="M 201.5,408.5 C 199.612,414.43 197.279,420.097 194.5,425.5C 194.674,423.139 195.007,420.806 195.5,418.5C 196.984,414.868 198.984,411.534 201.5,408.5 Z"/></g>
<g><path style="opacity:0.29" fill="#a7d5f7" d="M 337.5,419.5 C 340.582,421.372 343.249,423.705 345.5,426.5C 343.405,425.588 341.405,424.421 339.5,423C 338.177,422.184 337.511,421.017 337.5,419.5 Z"/></g>
<g><path style="opacity:0.973" fill="#86a493" d="M 353.5,400.5 C 357.248,401.207 360.914,402.207 364.5,403.5C 366.822,404.802 368.155,406.802 368.5,409.5C 368.813,414.353 369.479,419.02 370.5,423.5C 370.834,426.491 369.834,428.824 367.5,430.5C 365.833,431.167 364.167,431.833 362.5,432.5C 364.168,430.66 365.668,428.66 367,426.5C 370.055,413.6 365.555,404.934 353.5,400.5 Z"/></g>
<g><path style="opacity:0.957" fill="#99bfd7" d="M 195.5,418.5 C 195.007,420.806 194.674,423.139 194.5,425.5C 193.433,427.964 192.1,430.297 190.5,432.5C 191.398,427.466 193.065,422.799 195.5,418.5 Z"/></g>
<g><path style="opacity:0.651" fill="#a0caec" d="M 345.5,426.5 C 346.167,426.5 346.833,426.5 347.5,426.5C 347.833,427.167 348.167,427.833 348.5,428.5C 346.973,428.573 345.973,427.906 345.5,426.5 Z"/></g>
<g><path style="opacity:1" fill="#9ab68f" d="M 347.5,426.5 C 351.202,426.226 353.535,427.892 354.5,431.5C 353.833,431.5 353.167,431.5 352.5,431.5C 351.738,429.738 350.404,428.738 348.5,428.5C 348.167,427.833 347.833,427.167 347.5,426.5 Z"/></g>
<g><path style="opacity:0.686" fill="#92a6a9" d="M 627.5,424.5 C 627.489,426.017 626.823,427.184 625.5,428C 622.536,430.81 619.202,432.976 615.5,434.5C 619.183,430.82 623.183,427.486 627.5,424.5 Z"/></g>
<g><path style="opacity:0.286" fill="#a5d1f4" d="M 702.5,427.5 C 701.738,429.262 700.404,430.262 698.5,430.5C 699.262,428.738 700.596,427.738 702.5,427.5 Z"/></g>
<g><path style="opacity:0.725" fill="#9cc2e0" d="M 348.5,428.5 C 350.404,428.738 351.738,429.738 352.5,431.5C 350.596,431.262 349.262,430.262 348.5,428.5 Z"/></g>
<g><path style="opacity:0.988" fill="#7f9781" d="M 699.5,413.5 C 703.003,417.031 704.337,421.364 703.5,426.5C 703.5,427.167 703.167,427.5 702.5,427.5C 700.596,427.738 699.262,428.738 698.5,430.5C 695.802,430.845 693.802,432.178 692.5,434.5C 689.833,434.5 687.167,434.5 684.5,434.5C 690.825,432.752 696.659,429.752 702,425.5C 702.667,423.5 702.667,421.5 702,419.5C 700.878,417.593 700.045,415.593 699.5,413.5 Z"/></g>
<g><path style="opacity:0.326" fill="#a5d3f4" d="M 698.5,430.5 C 697.198,432.822 695.198,434.155 692.5,434.5C 693.802,432.178 695.802,430.845 698.5,430.5 Z"/></g>
<g><path style="opacity:0.922" fill="#9bc3d6" d="M 302.5,432.5 C 308.189,430.41 313.189,431.576 317.5,436C 319.382,436.198 321.048,436.698 322.5,437.5C 321.167,437.5 319.833,437.5 318.5,437.5C 316.847,437.34 315.514,436.674 314.5,435.5C 313.942,434.21 312.942,433.377 311.5,433C 308.518,432.502 305.518,432.335 302.5,432.5 Z"/></g>
<g><path style="opacity:0.651" fill="#99bedb" d="M 352.5,431.5 C 353.167,431.5 353.833,431.5 354.5,431.5C 354.833,432.167 355.167,432.833 355.5,433.5C 353.973,433.573 352.973,432.906 352.5,431.5 Z"/></g>
<g><path style="opacity:1" fill="#add198" d="M 515.5,416.5 C 516.21,421.22 517.21,425.887 518.5,430.5C 519.038,432.117 519.371,433.784 519.5,435.5C 518.206,434.71 517.039,433.71 516,432.5C 515.501,427.177 515.334,421.844 515.5,416.5 Z"/></g>
<g><path style="opacity:0.973" fill="#87a394" d="M 194.5,425.5 C 194.283,428.435 193.617,431.269 192.5,434C 194.424,441.043 195.424,448.21 195.5,455.5C 194.833,453.5 194.167,451.5 193.5,449.5C 192.527,447.052 192.194,444.385 192.5,441.5C 192.741,439.102 192.074,437.102 190.5,435.5C 190.5,434.5 190.5,433.5 190.5,432.5C 192.1,430.297 193.433,427.964 194.5,425.5 Z"/></g>
<g><path style="opacity:0.992" fill="#7d937d" d="M 302.5,432.5 C 305.518,432.335 308.518,432.502 311.5,433C 312.942,433.377 313.942,434.21 314.5,435.5C 311.023,433.742 307.357,433.242 303.5,434C 300.26,436.091 296.926,437.924 293.5,439.5C 296.214,436.785 299.214,434.451 302.5,432.5 Z"/></g>
<g><path style="opacity:0.232" fill="#9dc2dd" d="M 609.5,435.5 C 606.781,435.603 604.115,435.269 601.5,434.5C 599.829,434.668 598.496,435.335 597.5,436.5C 595.621,437.341 593.621,437.675 591.5,437.5C 589.833,437.5 588.167,437.5 586.5,437.5C 591.735,436.853 596.901,435.52 602,433.5C 604.76,433.646 607.26,434.313 609.5,435.5 Z"/></g>
<g><path style="opacity:1" fill="#a8c995" d="M 258.5,429.5 C 258.5,431.833 258.5,434.167 258.5,436.5C 258.325,438.621 258.659,440.621 259.5,442.5C 260.766,445.755 262.432,448.755 264.5,451.5C 261.168,449 258.334,446 256,442.5C 255.128,437.734 255.962,433.4 258.5,429.5 Z"/></g>
<g><path style="opacity:0.506" fill="#9ec5e0" d="M 367.5,430.5 C 364.759,434.202 361.093,435.702 356.5,435C 355.944,434.617 355.611,434.117 355.5,433.5C 357.903,433.552 360.236,433.219 362.5,432.5C 364.167,431.833 365.833,431.167 367.5,430.5 Z"/></g>
<g><path style="opacity:0.996" fill="#7f967f" d="M 420.5,432.5 C 419.66,434.853 418.326,436.853 416.5,438.5C 416.845,435.802 418.178,433.802 420.5,432.5 Z"/></g>
<g><path style="opacity:0.678" fill="#99bad2" d="M 684.5,434.5 C 687.167,434.5 689.833,434.5 692.5,434.5C 688.688,435.324 684.688,435.824 680.5,436C 679.211,437.802 677.544,438.969 675.5,439.5C 676.167,438.5 676.833,437.5 677.5,436.5C 679.479,434.832 681.812,434.166 684.5,434.5 Z"/></g>
<g><path style="opacity:1" fill="#859c84" d="M 609.5,435.5 C 610.5,435.5 611.5,435.5 612.5,435.5C 610.052,436.473 607.385,436.806 604.5,436.5C 602.167,436.5 599.833,436.5 597.5,436.5C 598.496,435.335 599.829,434.668 601.5,434.5C 604.115,435.269 606.781,435.603 609.5,435.5 Z"/></g>
<g><path style="opacity:1" fill="#abd094" d="M 631.5,419.5 C 630.992,421.865 630.325,424.199 629.5,426.5C 624.688,430.144 620.021,433.978 615.5,438C 611.552,438.745 607.885,438.245 604.5,436.5C 607.385,436.806 610.052,436.473 612.5,435.5C 613.609,435.443 614.609,435.11 615.5,434.5C 619.202,432.976 622.536,430.81 625.5,428C 626.823,427.184 627.489,426.017 627.5,424.5C 628.593,422.651 629.926,420.984 631.5,419.5 Z"/></g>
<g><path style="opacity:0.592" fill="#a2cfee" d="M 302.5,432.5 C 299.214,434.451 296.214,436.785 293.5,439.5C 292.833,439.5 292.167,439.5 291.5,439.5C 294.357,435.904 298.024,433.571 302.5,432.5 Z"/></g>
<g><path style="opacity:0.98" fill="#849f90" d="M 658.5,436.5 C 661.482,436.963 664.482,437.296 667.5,437.5C 670.881,437.54 674.214,437.207 677.5,436.5C 676.833,437.5 676.167,438.5 675.5,439.5C 674.292,440.234 672.959,440.567 671.5,440.5C 669.562,438.837 667.228,438.171 664.5,438.5C 662.214,438.405 660.214,437.738 658.5,436.5 Z"/></g>
<g><path style="opacity:1" fill="#abd095" d="M 667.5,437.5 C 664.482,437.296 661.482,436.963 658.5,436.5C 656.708,436.366 655.042,436.699 653.5,437.5C 650.222,438.809 647.222,440.642 644.5,443C 642.859,444.129 641.859,445.629 641.5,447.5C 640.167,448.833 638.833,450.167 637.5,451.5C 637.491,449.692 637.991,448.025 639,446.5C 643.833,442.333 648.667,438.167 653.5,434C 658.546,433.852 663.212,435.019 667.5,437.5 Z"/></g>
<g><path style="opacity:0.38" fill="#8da1a6" d="M 653.5,437.5 C 649.817,441.18 645.817,444.514 641.5,447.5C 641.859,445.629 642.859,444.129 644.5,443C 647.222,440.642 650.222,438.809 653.5,437.5 Z"/></g>
<g><path style="opacity:0.969" fill="#7e9881" d="M 318.5,437.5 C 319.833,437.5 321.167,437.5 322.5,437.5C 323.167,437.5 323.5,437.833 323.5,438.5C 325.167,440.833 327.167,442.833 329.5,444.5C 329.5,445.167 329.5,445.833 329.5,446.5C 326.099,443.092 322.432,440.092 318.5,437.5 Z"/></g>
<g><path style="opacity:0.957" fill="#8aada4" d="M 518.5,430.5 C 521.843,432.497 523.51,435.497 523.5,439.5C 522.251,442.087 521.251,444.754 520.5,447.5C 520.817,443.298 520.483,439.298 519.5,435.5C 519.371,433.784 519.038,432.117 518.5,430.5 Z"/></g>
<g><path style="opacity:0.996" fill="#7f9780" d="M 586.5,437.5 C 588.167,437.5 589.833,437.5 591.5,437.5C 586.715,439.736 582.382,442.736 578.5,446.5C 580.459,442.874 583.126,439.874 586.5,437.5 Z"/></g>
<g><path style="opacity:0.111" fill="#a3d1ef" d="M 664.5,438.5 C 667.228,438.171 669.562,438.837 671.5,440.5C 668.848,440.59 666.515,439.924 664.5,438.5 Z"/></g>
<g><path style="opacity:0.345" fill="#a2cdec" d="M 190.5,435.5 C 192.074,437.102 192.741,439.102 192.5,441.5C 190.926,439.898 190.259,437.898 190.5,435.5 Z"/></g>
<g><path style="opacity:0.398" fill="#a3d0f1" d="M 420.5,430.5 C 420.5,431.167 420.5,431.833 420.5,432.5C 418.178,433.802 416.845,435.802 416.5,438.5C 414.75,439.659 413.75,441.326 413.5,443.5C 412.5,444.833 411.5,446.167 410.5,447.5C 412.204,440.814 415.537,435.147 420.5,430.5 Z"/></g>
<g><path style="opacity:0.573" fill="#a4d2ef" d="M 586.5,437.5 C 583.126,439.874 580.459,442.874 578.5,446.5C 577.5,447.167 576.5,447.833 575.5,448.5C 577.5,443.167 581.167,439.5 586.5,437.5 Z"/></g>
<g><path style="opacity:0.769" fill="#a7d5f9" d="M 323.5,438.5 C 326.5,439.5 328.5,441.5 329.5,444.5C 327.167,442.833 325.167,440.833 323.5,438.5 Z"/></g>
<g><path style="opacity:0.776" fill="#9cb3b4" d="M 291.5,439.5 C 292.167,439.5 292.833,439.5 293.5,439.5C 291.66,441.669 289.326,443.002 286.5,443.5C 284.5,443.5 282.5,443.5 280.5,443.5C 282.969,442.683 285.635,442.183 288.5,442C 289.373,440.955 290.373,440.122 291.5,439.5 Z"/></g>
<g><path style="opacity:0.294" fill="#a4d2f1" d="M 523.5,439.5 C 523.077,446.43 521.077,452.764 517.5,458.5C 518.699,454.901 519.699,451.235 520.5,447.5C 521.251,444.754 522.251,442.087 523.5,439.5 Z"/></g>
<g><path style="opacity:1" fill="#8ba68e" d="M 329.5,446.5 C 331.167,447.833 332.833,449.167 334.5,450.5C 336.975,451.687 337.975,453.687 337.5,456.5C 336.833,456.833 336.167,457.167 335.5,457.5C 335.509,455.692 335.009,454.025 334,452.5C 331.873,450.886 330.373,448.886 329.5,446.5 Z"/></g>
<g><path style="opacity:0.769" fill="#9bc1df" d="M 329.5,444.5 C 331.914,445.911 333.581,447.911 334.5,450.5C 332.833,449.167 331.167,447.833 329.5,446.5C 329.5,445.833 329.5,445.167 329.5,444.5 Z"/></g>
<g><path style="opacity:0.961" fill="#86a48f" d="M 578.5,446.5 C 576.599,452.306 577.265,457.639 580.5,462.5C 577.903,462.721 577.903,463.221 580.5,464C 579.906,464.464 579.239,464.631 578.5,464.5C 577.833,464.5 577.5,464.167 577.5,463.5C 576.49,459.386 575.49,455.386 574.5,451.5C 574.263,450.209 574.596,449.209 575.5,448.5C 576.5,447.833 577.5,447.167 578.5,446.5 Z"/></g>
<g><path style="opacity:1" fill="#839c7e" d="M 280.5,443.5 C 282.5,443.5 284.5,443.5 286.5,443.5C 284.611,444.322 282.611,445.155 280.5,446C 276.939,449.073 273.272,451.906 269.5,454.5C 272.86,450.473 276.527,446.806 280.5,443.5 Z"/></g>
<g><path style="opacity:0.335" fill="#a1cee9" d="M 193.5,449.5 C 194.167,451.5 194.833,453.5 195.5,455.5C 196.092,458.127 196.425,460.794 196.5,463.5C 194.265,459.213 193.265,454.546 193.5,449.5 Z"/></g>
<g><path style="opacity:0.324" fill="#99bcd1" d="M 259.5,442.5 C 262.478,445.813 265.478,449.147 268.5,452.5C 271.972,448.681 275.972,445.681 280.5,443.5C 276.527,446.806 272.86,450.473 269.5,454.5C 267.315,455.087 265.648,454.087 264.5,451.5C 262.432,448.755 260.766,445.755 259.5,442.5 Z"/></g>
<g><path style="opacity:0.98" fill="#8ca89c" d="M 520.5,447.5 C 519.699,451.235 518.699,454.901 517.5,458.5C 514.762,461.554 511.429,463.887 507.5,465.5C 506.828,466.949 506.161,468.282 505.5,469.5C 505.34,467.801 505.506,466.134 506,464.5C 508.463,463.968 510.297,462.634 511.5,460.5C 515.7,456.972 518.7,452.639 520.5,447.5 Z"/></g>
<g><path style="opacity:0.369" fill="#a3d3ed" d="M 574.5,451.5 C 575.49,455.386 576.49,459.386 577.5,463.5C 575.034,459.982 574.034,455.982 574.5,451.5 Z"/></g>
<g><path style="opacity:0.992" fill="#85a18c" d="M 413.5,443.5 C 413.173,445.488 412.84,447.488 412.5,449.5C 413.38,452.802 414.046,456.135 414.5,459.5C 413.167,457.167 411.833,454.833 410.5,452.5C 409.28,450.716 409.28,449.05 410.5,447.5C 411.5,446.167 412.5,444.833 413.5,443.5 Z"/></g>
<g><path style="opacity:0.525" fill="#92aeb6" d="M 641.5,447.5 C 640.9,454.931 636.9,458.098 629.5,457C 626.108,459.694 622.441,461.86 618.5,463.5C 619.833,462.167 621.167,460.833 622.5,459.5C 626.332,456.608 630.665,454.774 635.5,454C 636.381,453.292 637.047,452.458 637.5,451.5C 638.833,450.167 640.167,448.833 641.5,447.5 Z"/></g>
<g><path style="opacity:0.678" fill="#95b3c5" d="M 337.5,456.5 C 334.963,461.217 331.796,465.551 328,469.5C 326.243,475.43 322.743,480.097 317.5,483.5C 318.694,479.468 321.194,476.468 325,474.5C 326.063,469.928 328.23,465.928 331.5,462.5C 332.864,460.809 334.197,459.142 335.5,457.5C 336.167,457.167 336.833,456.833 337.5,456.5 Z"/></g>
<g><path style="opacity:1" fill="#abd095" d="M 612.5,461.5 C 611.833,461.5 611.167,461.5 610.5,461.5C 608.958,460.699 607.292,460.366 605.5,460.5C 604.833,460.5 604.167,460.5 603.5,460.5C 601.716,460.893 600.05,461.559 598.5,462.5C 598.167,462.5 597.833,462.5 597.5,462.5C 602.026,456.201 607.026,455.867 612.5,461.5 Z"/></g>
<g><path style="opacity:0.957" fill="#7f9d8a" d="M 622.5,459.5 C 621.167,460.833 619.833,462.167 618.5,463.5C 616.833,464.833 615.167,464.833 613.5,463.5C 612.5,462.833 611.5,462.167 610.5,461.5C 611.167,461.5 611.833,461.5 612.5,461.5C 616.032,461.69 619.365,461.023 622.5,459.5 Z"/></g>
<g><path style="opacity:0.373" fill="#9bbed3" d="M 605.5,460.5 C 607.292,460.366 608.958,460.699 610.5,461.5C 611.5,462.167 612.5,462.833 613.5,463.5C 610.351,463.585 607.684,462.585 605.5,460.5 Z"/></g>
<g><path style="opacity:0.969" fill="#94b8be" d="M 603.5,460.5 C 598.212,466.54 591.546,468.706 583.5,467C 581.509,466.626 579.842,465.793 578.5,464.5C 579.239,464.631 579.906,464.464 580.5,464C 577.903,463.221 577.903,462.721 580.5,462.5C 582.001,463.752 583.668,464.752 585.5,465.5C 590.384,467.179 594.717,466.179 598.5,462.5C 600.05,461.559 601.716,460.893 603.5,460.5 Z"/></g>
<g><path style="opacity:0.961" fill="#7a927f" d="M 597.5,462.5 C 597.833,462.5 598.167,462.5 598.5,462.5C 594.717,466.179 590.384,467.179 585.5,465.5C 589.832,465.721 593.832,464.721 597.5,462.5 Z"/></g>
<g><path style="opacity:0.996" fill="#849f89" d="M 195.5,455.5 C 197.352,460.868 200.019,465.868 203.5,470.5C 203.5,470.833 203.5,471.167 203.5,471.5C 201.696,469.505 199.696,467.838 197.5,466.5C 196.89,465.609 196.557,464.609 196.5,463.5C 196.425,460.794 196.092,458.127 195.5,455.5 Z"/></g>
<g><path style="opacity:0.996" fill="#829b7f" d="M 415.5,464.5 C 417.896,469.624 420.563,474.624 423.5,479.5C 421.983,479.489 420.816,478.823 420,477.5C 417.793,473.376 416.293,469.043 415.5,464.5 Z"/></g>
<g><path style="opacity:1" fill="#a5c990" d="M 203.5,471.5 C 203.5,471.167 203.5,470.833 203.5,470.5C 209.41,473.147 212.41,477.813 212.5,484.5C 212.564,486.557 211.898,488.223 210.5,489.5C 210.5,488.833 210.5,488.167 210.5,487.5C 210.872,480.917 208.539,475.583 203.5,471.5 Z"/></g>
<g><path style="opacity:0.604" fill="#95b3c5" d="M 197.5,466.5 C 199.696,467.838 201.696,469.505 203.5,471.5C 208.539,475.583 210.872,480.917 210.5,487.5C 209.833,488.5 209.167,489.5 208.5,490.5C 209.855,486.756 209.688,483.089 208,479.5C 204.287,475.292 200.787,470.959 197.5,466.5 Z"/></g>
<g><path style="opacity:0.918" fill="#95a998" d="M 505.5,469.5 C 505.492,472.545 505.159,475.545 504.5,478.5C 503.848,477.551 503.514,476.385 503.5,475C 503.393,472.779 504.06,470.946 505.5,469.5 Z"/></g>
<g><path style="opacity:0.21" fill="#a0c7e2" d="M 410.5,452.5 C 411.833,454.833 413.167,457.167 414.5,459.5C 415.301,461.042 415.634,462.708 415.5,464.5C 416.293,469.043 417.793,473.376 420,477.5C 420.816,478.823 421.983,479.489 423.5,479.5C 425.664,481.822 427.331,484.489 428.5,487.5C 429.167,489.167 429.833,490.833 430.5,492.5C 427.442,489.407 425.109,485.74 423.5,481.5C 419.254,479.046 416.42,475.379 415,470.5C 414.367,464.25 412.867,458.25 410.5,452.5 Z"/></g>
<g><path style="opacity:0.314" fill="#a5d4f2" d="M 560.5,481.5 C 563.427,482.757 565.761,484.757 567.5,487.5C 564.573,486.243 562.239,484.243 560.5,481.5 Z"/></g>
<g><path style="opacity:0.376" fill="#8da1a5" d="M 506.5,483.5 C 510.836,485.332 514.836,487.665 518.5,490.5C 513.55,489.695 509.55,487.362 506.5,483.5 Z"/></g>
<g><path style="opacity:0.973" fill="#89a89c" d="M 560.5,481.5 C 562.239,484.243 564.573,486.243 567.5,487.5C 569.652,489.607 570.652,492.274 570.5,495.5C 570.304,498.864 569.304,501.864 567.5,504.5C 567.5,502.5 567.5,500.5 567.5,498.5C 567.663,496.143 567.497,493.81 567,491.5C 562.614,483.725 556.114,480.392 547.5,481.5C 547.833,480.833 548.167,480.167 548.5,479.5C 551.304,478.362 554.304,478.195 557.5,479C 558.942,479.377 559.942,480.21 560.5,481.5 Z"/></g>
<g><path style="opacity:0.424" fill="#9fc9ea" d="M 548.5,479.5 C 548.167,480.167 547.833,480.833 547.5,481.5C 545.596,481.738 544.262,482.738 543.5,484.5C 540.378,485.561 537.378,486.895 534.5,488.5C 533.833,488.5 533.167,488.5 532.5,488.5C 537.825,485.503 543.159,482.503 548.5,479.5 Z"/></g>
<g><path style="opacity:1" fill="#abce97" d="M 331.5,462.5 C 328.23,465.928 326.063,469.928 325,474.5C 321.194,476.468 318.694,479.468 317.5,483.5C 317.244,487.269 317.577,490.936 318.5,494.5C 319.833,499.167 322.833,502.167 327.5,503.5C 328.605,504.6 329.938,505.267 331.5,505.5C 336.369,506.751 341.369,506.751 346.5,505.5C 346.047,506.458 345.381,507.292 344.5,508C 338.833,508.667 333.167,508.667 327.5,508C 323.333,503.833 319.167,499.667 315,495.5C 312.122,486.177 314.789,479.177 323,474.5C 323.333,472.833 323.667,471.167 324,469.5C 326.09,466.572 328.59,464.239 331.5,462.5 Z"/></g>
<g><path style="opacity:0.976" fill="#93b0a2" d="M 428.5,487.5 C 430.701,490.021 433.034,492.521 435.5,495C 436.745,495.791 438.078,496.291 439.5,496.5C 441.265,497.461 443.265,497.795 445.5,497.5C 445.5,499.167 445.5,500.833 445.5,502.5C 444.566,501.432 444.232,500.099 444.5,498.5C 441.482,498.665 438.482,498.498 435.5,498C 432.921,496.924 431.254,495.091 430.5,492.5C 429.833,490.833 429.167,489.167 428.5,487.5 Z"/></g>
<g><path style="opacity:1" fill="#a8cd93" d="M 511.5,460.5 C 510.297,462.634 508.463,463.968 506,464.5C 505.506,466.134 505.34,467.801 505.5,469.5C 504.06,470.946 503.393,472.779 503.5,475C 503.514,476.385 503.848,477.551 504.5,478.5C 504.365,480.554 505.032,482.221 506.5,483.5C 509.55,487.362 513.55,489.695 518.5,490.5C 518.833,490.5 519.167,490.5 519.5,490.5C 522.976,491.643 526.642,491.81 530.5,491C 532.066,490.392 533.4,489.558 534.5,488.5C 537.378,486.895 540.378,485.561 543.5,484.5C 543.631,485.376 543.298,486.043 542.5,486.5C 538.455,488.572 534.455,490.738 530.5,493C 525.833,493.667 521.167,493.667 516.5,493C 512,489.915 507.333,487.082 502.5,484.5C 501.403,478.29 501.736,472.123 503.5,466C 505.225,462.958 507.892,461.125 511.5,460.5 Z"/></g>
<g><path style="opacity:0.69" fill="#879593" d="M 532.5,488.5 C 533.167,488.5 533.833,488.5 534.5,488.5C 533.4,489.558 532.066,490.392 530.5,491C 526.642,491.81 522.976,491.643 519.5,490.5C 524.031,490.85 528.364,490.183 532.5,488.5 Z"/></g>
<g><path style="opacity:0.371" fill="#a3d0f0" d="M 208.5,492.5 C 211.076,497.979 214.409,502.979 218.5,507.5C 216.284,506.797 214.451,505.464 213,503.5C 210.425,500.274 208.925,496.607 208.5,492.5 Z"/></g>
<g><path style="opacity:0.608" fill="#8ea2a5" d="M 318.5,494.5 C 321.833,497.167 324.833,500.167 327.5,503.5C 322.833,502.167 319.833,499.167 318.5,494.5 Z"/></g>
<g><path style="opacity:0.418" fill="#a4d1f1" d="M 369.5,497.5 C 374.444,497.754 379.111,498.754 383.5,500.5C 382.5,500.5 381.5,500.5 380.5,500.5C 379.833,500.5 379.167,500.5 378.5,500.5C 375.408,499.816 372.408,498.816 369.5,497.5 Z"/></g>
<g><path style="opacity:0.992" fill="#87a294" d="M 369.5,497.5 C 372.408,498.816 375.408,499.816 378.5,500.5C 377.5,500.5 376.5,500.5 375.5,500.5C 372.061,500.253 368.728,500.586 365.5,501.5C 363.784,501.629 362.117,501.962 360.5,502.5C 362.497,499.157 365.497,497.49 369.5,497.5 Z"/></g>
<g><path style="opacity:1" fill="#acd096" d="M 567.5,498.5 C 567.5,500.5 567.5,502.5 567.5,504.5C 567.5,505.5 567.5,506.5 567.5,507.5C 568.167,509.833 568.833,512.167 569.5,514.5C 563.752,509.767 563.085,504.434 567.5,498.5 Z"/></g>
<g><path style="opacity:0.996" fill="#819984" d="M 210.5,487.5 C 210.5,488.167 210.5,488.833 210.5,489.5C 211.347,495.53 214.013,500.53 218.5,504.5C 219.248,506.332 220.248,507.999 221.5,509.5C 219.973,509.573 218.973,508.906 218.5,507.5C 214.409,502.979 211.076,497.979 208.5,492.5C 208.5,491.833 208.5,491.167 208.5,490.5C 209.167,489.5 209.833,488.5 210.5,487.5 Z"/></g>
<g><path style="opacity:0.569" fill="#849494" d="M 380.5,500.5 C 381.5,500.5 382.5,500.5 383.5,500.5C 386.167,500.833 388.833,501.167 391.5,501.5C 392.167,501.5 392.833,501.5 393.5,501.5C 393.5,501.833 393.5,502.167 393.5,502.5C 388.9,502.72 384.567,502.054 380.5,500.5 Z"/></g>
<g><path style="opacity:0.275" fill="#a3cef1" d="M 407.5,508.5 C 406.833,508.5 406.167,508.5 405.5,508.5C 402.399,503.968 398.399,501.635 393.5,501.5C 392.833,501.5 392.167,501.5 391.5,501.5C 393.011,499.559 395.011,499.059 397.5,500C 401.613,501.948 404.946,504.781 407.5,508.5 Z"/></g>
<g><path style="opacity:0.682" fill="#97b7cd" d="M 360.5,502.5 C 358.393,503.468 356.059,503.802 353.5,503.5C 350.098,503.342 346.764,503.676 343.5,504.5C 343.611,503.883 343.944,503.383 344.5,503C 349.823,502.501 355.156,502.334 360.5,502.5 Z"/></g>
<g><path style="opacity:1" fill="#a6cb90" d="M 375.5,500.5 C 376.5,500.5 377.5,500.5 378.5,500.5C 379.167,500.5 379.833,500.5 380.5,500.5C 384.567,502.054 388.9,502.72 393.5,502.5C 393.833,502.5 394.167,502.5 394.5,502.5C 393.508,504.026 392.008,504.693 390,504.5C 384.861,503.843 380.028,502.51 375.5,500.5 Z"/></g>
<g><path style="opacity:0.996" fill="#859e80" d="M 405.5,508.5 C 404.833,508.5 404.167,508.5 403.5,508.5C 401.37,505.263 398.37,503.263 394.5,502.5C 394.167,502.5 393.833,502.5 393.5,502.5C 393.5,502.167 393.5,501.833 393.5,501.5C 398.399,501.635 402.399,503.968 405.5,508.5 Z"/></g>
<g><path style="opacity:0.992" fill="#839788" d="M 353.5,503.5 C 351.167,504.167 348.833,504.833 346.5,505.5C 341.369,506.751 336.369,506.751 331.5,505.5C 335.6,505.763 339.6,505.43 343.5,504.5C 346.764,503.676 350.098,503.342 353.5,503.5 Z"/></g>
<g><path style="opacity:1" fill="#b1d39b" d="M 365.5,501.5 C 364.71,502.794 363.71,503.961 362.5,505C 357.177,505.499 351.844,505.666 346.5,505.5C 348.833,504.833 351.167,504.167 353.5,503.5C 356.059,503.802 358.393,503.468 360.5,502.5C 362.117,501.962 363.784,501.629 365.5,501.5 Z"/></g>
<g><path style="opacity:1" fill="#aed398" d="M 218.5,504.5 C 220.394,505.048 222.06,506.048 223.5,507.5C 224.401,510.795 224.401,514.128 223.5,517.5C 222.833,515.167 222.167,512.833 221.5,510.5C 221.5,510.167 221.5,509.833 221.5,509.5C 220.248,507.999 219.248,506.332 218.5,504.5 Z"/></g>
<g><path style="opacity:1" fill="#a5ca8f" d="M 403.5,508.5 C 404.167,508.5 404.833,508.5 405.5,508.5C 408.167,511.167 410.833,513.833 413.5,516.5C 409.296,514.967 405.963,512.3 403.5,508.5 Z"/></g>
<g><path style="opacity:0.732" fill="#97a99b" d="M 445.5,502.5 C 447.569,506.044 447.902,509.71 446.5,513.5C 446.058,509.846 445.724,506.179 445.5,502.5 Z"/></g>
<g><path style="opacity:0.475" fill="#90abb4" d="M 567.5,507.5 C 570.66,511.148 573.327,515.148 575.5,519.5C 575.5,520.167 575.5,520.833 575.5,521.5C 573.5,519.167 571.5,516.833 569.5,514.5C 568.833,512.167 568.167,509.833 567.5,507.5 Z"/></g>
<g><path style="opacity:0.686" fill="#90abb4" d="M 405.5,508.5 C 406.167,508.5 406.833,508.5 407.5,508.5C 414.07,512.129 419.403,517.129 423.5,523.5C 426.793,525.882 430.46,526.882 434.5,526.5C 428.227,528.388 422.894,526.722 418.5,521.5C 417.5,519.167 415.833,517.5 413.5,516.5C 410.833,513.833 408.167,511.167 405.5,508.5 Z"/></g>
<g><path style="opacity:1" fill="#add397" d="M 439.5,496.5 C 442.167,496.5 444.833,496.5 447.5,496.5C 448.881,503.446 449.381,510.446 449,517.5C 445.167,521.333 441.333,525.167 437.5,529C 433.833,529.667 430.167,529.667 426.5,529C 422.687,527.615 420.021,525.115 418.5,521.5C 422.894,526.722 428.227,528.388 434.5,526.5C 434.833,526.5 435.167,526.5 435.5,526.5C 440.5,524.833 443.833,521.5 445.5,516.5C 446.11,515.609 446.443,514.609 446.5,513.5C 447.902,509.71 447.569,506.044 445.5,502.5C 445.5,500.833 445.5,499.167 445.5,497.5C 443.265,497.795 441.265,497.461 439.5,496.5 Z"/></g>
<g><path style="opacity:0.771" fill="#acdafc" d="M 482.5,519.5 C 485.518,519.335 488.518,519.502 491.5,520C 492.931,520.465 494.097,521.299 495,522.5C 498.236,539.866 491.069,547.699 473.5,546C 467.676,533.967 470.676,525.134 482.5,519.5 Z M 486.5,521.5 C 483.571,522.538 480.571,523.704 477.5,525C 472.562,531.02 471.895,537.354 475.5,544C 488.588,544.581 494.421,538.414 493,525.5C 491.728,522.778 489.561,521.444 486.5,521.5 Z"/></g>
<g><path style="opacity:0.604" fill="#90a5a9" d="M 445.5,516.5 C 443.833,521.5 440.5,524.833 435.5,526.5C 438.5,522.833 441.833,519.5 445.5,516.5 Z"/></g>
<g><path style="opacity:0.996" fill="#8baa9d" d="M 221.5,510.5 C 222.167,512.833 222.833,515.167 223.5,517.5C 223.978,525.644 228.312,529.644 236.5,529.5C 236.833,529.5 237.167,529.5 237.5,529.5C 236.694,530.728 235.694,531.728 234.5,532.5C 231.509,532.834 229.176,531.834 227.5,529.5C 226.833,528.167 225.833,527.167 224.5,526.5C 222.827,525.657 221.66,524.324 221,522.5C 220.393,518.463 220.56,514.463 221.5,510.5 Z"/></g>
<g><path style="opacity:0.247" fill="#a5d2f5" d="M 575.5,519.5 C 578.502,522.161 580.502,525.495 581.5,529.5C 579.833,527.5 578.167,525.5 576.5,523.5C 576.672,522.508 576.338,521.842 575.5,521.5C 575.5,520.833 575.5,520.167 575.5,519.5 Z"/></g>
<g><path style="opacity:0.335" fill="#aad9fe" d="M 224.5,526.5 C 225.833,527.167 226.833,528.167 227.5,529.5C 225.5,529.5 224.5,528.5 224.5,526.5 Z"/></g>
<g><path style="opacity:0.384" fill="#8da3ac" d="M 270.5,531.5 C 261.762,531.746 253.095,531.079 244.5,529.5C 241.191,530.45 237.858,531.45 234.5,532.5C 235.694,531.728 236.694,530.728 237.5,529.5C 248.67,528.777 259.67,529.443 270.5,531.5 Z"/></g>
<g><path style="opacity:1" fill="#accf97" d="M 275.5,555.5 C 276.5,550.833 277.5,546.167 278.5,541.5C 278.5,540.5 278.5,539.5 278.5,538.5C 278.378,535.708 277.044,533.708 274.5,532.5C 273.292,531.766 271.959,531.433 270.5,531.5C 259.67,529.443 248.67,528.777 237.5,529.5C 237.167,529.5 236.833,529.5 236.5,529.5C 238.332,527.106 240.832,526.106 244,526.5C 254.463,527.832 264.963,528.832 275.5,529.5C 278.019,532.54 280.019,535.873 281.5,539.5C 280.095,545.17 278.095,550.504 275.5,555.5 Z"/></g>
<g><path style="opacity:0.369" fill="#90a3a5" d="M 274.5,532.5 C 277.044,533.708 278.378,535.708 278.5,538.5C 276.674,536.853 275.34,534.853 274.5,532.5 Z"/></g>
<g><path style="opacity:0.62" fill="#84a794" d="M 576.5,523.5 C 578.167,525.5 579.833,527.5 581.5,529.5C 582.388,532.054 582.721,534.721 582.5,537.5C 580.597,540.979 578.93,544.646 577.5,548.5C 577.158,549.338 576.492,549.672 575.5,549.5C 573.883,550.038 572.216,550.371 570.5,550.5C 570.5,550.167 570.5,549.833 570.5,549.5C 577.782,546.28 580.949,540.613 580,532.5C 578.82,529.479 577.654,526.479 576.5,523.5 Z"/></g>
<g><path style="opacity:0.196" fill="#a5d4f3" d="M 582.5,537.5 C 582.163,541.836 580.496,545.503 577.5,548.5C 578.93,544.646 580.597,540.979 582.5,537.5 Z"/></g>
<g><path style="opacity:0.988" fill="#8da2a5" d="M 278.5,541.5 C 277.5,546.167 276.5,550.833 275.5,555.5C 273.926,556.984 272.593,558.651 271.5,560.5C 273.262,553.873 275.595,547.539 278.5,541.5 Z"/></g>
<g><path style="opacity:1" fill="#a8ce91" d="M 570.5,549.5 C 570.5,549.833 570.5,550.167 570.5,550.5C 570.167,550.5 569.833,550.5 569.5,550.5C 561.977,550.384 554.644,551.384 547.5,553.5C 549.1,552.356 550.767,551.189 552.5,550C 558.491,549.501 564.491,549.334 570.5,549.5 Z"/></g>
<g><path style="opacity:0.69" fill="#879a92" d="M 569.5,550.5 C 566.5,551.167 563.5,551.833 560.5,552.5C 556.968,552.31 553.635,552.977 550.5,554.5C 549.5,554.5 548.5,554.5 547.5,554.5C 547.5,554.167 547.5,553.833 547.5,553.5C 554.644,551.384 561.977,550.384 569.5,550.5 Z"/></g>
<g><path style="opacity:0.47" fill="#a2cdef" d="M 575.5,549.5 C 574.653,550.966 573.32,551.8 571.5,552C 567.848,552.499 564.182,552.665 560.5,552.5C 563.5,551.833 566.5,551.167 569.5,550.5C 569.833,550.5 570.167,550.5 570.5,550.5C 572.216,550.371 573.883,550.038 575.5,549.5 Z"/></g>
<g><path style="opacity:1" fill="#a4c592" d="M 354.5,574.5 C 347.199,569.529 340.532,563.862 334.5,557.5C 333.375,555.871 332.041,554.371 330.5,553C 326.179,552.501 321.846,552.334 317.5,552.5C 314.525,553.655 311.858,555.322 309.5,557.5C 310.543,554.944 312.21,552.777 314.5,551C 320.859,550.169 327.193,550.336 333.5,551.5C 337.645,556.813 341.979,561.98 346.5,567C 350.287,568.287 352.954,570.787 354.5,574.5 Z"/></g>
<g><path style="opacity:0.961" fill="#7f987d" d="M 547.5,554.5 C 545.739,555.313 544.072,556.313 542.5,557.5C 535.833,557.5 529.167,557.5 522.5,557.5C 530.744,556.85 539.077,555.85 547.5,554.5 Z"/></g>
<g><path style="opacity:0.299" fill="#a6d4f6" d="M 547.5,554.5 C 548.5,554.5 549.5,554.5 550.5,554.5C 548.316,556.585 545.649,557.585 542.5,557.5C 544.072,556.313 545.739,555.313 547.5,554.5 Z"/></g>
<g><path style="opacity:0.682" fill="#94b5ce" d="M 522.5,557.5 C 529.167,557.5 535.833,557.5 542.5,557.5C 535.655,558.167 528.655,558.833 521.5,559.5C 520.812,560.855 519.812,561.855 518.5,562.5C 518.5,561.833 518.5,561.167 518.5,560.5C 519.262,558.738 520.596,557.738 522.5,557.5 Z"/></g>
<g><path style="opacity:1" fill="#aed299" d="M 275.5,555.5 C 275.609,561.37 272.942,564.703 267.5,565.5C 267.833,564.833 268.167,564.167 268.5,563.5C 269.167,563.5 269.5,563.167 269.5,562.5C 270.167,561.833 270.833,561.167 271.5,560.5C 272.593,558.651 273.926,556.984 275.5,555.5 Z"/></g>
<g><path style="opacity:0.965" fill="#809e8d" d="M 518.5,560.5 C 518.5,561.167 518.5,561.833 518.5,562.5C 518.167,563.5 517.5,564.167 516.5,564.5C 514.833,565.167 513.167,565.833 511.5,566.5C 513.607,564.273 515.94,562.273 518.5,560.5 Z"/></g>
<g><path style="opacity:0.831" fill="#94b3c4" d="M 317.5,552.5 C 310.648,558.485 303.981,564.485 297.5,570.5C 298.6,569.395 299.267,568.062 299.5,566.5C 302.211,562.788 305.544,559.788 309.5,557.5C 311.858,555.322 314.525,553.655 317.5,552.5 Z"/></g>
<g><path style="opacity:1" fill="#83997e" d="M 268.5,563.5 C 268.167,564.167 267.833,564.833 267.5,565.5C 265.167,567.5 262.833,569.5 260.5,571.5C 262.167,567.833 264.833,565.167 268.5,563.5 Z"/></g>
<g><path style="opacity:0.678" fill="#a1cce6" d="M 269.5,562.5 C 269.5,563.167 269.167,563.5 268.5,563.5C 264.833,565.167 262.167,567.833 260.5,571.5C 259.094,571.973 258.427,572.973 258.5,574.5C 257.833,574.833 257.167,575.167 256.5,575.5C 258.575,568.758 262.909,564.424 269.5,562.5 Z"/></g>
<g><path style="opacity:0.639" fill="#95b5c7" d="M 516.5,564.5 C 511.176,569.167 505.176,572.834 498.5,575.5C 501.833,572.833 505.167,570.167 508.5,567.5C 509.391,566.89 510.391,566.557 511.5,566.5C 513.167,565.833 514.833,565.167 516.5,564.5 Z"/></g>
<g><path style="opacity:0.973" fill="#819d8a" d="M 299.5,566.5 C 299.267,568.062 298.6,569.395 297.5,570.5C 297.167,571.5 296.5,572.167 295.5,572.5C 293.784,572.629 292.117,572.962 290.5,573.5C 293.642,571.42 296.642,569.086 299.5,566.5 Z"/></g>
<g><path style="opacity:1" fill="#a5c991" d="M 508.5,567.5 C 505.167,570.167 501.833,572.833 498.5,575.5C 498.068,576.71 497.401,577.71 496.5,578.5C 495.094,578.973 494.427,579.973 494.5,581.5C 494.167,581.5 493.833,581.5 493.5,581.5C 493.346,577.975 494.679,575.141 497.5,573C 501.22,571.14 504.886,569.307 508.5,567.5 Z"/></g>
<g><path style="opacity:0.5" fill="#98bcd0" d="M 295.5,572.5 C 292.61,574.733 289.277,576.066 285.5,576.5C 286.659,574.75 288.326,573.75 290.5,573.5C 292.117,572.962 293.784,572.629 295.5,572.5 Z"/></g>
<g><path style="opacity:1" fill="#a4c88e" d="M 354.5,574.5 C 358.497,577.504 360.83,581.504 361.5,586.5C 360.833,585.833 360.167,585.167 359.5,584.5C 357.833,581.167 356.167,577.833 354.5,574.5 Z"/></g>
<g><path style="opacity:1" fill="#b0d49b" d="M 464.5,582.5 C 462.833,580.5 461.167,578.5 459.5,576.5C 457.685,573.593 455.019,572.259 451.5,572.5C 450.417,572.461 449.417,572.127 448.5,571.5C 447.148,572.524 445.815,573.524 444.5,574.5C 442.973,574.427 441.973,575.094 441.5,576.5C 438.833,577.167 437.167,578.833 436.5,581.5C 432.51,583.469 431.51,586.469 433.5,590.5C 433.769,595.264 435.102,599.597 437.5,603.5C 437.5,604.167 437.5,604.833 437.5,605.5C 436.21,604.942 435.377,603.942 435,602.5C 433.06,596.847 431.227,591.181 429.5,585.5C 429.833,584.5 430.167,583.5 430.5,582.5C 436.24,577.419 442.24,572.752 448.5,568.5C 452.614,570.057 456.614,571.89 460.5,574C 462.697,576.421 464.03,579.255 464.5,582.5 Z"/></g>
<g><path style="opacity:0.369" fill="#89a0ac" d="M 444.5,574.5 C 444.027,575.906 443.027,576.573 441.5,576.5C 441.973,575.094 442.973,574.427 444.5,574.5 Z"/></g>
<g><path style="opacity:0.439" fill="#8fa3a4" d="M 451.5,572.5 C 455.019,572.259 457.685,573.593 459.5,576.5C 456.515,575.674 453.849,574.341 451.5,572.5 Z"/></g>
<g><path style="opacity:0.396" fill="#899b9f" d="M 441.5,576.5 C 440.167,578.5 438.5,580.167 436.5,581.5C 437.167,578.833 438.833,577.167 441.5,576.5 Z"/></g>
<g><path style="opacity:0.831" fill="#91acba" d="M 334.5,557.5 C 340.532,563.862 347.199,569.529 354.5,574.5C 356.167,577.833 357.833,581.167 359.5,584.5C 359.5,585.5 359.5,586.5 359.5,587.5C 357.018,582.16 353.851,577.16 350,572.5C 343.693,568.694 338.527,563.694 334.5,557.5 Z"/></g>
<g><path style="opacity:0.945" fill="#99c9cd" d="M 255.5,577.5 C 254.38,581.528 254.38,585.528 255.5,589.5C 254.883,589.389 254.383,589.056 254,588.5C 253.833,587 253.667,585.5 253.5,584C 253.336,581.456 254.003,579.29 255.5,577.5 Z"/></g>
<g><path style="opacity:0.302" fill="#9ec2db" d="M 284.5,576.5 C 283.831,579.849 282.164,582.516 279.5,584.5C 279.733,582.938 280.4,581.605 281.5,580.5C 281.738,578.596 282.738,577.262 284.5,576.5 Z"/></g>
<g><path style="opacity:0.257" fill="#9cc0d9" d="M 496.5,578.5 C 496.448,581.346 495.448,583.68 493.5,585.5C 493.833,584.167 494.167,582.833 494.5,581.5C 494.427,579.973 495.094,578.973 496.5,578.5 Z"/></g>
<g><path style="opacity:0.976" fill="#85a48f" d="M 258.5,574.5 C 256.721,579.015 256.221,583.682 257,588.5C 260.73,589.46 264.563,589.793 268.5,589.5C 266.112,590.349 263.779,591.349 261.5,592.5C 259.801,592.66 258.134,592.494 256.5,592C 255.748,591.329 255.414,590.496 255.5,589.5C 254.38,585.528 254.38,581.528 255.5,577.5C 255.328,576.508 255.662,575.842 256.5,575.5C 257.167,575.167 257.833,574.833 258.5,574.5 Z"/></g>
<g><path style="opacity:0.953" fill="#85a591" d="M 281.5,580.5 C 280.4,581.605 279.733,582.938 279.5,584.5C 279.068,585.71 278.401,586.71 277.5,587.5C 274.574,588.461 271.574,589.127 268.5,589.5C 273.423,587.217 277.756,584.217 281.5,580.5 Z"/></g>
<g><path style="opacity:0.484" fill="#9cc1d5" d="M 459.5,576.5 C 461.167,578.5 462.833,580.5 464.5,582.5C 464.5,583.167 464.5,583.833 464.5,584.5C 465.167,586.5 465.833,588.5 466.5,590.5C 463.132,586.431 460.799,581.764 459.5,576.5 Z"/></g>
<g><path style="opacity:0.965" fill="#84a092" d="M 493.5,581.5 C 493.833,581.5 494.167,581.5 494.5,581.5C 494.167,582.833 493.833,584.167 493.5,585.5C 491.167,587.167 489.167,589.167 487.5,591.5C 486.942,592.79 485.942,593.623 484.5,594C 480.311,594.812 476.311,594.645 472.5,593.5C 470.819,591.992 468.819,590.992 466.5,590.5C 465.833,588.5 465.167,586.5 464.5,584.5C 466.033,586.355 467.7,588.188 469.5,590C 480.258,594.782 488.258,591.949 493.5,581.5 Z"/></g>
<g><path style="opacity:0.169" fill="#a8d6fc" d="M 493.5,585.5 C 492.5,588.5 490.5,590.5 487.5,591.5C 489.167,589.167 491.167,587.167 493.5,585.5 Z"/></g>
<g><path style="opacity:0.311" fill="#a3d0ed" d="M 277.5,587.5 C 272.743,590.695 267.409,592.361 261.5,592.5C 263.779,591.349 266.112,590.349 268.5,589.5C 271.574,589.127 274.574,588.461 277.5,587.5 Z"/></g>
<g><path style="opacity:0.394" fill="#a6d3f6" d="M 359.5,587.5 C 361.008,589.181 362.008,591.181 362.5,593.5C 360.461,592.089 359.461,590.089 359.5,587.5 Z"/></g>
<g><path style="opacity:0.992" fill="#84a18d" d="M 359.5,584.5 C 360.167,585.167 360.833,585.833 361.5,586.5C 362.259,589.849 363.926,592.682 366.5,595C 371.194,595.564 375.86,595.397 380.5,594.5C 381.5,594.5 382.5,594.5 383.5,594.5C 382.5,595.167 381.5,595.833 380.5,596.5C 376.154,596.334 371.821,596.501 367.5,597C 369.058,597.21 370.391,597.71 371.5,598.5C 367.31,598.977 364.31,597.311 362.5,593.5C 362.008,591.181 361.008,589.181 359.5,587.5C 359.5,586.5 359.5,585.5 359.5,584.5 Z"/></g>
<g><path style="opacity:0.304" fill="#a4d3f1" d="M 466.5,590.5 C 468.819,590.992 470.819,591.992 472.5,593.5C 469.911,593.539 467.911,592.539 466.5,590.5 Z"/></g>
<g><path style="opacity:0.918" fill="#8ca3a9" d="M 433.5,590.5 C 435.204,593.939 436.538,597.605 437.5,601.5C 437.5,602.167 437.5,602.833 437.5,603.5C 435.102,599.597 433.769,595.264 433.5,590.5 Z"/></g>
<g><path style="opacity:0.306" fill="#a3cef1" d="M 383.5,594.5 C 383.833,594.5 384.167,594.5 384.5,594.5C 385.5,594.5 386.5,594.5 387.5,594.5C 385.485,595.924 383.152,596.59 380.5,596.5C 381.5,595.833 382.5,595.167 383.5,594.5 Z"/></g>
<g><path style="opacity:0.955" fill="#91bbc1" d="M 380.5,596.5 C 377.727,597.657 374.727,598.324 371.5,598.5C 370.391,597.71 369.058,597.21 367.5,597C 371.821,596.501 376.154,596.334 380.5,596.5 Z"/></g>
<g><path style="opacity:0.69" fill="#899a9b" d="M 397.5,593.5 C 398.458,593.953 399.292,594.619 400,595.5C 400.81,599.358 400.643,603.024 399.5,606.5C 399.85,601.969 399.183,597.636 397.5,593.5 Z"/></g>
<g><path style="opacity:0.239" fill="#a4d1f4" d="M 437.5,601.5 C 441.651,604.8 443.985,609.133 444.5,614.5C 443.046,611.592 441.546,608.592 440,605.5C 439.292,604.619 438.458,603.953 437.5,603.5C 437.5,602.833 437.5,602.167 437.5,601.5 Z"/></g>
<g><path style="opacity:0.996" fill="#86a18a" d="M 437.5,603.5 C 438.458,603.953 439.292,604.619 440,605.5C 441.546,608.592 443.046,611.592 444.5,614.5C 445.833,616.167 445.833,617.833 444.5,619.5C 441.452,624.881 437.119,628.881 431.5,631.5C 434.771,628.732 437.938,625.732 441,622.5C 443.04,616.133 441.874,610.466 437.5,605.5C 437.5,604.833 437.5,604.167 437.5,603.5 Z"/></g>
<g><path style="opacity:0.604" fill="#91acbd" d="M 398.5,611.5 C 394.036,619.458 387.37,624.625 378.5,627C 377.122,628.713 375.455,630.047 373.5,631C 366.254,632.391 358.921,632.891 351.5,632.5C 347.5,632.5 343.5,632.5 339.5,632.5C 349.325,631.67 359.325,631.17 369.5,631C 374.942,626.946 380.942,623.946 387.5,622C 391.036,618.296 394.702,614.796 398.5,611.5 Z"/></g>
<g><path style="opacity:1" fill="#a6ca92" d="M 343.5,634.5 C 346.167,633.833 348.833,633.167 351.5,632.5C 358.921,632.891 366.254,632.391 373.5,631C 375.455,630.047 377.122,628.713 378.5,627C 387.37,624.625 394.036,619.458 398.5,611.5C 399.301,609.958 399.634,608.292 399.5,606.5C 400.643,603.024 400.81,599.358 400,595.5C 399.292,594.619 398.458,593.953 397.5,593.5C 396.609,592.89 395.609,592.557 394.5,592.5C 390.922,592.549 387.589,593.215 384.5,594.5C 384.167,594.5 383.833,594.5 383.5,594.5C 382.5,594.5 381.5,594.5 380.5,594.5C 386.141,591.757 392.141,590.257 398.5,590C 399.542,591.918 400.708,593.751 402,595.5C 402.667,601.167 402.667,606.833 402,612.5C 398.167,616.333 394.333,620.167 390.5,624C 387.007,625.791 383.341,627.124 379.5,628C 377.23,630.475 374.563,632.475 371.5,634C 362.173,634.5 352.839,634.666 343.5,634.5 Z"/></g>
<g><path style="opacity:0.725" fill="#859592" d="M 394.5,592.5 C 392.401,593.612 390.067,594.279 387.5,594.5C 386.5,594.5 385.5,594.5 384.5,594.5C 387.589,593.215 390.922,592.549 394.5,592.5 Z"/></g>
<g><path style="opacity:0.267" fill="#a0c8e6" d="M 444.5,619.5 C 441.5,627.991 435.5,633.158 426.5,635C 423.286,637.761 419.953,640.261 416.5,642.5C 420.694,637.586 425.694,633.919 431.5,631.5C 437.119,628.881 441.452,624.881 444.5,619.5 Z"/></g>
<g><path style="opacity:1" fill="#8ea99d" d="M 339.5,632.5 C 343.5,632.5 347.5,632.5 351.5,632.5C 348.833,633.167 346.167,633.833 343.5,634.5C 339.167,634.5 334.833,634.5 330.5,634.5C 328.167,634.5 325.833,634.5 323.5,634.5C 328.616,633.194 333.949,632.527 339.5,632.5 Z"/></g>
<g><path style="opacity:0.992" fill="#839786" d="M 323.5,634.5 C 325.833,634.5 328.167,634.5 330.5,634.5C 327.394,635.047 324.394,636.047 321.5,637.5C 321.5,636.833 321.5,636.167 321.5,635.5C 321.842,634.662 322.508,634.328 323.5,634.5 Z"/></g>
<g><path style="opacity:0.682" fill="#99bdd7" d="M 321.5,635.5 C 321.5,636.167 321.5,636.833 321.5,637.5C 319.512,640.128 317.512,642.795 315.5,645.5C 313.139,647.194 311.139,649.194 309.5,651.5C 309.709,650.078 310.209,648.745 311,647.5C 314.753,643.615 318.253,639.615 321.5,635.5 Z"/></g>
<g><path style="opacity:1" fill="#a1c28f" d="M 321.5,637.5 C 320.777,641.565 318.777,644.899 315.5,647.5C 315.5,646.833 315.5,646.167 315.5,645.5C 317.512,642.795 319.512,640.128 321.5,637.5 Z"/></g>
<g><path style="opacity:0.961" fill="#89a3a0" d="M 315.5,645.5 C 315.5,646.167 315.5,646.833 315.5,647.5C 313.457,648.579 312.124,650.246 311.5,652.5C 310.023,655.591 308.356,658.591 306.5,661.5C 306.899,657.884 307.899,654.55 309.5,651.5C 311.139,649.194 313.139,647.194 315.5,645.5 Z"/></g>
<g><path style="opacity:1" fill="#9cbc8b" d="M 431.5,631.5 C 425.694,633.919 420.694,637.586 416.5,642.5C 413.963,645.277 412.63,648.61 412.5,652.5C 411.883,652.611 411.383,652.944 411,653.5C 410.289,656.734 409.455,659.901 408.5,663C 402.591,663.66 396.924,664.826 391.5,666.5C 383.949,667.001 376.949,669.001 370.5,672.5C 369.833,672.833 369.167,673.167 368.5,673.5C 368.351,672.448 368.517,671.448 369,670.5C 381.854,666.158 395.021,663.158 408.5,661.5C 408.636,655.351 409.636,649.351 411.5,643.5C 416.312,639.856 420.979,636.022 425.5,632C 427.473,631.505 429.473,631.338 431.5,631.5 Z"/></g>
<g><path style="opacity:1" fill="#a4c88f" d="M 311.5,652.5 C 311.452,658.832 308.786,663.498 303.5,666.5C 304.075,664.589 305.075,662.922 306.5,661.5C 308.356,658.591 310.023,655.591 311.5,652.5 Z"/></g>
<g><path style="opacity:0.467" fill="#99bcd4" d="M 412.5,652.5 C 412.19,656.546 411.19,660.379 409.5,664C 403.591,665.549 397.591,666.382 391.5,666.5C 396.924,664.826 402.591,663.66 408.5,663C 409.455,659.901 410.289,656.734 411,653.5C 411.383,652.944 411.883,652.611 412.5,652.5 Z"/></g>
<g><path style="opacity:0.98" fill="#8aa7a1" d="M 306.5,661.5 C 305.075,662.922 304.075,664.589 303.5,666.5C 299.801,672.363 298.801,678.696 300.5,685.5C 299.9,684.1 298.9,683.1 297.5,682.5C 296.838,676.437 298.004,670.77 301,665.5C 302.451,663.536 304.284,662.203 306.5,661.5 Z"/></g>
<g><path style="opacity:0.553" fill="#95b3c4" d="M 391.5,666.5 C 384.313,668.712 377.313,671.379 370.5,674.5C 370.5,673.833 370.5,673.167 370.5,672.5C 376.949,669.001 383.949,667.001 391.5,666.5 Z"/></g>
<g><path style="opacity:0.984" fill="#7c947a" d="M 370.5,672.5 C 370.5,673.167 370.5,673.833 370.5,674.5C 368.5,674.833 366.5,675.167 364.5,675.5C 365.287,673.896 366.62,673.229 368.5,673.5C 369.167,673.167 369.833,672.833 370.5,672.5 Z"/></g>
<g><path style="opacity:0.309" fill="#9fc9e7" d="M 370.5,674.5 C 370.389,675.117 370.056,675.617 369.5,676C 365.534,676.828 361.534,677.328 357.5,677.5C 359.167,676.833 360.833,676.167 362.5,675.5C 363.167,675.5 363.833,675.5 364.5,675.5C 366.5,675.167 368.5,674.833 370.5,674.5 Z"/></g>
<g><path style="opacity:0.984" fill="#869e82" d="M 362.5,675.5 C 360.833,676.167 359.167,676.833 357.5,677.5C 354.763,677.401 352.096,677.735 349.5,678.5C 349.577,677.25 350.244,676.417 351.5,676C 355.152,675.501 358.818,675.335 362.5,675.5 Z"/></g>
<g><path style="opacity:0.455" fill="#a2cfee" d="M 297.5,682.5 C 298.9,683.1 299.9,684.1 300.5,685.5C 300.158,686.338 299.492,686.672 298.5,686.5C 297.766,685.292 297.433,683.959 297.5,682.5 Z"/></g>
<g><path style="opacity:0.988" fill="#84a497" d="M 300.5,685.5 C 302.858,687.529 305.192,689.529 307.5,691.5C 306.167,691.167 304.833,690.833 303.5,690.5C 301.251,689.92 299.585,688.587 298.5,686.5C 299.492,686.672 300.158,686.338 300.5,685.5 Z"/></g>
<g><path style="opacity:1" fill="#95b587" d="M 349.5,678.5 C 345.38,680.47 341.047,682.303 336.5,684C 335.833,685.333 334.833,686.333 333.5,687C 327.817,687.611 322.484,689.278 317.5,692C 316.748,692.671 316.414,693.504 316.5,694.5C 316.5,695.167 316.167,695.5 315.5,695.5C 313.786,694.262 311.786,693.595 309.5,693.5C 308.833,692.833 308.167,692.167 307.5,691.5C 310.176,692.008 312.843,692.175 315.5,692C 320.622,688.088 326.455,685.921 333,685.5C 337.682,681.326 343.182,678.992 349.5,678.5 Z"/></g>
<g><path style="opacity:0.384" fill="#99bcd5" d="M 357.5,677.5 C 344.086,683.529 330.42,689.196 316.5,694.5C 316.414,693.504 316.748,692.671 317.5,692C 322.484,689.278 327.817,687.611 333.5,687C 334.833,686.333 335.833,685.333 336.5,684C 341.047,682.303 345.38,680.47 349.5,678.5C 352.096,677.735 354.763,677.401 357.5,677.5 Z"/></g>
<g><path style="opacity:0.318" fill="#a6d3f7" d="M 303.5,690.5 C 304.833,690.833 306.167,691.167 307.5,691.5C 308.167,692.167 308.833,692.833 309.5,693.5C 306.911,693.539 304.911,692.539 303.5,690.5 Z"/></g>
<g><path style="opacity:0.32" fill="#a6d5f6" d="M 309.5,693.5 C 311.786,693.595 313.786,694.262 315.5,695.5C 313.102,695.741 311.102,695.074 309.5,693.5 Z"/></g>
</svg>
