<?xml version="1.0" encoding="UTF-8"?>
<!DOCTYPE svg PUBLIC "-//W3C//DTD SVG 1.1//EN" "http://www.w3.org/Graphics/SVG/1.1/DTD/svg11.dtd">
<svg xmlns="http://www.w3.org/2000/svg" version="1.1" width="697px" height="492px" style="shape-rendering:geometricPrecision; text-rendering:geometricPrecision; image-rendering:optimizeQuality; fill-rule:evenodd; clip-rule:evenodd" xmlns:xlink="http://www.w3.org/1999/xlink">
<g><path style="opacity:1" fill="#b0dae3" d="M 606.5,47.5 C 613.867,51.8392 621.867,54.5058 630.5,55.5C 634.356,63.2263 638.689,70.5596 643.5,77.5C 644.338,77.8417 644.672,78.5084 644.5,79.5C 645.918,81.3079 647.918,81.9746 650.5,81.5C 651.097,89.5169 651.931,97.5169 653,105.5C 654.62,107.632 656.454,107.965 658.5,106.5C 669.494,104.868 680.327,102.535 691,99.5C 691.867,104.697 691.2,109.697 689,114.5C 683.647,119.354 678.147,124.021 672.5,128.5C 672.167,130 671.833,131.5 671.5,133C 673.267,149.113 673.934,165.28 673.5,181.5C 663.397,186.386 653.397,191.552 643.5,197C 641.266,198.638 639.933,200.805 639.5,203.5C 633.653,201.941 627.82,200.274 622,198.5C 614.658,201.754 607.492,205.421 600.5,209.5C 596.056,206.378 591.39,203.711 586.5,201.5C 583.524,199.007 580.191,197.007 576.5,195.5C 572.269,198.574 569.935,202.74 569.5,208C 570.456,214.811 571.122,221.645 571.5,228.5C 563.647,231.928 555.98,235.594 548.5,239.5C 547.504,239.414 546.671,239.748 546,240.5C 545.833,242.167 545.667,243.833 545.5,245.5C 546.498,253.812 547.165,262.145 547.5,270.5C 545.219,270.077 543.552,270.744 542.5,272.5C 542.167,272.5 541.833,272.5 541.5,272.5C 535.824,272.334 530.157,272.501 524.5,273C 518.542,281.748 512.709,290.581 507,299.5C 505.406,301.297 503.406,302.297 501,302.5C 493.621,300.596 486.454,298.096 479.5,295C 477.791,293.084 476.457,290.918 475.5,288.5C 471.198,287.636 466.864,286.97 462.5,286.5C 461.274,286.52 460.274,286.853 459.5,287.5C 458.833,287.5 458.167,287.5 457.5,287.5C 457.611,286.883 457.944,286.383 458.5,286C 456.167,285.333 453.833,285.333 451.5,286C 445.913,289.71 440.413,293.543 435,297.5C 435.624,309.252 437.124,320.918 439.5,332.5C 432.825,332.334 426.158,332.5 419.5,333C 416.5,336 413.5,339 410.5,342C 402.31,343.705 394.143,345.538 386,347.5C 383.41,345.727 380.577,344.727 377.5,344.5C 376.857,341.012 374.857,338.512 371.5,337C 369.098,336.186 366.765,336.353 364.5,337.5C 358.195,346.971 351.695,356.305 345,365.5C 344.219,366.944 344.386,368.277 345.5,369.5C 350.852,373.857 356.186,378.19 361.5,382.5C 361.611,383.117 361.944,383.617 362.5,384C 367.412,385.416 372.412,386.249 377.5,386.5C 378.119,391.864 378.619,397.197 379,402.5C 369.558,406.593 360.058,410.593 350.5,414.5C 348.213,420.272 347.213,426.272 347.5,432.5C 356.609,433.989 365.609,435.989 374.5,438.5C 374.994,440.026 375.661,441.359 376.5,442.5C 376.833,443.5 377.5,444.167 378.5,444.5C 378.5,444.833 378.5,445.167 378.5,445.5C 378.5,447.167 378.5,448.833 378.5,450.5C 379.328,455.482 380.661,460.315 382.5,465C 372.891,468.153 363.225,471.153 353.5,474C 351.004,476.656 349.004,479.656 347.5,483C 341.667,484.076 337.001,486.909 333.5,491.5C 325.5,491.5 317.5,491.5 309.5,491.5C 297.138,482.647 283.805,475.314 269.5,469.5C 268.399,468.402 267.066,468.235 265.5,469C 263.183,471.157 260.516,472.657 257.5,473.5C 245.729,471.307 234.062,468.641 222.5,465.5C 221.417,464.635 221.251,463.635 222,462.5C 226.154,457.019 229.654,451.186 232.5,445C 230.088,438.007 227.255,431.174 224,424.5C 223.25,423.874 222.416,423.374 221.5,423C 214.144,422.164 206.81,421.164 199.5,420C 195.311,415.312 191.311,410.479 187.5,405.5C 177.816,400.081 167.482,396.247 156.5,394C 155.693,388.917 155.193,383.75 155,378.5C 147.416,373.959 139.916,369.292 132.5,364.5C 131.8,360.959 131.133,357.459 130.5,354C 122.667,349.584 115,344.918 107.5,340C 104.167,340.333 100.833,340.667 97.5,341C 89.3467,337.426 81.6801,333.093 74.5,328C 72.5,327.333 70.5,327.333 68.5,328C 62.1667,330.5 55.8333,333 49.5,335.5C 43.8341,325.858 37.8341,316.525 31.5,307.5C 27.5799,306.471 23.5799,306.804 19.5,308.5C 16.4576,307.227 13.6243,305.561 11,303.5C 8.16544,293.494 5.33211,283.494 2.5,273.5C 2.86273,272.817 3.19607,272.15 3.5,271.5C 12.8235,269.171 22.1569,266.837 31.5,264.5C 32.6634,256.526 33.6634,248.526 34.5,240.5C 44.5056,240.666 54.5056,240.5 64.5,240C 67.0724,229.971 69.0724,219.804 70.5,209.5C 75.5431,208.992 80.5431,208.158 85.5,207C 87.7798,203.053 90.4465,199.387 93.5,196C 99.3421,192.246 105.009,188.246 110.5,184C 114.196,184.003 117.863,184.503 121.5,185.5C 121.33,186.822 121.663,187.989 122.5,189C 137.833,189.333 153.167,189.667 168.5,190C 169.263,190.944 170.263,191.444 171.5,191.5C 177.597,189.132 182.931,185.799 187.5,181.5C 190.892,175.046 194.058,168.379 197,161.5C 200.5,158 204,154.5 207.5,151C 209.134,150.506 210.801,150.34 212.5,150.5C 212.5,151.5 212.5,152.5 212.5,153.5C 224.339,156.084 236.172,158.751 248,161.5C 251.213,161.306 253.713,159.806 255.5,157C 267.829,156.5 280.162,156.333 292.5,156.5C 292.281,155.325 292.614,154.325 293.5,153.5C 303.314,156.364 313.314,157.864 323.5,158C 326.833,154.667 330.167,151.333 333.5,148C 340.099,148.985 346.766,149.318 353.5,149C 356.167,147.333 358.833,145.667 361.5,144C 362.647,136.246 362.814,128.413 362,120.5C 358.123,117.479 355.289,113.812 353.5,109.5C 357.462,100.796 360.962,91.7962 364,82.5C 367.572,82.1674 370.739,81.1674 373.5,79.5C 377.577,70.4587 381.577,61.292 385.5,52C 396.833,51.3333 408.167,51.3333 419.5,52C 424.833,54.3333 430.167,56.6667 435.5,59C 438.221,59.6015 440.887,59.4349 443.5,58.5C 444.167,58.5 444.5,58.1667 444.5,57.5C 452.36,57.7948 460.193,58.4615 468,59.5C 469.833,59.1667 471.667,58.8333 473.5,58.5C 475.817,54.8536 478.484,51.5203 481.5,48.5C 488.192,51.1822 494.859,53.8489 501.5,56.5C 504.954,58.7482 508.621,59.4149 512.5,58.5C 515.309,54.5233 518.309,50.69 521.5,47C 529.375,44.7293 537.041,41.896 544.5,38.5C 545.167,35.1667 545.833,31.8333 546.5,28.5C 556.803,20.7755 567.303,13.4421 578,6.5C 584.371,8.39874 590.371,11.0654 596,14.5C 599.13,24.0181 601.797,33.6847 604,43.5C 604.2,45.3197 605.034,46.653 606.5,47.5 Z"/></g>
<g><path style="opacity:1" fill="#7dbcba" d="M 606.5,47.5 C 605.034,46.653 604.2,45.3197 604,43.5C 601.797,33.6847 599.13,24.0181 596,14.5C 590.371,11.0654 584.371,8.39874 578,6.5C 567.303,13.4421 556.803,20.7755 546.5,28.5C 545.833,31.8333 545.167,35.1667 544.5,38.5C 537.041,41.896 529.375,44.7293 521.5,47C 518.309,50.69 515.309,54.5233 512.5,58.5C 508.621,59.4149 504.954,58.7482 501.5,56.5C 501.5,55.8333 501.833,55.5 502.5,55.5C 504.937,55.7563 507.271,56.4229 509.5,57.5C 512.991,53.8398 516.324,50.0065 519.5,46C 527.346,42.6629 535.346,39.8295 543.5,37.5C 543.335,34.1501 543.502,30.8168 544,27.5C 554.167,20 564.333,12.5 574.5,5C 576.833,4.33333 579.167,4.33333 581.5,5C 587.078,7.70569 592.578,10.539 598,13.5C 601.152,24.7742 603.985,36.1075 606.5,47.5 Z"/></g>
<g><path style="opacity:0.708" fill="#76b7b9" d="M 502.5,55.5 C 501.833,55.5 501.5,55.8333 501.5,56.5C 494.859,53.8489 488.192,51.1822 481.5,48.5C 478.484,51.5203 475.817,54.8536 473.5,58.5C 471.667,58.8333 469.833,59.1667 468,59.5C 460.193,58.4615 452.36,57.7948 444.5,57.5C 448.298,56.5166 452.298,56.1832 456.5,56.5C 461.838,57.0021 467.172,57.1688 472.5,57C 474.333,54.5 476.167,52 478,49.5C 478.804,48.1955 479.971,47.5288 481.5,47.5C 488.75,49.8008 495.75,52.4675 502.5,55.5 Z"/></g>
<g><path style="opacity:0.286" fill="#8ccf8f" d="M 418.5,49.5 C 421.241,49.7073 423.574,50.7073 425.5,52.5C 422.759,52.2927 420.426,51.2927 418.5,49.5 Z"/></g>
<g><path style="opacity:0.733" fill="#75b3c0" d="M 606.5,47.5 C 611.014,48.4208 615.347,49.9208 619.5,52C 623.541,52.1735 627.541,52.6735 631.5,53.5C 636.038,61.2432 640.038,69.2432 643.5,77.5C 638.689,70.5596 634.356,63.2263 630.5,55.5C 621.867,54.5058 613.867,51.8392 606.5,47.5 Z"/></g>
<g><path style="opacity:0.937" fill="#85c4a7" d="M 456.5,56.5 C 452.298,56.1832 448.298,56.5166 444.5,57.5C 444.5,58.1667 444.167,58.5 443.5,58.5C 442.791,57.596 441.791,57.2627 440.5,57.5C 443.356,55.9942 446.523,55.3275 450,55.5C 452.361,55.5039 454.527,55.8373 456.5,56.5 Z"/></g>
<g><path style="opacity:1" fill="#76b6bf" d="M 418.5,49.5 C 420.426,51.2927 422.759,52.2927 425.5,52.5C 428.93,53.7138 432.264,55.2138 435.5,57C 437.134,57.4935 438.801,57.6602 440.5,57.5C 441.791,57.2627 442.791,57.596 443.5,58.5C 440.887,59.4349 438.221,59.6015 435.5,59C 430.167,56.6667 424.833,54.3333 419.5,52C 408.167,51.3333 396.833,51.3333 385.5,52C 381.577,61.292 377.577,70.4587 373.5,79.5C 376.427,69.7188 379.761,60.0522 383.5,50.5C 395.148,49.5011 406.814,49.1678 418.5,49.5 Z"/></g>
<g><path style="opacity:1" fill="#7bb4be" d="M 644.5,79.5 C 647.167,79.5 649.833,79.5 652.5,79.5C 653.167,88.5 653.833,97.5 654.5,106.5C 655.833,106.5 657.167,106.5 658.5,106.5C 656.454,107.965 654.62,107.632 653,105.5C 651.931,97.5169 651.097,89.5169 650.5,81.5C 647.918,81.9746 645.918,81.3079 644.5,79.5 Z"/></g>
<g><path style="opacity:1" fill="#76b5c0" d="M 373.5,79.5 C 370.739,81.1674 367.572,82.1674 364,82.5C 360.962,91.7962 357.462,100.796 353.5,109.5C 356.5,99.5 359.5,89.5 362.5,79.5C 366.167,79.5 369.833,79.5 373.5,79.5 Z"/></g>
<g><path style="opacity:0.927" fill="#78b4bf" d="M 675.5,181.5 C 674.833,181.5 674.167,181.5 673.5,181.5C 673.934,165.28 673.267,149.113 671.5,133C 671.833,131.5 672.167,130 672.5,128.5C 678.147,124.021 683.647,119.354 689,114.5C 691.2,109.697 691.867,104.697 691,99.5C 680.327,102.535 669.494,104.868 658.5,106.5C 669.861,102.742 681.528,99.7422 693.5,97.5C 693.51,103.285 692.677,108.951 691,114.5C 685.333,119.833 679.667,125.167 674,130.5C 675.246,147.441 675.746,164.441 675.5,181.5 Z"/></g>
<g><path style="opacity:1" fill="#7ab7c1" d="M 353.5,109.5 C 355.289,113.812 358.123,117.479 362,120.5C 362.814,128.413 362.647,136.246 361.5,144C 358.833,145.667 356.167,147.333 353.5,149C 346.766,149.318 340.099,148.985 333.5,148C 330.167,151.333 326.833,154.667 323.5,158C 313.314,157.864 303.314,156.364 293.5,153.5C 292.614,154.325 292.281,155.325 292.5,156.5C 280.162,156.333 267.829,156.5 255.5,157C 253.713,159.806 251.213,161.306 248,161.5C 236.172,158.751 224.339,156.084 212.5,153.5C 212.5,152.5 212.5,151.5 212.5,150.5C 210.801,150.34 209.134,150.506 207.5,151C 204,154.5 200.5,158 197,161.5C 194.058,168.379 190.892,175.046 187.5,181.5C 189.496,174.345 191.996,167.345 195,160.5C 198.833,156.667 202.667,152.833 206.5,149C 208.81,148.503 211.143,148.337 213.5,148.5C 213.5,149.833 213.5,151.167 213.5,152.5C 225.031,154.59 236.531,156.924 248,159.5C 250.676,158.838 252.843,157.338 254.5,155C 266.829,154.5 279.162,154.333 291.5,154.5C 291.5,153.5 291.5,152.5 291.5,151.5C 301.627,152.859 311.627,154.859 321.5,157.5C 324.984,153.515 328.651,149.682 332.5,146C 338.795,145.91 344.962,146.744 351,148.5C 353.921,146.623 356.754,144.623 359.5,142.5C 360.664,135.524 360.831,128.524 360,121.5C 357.667,119.167 355.333,116.833 353,114.5C 352.22,112.613 352.387,110.946 353.5,109.5 Z"/></g>
<g><path style="opacity:1" fill="#89bbb8" d="M 673.5,181.5 C 674.167,181.5 674.833,181.5 675.5,181.5C 664.797,188.17 653.797,194.503 642.5,200.5C 641.675,202.36 640.675,204.026 639.5,205.5C 639.5,204.833 639.5,204.167 639.5,203.5C 639.933,200.805 641.266,198.638 643.5,197C 653.397,191.552 663.397,186.386 673.5,181.5 Z"/></g>
<g><path style="opacity:1" fill="#7cacbd" d="M 586.5,201.5 C 585.833,201.5 585.167,201.5 584.5,201.5C 582.167,200.167 579.833,198.833 577.5,197.5C 576.923,196.227 576.257,196.227 575.5,197.5C 574.197,199.968 572.697,202.301 571,204.5C 570.235,206.066 570.402,207.399 571.5,208.5C 572.08,212.81 572.414,217.143 572.5,221.5C 572.802,224.059 572.468,226.393 571.5,228.5C 571.122,221.645 570.456,214.811 569.5,208C 569.935,202.74 572.269,198.574 576.5,195.5C 580.191,197.007 583.524,199.007 586.5,201.5 Z"/></g>
<g><path style="opacity:0.18" fill="#cc80a3" d="M 577.5,197.5 C 574.706,200.757 572.706,204.423 571.5,208.5C 570.402,207.399 570.235,206.066 571,204.5C 572.697,202.301 574.197,199.968 575.5,197.5C 576.257,196.227 576.923,196.227 577.5,197.5 Z"/></g>
<g><path style="opacity:0.992" fill="#91a5b9" d="M 639.5,203.5 C 639.5,204.167 639.5,204.833 639.5,205.5C 634.03,204.232 628.696,202.565 623.5,200.5C 621.085,199.352 619.085,200.018 617.5,202.5C 612.333,206.252 606.667,209.252 600.5,211.5C 594.804,208.657 589.471,205.324 584.5,201.5C 585.167,201.5 585.833,201.5 586.5,201.5C 591.39,203.711 596.056,206.378 600.5,209.5C 607.492,205.421 614.658,201.754 622,198.5C 627.82,200.274 633.653,201.941 639.5,203.5 Z"/></g>
<g><path style="opacity:0.186" fill="#ca82a4" d="M 623.5,200.5 C 621.5,201.167 619.5,201.833 617.5,202.5C 619.085,200.018 621.085,199.352 623.5,200.5 Z"/></g>
<g><path style="opacity:1" fill="#7cb8bf" d="M 187.5,181.5 C 182.931,185.799 177.597,189.132 171.5,191.5C 170.263,191.444 169.263,190.944 168.5,190C 153.167,189.667 137.833,189.333 122.5,189C 121.663,187.989 121.33,186.822 121.5,185.5C 117.863,184.503 114.196,184.003 110.5,184C 105.009,188.246 99.3421,192.246 93.5,196C 90.4465,199.387 87.7798,203.053 85.5,207C 80.5431,208.158 75.5431,208.992 70.5,209.5C 69.0724,219.804 67.0724,229.971 64.5,240C 54.5056,240.5 44.5056,240.666 34.5,240.5C 33.6634,248.526 32.6634,256.526 31.5,264.5C 22.1569,266.837 12.8235,269.171 3.5,271.5C 12.2161,267.928 21.2161,264.928 30.5,262.5C 30.8436,254.418 31.8436,246.418 33.5,238.5C 43.4473,237.525 53.4473,237.192 63.5,237.5C 64.7999,227.5 66.7999,217.667 69.5,208C 74.882,207.024 80.2154,205.857 85.5,204.5C 86.8752,200.911 88.8752,197.744 91.5,195C 97.5,191 103.5,187 109.5,183C 114.174,182.667 118.84,182.833 123.5,183.5C 123.5,184.833 123.5,186.167 123.5,187.5C 138.837,187.333 154.17,187.5 169.5,188C 170.333,188.833 171.167,189.667 172,190.5C 177.072,187.245 182.238,184.245 187.5,181.5 Z"/></g>
<g><path style="opacity:0.945" fill="#98a2b6" d="M 572.5,221.5 C 573.803,224.355 573.803,227.355 572.5,230.5C 564.263,234.454 555.929,238.12 547.5,241.5C 547.833,240.833 548.167,240.167 548.5,239.5C 555.98,235.594 563.647,231.928 571.5,228.5C 572.468,226.393 572.802,224.059 572.5,221.5 Z"/></g>
<g><path style="opacity:1" fill="#8aa7ba" d="M 548.5,239.5 C 548.167,240.167 547.833,240.833 547.5,241.5C 548.233,251.829 548.9,262.162 549.5,272.5C 547.167,272.5 544.833,272.5 542.5,272.5C 543.552,270.744 545.219,270.077 547.5,270.5C 547.165,262.145 546.498,253.812 545.5,245.5C 545.667,243.833 545.833,242.167 546,240.5C 546.671,239.748 547.504,239.414 548.5,239.5 Z"/></g>
<g><path style="opacity:1" fill="#87b6b6" d="M 3.5,271.5 C 3.19607,272.15 2.86273,272.817 2.5,273.5C 5.33211,283.494 8.16544,293.494 11,303.5C 13.6243,305.561 16.4576,307.227 19.5,308.5C 23.5799,306.804 27.5799,306.471 31.5,307.5C 30.209,307.263 29.209,307.596 28.5,308.5C 20.674,312.22 14.174,310.553 9,303.5C 5.53523,292.973 2.7019,282.306 0.5,271.5C 1.5,271.5 2.5,271.5 3.5,271.5 Z"/></g>
<g><path style="opacity:0.004" fill="#cb7a9e" d="M 448.5,290.5 C 448.027,291.906 447.027,292.573 445.5,292.5C 445.973,291.094 446.973,290.427 448.5,290.5 Z"/></g>
<g><path style="opacity:0.035" fill="#cc7a9f" d="M 445.5,292.5 C 445.027,293.906 444.027,294.573 442.5,294.5C 442.973,293.094 443.973,292.427 445.5,292.5 Z"/></g>
<g><path style="opacity:0.498" fill="#cc7fa2" d="M 475.5,292.5 C 476.488,293.795 477.488,295.128 478.5,296.5C 476.088,296.306 475.088,294.973 475.5,292.5 Z"/></g>
<g><path style="opacity:1" fill="#89a8bb" d="M 541.5,272.5 C 535.984,273.566 530.317,274.566 524.5,275.5C 519.333,283.833 514.167,292.167 509,300.5C 506.088,303.544 502.588,304.711 498.5,304C 491.696,301.569 485.029,299.069 478.5,296.5C 477.488,295.128 476.488,293.795 475.5,292.5C 474.596,291.791 474.263,290.791 474.5,289.5C 469.386,289.388 464.386,288.721 459.5,287.5C 460.274,286.853 461.274,286.52 462.5,286.5C 466.864,286.97 471.198,287.636 475.5,288.5C 476.457,290.918 477.791,293.084 479.5,295C 486.454,298.096 493.621,300.596 501,302.5C 503.406,302.297 505.406,301.297 507,299.5C 512.709,290.581 518.542,281.748 524.5,273C 530.157,272.501 535.824,272.334 541.5,272.5 Z"/></g>
<g><path style="opacity:0.055" fill="#cd7ea2" d="M 442.5,294.5 C 440.5,296.5 438.5,298.5 436.5,300.5C 435.475,300.103 435.308,299.437 436,298.5C 437.972,296.768 440.139,295.435 442.5,294.5 Z"/></g>
<g><path style="opacity:0.991" fill="#85abbd" d="M 457.5,287.5 C 453.997,287.129 450.997,288.129 448.5,290.5C 446.973,290.427 445.973,291.094 445.5,292.5C 443.973,292.427 442.973,293.094 442.5,294.5C 440.139,295.435 437.972,296.768 436,298.5C 435.308,299.437 435.475,300.103 436.5,300.5C 438.383,311.8 440.05,323.134 441.5,334.5C 434.492,334.334 427.492,334.5 420.5,335C 417.5,338 414.5,341 411.5,344C 401.959,346.71 392.292,348.376 382.5,349C 380.937,347.264 379.27,345.764 377.5,344.5C 380.577,344.727 383.41,345.727 386,347.5C 394.143,345.538 402.31,343.705 410.5,342C 413.5,339 416.5,336 419.5,333C 426.158,332.5 432.825,332.334 439.5,332.5C 437.124,320.918 435.624,309.252 435,297.5C 440.413,293.543 445.913,289.71 451.5,286C 453.833,285.333 456.167,285.333 458.5,286C 457.944,286.383 457.611,286.883 457.5,287.5 Z"/></g>
<g><path style="opacity:1" fill="#91a6b9" d="M 377.5,344.5 C 374.681,342.581 372.014,340.415 369.5,338C 368.365,337.251 367.365,337.417 366.5,338.5C 360.028,348.138 353.361,357.638 346.5,367C 352.362,372.033 358.029,377.199 363.5,382.5C 362.833,382.5 362.167,382.5 361.5,382.5C 356.186,378.19 350.852,373.857 345.5,369.5C 344.386,368.277 344.219,366.944 345,365.5C 351.695,356.305 358.195,346.971 364.5,337.5C 366.765,336.353 369.098,336.186 371.5,337C 374.857,338.512 376.857,341.012 377.5,344.5 Z"/></g>
<g><path style="opacity:0.925" fill="#83b5b8" d="M 28.5,308.5 C 29.209,307.596 30.209,307.263 31.5,307.5C 37.8341,316.525 43.8341,325.858 49.5,335.5C 55.8333,333 62.1667,330.5 68.5,328C 70.5,327.333 72.5,327.333 74.5,328C 81.6801,333.093 89.3467,337.426 97.5,341C 100.833,340.667 104.167,340.333 107.5,340C 115,344.918 122.667,349.584 130.5,354C 131.133,357.459 131.8,360.959 132.5,364.5C 139.916,369.292 147.416,373.959 155,378.5C 155.193,383.75 155.693,388.917 156.5,394C 167.482,396.247 177.816,400.081 187.5,405.5C 191.311,410.479 195.311,415.312 199.5,420C 206.81,421.164 214.144,422.164 221.5,423C 222.416,423.374 223.25,423.874 224,424.5C 227.255,431.174 230.088,438.007 232.5,445C 229.654,451.186 226.154,457.019 222,462.5C 221.251,463.635 221.417,464.635 222.5,465.5C 234.062,468.641 245.729,471.307 257.5,473.5C 256.791,474.404 255.791,474.737 254.5,474.5C 242.5,471.833 230.5,469.167 218.5,466.5C 218.351,465.448 218.517,464.448 219,463.5C 223.215,457.569 227.049,451.402 230.5,445C 227.398,438.302 224.731,431.469 222.5,424.5C 214.473,423.997 206.473,423.163 198.5,422C 193.646,416.647 188.979,411.147 184.5,405.5C 179.375,401.935 173.709,400.101 167.5,400C 163.129,398.599 158.796,397.099 154.5,395.5C 153.833,390.167 153.167,384.833 152.5,379.5C 145.035,375.198 137.701,370.698 130.5,366C 129.867,362.541 129.2,359.041 128.5,355.5C 120.995,350.915 113.662,346.082 106.5,341C 104.799,340.655 103.466,341.322 102.5,343C 100.5,343.667 98.5,343.667 96.5,343C 88.2371,338.62 80.0704,334.12 72,329.5C 65.1667,332 58.3333,334.5 51.5,337C 50.1667,337.667 48.8333,337.667 47.5,337C 42.1258,327.75 36.6258,318.584 31,309.5C 30.3292,308.748 29.4959,308.414 28.5,308.5 Z"/></g>
<g><path style="opacity:0.004" fill="#cb7ea1" d="M 370.5,408.5 C 369.22,409.931 367.553,410.598 365.5,410.5C 366.78,409.069 368.447,408.402 370.5,408.5 Z"/></g>
<g><path style="opacity:0.012" fill="#cd7fa2" d="M 365.5,410.5 C 361.144,413.068 356.478,415.068 351.5,416.5C 355.657,413.551 360.323,411.551 365.5,410.5 Z"/></g>
<g><path style="opacity:0.216" fill="#c687a7" d="M 351.5,416.5 C 351.167,421.167 350.833,425.833 350.5,430.5C 352.099,430.232 353.432,430.566 354.5,431.5C 352.801,431.66 351.134,431.494 349.5,431C 348.941,430.275 348.608,429.442 348.5,428.5C 349.265,424.31 350.265,420.31 351.5,416.5 Z"/></g>
<g><path style="opacity:0.183" fill="#c984a5" d="M 354.5,431.5 C 361.563,432.212 368.563,433.379 375.5,435C 376.337,436.011 376.67,437.178 376.5,438.5C 375.466,437.313 374.133,436.48 372.5,436C 366.295,434.799 360.295,433.299 354.5,431.5 Z"/></g>
<g><path style="opacity:1" fill="#83acbd" d="M 361.5,382.5 C 362.167,382.5 362.833,382.5 363.5,382.5C 368.803,382.927 373.97,383.927 379,385.5C 380.614,391.816 381.114,398.149 380.5,404.5C 377.222,406.036 373.889,407.369 370.5,408.5C 368.447,408.402 366.78,409.069 365.5,410.5C 360.323,411.551 355.657,413.551 351.5,416.5C 350.265,420.31 349.265,424.31 348.5,428.5C 348.608,429.442 348.941,430.275 349.5,431C 351.134,431.494 352.801,431.66 354.5,431.5C 360.295,433.299 366.295,434.799 372.5,436C 374.133,436.48 375.466,437.313 376.5,438.5C 376.5,439.833 376.5,441.167 376.5,442.5C 375.661,441.359 374.994,440.026 374.5,438.5C 365.609,435.989 356.609,433.989 347.5,432.5C 347.213,426.272 348.213,420.272 350.5,414.5C 360.058,410.593 369.558,406.593 379,402.5C 378.619,397.197 378.119,391.864 377.5,386.5C 372.412,386.249 367.412,385.416 362.5,384C 361.944,383.617 361.611,383.117 361.5,382.5 Z"/></g>
<g><path style="opacity:1" fill="#b093ac" d="M 376.5,438.5 C 377.738,440.214 378.405,442.214 378.5,444.5C 377.5,444.167 376.833,443.5 376.5,442.5C 376.5,441.167 376.5,439.833 376.5,438.5 Z"/></g>
<g><path style="opacity:1" fill="#ab96ae" d="M 378.5,445.5 C 379.738,447.214 380.405,449.214 380.5,451.5C 379.833,451.167 379.167,450.833 378.5,450.5C 378.5,448.833 378.5,447.167 378.5,445.5 Z"/></g>
<g><path style="opacity:1" fill="#b592ad" d="M 380.5,451.5 C 381.612,453.599 382.279,455.933 382.5,458.5C 380.837,456.562 380.171,454.228 380.5,451.5 Z"/></g>
<g><path style="opacity:1" fill="#b092ad" d="M 382.5,458.5 C 383.738,460.214 384.405,462.214 384.5,464.5C 382.72,463.01 382.054,461.01 382.5,458.5 Z"/></g>
<g><path style="opacity:0.918" fill="#99acac" d="M 269.5,469.5 C 269.833,470.167 270.167,470.833 270.5,471.5C 266.613,470.59 263.279,471.757 260.5,475C 258.288,475.789 256.288,475.622 254.5,474.5C 255.791,474.737 256.791,474.404 257.5,473.5C 260.516,472.657 263.183,471.157 265.5,469C 267.066,468.235 268.399,468.402 269.5,469.5 Z"/></g>
<g><path style="opacity:0.035" fill="#d8a58a" d="M 272.5,472.5 C 284.811,477.316 296.144,483.65 306.5,491.5C 305.5,491.5 304.5,491.5 303.5,491.5C 293,485.418 282.666,479.084 272.5,472.5 Z"/></g>
<g><path style="opacity:1" fill="#7bb0bb" d="M 269.5,469.5 C 283.805,475.314 297.138,482.647 309.5,491.5C 308.5,491.5 307.5,491.5 306.5,491.5C 296.144,483.65 284.811,477.316 272.5,472.5C 271.508,472.672 270.842,472.338 270.5,471.5C 270.167,470.833 269.833,470.167 269.5,469.5 Z"/></g>
<g><path style="opacity:0.127" fill="#d09d81" d="M 348.5,484.5 C 346.478,486.693 343.811,487.693 340.5,487.5C 342.936,486.129 345.603,485.129 348.5,484.5 Z"/></g>
<g><path style="opacity:1" fill="#7db5c1" d="M 378.5,450.5 C 379.167,450.833 379.833,451.167 380.5,451.5C 380.171,454.228 380.837,456.562 382.5,458.5C 382.054,461.01 382.72,463.01 384.5,464.5C 384.53,465.497 384.03,466.164 383,466.5C 374,469.5 365,472.5 356,475.5C 353.024,478.129 350.524,481.129 348.5,484.5C 345.603,485.129 342.936,486.129 340.5,487.5C 338.833,488.5 337.5,489.833 336.5,491.5C 335.5,491.5 334.5,491.5 333.5,491.5C 337.001,486.909 341.667,484.076 347.5,483C 349.004,479.656 351.004,476.656 353.5,474C 363.225,471.153 372.891,468.153 382.5,465C 380.661,460.315 379.328,455.482 378.5,450.5 Z"/></g>
</svg>
