<?xml version="1.0" encoding="UTF-8"?>
<!DOCTYPE svg PUBLIC "-//W3C//DTD SVG 1.1//EN" "http://www.w3.org/Graphics/SVG/1.1/DTD/svg11.dtd">
<svg xmlns="http://www.w3.org/2000/svg" version="1.1" width="536px" height="463px" style="shape-rendering:geometricPrecision; text-rendering:geometricPrecision; image-rendering:optimizeQuality; fill-rule:evenodd; clip-rule:evenodd" xmlns:xlink="http://www.w3.org/1999/xlink">
<g><path style="opacity:1" fill="#dfb8c7" d="M 438.5,90.5 C 440.159,94.471 441.826,98.471 443.5,102.5C 438.821,107.178 433.821,111.511 428.5,115.5C 425.562,120.378 422.895,125.378 420.5,130.5C 423.78,136.893 427.447,143.06 431.5,149C 428.733,155.28 427.233,161.78 427,168.5C 430.667,172.833 434.333,177.167 438,181.5C 439.846,187.052 440.512,192.719 440,198.5C 439.581,199.672 438.915,200.672 438,201.5C 437.064,208.887 435.897,216.221 434.5,223.5C 437.813,226.737 441.646,229.071 446,230.5C 452.193,228.936 458.359,227.269 464.5,225.5C 465.167,225.833 465.833,226.167 466.5,226.5C 469.914,232.997 473.581,239.33 477.5,245.5C 483.382,247.203 489.382,248.37 495.5,249C 497.5,252 499.5,255 501.5,258C 507.464,259.216 513.464,260.216 519.5,261C 522,264.167 524.5,267.333 527,270.5C 527.177,274.356 527.677,278.023 528.5,281.5C 528.404,287.373 527.737,293.04 526.5,298.5C 526.664,295.813 526.497,293.146 526,290.5C 525.503,292.81 525.337,295.143 525.5,297.5C 518.797,297.838 512.13,298.505 505.5,299.5C 503.856,299.286 502.356,299.62 501,300.5C 499.174,308.456 497.674,316.456 496.5,324.5C 495.596,325.209 495.263,326.209 495.5,327.5C 489.057,328.694 482.724,330.361 476.5,332.5C 472.348,328.849 468.348,325.016 464.5,321C 459.667,320.833 454.833,320.667 450,320.5C 444.784,320.506 439.951,321.173 435.5,322.5C 432.527,327.771 429.527,333.104 426.5,338.5C 419.687,335.878 412.687,334.378 405.5,334C 401.705,341.758 398.038,349.591 394.5,357.5C 393.833,357.833 393.167,358.167 392.5,358.5C 384.882,355.296 377.215,352.296 369.5,349.5C 368.432,348.566 367.099,348.232 365.5,348.5C 364.835,354.477 364.502,360.477 364.5,366.5C 363.123,370.818 363.456,375.152 365.5,379.5C 363.699,385.568 361.699,391.568 359.5,397.5C 361.166,398.992 362.166,400.825 362.5,403C 360.522,408.222 360.189,413.389 361.5,418.5C 362.338,418.842 362.672,419.508 362.5,420.5C 363.199,423.573 364.199,426.573 365.5,429.5C 360.279,434.889 353.945,437.056 346.5,436C 345.619,435.292 344.953,434.458 344.5,433.5C 343.117,431.04 341.117,429.374 338.5,428.5C 332.564,427.009 326.564,426.509 320.5,427C 318.919,427.707 317.419,428.54 316,429.5C 315.585,433.848 315.751,438.181 316.5,442.5C 315.758,444.98 314.758,447.313 313.5,449.5C 313.158,450.338 312.492,450.672 311.5,450.5C 306.65,452.396 301.817,454.396 297,456.5C 296.235,456.43 295.735,456.097 295.5,455.5C 295.047,454.542 294.381,453.708 293.5,453C 289.179,452.501 284.846,452.334 280.5,452.5C 278.938,452.267 277.605,451.6 276.5,450.5C 274.197,444.767 269.864,442.1 263.5,442.5C 256.68,439.559 253.347,434.226 253.5,426.5C 255.075,421.257 258.408,417.591 263.5,415.5C 265.746,415.064 267.913,414.397 270,413.5C 271.667,410.833 273.333,408.167 275,405.5C 275.667,404.167 275.667,402.833 275,401.5C 271.5,398 268,394.5 264.5,391C 259.085,390.644 254.085,391.81 249.5,394.5C 248.178,394.33 247.011,394.663 246,395.5C 245.284,393.121 244.117,391.121 242.5,389.5C 242.073,386.624 241.406,383.791 240.5,381C 241.101,379.395 242.101,378.062 243.5,377C 249.293,374.599 255.293,373.099 261.5,372.5C 264.771,375.047 268.105,374.88 271.5,372C 274.578,365.313 276.912,358.313 278.5,351C 276.689,342.638 276.022,334.138 276.5,325.5C 278.533,317.33 279.033,308.996 278,300.5C 276.644,299.62 275.144,299.286 273.5,299.5C 269.069,298.627 265.736,296.294 263.5,292.5C 261.69,285.418 257.023,282.085 249.5,282.5C 248.5,282.167 247.833,281.5 247.5,280.5C 245.922,276.141 246.589,272.141 249.5,268.5C 251.542,265.771 253.208,262.771 254.5,259.5C 253.666,256.498 252.333,253.832 250.5,251.5C 250.167,249.5 249.833,247.5 249.5,245.5C 250.222,245.082 250.722,244.416 251,243.5C 251.833,230.154 251.666,216.821 250.5,203.5C 245.697,200.529 241.03,197.362 236.5,194C 233.986,192.748 231.32,192.248 228.5,192.5C 223.521,190.68 218.521,188.847 213.5,187C 210.309,185.131 209.642,182.631 211.5,179.5C 214.321,175.233 216.488,170.567 218,165.5C 222.285,161.38 222.452,157.047 218.5,152.5C 217.656,148.901 217.323,145.234 217.5,141.5C 219.333,139.168 220.666,136.502 221.5,133.5C 217.596,128.557 212.929,124.557 207.5,121.5C 206.542,120.038 205.376,118.705 204,117.5C 203.51,116.207 203.343,114.873 203.5,113.5C 197.179,112.724 190.846,112.058 184.5,111.5C 183.22,110.069 181.553,109.402 179.5,109.5C 174.306,106.047 168.639,103.881 162.5,103C 159.803,108.591 157.803,114.424 156.5,120.5C 155.542,120.953 154.708,121.619 154,122.5C 153.333,130.833 153.333,139.167 154,147.5C 154.708,148.381 155.542,149.047 156.5,149.5C 156.66,151.199 156.494,152.866 156,154.5C 151.954,159.04 148.121,163.707 144.5,168.5C 138.446,168.877 132.446,169.71 126.5,171C 124.959,172.371 123.625,173.871 122.5,175.5C 121.711,175.783 121.044,176.283 120.5,177C 116.5,177.333 112.5,177.667 108.5,178C 107.514,181.955 105.514,185.289 102.5,188C 93.8631,192.993 84.8631,196.827 75.5,199.5C 71.2232,200.702 66.8899,201.702 62.5,202.5C 58.1068,201.804 54.4401,199.804 51.5,196.5C 51.665,193.15 51.4983,189.817 51,186.5C 49.8551,183.568 49.0218,180.568 48.5,177.5C 41.4294,177.678 34.4294,178.511 27.5,180C 24.8374,183.494 22.8374,187.327 21.5,191.5C 20.1092,193.89 18.1092,195.557 15.5,196.5C 12.2155,196.731 9.71547,195.397 8,192.5C 6.31086,188.44 4.14419,184.773 1.5,181.5C 1.58577,180.504 1.25244,179.671 0.5,179C 6.58035,175.586 11.247,170.92 14.5,165C 20.1109,161.189 26.1109,158.522 32.5,157C 37.2983,159.635 41.9649,162.468 46.5,165.5C 49.2569,160.318 51.7569,154.985 54,149.5C 59.4709,144.873 63.9709,139.539 67.5,133.5C 71.5,131.167 75.5,128.833 79.5,126.5C 83.2523,129.594 87.2523,132.261 91.5,134.5C 93.6924,134.243 95.3591,133.243 96.5,131.5C 98.4258,130.758 100.259,129.758 102,128.5C 104.711,123.337 104.878,118.17 102.5,113C 104.907,108.187 107.573,103.52 110.5,99C 113.76,98.0251 116.927,96.8584 120,95.5C 122.17,89.1483 125.337,83.4816 129.5,78.5C 135.413,79.958 141.413,80.6246 147.5,80.5C 147.835,70.482 148.501,60.482 149.5,50.5C 149.539,48.0478 150.206,46.0478 151.5,44.5C 159.854,42.8285 168.188,40.9951 176.5,39C 177.056,38.6174 177.389,38.1174 177.5,37.5C 179.033,32.7385 180.866,28.0719 183,23.5C 187.218,19.4795 192.051,16.6462 197.5,15C 199.833,13.3333 202.167,11.6667 204.5,10C 217.162,10.8872 229.496,13.0539 241.5,16.5C 241.756,18.9372 242.423,21.2706 243.5,23.5C 254.079,25.4608 264.745,26.2941 275.5,26C 277.246,23.3413 278.58,20.508 279.5,17.5C 280.488,16.205 281.488,14.8717 282.5,13.5C 290.697,10.7376 298.697,7.40424 306.5,3.5C 307.833,5.5 309.167,7.5 310.5,9.5C 320.138,15.9721 329.638,22.6388 339,29.5C 339.497,31.8098 339.663,34.1432 339.5,36.5C 353.504,36.3334 367.504,36.5001 381.5,37C 386.5,38.6667 391.5,40.3333 396.5,42C 399.242,47.3432 402.575,52.1765 406.5,56.5C 417.546,50.2246 428.379,43.558 439,36.5C 441.667,41.1667 444.333,45.8333 447,50.5C 449.443,51.5933 451.943,52.5933 454.5,53.5C 455.662,58.467 455.829,63.467 455,68.5C 449.667,74.5 444.333,80.5 439,86.5C 438.51,87.7932 438.343,89.1266 438.5,90.5 Z"/></g>
<g><path style="opacity:0.698" fill="#b57e7f" d="M 242.5,16.5 C 242.167,16.5 241.833,16.5 241.5,16.5C 241.5,15.5 241.5,14.5 241.5,13.5C 229.589,11.9871 217.756,9.98711 206,7.5C 203.374,9.56122 200.541,11.2279 197.5,12.5C 199.463,8.85852 202.463,6.85852 206.5,6.5C 218.2,8.11665 229.867,9.94999 241.5,12C 242.38,13.3561 242.714,14.8561 242.5,16.5 Z"/></g>
<g><path style="opacity:1" fill="#b97e93" d="M 241.5,16.5 C 229.496,13.0539 217.162,10.8872 204.5,10C 202.167,11.6667 199.833,13.3333 197.5,15C 192.051,16.6462 187.218,19.4795 183,23.5C 180.866,28.0719 179.033,32.7385 177.5,37.5C 177.167,37.5 176.833,37.5 176.5,37.5C 178.026,32.0897 179.859,26.7564 182,21.5C 186.251,16.7954 191.418,13.7954 197.5,12.5C 200.541,11.2279 203.374,9.56122 206,7.5C 217.756,9.98711 229.589,11.9871 241.5,13.5C 241.5,14.5 241.5,15.5 241.5,16.5 Z"/></g>
<g><path style="opacity:0.627" fill="#b97e94" d="M 241.5,16.5 C 241.833,16.5 242.167,16.5 242.5,16.5C 243.167,17.8333 243.833,19.1667 244.5,20.5C 245.23,22.045 246.563,22.8784 248.5,23C 257.163,24.1117 265.829,24.7784 274.5,25C 275.818,22.1761 277.485,19.6761 279.5,17.5C 278.58,20.508 277.246,23.3413 275.5,26C 264.745,26.2941 254.079,25.4608 243.5,23.5C 242.423,21.2706 241.756,18.9372 241.5,16.5 Z"/></g>
<g><path style="opacity:0.612" fill="#b78282" d="M 286.5,10.5 C 285.167,11.5 283.833,12.5 282.5,13.5C 281.488,14.8717 280.488,16.205 279.5,17.5C 277.485,19.6761 275.818,22.1761 274.5,25C 265.829,24.7784 257.163,24.1117 248.5,23C 246.563,22.8784 245.23,22.045 244.5,20.5C 253.197,21.1704 261.864,22.1704 270.5,23.5C 271.833,23.1667 273.167,22.8333 274.5,22.5C 276.039,19.2544 277.706,16.0877 279.5,13C 281.65,11.5886 283.984,10.7553 286.5,10.5 Z"/></g>
<g><path style="opacity:0.522" fill="#ac7270" d="M 340.5,28.5 C 341.451,29.9187 341.784,31.5853 341.5,33.5C 354.011,33.1714 366.345,33.5048 378.5,34.5C 365.833,34.5 353.167,34.5 340.5,34.5C 340.5,32.5 340.5,30.5 340.5,28.5 Z"/></g>
<g><path style="opacity:1" fill="#c28e9c" d="M 176.5,37.5 C 176.833,37.5 177.167,37.5 177.5,37.5C 177.389,38.1174 177.056,38.6174 176.5,39C 168.188,40.9951 159.854,42.8285 151.5,44.5C 150.791,43.596 149.791,43.2627 148.5,43.5C 157.585,40.8814 166.918,38.8814 176.5,37.5 Z"/></g>
<g><path style="opacity:0.935" fill="#b97d90" d="M 340.5,28.5 C 340.5,30.5 340.5,32.5 340.5,34.5C 353.167,34.5 365.833,34.5 378.5,34.5C 384.956,35.8175 391.289,37.6509 397.5,40C 400.146,42.8016 402.146,45.9683 403.5,49.5C 403.962,51.7567 404.962,53.7567 406.5,55.5C 412.91,51.9727 418.91,47.9727 424.5,43.5C 428.866,39.8925 433.699,36.8925 439,34.5C 442.877,38.5559 446.044,43.2225 448.5,48.5C 451.721,49.9074 455.055,50.9074 458.5,51.5C 458.666,56.5111 458.499,61.5111 458,66.5C 453.636,72.3539 449.136,78.0205 444.5,83.5C 441.723,85.2685 439.723,87.6018 438.5,90.5C 438.343,89.1266 438.51,87.7932 439,86.5C 444.333,80.5 449.667,74.5 455,68.5C 455.829,63.467 455.662,58.467 454.5,53.5C 451.943,52.5933 449.443,51.5933 447,50.5C 444.333,45.8333 441.667,41.1667 439,36.5C 428.379,43.558 417.546,50.2246 406.5,56.5C 402.575,52.1765 399.242,47.3432 396.5,42C 391.5,40.3333 386.5,38.6667 381.5,37C 367.504,36.5001 353.504,36.3334 339.5,36.5C 339.663,34.1432 339.497,31.8098 339,29.5C 329.638,22.6388 320.138,15.9721 310.5,9.5C 309.167,7.5 307.833,5.5 306.5,3.5C 298.697,7.40424 290.697,10.7376 282.5,13.5C 283.833,12.5 285.167,11.5 286.5,10.5C 292.844,6.99842 299.511,3.99842 306.5,1.5C 308.622,3.05022 310.289,5.05022 311.5,7.5C 321.488,14.1696 331.155,21.1696 340.5,28.5 Z"/></g>
<g><path style="opacity:0.392" fill="#b37c7d" d="M 424.5,43.5 C 418.91,47.9727 412.91,51.9727 406.5,55.5C 404.962,53.7567 403.962,51.7567 403.5,49.5C 404.885,50.5736 406.051,51.9069 407,53.5C 412.481,49.5113 418.315,46.1779 424.5,43.5 Z"/></g>
<g><path style="opacity:1" fill="#b57b93" d="M 179.5,109.5 C 176.779,109.037 174.112,108.371 171.5,107.5C 169.133,106.086 166.633,104.752 164,103.5C 162.711,105.645 161.878,107.978 161.5,110.5C 160.27,112.297 159.604,114.297 159.5,116.5C 158.974,118.23 157.974,119.564 156.5,120.5C 157.803,114.424 159.803,108.591 162.5,103C 168.639,103.881 174.306,106.047 179.5,109.5 Z"/></g>
<g><path style="opacity:1" fill="#d5afbe" d="M 171.5,107.5 C 167.567,106.857 164.234,107.857 161.5,110.5C 161.878,107.978 162.711,105.645 164,103.5C 166.633,104.752 169.133,106.086 171.5,107.5 Z"/></g>
<g><path style="opacity:0.949" fill="#91a1b5" d="M 171.5,107.5 C 174.112,108.371 176.779,109.037 179.5,109.5C 179.833,110.167 180.167,110.833 180.5,111.5C 176.808,110.66 173.141,109.66 169.5,108.5C 164.963,109.756 161.63,112.423 159.5,116.5C 159.604,114.297 160.27,112.297 161.5,110.5C 164.234,107.857 167.567,106.857 171.5,107.5 Z"/></g>
<g><path style="opacity:0.588" fill="#9c7284" d="M 179.5,109.5 C 181.553,109.402 183.22,110.069 184.5,111.5C 183.167,111.5 181.833,111.5 180.5,111.5C 180.167,110.833 179.833,110.167 179.5,109.5 Z"/></g>
<g><path style="opacity:1" fill="#a28092" d="M 184.5,111.5 C 190.846,112.058 197.179,112.724 203.5,113.5C 203.343,114.873 203.51,116.207 204,117.5C 205.376,118.705 206.542,120.038 207.5,121.5C 209.167,123.5 210.833,125.5 212.5,127.5C 212.167,127.5 211.833,127.5 211.5,127.5C 207.336,124.168 203.669,120.335 200.5,116C 196.5,115.333 192.5,114.667 188.5,114C 186.934,113.392 185.6,112.558 184.5,111.5 Z"/></g>
<g><path style="opacity:1" fill="#c08b99" d="M 148.5,43.5 C 149.791,43.2627 150.791,43.596 151.5,44.5C 150.206,46.0478 149.539,48.0478 149.5,50.5C 148.501,60.482 147.835,70.482 147.5,80.5C 141.413,80.6246 135.413,79.958 129.5,78.5C 125.337,83.4816 122.17,89.1483 120,95.5C 116.927,96.8584 113.76,98.0251 110.5,99C 107.573,103.52 104.907,108.187 102.5,113C 104.878,118.17 104.711,123.337 102,128.5C 100.259,129.758 98.4258,130.758 96.5,131.5C 97.7927,129.704 99.2927,128.037 101,126.5C 101.532,123.736 102.366,121.07 103.5,118.5C 101.702,115.711 101.202,112.711 102,109.5C 104.254,105.993 106.254,102.327 108,98.5C 111.422,96.081 115.256,94.7477 119.5,94.5C 121.538,88.7512 123.871,83.0846 126.5,77.5C 127.667,77.1667 128.833,76.8333 130,76.5C 135.14,77.4403 140.306,78.1069 145.5,78.5C 145.905,66.636 146.905,54.9693 148.5,43.5 Z"/></g>
<g><path style="opacity:1" fill="#ab738b" d="M 156.5,120.5 C 156.768,122.099 156.434,123.432 155.5,124.5C 154.345,131.655 154.178,138.988 155,146.5C 156.039,147.244 156.539,148.244 156.5,149.5C 155.542,149.047 154.708,148.381 154,147.5C 153.333,139.167 153.333,130.833 154,122.5C 154.708,121.619 155.542,120.953 156.5,120.5 Z"/></g>
<g><path style="opacity:1" fill="#d2adbc" d="M 215.5,129.5 C 220.911,131.792 221.578,134.792 217.5,138.5C 217.795,136.265 217.461,134.265 216.5,132.5C 215.89,131.609 215.557,130.609 215.5,129.5 Z"/></g>
<g><path style="opacity:0.244" fill="#a0c5e5" d="M 211.5,127.5 C 211.833,127.5 212.167,127.5 212.5,127.5C 212.973,128.906 213.973,129.573 215.5,129.5C 215.557,130.609 215.89,131.609 216.5,132.5C 216.813,136.042 216.479,139.375 215.5,142.5C 215.665,139.15 215.498,135.817 215,132.5C 213.198,131.211 212.031,129.544 211.5,127.5 Z"/></g>
<g><path style="opacity:1" fill="#b47b92" d="M 207.5,121.5 C 212.929,124.557 217.596,128.557 221.5,133.5C 220.666,136.502 219.333,139.168 217.5,141.5C 217.5,140.5 217.5,139.5 217.5,138.5C 221.578,134.792 220.911,131.792 215.5,129.5C 213.973,129.573 212.973,128.906 212.5,127.5C 210.833,125.5 209.167,123.5 207.5,121.5 Z"/></g>
<g><path style="opacity:0.886" fill="#908fa7" d="M 216.5,132.5 C 217.461,134.265 217.795,136.265 217.5,138.5C 217.5,139.5 217.5,140.5 217.5,141.5C 217.323,145.234 217.656,148.901 218.5,152.5C 218.813,156.042 218.479,159.375 217.5,162.5C 217.137,156.738 216.137,151.071 214.5,145.5C 214.685,144.416 215.018,143.416 215.5,142.5C 216.479,139.375 216.813,136.042 216.5,132.5 Z"/></g>
<g><path style="opacity:0.584" fill="#8c7b8a" d="M 155.5,124.5 C 155.427,134.941 155.927,145.275 157,155.5C 154.333,158.833 151.667,162.167 149,165.5C 147.871,167.141 146.371,168.141 144.5,168.5C 148.121,163.707 151.954,159.04 156,154.5C 156.494,152.866 156.66,151.199 156.5,149.5C 156.539,148.244 156.039,147.244 155,146.5C 154.178,138.988 154.345,131.655 155.5,124.5 Z"/></g>
<g><path style="opacity:1" fill="#bb6d72" d="M 429.5,141.5 C 432.177,143.517 433.844,146.184 434.5,149.5C 432.623,155.795 430.956,162.129 429.5,168.5C 428.305,168.134 427.639,167.301 427.5,166C 429.303,160.258 431.303,154.591 433.5,149C 432.022,146.541 430.688,144.041 429.5,141.5 Z"/></g>
<g><path style="opacity:0.996" fill="#a07a8d" d="M 218.5,152.5 C 222.452,157.047 222.285,161.38 218,165.5C 216.488,170.567 214.321,175.233 211.5,179.5C 213.265,173.66 215.265,167.994 217.5,162.5C 218.479,159.375 218.813,156.042 218.5,152.5 Z"/></g>
<g><path style="opacity:1" fill="#bd8797" d="M 96.5,131.5 C 95.3591,133.243 93.6924,134.243 91.5,134.5C 87.2523,132.261 83.2523,129.594 79.5,126.5C 75.5,128.833 71.5,131.167 67.5,133.5C 63.9709,139.539 59.4709,144.873 54,149.5C 51.7569,154.985 49.2569,160.318 46.5,165.5C 41.9649,162.468 37.2983,159.635 32.5,157C 26.1109,158.522 20.1109,161.189 14.5,165C 11.247,170.92 6.58035,175.586 0.5,179C 1.25244,179.671 1.58577,180.504 1.5,181.5C 0.833333,181.167 0.166667,180.833 -0.5,180.5C -0.5,179.5 -0.5,178.5 -0.5,177.5C 5.36251,173.567 10.3625,168.734 14.5,163C 19.6587,160.588 24.6587,157.921 29.5,155C 30.8333,154.333 32.1667,154.333 33.5,155C 37.7495,157.374 41.9162,159.874 46,162.5C 49.5337,152.09 55.5337,143.424 64,136.5C 64.3333,135.167 64.6667,133.833 65,132.5C 70.1027,129.021 75.6027,126.854 81.5,126C 84.6919,128.692 88.0252,131.192 91.5,133.5C 93.0754,132.544 94.742,131.877 96.5,131.5 Z"/></g>
<g><path style="opacity:0.361" fill="#8da2b8" d="M 139.5,170.5 C 137.786,171.738 135.786,172.405 133.5,172.5C 134.99,170.72 136.99,170.054 139.5,170.5 Z"/></g>
<g><path style="opacity:1" fill="#ad7b90" d="M 144.5,168.5 C 143.22,169.931 141.553,170.598 139.5,170.5C 136.99,170.054 134.99,170.72 133.5,172.5C 133.167,172.5 132.833,172.5 132.5,172.5C 129.369,171.908 127.036,172.908 125.5,175.5C 124.5,175.5 123.5,175.5 122.5,175.5C 123.625,173.871 124.959,172.371 126.5,171C 132.446,169.71 138.446,168.877 144.5,168.5 Z"/></g>
<g><path style="opacity:0.902" fill="#94a8bd" d="M 132.5,172.5 C 130.574,174.293 128.241,175.293 125.5,175.5C 127.036,172.908 129.369,171.908 132.5,172.5 Z"/></g>
<g><path style="opacity:1" fill="#ba849a" d="M 51.5,196.5 C 50.8333,193.833 50.1667,191.167 49.5,188.5C 49.6061,185.921 48.9395,183.588 47.5,181.5C 47.0423,178.691 45.7089,178.024 43.5,179.5C 40.8127,179.336 38.146,179.503 35.5,180C 34.5842,180.278 33.9175,180.778 33.5,181.5C 30.6385,182.247 28.6385,183.914 27.5,186.5C 25.5,188.167 23.5,189.833 21.5,191.5C 22.8374,187.327 24.8374,183.494 27.5,180C 34.4294,178.511 41.4294,177.678 48.5,177.5C 49.0218,180.568 49.8551,183.568 51,186.5C 51.4983,189.817 51.665,193.15 51.5,196.5 Z"/></g>
<g><path style="opacity:1" fill="#d5acbc" d="M 47.5,181.5 C 46.0048,181.011 44.6715,180.345 43.5,179.5C 45.7089,178.024 47.0423,178.691 47.5,181.5 Z"/></g>
<g><path style="opacity:0.122" fill="#8f9bac" d="M 33.5,181.5 C 31.9095,183.633 29.9095,185.299 27.5,186.5C 28.6385,183.914 30.6385,182.247 33.5,181.5 Z"/></g>
<g><path style="opacity:0.949" fill="#9092a1" d="M 43.5,179.5 C 44.6715,180.345 46.0048,181.011 47.5,181.5C 48.9395,183.588 49.6061,185.921 49.5,188.5C 49.5,189.5 49.5,190.5 49.5,191.5C 48.1482,182.187 42.8149,178.854 33.5,181.5C 33.9175,180.778 34.5842,180.278 35.5,180C 38.146,179.503 40.8127,179.336 43.5,179.5 Z"/></g>
<g><path style="opacity:1" fill="#907688" d="M 211.5,179.5 C 209.642,182.631 210.309,185.131 213.5,187C 218.521,188.847 223.521,190.68 228.5,192.5C 228.5,192.833 228.5,193.167 228.5,193.5C 227.833,193.5 227.167,193.5 226.5,193.5C 221.066,191.807 215.733,189.807 210.5,187.5C 209.11,184.524 209.443,181.857 211.5,179.5 Z"/></g>
<g><path style="opacity:0.753" fill="#9b7689" d="M 122.5,175.5 C 123.5,175.5 124.5,175.5 125.5,175.5C 122.008,177.956 118.008,179.123 113.5,179C 110.373,181.583 107.707,184.583 105.5,188C 98.9328,191.451 92.2661,194.618 85.5,197.5C 82.2107,198.374 78.8774,199.041 75.5,199.5C 84.8631,196.827 93.8631,192.993 102.5,188C 105.514,185.289 107.514,181.955 108.5,178C 112.5,177.667 116.5,177.333 120.5,177C 121.044,176.283 121.711,175.783 122.5,175.5 Z"/></g>
<g><path style="opacity:0.867" fill="#8d7b8d" d="M -0.5,180.5 C 0.166667,180.833 0.833333,181.167 1.5,181.5C 4.14419,184.773 6.31086,188.44 8,192.5C 9.71547,195.397 12.2155,196.731 15.5,196.5C 13.2279,197.764 10.8945,197.598 8.5,196C 5.35257,191.521 2.35257,187.021 -0.5,182.5C -0.5,181.833 -0.5,181.167 -0.5,180.5 Z"/></g>
<g><path style="opacity:0.984" fill="#8e9bad" d="M 226.5,193.5 C 227.167,193.5 227.833,193.5 228.5,193.5C 231.542,193.733 234.208,194.733 236.5,196.5C 232.884,196.101 229.55,195.101 226.5,193.5 Z"/></g>
<g><path style="opacity:1" fill="#dbb5c4" d="M 176.5,194.5 C 182.643,195.026 183.976,197.86 180.5,203C 177.518,203.498 174.518,203.665 171.5,203.5C 172.738,200.262 174.404,197.262 176.5,194.5 Z"/></g>
<g><path style="opacity:0.969" fill="#929eaf" d="M 176.5,194.5 C 174.404,197.262 172.738,200.262 171.5,203.5C 170.315,199.127 171.982,196.127 176.5,194.5 Z"/></g>
<g><path style="opacity:1" fill="#8d7889" d="M 49.5,188.5 C 50.1667,191.167 50.8333,193.833 51.5,196.5C 54.4401,199.804 58.1068,201.804 62.5,202.5C 66.8899,201.702 71.2232,200.702 75.5,199.5C 78.8774,199.041 82.2107,198.374 85.5,197.5C 76.7972,202.009 67.4638,203.842 57.5,203C 55,201.167 52.5,199.333 50,197.5C 49.5045,195.527 49.3379,193.527 49.5,191.5C 49.5,190.5 49.5,189.5 49.5,188.5 Z"/></g>
<g><path style="opacity:0.49" fill="#96909e" d="M 176.5,194.5 C 178.56,193.189 180.726,193.189 183,194.5C 184.558,204.217 180.725,207.217 171.5,203.5C 174.518,203.665 177.518,203.498 180.5,203C 183.976,197.86 182.643,195.026 176.5,194.5 Z"/></g>
<g><path style="opacity:1" fill="#a27286" d="M 228.5,193.5 C 228.5,193.167 228.5,192.833 228.5,192.5C 231.32,192.248 233.986,192.748 236.5,194C 241.03,197.362 245.697,200.529 250.5,203.5C 251.666,216.821 251.833,230.154 251,243.5C 250.722,244.416 250.222,245.082 249.5,245.5C 249.5,244.833 249.5,244.167 249.5,243.5C 250.646,230.909 250.812,218.242 250,205.5C 248.512,203.84 246.679,202.84 244.5,202.5C 242.07,200.055 239.404,198.055 236.5,196.5C 234.208,194.733 231.542,193.733 228.5,193.5 Z"/></g>
<g><path style="opacity:1" fill="#dfb8c7" d="M 85.5,210.5 C 88.1873,210.336 90.854,210.503 93.5,211C 95.8864,212.193 98.2198,213.36 100.5,214.5C 102.5,215.833 104.167,217.5 105.5,219.5C 106.341,223.198 107.341,226.864 108.5,230.5C 113.792,231.495 119.125,231.828 124.5,231.5C 128.071,232.929 130.738,235.263 132.5,238.5C 132.5,240.167 132.5,241.833 132.5,243.5C 134.833,243.5 137.167,243.5 139.5,243.5C 146.927,243.197 151.927,246.531 154.5,253.5C 154.794,257.1 155.46,260.6 156.5,264C 160.145,264.719 163.812,265.219 167.5,265.5C 169.711,266.123 171.711,267.123 173.5,268.5C 174.632,270.799 176.465,272.132 179,272.5C 182.458,271.632 185.624,270.299 188.5,268.5C 190.216,268.371 191.883,268.038 193.5,267.5C 194.134,268.947 195.301,269.613 197,269.5C 199.746,268.869 202.246,267.869 204.5,266.5C 208.167,266.5 211.833,266.5 215.5,266.5C 217.177,268.54 218.844,270.54 220.5,272.5C 220.84,276.131 220.006,279.464 218,282.5C 216.89,284.037 215.39,284.703 213.5,284.5C 210.482,284.335 207.482,284.502 204.5,285C 201.961,287.37 199.628,289.87 197.5,292.5C 195.704,293.793 194.037,295.293 192.5,297C 187.566,297.116 182.9,297.949 178.5,299.5C 173.112,300.347 167.779,301.513 162.5,303C 161.54,306.73 161.207,310.563 161.5,314.5C 158.948,319.226 155.448,323.226 151,326.5C 150,328.5 149,330.5 148,332.5C 150.416,340.778 148.582,348.111 142.5,354.5C 139.521,355.654 136.521,356.82 133.5,358C 129.454,358.324 126.621,356.491 125,352.5C 123.595,347.452 122.095,342.452 120.5,337.5C 122.377,336.341 122.877,334.674 122,332.5C 120.5,330.167 119,327.833 117.5,325.5C 114.785,323.736 111.785,322.736 108.5,322.5C 105.662,321.194 102.662,320.027 99.5,319C 97.393,317.736 96.393,315.903 96.5,313.5C 96.6633,311.143 96.4966,308.81 96,306.5C 95.2917,305.619 94.4584,304.953 93.5,304.5C 92.8333,302.5 92.1667,300.5 91.5,298.5C 90.4513,292.206 89.618,285.872 89,279.5C 86.9835,274.287 85.4835,268.954 84.5,263.5C 85.6651,262.504 86.3318,261.171 86.5,259.5C 85.6659,256.498 84.3325,253.832 82.5,251.5C 80.4288,247.273 80.0955,242.94 81.5,238.5C 83.8989,237.102 85.5656,235.102 86.5,232.5C 85.2083,229.229 83.5416,226.229 81.5,223.5C 80.5651,220.887 80.3985,218.221 81,215.5C 82.7073,213.963 84.2073,212.296 85.5,210.5 Z"/></g>
<g><path style="opacity:0.584" fill="#8f7684" d="M 85.5,210.5 C 91.3732,208.38 96.3732,209.714 100.5,214.5C 98.2198,213.36 95.8864,212.193 93.5,211C 90.854,210.503 88.1873,210.336 85.5,210.5 Z"/></g>
<g><path style="opacity:0.427" fill="#90aac1" d="M 244.5,202.5 C 246.679,202.84 248.512,203.84 250,205.5C 250.812,218.242 250.646,230.909 249.5,243.5C 249.167,243.5 248.833,243.5 248.5,243.5C 249.514,231.16 249.514,218.827 248.5,206.5C 246.812,205.479 245.479,204.145 244.5,202.5 Z"/></g>
<g><path style="opacity:0.973" fill="#867a89" d="M 85.5,210.5 C 84.2073,212.296 82.7073,213.963 81,215.5C 80.3985,218.221 80.5651,220.887 81.5,223.5C 81.5,224.167 81.5,224.833 81.5,225.5C 80.7784,225.082 80.2784,224.416 80,223.5C 77.9594,217.291 79.7928,212.958 85.5,210.5 Z"/></g>
<g><path style="opacity:0.592" fill="#8d9caf" d="M 107.5,221.5 C 109.326,223.147 110.66,225.147 111.5,227.5C 110.5,226.833 109.5,226.167 108.5,225.5C 108.167,224.167 107.833,222.833 107.5,221.5 Z"/></g>
<g><path style="opacity:1" fill="#ab7b90" d="M 105.5,219.5 C 106.5,219.833 107.167,220.5 107.5,221.5C 107.833,222.833 108.167,224.167 108.5,225.5C 108.787,228.484 110.454,229.817 113.5,229.5C 116.5,229.5 119.5,229.5 122.5,229.5C 123.492,229.328 124.158,229.662 124.5,230.5C 124.5,230.833 124.5,231.167 124.5,231.5C 119.125,231.828 113.792,231.495 108.5,230.5C 107.341,226.864 106.341,223.198 105.5,219.5 Z"/></g>
<g><path style="opacity:1" fill="#b9788b" d="M 444.5,83.5 C 443.519,85.4893 442.519,87.4893 441.5,89.5C 443.627,94.6909 444.793,100.024 445,105.5C 440.077,109.045 435.244,112.712 430.5,116.5C 427.833,121.167 425.167,125.833 422.5,130.5C 425.281,133.934 427.614,137.601 429.5,141.5C 430.688,144.041 432.022,146.541 433.5,149C 431.303,154.591 429.303,160.258 427.5,166C 427.639,167.301 428.305,168.134 429.5,168.5C 433.468,172.639 437.301,176.973 441,181.5C 441.687,185.644 442.187,189.811 442.5,194C 442.733,197.459 441.899,200.626 440,203.5C 439.067,209.821 438.734,216.154 439,222.5C 441.094,225.103 443.594,227.103 446.5,228.5C 453.397,226.19 460.397,224.69 467.5,224C 471.293,230.419 474.96,236.919 478.5,243.5C 483.8,244.717 489.134,245.717 494.5,246.5C 497.392,249.271 500.058,252.271 502.5,255.5C 508.536,256.006 514.536,256.839 520.5,258C 523.333,261.5 526.167,265 529,268.5C 529.768,272.92 529.602,277.253 528.5,281.5C 527.677,278.023 527.177,274.356 527,270.5C 524.5,267.333 522,264.167 519.5,261C 513.464,260.216 507.464,259.216 501.5,258C 499.5,255 497.5,252 495.5,249C 489.382,248.37 483.382,247.203 477.5,245.5C 473.581,239.33 469.914,232.997 466.5,226.5C 465.833,226.167 465.167,225.833 464.5,225.5C 458.359,227.269 452.193,228.936 446,230.5C 441.646,229.071 437.813,226.737 434.5,223.5C 435.897,216.221 437.064,208.887 438,201.5C 438.915,200.672 439.581,199.672 440,198.5C 440.512,192.719 439.846,187.052 438,181.5C 434.333,177.167 430.667,172.833 427,168.5C 427.233,161.78 428.733,155.28 431.5,149C 427.447,143.06 423.78,136.893 420.5,130.5C 422.895,125.378 425.562,120.378 428.5,115.5C 433.821,111.511 438.821,107.178 443.5,102.5C 441.826,98.471 440.159,94.471 438.5,90.5C 439.723,87.6018 441.723,85.2685 444.5,83.5 Z"/></g>
<g><path style="opacity:1" fill="#cbaab8" d="M 108.5,225.5 C 109.5,226.167 110.5,226.833 111.5,227.5C 112.167,227.5 112.833,227.5 113.5,227.5C 113.5,228.167 113.5,228.833 113.5,229.5C 110.454,229.817 108.787,228.484 108.5,225.5 Z"/></g>
<g><path style="opacity:0.988" fill="#96a5b9" d="M 113.5,227.5 C 116.689,227.858 119.689,228.525 122.5,229.5C 119.5,229.5 116.5,229.5 113.5,229.5C 113.5,228.833 113.5,228.167 113.5,227.5 Z"/></g>
<g><path style="opacity:0.416" fill="#886d7d" d="M 124.5,231.5 C 124.5,231.167 124.5,230.833 124.5,230.5C 128.049,231.723 131.049,233.723 133.5,236.5C 133.5,237.167 133.5,237.833 133.5,238.5C 133.167,238.5 132.833,238.5 132.5,238.5C 130.738,235.263 128.071,232.929 124.5,231.5 Z"/></g>
<g><path style="opacity:1" fill="#b68b9f" d="M 81.5,223.5 C 83.5416,226.229 85.2083,229.229 86.5,232.5C 85.5656,235.102 83.8989,237.102 81.5,238.5C 81.5,237.833 81.5,237.167 81.5,236.5C 81.5,232.833 81.5,229.167 81.5,225.5C 81.5,224.833 81.5,224.167 81.5,223.5 Z"/></g>
<g><path style="opacity:0.914" fill="#90a4b8" d="M 133.5,236.5 C 135.262,237.262 136.262,238.596 136.5,240.5C 134.973,240.573 133.973,239.906 133.5,238.5C 133.5,237.833 133.5,237.167 133.5,236.5 Z"/></g>
<g><path style="opacity:1" fill="#bf889e" d="M 132.5,238.5 C 132.833,238.5 133.167,238.5 133.5,238.5C 133.973,239.906 134.973,240.573 136.5,240.5C 137.6,241.558 138.934,242.392 140.5,243C 140.272,243.399 139.938,243.565 139.5,243.5C 137.167,243.5 134.833,243.5 132.5,243.5C 132.5,241.833 132.5,240.167 132.5,238.5 Z"/></g>
<g><path style="opacity:0.996" fill="#917b8b" d="M 136.5,240.5 C 143.22,241.346 149.053,244.012 154,248.5C 155.122,250.407 155.955,252.407 156.5,254.5C 155.833,254.167 155.167,253.833 154.5,253.5C 151.927,246.531 146.927,243.197 139.5,243.5C 139.938,243.565 140.272,243.399 140.5,243C 138.934,242.392 137.6,241.558 136.5,240.5 Z"/></g>
<g><path style="opacity:0.89" fill="#b6656a" d="M 494.5,246.5 C 496.39,246.297 497.89,246.963 499,248.5C 500.705,250.577 501.872,252.91 502.5,255.5C 500.058,252.271 497.392,249.271 494.5,246.5 Z"/></g>
<g><path style="opacity:0.902" fill="#8c8598" d="M 248.5,243.5 C 248.833,243.5 249.167,243.5 249.5,243.5C 249.5,244.167 249.5,244.833 249.5,245.5C 249.833,247.5 250.167,249.5 250.5,251.5C 250.5,252.5 250.5,253.5 250.5,254.5C 247.778,251.221 247.111,247.555 248.5,243.5 Z"/></g>
<g><path style="opacity:0.867" fill="#908d9f" d="M 81.5,236.5 C 81.5,237.167 81.5,237.833 81.5,238.5C 80.0955,242.94 80.4288,247.273 82.5,251.5C 83.9175,255.002 84.5842,258.669 84.5,262.5C 83.5318,264.607 83.1984,266.941 83.5,269.5C 82.2555,266.481 82.2555,263.314 83.5,260C 81.4344,255.137 79.7678,250.137 78.5,245C 78.9469,241.85 79.9469,239.017 81.5,236.5 Z"/></g>
<g><path style="opacity:1" fill="#b87c95" d="M 82.5,251.5 C 84.3325,253.832 85.6659,256.498 86.5,259.5C 86.3318,261.171 85.6651,262.504 84.5,263.5C 84.5,263.167 84.5,262.833 84.5,262.5C 84.5842,258.669 83.9175,255.002 82.5,251.5 Z"/></g>
<g><path style="opacity:1" fill="#d5acbc" d="M 251.5,256.5 C 254.167,258.5 254.167,260.5 251.5,262.5C 251.5,260.5 251.5,258.5 251.5,256.5 Z"/></g>
<g><path style="opacity:0.282" fill="#92929e" d="M 157.5,256.5 C 159.156,258.46 160.823,260.46 162.5,262.5C 159.438,261.732 157.772,259.732 157.5,256.5 Z"/></g>
<g><path style="opacity:1" fill="#bf8ba0" d="M 154.5,253.5 C 155.167,253.833 155.833,254.167 156.5,254.5C 157.338,254.842 157.672,255.508 157.5,256.5C 157.772,259.732 159.438,261.732 162.5,262.5C 164.072,263.687 165.739,264.687 167.5,265.5C 163.812,265.219 160.145,264.719 156.5,264C 155.46,260.6 154.794,257.1 154.5,253.5 Z"/></g>
<g><path style="opacity:1" fill="#b57992" d="M 250.5,251.5 C 252.333,253.832 253.666,256.498 254.5,259.5C 253.208,262.771 251.542,265.771 249.5,268.5C 249.604,266.297 250.27,264.297 251.5,262.5C 254.167,260.5 254.167,258.5 251.5,256.5C 251.672,255.508 251.338,254.842 250.5,254.5C 250.5,253.5 250.5,252.5 250.5,251.5 Z"/></g>
<g><path style="opacity:0.49" fill="#898091" d="M 162.5,262.5 C 167.5,263.501 172.167,265.334 176.5,268C 179.146,268.497 181.813,268.664 184.5,268.5C 180.967,269.715 177.301,269.715 173.5,268.5C 171.711,267.123 169.711,266.123 167.5,265.5C 165.739,264.687 164.072,263.687 162.5,262.5 Z"/></g>
<g><path style="opacity:0.971" fill="#8d8390" d="M 215.5,266.5 C 211.833,266.5 208.167,266.5 204.5,266.5C 200.865,267.114 197.198,267.448 193.5,267.5C 191.883,268.038 190.216,268.371 188.5,268.5C 188.918,267.778 189.584,267.278 190.5,267C 197.172,266.203 203.839,265.37 210.5,264.5C 212.557,264.436 214.223,265.102 215.5,266.5 Z"/></g>
<g><path style="opacity:0.243" fill="#87707f" d="M 215.5,266.5 C 218.562,267.268 220.228,269.268 220.5,272.5C 218.844,270.54 217.177,268.54 215.5,266.5 Z"/></g>
<g><path style="opacity:1" fill="#b57f95" d="M 204.5,266.5 C 202.246,267.869 199.746,268.869 197,269.5C 195.301,269.613 194.134,268.947 193.5,267.5C 197.198,267.448 200.865,267.114 204.5,266.5 Z"/></g>
<g><path style="opacity:0.996" fill="#8a7f90" d="M 250.5,254.5 C 251.338,254.842 251.672,255.508 251.5,256.5C 251.5,258.5 251.5,260.5 251.5,262.5C 250.27,264.297 249.604,266.297 249.5,268.5C 246.589,272.141 245.922,276.141 247.5,280.5C 246.883,280.389 246.383,280.056 246,279.5C 245.054,273.329 246.388,267.662 250,262.5C 250.497,259.854 250.664,257.187 250.5,254.5 Z"/></g>
<g><path style="opacity:0.992" fill="#967a8c" d="M 84.5,262.5 C 84.5,262.833 84.5,263.167 84.5,263.5C 85.4835,268.954 86.9835,274.287 89,279.5C 89.618,285.872 90.4513,292.206 91.5,298.5C 90.8333,297.833 90.1667,297.167 89.5,296.5C 88.5933,289.722 87.26,283.055 85.5,276.5C 85.9465,273.99 85.2798,271.99 83.5,270.5C 83.5,270.167 83.5,269.833 83.5,269.5C 83.1984,266.941 83.5318,264.607 84.5,262.5 Z"/></g>
<g><path style="opacity:1" fill="#b98399" d="M 173.5,268.5 C 177.301,269.715 180.967,269.715 184.5,268.5C 185.833,268.5 187.167,268.5 188.5,268.5C 185.624,270.299 182.458,271.632 179,272.5C 176.465,272.132 174.632,270.799 173.5,268.5 Z"/></g>
<g><path style="opacity:0.976" fill="#8d9ab0" d="M 83.5,270.5 C 85.2798,271.99 85.9465,273.99 85.5,276.5C 84.2616,274.786 83.595,272.786 83.5,270.5 Z"/></g>
<g><path style="opacity:0.988" fill="#87798c" d="M 220.5,272.5 C 221.989,276.595 221.489,280.595 219,284.5C 216.993,285.669 214.827,286.335 212.5,286.5C 211.833,286.5 211.167,286.5 210.5,286.5C 211.5,285.833 212.5,285.167 213.5,284.5C 215.39,284.703 216.89,284.037 218,282.5C 220.006,279.464 220.84,276.131 220.5,272.5 Z"/></g>
<g><path style="opacity:1" fill="#ae8196" d="M 249.5,282.5 C 257.023,282.085 261.69,285.418 263.5,292.5C 262.167,291.167 260.833,289.833 259.5,288.5C 255.495,287.502 252.161,285.502 249.5,282.5 Z"/></g>
<g><path style="opacity:1" fill="#ba849a" d="M 213.5,284.5 C 212.5,285.167 211.5,285.833 210.5,286.5C 206.103,287.198 202.436,289.198 199.5,292.5C 198.833,292.5 198.167,292.5 197.5,292.5C 199.628,289.87 201.961,287.37 204.5,285C 207.482,284.502 210.482,284.335 213.5,284.5 Z"/></g>
<g><path style="opacity:0.918" fill="#94a3b6" d="M 210.5,286.5 C 211.167,286.5 211.833,286.5 212.5,286.5C 208.089,288.541 203.756,290.875 199.5,293.5C 199.5,293.167 199.5,292.833 199.5,292.5C 202.436,289.198 206.103,287.198 210.5,286.5 Z"/></g>
<g><path style="opacity:0.886" fill="#8f8195" d="M 259.5,288.5 C 260.833,289.833 262.167,291.167 263.5,292.5C 265.736,296.294 269.069,298.627 273.5,299.5C 273.5,299.833 273.5,300.167 273.5,300.5C 272.833,300.5 272.167,300.5 271.5,300.5C 265.167,298.833 261.167,294.833 259.5,288.5 Z"/></g>
<g><path style="opacity:1" fill="#9a7e90" d="M 197.5,292.5 C 198.167,292.5 198.833,292.5 199.5,292.5C 199.5,292.833 199.5,293.167 199.5,293.5C 197.599,295.796 195.266,297.629 192.5,299C 185.011,299.775 177.678,301.275 170.5,303.5C 173.167,302.167 175.833,300.833 178.5,299.5C 182.9,297.949 187.566,297.116 192.5,297C 194.037,295.293 195.704,293.793 197.5,292.5 Z"/></g>
<g><path style="opacity:1" fill="#b0879e" d="M 526.5,298.5 C 521.384,299.806 516.051,300.473 510.5,300.5C 508.585,300.784 506.919,300.451 505.5,299.5C 512.13,298.505 518.797,297.838 525.5,297.5C 525.337,295.143 525.503,292.81 526,290.5C 526.497,293.146 526.664,295.813 526.5,298.5 Z"/></g>
<g><path style="opacity:1" fill="#bb8299" d="M 178.5,299.5 C 175.833,300.833 173.167,302.167 170.5,303.5C 168.139,303.674 165.806,304.007 163.5,304.5C 163.5,306.167 163.5,307.833 163.5,309.5C 163.5,310.167 163.5,310.833 163.5,311.5C 162.833,312.5 162.167,313.5 161.5,314.5C 161.207,310.563 161.54,306.73 162.5,303C 167.779,301.513 173.112,300.347 178.5,299.5 Z"/></g>
<g><path style="opacity:0.824" fill="#8f8494" d="M 89.5,296.5 C 90.1667,297.167 90.8333,297.833 91.5,298.5C 92.1667,300.5 92.8333,302.5 93.5,304.5C 93.7475,307.854 94.7475,310.854 96.5,313.5C 96.393,315.903 97.393,317.736 99.5,319C 102.662,320.027 105.662,321.194 108.5,322.5C 111.464,323.808 113.797,325.808 115.5,328.5C 108.649,325.49 102.149,321.824 96,317.5C 93.1235,310.705 90.9568,303.705 89.5,296.5 Z"/></g>
<g><path style="opacity:1" fill="#a27085" d="M 273.5,300.5 C 273.5,300.167 273.5,299.833 273.5,299.5C 275.144,299.286 276.644,299.62 278,300.5C 279.033,308.996 278.533,317.33 276.5,325.5C 276.167,325.5 275.833,325.5 275.5,325.5C 275.366,323.708 275.699,322.042 276.5,320.5C 277.817,314.322 277.817,307.988 276.5,301.5C 275.583,300.873 274.583,300.539 273.5,300.5 Z"/></g>
<g><path style="opacity:1" fill="#c1a8b5" d="M 170.5,303.5 C 167.98,305.263 165.647,307.263 163.5,309.5C 163.5,307.833 163.5,306.167 163.5,304.5C 165.806,304.007 168.139,303.674 170.5,303.5 Z"/></g>
<g><path style="opacity:1" fill="#b78197" d="M 93.5,304.5 C 94.4584,304.953 95.2917,305.619 96,306.5C 96.4966,308.81 96.6633,311.143 96.5,313.5C 94.7475,310.854 93.7475,307.854 93.5,304.5 Z"/></g>
<g><path style="opacity:0.931" fill="#b28aa1" d="M 505.5,299.5 C 506.919,300.451 508.585,300.784 510.5,300.5C 508.052,301.473 505.385,301.806 502.5,301.5C 501.258,309.473 499.258,317.14 496.5,324.5C 497.674,316.456 499.174,308.456 501,300.5C 502.356,299.62 503.856,299.286 505.5,299.5 Z"/></g>
<g><path style="opacity:0.203" fill="#8c99ab" d="M 271.5,300.5 C 272.167,300.5 272.833,300.5 273.5,300.5C 274.583,300.539 275.583,300.873 276.5,301.5C 277.817,307.988 277.817,314.322 276.5,320.5C 276.666,315.489 276.499,310.489 276,305.5C 275.257,303.068 273.757,301.401 271.5,300.5 Z"/></g>
<g><path style="opacity:1" fill="#b6889e" d="M 496.5,324.5 C 496.714,326.144 496.38,327.644 495.5,329C 488.624,331.521 481.624,333.188 474.5,334C 470.984,330.651 467.651,327.151 464.5,323.5C 455.19,322.502 445.857,322.168 436.5,322.5C 436.167,322.5 435.833,322.5 435.5,322.5C 439.951,321.173 444.784,320.506 450,320.5C 454.833,320.667 459.667,320.833 464.5,321C 468.348,325.016 472.348,328.849 476.5,332.5C 482.724,330.361 489.057,328.694 495.5,327.5C 495.263,326.209 495.596,325.209 496.5,324.5 Z"/></g>
<g><path style="opacity:1" fill="#b58197" d="M 108.5,322.5 C 111.785,322.736 114.785,323.736 117.5,325.5C 119,327.833 120.5,330.167 122,332.5C 122.877,334.674 122.377,336.341 120.5,337.5C 120.784,335.585 120.451,333.919 119.5,332.5C 118.662,332.158 118.328,331.492 118.5,330.5C 118.027,329.094 117.027,328.427 115.5,328.5C 113.797,325.808 111.464,323.808 108.5,322.5 Z"/></g>
<g><path style="opacity:0.812" fill="#8d9dae" d="M 115.5,328.5 C 117.027,328.427 118.027,329.094 118.5,330.5C 116.973,330.573 115.973,329.906 115.5,328.5 Z"/></g>
<g><path style="opacity:1" fill="#deb7c6" d="M 226.5,329.5 C 232.509,329.334 238.509,329.501 244.5,330C 249.084,331.075 251.084,333.908 250.5,338.5C 249.539,340.265 249.205,342.265 249.5,344.5C 246.428,344.183 243.428,344.516 240.5,345.5C 239.37,346.622 238.703,347.956 238.5,349.5C 237.163,350.315 236.163,351.482 235.5,353C 234.552,353.483 233.552,353.649 232.5,353.5C 229.102,353.18 225.768,353.513 222.5,354.5C 221.544,356.075 220.877,357.742 220.5,359.5C 219.229,361.934 217.229,363.434 214.5,364C 208.608,365.143 202.775,365.31 197,364.5C 195.361,360.722 193.861,356.889 192.5,353C 193.864,349.773 195.364,346.606 197,343.5C 198.451,341.536 200.284,340.203 202.5,339.5C 208.446,339.196 213.779,337.196 218.5,333.5C 221.485,332.674 224.151,331.341 226.5,329.5 Z"/></g>
<g><path style="opacity:0.992" fill="#948294" d="M 226.5,329.5 C 224.151,331.341 221.485,332.674 218.5,333.5C 217.833,333.5 217.167,333.5 216.5,333.5C 216.5,333.167 216.5,332.833 216.5,332.5C 219.381,330.32 222.714,329.32 226.5,329.5 Z"/></g>
<g><path style="opacity:0.889" fill="#857382" d="M 275.5,326.5 C 275.5,331.167 275.5,335.833 275.5,340.5C 273.455,335.762 273.455,331.096 275.5,326.5 Z"/></g>
<g><path style="opacity:0.98" fill="#939dae" d="M 216.5,332.5 C 216.5,332.833 216.5,333.167 216.5,333.5C 212.878,335.978 208.878,337.311 204.5,337.5C 208.111,335.069 212.111,333.403 216.5,332.5 Z"/></g>
<g><path style="opacity:1" fill="#ad8ea4" d="M 435.5,322.5 C 435.833,322.5 436.167,322.5 436.5,322.5C 434.245,328.177 431.578,333.677 428.5,339C 421.716,338.808 415.05,337.641 408.5,335.5C 407.833,335.833 407.167,336.167 406.5,336.5C 402.833,344.5 399.167,352.5 395.5,360.5C 394.833,360.833 394.167,361.167 393.5,361.5C 385.176,358.335 377.176,354.668 369.5,350.5C 369.5,350.167 369.5,349.833 369.5,349.5C 377.215,352.296 384.882,355.296 392.5,358.5C 393.167,358.167 393.833,357.833 394.5,357.5C 398.038,349.591 401.705,341.758 405.5,334C 412.687,334.378 419.687,335.878 426.5,338.5C 429.527,333.104 432.527,327.771 435.5,322.5 Z"/></g>
<g><path style="opacity:1" fill="#947a8e" d="M 163.5,311.5 C 163.628,313.655 163.128,315.655 162,317.5C 158.213,322.956 154.046,328.123 149.5,333C 150.5,334 151.5,335 152.5,336C 150.808,340.745 149.308,345.579 148,350.5C 146.549,352.464 144.716,353.797 142.5,354.5C 148.582,348.111 150.416,340.778 148,332.5C 149,330.5 150,328.5 151,326.5C 155.448,323.226 158.948,319.226 161.5,314.5C 162.167,313.5 162.833,312.5 163.5,311.5 Z"/></g>
<g><path style="opacity:1" fill="#b47d93" d="M 216.5,333.5 C 217.167,333.5 217.833,333.5 218.5,333.5C 213.779,337.196 208.446,339.196 202.5,339.5C 203.167,338.833 203.833,338.167 204.5,337.5C 208.878,337.311 212.878,335.978 216.5,333.5 Z"/></g>
<g><path style="opacity:0.937" fill="#aad9fe" d="M 326.5,336.5 C 331.267,337.088 334.434,339.755 336,344.5C 339.94,355.321 343.274,366.321 346,377.5C 347.485,386.378 344.985,393.878 338.5,400C 334.414,402.066 330.747,401.399 327.5,398C 320.717,391.597 315.55,384.097 312,375.5C 311.72,366.756 312.386,358.09 314,349.5C 317.025,343.977 321.191,339.644 326.5,336.5 Z"/></g>
<g><path style="opacity:0.988" fill="#8b7686" d="M 119.5,332.5 C 120.451,333.919 120.784,335.585 120.5,337.5C 122.095,342.452 123.595,347.452 125,352.5C 126.621,356.491 129.454,358.324 133.5,358C 136.521,356.82 139.521,355.654 142.5,354.5C 139.12,358.522 134.787,360.355 129.5,360C 126.238,357.408 123.738,354.241 122,350.5C 120.05,344.679 119.217,338.679 119.5,332.5 Z"/></g>
<g><path style="opacity:0.224" fill="#887482" d="M 226.5,329.5 C 232.653,328.347 238.986,328.18 245.5,329C 250.808,330.315 252.808,333.648 251.5,339C 251.496,341.361 251.163,343.527 250.5,345.5C 250.5,343.167 250.5,340.833 250.5,338.5C 251.084,333.908 249.084,331.075 244.5,330C 238.509,329.501 232.509,329.334 226.5,329.5 Z"/></g>
<g><path style="opacity:1" fill="#b57d94" d="M 250.5,338.5 C 250.5,340.833 250.5,343.167 250.5,345.5C 248.735,346.461 246.735,346.795 244.5,346.5C 242.053,346.615 240.053,347.615 238.5,349.5C 238.703,347.956 239.37,346.622 240.5,345.5C 243.428,344.516 246.428,344.183 249.5,344.5C 249.205,342.265 249.539,340.265 250.5,338.5 Z"/></g>
<g><path style="opacity:1" fill="#b18ba1" d="M 369.5,349.5 C 369.5,349.833 369.5,350.167 369.5,350.5C 367.902,352.857 366.902,355.523 366.5,358.5C 365.833,361.167 365.167,363.833 364.5,366.5C 364.502,360.477 364.835,354.477 365.5,348.5C 367.099,348.232 368.432,348.566 369.5,349.5 Z"/></g>
<g><path style="opacity:0.992" fill="#8e7e8f" d="M 244.5,346.5 C 240.548,352.152 235.215,355.152 228.5,355.5C 229.833,354.833 231.167,354.167 232.5,353.5C 233.552,353.649 234.552,353.483 235.5,353C 236.163,351.482 237.163,350.315 238.5,349.5C 240.053,347.615 242.053,346.615 244.5,346.5 Z"/></g>
<g><path style="opacity:1" fill="#96788a" d="M 204.5,337.5 C 203.833,338.167 203.167,338.833 202.5,339.5C 200.284,340.203 198.451,341.536 197,343.5C 195.364,346.606 193.864,349.773 192.5,353C 193.861,356.889 195.361,360.722 197,364.5C 202.775,365.31 208.608,365.143 214.5,364C 217.229,363.434 219.229,361.934 220.5,359.5C 221.167,359.5 221.833,359.5 222.5,359.5C 220.064,363.604 216.397,365.771 211.5,366C 206.5,366.667 201.5,366.667 196.5,366C 192.67,361.177 190.837,355.677 191,349.5C 193.955,345.756 196.789,341.922 199.5,338C 201.134,337.506 202.801,337.34 204.5,337.5 Z"/></g>
<g><path style="opacity:1" fill="#ba8098" d="M 232.5,353.5 C 231.167,354.167 229.833,354.833 228.5,355.5C 228.167,355.5 227.833,355.5 227.5,355.5C 224.454,355.183 222.787,356.516 222.5,359.5C 221.833,359.5 221.167,359.5 220.5,359.5C 220.877,357.742 221.544,356.075 222.5,354.5C 225.768,353.513 229.102,353.18 232.5,353.5 Z"/></g>
<g><path style="opacity:0.333" fill="#9f949f" d="M 227.5,355.5 C 226.055,357.063 224.389,358.396 222.5,359.5C 222.787,356.516 224.454,355.183 227.5,355.5 Z"/></g>
<g><path style="opacity:1" fill="#ab8194" d="M 275.5,325.5 C 275.833,325.5 276.167,325.5 276.5,325.5C 276.022,334.138 276.689,342.638 278.5,351C 276.912,358.313 274.578,365.313 271.5,372C 268.105,374.88 264.771,375.047 261.5,372.5C 262.5,372.5 263.5,372.5 264.5,372.5C 265.708,371.766 267.041,371.433 268.5,371.5C 268.263,370.209 268.596,369.209 269.5,368.5C 271.572,366.65 272.905,364.317 273.5,361.5C 275.04,359.162 275.706,356.495 275.5,353.5C 275.5,349.167 275.5,344.833 275.5,340.5C 275.5,335.833 275.5,331.167 275.5,326.5C 275.5,326.167 275.5,325.833 275.5,325.5 Z"/></g>
<g><path style="opacity:0.992" fill="#8c95a6" d="M 275.5,353.5 C 275.706,356.495 275.04,359.162 273.5,361.5C 273.5,360.833 273.5,360.167 273.5,359.5C 273.595,357.214 274.262,355.214 275.5,353.5 Z"/></g>
<g><path style="opacity:0.553" fill="#a2cdef" d="M 273.5,359.5 C 273.5,360.167 273.5,360.833 273.5,361.5C 272.905,364.317 271.572,366.65 269.5,368.5C 270.463,365.256 271.796,362.256 273.5,359.5 Z"/></g>
<g><path style="opacity:0.051" fill="#87b3c4" d="M 366.5,358.5 C 366.313,363.845 365.98,369.178 365.5,374.5C 364.527,372.052 364.194,369.385 364.5,366.5C 365.167,363.833 365.833,361.167 366.5,358.5 Z"/></g>
<g><path style="opacity:0.992" fill="#897484" d="M 264.5,372.5 C 263.5,372.5 262.5,372.5 261.5,372.5C 255.293,373.099 249.293,374.599 243.5,377C 242.101,378.062 241.101,379.395 240.5,381C 241.406,383.791 242.073,386.624 242.5,389.5C 239.191,385.187 238.858,380.687 241.5,376C 245.5,374.667 249.5,373.333 253.5,372C 257.358,371.19 261.024,371.357 264.5,372.5 Z"/></g>
<g><path style="opacity:1" fill="#bb889d" d="M 263.5,415.5 C 263.833,414.833 264.167,414.167 264.5,413.5C 264.833,413.5 265.167,413.5 265.5,413.5C 267.749,412.92 269.415,411.587 270.5,409.5C 270.38,407.266 270.713,405.099 271.5,403C 271.022,401.697 270.355,400.531 269.5,399.5C 265.537,394.401 260.537,392.734 254.5,394.5C 252.833,394.5 251.167,394.5 249.5,394.5C 254.085,391.81 259.085,390.644 264.5,391C 268,394.5 271.5,398 275,401.5C 275.667,402.833 275.667,404.167 275,405.5C 273.333,408.167 271.667,410.833 270,413.5C 267.913,414.397 265.746,415.064 263.5,415.5 Z"/></g>
<g><path style="opacity:0.89" fill="#b17c92" d="M 242.5,389.5 C 244.117,391.121 245.284,393.121 246,395.5C 247.011,394.663 248.178,394.33 249.5,394.5C 248.105,396.3 246.439,396.634 244.5,395.5C 243.253,393.677 242.586,391.677 242.5,389.5 Z"/></g>
<g><path style="opacity:0.737" fill="#919aaa" d="M 254.5,394.5 C 260.537,392.734 265.537,394.401 269.5,399.5C 265.13,396.216 260.13,394.549 254.5,394.5 Z"/></g>
<g><path style="opacity:0.958" fill="#b18aa0" d="M 364.5,366.5 C 364.194,369.385 364.527,372.052 365.5,374.5C 366.379,376.228 367.046,378.061 367.5,380C 365.935,385.528 364.269,391.028 362.5,396.5C 363.4,398.239 364.067,400.072 364.5,402C 362.938,407.412 361.938,412.912 361.5,418.5C 360.189,413.389 360.522,408.222 362.5,403C 362.166,400.825 361.166,398.992 359.5,397.5C 361.699,391.568 363.699,385.568 365.5,379.5C 363.456,375.152 363.123,370.818 364.5,366.5 Z"/></g>
<g><path style="opacity:0.773" fill="#948b97" d="M 270.5,409.5 C 269.415,411.587 267.749,412.92 265.5,413.5C 266.585,411.413 268.251,410.08 270.5,409.5 Z"/></g>
<g><path style="opacity:1" fill="#b47c93" d="M 344.5,433.5 C 343.833,433.5 343.167,433.5 342.5,433.5C 337.748,430.251 332.415,428.584 326.5,428.5C 325.5,428.5 324.5,428.5 323.5,428.5C 316.424,428.641 314.424,431.975 317.5,438.5C 317.5,439.833 317.5,441.167 317.5,442.5C 317.167,442.5 316.833,442.5 316.5,442.5C 315.751,438.181 315.585,433.848 316,429.5C 317.419,428.54 318.919,427.707 320.5,427C 326.564,426.509 332.564,427.009 338.5,428.5C 341.117,429.374 343.117,431.04 344.5,433.5 Z"/></g>
<g><path style="opacity:1" fill="#a89aa8" d="M 323.5,428.5 C 322.22,429.931 320.553,430.598 318.5,430.5C 318.806,433.385 318.473,436.052 317.5,438.5C 314.424,431.975 316.424,428.641 323.5,428.5 Z"/></g>
<g><path style="opacity:0.914" fill="#929cae" d="M 326.5,428.5 C 332.415,428.584 337.748,430.251 342.5,433.5C 343.925,434.922 344.925,436.589 345.5,438.5C 340.319,432.891 333.985,429.557 326.5,428.5 Z"/></g>
<g><path style="opacity:0.988" fill="#8b7b8d" d="M 264.5,413.5 C 264.167,414.167 263.833,414.833 263.5,415.5C 258.408,417.591 255.075,421.257 253.5,426.5C 253.347,434.226 256.68,439.559 263.5,442.5C 263.833,443.167 264.167,443.833 264.5,444.5C 256.346,441.885 252.346,436.218 252.5,427.5C 253.199,420.126 257.199,415.459 264.5,413.5 Z"/></g>
<g><path style="opacity:0.996" fill="#9b7a8d" d="M 362.5,420.5 C 365.119,423.734 366.619,427.4 367,431.5C 360.811,436.61 353.644,438.943 345.5,438.5C 344.925,436.589 343.925,434.922 342.5,433.5C 343.167,433.5 343.833,433.5 344.5,433.5C 344.953,434.458 345.619,435.292 346.5,436C 353.945,437.056 360.279,434.889 365.5,429.5C 364.199,426.573 363.199,423.573 362.5,420.5 Z"/></g>
<g><path style="opacity:1" fill="#b47f94" d="M 263.5,442.5 C 269.864,442.1 274.197,444.767 276.5,450.5C 275.833,450.5 275.167,450.5 274.5,450.5C 272.955,447.056 270.289,445.056 266.5,444.5C 265.833,444.5 265.167,444.5 264.5,444.5C 264.167,443.833 263.833,443.167 263.5,442.5 Z"/></g>
<g><path style="opacity:0.827" fill="#9599a9" d="M 266.5,444.5 C 270.289,445.056 272.955,447.056 274.5,450.5C 271.467,448.984 268.8,446.984 266.5,444.5 Z"/></g>
<g><path style="opacity:0.459" fill="#908c97" d="M 316.5,442.5 C 316.833,442.5 317.167,442.5 317.5,442.5C 317.445,445.614 316.112,447.948 313.5,449.5C 314.758,447.313 315.758,444.98 316.5,442.5 Z"/></g>
<g><path style="opacity:0.451" fill="#8d6f7e" d="M 311.5,450.5 C 306.685,454.908 301.018,457.075 294.5,457C 293.944,456.617 293.611,456.117 293.5,455.5C 294.167,455.5 294.833,455.5 295.5,455.5C 295.735,456.097 296.235,456.43 297,456.5C 301.817,454.396 306.65,452.396 311.5,450.5 Z"/></g>
<g><path style="opacity:0.486" fill="#89768c" d="M 274.5,450.5 C 275.167,450.5 275.833,450.5 276.5,450.5C 277.605,451.6 278.938,452.267 280.5,452.5C 281.833,453.167 283.167,453.833 284.5,454.5C 280.116,455.424 276.782,454.091 274.5,450.5 Z"/></g>
<g><path style="opacity:1" fill="#b37f95" d="M 280.5,452.5 C 284.846,452.334 289.179,452.501 293.5,453C 294.381,453.708 295.047,454.542 295.5,455.5C 294.833,455.5 294.167,455.5 293.5,455.5C 290.518,455.037 287.518,454.704 284.5,454.5C 283.167,453.833 281.833,453.167 280.5,452.5 Z"/></g>
</svg>
