<?xml version="1.0" encoding="UTF-8"?>
<!DOCTYPE svg PUBLIC "-//W3C//DTD SVG 1.1//EN" "http://www.w3.org/Graphics/SVG/1.1/DTD/svg11.dtd">
<svg xmlns="http://www.w3.org/2000/svg" version="1.1" width="760px" height="365px" style="shape-rendering:geometricPrecision; text-rendering:geometricPrecision; image-rendering:optimizeQuality; fill-rule:evenodd; clip-rule:evenodd" xmlns:xlink="http://www.w3.org/1999/xlink">
<g><path style="opacity:1" fill="#dcefc0" d="M 693.5,-0.5 C 698.5,-0.5 703.5,-0.5 708.5,-0.5C 708.414,0.495904 708.748,1.32924 709.5,2C 714.109,4.3133 718.609,6.8133 723,9.5C 723.787,15.1737 724.62,20.8404 725.5,26.5C 720.123,40.2923 715.123,54.2923 710.5,68.5C 717.244,71.5175 723.91,74.5175 730.5,77.5C 732.435,81.8949 733.769,86.5615 734.5,91.5C 734.66,93.1992 734.494,94.8659 734,96.5C 729.333,101.833 724.667,107.167 720,112.5C 718.888,118.887 717.055,125.054 714.5,131C 714.684,132.376 715.351,133.209 716.5,133.5C 723.596,141.089 731.262,148.255 739.5,155C 741.79,156.777 743.457,158.944 744.5,161.5C 738.888,162.314 733.388,163.647 728,165.5C 726.181,167.126 724.848,169.126 724,171.5C 721.678,177.791 719.511,184.124 717.5,190.5C 719.988,197.098 721.654,203.931 722.5,211C 720.623,216.599 717.623,221.432 713.5,225.5C 709.906,224.181 706.239,223.681 702.5,224C 696.591,231.153 690.925,238.486 685.5,246C 679.207,245.51 672.874,245.01 666.5,244.5C 658.467,245.004 650.467,245.837 642.5,247C 638.833,250.667 635.167,254.333 631.5,258C 630.333,258.167 629.167,258.333 628,258.5C 620.551,257.215 613.051,256.548 605.5,256.5C 604.809,261.598 603.642,266.598 602,271.5C 596.974,279.551 592.474,287.885 588.5,296.5C 590.557,301.615 592.891,306.615 595.5,311.5C 595.167,311.833 594.833,312.167 594.5,312.5C 583.274,309.621 572.274,310.455 561.5,315C 556.511,315.499 551.511,315.666 546.5,315.5C 547.1,325.838 547.767,336.171 548.5,346.5C 538.428,348.635 528.428,348.968 518.5,347.5C 517.671,344.185 516.838,340.852 516,337.5C 514.989,336.663 513.822,336.33 512.5,336.5C 500.597,334.015 488.597,332.515 476.5,332C 473.833,334.667 471.167,337.333 468.5,340C 460.5,341 452.5,342 444.5,343C 443.601,344.236 442.434,345.07 441,345.5C 437.598,344.274 434.098,343.607 430.5,343.5C 425.257,338.866 419.59,334.699 413.5,331C 410.518,330.502 407.518,330.335 404.5,330.5C 402.828,322.811 400.995,315.144 399,307.5C 393.167,303.667 387.333,299.833 381.5,296C 380.216,295.316 379.049,295.483 378,296.5C 375.198,302.414 372.698,308.414 370.5,314.5C 369.067,316.519 367.733,318.686 366.5,321C 362.833,321.667 359.167,321.667 355.5,321C 353.167,318.667 350.833,316.333 348.5,314C 340.457,313.671 332.457,314.171 324.5,315.5C 324.832,304.813 324.499,294.146 323.5,283.5C 319.281,281.224 314.948,279.224 310.5,277.5C 306.383,279.309 302.216,280.976 298,282.5C 293.108,281.203 288.275,279.703 283.5,278C 280.961,277.204 278.628,277.371 276.5,278.5C 268.394,279.359 260.394,280.859 252.5,283C 251.5,284 250.5,285 249.5,286C 240.852,287.258 232.185,287.925 223.5,288C 220.593,282.287 218.259,276.287 216.5,270C 209.272,265.891 201.605,262.558 193.5,260C 188.593,259.632 183.76,260.132 179,261.5C 172.162,260.708 165.328,259.874 158.5,259C 157.056,257.874 156.39,256.374 156.5,254.5C 157.785,246.79 159.285,239.123 161,231.5C 161.777,228.571 161.61,225.737 160.5,223C 151.958,220.361 143.292,218.695 134.5,218C 130.275,221.896 125.775,225.396 121,228.5C 111.772,224.136 102.605,219.636 93.5,215C 90.4368,215.043 87.4368,215.377 84.5,216C 77.9669,211.239 71.3002,206.739 64.5,202.5C 61.7213,203.389 59.0546,204.556 56.5,206C 52.1667,210.333 47.8333,214.667 43.5,219C 39.5,219.667 35.5,219.667 31.5,219C 30.1666,216.809 28.5,214.976 26.5,213.5C 22.3838,207.544 18.0505,201.711 13.5,196C 8.84641,194.393 4.17975,192.893 -0.5,191.5C -0.5,188.833 -0.5,186.167 -0.5,183.5C 0.776331,181.438 1.60966,179.104 2,176.5C 3.69946,175.594 5.5328,175.261 7.5,175.5C 7.83333,175.5 8.16667,175.5 8.5,175.5C 12.5698,177.605 16.9031,177.938 21.5,176.5C 23.509,173.804 25.509,171.137 27.5,168.5C 28.8195,167.058 30.4862,166.392 32.5,166.5C 39.9205,168.091 45.9205,166.091 50.5,160.5C 54.2137,157.929 58.2137,155.929 62.5,154.5C 67.5111,154.666 72.5111,154.499 77.5,154C 80.5718,149.353 83.2385,144.52 85.5,139.5C 86.2026,137.284 87.5359,135.451 89.5,134C 96.2324,127.267 103.899,125.767 112.5,129.5C 114.164,130.999 116.164,131.999 118.5,132.5C 122.271,131.135 125.937,129.802 129.5,128.5C 129.833,128.5 130.167,128.5 130.5,128.5C 135.874,128.477 141.207,127.977 146.5,127C 151.021,122.978 155.688,119.144 160.5,115.5C 161.938,110.903 161.605,106.57 159.5,102.5C 158.658,97.9494 159.992,94.2827 163.5,91.5C 163.842,90.6618 164.508,90.3284 165.5,90.5C 173.496,88.1023 181.496,88.269 189.5,91C 192.621,92.3063 195.287,94.1397 197.5,96.5C 201.007,102.001 206.007,104.334 212.5,103.5C 214.05,104.441 215.716,105.107 217.5,105.5C 219.167,106.5 220.5,107.833 221.5,109.5C 221.427,111.027 222.094,112.027 223.5,112.5C 223.614,115.85 223.947,119.183 224.5,122.5C 224.558,125.078 223.891,127.411 222.5,129.5C 219.301,131.978 218.801,134.978 221,138.5C 221.333,146.5 221.667,154.5 222,162.5C 222.608,164.066 223.442,165.4 224.5,166.5C 225.429,170.284 226.762,173.951 228.5,177.5C 233,180.585 237.667,183.418 242.5,186C 246.239,186.319 249.906,185.819 253.5,184.5C 256.028,185.942 258.695,186.442 261.5,186C 264.118,183.894 266.118,181.394 267.5,178.5C 269.404,178.262 270.738,177.262 271.5,175.5C 276.88,174.005 282.213,174.172 287.5,176C 294.416,180.945 301.083,186.111 307.5,191.5C 308.087,193.755 309.42,195.421 311.5,196.5C 317.351,198.633 323.351,199.466 329.5,199C 334.784,193.562 339.45,187.728 343.5,181.5C 343.5,180.833 343.5,180.167 343.5,179.5C 345.262,178.738 346.262,177.404 346.5,175.5C 346.833,174.5 347.5,173.833 348.5,173.5C 351.268,171.913 353.935,170.08 356.5,168C 359.096,166.864 361.763,166.031 364.5,165.5C 373.331,164.948 381.331,162.282 388.5,157.5C 390.19,155.658 392.19,154.325 394.5,153.5C 400.992,152.085 405.992,154.085 409.5,159.5C 410.556,164.023 412.556,168.023 415.5,171.5C 419.94,166.722 423.607,161.388 426.5,155.5C 428.931,150.57 432.765,147.236 438,145.5C 439.833,145.519 441.333,146.185 442.5,147.5C 442.5,148.167 442.5,148.833 442.5,149.5C 442.779,152.118 443.446,154.618 444.5,157C 450.167,160.667 455.833,164.333 461.5,168C 463.833,168.667 466.167,168.667 468.5,168C 471.333,165.167 474.167,162.333 477,159.5C 477.83,154.192 478.33,148.859 478.5,143.5C 480.191,135.691 481.524,127.691 482.5,119.5C 485.491,117.583 488.824,116.583 492.5,116.5C 496.142,115.92 499.809,115.42 503.5,115C 506.211,111.078 509.045,107.244 512,103.5C 512.319,98.4325 511.819,93.4325 510.5,88.5C 509.5,88.5 508.5,88.5 507.5,88.5C 507.5,85.8333 507.5,83.1667 507.5,80.5C 507.517,78.4352 507.85,76.4352 508.5,74.5C 510.013,71.1605 512.679,69.4939 516.5,69.5C 519.801,71.6498 523.468,72.4831 527.5,72C 528.305,70.8873 528.972,69.7206 529.5,68.5C 532.765,67.5398 536.098,67.5398 539.5,68.5C 540.263,69.2679 541.263,69.7679 542.5,70C 549.5,70.6667 556.5,70.6667 563.5,70C 564.71,68.9609 565.71,67.7942 566.5,66.5C 572.12,63.9741 577.453,60.9741 582.5,57.5C 585.789,56.6261 589.123,55.9595 592.5,55.5C 600.239,58.9393 607.239,57.9393 613.5,52.5C 615.833,52.5 618.167,52.5 620.5,52.5C 620.611,53.1174 620.944,53.6174 621.5,54C 623.5,54.6667 625.5,54.6667 627.5,54C 630.002,50.6675 632.668,47.5008 635.5,44.5C 635.973,43.0937 636.973,42.427 638.5,42.5C 644.819,42.0799 651.153,41.7466 657.5,41.5C 659.711,38.2444 662.045,35.0777 664.5,32C 667.833,31.6667 671.167,31.3333 674.5,31C 679.667,25.8333 684.833,20.6667 690,15.5C 690.996,11.1843 691.83,6.85092 692.5,2.5C 692.557,1.39105 692.89,0.391047 693.5,-0.5 Z"/></g>
<g><path style="opacity:1" fill="#b2cb90" d="M 692.5,2.5 C 691.83,6.85092 690.996,11.1843 690,15.5C 684.833,20.6667 679.667,25.8333 674.5,31C 671.167,31.3333 667.833,31.6667 664.5,32C 662.045,35.0777 659.711,38.2444 657.5,41.5C 651.153,41.7466 644.819,42.0799 638.5,42.5C 638.611,41.8826 638.944,41.3826 639.5,41C 644.951,40.7563 650.284,39.923 655.5,38.5C 658.833,37.1667 661.167,34.8333 662.5,31.5C 664.421,30.6373 666.421,29.9707 668.5,29.5C 673.458,28.6039 677.624,26.2706 681,22.5C 683,19.8333 685,17.1667 687,14.5C 688.609,10.29 690.442,6.29004 692.5,2.5 Z"/></g>
<g><path style="opacity:0.847" fill="#91a8b1" d="M 691.5,-0.5 C 692.167,-0.5 692.833,-0.5 693.5,-0.5C 692.89,0.391047 692.557,1.39105 692.5,2.5C 690.442,6.29004 688.609,10.29 687,14.5C 685,17.1667 683,19.8333 681,22.5C 677.624,26.2706 673.458,28.6039 668.5,29.5C 672.154,26.6964 675.987,24.0297 680,21.5C 685.245,14.9532 689.078,7.61982 691.5,-0.5 Z"/></g>
<g><path style="opacity:0.969" fill="#8da4ad" d="M 662.5,31.5 C 661.167,34.8333 658.833,37.1667 655.5,38.5C 657.5,35.8333 659.833,33.5 662.5,31.5 Z"/></g>
<g><path style="opacity:1" fill="#b4d293" d="M 708.5,-0.5 C 709.5,-0.5 710.5,-0.5 711.5,-0.5C 715.676,2.8487 720.176,5.8487 725,8.5C 725.88,14.4936 726.713,20.4936 727.5,26.5C 722.283,39.4776 717.616,52.8109 713.5,66.5C 712.226,67.1894 712.226,68.0228 713.5,69C 718.5,70.6667 723.5,72.3333 728.5,74C 729.973,74.7096 730.64,75.8762 730.5,77.5C 723.91,74.5175 717.244,71.5175 710.5,68.5C 715.123,54.2923 720.123,40.2923 725.5,26.5C 724.62,20.8404 723.787,15.1737 723,9.5C 718.609,6.8133 714.109,4.3133 709.5,2C 708.748,1.32924 708.414,0.495904 708.5,-0.5 Z"/></g>
<g><path style="opacity:0.925" fill="#849796" d="M 628.5,50.5 C 628.389,51.1174 628.056,51.6174 627.5,52C 625.19,52.4966 622.857,52.6633 620.5,52.5C 618.167,52.5 615.833,52.5 613.5,52.5C 618.363,51.7344 623.363,51.0678 628.5,50.5 Z"/></g>
<g><path style="opacity:1" fill="#a7bf86" d="M 635.5,44.5 C 632.668,47.5008 630.002,50.6675 627.5,54C 625.5,54.6667 623.5,54.6667 621.5,54C 620.944,53.6174 620.611,53.1174 620.5,52.5C 622.857,52.6633 625.19,52.4966 627.5,52C 628.056,51.6174 628.389,51.1174 628.5,50.5C 630.239,47.7573 632.573,45.7573 635.5,44.5 Z"/></g>
<g><path style="opacity:0.102" fill="#889786" d="M 600.5,55.5 C 597.833,55.5 595.167,55.5 592.5,55.5C 589.123,55.9595 585.789,56.6261 582.5,57.5C 588.294,53.7973 594.294,53.1307 600.5,55.5 Z"/></g>
<g><path style="opacity:0.835" fill="#939f93" d="M 609.5,53.5 C 607.22,55.2227 604.553,55.8893 601.5,55.5C 603.961,54.469 606.627,53.8023 609.5,53.5 Z"/></g>
<g><path style="opacity:1" fill="#afc98c" d="M 613.5,52.5 C 607.239,57.9393 600.239,58.9393 592.5,55.5C 595.167,55.5 597.833,55.5 600.5,55.5C 600.833,55.5 601.167,55.5 601.5,55.5C 604.553,55.8893 607.22,55.2227 609.5,53.5C 610.568,52.5655 611.901,52.2322 613.5,52.5 Z"/></g>
<g><path style="opacity:0.839" fill="#8fa284" d="M 582.5,57.5 C 577.453,60.9741 572.12,63.9741 566.5,66.5C 565.833,66.5 565.167,66.5 564.5,66.5C 570.005,62.6996 576.005,59.6996 582.5,57.5 Z"/></g>
<g><path style="opacity:0.82" fill="#84957e" d="M 537.5,66.5 C 539.5,67.1667 541.5,67.8333 543.5,68.5C 542.167,68.5 540.833,68.5 539.5,68.5C 536.098,67.5398 532.765,67.5398 529.5,68.5C 527.883,69.038 526.216,69.3713 524.5,69.5C 528.31,66.8393 532.644,65.8393 537.5,66.5 Z"/></g>
<g><path style="opacity:0.933" fill="#8ba4b5" d="M 537.5,66.5 C 545.483,67.1655 553.483,67.4988 561.5,67.5C 555.69,68.4896 549.69,68.8229 543.5,68.5C 541.5,67.8333 539.5,67.1667 537.5,66.5 Z"/></g>
<g><path style="opacity:1" fill="#8ea19a" d="M 518.5,69.5 C 517.833,69.5 517.167,69.5 516.5,69.5C 512.679,69.4939 510.013,71.1605 508.5,74.5C 508.383,72.5165 509.05,70.8498 510.5,69.5C 513.303,68.2243 515.97,68.2243 518.5,69.5 Z"/></g>
<g><path style="opacity:1" fill="#b6ce94" d="M 564.5,66.5 C 565.167,66.5 565.833,66.5 566.5,66.5C 565.71,67.7942 564.71,68.9609 563.5,70C 556.5,70.6667 549.5,70.6667 542.5,70C 541.263,69.7679 540.263,69.2679 539.5,68.5C 540.833,68.5 542.167,68.5 543.5,68.5C 549.69,68.8229 555.69,68.4896 561.5,67.5C 562.209,66.596 563.209,66.2627 564.5,66.5 Z"/></g>
<g><path style="opacity:1" fill="#b9d395" d="M 529.5,68.5 C 528.972,69.7206 528.305,70.8873 527.5,72C 523.468,72.4831 519.801,71.6498 516.5,69.5C 517.167,69.5 517.833,69.5 518.5,69.5C 520.5,69.5 522.5,69.5 524.5,69.5C 526.216,69.3713 527.883,69.038 529.5,68.5 Z"/></g>
<g><path style="opacity:0.716" fill="#9fc9a9" d="M 713.5,66.5 C 719.534,69.2618 725.701,71.9284 732,74.5C 734.791,81.9907 736.458,89.6574 737,97.5C 734.963,99.7059 732.797,101.706 730.5,103.5C 732.255,100.564 734.255,97.7309 736.5,95C 735.915,93.6976 735.249,92.531 734.5,91.5C 733.769,86.5615 732.435,81.8949 730.5,77.5C 730.64,75.8762 729.973,74.7096 728.5,74C 723.5,72.3333 718.5,70.6667 713.5,69C 712.226,68.0228 712.226,67.1894 713.5,66.5 Z"/></g>
<g><path style="opacity:0.176" fill="#a0c9e5" d="M 165.5,89.5 C 165.5,89.8333 165.5,90.1667 165.5,90.5C 164.508,90.3284 163.842,90.6618 163.5,91.5C 161.589,92.075 159.922,93.075 158.5,94.5C 159.527,91.142 161.86,89.4754 165.5,89.5 Z"/></g>
<g><path style="opacity:0.996" fill="#859886" d="M 199.5,96.5 C 198.833,96.5 198.167,96.5 197.5,96.5C 195.287,94.1397 192.621,92.3063 189.5,91C 181.496,88.269 173.496,88.1023 165.5,90.5C 165.5,90.1667 165.5,89.8333 165.5,89.5C 175.346,86.5152 185.013,87.3485 194.5,92C 196.618,93.0491 198.284,94.5491 199.5,96.5 Z"/></g>
<g><path style="opacity:0.969" fill="#8d9c8b" d="M 507.5,80.5 C 507.5,83.1667 507.5,85.8333 507.5,88.5C 510.97,93.4062 511.304,98.4062 508.5,103.5C 508.5,102.833 508.5,102.167 508.5,101.5C 510.105,97.5756 509.605,93.9089 507,90.5C 506.192,86.9733 506.359,83.6399 507.5,80.5 Z"/></g>
<g><path style="opacity:1" fill="#b3ce8d" d="M 197.5,96.5 C 198.167,96.5 198.833,96.5 199.5,96.5C 200.659,98.2503 202.326,99.2503 204.5,99.5C 205.514,100.674 206.847,101.34 208.5,101.5C 209.833,102.167 211.167,102.833 212.5,103.5C 206.007,104.334 201.007,102.001 197.5,96.5 Z"/></g>
<g><path style="opacity:0.49" fill="#8a9c9e" d="M 199.5,96.5 C 201.674,96.7497 203.341,97.7497 204.5,99.5C 202.326,99.2503 200.659,98.2503 199.5,96.5 Z"/></g>
<g><path style="opacity:0.608" fill="#95b4cb" d="M 204.5,99.5 C 207.428,99.5651 210.095,100.232 212.5,101.5C 211.167,101.5 209.833,101.5 208.5,101.5C 206.847,101.34 205.514,100.674 204.5,99.5 Z"/></g>
<g><path style="opacity:0.824" fill="#889d8b" d="M 208.5,101.5 C 209.833,101.5 211.167,101.5 212.5,101.5C 214.749,102.08 216.415,103.413 217.5,105.5C 215.716,105.107 214.05,104.441 212.5,103.5C 211.167,102.833 209.833,102.167 208.5,101.5 Z"/></g>
<g><path style="opacity:0.992" fill="#93a381" d="M 163.5,91.5 C 159.992,94.2827 158.658,97.9494 159.5,102.5C 159.802,105.059 159.468,107.393 158.5,109.5C 158.5,104.5 158.5,99.5 158.5,94.5C 159.922,93.075 161.589,92.075 163.5,91.5 Z"/></g>
<g><path style="opacity:0.596" fill="#a0caec" d="M 508.5,101.5 C 508.5,102.167 508.5,102.833 508.5,103.5C 508.5,103.833 508.5,104.167 508.5,104.5C 507.833,104.833 507.167,105.167 506.5,105.5C 506.66,103.847 507.326,102.514 508.5,101.5 Z"/></g>
<g><path style="opacity:0.321" fill="#9fc3de" d="M 508.5,104.5 C 507.581,107.089 505.914,109.089 503.5,110.5C 501.5,111.167 499.5,111.833 497.5,112.5C 500.319,109.925 503.319,107.592 506.5,105.5C 507.167,105.167 507.833,104.833 508.5,104.5 Z"/></g>
<g><path style="opacity:1" fill="#b5d18e" d="M 507.5,88.5 C 508.5,88.5 509.5,88.5 510.5,88.5C 511.819,93.4325 512.319,98.4325 512,103.5C 509.045,107.244 506.211,111.078 503.5,115C 499.809,115.42 496.142,115.92 492.5,116.5C 493.167,115.833 493.833,115.167 494.5,114.5C 497.166,114.067 499.832,113.567 502.5,113C 503.252,112.329 503.586,111.496 503.5,110.5C 505.914,109.089 507.581,107.089 508.5,104.5C 508.5,104.167 508.5,103.833 508.5,103.5C 511.304,98.4062 510.97,93.4062 507.5,88.5 Z"/></g>
<g><path style="opacity:0.667" fill="#8a9981" d="M 221.5,109.5 C 222.906,109.973 223.573,110.973 223.5,112.5C 222.094,112.027 221.427,111.027 221.5,109.5 Z"/></g>
<g><path style="opacity:1" fill="#a7b7a6" d="M 503.5,110.5 C 503.586,111.496 503.252,112.329 502.5,113C 499.832,113.567 497.166,114.067 494.5,114.5C 494.973,113.094 495.973,112.427 497.5,112.5C 499.5,111.833 501.5,111.167 503.5,110.5 Z"/></g>
<g><path style="opacity:0.965" fill="#8fa8b4" d="M 158.5,94.5 C 158.5,99.5 158.5,104.5 158.5,109.5C 158.245,112.016 157.411,114.35 156,116.5C 153.157,119.675 149.99,122.509 146.5,125C 140.985,125.915 135.652,127.081 130.5,128.5C 130.167,128.5 129.833,128.5 129.5,128.5C 127.5,128.5 125.5,128.5 123.5,128.5C 130.281,126.594 137.281,125.094 144.5,124C 149.284,121.55 153.117,118.05 156,113.5C 156.862,107.023 157.695,100.689 158.5,94.5 Z"/></g>
<g><path style="opacity:1" fill="#8a9d7d" d="M 494.5,114.5 C 493.833,115.167 493.167,115.833 492.5,116.5C 488.824,116.583 485.491,117.583 482.5,119.5C 482.414,118.504 482.748,117.671 483.5,117C 487.112,115.85 490.778,115.017 494.5,114.5 Z"/></g>
<g><path style="opacity:0.909" fill="#849784" d="M 223.5,112.5 C 224.68,115.521 225.68,118.687 226.5,122C 225.27,127.191 223.937,132.358 222.5,137.5C 221.503,134.995 221.503,132.328 222.5,129.5C 223.891,127.411 224.558,125.078 224.5,122.5C 223.947,119.183 223.614,115.85 223.5,112.5 Z"/></g>
<g><path style="opacity:1" fill="#b0d08e" d="M 734.5,91.5 C 735.249,92.531 735.915,93.6976 736.5,95C 734.255,97.7309 732.255,100.564 730.5,103.5C 728.252,107.254 725.419,110.588 722,113.5C 721.51,114.793 721.343,116.127 721.5,117.5C 719.138,121.733 717.138,126.233 715.5,131C 715.743,131.902 716.077,132.735 716.5,133.5C 715.351,133.209 714.684,132.376 714.5,131C 717.055,125.054 718.888,118.887 720,112.5C 724.667,107.167 729.333,101.833 734,96.5C 734.494,94.8659 734.66,93.1992 734.5,91.5 Z"/></g>
<g><path style="opacity:0.976" fill="#8da39c" d="M 123.5,128.5 C 122.223,129.898 120.557,130.564 118.5,130.5C 116.488,130.16 114.488,129.827 112.5,129.5C 103.899,125.767 96.2324,127.267 89.5,134C 87.5359,135.451 86.2026,137.284 85.5,139.5C 82.8333,142.833 80.1667,146.167 77.5,149.5C 82.6059,135.793 92.2726,127.46 106.5,124.5C 111.638,127.855 117.304,129.188 123.5,128.5 Z"/></g>
<g><path style="opacity:1" fill="#b0ca8d" d="M 159.5,102.5 C 161.605,106.57 161.938,110.903 160.5,115.5C 155.688,119.144 151.021,122.978 146.5,127C 141.207,127.977 135.874,128.477 130.5,128.5C 135.652,127.081 140.985,125.915 146.5,125C 149.99,122.509 153.157,119.675 156,116.5C 157.411,114.35 158.245,112.016 158.5,109.5C 159.468,107.393 159.802,105.059 159.5,102.5 Z"/></g>
<g><path style="opacity:1" fill="#b1cc8c" d="M 123.5,128.5 C 125.5,128.5 127.5,128.5 129.5,128.5C 125.937,129.802 122.271,131.135 118.5,132.5C 116.164,131.999 114.164,130.999 112.5,129.5C 114.488,129.827 116.488,130.16 118.5,130.5C 120.557,130.564 122.223,129.898 123.5,128.5 Z"/></g>
<g><path style="opacity:0.343" fill="#a1cbed" d="M 478.5,131.5 C 478.247,135.04 477.581,138.373 476.5,141.5C 475.931,137.671 476.598,134.337 478.5,131.5 Z"/></g>
<g><path style="opacity:1" fill="#9eb484" d="M 482.5,119.5 C 481.524,127.691 480.191,135.691 478.5,143.5C 477.833,144.833 477.167,146.167 476.5,147.5C 476.5,145.5 476.5,143.5 476.5,141.5C 477.581,138.373 478.247,135.04 478.5,131.5C 479.524,127.409 480.857,123.409 482.5,119.5 Z"/></g>
<g><path style="opacity:0.365" fill="#9ec8a8" d="M 721.5,117.5 C 720.477,122.071 719.144,126.571 717.5,131C 721.681,135.014 725.681,139.181 729.5,143.5C 725.167,140.167 720.833,136.833 716.5,133.5C 716.077,132.735 715.743,131.902 715.5,131C 717.138,126.233 719.138,121.733 721.5,117.5 Z"/></g>
<g><path style="opacity:1" fill="#adc58d" d="M 222.5,129.5 C 221.503,132.328 221.503,134.995 222.5,137.5C 223.488,142.64 223.821,147.974 223.5,153.5C 223.467,157.869 223.8,162.202 224.5,166.5C 223.442,165.4 222.608,164.066 222,162.5C 221.667,154.5 221.333,146.5 221,138.5C 218.801,134.978 219.301,131.978 222.5,129.5 Z"/></g>
<g><path style="opacity:0.886" fill="#a3d0ef" d="M 436.5,143.5 C 435.486,144.674 434.153,145.34 432.5,145.5C 433.287,143.896 434.62,143.229 436.5,143.5 Z"/></g>
<g><path style="opacity:0.859" fill="#869d87" d="M 436.5,143.5 C 439.878,142.891 441.878,144.224 442.5,147.5C 441.333,146.185 439.833,145.519 438,145.5C 432.765,147.236 428.931,150.57 426.5,155.5C 426.167,155.5 425.833,155.5 425.5,155.5C 425.5,154.833 425.5,154.167 425.5,153.5C 427.862,150.808 430.196,148.141 432.5,145.5C 434.153,145.34 435.486,144.674 436.5,143.5 Z"/></g>
<g><path style="opacity:0.378" fill="#a7d5fa" d="M 476.5,141.5 C 476.5,143.5 476.5,145.5 476.5,147.5C 476.5,147.833 476.5,148.167 476.5,148.5C 475.833,149.167 475.167,149.833 474.5,150.5C 474.676,147.273 475.343,144.273 476.5,141.5 Z"/></g>
<g><path style="opacity:0.914" fill="#8c9d9f" d="M 77.5,149.5 C 76.3126,151.975 74.3126,152.975 71.5,152.5C 73.4561,151.508 75.4561,150.508 77.5,149.5 Z"/></g>
<g><path style="opacity:1" fill="#acc58c" d="M 85.5,139.5 C 83.2385,144.52 80.5718,149.353 77.5,154C 72.5111,154.499 67.5111,154.666 62.5,154.5C 65.3112,153.525 68.3112,152.858 71.5,152.5C 74.3126,152.975 76.3126,151.975 77.5,149.5C 80.1667,146.167 82.8333,142.833 85.5,139.5 Z"/></g>
<g><path style="opacity:0.914" fill="#92a6ac" d="M 476.5,148.5 C 476.002,151.487 475.502,154.487 475,157.5C 474.617,158.056 474.117,158.389 473.5,158.5C 474.092,155.873 474.425,153.206 474.5,150.5C 475.167,149.833 475.833,149.167 476.5,148.5 Z"/></g>
<g><path style="opacity:0.976" fill="#85958b" d="M 394.5,153.5 C 397.64,152.359 400.973,152.192 404.5,153C 407.409,154.406 409.409,156.572 410.5,159.5C 410.167,159.5 409.833,159.5 409.5,159.5C 405.992,154.085 400.992,152.085 394.5,153.5 Z"/></g>
<g><path style="opacity:0.522" fill="#8ca1a9" d="M 442.5,147.5 C 445.323,150.475 447.656,153.808 449.5,157.5C 446.421,155.425 444.088,152.758 442.5,149.5C 442.5,148.833 442.5,148.167 442.5,147.5 Z"/></g>
<g><path style="opacity:0.988" fill="#879c92" d="M 394.5,153.5 C 392.19,154.325 390.19,155.658 388.5,157.5C 387.833,157.5 387.167,157.5 386.5,157.5C 386.833,156.833 387.167,156.167 387.5,155.5C 389.515,154.076 391.848,153.41 394.5,153.5 Z"/></g>
<g><path style="opacity:0.408" fill="#a0caeb" d="M 387.5,155.5 C 387.167,156.167 386.833,156.833 386.5,157.5C 385.508,157.328 384.842,157.662 384.5,158.5C 383.5,158.5 382.5,158.5 381.5,158.5C 383.181,156.992 385.181,155.992 387.5,155.5 Z"/></g>
<g><path style="opacity:0.557" fill="#98b8ce" d="M 425.5,153.5 C 425.5,154.167 425.5,154.833 425.5,155.5C 422.81,157.193 420.81,159.527 419.5,162.5C 417.167,162.5 414.833,162.5 412.5,162.5C 411.89,161.609 411.557,160.609 411.5,159.5C 414.073,160.555 416.739,160.722 419.5,160C 420.998,157.336 422.998,155.17 425.5,153.5 Z"/></g>
<g><path style="opacity:1" fill="#b0ca8d" d="M 478.5,143.5 C 478.33,148.859 477.83,154.192 477,159.5C 474.167,162.333 471.333,165.167 468.5,168C 466.167,168.667 463.833,168.667 461.5,168C 455.833,164.333 450.167,160.667 444.5,157C 443.446,154.618 442.779,152.118 442.5,149.5C 444.088,152.758 446.421,155.425 449.5,157.5C 450.71,157.932 451.71,158.599 452.5,159.5C 455.586,162.223 458.92,164.723 462.5,167C 464.066,167.765 465.399,167.598 466.5,166.5C 468.027,166.573 469.027,165.906 469.5,164.5C 471.262,163.738 472.262,162.404 472.5,160.5C 473.338,160.158 473.672,159.492 473.5,158.5C 474.117,158.389 474.617,158.056 475,157.5C 475.502,154.487 476.002,151.487 476.5,148.5C 476.5,148.167 476.5,147.833 476.5,147.5C 477.167,146.167 477.833,144.833 478.5,143.5 Z"/></g>
<g><path style="opacity:1" fill="#aac486" d="M 386.5,157.5 C 387.167,157.5 387.833,157.5 388.5,157.5C 381.331,162.282 373.331,164.948 364.5,165.5C 364.5,165.167 364.5,164.833 364.5,164.5C 371.535,163.412 378.201,161.412 384.5,158.5C 384.842,157.662 385.508,157.328 386.5,157.5 Z"/></g>
<g><path style="opacity:0.992" fill="#b0d092" d="M 716.5,133.5 C 720.833,136.833 725.167,140.167 729.5,143.5C 736.131,148.463 742.131,154.13 747.5,160.5C 746.391,160.557 745.391,160.89 744.5,161.5C 743.457,158.944 741.79,156.777 739.5,155C 731.262,148.255 723.596,141.089 716.5,133.5 Z"/></g>
<g><path style="opacity:0.984" fill="#8da3ac" d="M 381.5,158.5 C 382.5,158.5 383.5,158.5 384.5,158.5C 378.201,161.412 371.535,163.412 364.5,164.5C 364.167,164.5 363.833,164.5 363.5,164.5C 369.352,162.327 375.352,160.327 381.5,158.5 Z"/></g>
<g><path style="opacity:0.988" fill="#8ca19e" d="M 62.5,154.5 C 58.2137,155.929 54.2137,157.929 50.5,160.5C 47.2964,161.901 43.9631,162.901 40.5,163.5C 47.1268,158.856 54.4601,155.856 62.5,154.5 Z"/></g>
<g><path style="opacity:0.667" fill="#8ea3a9" d="M 452.5,159.5 C 456.3,161.234 459.966,163.234 463.5,165.5C 464.209,166.404 465.209,166.737 466.5,166.5C 465.399,167.598 464.066,167.765 462.5,167C 458.92,164.723 455.586,162.223 452.5,159.5 Z"/></g>
<g><path style="opacity:0.315" fill="#a3cdee" d="M 474.5,150.5 C 474.425,153.206 474.092,155.873 473.5,158.5C 473.672,159.492 473.338,160.158 472.5,160.5C 470.738,161.262 469.738,162.596 469.5,164.5C 467.973,164.427 466.973,165.094 466.5,166.5C 465.209,166.737 464.209,166.404 463.5,165.5C 469.92,162.427 473.587,157.427 474.5,150.5 Z"/></g>
<g><path style="opacity:0.992" fill="#8e9c8f" d="M 472.5,160.5 C 472.262,162.404 471.262,163.738 469.5,164.5C 469.738,162.596 470.738,161.262 472.5,160.5 Z"/></g>
<g><path style="opacity:1" fill="#b8d392" d="M 50.5,160.5 C 45.9205,166.091 39.9205,168.091 32.5,166.5C 35.246,165.749 37.9127,164.749 40.5,163.5C 43.9631,162.901 47.2964,161.901 50.5,160.5 Z"/></g>
<g><path style="opacity:1" fill="#b5d18d" d="M 425.5,155.5 C 425.833,155.5 426.167,155.5 426.5,155.5C 423.607,161.388 419.94,166.722 415.5,171.5C 412.556,168.023 410.556,164.023 409.5,159.5C 409.833,159.5 410.167,159.5 410.5,159.5C 410.833,159.5 411.167,159.5 411.5,159.5C 411.557,160.609 411.89,161.609 412.5,162.5C 414.598,171.632 416.931,171.632 419.5,162.5C 420.81,159.527 422.81,157.193 425.5,155.5 Z"/></g>
<g><path style="opacity:1" fill="#d4e7b9" d="M 412.5,162.5 C 414.833,162.5 417.167,162.5 419.5,162.5C 416.931,171.632 414.598,171.632 412.5,162.5 Z"/></g>
<g><path style="opacity:0.996" fill="#879a88" d="M 40.5,163.5 C 37.9127,164.749 35.246,165.749 32.5,166.5C 30.4862,166.392 28.8195,167.058 27.5,168.5C 27.1667,168.5 26.8333,168.5 26.5,168.5C 26.5,168.167 26.5,167.833 26.5,167.5C 30.6748,164.779 35.3414,163.446 40.5,163.5 Z"/></g>
<g><path style="opacity:0.996" fill="#8d9a8c" d="M 469.5,164.5 C 469.027,165.906 468.027,166.573 466.5,166.5C 466.973,165.094 467.973,164.427 469.5,164.5 Z"/></g>
<g><path style="opacity:0.831" fill="#8da3aa" d="M 223.5,153.5 C 224.327,157.363 225.161,161.363 226,165.5C 228.827,169.155 230.993,173.155 232.5,177.5C 229.099,174.365 226.433,170.698 224.5,166.5C 223.8,162.202 223.467,157.869 223.5,153.5 Z"/></g>
<g><path style="opacity:0.89" fill="#889b87" d="M 363.5,164.5 C 363.833,164.5 364.167,164.5 364.5,164.5C 364.5,164.833 364.5,165.167 364.5,165.5C 361.763,166.031 359.096,166.864 356.5,168C 353.935,170.08 351.268,171.913 348.5,173.5C 352.231,168.445 357.231,165.445 363.5,164.5 Z"/></g>
<g><path style="opacity:0.659" fill="#a3cceb" d="M 26.5,167.5 C 26.5,167.833 26.5,168.167 26.5,168.5C 25.1667,169.5 23.8333,170.5 22.5,171.5C 17.02,173.283 11.3534,173.949 5.5,173.5C 4.16667,173.5 2.83333,173.5 1.5,173.5C 1.61071,172.883 1.94404,172.383 2.5,172C 9.18916,171.554 15.8558,170.887 22.5,170C 23.4709,168.519 24.8042,167.685 26.5,167.5 Z"/></g>
<g><path style="opacity:1" fill="#b7d18f" d="M 1.5,173.5 C 2.83333,173.5 4.16667,173.5 5.5,173.5C 6.16667,174.167 6.83333,174.833 7.5,175.5C 5.5328,175.261 3.69946,175.594 2,176.5C 1.60966,179.104 0.776331,181.438 -0.5,183.5C -0.5,181.5 -0.5,179.5 -0.5,177.5C 0.344644,176.329 1.01131,174.995 1.5,173.5 Z"/></g>
<g><path style="opacity:0.898" fill="#93a8ae" d="M 22.5,171.5 C 21.0254,173.41 19.0254,174.576 16.5,175C 13.854,175.497 11.1873,175.664 8.5,175.5C 8.16667,175.5 7.83333,175.5 7.5,175.5C 6.83333,174.833 6.16667,174.167 5.5,173.5C 11.3534,173.949 17.02,173.283 22.5,171.5 Z"/></g>
<g><path style="opacity:1" fill="#bcd797" d="M 26.5,168.5 C 26.8333,168.5 27.1667,168.5 27.5,168.5C 25.509,171.137 23.509,173.804 21.5,176.5C 16.9031,177.938 12.5698,177.605 8.5,175.5C 11.1873,175.664 13.854,175.497 16.5,175C 19.0254,174.576 21.0254,173.41 22.5,171.5C 23.8333,170.5 25.1667,169.5 26.5,168.5 Z"/></g>
<g><path style="opacity:0.988" fill="#8ca08f" d="M 308.5,189.5 C 308.5,190.167 308.5,190.833 308.5,191.5C 308.167,191.5 307.833,191.5 307.5,191.5C 301.083,186.111 294.416,180.945 287.5,176C 282.213,174.172 276.88,174.005 271.5,175.5C 273.54,174.058 275.873,173.058 278.5,172.5C 282.113,173.523 285.779,174.356 289.5,175C 295.863,179.842 302.197,184.676 308.5,189.5 Z"/></g>
<g><path style="opacity:1" fill="#90a17d" d="M 271.5,175.5 C 270.738,177.262 269.404,178.262 267.5,178.5C 267.833,177.833 268.167,177.167 268.5,176.5C 269.391,175.89 270.391,175.557 271.5,175.5 Z"/></g>
<g><path style="opacity:0.839" fill="#919f90" d="M 346.5,175.5 C 346.262,177.404 345.262,178.738 343.5,179.5C 343.738,177.596 344.738,176.262 346.5,175.5 Z"/></g>
<g><path style="opacity:1" fill="#b4cf8e" d="M 224.5,166.5 C 226.433,170.698 229.099,174.365 232.5,177.5C 237.193,182.698 242.86,184.698 249.5,183.5C 249.833,183.5 250.167,183.5 250.5,183.5C 254.182,183.665 257.848,183.499 261.5,183C 263.324,182.34 264.657,181.173 265.5,179.5C 265.842,178.662 266.508,178.328 267.5,178.5C 266.118,181.394 264.118,183.894 261.5,186C 258.695,186.442 256.028,185.942 253.5,184.5C 249.906,185.819 246.239,186.319 242.5,186C 237.667,183.418 233,180.585 228.5,177.5C 226.762,173.951 225.429,170.284 224.5,166.5 Z"/></g>
<g><path style="opacity:0.488" fill="#a4cff1" d="M 268.5,176.5 C 268.167,177.167 267.833,177.833 267.5,178.5C 266.508,178.328 265.842,178.662 265.5,179.5C 263.745,180.072 262.078,180.906 260.5,182C 258.527,182.495 256.527,182.662 254.5,182.5C 259.008,180.324 263.675,178.324 268.5,176.5 Z"/></g>
<g><path style="opacity:0.698" fill="#8ea0a1" d="M 232.5,177.5 C 237.702,180.679 243.369,182.679 249.5,183.5C 242.86,184.698 237.193,182.698 232.5,177.5 Z"/></g>
<g><path style="opacity:0.976" fill="#8c9e9c" d="M 265.5,179.5 C 264.657,181.173 263.324,182.34 261.5,183C 257.848,183.499 254.182,183.665 250.5,183.5C 251.568,182.566 252.901,182.232 254.5,182.5C 256.527,182.662 258.527,182.495 260.5,182C 262.078,180.906 263.745,180.072 265.5,179.5 Z"/></g>
<g><path style="opacity:0.765" fill="#93abb5" d="M 343.5,179.5 C 343.5,180.167 343.5,180.833 343.5,181.5C 338.67,185.497 334.336,189.997 330.5,195C 322.343,198.898 315.01,197.731 308.5,191.5C 308.5,190.833 308.5,190.167 308.5,189.5C 313.811,194.985 320.144,196.652 327.5,194.5C 332.827,189.506 338.161,184.506 343.5,179.5 Z"/></g>
<g><path style="opacity:1" fill="#b4d08d" d="M 343.5,181.5 C 339.45,187.728 334.784,193.562 329.5,199C 323.351,199.466 317.351,198.633 311.5,196.5C 309.42,195.421 308.087,193.755 307.5,191.5C 307.833,191.5 308.167,191.5 308.5,191.5C 315.01,197.731 322.343,198.898 330.5,195C 334.336,189.997 338.67,185.497 343.5,181.5 Z"/></g>
<g><path style="opacity:1" fill="#becb8e" d="M -0.5,191.5 C 4.17975,192.893 8.84641,194.393 13.5,196C 18.0505,201.711 22.3838,207.544 26.5,213.5C 27.1667,215.167 27.8333,216.833 28.5,218.5C 22.8406,212.165 17.5073,205.499 12.5,198.5C 8.22596,196.632 3.89263,194.965 -0.5,193.5C -0.5,192.833 -0.5,192.167 -0.5,191.5 Z"/></g>
<g><path style="opacity:1" fill="#bccc8e" d="M 276.5,278.5 C 278.735,278.205 280.735,278.539 282.5,279.5C 273.576,280.605 264.743,282.272 256,284.5C 253.995,284.999 252.495,286.166 251.5,288C 242.197,289.238 232.863,290.071 223.5,290.5C 219.619,284.381 216.786,277.714 215,270.5C 214.617,269.944 214.117,269.611 213.5,269.5C 205.754,267.13 198.087,264.463 190.5,261.5C 183.472,263.679 176.472,264.013 169.5,262.5C 165.733,261.205 161.733,260.539 157.5,260.5C 156.504,260.586 155.671,260.252 155,259.5C 154.306,254.257 154.806,249.257 156.5,244.5C 157.963,238.494 159.296,232.327 160.5,226C 159.615,223.843 157.948,223.01 155.5,223.5C 149.445,222.487 143.445,221.153 137.5,219.5C 132.167,223.167 126.833,226.833 121.5,230.5C 112.05,226.275 102.716,221.775 93.5,217C 90.1667,217.333 86.8333,217.667 83.5,218C 77.2206,214.054 71.2206,209.721 65.5,205C 64.0715,204.421 62.7382,204.588 61.5,205.5C 54.9375,209.39 49.2708,214.39 44.5,220.5C 40.0189,221.648 35.3522,221.815 30.5,221C 29.6195,220.292 28.9528,219.458 28.5,218.5C 27.8333,216.833 27.1667,215.167 26.5,213.5C 28.5,214.976 30.1666,216.809 31.5,219C 35.5,219.667 39.5,219.667 43.5,219C 47.8333,214.667 52.1667,210.333 56.5,206C 59.0546,204.556 61.7213,203.389 64.5,202.5C 71.3002,206.739 77.9669,211.239 84.5,216C 87.4368,215.377 90.4368,215.043 93.5,215C 102.605,219.636 111.772,224.136 121,228.5C 125.775,225.396 130.275,221.896 134.5,218C 143.292,218.695 151.958,220.361 160.5,223C 161.61,225.737 161.777,228.571 161,231.5C 159.285,239.123 157.785,246.79 156.5,254.5C 156.39,256.374 157.056,257.874 158.5,259C 165.328,259.874 172.162,260.708 179,261.5C 183.76,260.132 188.593,259.632 193.5,260C 201.605,262.558 209.272,265.891 216.5,270C 218.259,276.287 220.593,282.287 223.5,288C 232.185,287.925 240.852,287.258 249.5,286C 250.5,285 251.5,284 252.5,283C 260.394,280.859 268.394,279.359 276.5,278.5 Z"/></g>
<g><path style="opacity:0.376" fill="#cebc93" d="M 61.5,205.5 C 56.1359,210.865 50.4692,215.865 44.5,220.5C 49.2708,214.39 54.9375,209.39 61.5,205.5 Z"/></g>
<g><path style="opacity:0.976" fill="#d0bb94" d="M 155.5,223.5 C 157.948,223.01 159.615,223.843 160.5,226C 159.296,232.327 157.963,238.494 156.5,244.5C 157.073,237.823 157.74,231.157 158.5,224.5C 157.209,224.737 156.209,224.404 155.5,223.5 Z"/></g>
<g><path style="opacity:0.175" fill="#cfbd95" d="M 157.5,260.5 C 161.733,260.539 165.733,261.205 169.5,262.5C 165.236,262.656 161.236,261.989 157.5,260.5 Z"/></g>
<g><path style="opacity:0.58" fill="#cfbb94" d="M 213.5,269.5 C 214.117,269.611 214.617,269.944 215,270.5C 216.786,277.714 219.619,284.381 223.5,290.5C 221.248,290.084 219.748,288.751 219,286.5C 216.66,280.981 214.827,275.314 213.5,269.5 Z"/></g>
<g><path style="opacity:1" fill="#b7c08a" d="M 430.5,343.5 C 429.833,343.5 429.167,343.5 428.5,343.5C 428.027,342.094 427.027,341.427 425.5,341.5C 421.12,339.3 417.12,336.467 413.5,333C 409.848,332.501 406.182,332.335 402.5,332.5C 401.128,324.345 399.128,316.345 396.5,308.5C 391.086,304.709 385.586,301.043 380,297.5C 376.909,304.312 373.742,310.979 370.5,317.5C 370.5,316.5 370.5,315.5 370.5,314.5C 372.698,308.414 375.198,302.414 378,296.5C 379.049,295.483 380.216,295.316 381.5,296C 387.333,299.833 393.167,303.667 399,307.5C 400.995,315.144 402.828,322.811 404.5,330.5C 407.518,330.335 410.518,330.502 413.5,331C 419.59,334.699 425.257,338.866 430.5,343.5 Z"/></g>
<g><path style="opacity:0.967" fill="#bcd089" d="M 747.5,160.5 C 748.885,161.302 748.718,161.969 747,162.5C 741.477,164.089 735.977,165.756 730.5,167.5C 728.912,168.01 727.745,169.01 727,170.5C 724.06,177.26 721.893,184.26 720.5,191.5C 721.835,198.845 723.168,206.178 724.5,213.5C 722.477,218.38 719.81,222.88 716.5,227C 712.143,226.825 707.809,226.492 703.5,226C 697.591,233.153 691.925,240.486 686.5,248C 678.778,247.825 671.111,246.992 663.5,245.5C 656.798,246.617 650.131,247.951 643.5,249.5C 640.349,253.151 637.016,256.651 633.5,260C 624.82,259.999 616.153,259.499 607.5,258.5C 607.326,261.874 606.826,265.207 606,268.5C 600.833,278.167 595.667,287.833 590.5,297.5C 593.167,302.833 595.833,308.167 598.5,313.5C 597.333,313.833 596.167,314.167 595,314.5C 590.348,313.725 585.682,313.058 581,312.5C 575.038,313.449 569.204,314.949 563.5,317C 558.511,317.499 553.511,317.666 548.5,317.5C 549.233,327.829 549.9,338.162 550.5,348.5C 539.597,350.283 528.597,350.95 517.5,350.5C 517.263,349.209 517.596,348.209 518.5,347.5C 528.428,348.968 538.428,348.635 548.5,346.5C 547.767,336.171 547.1,325.838 546.5,315.5C 551.511,315.666 556.511,315.499 561.5,315C 572.274,310.455 583.274,309.621 594.5,312.5C 594.833,312.167 595.167,311.833 595.5,311.5C 592.891,306.615 590.557,301.615 588.5,296.5C 592.474,287.885 596.974,279.551 602,271.5C 603.642,266.598 604.809,261.598 605.5,256.5C 613.051,256.548 620.551,257.215 628,258.5C 629.167,258.333 630.333,258.167 631.5,258C 635.167,254.333 638.833,250.667 642.5,247C 650.467,245.837 658.467,245.004 666.5,244.5C 672.874,245.01 679.207,245.51 685.5,246C 690.925,238.486 696.591,231.153 702.5,224C 706.239,223.681 709.906,224.181 713.5,225.5C 717.623,221.432 720.623,216.599 722.5,211C 721.654,203.931 719.988,197.098 717.5,190.5C 719.511,184.124 721.678,177.791 724,171.5C 724.848,169.126 726.181,167.126 728,165.5C 733.388,163.647 738.888,162.314 744.5,161.5C 745.391,160.89 746.391,160.557 747.5,160.5 Z"/></g>
<g><path style="opacity:1" fill="#b8ce8d" d="M 276.5,278.5 C 278.628,277.371 280.961,277.204 283.5,278C 288.275,279.703 293.108,281.203 298,282.5C 302.216,280.976 306.383,279.309 310.5,277.5C 314.948,279.224 319.281,281.224 323.5,283.5C 324.499,294.146 324.832,304.813 324.5,315.5C 332.457,314.171 340.457,313.671 348.5,314C 350.833,316.333 353.167,318.667 355.5,321C 359.167,321.667 362.833,321.667 366.5,321C 367.733,318.686 369.067,316.519 370.5,314.5C 370.5,315.5 370.5,316.5 370.5,317.5C 370.123,319.258 369.456,320.925 368.5,322.5C 364.217,323.492 359.884,323.826 355.5,323.5C 353.038,320.536 350.371,317.703 347.5,315C 344.633,314.199 341.966,314.366 339.5,315.5C 333.943,316.736 328.277,317.403 322.5,317.5C 322.832,306.48 322.499,295.48 321.5,284.5C 317.947,282.557 314.281,280.89 310.5,279.5C 306.383,281.309 302.216,282.976 298,284.5C 292.709,283.125 287.543,281.458 282.5,279.5C 280.735,278.539 278.735,278.205 276.5,278.5 Z"/></g>
<g><path style="opacity:0.192" fill="#b69082" d="M 339.5,315.5 C 341.966,314.366 344.633,314.199 347.5,315C 350.371,317.703 353.038,320.536 355.5,323.5C 352.101,321.612 349.101,319.112 346.5,316C 344.19,315.503 341.857,315.337 339.5,315.5 Z"/></g>
<g><path style="opacity:0.039" fill="#b3857c" d="M 481.5,333.5 C 480.448,333.351 479.448,333.517 478.5,334C 475.899,337.112 472.899,339.612 469.5,341.5C 471.962,338.536 474.629,335.703 477.5,333C 479.066,332.235 480.399,332.402 481.5,333.5 Z"/></g>
<g><path style="opacity:1" fill="#b6c489" d="M 512.5,336.5 C 511.432,337.434 510.099,337.768 508.5,337.5C 499.449,336.491 490.449,335.158 481.5,333.5C 480.399,332.402 479.066,332.235 477.5,333C 474.629,335.703 471.962,338.536 469.5,341.5C 462.013,342.898 454.346,344.065 446.5,345C 444.783,346.559 442.783,347.392 440.5,347.5C 438.095,346.232 435.428,345.565 432.5,345.5C 431.833,344.833 431.167,344.167 430.5,343.5C 434.098,343.607 437.598,344.274 441,345.5C 442.434,345.07 443.601,344.236 444.5,343C 452.5,342 460.5,341 468.5,340C 471.167,337.333 473.833,334.667 476.5,332C 488.597,332.515 500.597,334.015 512.5,336.5 Z"/></g>
<g><path style="opacity:0.624" fill="#b69184" d="M 425.5,341.5 C 427.027,341.427 428.027,342.094 428.5,343.5C 426.973,343.573 425.973,342.906 425.5,341.5 Z"/></g>
<g><path style="opacity:0.286" fill="#b58b80" d="M 428.5,343.5 C 429.167,343.5 429.833,343.5 430.5,343.5C 431.167,344.167 431.833,344.833 432.5,345.5C 430.62,345.771 429.287,345.104 428.5,343.5 Z"/></g>
<g><path style="opacity:0.335" fill="#b17b78" d="M 432.5,345.5 C 435.428,345.565 438.095,346.232 440.5,347.5C 437.505,347.706 434.838,347.04 432.5,345.5 Z"/></g>
<g><path style="opacity:1" fill="#bac38f" d="M 512.5,336.5 C 513.822,336.33 514.989,336.663 516,337.5C 516.838,340.852 517.671,344.185 518.5,347.5C 517.596,348.209 517.263,349.209 517.5,350.5C 515.898,346.761 514.898,342.761 514.5,338.5C 512.265,338.795 510.265,338.461 508.5,337.5C 510.099,337.768 511.432,337.434 512.5,336.5 Z"/></g>
</svg>
