<?xml version="1.0" encoding="UTF-8"?>
<!DOCTYPE svg PUBLIC "-//W3C//DTD SVG 1.1//EN" "http://www.w3.org/Graphics/SVG/1.1/DTD/svg11.dtd">
<svg xmlns="http://www.w3.org/2000/svg" version="1.1" width="426px" height="411px" style="shape-rendering:geometricPrecision; text-rendering:geometricPrecision; image-rendering:optimizeQuality; fill-rule:evenodd; clip-rule:evenodd" xmlns:xlink="http://www.w3.org/1999/xlink">
<g><path style="opacity:1" fill="#ddb7d8" d="M 226.5,-0.5 C 227.833,-0.5 229.167,-0.5 230.5,-0.5C 233.54,1.34588 236.873,2.67921 240.5,3.5C 240.918,4.22158 241.584,4.72158 242.5,5C 248.827,5.65098 255.16,6.15098 261.5,6.5C 262.791,6.26269 263.791,6.59603 264.5,7.5C 266.475,9.13696 268.475,10.8036 270.5,12.5C 270.5,12.8333 270.5,13.1667 270.5,13.5C 269.98,19.806 272.646,23.806 278.5,25.5C 281.231,27.0714 283.065,29.4048 284,32.5C 284.667,37.1667 284.667,41.8333 284,46.5C 282.025,52.4002 280.358,58.4002 279,64.5C 276.972,67.6922 274.472,70.3589 271.5,72.5C 269.321,72.84 267.488,73.84 266,75.5C 264.526,78.7556 263.36,82.089 262.5,85.5C 262.34,87.153 261.674,88.4863 260.5,89.5C 257.151,93.6764 254.151,98.1764 251.5,103C 245.5,103.333 239.5,103.667 233.5,104C 229.23,107.761 225.563,111.928 222.5,116.5C 222.027,117.906 221.027,118.573 219.5,118.5C 217.143,118.337 214.81,118.503 212.5,119C 207.417,122.292 202.25,125.459 197,128.5C 196.333,134.167 196.333,139.833 197,145.5C 197.383,146.056 197.883,146.389 198.5,146.5C 198.91,153.753 195.576,158.086 188.5,159.5C 182.136,158.761 175.803,158.761 169.5,159.5C 167.703,161.955 166.37,164.622 165.5,167.5C 163.777,169.253 162.277,171.253 161,173.5C 159.336,181.819 157.836,190.152 156.5,198.5C 156.672,199.492 156.338,200.158 155.5,200.5C 152.298,200.537 150.632,202.203 150.5,205.5C 148.667,207.832 147.334,210.498 146.5,213.5C 146.668,215.171 147.335,216.504 148.5,217.5C 148.5,220.167 148.5,222.833 148.5,225.5C 144.65,234.665 145.983,242.998 152.5,250.5C 154.722,251.778 157.056,252.778 159.5,253.5C 165.12,251.023 170.453,248.023 175.5,244.5C 178.833,239.167 182.167,233.833 185.5,228.5C 189.568,225.479 193.568,222.479 197.5,219.5C 202.467,216.624 207.467,216.29 212.5,218.5C 214.604,220.099 216.604,221.932 218.5,224C 224.167,224.667 229.833,224.667 235.5,224C 237.066,223.392 238.4,222.558 239.5,221.5C 239.833,221.5 240.167,221.5 240.5,221.5C 245.206,221.843 249.873,222.509 254.5,223.5C 258.808,222.799 263.141,222.466 267.5,222.5C 270.598,224.892 273.931,227.058 277.5,229C 279.881,229.738 281.881,229.238 283.5,227.5C 284.833,227.5 286.167,227.5 287.5,227.5C 290.183,229.281 293.183,229.781 296.5,229C 300.833,226.5 305.167,224 309.5,221.5C 312.257,216.881 313.424,211.881 313,206.5C 312.329,205.748 311.496,205.414 310.5,205.5C 309.982,204.423 309.648,203.256 309.5,202C 310.444,197.963 311.778,194.13 313.5,190.5C 317.808,186.032 317.474,182.032 312.5,178.5C 312.398,170.773 316.232,167.44 324,168.5C 328.21,168.644 332.376,169.144 336.5,170C 339.033,171.033 340.699,172.867 341.5,175.5C 345.956,175.638 349.623,177.305 352.5,180.5C 356.296,184.798 360.296,188.964 364.5,193C 373.09,191.994 381.757,191.494 390.5,191.5C 403.265,193.379 409.099,200.712 408,213.5C 406.027,218.779 403.527,223.779 400.5,228.5C 400.97,229.463 401.637,229.463 402.5,228.5C 402.262,230.404 401.262,231.738 399.5,232.5C 399.631,231.761 399.464,231.094 399,230.5C 394.622,235.373 390.455,240.373 386.5,245.5C 384.954,249.93 383.954,254.596 383.5,259.5C 372.321,259.172 361.321,259.505 350.5,260.5C 349.683,262.969 349.183,265.635 349,268.5C 342.902,274.756 337.402,281.423 332.5,288.5C 336.894,297.621 341.561,306.621 346.5,315.5C 338.237,324.487 333.571,335.153 332.5,347.5C 331.486,348.674 330.153,349.34 328.5,349.5C 319.781,359.243 311.281,369.243 303,379.5C 300.5,377.667 298,375.833 295.5,374C 280.546,372.313 265.546,371.479 250.5,371.5C 249.472,382.476 248.805,393.476 248.5,404.5C 240.786,405.676 233.119,407.176 225.5,409C 216.626,409.285 207.96,407.952 199.5,405C 198.036,403.136 197.036,400.969 196.5,398.5C 185.511,393.088 174.344,388.088 163,383.5C 161.347,383.82 160.347,384.82 160,386.5C 156.861,394.087 154.028,401.753 151.5,409.5C 151.5,409.833 151.5,410.167 151.5,410.5C 130.5,410.5 109.5,410.5 88.5,410.5C 88.5,410.167 88.5,409.833 88.5,409.5C 76.8263,405.751 64.8263,403.251 52.5,402C 49.6286,404.703 46.9619,407.536 44.5,410.5C 40.1667,410.5 35.8333,410.5 31.5,410.5C 21.9664,396.295 11.2997,382.962 -0.5,370.5C -0.5,367.833 -0.5,365.167 -0.5,362.5C 3.16774,359.164 5.83441,355.164 7.5,350.5C 5.6607,344.502 4.1607,338.502 3,332.5C 8.33333,326.5 13.6667,320.5 19,314.5C 18.7847,306.962 17.2847,299.629 14.5,292.5C 21.8953,288.472 29.2286,284.472 36.5,280.5C 37.8142,278.085 38.4809,275.252 38.5,272C 38.215,264.26 35.0484,257.76 29,252.5C 28.3532,246.639 27.5199,240.806 26.5,235C 26.7549,233.674 27.4216,232.674 28.5,232C 38.5219,229.229 48.5219,226.396 58.5,223.5C 59.6723,218.493 60.839,213.493 62,208.5C 63.6667,207.5 65.3333,206.5 67,205.5C 64.5458,189.509 61.0458,173.675 56.5,158C 65.1745,154.465 72.8412,149.132 79.5,142C 83.3808,140.81 87.3808,140.143 91.5,140C 102.833,133.333 114.167,126.667 125.5,120C 127.211,118.867 127.711,117.367 127,115.5C 124.116,111.566 121.616,107.399 119.5,103C 122.729,96.6497 127.395,91.8163 133.5,88.5C 136.241,88.2927 138.574,87.2927 140.5,85.5C 143.241,85.2927 145.574,84.2927 147.5,82.5C 148.649,82.2089 149.316,81.3756 149.5,80C 151.768,69.9556 152.768,59.789 152.5,49.5C 153.619,44.7139 156.619,42.0473 161.5,41.5C 167.176,41.6661 172.843,41.4994 178.5,41C 179.645,39.1406 181.312,38.3073 183.5,38.5C 190.138,40.1656 196.804,40.4989 203.5,39.5C 205.527,35.4469 207.527,31.4469 209.5,27.5C 214.48,19.5475 218.98,11.2141 223,2.5C 224.145,1.36362 225.312,0.363622 226.5,-0.5 Z"/></g>
<g><path style="opacity:0.294" fill="#8d7b97" d="M 230.5,-0.5 C 232.167,-0.5 233.833,-0.5 235.5,-0.5C 243.075,1.86741 250.742,3.86741 258.5,5.5C 252.489,4.89301 246.489,4.22634 240.5,3.5C 236.873,2.67921 233.54,1.34588 230.5,-0.5 Z"/></g>
<g><path style="opacity:1" fill="#ac7ca8" d="M 240.5,3.5 C 246.489,4.22634 252.489,4.89301 258.5,5.5C 259.791,5.26269 260.791,5.59603 261.5,6.5C 255.16,6.15098 248.827,5.65098 242.5,5C 241.584,4.72158 240.918,4.22158 240.5,3.5 Z"/></g>
<g><path style="opacity:0.243" fill="#8f8fa4" d="M 264.5,7.5 C 268.192,7.32425 270.192,8.99092 270.5,12.5C 268.475,10.8036 266.475,9.13696 264.5,7.5 Z"/></g>
<g><path style="opacity:1" fill="#9b759b" d="M 223.5,-0.5 C 224.5,-0.5 225.5,-0.5 226.5,-0.5C 225.312,0.363622 224.145,1.36362 223,2.5C 218.98,11.2141 214.48,19.5475 209.5,27.5C 209.167,27.5 208.833,27.5 208.5,27.5C 208.5,27.1667 208.5,26.8333 208.5,26.5C 213.246,17.3389 218.246,8.33886 223.5,-0.5 Z"/></g>
<g><path style="opacity:0.898" fill="#a2cbee" d="M 274.5,17.5 C 277.5,19.8333 280.167,22.5 282.5,25.5C 280.938,25.2671 279.605,24.6005 278.5,23.5C 276.748,21.7541 275.415,19.7541 274.5,17.5 Z"/></g>
<g><path style="opacity:1" fill="#a396ab" d="M 272.5,15.5 C 273.5,15.8333 274.167,16.5 274.5,17.5C 275.415,19.7541 276.748,21.7541 278.5,23.5C 274.256,22.6671 272.256,20.0004 272.5,15.5 Z"/></g>
<g><path style="opacity:1" fill="#b27bad" d="M 270.5,13.5 C 271.5,13.8333 272.167,14.5 272.5,15.5C 272.256,20.0004 274.256,22.6671 278.5,23.5C 278.5,24.1667 278.5,24.8333 278.5,25.5C 272.646,23.806 269.98,19.806 270.5,13.5 Z"/></g>
<g><path style="opacity:0.686" fill="#929eb3" d="M 208.5,26.5 C 208.5,26.8333 208.5,27.1667 208.5,27.5C 207.167,29.5 205.833,31.5 204.5,33.5C 201.302,36.0114 197.636,37.3447 193.5,37.5C 191.5,37.5 189.5,37.5 187.5,37.5C 191.858,36.8967 196.191,35.7301 200.5,34C 203.285,31.5641 205.952,29.0641 208.5,26.5 Z"/></g>
<g><path style="opacity:1" fill="#d6b0d1" d="M 204.5,33.5 C 202.688,39.8709 199.021,41.2042 193.5,37.5C 197.636,37.3447 201.302,36.0114 204.5,33.5 Z"/></g>
<g><path style="opacity:1" fill="#b07bab" d="M 208.5,27.5 C 208.833,27.5 209.167,27.5 209.5,27.5C 207.527,31.4469 205.527,35.4469 203.5,39.5C 196.804,40.4989 190.138,40.1656 183.5,38.5C 181.312,38.3073 179.645,39.1406 178.5,41C 172.843,41.4994 167.176,41.6661 161.5,41.5C 163.5,40.8333 165.5,40.1667 167.5,39.5C 174.167,38.8333 180.833,38.1667 187.5,37.5C 189.5,37.5 191.5,37.5 193.5,37.5C 199.021,41.2042 202.688,39.8709 204.5,33.5C 205.833,31.5 207.167,29.5 208.5,27.5 Z"/></g>
<g><path style="opacity:0.996" fill="#8b819b" d="M 167.5,39.5 C 165.5,40.1667 163.5,40.8333 161.5,41.5C 156.619,42.0473 153.619,44.7139 152.5,49.5C 151.784,54.0638 151.117,58.7305 150.5,63.5C 149.833,63.5 149.167,63.5 148.5,63.5C 149.337,56.8266 150.504,50.16 152,43.5C 156.763,40.6352 161.929,39.3019 167.5,39.5 Z"/></g>
<g><path style="opacity:0.982" fill="#917696" d="M 278.5,23.5 C 279.605,24.6005 280.938,25.2671 282.5,25.5C 283.79,26.0577 284.623,27.0577 285,28.5C 285.5,35.4921 285.666,42.4921 285.5,49.5C 284.883,49.6107 284.383,49.944 284,50.5C 283.057,53.824 282.224,57.1574 281.5,60.5C 281.245,63.0163 280.411,65.3496 279,67.5C 274.964,71.7036 270.798,75.7036 266.5,79.5C 267.398,76.6044 269.065,74.271 271.5,72.5C 274.472,70.3589 276.972,67.6922 279,64.5C 280.358,58.4002 282.025,52.4002 284,46.5C 284.667,41.8333 284.667,37.1667 284,32.5C 283.065,29.4048 281.231,27.0714 278.5,25.5C 278.5,24.8333 278.5,24.1667 278.5,23.5 Z"/></g>
<g><path style="opacity:0.894" fill="#8993aa" d="M 285.5,49.5 C 284.918,53.532 283.584,57.1987 281.5,60.5C 282.224,57.1574 283.057,53.824 284,50.5C 284.383,49.944 284.883,49.6107 285.5,49.5 Z"/></g>
<g><path style="opacity:1" fill="#c08db6" d="M 152.5,49.5 C 152.768,59.789 151.768,69.9556 149.5,80C 149.316,81.3756 148.649,82.2089 147.5,82.5C 147.187,78.9581 147.521,75.6248 148.5,72.5C 149.657,69.7273 150.324,66.7273 150.5,63.5C 151.117,58.7305 151.784,54.0638 152.5,49.5 Z"/></g>
<g><path style="opacity:0.498" fill="#cdb599" d="M 148.5,63.5 C 149.167,63.5 149.833,63.5 150.5,63.5C 150.324,66.7273 149.657,69.7273 148.5,72.5C 148.5,69.5 148.5,66.5 148.5,63.5 Z"/></g>
<g><path style="opacity:1" fill="#aa7ba7" d="M 271.5,72.5 C 269.065,74.271 267.398,76.6044 266.5,79.5C 265.66,81.8525 264.326,83.8525 262.5,85.5C 263.36,82.089 264.526,78.7556 266,75.5C 267.488,73.84 269.321,72.84 271.5,72.5 Z"/></g>
<g><path style="opacity:0.353" fill="#b478ae" d="M 147.5,82.5 C 145.574,84.2927 143.241,85.2927 140.5,85.5C 142.426,83.7073 144.759,82.7073 147.5,82.5 Z"/></g>
<g><path style="opacity:0.353" fill="#b478ae" d="M 140.5,85.5 C 138.574,87.2927 136.241,88.2927 133.5,88.5C 135.426,86.7073 137.759,85.7073 140.5,85.5 Z"/></g>
<g><path style="opacity:0.996" fill="#bb84b0" d="M 133.5,88.5 C 127.395,91.8163 122.729,96.6497 119.5,103C 121.616,107.399 124.116,111.566 127,115.5C 127.711,117.367 127.211,118.867 125.5,120C 114.167,126.667 102.833,133.333 91.5,140C 87.3808,140.143 83.3808,140.81 79.5,142C 72.8412,149.132 65.1745,154.465 56.5,158C 61.0458,173.675 64.5458,189.509 67,205.5C 65.3333,206.5 63.6667,207.5 62,208.5C 60.839,213.493 59.6723,218.493 58.5,223.5C 48.5219,226.396 38.5219,229.229 28.5,232C 27.4216,232.674 26.7549,233.674 26.5,235C 27.5199,240.806 28.3532,246.639 29,252.5C 35.0484,257.76 38.215,264.26 38.5,272C 38.4809,275.252 37.8142,278.085 36.5,280.5C 36.6661,274.824 36.4994,269.157 36,263.5C 32.7608,260.017 29.7608,256.35 27,252.5C 25.7437,245.207 24.9103,237.874 24.5,230.5C 27.7893,229.626 31.1226,228.959 34.5,228.5C 36.8984,228.741 38.8984,228.074 40.5,226.5C 43.2282,226.829 45.5615,226.163 47.5,224.5C 51.1621,224.277 54.4954,223.277 57.5,221.5C 57.8526,217.087 58.6859,212.754 60,208.5C 61.0391,207.29 62.2058,206.29 63.5,205.5C 66.3091,205.042 66.9758,203.709 65.5,201.5C 61.3687,186.316 58.202,170.983 56,155.5C 64.6142,151.236 72.4475,145.736 79.5,139C 83.5,138.667 87.5,138.333 91.5,138C 102.833,131 114.167,124 125.5,117C 122.874,112.916 120.374,108.75 118,104.5C 117.333,103.167 117.333,101.833 118,100.5C 120.482,97.0507 123.315,93.884 126.5,91C 128.65,89.5886 130.984,88.7553 133.5,88.5 Z"/></g>
<g><path style="opacity:0.773" fill="#a096a9" d="M 240.5,105.5 C 237.543,106.823 234.543,108.157 231.5,109.5C 233.425,105.992 236.425,104.659 240.5,105.5 Z"/></g>
<g><path style="opacity:1" fill="#aa7da7" d="M 260.5,89.5 C 258.705,94.4235 256.372,99.0901 253.5,103.5C 249.225,104.576 244.892,105.243 240.5,105.5C 236.425,104.659 233.425,105.992 231.5,109.5C 228.81,112.185 225.81,114.518 222.5,116.5C 225.563,111.928 229.23,107.761 233.5,104C 239.5,103.667 245.5,103.333 251.5,103C 254.151,98.1764 257.151,93.6764 260.5,89.5 Z"/></g>
<g><path style="opacity:0.024" fill="#91a4ba" d="M 207.5,124.5 C 206.415,126.587 204.749,127.92 202.5,128.5C 203.585,126.413 205.251,125.08 207.5,124.5 Z"/></g>
<g><path style="opacity:0.996" fill="#a4a1b7" d="M 202.5,128.5 C 201.737,132.137 200.403,135.47 198.5,138.5C 198.335,135.482 198.502,132.482 199,129.5C 200.011,128.663 201.178,128.33 202.5,128.5 Z"/></g>
<g><path style="opacity:0.866" fill="#af7dac" d="M 219.5,118.5 C 215.877,121.054 211.877,123.054 207.5,124.5C 205.251,125.08 203.585,126.413 202.5,128.5C 201.178,128.33 200.011,128.663 199,129.5C 198.502,132.482 198.335,135.482 198.5,138.5C 198.5,139.833 198.5,141.167 198.5,142.5C 198.5,143.833 198.5,145.167 198.5,146.5C 197.883,146.389 197.383,146.056 197,145.5C 196.333,139.833 196.333,134.167 197,128.5C 202.25,125.459 207.417,122.292 212.5,119C 214.81,118.503 217.143,118.337 219.5,118.5 Z"/></g>
<g><path style="opacity:1" fill="#9286a6" d="M 198.5,142.5 C 200.194,145.575 201.028,148.908 201,152.5C 198.746,158.257 194.579,161.591 188.5,162.5C 183.645,161.309 178.645,161.309 173.5,162.5C 173.918,161.778 174.584,161.278 175.5,161C 180.019,160.825 184.353,160.325 188.5,159.5C 195.576,158.086 198.91,153.753 198.5,146.5C 198.5,145.167 198.5,143.833 198.5,142.5 Z"/></g>
<g><path style="opacity:1" fill="#bd88b7" d="M 188.5,159.5 C 184.353,160.325 180.019,160.825 175.5,161C 174.584,161.278 173.918,161.778 173.5,162.5C 172.508,162.328 171.842,162.662 171.5,163.5C 169.127,164.203 167.127,165.536 165.5,167.5C 166.37,164.622 167.703,161.955 169.5,159.5C 175.803,158.761 182.136,158.761 188.5,159.5 Z"/></g>
<g><path style="opacity:0.63" fill="#9dc1e1" d="M 188.5,162.5 C 182.697,162.209 177.031,162.875 171.5,164.5C 171.5,164.167 171.5,163.833 171.5,163.5C 171.842,162.662 172.508,162.328 173.5,162.5C 178.645,161.309 183.645,161.309 188.5,162.5 Z"/></g>
<g><path style="opacity:1" fill="#9580a1" d="M 340.5,169.5 C 341.129,171.997 342.796,173.33 345.5,173.5C 350.365,175.763 354.698,178.763 358.5,182.5C 359.167,183.5 359.833,184.5 360.5,185.5C 358.023,183.575 355.357,181.909 352.5,180.5C 349.623,177.305 345.956,175.638 341.5,175.5C 340.699,172.867 339.033,171.033 336.5,170C 332.376,169.144 328.21,168.644 324,168.5C 316.232,167.44 312.398,170.773 312.5,178.5C 312.5,179.167 312.5,179.833 312.5,180.5C 312.167,180.5 311.833,180.5 311.5,180.5C 309.076,174.777 310.743,170.277 316.5,167C 324.809,166.084 332.809,166.918 340.5,169.5 Z"/></g>
<g><path style="opacity:0.424" fill="#a5cff3" d="M 340.5,169.5 C 342.749,170.08 344.415,171.413 345.5,173.5C 342.796,173.33 341.129,171.997 340.5,169.5 Z"/></g>
<g><path style="opacity:1" fill="#b985b4" d="M 312.5,178.5 C 317.474,182.032 317.808,186.032 313.5,190.5C 313.747,187.061 313.414,183.728 312.5,180.5C 312.5,179.833 312.5,179.167 312.5,178.5 Z"/></g>
<g><path style="opacity:1" fill="#ba87b5" d="M 352.5,180.5 C 355.357,181.909 358.023,183.575 360.5,185.5C 362.209,187.813 364.543,189.313 367.5,190C 370.817,190.498 374.15,190.665 377.5,190.5C 382.032,190.182 386.366,190.515 390.5,191.5C 381.757,191.494 373.09,191.994 364.5,193C 360.296,188.964 356.296,184.798 352.5,180.5 Z"/></g>
<g><path style="opacity:0.212" fill="#a6d3f7" d="M 358.5,182.5 C 361.37,183.433 363.704,185.1 365.5,187.5C 363.833,186.833 362.167,186.167 360.5,185.5C 359.833,184.5 359.167,183.5 358.5,182.5 Z"/></g>
<g><path style="opacity:0.737" fill="#9e789e" d="M 171.5,163.5 C 171.5,163.833 171.5,164.167 171.5,164.5C 168.861,166.309 166.694,168.642 165,171.5C 161.99,180.572 159.156,189.572 156.5,198.5C 157.836,190.152 159.336,181.819 161,173.5C 162.277,171.253 163.777,169.253 165.5,167.5C 167.127,165.536 169.127,164.203 171.5,163.5 Z"/></g>
<g><path style="opacity:0.929" fill="#8b9cb0" d="M 360.5,185.5 C 362.167,186.167 363.833,186.833 365.5,187.5C 369.227,189.252 373.227,189.919 377.5,189.5C 377.5,189.833 377.5,190.167 377.5,190.5C 374.15,190.665 370.817,190.498 367.5,190C 364.543,189.313 362.209,187.813 360.5,185.5 Z"/></g>
<g><path style="opacity:1" fill="#938aa4" d="M 311.5,180.5 C 311.833,180.5 312.167,180.5 312.5,180.5C 313.414,183.728 313.747,187.061 313.5,190.5C 311.778,194.13 310.444,197.963 309.5,202C 309.648,203.256 309.982,204.423 310.5,205.5C 312.148,209.977 311.481,213.977 308.5,217.5C 309.16,215.184 309.827,212.851 310.5,210.5C 309.641,207.949 308.641,205.449 307.5,203C 310.035,195.698 311.368,188.198 311.5,180.5 Z"/></g>
<g><path style="opacity:0.98" fill="#8a7a98" d="M 377.5,190.5 C 377.5,190.167 377.5,189.833 377.5,189.5C 386.325,188.473 394.659,189.973 402.5,194C 409.957,201.282 411.79,209.782 408,219.5C 406.643,222.898 404.81,225.898 402.5,228.5C 401.637,229.463 400.97,229.463 400.5,228.5C 403.527,223.779 406.027,218.779 408,213.5C 409.099,200.712 403.265,193.379 390.5,191.5C 386.366,190.515 382.032,190.182 377.5,190.5 Z"/></g>
<g><path style="opacity:0.839" fill="#a674a2" d="M 155.5,200.5 C 154.061,202.36 152.395,204.027 150.5,205.5C 150.632,202.203 152.298,200.537 155.5,200.5 Z"/></g>
<g><path style="opacity:0.58" fill="#ceb2a0" d="M 65.5,201.5 C 66.9758,203.709 66.3091,205.042 63.5,205.5C 64.6005,204.395 65.2671,203.062 65.5,201.5 Z"/></g>
<g><path style="opacity:1" fill="#ae79aa" d="M 150.5,205.5 C 150.784,207.415 150.451,209.081 149.5,210.5C 148.532,212.607 148.198,214.941 148.5,217.5C 147.335,216.504 146.668,215.171 146.5,213.5C 147.334,210.498 148.667,207.832 150.5,205.5 Z"/></g>
<g><path style="opacity:0.992" fill="#928ba8" d="M 216.5,218.5 C 215.167,218.5 213.833,218.5 212.5,218.5C 207.467,216.29 202.467,216.624 197.5,219.5C 195.784,219.629 194.117,219.962 192.5,220.5C 194.428,218.526 196.761,217.026 199.5,216C 203.5,215.333 207.5,215.333 211.5,216C 213.491,216.374 215.158,217.207 216.5,218.5 Z"/></g>
<g><path style="opacity:0.773" fill="#9c91a3" d="M 308.5,218.5 C 307.415,220.587 305.749,221.92 303.5,222.5C 304.585,220.413 306.251,219.08 308.5,218.5 Z"/></g>
<g><path style="opacity:1" fill="#8f7996" d="M 149.5,210.5 C 151.128,216.74 150.795,222.74 148.5,228.5C 148.5,227.5 148.5,226.5 148.5,225.5C 148.5,222.833 148.5,220.167 148.5,217.5C 148.198,214.941 148.532,212.607 149.5,210.5 Z"/></g>
<g><path style="opacity:1" fill="#af7baa" d="M 212.5,218.5 C 213.833,218.5 215.167,218.5 216.5,218.5C 216.511,220.017 217.177,221.184 218.5,222C 225.528,222.675 232.528,222.508 239.5,221.5C 238.4,222.558 237.066,223.392 235.5,224C 229.833,224.667 224.167,224.667 218.5,224C 216.604,221.932 214.604,220.099 212.5,218.5 Z"/></g>
<g><path style="opacity:1" fill="#9f7a9e" d="M 240.5,221.5 C 240.5,221.167 240.5,220.833 240.5,220.5C 249.688,220.645 258.688,221.311 267.5,222.5C 263.141,222.466 258.808,222.799 254.5,223.5C 249.873,222.509 245.206,221.843 240.5,221.5 Z"/></g>
<g><path style="opacity:0.947" fill="#8c91a3" d="M 216.5,218.5 C 217.973,219.072 219.307,219.905 220.5,221C 227.175,221.389 233.841,221.222 240.5,220.5C 240.5,220.833 240.5,221.167 240.5,221.5C 240.167,221.5 239.833,221.5 239.5,221.5C 232.528,222.508 225.528,222.675 218.5,222C 217.177,221.184 216.511,220.017 216.5,218.5 Z"/></g>
<g><path style="opacity:0.482" fill="#d1bc96" d="M 57.5,221.5 C 54.4954,223.277 51.1621,224.277 47.5,224.5C 50.5046,222.723 53.8379,221.723 57.5,221.5 Z"/></g>
<g><path style="opacity:0.996" fill="#9698b0" d="M 192.5,220.5 C 190.614,223.948 187.614,225.614 183.5,225.5C 186.008,223.076 189.008,221.41 192.5,220.5 Z"/></g>
<g><path style="opacity:1" fill="#a678a3" d="M 267.5,222.5 C 270.912,223.042 273.912,224.375 276.5,226.5C 278.607,227.468 280.941,227.802 283.5,227.5C 281.881,229.238 279.881,229.738 277.5,229C 273.931,227.058 270.598,224.892 267.5,222.5 Z"/></g>
<g><path style="opacity:1" fill="#ccafa1" d="M 47.5,224.5 C 45.5615,226.163 43.2282,226.829 40.5,226.5C 42.5145,225.076 44.8478,224.41 47.5,224.5 Z"/></g>
<g><path style="opacity:1" fill="#93809a" d="M 296.5,226.5 C 293.713,227.477 290.713,227.81 287.5,227.5C 286.167,227.5 284.833,227.5 283.5,227.5C 280.941,227.802 278.607,227.468 276.5,226.5C 283.139,225.635 289.805,225.635 296.5,226.5 Z"/></g>
<g><path style="opacity:0.973" fill="#b480af" d="M 310.5,205.5 C 311.496,205.414 312.329,205.748 313,206.5C 313.424,211.881 312.257,216.881 309.5,221.5C 305.167,224 300.833,226.5 296.5,229C 293.183,229.781 290.183,229.281 287.5,227.5C 290.713,227.81 293.713,227.477 296.5,226.5C 298.833,225.167 301.167,223.833 303.5,222.5C 305.749,221.92 307.415,220.587 308.5,218.5C 308.5,218.167 308.5,217.833 308.5,217.5C 311.481,213.977 312.148,209.977 310.5,205.5 Z"/></g>
<g><path style="opacity:0.992" fill="#caa9a5" d="M 40.5,226.5 C 38.8984,228.074 36.8984,228.741 34.5,228.5C 36.2143,227.262 38.2143,226.595 40.5,226.5 Z"/></g>
<g><path style="opacity:1" fill="#c091ae" d="M 399.5,232.5 C 396.213,236.959 392.713,241.292 389,245.5C 388.454,248.379 387.621,251.046 386.5,253.5C 386.805,250.586 386.805,247.919 386.5,245.5C 390.455,240.373 394.622,235.373 399,230.5C 399.464,231.094 399.631,231.761 399.5,232.5 Z"/></g>
<g><path style="opacity:1" fill="#b07dab" d="M 197.5,219.5 C 193.568,222.479 189.568,225.479 185.5,228.5C 182.167,233.833 178.833,239.167 175.5,244.5C 170.453,248.023 165.12,251.023 159.5,253.5C 157.056,252.778 154.722,251.778 152.5,250.5C 145.983,242.998 144.65,234.665 148.5,225.5C 148.5,226.5 148.5,227.5 148.5,228.5C 147.527,234.318 148.36,239.985 151,245.5C 151.417,246.756 152.25,247.423 153.5,247.5C 153.5,247.833 153.5,248.167 153.5,248.5C 156.552,251.979 159.886,252.313 163.5,249.5C 164.514,248.326 165.847,247.66 167.5,247.5C 172.179,244.903 176.012,241.236 179,236.5C 180.009,234.975 180.509,233.308 180.5,231.5C 182.008,229.819 183.008,227.819 183.5,225.5C 187.614,225.614 190.614,223.948 192.5,220.5C 194.117,219.962 195.784,219.629 197.5,219.5 Z"/></g>
<g><path style="opacity:0.918" fill="#9094a7" d="M 180.5,231.5 C 180.509,233.308 180.009,234.975 179,236.5C 176.012,241.236 172.179,244.903 167.5,247.5C 168.973,245.605 170.64,243.939 172.5,242.5C 175.423,238.973 178.09,235.306 180.5,231.5 Z"/></g>
<g><path style="opacity:0.482" fill="#a0c8e9" d="M 183.5,225.5 C 183.008,227.819 182.008,229.819 180.5,231.5C 180.461,228.911 181.461,226.911 183.5,225.5 Z"/></g>
<g><path style="opacity:0.387" fill="#a5d1f5" d="M 172.5,242.5 C 170.64,243.939 168.973,245.605 167.5,247.5C 165.847,247.66 164.514,248.326 163.5,249.5C 160.098,249.658 156.764,249.324 153.5,248.5C 153.5,248.167 153.5,247.833 153.5,247.5C 156.469,248.329 159.469,248.495 162.5,248C 165.74,245.909 169.074,244.076 172.5,242.5 Z"/></g>
<g><path style="opacity:0.986" fill="#9797ab" d="M 153.5,248.5 C 156.764,249.324 160.098,249.658 163.5,249.5C 159.886,252.313 156.552,251.979 153.5,248.5 Z"/></g>
<g><path style="opacity:1" fill="#b980b1" d="M 386.5,245.5 C 386.805,247.919 386.805,250.586 386.5,253.5C 386.167,256.167 385.833,258.833 385.5,261.5C 374.167,261.5 362.833,261.5 351.5,261.5C 351.5,263.5 351.5,265.5 351.5,267.5C 350.532,265.393 350.198,263.059 350.5,260.5C 361.321,259.505 372.321,259.172 383.5,259.5C 383.954,254.596 384.954,249.93 386.5,245.5 Z"/></g>
<g><path style="opacity:0.918" fill="#bc87ae" d="M 36.5,280.5 C 29.2286,284.472 21.8953,288.472 14.5,292.5C 17.2847,299.629 18.7847,306.962 19,314.5C 13.6667,320.5 8.33333,326.5 3,332.5C 4.1607,338.502 5.6607,344.502 7.5,350.5C 5.83441,355.164 3.16774,359.164 -0.5,362.5C -0.5,361.5 -0.5,360.5 -0.5,359.5C 2.04014,357.114 4.04014,354.281 5.5,351C 2.94245,345.014 1.44245,338.847 1,332.5C 6.9941,325.822 12.4941,318.822 17.5,311.5C 15.7549,305.353 14.0882,299.186 12.5,293C 12.8333,292.167 13.1667,291.333 13.5,290.5C 21.0821,286.873 28.7488,283.54 36.5,280.5 Z"/></g>
<g><path style="opacity:0.669" fill="#b980b1" d="M 350.5,260.5 C 350.198,263.059 350.532,265.393 351.5,267.5C 345.726,274.197 340.059,281.031 334.5,288C 338.973,297.111 343.306,306.278 347.5,315.5C 345.621,319.553 343.121,323.22 340,326.5C 337.765,333.712 335.265,340.712 332.5,347.5C 333.571,335.153 338.237,324.487 346.5,315.5C 341.561,306.621 336.894,297.621 332.5,288.5C 337.402,281.423 342.902,274.756 349,268.5C 349.183,265.635 349.683,262.969 350.5,260.5 Z"/></g>
<g><path style="opacity:0.564" fill="#a5a2c3" d="M 255.5,373.5 C 254.275,374.152 253.608,375.319 253.5,377C 253.108,381.022 252.442,384.855 251.5,388.5C 251.324,383.12 251.658,377.787 252.5,372.5C 253.791,372.263 254.791,372.596 255.5,373.5 Z"/></g>
<g><path style="opacity:1" fill="#b685b5" d="M -0.5,370.5 C 11.2997,382.962 21.9664,396.295 31.5,410.5C 30.8333,410.5 30.1667,410.5 29.5,410.5C 20.2511,397.582 10.2511,385.248 -0.5,373.5C -0.5,372.5 -0.5,371.5 -0.5,370.5 Z"/></g>
<g><path style="opacity:1" fill="#b682b3" d="M 328.5,349.5 C 320.923,360.909 312.423,371.576 303,381.5C 299.928,380.047 297.095,378.213 294.5,376C 281.51,374.937 268.51,374.103 255.5,373.5C 254.791,372.596 253.791,372.263 252.5,372.5C 251.658,377.787 251.324,383.12 251.5,388.5C 251.33,393.859 250.83,399.192 250,404.5C 244.1,406.592 238.267,408.592 232.5,410.5C 225.833,410.5 219.167,410.5 212.5,410.5C 207,408.533 201.333,406.7 195.5,405C 194.577,402.959 194.244,400.792 194.5,398.5C 187.53,396.403 180.864,393.737 174.5,390.5C 172.574,388.707 170.241,387.707 167.5,387.5C 163.239,383.035 160.906,384.035 160.5,390.5C 157.737,397.024 154.737,403.357 151.5,409.5C 154.028,401.753 156.861,394.087 160,386.5C 160.347,384.82 161.347,383.82 163,383.5C 174.344,388.088 185.511,393.088 196.5,398.5C 197.036,400.969 198.036,403.136 199.5,405C 207.96,407.952 216.626,409.285 225.5,409C 233.119,407.176 240.786,405.676 248.5,404.5C 248.805,393.476 249.472,382.476 250.5,371.5C 265.546,371.479 280.546,372.313 295.5,374C 298,375.833 300.5,377.667 303,379.5C 311.281,369.243 319.781,359.243 328.5,349.5 Z"/></g>
<g><path style="opacity:0.41" fill="#a5a3c3" d="M 167.5,387.5 C 166.07,387.579 164.736,387.246 163.5,386.5C 162.479,387.901 161.479,389.235 160.5,390.5C 160.906,384.035 163.239,383.035 167.5,387.5 Z"/></g>
<g><path style="opacity:0.137" fill="#a3a4c3" d="M 167.5,387.5 C 170.241,387.707 172.574,388.707 174.5,390.5C 171.759,390.293 169.426,389.293 167.5,387.5 Z"/></g>
<g><path style="opacity:0.867" fill="#b580b2" d="M 88.5,409.5 C 77.7725,407.888 67.1059,405.888 56.5,403.5C 52.6589,404.666 49.6589,406.999 47.5,410.5C 46.5,410.5 45.5,410.5 44.5,410.5C 46.9619,407.536 49.6286,404.703 52.5,402C 64.8263,403.251 76.8263,405.751 88.5,409.5 Z"/></g>
</svg>
