<?xml version="1.0" encoding="UTF-8"?>
<!DOCTYPE svg PUBLIC "-//W3C//DTD SVG 1.1//EN" "http://www.w3.org/Graphics/SVG/1.1/DTD/svg11.dtd">
<svg xmlns="http://www.w3.org/2000/svg" version="1.1" width="737px" height="504px" style="shape-rendering:geometricPrecision; text-rendering:geometricPrecision; image-rendering:optimizeQuality; fill-rule:evenodd; clip-rule:evenodd" xmlns:xlink="http://www.w3.org/1999/xlink">
<g><path style="opacity:0.698" fill="#85a09e" d="M 624.5,8.5 C 624.167,8.5 623.833,8.5 623.5,8.5C 619.629,8.18503 615.962,8.51836 612.5,9.5C 608.104,10.1963 603.77,11.1963 599.5,12.5C 597.41,12.4274 595.41,12.094 593.5,11.5C 593.5,11.1667 593.5,10.8333 593.5,10.5C 601.684,9.69692 609.851,8.69692 618,7.5C 620.361,7.50393 622.527,7.83726 624.5,8.5 Z"/></g>
<g><path style="opacity:1" fill="#cde8d5" d="M 593.5,11.5 C 595.41,12.094 597.41,12.4274 599.5,12.5C 603.77,11.1963 608.104,10.1963 612.5,9.5C 615.777,9.21614 618.943,9.54948 622,10.5C 625.736,19.8736 629.569,29.207 633.5,38.5C 637.345,40.128 641.345,41.128 645.5,41.5C 646.738,43.2143 647.405,45.2143 647.5,47.5C 649.361,56.609 651.694,65.609 654.5,74.5C 658.043,75.969 661.709,76.969 665.5,77.5C 663.688,90.8062 662.021,104.139 660.5,117.5C 660.667,119.5 660.833,121.5 661,123.5C 661.5,124 662,124.5 662.5,125C 670.556,125.279 678.556,124.612 686.5,123C 689.42,119.573 692.753,116.739 696.5,114.5C 705.167,117.333 713.833,120.167 722.5,123C 719.148,129.904 716.482,137.07 714.5,144.5C 719.447,155.727 724.947,166.727 731,177.5C 731.781,178.944 731.614,180.277 730.5,181.5C 728.581,182.612 726.914,183.946 725.5,185.5C 724.504,185.414 723.671,185.748 723,186.5C 722.738,196.387 721.905,206.22 720.5,216C 720.686,220.079 721.353,224.079 722.5,228C 720.056,232.616 717.389,237.116 714.5,241.5C 717.637,249.575 720.97,257.575 724.5,265.5C 723.873,266.417 723.539,267.417 723.5,268.5C 720.932,277.216 717.599,285.549 713.5,293.5C 712.733,294.172 712.066,295.005 711.5,296C 708.447,296.179 705.447,296.679 702.5,297.5C 697.329,309.177 693.495,321.177 691,333.5C 693.333,335.833 695.667,338.167 698,340.5C 698.831,347.524 698.664,354.524 697.5,361.5C 695.833,362.667 694.167,363.833 692.5,365C 685.53,364.34 678.53,364.007 671.5,364C 667.917,368.09 663.917,371.59 659.5,374.5C 650.68,372.753 641.846,371.086 633,369.5C 620.247,371.196 607.413,372.029 594.5,372C 592.571,374.438 590.238,376.272 587.5,377.5C 576.523,374.672 565.523,372.006 554.5,369.5C 554.5,368.5 554.5,367.5 554.5,366.5C 551.482,366.335 548.482,366.502 545.5,367C 542,370.5 538.5,374 535,377.5C 531.667,384.833 528.333,392.167 525,399.5C 520.667,402.167 516.333,404.833 512,407.5C 511.167,406.667 510.333,405.833 509.5,405C 494.822,404.833 480.155,404.333 465.5,403.5C 460.525,400.757 455.192,399.59 449.5,400C 442.833,404.667 436.167,409.333 429.5,414C 427.5,417 425.5,420 423.5,423C 418.295,424.173 413.128,425.34 408,426.5C 406.228,436.192 404.395,445.858 402.5,455.5C 392.494,455.334 382.494,455.5 372.5,456C 370.89,464.051 369.89,472.218 369.5,480.5C 360.764,482.689 352.097,485.189 343.5,488C 331.167,488.333 318.833,488.667 306.5,489C 305.619,489.708 304.953,490.542 304.5,491.5C 301.785,493.072 298.785,494.072 295.5,494.5C 286.842,493.571 278.175,493.071 269.5,493C 263.731,496.301 257.897,499.468 252,502.5C 250.233,501.66 248.899,500.327 248,498.5C 245.167,493.5 242.333,488.5 239.5,483.5C 234.702,481.285 229.702,480.452 224.5,481C 218.5,485.333 212.5,489.667 206.5,494C 203.5,494.667 200.5,494.667 197.5,494C 193.672,483.85 189.838,473.683 186,463.5C 181.973,461.612 177.806,459.945 173.5,458.5C 170,450.833 166.5,443.167 163,435.5C 163.593,429.193 163.926,422.86 164,416.5C 161.542,411.747 158.708,407.247 155.5,403C 146.763,402.533 138.097,403.199 129.5,405C 126.971,407.029 124.304,408.862 121.5,410.5C 112.029,404.195 102.695,397.695 93.5,391C 79.5,390.333 65.5,390.333 51.5,391C 49.8726,393.754 48.3726,396.588 47,399.5C 46.2825,400.451 45.4491,400.617 44.5,400C 34.6558,390.988 24.9891,381.822 15.5,372.5C 17.9703,366.588 20.1369,360.588 22,354.5C 26.3333,349.5 30.6667,344.5 35,339.5C 35.8371,335.852 35.3371,332.519 33.5,329.5C 32.7883,324.653 31.455,319.986 29.5,315.5C 24.204,313.568 18.8707,311.735 13.5,310C 13.0426,309.586 12.7093,309.086 12.5,308.5C 16.0988,298.204 19.5988,287.87 23,277.5C 26.3495,273.439 27.3495,268.773 26,263.5C 25.4911,258.77 24.6578,254.103 23.5,249.5C 15.4661,245.11 7.46607,240.776 -0.5,236.5C -0.5,235.5 -0.5,234.5 -0.5,233.5C 3.59773,231.952 7.59773,230.119 11.5,228C 14.146,227.503 16.8127,227.336 19.5,227.5C 21.4147,227.216 23.0813,227.549 24.5,228.5C 35.75,231.551 45.75,237.051 54.5,245C 57.5397,247.155 60.373,246.988 63,244.5C 64.587,239.232 65.9203,233.899 67,228.5C 69.6417,225.971 72.8084,224.971 76.5,225.5C 78.0905,227.633 80.0905,229.299 82.5,230.5C 83.5434,233.056 85.2101,235.223 87.5,237C 91.8206,237.499 96.1539,237.666 100.5,237.5C 102.607,238.3 104.774,238.967 107,239.5C 112.357,237.421 116.857,238.421 120.5,242.5C 123.263,246.435 126.763,249.435 131,251.5C 137.831,249.668 144.664,247.834 151.5,246C 153.996,244.669 155.996,242.836 157.5,240.5C 160.619,238.709 162.619,236.042 163.5,232.5C 165.263,228.04 166.763,223.373 168,218.5C 170.157,215.024 172.99,212.357 176.5,210.5C 179.059,210.198 181.393,210.532 183.5,211.5C 189.631,217.755 195.298,224.422 200.5,231.5C 201.338,231.842 201.672,232.508 201.5,233.5C 201.328,234.492 201.662,235.158 202.5,235.5C 203.919,238.1 205.585,240.6 207.5,243C 214.011,245.298 220.677,246.298 227.5,246C 228.056,245.617 228.389,245.117 228.5,244.5C 230.891,241.083 234.225,239.75 238.5,240.5C 243.935,242.176 249.602,242.676 255.5,242C 256.71,240.961 257.71,239.794 258.5,238.5C 261.054,237.612 263.721,237.279 266.5,237.5C 272.274,238.946 278.274,239.612 284.5,239.5C 283.5,234.167 282.5,228.833 281.5,223.5C 281.629,221.784 281.962,220.117 282.5,218.5C 284.65,216.24 286.817,213.907 289,211.5C 293.453,201.819 296.453,191.819 298,181.5C 295.931,179.915 293.764,178.581 291.5,177.5C 288.911,176.581 286.911,174.914 285.5,172.5C 284.559,170.534 283.559,168.534 282.5,166.5C 276.303,163.967 271.303,159.967 267.5,154.5C 266.662,154.158 266.328,153.492 266.5,152.5C 266.055,147.899 266.722,143.565 268.5,139.5C 272.958,135.751 273.625,131.417 270.5,126.5C 270.597,118.385 273.264,111.385 278.5,105.5C 280.527,104.063 282.694,102.73 285,101.5C 285.49,100.207 285.657,98.8734 285.5,97.5C 288.723,90.6137 293.389,84.947 299.5,80.5C 304.384,79.0976 309.384,78.431 314.5,78.5C 319.59,80.2417 324.923,80.7417 330.5,80C 332.996,78.669 334.996,76.8356 336.5,74.5C 345.041,68.9299 354.374,66.0965 364.5,66C 366.078,67.0945 367.745,67.9278 369.5,68.5C 370.5,69.8333 371.5,71.1667 372.5,72.5C 374.101,75.77 376.434,78.4367 379.5,80.5C 382.853,79.1728 386.186,79.1728 389.5,80.5C 391.992,83.6747 395.326,85.3414 399.5,85.5C 400.29,86.4013 401.29,87.0679 402.5,87.5C 405.519,89.3371 408.852,89.8371 412.5,89C 417.418,87.0363 422.085,84.8696 426.5,82.5C 431.597,79.2524 436.597,75.7524 441.5,72C 443.847,71.6664 446.181,71.833 448.5,72.5C 449.833,74.5 451.5,76.1667 453.5,77.5C 454.674,78.5137 455.34,79.847 455.5,81.5C 455.771,90.092 460.104,94.7587 468.5,95.5C 470.522,97.5313 472.189,99.8646 473.5,102.5C 472.839,105.488 472.172,108.488 471.5,111.5C 471.561,114.628 472.894,116.961 475.5,118.5C 478.5,121.167 481.5,123.833 484.5,126.5C 485.906,126.973 486.573,127.973 486.5,129.5C 487.837,133.673 489.837,137.506 492.5,141C 497.419,141.802 502.252,141.635 507,140.5C 509.253,126.578 509.92,112.578 509,98.5C 507.871,96.8588 506.371,95.8588 504.5,95.5C 503.946,92.2542 502.946,89.2542 501.5,86.5C 501.267,84.9382 500.6,83.6049 499.5,82.5C 496.467,76.7011 497.133,71.3677 501.5,66.5C 503.933,64.3824 505.6,61.7157 506.5,58.5C 505.905,56.2385 504.571,54.5719 502.5,53.5C 502.013,52.5266 501.513,51.5266 501,50.5C 500.333,42.8333 500.333,35.1667 501,27.5C 506.388,19.88 513.555,16.88 522.5,18.5C 524.278,20.8937 526.611,22.5604 529.5,23.5C 532.566,21.4367 534.899,18.77 536.5,15.5C 539.234,12.8574 542.567,11.8574 546.5,12.5C 551.681,18.688 557.347,19.0214 563.5,13.5C 564.5,12.8333 565.5,12.1667 566.5,11.5C 572.442,11.7629 578.276,11.0962 584,9.5C 587.112,10.4831 590.278,11.1497 593.5,11.5 Z"/></g>
<g><path style="opacity:1" fill="#83a194" d="M 593.5,10.5 C 593.5,10.8333 593.5,11.1667 593.5,11.5C 590.278,11.1497 587.112,10.4831 584,9.5C 578.276,11.0962 572.442,11.7629 566.5,11.5C 575.34,8.15519 584.34,7.82186 593.5,10.5 Z"/></g>
<g><path style="opacity:0.282" fill="#8dd189" d="M 623.5,8.5 C 623.833,8.5 624.167,8.5 624.5,8.5C 625.566,10.7014 626.233,13.0347 626.5,15.5C 624.935,13.4907 623.935,11.1573 623.5,8.5 Z"/></g>
<g><path style="opacity:0.973" fill="#8ba3ad" d="M 566.5,11.5 C 565.5,12.1667 564.5,12.8333 563.5,13.5C 560.864,13.964 558.197,14.2973 555.5,14.5C 552.795,14.6839 550.462,14.0173 548.5,12.5C 554.529,12.5745 560.529,12.2412 566.5,11.5 Z"/></g>
<g><path style="opacity:1" fill="#a3cbb0" d="M 546.5,12.5 C 547.167,12.5 547.833,12.5 548.5,12.5C 550.462,14.0173 552.795,14.6839 555.5,14.5C 558.197,14.2973 560.864,13.964 563.5,13.5C 557.347,19.0214 551.681,18.688 546.5,12.5 Z"/></g>
<g><path style="opacity:1" fill="#a8d0b5" d="M 536.5,15.5 C 534.899,18.77 532.566,21.4367 529.5,23.5C 526.611,22.5604 524.278,20.8937 522.5,18.5C 527.779,20.2874 532.446,19.2874 536.5,15.5 Z"/></g>
<g><path style="opacity:1" fill="#9bcba5" d="M 612.5,9.5 C 615.962,8.51836 619.629,8.18503 623.5,8.5C 623.935,11.1573 624.935,13.4907 626.5,15.5C 629.738,22.5406 632.405,29.8739 634.5,37.5C 638.537,38.0653 642.203,39.3987 645.5,41.5C 641.345,41.128 637.345,40.128 633.5,38.5C 629.569,29.207 625.736,19.8736 622,10.5C 618.943,9.54948 615.777,9.21614 612.5,9.5 Z"/></g>
<g><path style="opacity:0.871" fill="#87a3a3" d="M 548.5,12.5 C 547.833,12.5 547.167,12.5 546.5,12.5C 542.567,11.8574 539.234,12.8574 536.5,15.5C 532.446,19.2874 527.779,20.2874 522.5,18.5C 513.555,16.88 506.388,19.88 501,27.5C 500.333,35.1667 500.333,42.8333 501,50.5C 501.513,51.5266 502.013,52.5266 502.5,53.5C 502.813,57.0419 502.479,60.3752 501.5,63.5C 501.81,60.2869 501.477,57.2869 500.5,54.5C 499.342,45.3425 499.176,36.0092 500,26.5C 502.289,21.5874 506.123,18.4207 511.5,17C 518.167,16.6667 524.833,16.3333 531.5,16C 536.583,11.5912 542.249,10.4245 548.5,12.5 Z"/></g>
<g><path style="opacity:1" fill="#a4cab1" d="M 502.5,53.5 C 504.571,54.5719 505.905,56.2385 506.5,58.5C 505.6,61.7157 503.933,64.3824 501.5,66.5C 501.5,65.5 501.5,64.5 501.5,63.5C 502.479,60.3752 502.813,57.0419 502.5,53.5 Z"/></g>
<g><path style="opacity:0.41" fill="#a2d1f0" d="M 500.5,54.5 C 501.477,57.2869 501.81,60.2869 501.5,63.5C 498.165,67.5163 496.498,72.183 496.5,77.5C 495.371,75.3718 495.204,73.0385 496,70.5C 499.557,65.7269 501.057,60.3936 500.5,54.5 Z"/></g>
<g><path style="opacity:0.984" fill="#7c968e" d="M 501.5,63.5 C 501.5,64.5 501.5,65.5 501.5,66.5C 497.133,71.3677 496.467,76.7011 499.5,82.5C 497.75,81.3406 496.75,79.674 496.5,77.5C 496.498,72.183 498.165,67.5163 501.5,63.5 Z"/></g>
<g><path style="opacity:0.58" fill="#849fa0" d="M 369.5,68.5 C 367.745,67.9278 366.078,67.0945 364.5,66C 354.374,66.0965 345.041,68.9299 336.5,74.5C 333.081,75.3738 329.748,76.5405 326.5,78C 322.514,78.4988 318.514,78.6655 314.5,78.5C 309.384,78.431 304.384,79.0976 299.5,80.5C 301.277,79.3995 303.277,78.5662 305.5,78C 311.5,77.6667 317.5,77.3333 323.5,77C 333.715,73.5597 343.715,69.5597 353.5,65C 357.833,64.3333 362.167,64.3333 366.5,65C 367.71,66.0391 368.71,67.2058 369.5,68.5 Z"/></g>
<g><path style="opacity:0.035" fill="#899b98" d="M 448.5,72.5 C 451.167,73.1667 452.833,74.8333 453.5,77.5C 451.5,76.1667 449.833,74.5 448.5,72.5 Z"/></g>
<g><path style="opacity:0.957" fill="#89a4ad" d="M 369.5,68.5 C 374.713,72.6066 380.38,75.9399 386.5,78.5C 380.872,78.6846 376.205,76.6846 372.5,72.5C 371.5,71.1667 370.5,69.8333 369.5,68.5 Z"/></g>
<g><path style="opacity:0.973" fill="#87a3a8" d="M 448.5,72.5 C 446.181,71.833 443.847,71.6664 441.5,72C 436.597,75.7524 431.597,79.2524 426.5,82.5C 424.883,83.038 423.216,83.3713 421.5,83.5C 427.265,79.5827 432.932,75.416 438.5,71C 441.167,70.3333 443.833,70.3333 446.5,71C 447.416,71.2784 448.082,71.7784 448.5,72.5 Z"/></g>
<g><path style="opacity:1" fill="#a0c9ae" d="M 336.5,74.5 C 334.996,76.8356 332.996,78.669 330.5,80C 324.923,80.7417 319.59,80.2417 314.5,78.5C 318.514,78.6655 322.514,78.4988 326.5,78C 329.748,76.5405 333.081,75.3738 336.5,74.5 Z"/></g>
<g><path style="opacity:1" fill="#9ec3ab" d="M 372.5,72.5 C 376.205,76.6846 380.872,78.6846 386.5,78.5C 388.027,78.427 389.027,79.0937 389.5,80.5C 386.186,79.1728 382.853,79.1728 379.5,80.5C 376.434,78.4367 374.101,75.77 372.5,72.5 Z"/></g>
<g><path style="opacity:0.749" fill="#859f95" d="M 389.5,80.5 C 393.151,81.6589 396.485,83.3256 399.5,85.5C 395.326,85.3414 391.992,83.6747 389.5,80.5 Z"/></g>
<g><path style="opacity:0.893" fill="#859a9c" d="M 399.5,85.5 C 405.189,86.5074 410.856,86.5074 416.5,85.5C 415.737,86.2679 414.737,86.7679 413.5,87C 409.848,87.4986 406.182,87.6653 402.5,87.5C 401.29,87.0679 400.29,86.4013 399.5,85.5 Z"/></g>
<g><path style="opacity:0.882" fill="#a1ceee" d="M 291.5,85.5 C 289.823,87.5398 288.156,89.5398 286.5,91.5C 286.772,88.2678 288.438,86.2678 291.5,85.5 Z"/></g>
<g><path style="opacity:0.588" fill="#98bbd5" d="M 459.5,85.5 C 462.243,87.2393 464.243,89.5726 465.5,92.5C 462.029,91.3668 460.029,89.0334 459.5,85.5 Z"/></g>
<g><path style="opacity:1" fill="#9dc4a9" d="M 426.5,82.5 C 422.085,84.8696 417.418,87.0363 412.5,89C 408.852,89.8371 405.519,89.3371 402.5,87.5C 406.182,87.6653 409.848,87.4986 413.5,87C 414.737,86.7679 415.737,86.2679 416.5,85.5C 418.05,84.5592 419.716,83.8925 421.5,83.5C 423.216,83.3713 424.883,83.038 426.5,82.5 Z"/></g>
<g><path style="opacity:1" fill="#9cc0a9" d="M 455.5,81.5 C 456.473,83.1392 457.806,84.4726 459.5,85.5C 460.029,89.0334 462.029,91.3668 465.5,92.5C 466.833,93.1667 467.833,94.1667 468.5,95.5C 460.104,94.7587 455.771,90.092 455.5,81.5 Z"/></g>
<g><path style="opacity:0.988" fill="#7e9796" d="M 501.5,86.5 C 502.946,89.2542 503.946,92.2542 504.5,95.5C 503.542,95.0472 502.708,94.3805 502,93.5C 501.503,91.1902 501.337,88.8568 501.5,86.5 Z"/></g>
<g><path style="opacity:1" fill="#9ec7ac" d="M 285.5,97.5 C 285.657,98.8734 285.49,100.207 285,101.5C 282.694,102.73 280.527,104.063 278.5,105.5C 280.833,102.833 283.167,100.167 285.5,97.5 Z"/></g>
<g><path style="opacity:0.914" fill="#849fa1" d="M 299.5,80.5 C 293.389,84.947 288.723,90.6137 285.5,97.5C 283.167,100.167 280.833,102.833 278.5,105.5C 273.264,111.385 270.597,118.385 270.5,126.5C 270.731,130.993 270.064,135.326 268.5,139.5C 266.722,143.565 266.055,147.899 266.5,152.5C 263.639,146.716 264.139,141.05 268,135.5C 267.827,127.217 269.16,119.217 272,111.5C 276.737,104.622 281.57,97.9554 286.5,91.5C 288.156,89.5398 289.823,87.5398 291.5,85.5C 293.822,83.336 296.489,81.6693 299.5,80.5 Z"/></g>
<g><path style="opacity:0.536" fill="#879eac" d="M 505.5,99.5 C 506.931,99.8807 507.764,100.881 508,102.5C 508.819,108.681 508.653,114.681 507.5,120.5C 507.892,113.368 507.225,106.368 505.5,99.5 Z"/></g>
<g><path style="opacity:1" fill="#94b6a1" d="M 473.5,102.5 C 474.167,107.167 474.833,111.833 475.5,116.5C 475.5,117.167 475.5,117.833 475.5,118.5C 472.894,116.961 471.561,114.628 471.5,111.5C 472.172,108.488 472.839,105.488 473.5,102.5 Z"/></g>
<g><path style="opacity:1" fill="#9ccaa8" d="M 647.5,47.5 C 650.941,55.4917 653.607,63.825 655.5,72.5C 658.94,73.0906 662.273,74.0906 665.5,75.5C 665.833,77.1667 666.167,78.8333 666.5,80.5C 664.872,94.8134 663.539,109.147 662.5,123.5C 670.195,122.996 677.861,122.163 685.5,121C 688.464,117.356 691.964,114.522 696,112.5C 705.094,115.477 714.261,118.143 723.5,120.5C 721.788,128.974 719.455,137.308 716.5,145.5C 722.276,157.111 728.276,168.611 734.5,180C 732.202,182.823 729.202,184.657 725.5,185.5C 726.914,183.946 728.581,182.612 730.5,181.5C 731.614,180.277 731.781,178.944 731,177.5C 724.947,166.727 719.447,155.727 714.5,144.5C 716.482,137.07 719.148,129.904 722.5,123C 713.833,120.167 705.167,117.333 696.5,114.5C 692.753,116.739 689.42,119.573 686.5,123C 678.556,124.612 670.556,125.279 662.5,125C 662,124.5 661.5,124 661,123.5C 660.833,121.5 660.667,119.5 660.5,117.5C 662.021,104.139 663.688,90.8062 665.5,77.5C 661.709,76.969 658.043,75.969 654.5,74.5C 651.694,65.609 649.361,56.609 647.5,47.5 Z"/></g>
<g><path style="opacity:0.776" fill="#82989c" d="M 475.5,116.5 C 479.234,119.231 482.234,122.564 484.5,126.5C 481.5,123.833 478.5,121.167 475.5,118.5C 475.5,117.833 475.5,117.167 475.5,116.5 Z"/></g>
<g><path style="opacity:1" fill="#9bc3a8" d="M 270.5,126.5 C 273.625,131.417 272.958,135.751 268.5,139.5C 270.064,135.326 270.731,130.993 270.5,126.5 Z"/></g>
<g><path style="opacity:1" fill="#a0c7ad" d="M 504.5,95.5 C 506.371,95.8588 507.871,96.8588 509,98.5C 509.92,112.578 509.253,126.578 507,140.5C 502.252,141.635 497.419,141.802 492.5,141C 489.837,137.506 487.837,133.673 486.5,129.5C 489.027,131.605 491.36,133.939 493.5,136.5C 496.752,140.393 500.086,140.393 503.5,136.5C 504.38,133.738 505.546,131.071 507,128.5C 507.497,125.854 507.664,123.187 507.5,120.5C 508.653,114.681 508.819,108.681 508,102.5C 507.764,100.881 506.931,99.8807 505.5,99.5C 505.567,98.0413 505.234,96.7079 504.5,95.5 Z"/></g>
<g><path style="opacity:0.988" fill="#97aeb4" d="M 493.5,136.5 C 496.833,136.5 500.167,136.5 503.5,136.5C 500.086,140.393 496.752,140.393 493.5,136.5 Z"/></g>
<g><path style="opacity:0.11" fill="#85a19b" d="M 267.5,154.5 C 271.303,159.967 276.303,163.967 282.5,166.5C 283.559,168.534 284.559,170.534 285.5,172.5C 282.537,169.049 278.87,166.549 274.5,165C 271.278,162.044 268.944,158.544 267.5,154.5 Z"/></g>
<g><path style="opacity:0.984" fill="#859e98" d="M 291.5,177.5 C 293.764,178.581 295.931,179.915 298,181.5C 296.453,191.819 293.453,201.819 289,211.5C 286.817,213.907 284.65,216.24 282.5,218.5C 284.024,214.798 286.19,211.464 289,208.5C 291.555,200.393 294.388,192.393 297.5,184.5C 295.477,182.147 293.477,179.814 291.5,177.5 Z"/></g>
<g><path style="opacity:0.118" fill="#85a6a9" d="M 183.5,211.5 C 186.785,211.269 189.285,212.603 191,215.5C 194.945,220.393 198.112,225.727 200.5,231.5C 195.298,224.422 189.631,217.755 183.5,211.5 Z"/></g>
<g><path style="opacity:0.399" fill="#a3d1f2" d="M 173.5,210.5 C 170.833,212.5 168.5,214.833 166.5,217.5C 167.167,213.5 169.5,211.167 173.5,210.5 Z"/></g>
<g><path style="opacity:0.992" fill="#7d968d" d="M 173.5,210.5 C 174.5,210.5 175.5,210.5 176.5,210.5C 172.99,212.357 170.157,215.024 168,218.5C 166.763,223.373 165.263,228.04 163.5,232.5C 163.5,231.833 163.5,231.167 163.5,230.5C 164.343,226.127 165.343,221.793 166.5,217.5C 168.5,214.833 170.833,212.5 173.5,210.5 Z"/></g>
<g><path style="opacity:0.996" fill="#92a5a8" d="M 19.5,227.5 C 16.8127,227.336 14.146,227.503 11.5,228C 7.59773,230.119 3.59773,231.952 -0.5,233.5C -0.5,233.167 -0.5,232.833 -0.5,232.5C 2.6456,230.425 5.97893,228.592 9.5,227C 13.0267,226.192 16.3601,226.359 19.5,227.5 Z"/></g>
<g><path style="opacity:1" fill="#a4cab1" d="M 82.5,230.5 C 86.0329,233.266 90.0329,234.933 94.5,235.5C 96.5,236.167 98.5,236.833 100.5,237.5C 96.1539,237.666 91.8206,237.499 87.5,237C 85.2101,235.223 83.5434,233.056 82.5,230.5 Z"/></g>
<g><path style="opacity:0.965" fill="#91a7b0" d="M 76.5,225.5 C 72.8084,224.971 69.6417,225.971 67,228.5C 65.9203,233.899 64.587,239.232 63,244.5C 60.373,246.988 57.5397,247.155 54.5,245C 45.75,237.051 35.75,231.551 24.5,228.5C 30.2331,229.688 35.8998,231.188 41.5,233C 47.3256,237.413 53.3256,241.58 59.5,245.5C 60.4776,245.023 61.3109,244.357 62,243.5C 62.6992,237.668 64.0325,232.001 66,226.5C 67.6477,224.972 69.6477,224.305 72,224.5C 73.7067,224.508 75.2067,224.842 76.5,225.5 Z"/></g>
<g><path style="opacity:0.745" fill="#879da1" d="M 282.5,218.5 C 281.962,220.117 281.629,221.784 281.5,223.5C 280.679,226.641 280.179,229.975 280,233.5C 279.082,235.376 277.582,236.376 275.5,236.5C 276.731,235.282 277.898,233.949 279,232.5C 279.333,228.833 279.667,225.167 280,221.5C 280.377,220.058 281.21,219.058 282.5,218.5 Z"/></g>
<g><path style="opacity:0.027" fill="#90adbf" d="M 76.5,225.5 C 80.7706,226.636 84.4373,228.802 87.5,232C 91.3724,232.904 95.0391,234.07 98.5,235.5C 97.1667,235.5 95.8333,235.5 94.5,235.5C 90.0329,234.933 86.0329,233.266 82.5,230.5C 80.0905,229.299 78.0905,227.633 76.5,225.5 Z"/></g>
<g><path style="opacity:0.957" fill="#819f99" d="M 94.5,235.5 C 95.8333,235.5 97.1667,235.5 98.5,235.5C 104.455,236.363 110.455,236.697 116.5,236.5C 118.5,238.5 120.5,240.5 122.5,242.5C 121.833,242.5 121.167,242.5 120.5,242.5C 116.857,238.421 112.357,237.421 107,239.5C 104.774,238.967 102.607,238.3 100.5,237.5C 98.5,236.833 96.5,236.167 94.5,235.5 Z"/></g>
<g><path style="opacity:0.769" fill="#8ca3ab" d="M 201.5,233.5 C 206.874,236.849 212.208,240.183 217.5,243.5C 214.575,243.54 211.909,242.707 209.5,241C 207.499,238.675 205.166,236.842 202.5,235.5C 201.662,235.158 201.328,234.492 201.5,233.5 Z"/></g>
<g><path style="opacity:1" fill="#a8ceb4" d="M 281.5,223.5 C 282.5,228.833 283.5,234.167 284.5,239.5C 278.274,239.612 272.274,238.946 266.5,237.5C 269.713,237.81 272.713,237.477 275.5,236.5C 277.582,236.376 279.082,235.376 280,233.5C 280.179,229.975 280.679,226.641 281.5,223.5 Z"/></g>
<g><path style="opacity:0.024" fill="#8ed28a" d="M 719.5,237.5 C 719.08,239.094 718.414,240.594 717.5,242C 718.148,243.44 718.481,244.94 718.5,246.5C 715.576,243.122 715.91,240.122 719.5,237.5 Z"/></g>
<g><path style="opacity:0.413" fill="#809596" d="M 275.5,236.5 C 272.713,237.477 269.713,237.81 266.5,237.5C 263.721,237.279 261.054,237.612 258.5,238.5C 251.967,240.206 245.3,240.872 238.5,240.5C 234.225,239.75 230.891,241.083 228.5,244.5C 224.629,244.815 220.962,244.482 217.5,243.5C 222.655,244.11 227.322,242.944 231.5,240C 246.252,239.135 260.918,237.968 275.5,236.5 Z"/></g>
<g><path style="opacity:1" fill="#9bc3a8" d="M 258.5,238.5 C 257.71,239.794 256.71,240.961 255.5,242C 249.602,242.676 243.935,242.176 238.5,240.5C 245.3,240.872 251.967,240.206 258.5,238.5 Z"/></g>
<g><path style="opacity:0.992" fill="#8ba3ae" d="M 163.5,230.5 C 163.5,231.167 163.5,231.833 163.5,232.5C 162.619,236.042 160.619,238.709 157.5,240.5C 153.085,243.04 148.418,245.04 143.5,246.5C 147.443,243.522 151.777,241.022 156.5,239C 159.21,236.372 161.544,233.539 163.5,230.5 Z"/></g>
<g><path style="opacity:0.949" fill="#94b1c4" d="M 116.5,236.5 C 120.502,237.989 123.836,240.489 126.5,244C 131.656,245.962 136.989,246.795 142.5,246.5C 135.108,248.753 128.441,247.419 122.5,242.5C 120.5,240.5 118.5,238.5 116.5,236.5 Z"/></g>
<g><path style="opacity:1" fill="#9ec6ab" d="M 202.5,235.5 C 205.166,236.842 207.499,238.675 209.5,241C 211.909,242.707 214.575,243.54 217.5,243.5C 220.962,244.482 224.629,244.815 228.5,244.5C 228.389,245.117 228.056,245.617 227.5,246C 220.677,246.298 214.011,245.298 207.5,243C 205.585,240.6 203.919,238.1 202.5,235.5 Z"/></g>
<g><path style="opacity:1" fill="#a0c5ac" d="M 157.5,240.5 C 155.996,242.836 153.996,244.669 151.5,246C 144.664,247.834 137.831,249.668 131,251.5C 126.763,249.435 123.263,246.435 120.5,242.5C 121.167,242.5 121.833,242.5 122.5,242.5C 128.441,247.419 135.108,248.753 142.5,246.5C 142.833,246.5 143.167,246.5 143.5,246.5C 148.418,245.04 153.085,243.04 157.5,240.5 Z"/></g>
<g><path style="opacity:0.424" fill="#9bc9a7" d="M 725.5,185.5 C 724.815,195.811 723.815,206.144 722.5,216.5C 723.662,221.798 724.162,227.131 724,232.5C 722.951,234.618 721.451,236.284 719.5,237.5C 715.91,240.122 715.576,243.122 718.5,246.5C 722.137,253.405 724.804,260.738 726.5,268.5C 725.5,268.5 724.5,268.5 723.5,268.5C 723.539,267.417 723.873,266.417 724.5,265.5C 720.97,257.575 717.637,249.575 714.5,241.5C 717.389,237.116 720.056,232.616 722.5,228C 721.353,224.079 720.686,220.079 720.5,216C 721.905,206.22 722.738,196.387 723,186.5C 723.671,185.748 724.504,185.414 725.5,185.5 Z"/></g>
<g><path style="opacity:1" fill="#a5cba4" d="M -0.5,236.5 C 7.46607,240.776 15.4661,245.11 23.5,249.5C 24.6578,254.103 25.4911,258.77 26,263.5C 27.3495,268.773 26.3495,273.439 23,277.5C 19.5988,287.87 16.0988,298.204 12.5,308.5C 12.7093,309.086 13.0426,309.586 13.5,310C 18.8707,311.735 24.204,313.568 29.5,315.5C 31.455,319.986 32.7883,324.653 33.5,329.5C 33.5,331.167 33.5,332.833 33.5,334.5C 31.2588,329.1 29.5922,323.433 28.5,317.5C 23.0897,315.974 17.7564,314.141 12.5,312C 11.4216,311.326 10.7549,310.326 10.5,309C 13.9992,297.836 17.4992,286.669 21,275.5C 22,274.5 23,273.5 24,272.5C 24.2479,265.065 23.4146,257.731 21.5,250.5C 14.1396,246.488 6.80627,242.488 -0.5,238.5C -0.5,237.833 -0.5,237.167 -0.5,236.5 Z"/></g>
<g><path style="opacity:0.82" fill="#b3d28d" d="M 29.5,342.5 C 25.7786,346.888 22.4453,351.555 19.5,356.5C 18.3789,354.911 18.5456,353.244 20,351.5C 23.0359,348.296 26.2026,345.296 29.5,342.5 Z"/></g>
<g><path style="opacity:0.231" fill="#70b3c1" d="M 700.5,362.5 C 698.47,365.182 695.803,366.849 692.5,367.5C 694.822,365.336 697.489,363.669 700.5,362.5 Z"/></g>
<g><path style="opacity:0.176" fill="#73b4c3" d="M 680.5,366.5 C 678.143,366.337 675.81,366.503 673.5,367C 671.886,369.127 669.886,370.627 667.5,371.5C 669.461,369.037 671.628,366.703 674,364.5C 676.277,365.117 678.444,365.784 680.5,366.5 Z"/></g>
<g><path style="opacity:0.996" fill="#9ac6af" d="M 713.5,293.5 C 713.528,295.582 712.861,297.416 711.5,299C 708.854,299.497 706.187,299.664 703.5,299.5C 700.133,309.909 696.466,320.242 692.5,330.5C 694.817,333.317 697.317,335.984 700,338.5C 700.5,346.493 700.666,354.493 700.5,362.5C 697.489,363.669 694.822,365.336 692.5,367.5C 688.452,367.605 684.452,367.272 680.5,366.5C 678.444,365.784 676.277,365.117 674,364.5C 671.628,366.703 669.461,369.037 667.5,371.5C 665.919,374.587 663.419,376.253 660,376.5C 651.616,375.09 643.282,373.423 635,371.5C 633.393,371.769 632.226,372.603 631.5,374C 619.505,374.5 607.505,374.667 595.5,374.5C 593.704,375.793 592.037,377.293 590.5,379C 589.207,379.49 587.873,379.657 586.5,379.5C 575.626,376.363 564.626,373.363 553.5,370.5C 553.03,369.307 552.03,368.64 550.5,368.5C 549.5,368.667 548.5,368.833 547.5,369C 537.809,377.524 530.976,388.024 527,400.5C 521.995,404.584 516.495,407.418 510.5,409C 509.643,408.311 508.977,407.478 508.5,406.5C 493.5,405.833 478.5,405.167 463.5,404.5C 460.121,403.113 456.621,402.113 453,401.5C 445.935,405.549 439.102,410.049 432.5,415C 429.123,417.746 426.457,421.08 424.5,425C 419.598,426.642 414.598,427.809 409.5,428.5C 407.991,437.881 406.157,447.214 404,456.5C 399.263,457.469 394.43,457.803 389.5,457.5C 384.167,457.5 378.833,457.5 373.5,457.5C 373.058,461.154 372.724,464.821 372.5,468.5C 372.246,473.444 371.246,478.111 369.5,482.5C 359.43,484.525 349.763,487.525 340.5,491.5C 328.333,491.406 316.333,491.406 304.5,491.5C 304.953,490.542 305.619,489.708 306.5,489C 318.833,488.667 331.167,488.333 343.5,488C 352.097,485.189 360.764,482.689 369.5,480.5C 369.89,472.218 370.89,464.051 372.5,456C 382.494,455.5 392.494,455.334 402.5,455.5C 404.395,445.858 406.228,436.192 408,426.5C 413.128,425.34 418.295,424.173 423.5,423C 425.5,420 427.5,417 429.5,414C 436.167,409.333 442.833,404.667 449.5,400C 455.192,399.59 460.525,400.757 465.5,403.5C 480.155,404.333 494.822,404.833 509.5,405C 510.333,405.833 511.167,406.667 512,407.5C 516.333,404.833 520.667,402.167 525,399.5C 528.333,392.167 531.667,384.833 535,377.5C 538.5,374 542,370.5 545.5,367C 548.482,366.502 551.482,366.335 554.5,366.5C 554.5,367.5 554.5,368.5 554.5,369.5C 565.523,372.006 576.523,374.672 587.5,377.5C 590.238,376.272 592.571,374.438 594.5,372C 607.413,372.029 620.247,371.196 633,369.5C 641.846,371.086 650.68,372.753 659.5,374.5C 663.917,371.59 667.917,368.09 671.5,364C 678.53,364.007 685.53,364.34 692.5,365C 694.167,363.833 695.833,362.667 697.5,361.5C 698.664,354.524 698.831,347.524 698,340.5C 695.667,338.167 693.333,335.833 691,333.5C 693.495,321.177 697.329,309.177 702.5,297.5C 705.447,296.679 708.447,296.179 711.5,296C 712.066,295.005 712.733,294.172 713.5,293.5 Z"/></g>
<g><path style="opacity:0.733" fill="#6db1bf" d="M 553.5,370.5 C 564.626,373.363 575.626,376.363 586.5,379.5C 576.079,377.645 565.746,375.312 555.5,372.5C 554.287,372.253 553.62,371.586 553.5,370.5 Z"/></g>
<g><path style="opacity:0.063" fill="#73b4c3" d="M 595.5,374.5 C 594.004,379.396 591.004,381.063 586.5,379.5C 587.873,379.657 589.207,379.49 590.5,379C 592.037,377.293 593.704,375.793 595.5,374.5 Z"/></g>
<g><path style="opacity:1" fill="#a8c8a3" d="M 33.5,329.5 C 35.3371,332.519 35.8371,335.852 35,339.5C 30.6667,344.5 26.3333,349.5 22,354.5C 20.1369,360.588 17.9703,366.588 15.5,372.5C 24.9891,381.822 34.6558,390.988 44.5,400C 45.4491,400.617 46.2825,400.451 47,399.5C 48.3726,396.588 49.8726,393.754 51.5,391C 65.5,390.333 79.5,390.333 93.5,391C 102.695,397.695 112.029,404.195 121.5,410.5C 124.304,408.862 126.971,407.029 129.5,405C 138.097,403.199 146.763,402.533 155.5,403C 158.708,407.247 161.542,411.747 164,416.5C 163.926,422.86 163.593,429.193 163,435.5C 166.5,443.167 170,450.833 173.5,458.5C 177.806,459.945 181.973,461.612 186,463.5C 189.838,473.683 193.672,483.85 197.5,494C 200.5,494.667 203.5,494.667 206.5,494C 212.5,489.667 218.5,485.333 224.5,481C 229.702,480.452 234.702,481.285 239.5,483.5C 242.333,488.5 245.167,493.5 248,498.5C 248.899,500.327 250.233,501.66 252,502.5C 257.897,499.468 263.731,496.301 269.5,493C 278.175,493.071 286.842,493.571 295.5,494.5C 287.332,495.169 278.999,495.336 270.5,495C 265.603,497.608 260.937,500.441 256.5,503.5C 253.833,503.5 251.167,503.5 248.5,503.5C 245.513,497.527 242.513,491.527 239.5,485.5C 235.99,483.774 232.324,482.441 228.5,481.5C 220.724,486.099 213.057,490.933 205.5,496C 202.518,496.498 199.518,496.665 196.5,496.5C 195.87,494.25 194.87,492.25 193.5,490.5C 190.259,482.103 187.592,473.437 185.5,464.5C 180.744,463.539 176.244,461.873 172,459.5C 168.333,451.5 164.667,443.5 161,435.5C 160.387,430.569 160.887,425.736 162.5,421C 160.57,415.642 158.237,410.475 155.5,405.5C 154.866,404.053 153.699,403.387 152,403.5C 146.321,404.282 140.821,405.282 135.5,406.5C 131.191,407.485 127.191,409.319 123.5,412C 122.167,412.667 120.833,412.667 119.5,412C 110.5,405.667 101.5,399.333 92.5,393C 79.1542,392.167 65.8208,392.334 52.5,393.5C 50.6944,396.472 48.6944,399.305 46.5,402C 45.5,402.667 44.5,402.667 43.5,402C 33.7627,392.385 23.9294,382.885 14,373.5C 13.3333,372.167 13.3333,370.833 14,369.5C 16.4035,365.365 18.2368,361.032 19.5,356.5C 22.4453,351.555 25.7786,346.888 29.5,342.5C 30.4577,341.038 31.6244,339.705 33,338.5C 33.49,337.207 33.6567,335.873 33.5,334.5C 33.5,332.833 33.5,331.167 33.5,329.5 Z"/></g>
<g><path style="opacity:0.752" fill="#d3c372" d="M 155.5,405.5 C 148.82,405.612 142.153,405.946 135.5,406.5C 140.821,405.282 146.321,404.282 152,403.5C 153.699,403.387 154.866,404.053 155.5,405.5 Z"/></g>
<g><path style="opacity:0.531" fill="#66adbc" d="M 389.5,457.5 C 384.695,458.487 379.695,458.821 374.5,458.5C 374.451,462.078 373.785,465.411 372.5,468.5C 372.724,464.821 373.058,461.154 373.5,457.5C 378.833,457.5 384.167,457.5 389.5,457.5 Z"/></g>
<g><path style="opacity:0.525" fill="#73b4c1" d="M 369.5,482.5 C 360.226,486.478 350.559,489.478 340.5,491.5C 349.763,487.525 359.43,484.525 369.5,482.5 Z"/></g>
<g><path style="opacity:0.467" fill="#d2c273" d="M 193.5,490.5 C 194.87,492.25 195.87,494.25 196.5,496.5C 194.386,495.216 193.386,493.216 193.5,490.5 Z"/></g>
</svg>
