<?xml version="1.0" encoding="UTF-8"?>
<!DOCTYPE svg PUBLIC "-//W3C//DTD SVG 1.1//EN" "http://www.w3.org/Graphics/SVG/1.1/DTD/svg11.dtd">
<svg xmlns="http://www.w3.org/2000/svg" version="1.1" width="547px" height="507px" style="shape-rendering:geometricPrecision; text-rendering:geometricPrecision; image-rendering:optimizeQuality; fill-rule:evenodd; clip-rule:evenodd" xmlns:xlink="http://www.w3.org/1999/xlink">
<g><path style="opacity:0.663" fill="#bdaea7" d="M 161.5,14.5 C 158.167,14.5 154.833,14.5 151.5,14.5C 151.5,15.8333 151.5,17.1667 151.5,18.5C 150.549,17.0813 150.216,15.4147 150.5,13.5C 154.371,13.185 158.038,13.5184 161.5,14.5 Z"/></g>
<g><path style="opacity:1" fill="#cac4de" d="M 231.5,15.5 C 232.5,15.5 233.5,15.5 234.5,15.5C 237.469,24.2739 241.135,32.7739 245.5,41C 253.482,40.588 261.149,38.7547 268.5,35.5C 269.5,35.8333 270.167,36.5 270.5,37.5C 270.343,38.8734 270.51,40.2068 271,41.5C 280.81,50.1892 284.977,61.1892 283.5,74.5C 292.548,74.2443 301.548,73.4109 310.5,72C 311.399,70.7638 312.566,69.9304 314,69.5C 317.137,70.3606 320.303,71.0272 323.5,71.5C 324.873,71.3433 326.207,71.51 327.5,72C 330.833,74.6667 334.167,77.3333 337.5,80C 333.833,86.3333 330.167,92.6667 326.5,99C 323.167,99.3333 319.833,99.6667 316.5,100C 313.167,103.333 309.833,106.667 306.5,110C 298.848,109.688 291.182,109.188 283.5,108.5C 281.829,116.853 279.996,125.186 278,133.5C 274.333,137.833 270.667,142.167 267,146.5C 266.262,148.881 266.762,150.881 268.5,152.5C 268.709,153.922 269.209,155.255 270,156.5C 275.833,162.333 281.667,168.167 287.5,174C 295.724,176.277 303.391,179.943 310.5,185C 317.57,185.323 324.57,184.657 331.5,183C 337.67,179.081 344.003,175.414 350.5,172C 352.197,171.616 353.863,171.782 355.5,172.5C 359.647,173.325 363.981,173.825 368.5,174C 373.877,179.708 378.877,185.708 383.5,192C 393.479,193.722 403.479,194.222 413.5,193.5C 417.098,187.96 420.931,182.626 425,177.5C 431.299,185.302 437.799,192.969 444.5,200.5C 451.293,198.514 457.793,195.848 464,192.5C 467.12,202.099 470.287,211.766 473.5,221.5C 477.398,222.975 481.398,224.142 485.5,225C 490.122,231.078 494.622,237.245 499,243.5C 499.003,246.032 498.503,248.532 497.5,251C 498.798,255.086 500.465,258.919 502.5,262.5C 503.193,268.406 506.193,272.572 511.5,275C 516.667,280.167 521.833,285.333 527,290.5C 530.024,298.828 527.024,303.162 518,303.5C 516.5,303.333 515,303.167 513.5,303C 509.614,300.89 505.614,299.057 501.5,297.5C 497.217,300.115 493.55,303.448 490.5,307.5C 485.967,308.984 481.301,309.65 476.5,309.5C 474.901,309.768 473.568,309.434 472.5,308.5C 471.185,307.333 470.519,305.833 470.5,304C 471.866,300.588 472.366,297.088 472,293.5C 469.725,289.268 467.225,285.268 464.5,281.5C 463.248,275.266 459.581,271.599 453.5,270.5C 452.435,265.304 450.768,260.304 448.5,255.5C 444.663,254.555 440.996,253.222 437.5,251.5C 437.029,249.421 436.363,247.421 435.5,245.5C 435.531,241.516 434.864,237.683 433.5,234C 427.5,233.667 421.5,233.333 415.5,233C 414.167,231.333 412.833,229.667 411.5,228C 401.693,225.291 392.359,221.625 383.5,217C 376.468,215.127 369.468,213.127 362.5,211C 360.34,210.004 358.673,208.504 357.5,206.5C 356.962,204.883 356.629,203.216 356.5,201.5C 349.758,201.511 343.092,202.178 336.5,203.5C 334.901,203.232 333.568,203.566 332.5,204.5C 330.904,207.361 329.57,210.361 328.5,213.5C 323.066,215.034 317.732,216.867 312.5,219C 307.732,226.094 301.399,231.427 293.5,235C 287.53,236.89 283.196,235.057 280.5,229.5C 278.456,226.582 276.79,223.415 275.5,220C 276.959,217.019 277.626,213.852 277.5,210.5C 276.612,202.513 275.946,194.513 275.5,186.5C 270.652,186.672 265.985,187.672 261.5,189.5C 257.944,189.722 255.277,188.389 253.5,185.5C 253.03,182.255 251.697,179.421 249.5,177C 242.67,175.084 235.837,173.251 229,171.5C 223.662,173.238 218.162,173.904 212.5,173.5C 213.255,161.839 213.922,150.172 214.5,138.5C 207.408,136.915 200.408,134.915 193.5,132.5C 191.971,132.529 190.804,133.196 190,134.5C 188.223,137.059 186.723,139.726 185.5,142.5C 185.573,144.027 184.906,145.027 183.5,145.5C 182.115,146.574 180.949,147.907 180,149.5C 177,156.167 174,162.833 171,169.5C 170.515,174.925 171.015,180.258 172.5,185.5C 172.334,191.509 172.501,197.509 173,203.5C 174.371,205.041 175.871,206.375 177.5,207.5C 181.456,221.541 189.123,233.374 200.5,243C 203.474,243.993 206.474,244.826 209.5,245.5C 211.307,249.114 213.14,252.78 215,256.5C 217.826,258.829 220.992,260.496 224.5,261.5C 225.5,261.833 226.167,262.5 226.5,263.5C 230.093,269.282 232.093,275.615 232.5,282.5C 230.762,284.119 230.262,286.119 231,288.5C 233.667,293.167 236.333,297.833 239,302.5C 240.47,303.267 241.97,303.933 243.5,304.5C 251.667,316.508 251.167,328.175 242,339.5C 243.247,346.831 240.747,352.331 234.5,356C 230.251,357.126 225.918,357.792 221.5,358C 220.589,360.415 218.922,361.915 216.5,362.5C 210.833,362.5 205.167,362.5 199.5,362.5C 199.008,355.556 198.008,348.723 196.5,342C 188.9,341.115 181.566,339.281 174.5,336.5C 167.05,339.725 159.717,343.225 152.5,347C 148.101,348.25 144.767,347.084 142.5,343.5C 136.402,338.607 129.736,334.441 122.5,331C 121.901,329.378 121.234,327.878 120.5,326.5C 120.742,321.504 120.075,316.671 118.5,312C 108.13,309.368 97.9633,306.201 88,302.5C 87.1628,300.649 86.3295,298.816 85.5,297C 84.552,296.517 83.552,296.351 82.5,296.5C 73.5131,295.002 64.5131,293.502 55.5,292C 52.0415,291.196 49.3749,291.363 47.5,292.5C 46.7377,294.262 45.4044,295.262 43.5,295.5C 43.6107,294.883 43.944,294.383 44.5,294C 38.3485,292.672 32.3485,290.838 26.5,288.5C 21.2676,281.298 19.4343,273.298 21,264.5C 23.6813,256.287 24.848,247.953 24.5,239.5C 20.8536,237.183 17.5203,234.516 14.5,231.5C 17.7233,225.054 20.39,218.387 22.5,211.5C 20.21,207.254 17.21,203.587 13.5,200.5C 10.6646,198.488 9.16456,195.821 9,192.5C 16.8086,188.346 24.6419,184.346 32.5,180.5C 36.3891,181.965 40.3891,182.465 44.5,182C 47.3333,179.167 50.1667,176.333 53,173.5C 54.4346,159.856 55.1013,146.189 55,132.5C 53.9148,131.707 52.7481,131.04 51.5,130.5C 50.6705,125.198 50.1705,119.864 50,114.5C 49.1482,113.429 48.3149,112.429 47.5,111.5C 46.5103,108.849 45.5103,106.183 44.5,103.5C 48.7249,94.0498 53.2249,84.7165 58,75.5C 57.6667,72.1667 57.3333,68.8333 57,65.5C 60.0127,57.3219 65.5127,51.6552 73.5,48.5C 79.253,53.2226 85.253,57.7226 91.5,62C 93.4628,62.8442 94.7961,62.3442 95.5,60.5C 102.064,53.0484 108.397,45.3818 114.5,37.5C 117.317,39.8167 119.984,42.3167 122.5,45C 130.167,45.6667 137.833,45.6667 145.5,45C 148.459,40.2488 151.293,35.4155 154,30.5C 154.435,25.5514 153.935,20.718 152.5,16C 165.858,16.3352 179.192,17.3352 192.5,19C 195.135,22.3157 198.301,24.8157 202,26.5C 212.189,23.4962 222.023,19.8296 231.5,15.5 Z"/></g>
<g><path style="opacity:0.773" fill="#a79ab2" d="M 231.5,15.5 C 232.708,14.218 234.042,14.218 235.5,15.5C 238.9,23.9686 243.066,31.9686 248,39.5C 253.958,37.6772 259.958,36.0105 266,34.5C 267.07,34.528 267.903,34.8614 268.5,35.5C 261.149,38.7547 253.482,40.588 245.5,41C 241.135,32.7739 237.469,24.2739 234.5,15.5C 233.5,15.5 232.5,15.5 231.5,15.5 Z"/></g>
<g><path style="opacity:1" fill="#a398b4" d="M 161.5,14.5 C 171.855,15.0019 182.188,15.8352 192.5,17C 195.717,19.7256 199.05,22.2256 202.5,24.5C 212.124,21.2914 221.791,18.2914 231.5,15.5C 222.023,19.8296 212.189,23.4962 202,26.5C 198.301,24.8157 195.135,22.3157 192.5,19C 179.192,17.3352 165.858,16.3352 152.5,16C 153.935,20.718 154.435,25.5514 154,30.5C 151.293,35.4155 148.459,40.2488 145.5,45C 137.833,45.6667 130.167,45.6667 122.5,45C 119.984,42.3167 117.317,39.8167 114.5,37.5C 108.397,45.3818 102.064,53.0484 95.5,60.5C 95.5,59.8333 95.5,59.1667 95.5,58.5C 101.463,50.5364 107.796,42.8698 114.5,35.5C 116.984,37.483 119.317,39.6496 121.5,42C 129.521,42.8316 137.521,42.6649 145.5,41.5C 146.941,38.2765 148.608,35.2765 150.5,32.5C 153.34,30.2849 154.007,27.6182 152.5,24.5C 151.659,22.6208 151.325,20.6208 151.5,18.5C 151.5,17.1667 151.5,15.8333 151.5,14.5C 154.833,14.5 158.167,14.5 161.5,14.5 Z"/></g>
<g><path style="opacity:0.4" fill="#cfbc92" d="M 152.5,24.5 C 154.007,27.6182 153.34,30.2849 150.5,32.5C 151.75,29.994 152.416,27.3274 152.5,24.5 Z"/></g>
<g><path style="opacity:0.984" fill="#ac9dac" d="M 70.5,47.5 C 71.6009,46.4017 72.9343,46.235 74.5,47C 80.747,51.2774 86.747,55.7774 92.5,60.5C 93.3478,61.625 94.3478,61.625 95.5,60.5C 94.7961,62.3442 93.4628,62.8442 91.5,62C 85.253,57.7226 79.253,53.2226 73.5,48.5C 72.791,47.596 71.791,47.2627 70.5,47.5 Z"/></g>
<g><path style="opacity:0.6" fill="#c3b2a0" d="M 95.5,58.5 C 95.5,59.1667 95.5,59.8333 95.5,60.5C 94.3478,61.625 93.3478,61.625 92.5,60.5C 93.5,59.8333 94.5,59.1667 95.5,58.5 Z"/></g>
<g><path style="opacity:1" fill="#a49ab6" d="M 270.5,37.5 C 274.47,42.3149 278.303,47.3149 282,52.5C 283.491,59.1223 284.658,65.7889 285.5,72.5C 293.527,71.9967 301.527,71.1634 309.5,70C 310.529,68.3016 312.029,67.4683 314,67.5C 317.728,68.1361 321.228,69.1361 324.5,70.5C 323.833,70.5 323.5,70.8333 323.5,71.5C 320.303,71.0272 317.137,70.3606 314,69.5C 312.566,69.9304 311.399,70.7638 310.5,72C 301.548,73.4109 292.548,74.2443 283.5,74.5C 284.977,61.1892 280.81,50.1892 271,41.5C 270.51,40.2068 270.343,38.8734 270.5,37.5 Z"/></g>
<g><path style="opacity:1" fill="#a492b0" d="M 70.5,47.5 C 71.791,47.2627 72.791,47.596 73.5,48.5C 65.5127,51.6552 60.0127,57.3219 57,65.5C 57.3333,68.8333 57.6667,72.1667 58,75.5C 53.2249,84.7165 48.7249,94.0498 44.5,103.5C 45.5103,106.183 46.5103,108.849 47.5,111.5C 47.5,112.167 47.5,112.833 47.5,113.5C 45.334,110.502 43.6674,107.168 42.5,103.5C 46.7249,94.0498 51.2249,84.7165 56,75.5C 55.6667,72.1667 55.3333,68.8333 55,65.5C 57.5325,57.1407 62.6991,51.1407 70.5,47.5 Z"/></g>
<g><path style="opacity:1" fill="#a38db5" d="M 323.5,71.5 C 323.5,70.8333 323.833,70.5 324.5,70.5C 326.655,70.372 328.655,70.872 330.5,72C 333.659,74.232 336.326,76.8987 338.5,80C 335.251,86.9106 331.585,93.5772 327.5,100C 324.118,100.176 320.785,100.676 317.5,101.5C 314.349,105.151 311.016,108.651 307.5,112C 300.158,111.929 292.824,111.429 285.5,110.5C 283.649,118.568 281.483,126.568 279,134.5C 274.806,139.06 270.972,143.894 267.5,149C 268.056,149.383 268.389,149.883 268.5,150.5C 268.5,151.167 268.5,151.833 268.5,152.5C 266.762,150.881 266.262,148.881 267,146.5C 270.667,142.167 274.333,137.833 278,133.5C 279.996,125.186 281.829,116.853 283.5,108.5C 291.182,109.188 298.848,109.688 306.5,110C 309.833,106.667 313.167,103.333 316.5,100C 319.833,99.6667 323.167,99.3333 326.5,99C 330.167,92.6667 333.833,86.3333 337.5,80C 334.167,77.3333 330.833,74.6667 327.5,72C 326.207,71.51 324.873,71.3433 323.5,71.5 Z"/></g>
<g><path style="opacity:1" fill="#a394b5" d="M 47.5,111.5 C 48.3149,112.429 49.1482,113.429 50,114.5C 50.1705,119.864 50.6705,125.198 51.5,130.5C 52.7481,131.04 53.9148,131.707 55,132.5C 55.1013,146.189 54.4346,159.856 53,173.5C 50.1667,176.333 47.3333,179.167 44.5,182C 40.3891,182.465 36.3891,181.965 32.5,180.5C 35.0259,179.343 37.6926,179.343 40.5,180.5C 43.1956,181.569 45.1956,180.569 46.5,177.5C 47.4787,175.855 48.812,174.521 50.5,173.5C 52.4984,159.866 53.1651,146.199 52.5,132.5C 51.2638,131.754 49.9305,131.421 48.5,131.5C 48.7886,125.409 48.4553,119.409 47.5,113.5C 47.5,112.833 47.5,112.167 47.5,111.5 Z"/></g>
<g><path style="opacity:1" fill="#8e88aa" d="M 253.5,185.5 C 251.553,183.784 250.219,181.617 249.5,179C 245.979,177.326 242.313,176.16 238.5,175.5C 229.546,174.77 220.546,174.77 211.5,175.5C 211.261,165.976 211.594,156.476 212.5,147C 212.553,142.576 210.553,139.742 206.5,138.5C 204.786,137.262 202.786,136.595 200.5,136.5C 198.172,135.282 195.672,134.282 193,133.5C 191.331,134.846 190.164,136.513 189.5,138.5C 188.5,140.167 187.167,141.5 185.5,142.5C 186.723,139.726 188.223,137.059 190,134.5C 190.804,133.196 191.971,132.529 193.5,132.5C 200.408,134.915 207.408,136.915 214.5,138.5C 213.922,150.172 213.255,161.839 212.5,173.5C 218.162,173.904 223.662,173.238 229,171.5C 235.837,173.251 242.67,175.084 249.5,177C 251.697,179.421 253.03,182.255 253.5,185.5 Z"/></g>
<g><path style="opacity:0.984" fill="#838e9f" d="M 192.5,137.5 C 194.948,136.527 197.615,136.194 200.5,136.5C 202.786,136.595 204.786,137.262 206.5,138.5C 201.859,137.873 197.193,137.54 192.5,137.5 Z"/></g>
<g><path style="opacity:1" fill="#c0bad4" d="M 200.5,136.5 C 197.615,136.194 194.948,136.527 192.5,137.5C 191.609,138.11 190.609,138.443 189.5,138.5C 190.164,136.513 191.331,134.846 193,133.5C 195.672,134.282 198.172,135.282 200.5,136.5 Z"/></g>
<g><path style="opacity:0.918" fill="#cf88a2" d="M 268.5,150.5 C 272.971,154.785 276.971,159.452 280.5,164.5C 276.14,160.806 272.14,156.806 268.5,152.5C 268.5,151.833 268.5,151.167 268.5,150.5 Z"/></g>
<g><path style="opacity:0.773" fill="#cea594" d="M 46.5,177.5 C 45.1956,180.569 43.1956,181.569 40.5,180.5C 42.5,179.5 44.5,178.5 46.5,177.5 Z"/></g>
<g><path style="opacity:1" fill="#a890b6" d="M 268.5,152.5 C 272.14,156.806 276.14,160.806 280.5,164.5C 283.146,166.479 285.479,168.812 287.5,171.5C 290.768,172.487 294.102,172.82 297.5,172.5C 297.281,173.675 297.614,174.675 298.5,175.5C 302.833,178 307.167,180.5 311.5,183C 317.5,182.836 323.5,182.336 329.5,181.5C 332.331,180.921 334.664,179.588 336.5,177.5C 341.464,173.35 347.13,170.85 353.5,170C 354.381,170.708 355.047,171.542 355.5,172.5C 353.863,171.782 352.197,171.616 350.5,172C 344.003,175.414 337.67,179.081 331.5,183C 324.57,184.657 317.57,185.323 310.5,185C 303.391,179.943 295.724,176.277 287.5,174C 281.667,168.167 275.833,162.333 270,156.5C 269.209,155.255 268.709,153.922 268.5,152.5 Z"/></g>
<g><path style="opacity:0.451" fill="#d2839c" d="M 336.5,177.5 C 334.664,179.588 332.331,180.921 329.5,181.5C 331.336,179.412 333.669,178.079 336.5,177.5 Z"/></g>
<g><path style="opacity:1" fill="#a59ec3" d="M 172.5,185.5 C 173.326,189.982 173.826,194.649 174,199.5C 174.533,202.505 175.7,205.172 177.5,207.5C 175.871,206.375 174.371,205.041 173,203.5C 172.501,197.509 172.334,191.509 172.5,185.5 Z"/></g>
<g><path style="opacity:1" fill="#b9bcd6" d="M 274.5,196.5 C 273.833,195.833 273.167,195.167 272.5,194.5C 268.806,193.223 265.139,192.223 261.5,191.5C 264.922,191.994 266.589,191.661 266.5,190.5C 268.22,189.136 270.22,188.136 272.5,187.5C 273.678,190.391 274.345,193.391 274.5,196.5 Z"/></g>
<g><path style="opacity:1" fill="#8e96ac" d="M 238.5,175.5 C 242.313,176.16 245.979,177.326 249.5,179C 250.219,181.617 251.553,183.784 253.5,185.5C 255.277,188.389 257.944,189.722 261.5,189.5C 262.919,190.451 264.585,190.784 266.5,190.5C 266.589,191.661 264.922,191.994 261.5,191.5C 259.073,191.477 256.74,190.977 254.5,190C 251.808,187.443 249.475,184.609 247.5,181.5C 244.459,179.441 241.459,177.441 238.5,175.5 Z"/></g>
<g><path style="opacity:1" fill="#a78fb4" d="M 355.5,172.5 C 360.511,172.334 365.511,172.501 370.5,173C 375.354,178.353 380.021,183.853 384.5,189.5C 393.427,191.326 402.427,192.159 411.5,192C 415.371,187.093 418.871,181.926 422,176.5C 424.881,174.972 427.214,175.638 429,178.5C 434.272,185.391 439.772,192.057 445.5,198.5C 452.241,195.033 459.241,192.366 466.5,190.5C 469.372,200.449 472.039,210.449 474.5,220.5C 478.553,221.013 482.553,221.846 486.5,223C 492.14,230.128 497.14,237.628 501.5,245.5C 500.06,246.946 499.393,248.779 499.5,251C 500.878,254.678 501.878,258.511 502.5,262.5C 500.465,258.919 498.798,255.086 497.5,251C 498.503,248.532 499.003,246.032 499,243.5C 494.622,237.245 490.122,231.078 485.5,225C 481.398,224.142 477.398,222.975 473.5,221.5C 470.287,211.766 467.12,202.099 464,192.5C 457.793,195.848 451.293,198.514 444.5,200.5C 437.799,192.969 431.299,185.302 425,177.5C 420.931,182.626 417.098,187.96 413.5,193.5C 403.479,194.222 393.479,193.722 383.5,192C 378.877,185.708 373.877,179.708 368.5,174C 363.981,173.825 359.647,173.325 355.5,172.5 Z"/></g>
<g><path style="opacity:0.173" fill="#a095b5" d="M 13.5,200.5 C 17.21,203.587 20.21,207.254 22.5,211.5C 20.39,218.387 17.7233,225.054 14.5,231.5C 17.5203,234.516 20.8536,237.183 24.5,239.5C 24.848,247.953 23.6813,256.287 21,264.5C 19.4343,273.298 21.2676,281.298 26.5,288.5C 32.3485,290.838 38.3485,292.672 44.5,294C 43.944,294.383 43.6107,294.883 43.5,295.5C 36.9872,293.913 30.6538,291.746 24.5,289C 20.4255,282.368 18.5921,275.201 19,267.5C 20.8634,258.862 22.1967,250.195 23,241.5C 20,238.833 17,236.167 14,233.5C 15.3255,226.181 17.4922,219.015 20.5,212C 17.9299,208.274 15.5966,204.44 13.5,200.5 Z"/></g>
<g><path style="opacity:1" fill="#988fba" d="M 357.5,206.5 C 356.833,206.5 356.167,206.5 355.5,206.5C 355.853,204.365 355.02,203.032 353,202.5C 348.176,203.196 343.343,203.863 338.5,204.5C 337.584,204.457 336.917,204.124 336.5,203.5C 343.092,202.178 349.758,201.511 356.5,201.5C 356.629,203.216 356.962,204.883 357.5,206.5 Z"/></g>
<g><path style="opacity:1" fill="#98a1ba" d="M 355.5,206.5 C 356.11,207.391 356.443,208.391 356.5,209.5C 354.704,208.207 353.037,206.707 351.5,205C 350.167,204.833 348.833,204.667 347.5,204.5C 342.373,205.433 337.373,206.766 332.5,208.5C 333.028,207.279 333.695,206.113 334.5,205C 333.906,204.536 333.239,204.369 332.5,204.5C 333.568,203.566 334.901,203.232 336.5,203.5C 336.917,204.124 337.584,204.457 338.5,204.5C 343.343,203.863 348.176,203.196 353,202.5C 355.02,203.032 355.853,204.365 355.5,206.5 Z"/></g>
<g><path style="opacity:0.016" fill="#8b99ad" d="M 272.5,194.5 C 273.167,195.167 273.833,195.833 274.5,196.5C 275.143,202.323 275.809,208.156 276.5,214C 276.192,215.459 275.525,216.626 274.5,217.5C 274.805,209.73 274.138,202.063 272.5,194.5 Z"/></g>
<g><path style="opacity:1" fill="#8e8baf" d="M 280.5,229.5 C 279.833,229.5 279.5,229.833 279.5,230.5C 275.012,227.081 273.345,222.747 274.5,217.5C 275.525,216.626 276.192,215.459 276.5,214C 275.809,208.156 275.143,202.323 274.5,196.5C 274.345,193.391 273.678,190.391 272.5,187.5C 270.22,188.136 268.22,189.136 266.5,190.5C 264.585,190.784 262.919,190.451 261.5,189.5C 265.985,187.672 270.652,186.672 275.5,186.5C 275.946,194.513 276.612,202.513 277.5,210.5C 277.626,213.852 276.959,217.019 275.5,220C 276.79,223.415 278.456,226.582 280.5,229.5 Z"/></g>
<g><path style="opacity:0.953" fill="#8988a8" d="M 355.5,206.5 C 356.167,206.5 356.833,206.5 357.5,206.5C 358.673,208.504 360.34,210.004 362.5,211C 369.468,213.127 376.468,215.127 383.5,217C 392.359,221.625 401.693,225.291 411.5,228C 412.833,229.667 414.167,231.333 415.5,233C 421.5,233.333 427.5,233.667 433.5,234C 434.864,237.683 435.531,241.516 435.5,245.5C 434.326,244.486 433.66,243.153 433.5,241.5C 433.167,239.5 432.833,237.5 432.5,235.5C 430.143,235.337 427.81,235.503 425.5,236C 426.737,236.232 427.737,236.732 428.5,237.5C 421.86,237.601 416.193,235.435 411.5,231C 402.176,226.845 392.843,223.011 383.5,219.5C 379.915,217.194 375.915,215.861 371.5,215.5C 365.923,214.648 360.923,212.648 356.5,209.5C 356.443,208.391 356.11,207.391 355.5,206.5 Z"/></g>
<g><path style="opacity:0.976" fill="#8fabc4" d="M 371.5,215.5 C 375.915,215.861 379.915,217.194 383.5,219.5C 379.216,218.739 375.216,217.405 371.5,215.5 Z"/></g>
<g><path style="opacity:1" fill="#8c8dab" d="M 183.5,145.5 C 180.346,153.145 177.179,160.812 174,168.5C 173.634,179.879 174.301,191.213 176,202.5C 177.667,204.167 179.333,205.833 181,207.5C 181.935,216.177 185.435,223.51 191.5,229.5C 192.757,232.427 194.757,234.761 197.5,236.5C 201.896,239.025 205.896,242.025 209.5,245.5C 206.474,244.826 203.474,243.993 200.5,243C 189.123,233.374 181.456,221.541 177.5,207.5C 175.7,205.172 174.533,202.505 174,199.5C 173.826,194.649 173.326,189.982 172.5,185.5C 171.015,180.258 170.515,174.925 171,169.5C 174,162.833 177,156.167 180,149.5C 180.949,147.907 182.115,146.574 183.5,145.5 Z"/></g>
<g><path style="opacity:0.729" fill="#9cc3e3" d="M 191.5,229.5 C 194.243,231.239 196.243,233.573 197.5,236.5C 194.757,234.761 192.757,232.427 191.5,229.5 Z"/></g>
<g><path style="opacity:0.992" fill="#81849f" d="M 332.5,204.5 C 333.239,204.369 333.906,204.536 334.5,205C 333.695,206.113 333.028,207.279 332.5,208.5C 330.832,210.479 330.166,212.812 330.5,215.5C 327.432,216.022 324.432,216.855 321.5,218C 312.5,224.333 303.5,230.667 294.5,237C 291.5,237.667 288.5,237.667 285.5,237C 283.294,234.963 281.294,232.797 279.5,230.5C 279.5,229.833 279.833,229.5 280.5,229.5C 283.196,235.057 287.53,236.89 293.5,235C 301.399,231.427 307.732,226.094 312.5,219C 317.732,216.867 323.066,215.034 328.5,213.5C 329.57,210.361 330.904,207.361 332.5,204.5 Z"/></g>
<g><path style="opacity:1" fill="#b6b5cc" d="M 433.5,241.5 C 433.167,241.5 432.833,241.5 432.5,241.5C 430.5,240.833 429.167,239.5 428.5,237.5C 427.737,236.732 426.737,236.232 425.5,236C 427.81,235.503 430.143,235.337 432.5,235.5C 432.833,237.5 433.167,239.5 433.5,241.5 Z"/></g>
<g><path style="opacity:0.549" fill="#808498" d="M 432.5,241.5 C 432.833,241.5 433.167,241.5 433.5,241.5C 433.66,243.153 434.326,244.486 435.5,245.5C 436.363,247.421 437.029,249.421 437.5,251.5C 436.272,250.694 435.272,249.694 434.5,248.5C 433.545,246.254 432.878,243.921 432.5,241.5 Z"/></g>
<g><path style="opacity:0.996" fill="#8886a3" d="M 209.5,245.5 C 211.833,247.167 213.833,249.167 215.5,251.5C 216.419,254.089 218.086,256.089 220.5,257.5C 222.167,258.5 223.5,259.833 224.5,261.5C 220.992,260.496 217.826,258.829 215,256.5C 213.14,252.78 211.307,249.114 209.5,245.5 Z"/></g>
<g><path style="opacity:0.678" fill="#9fc8e8" d="M 215.5,251.5 C 217.914,252.911 219.581,254.911 220.5,257.5C 218.086,256.089 216.419,254.089 215.5,251.5 Z"/></g>
<g><path style="opacity:1" fill="#8f8fb4" d="M 434.5,248.5 C 435.272,249.694 436.272,250.694 437.5,251.5C 440.996,253.222 444.663,254.555 448.5,255.5C 450.768,260.304 452.435,265.304 453.5,270.5C 451.457,269.421 450.124,267.754 449.5,265.5C 450.59,258.378 447.59,255.045 440.5,255.5C 436.41,254.998 434.41,252.665 434.5,248.5 Z"/></g>
<g><path style="opacity:1" fill="#9caac2" d="M 440.5,255.5 C 447.59,255.045 450.59,258.378 449.5,265.5C 447.834,263.813 446.5,261.813 445.5,259.5C 443.79,258.113 442.123,256.779 440.5,255.5 Z"/></g>
<g><path style="opacity:0.427" fill="#7b8198" d="M 226.5,263.5 C 230.935,267.037 233.268,271.703 233.5,277.5C 233.665,280.518 233.498,283.518 233,286.5C 232.51,285.207 232.343,283.873 232.5,282.5C 232.093,275.615 230.093,269.282 226.5,263.5 Z"/></g>
<g><path style="opacity:1" fill="#898faa" d="M 501.5,245.5 C 501.872,254.451 504.372,262.784 509,270.5C 515.333,276.167 521.667,281.833 528,287.5C 530.22,291.595 530.887,295.928 530,300.5C 528.2,302.317 526.034,303.484 523.5,304C 514.833,304 506.167,304 497.5,304C 495.423,305.705 493.09,306.872 490.5,307.5C 493.55,303.448 497.217,300.115 501.5,297.5C 505.614,299.057 509.614,300.89 513.5,303C 515,303.167 516.5,303.333 518,303.5C 527.024,303.162 530.024,298.828 527,290.5C 521.833,285.333 516.667,280.167 511.5,275C 506.193,272.572 503.193,268.406 502.5,262.5C 501.878,258.511 500.878,254.678 499.5,251C 499.393,248.779 500.06,246.946 501.5,245.5 Z"/></g>
<g><path style="opacity:1" fill="#938db4" d="M 453.5,270.5 C 459.581,271.599 463.248,275.266 464.5,281.5C 462.697,279.519 461.03,277.352 459.5,275C 457.527,274.505 455.527,274.338 453.5,274.5C 453.5,273.167 453.5,271.833 453.5,270.5 Z"/></g>
<g><path style="opacity:0.953" fill="#96a5bb" d="M 453.5,274.5 C 455.527,274.338 457.527,274.505 459.5,275C 461.03,277.352 462.697,279.519 464.5,281.5C 465.038,283.117 465.371,284.784 465.5,286.5C 462.697,283.583 460.363,280.25 458.5,276.5C 456.709,275.83 455.042,275.163 453.5,274.5 Z"/></g>
<g><path style="opacity:0.992" fill="#9b93b9" d="M 82.5,296.5 C 81.791,297.404 80.791,297.737 79.5,297.5C 68.8673,295.617 58.2007,293.95 47.5,292.5C 49.3749,291.363 52.0415,291.196 55.5,292C 64.5131,293.502 73.5131,295.002 82.5,296.5 Z"/></g>
<g><path style="opacity:1" fill="#9496b7" d="M 233.5,277.5 C 234.253,287.084 237.587,295.751 243.5,303.5C 243.5,303.833 243.5,304.167 243.5,304.5C 241.97,303.933 240.47,303.267 239,302.5C 236.333,297.833 233.667,293.167 231,288.5C 230.262,286.119 230.762,284.119 232.5,282.5C 232.343,283.873 232.51,285.207 233,286.5C 233.498,283.518 233.665,280.518 233.5,277.5 Z"/></g>
<g><path style="opacity:1" fill="#8b91a5" d="M 340.5,300.5 C 340.167,300.5 339.833,300.5 339.5,300.5C 334.477,295.726 328.477,294.226 321.5,296C 320.058,296.377 319.058,297.21 318.5,298.5C 317.5,298.833 316.833,299.5 316.5,300.5C 314.703,301.73 312.703,302.396 310.5,302.5C 317.873,294.422 326.873,292.256 337.5,296C 339.141,297.129 340.141,298.629 340.5,300.5 Z"/></g>
<g><path style="opacity:1" fill="#cac4de" d="M 339.5,300.5 C 338.991,310.993 338.324,321.326 337.5,331.5C 336.053,332.134 335.387,333.301 335.5,335C 336.198,338.262 337.198,341.428 338.5,344.5C 343.576,348.918 348.909,352.918 354.5,356.5C 359.419,353.088 363.919,349.088 368,344.5C 368.499,339.845 368.666,335.179 368.5,330.5C 370.041,323.954 370.874,317.287 371,310.5C 372.429,307.238 373.929,304.071 375.5,301C 383.854,294.376 391.021,295.543 397,304.5C 397.319,315.927 396.319,327.261 394,338.5C 389.788,345.906 388.954,353.572 391.5,361.5C 388.981,366.53 385.481,370.864 381,374.5C 378.998,378.342 377.498,382.342 376.5,386.5C 376.262,388.404 375.262,389.738 373.5,390.5C 369.009,392.247 364.675,394.247 360.5,396.5C 350.211,395.652 341.877,399.152 335.5,407C 337.134,412.903 338.968,418.736 341,424.5C 346.603,427.718 352.437,430.551 358.5,433C 363.943,436.967 365.277,441.801 362.5,447.5C 361.791,448.404 360.791,448.737 359.5,448.5C 353.05,449.658 346.55,450.658 340,451.5C 336.698,452.025 334.198,450.858 332.5,448C 325.223,447.705 318.557,449.538 312.5,453.5C 305.721,454.203 299.054,455.536 292.5,457.5C 290.742,457.408 289.076,457.075 287.5,456.5C 286.426,455.115 285.093,453.949 283.5,453C 272.153,451.173 265.82,456.006 264.5,467.5C 264.481,472.876 261.981,476.542 257,478.5C 254.487,483.527 251.987,488.527 249.5,493.5C 244.294,491.315 239.127,488.981 234,486.5C 228.792,488.186 223.625,490.019 218.5,492C 219.056,492.383 219.389,492.883 219.5,493.5C 217.596,493.262 216.262,492.262 215.5,490.5C 216.239,490.631 216.906,490.464 217.5,490C 214.603,487.59 211.603,485.423 208.5,483.5C 207.833,483.5 207.5,483.167 207.5,482.5C 208.373,480.114 209.873,478.114 212,476.5C 212.548,472.83 213.048,469.163 213.5,465.5C 214.252,461.16 216.586,457.993 220.5,456C 226.452,454.672 232.452,453.505 238.5,452.5C 238.334,448.154 238.501,443.821 239,439.5C 242.423,432.896 245.256,426.062 247.5,419C 244.775,412.693 245.275,406.527 249,400.5C 251.833,397.667 254.667,394.833 257.5,392C 262.572,391.249 267.572,391.582 272.5,393C 273.667,394.167 274.833,395.333 276,396.5C 275.584,404.626 274.584,412.626 273,420.5C 275.157,422.495 277.657,423.828 280.5,424.5C 283.332,427.082 286.665,428.249 290.5,428C 294.689,424.31 299.022,420.81 303.5,417.5C 304.664,411.193 304.831,404.859 304,398.5C 303.617,397.944 303.117,397.611 302.5,397.5C 303.664,388.86 304.164,380.193 304,371.5C 303.586,371.043 303.086,370.709 302.5,370.5C 301.669,362.855 301.169,355.188 301,347.5C 298.584,342.999 295.917,338.666 293,334.5C 291.571,328.972 289.571,323.638 287,318.5C 286.116,314.567 286.616,310.901 288.5,307.5C 289.262,305.738 290.596,304.738 292.5,304.5C 300.521,304.669 308.521,304.835 316.5,305C 317.397,302.913 318.064,300.746 318.5,298.5C 319.058,297.21 320.058,296.377 321.5,296C 328.477,294.226 334.477,295.726 339.5,300.5 Z"/></g>
<g><path style="opacity:1" fill="#c3bdd8" d="M 500.5,298.5 C 507.981,300.987 507.315,302.154 498.5,302C 499.823,301.184 500.489,300.017 500.5,298.5 Z"/></g>
<g><path style="opacity:1" fill="#c1bbd6" d="M 316.5,300.5 C 316.494,302.844 315.327,304.178 313,304.5C 311.624,304.316 310.791,303.649 310.5,302.5C 312.703,302.396 314.703,301.73 316.5,300.5 Z"/></g>
<g><path style="opacity:1" fill="#918cad" d="M 318.5,298.5 C 318.064,300.746 317.397,302.913 316.5,305C 308.521,304.835 300.521,304.669 292.5,304.5C 293.263,303.732 294.263,303.232 295.5,303C 300.489,302.501 305.489,302.334 310.5,302.5C 310.791,303.649 311.624,304.316 313,304.5C 315.327,304.178 316.494,302.844 316.5,300.5C 316.833,299.5 317.5,298.833 318.5,298.5 Z"/></g>
<g><path style="opacity:0.612" fill="#a39cb3" d="M 82.5,296.5 C 83.552,296.351 84.552,296.517 85.5,297C 86.3295,298.816 87.1628,300.649 88,302.5C 97.9633,306.201 108.13,309.368 118.5,312C 120.075,316.671 120.742,321.504 120.5,326.5C 120.5,328.167 120.5,329.833 120.5,331.5C 119.427,325.844 118.427,320.177 117.5,314.5C 116.365,312.787 114.698,312.12 112.5,312.5C 103.685,310.173 95.0187,307.34 86.5,304C 85.5939,302.301 85.2606,300.467 85.5,298.5C 83.2646,298.795 81.2646,298.461 79.5,297.5C 80.791,297.737 81.791,297.404 82.5,296.5 Z"/></g>
<g><path style="opacity:0.404" fill="#8a8aa7" d="M 464.5,281.5 C 467.225,285.268 469.725,289.268 472,293.5C 472.366,297.088 471.866,300.588 470.5,304C 470.519,305.833 471.185,307.333 472.5,308.5C 470.983,308.489 469.816,307.823 469,306.5C 469.093,302.174 469.093,297.841 469,293.5C 467.807,291.114 466.64,288.78 465.5,286.5C 465.371,284.784 465.038,283.117 464.5,281.5 Z"/></g>
<g><path style="opacity:0.507" fill="#74768a" d="M 490.5,307.5 C 486.114,310.431 481.448,311.097 476.5,309.5C 481.301,309.65 485.967,308.984 490.5,307.5 Z"/></g>
<g><path style="opacity:0.475" fill="#8186a1" d="M 243.5,303.5 C 253.538,315.285 254.038,327.618 245,340.5C 244.88,347.063 242.38,352.396 237.5,356.5C 235.973,356.427 234.973,357.094 234.5,358.5C 233.5,358.5 232.5,358.5 231.5,358.5C 228.084,358.528 225.084,359.528 222.5,361.5C 218.982,363.966 214.982,364.966 210.5,364.5C 209.5,364.5 208.5,364.5 207.5,364.5C 210.5,363.833 213.5,363.167 216.5,362.5C 218.922,361.915 220.589,360.415 221.5,358C 225.918,357.792 230.251,357.126 234.5,356C 240.747,352.331 243.247,346.831 242,339.5C 251.167,328.175 251.667,316.508 243.5,304.5C 243.5,304.167 243.5,303.833 243.5,303.5 Z"/></g>
<g><path style="opacity:0.455" fill="#b8ba91" d="M 112.5,312.5 C 114.698,312.12 116.365,312.787 117.5,314.5C 115.597,314.204 113.93,313.537 112.5,312.5 Z"/></g>
<g><path style="opacity:1" fill="#7e849e" d="M 339.5,300.5 C 339.833,300.5 340.167,300.5 340.5,300.5C 340.666,310.172 340.5,319.839 340,329.5C 339.8,331.32 338.966,332.653 337.5,333.5C 337.5,332.833 337.5,332.167 337.5,331.5C 338.324,321.326 338.991,310.993 339.5,300.5 Z"/></g>
<g><path style="opacity:1" fill="#a099b3" d="M 120.5,326.5 C 121.234,327.878 121.901,329.378 122.5,331C 129.736,334.441 136.402,338.607 142.5,343.5C 134.839,340.005 127.505,336.005 120.5,331.5C 120.5,329.833 120.5,328.167 120.5,326.5 Z"/></g>
<g><path style="opacity:0.306" fill="#a098b4" d="M 216.5,362.5 C 213.5,363.167 210.5,363.833 207.5,364.5C 204.5,364.5 201.5,364.5 198.5,364.5C 198.795,362.265 198.461,360.265 197.5,358.5C 196.111,353.731 195.444,348.731 195.5,343.5C 187.94,343.259 180.94,341.259 174.5,337.5C 167.009,341.078 159.676,344.912 152.5,349C 149.5,349.667 146.5,349.667 143.5,349C 142.594,347.301 142.261,345.467 142.5,343.5C 144.767,347.084 148.101,348.25 152.5,347C 159.717,343.225 167.05,339.725 174.5,336.5C 181.566,339.281 188.9,341.115 196.5,342C 198.008,348.723 199.008,355.556 199.5,362.5C 205.167,362.5 210.833,362.5 216.5,362.5 Z"/></g>
<g><path style="opacity:1" fill="#9993b8" d="M 367.5,330.5 C 367.833,330.5 368.167,330.5 368.5,330.5C 368.666,335.179 368.499,339.845 368,344.5C 363.919,349.088 359.419,353.088 354.5,356.5C 348.909,352.918 343.576,348.918 338.5,344.5C 337.198,341.428 336.198,338.262 335.5,335C 335.387,333.301 336.053,332.134 337.5,331.5C 337.5,332.167 337.5,332.833 337.5,333.5C 337.083,340.304 340.083,345.304 346.5,348.5C 347.262,350.262 348.596,351.262 350.5,351.5C 353.827,355.597 356.827,355.263 359.5,350.5C 362.364,348.977 364.031,346.643 364.5,343.5C 365.057,338.948 366.057,334.615 367.5,330.5 Z"/></g>
<g><path style="opacity:1" fill="#8f9db0" d="M 337.5,333.5 C 339.248,339.249 342.248,344.249 346.5,348.5C 340.083,345.304 337.083,340.304 337.5,333.5 Z"/></g>
<g><path style="opacity:0.992" fill="#919cb0" d="M 364.5,343.5 C 364.031,346.643 362.364,348.977 359.5,350.5C 356.57,351.299 353.57,351.632 350.5,351.5C 348.596,351.262 347.262,350.262 346.5,348.5C 354.048,352.092 360.048,350.425 364.5,343.5 Z"/></g>
<g><path style="opacity:1" fill="#868ca8" d="M 288.5,307.5 C 286.616,310.901 286.116,314.567 287,318.5C 289.571,323.638 291.571,328.972 293,334.5C 295.917,338.666 298.584,342.999 301,347.5C 301.169,355.188 301.669,362.855 302.5,370.5C 303.086,370.709 303.586,371.043 304,371.5C 304.164,380.193 303.664,388.86 302.5,397.5C 302.5,398.167 302.5,398.833 302.5,399.5C 301.883,399.389 301.383,399.056 301,398.5C 301.676,381.828 301.009,365.162 299,348.5C 292.989,338.812 288.322,328.478 285,317.5C 283.581,313.128 284.748,309.794 288.5,307.5 Z"/></g>
<g><path style="opacity:1" fill="#bfb9d4" d="M 359.5,350.5 C 356.827,355.263 353.827,355.597 350.5,351.5C 353.57,351.632 356.57,351.299 359.5,350.5 Z"/></g>
<g><path style="opacity:0.094" fill="#a0caf1" d="M 237.5,356.5 C 237.027,357.906 236.027,358.573 234.5,358.5C 234.973,357.094 235.973,356.427 237.5,356.5 Z"/></g>
<g><path style="opacity:0.269" fill="#a2cdf0" d="M 231.5,358.5 C 228.785,360.072 225.785,361.072 222.5,361.5C 225.084,359.528 228.084,358.528 231.5,358.5 Z"/></g>
<g><path style="opacity:0.275" fill="#98a0ac" d="M 197.5,358.5 C 198.461,360.265 198.795,362.265 198.5,364.5C 201.5,364.5 204.5,364.5 207.5,364.5C 208.5,364.5 209.5,364.5 210.5,364.5C 206.366,365.485 202.032,365.818 197.5,365.5C 197.5,363.167 197.5,360.833 197.5,358.5 Z"/></g>
<g><path style="opacity:0.965" fill="#8988a6" d="M 376.5,386.5 C 377.498,382.342 378.998,378.342 381,374.5C 385.481,370.864 388.981,366.53 391.5,361.5C 388.954,353.572 389.788,345.906 394,338.5C 396.319,327.261 397.319,315.927 397,304.5C 391.021,295.543 383.854,294.376 375.5,301C 373.929,304.071 372.429,307.238 371,310.5C 370.874,317.287 370.041,323.954 368.5,330.5C 368.167,330.5 367.833,330.5 367.5,330.5C 368.9,322.914 369.733,315.247 370,307.5C 375.405,295.476 383.905,292.643 395.5,299C 397.049,300.214 398.215,301.714 399,303.5C 400.471,318.006 398.471,332.006 393,345.5C 392.667,352.167 392.333,358.833 392,365.5C 386.812,372.568 381.646,379.568 376.5,386.5 Z"/></g>
<g><path style="opacity:0.173" fill="#797b95" d="M 373.5,390.5 C 369.982,394.018 365.649,396.018 360.5,396.5C 364.675,394.247 369.009,392.247 373.5,390.5 Z"/></g>
<g><path style="opacity:1" fill="#8786a4" d="M 360.5,396.5 C 352.232,398.54 344.565,402.04 337.5,407C 338.811,410.431 339.811,413.931 340.5,417.5C 341.009,420.192 342.009,422.692 343.5,425C 347.188,426.513 350.855,428.013 354.5,429.5C 361.252,432.083 365.252,436.916 366.5,444C 365.928,446.074 364.595,447.24 362.5,447.5C 365.277,441.801 363.943,436.967 358.5,433C 352.437,430.551 346.603,427.718 341,424.5C 338.968,418.736 337.134,412.903 335.5,407C 341.877,399.152 350.211,395.652 360.5,396.5 Z"/></g>
<g><path style="opacity:0.639" fill="#9aa3b7" d="M 340.5,417.5 C 344.897,421.904 349.564,425.904 354.5,429.5C 350.855,428.013 347.188,426.513 343.5,425C 342.009,422.692 341.009,420.192 340.5,417.5 Z"/></g>
<g><path style="opacity:0.984" fill="#99a0b3" d="M 302.5,399.5 C 303.651,404.65 303.817,409.984 303,415.5C 298.312,419.689 293.479,423.689 288.5,427.5C 286.604,426.725 284.937,425.725 283.5,424.5C 283.5,424.167 283.5,423.833 283.5,423.5C 298.232,422.414 304.565,414.414 302.5,399.5 Z"/></g>
<g><path style="opacity:1" fill="#948bb5" d="M 302.5,397.5 C 303.117,397.611 303.617,397.944 304,398.5C 304.831,404.859 304.664,411.193 303.5,417.5C 299.022,420.81 294.689,424.31 290.5,428C 286.665,428.249 283.332,427.082 280.5,424.5C 281.5,424.5 282.5,424.5 283.5,424.5C 284.937,425.725 286.604,426.725 288.5,427.5C 293.479,423.689 298.312,419.689 303,415.5C 303.817,409.984 303.651,404.65 302.5,399.5C 302.5,398.833 302.5,398.167 302.5,397.5 Z"/></g>
<g><path style="opacity:0.992" fill="#868ba6" d="M 283.5,423.5 C 283.5,423.833 283.5,424.167 283.5,424.5C 282.5,424.5 281.5,424.5 280.5,424.5C 277.657,423.828 275.157,422.495 273,420.5C 274.584,412.626 275.584,404.626 276,396.5C 274.833,395.333 273.667,394.167 272.5,393C 267.572,391.582 262.572,391.249 257.5,392C 254.667,394.833 251.833,397.667 249,400.5C 245.275,406.527 244.775,412.693 247.5,419C 245.256,426.062 242.423,432.896 239,439.5C 238.501,443.821 238.334,448.154 238.5,452.5C 232.452,453.505 226.452,454.672 220.5,456C 216.586,457.993 214.252,461.16 213.5,465.5C 211.735,471.035 209.401,476.369 206.5,481.5C 206.082,477.922 207.249,474.589 210,471.5C 210.2,462.636 214.367,456.47 222.5,453C 227.363,451.327 232.363,450.494 237.5,450.5C 237.334,445.821 237.501,441.155 238,436.5C 240.196,431.58 242.196,426.58 244,421.5C 242.122,408.791 246.288,398.624 256.5,391C 264.7,387.963 271.867,389.463 278,395.5C 278.876,402.695 278.043,409.695 275.5,416.5C 276.918,420.251 279.585,422.584 283.5,423.5 Z"/></g>
<g><path style="opacity:0.469" fill="#81819b" d="M 359.5,448.5 C 350.982,452.256 341.982,453.423 332.5,452C 331.541,450.536 330.208,449.703 328.5,449.5C 323.148,450.838 317.814,452.171 312.5,453.5C 318.557,449.538 325.223,447.705 332.5,448C 334.198,450.858 336.698,452.025 340,451.5C 346.55,450.658 353.05,449.658 359.5,448.5 Z"/></g>
<g><path style="opacity:1" fill="#9891b6" d="M 287.5,456.5 C 282.836,454.43 278.17,454.097 273.5,455.5C 270.358,458.302 268.025,461.635 266.5,465.5C 265.833,466.167 265.167,466.833 264.5,467.5C 265.82,456.006 272.153,451.173 283.5,453C 285.093,453.949 286.426,455.115 287.5,456.5 Z"/></g>
<g><path style="opacity:0.99" fill="#82849d" d="M 312.5,453.5 C 306.221,456.408 299.554,458.408 292.5,459.5C 286.338,457.246 280.005,455.913 273.5,455.5C 278.17,454.097 282.836,454.43 287.5,456.5C 289.076,457.075 290.742,457.408 292.5,457.5C 299.054,455.536 305.721,454.203 312.5,453.5 Z"/></g>
<g><path style="opacity:1" fill="#9c94bb" d="M 213.5,465.5 C 213.048,469.163 212.548,472.83 212,476.5C 209.873,478.114 208.373,480.114 207.5,482.5C 206.833,482.5 206.5,482.167 206.5,481.5C 209.401,476.369 211.735,471.035 213.5,465.5 Z"/></g>
<g><path style="opacity:0.902" fill="#9d96b8" d="M 208.5,483.5 C 211.603,485.423 214.603,487.59 217.5,490C 216.906,490.464 216.239,490.631 215.5,490.5C 212.833,488.5 210.5,486.167 208.5,483.5 Z"/></g>
<g><path style="opacity:0.325" fill="#868aa3" d="M 266.5,465.5 C 266.159,470.192 264.659,474.526 262,478.5C 256.174,483.156 252.674,489.156 251.5,496.5C 250.209,496.737 249.209,496.404 248.5,495.5C 249.338,495.158 249.672,494.492 249.5,493.5C 251.987,488.527 254.487,483.527 257,478.5C 261.981,476.542 264.481,472.876 264.5,467.5C 265.167,466.833 265.833,466.167 266.5,465.5 Z"/></g>
<g><path style="opacity:0.788" fill="#9f98b2" d="M 249.5,493.5 C 249.672,494.492 249.338,495.158 248.5,495.5C 244.849,494.341 241.515,492.674 238.5,490.5C 236.915,488.018 234.915,487.352 232.5,488.5C 228.271,490.448 223.938,492.115 219.5,493.5C 219.389,492.883 219.056,492.383 218.5,492C 223.625,490.019 228.792,488.186 234,486.5C 239.127,488.981 244.294,491.315 249.5,493.5 Z"/></g>
<g><path style="opacity:0.165" fill="#babc95" d="M 232.5,488.5 C 234.915,487.352 236.915,488.018 238.5,490.5C 236.5,489.833 234.5,489.167 232.5,488.5 Z"/></g>
</svg>
