<?xml version="1.0" encoding="UTF-8"?>
<!DOCTYPE svg PUBLIC "-//W3C//DTD SVG 1.1//EN" "http://www.w3.org/Graphics/SVG/1.1/DTD/svg11.dtd">
<svg xmlns="http://www.w3.org/2000/svg" version="1.1" width="374px" height="498px" style="shape-rendering:geometricPrecision; text-rendering:geometricPrecision; image-rendering:optimizeQuality; fill-rule:evenodd; clip-rule:evenodd" xmlns:xlink="http://www.w3.org/1999/xlink">
<g><path style="opacity:1" fill="#f2d1bd" d="M 311.5,33.5 C 312.848,34.1859 314.015,35.1859 315,36.5C 316.131,40.8938 317.465,45.2272 319,49.5C 319.499,53.4862 319.666,57.4862 319.5,61.5C 320.833,61.5 322.167,61.5 323.5,61.5C 325.218,69.6351 326.884,77.8018 328.5,86C 324.12,90.361 319.12,94.0277 313.5,97C 312.196,97.804 311.529,98.9707 311.5,100.5C 316.108,112.657 321.108,124.657 326.5,136.5C 328.567,137.134 330.4,138.134 332,139.5C 338.955,148.79 346.288,157.79 354,166.5C 354.667,167.167 354.667,167.833 354,168.5C 352.482,169.163 351.315,170.163 350.5,171.5C 347.443,177.962 344.61,184.628 342,191.5C 341.333,193.167 341.333,194.833 342,196.5C 345.667,199.5 349.333,202.5 353,205.5C 353.85,210.584 355.016,215.584 356.5,220.5C 361.908,223.302 367.574,225.302 373.5,226.5C 373.5,244.833 373.5,263.167 373.5,281.5C 372.518,285.316 371.851,289.316 371.5,293.5C 368.94,295.273 366.607,297.273 364.5,299.5C 362.284,300.203 360.451,301.536 359,303.5C 357.333,306.833 355.667,310.167 354,313.5C 354.333,316.833 354.667,320.167 355,323.5C 350.225,332.716 345.725,342.05 341.5,351.5C 342.723,354.947 344.223,358.28 346,361.5C 346.17,367.528 346.67,373.528 347.5,379.5C 351.335,380.451 353.001,382.951 352.5,387C 351.565,397.825 350.731,408.659 350,419.5C 347.5,422 345,424.5 342.5,427C 339.655,426.951 336.822,426.451 334,425.5C 332.93,425.528 332.097,425.861 331.5,426.5C 322.654,430.508 314.154,435.175 306,440.5C 305.333,441.5 305.333,442.5 306,443.5C 311.118,448.773 315.618,454.439 319.5,460.5C 316.976,466.382 314.31,472.215 311.5,478C 306.316,478.174 301.316,478.674 296.5,479.5C 291.861,482.155 287.194,484.821 282.5,487.5C 278.641,483.956 274.307,481.289 269.5,479.5C 259.275,481.931 249.108,484.598 239,487.5C 235.534,484.362 232.367,480.862 229.5,477C 219.153,476.967 208.82,477.467 198.5,478.5C 197.699,470.912 197.199,463.245 197,455.5C 193.333,451.167 189.667,446.833 186,442.5C 185.81,436.584 185.31,430.751 184.5,425C 173.345,424.014 162.178,423.18 151,422.5C 145.695,422.446 140.529,423.113 135.5,424.5C 126.011,421.027 116.178,418.361 106,416.5C 101.546,418.311 97.0463,419.978 92.5,421.5C 84.3353,420.91 77.3353,417.91 71.5,412.5C 74.3722,402.551 77.0389,392.551 79.5,382.5C 79.1667,381.5 78.8333,380.5 78.5,379.5C 73.5,376.167 68.5,372.833 63.5,369.5C 62.8333,358.007 62.1667,346.674 61.5,335.5C 56.3981,331.574 51.3981,327.408 46.5,323C 40.544,323.782 35.7107,321.949 32,317.5C 31,309.5 30,301.5 29,293.5C 23.0422,289.211 17.3756,284.544 12,279.5C 13.049,271.897 13.3823,264.23 13,256.5C 9.36551,250.064 5.86551,243.564 2.5,237C 4.73999,232.859 6.40666,228.526 7.5,224C 5.58353,216.182 4.08353,208.349 3,200.5C 4.41516,197.581 6.58183,195.581 9.5,194.5C 18.9462,197.127 28.2795,196.96 37.5,194C 40.0724,183.971 42.0724,173.804 43.5,163.5C 52.6985,165.105 60.8651,163.105 68,157.5C 69.1634,149.527 69.9967,141.527 70.5,133.5C 71.8333,133.5 73.1667,133.5 74.5,133.5C 74.7611,122.461 75.5944,111.461 77,100.5C 82.77,96.836 83.9366,92.1693 80.5,86.5C 77.976,77.4267 75.1427,68.4267 72,59.5C 71.5012,55.5138 71.3345,51.5138 71.5,47.5C 84.3443,47.8287 97.011,47.4954 109.5,46.5C 110.361,44.6137 111.361,42.7804 112.5,41C 118.149,40.2425 123.816,39.7425 129.5,39.5C 134.177,39.1655 138.844,38.6655 143.5,38C 145.86,36.635 147.527,34.635 148.5,32C 153.5,31.1667 158.5,30.3333 163.5,29.5C 172.402,33.2865 180.735,38.1198 188.5,44C 196.167,44.6667 203.833,44.6667 211.5,44C 213.336,42.581 215.336,41.4143 217.5,40.5C 219.04,31.5611 220.04,22.5611 220.5,13.5C 231.49,11.6684 242.49,9.83508 253.5,8C 254.167,7.33333 254.833,6.66667 255.5,6C 263.5,5.33333 271.5,5.33333 279.5,6C 282.667,9.83333 285.833,13.6667 289,17.5C 289.182,20.2263 289.682,22.8929 290.5,25.5C 297.411,28.4576 304.411,31.1243 311.5,33.5 Z"/></g>
<g><path style="opacity:0.694" fill="#a8a9c0" d="M 287.5,12.5 C 289.587,13.5846 290.92,15.2512 291.5,17.5C 289.413,16.4154 288.08,14.7488 287.5,12.5 Z"/></g>
<g><path style="opacity:0.331" fill="#a4a7c2" d="M 154.5,28.5 C 154.5,28.8333 154.5,29.1667 154.5,29.5C 152.097,29.448 149.764,29.7814 147.5,30.5C 147.611,29.8826 147.944,29.3826 148.5,29C 150.473,28.5045 152.473,28.3379 154.5,28.5 Z"/></g>
<g><path style="opacity:1" fill="#c5aca8" d="M 162.5,27.5 C 160.095,28.7682 157.428,29.4349 154.5,29.5C 154.5,29.1667 154.5,28.8333 154.5,28.5C 157.127,27.9084 159.794,27.5751 162.5,27.5 Z"/></g>
<g><path style="opacity:1" fill="#d3a68f" d="M 287.5,12.5 C 288.08,14.7488 289.413,16.4154 291.5,17.5C 291.5,19.8333 291.5,22.1667 291.5,24.5C 299.874,26.7325 307.874,29.7325 315.5,33.5C 314.167,33.5 312.833,33.5 311.5,33.5C 304.411,31.1243 297.411,28.4576 290.5,25.5C 289.682,22.8929 289.182,20.2263 289,17.5C 285.833,13.6667 282.667,9.83333 279.5,6C 271.5,5.33333 263.5,5.33333 255.5,6C 254.833,6.66667 254.167,7.33333 253.5,8C 242.49,9.83508 231.49,11.6684 220.5,13.5C 220.04,22.5611 219.04,31.5611 217.5,40.5C 215.336,41.4143 213.336,42.581 211.5,44C 203.833,44.6667 196.167,44.6667 188.5,44C 180.735,38.1198 172.402,33.2865 163.5,29.5C 158.5,30.3333 153.5,31.1667 148.5,32C 147.527,34.635 145.86,36.635 143.5,38C 138.844,38.6655 134.177,39.1655 129.5,39.5C 126.375,38.5206 123.042,38.1872 119.5,38.5C 121.948,37.5269 124.615,37.1936 127.5,37.5C 133.417,37.784 139.084,37.1173 144.5,35.5C 145.11,33.5659 146.11,31.8993 147.5,30.5C 149.764,29.7814 152.097,29.448 154.5,29.5C 157.428,29.4349 160.095,28.7682 162.5,27.5C 166.155,26.925 169.155,27.925 171.5,30.5C 171.973,31.9063 172.973,32.573 174.5,32.5C 174.973,33.9063 175.973,34.573 177.5,34.5C 181.612,36.7279 185.612,39.2279 189.5,42C 196.833,42.6667 204.167,42.6667 211.5,42C 212.665,40.9164 213.998,40.0831 215.5,39.5C 216.873,30.2954 218.206,21.1287 219.5,12C 230.48,9.89217 241.48,7.89217 252.5,6C 253.167,5.33333 253.833,4.66667 254.5,4C 263.167,3.33333 271.833,3.33333 280.5,4C 283.423,6.41622 285.757,9.24955 287.5,12.5 Z"/></g>
<g><path style="opacity:0.208" fill="#a5a7c1" d="M 171.5,30.5 C 173.027,30.427 174.027,31.0937 174.5,32.5C 172.973,32.573 171.973,31.9063 171.5,30.5 Z"/></g>
<g><path style="opacity:0.012" fill="#a8a7bd" d="M 174.5,32.5 C 176.027,32.427 177.027,33.0937 177.5,34.5C 175.973,34.573 174.973,33.9063 174.5,32.5 Z"/></g>
<g><path style="opacity:1" fill="#aca8bc" d="M 144.5,35.5 C 139.084,37.1173 133.417,37.784 127.5,37.5C 132.96,36.2627 138.627,35.596 144.5,35.5 Z"/></g>
<g><path style="opacity:1" fill="#d29e81" d="M 119.5,38.5 C 123.042,38.1872 126.375,38.5206 129.5,39.5C 123.816,39.7425 118.149,40.2425 112.5,41C 111.361,42.7804 110.361,44.6137 109.5,46.5C 96.5,46.5 83.5,46.5 70.5,46.5C 70.815,50.3714 70.4816,54.0381 69.5,57.5C 69.5,53.5 69.5,49.5 69.5,45.5C 82.5171,45.8325 95.5171,45.4991 108.5,44.5C 110.07,38.9736 113.737,36.9736 119.5,38.5 Z"/></g>
<g><path style="opacity:1" fill="#d4ab97" d="M 109.5,46.5 C 97.011,47.4954 84.3443,47.8287 71.5,47.5C 71.3345,51.5138 71.5012,55.5138 72,59.5C 75.1427,68.4267 77.976,77.4267 80.5,86.5C 80.5,87.8333 80.5,89.1667 80.5,90.5C 76.0226,79.8537 72.356,68.8537 69.5,57.5C 70.4816,54.0381 70.815,50.3714 70.5,46.5C 83.5,46.5 96.5,46.5 109.5,46.5 Z"/></g>
<g><path style="opacity:1" fill="#bcabb1" d="M 80.5,92.5 C 81.525,92.8966 81.6917,93.5632 81,94.5C 79.3333,96.1667 77.6667,97.8333 76,99.5C 75.8138,102.036 75.3138,104.369 74.5,106.5C 74.3359,103.813 74.5026,101.146 75,98.5C 77.0396,96.6298 78.8729,94.6298 80.5,92.5 Z"/></g>
<g><path style="opacity:0.918" fill="#d7a988" d="M 311.5,33.5 C 312.833,33.5 314.167,33.5 315.5,33.5C 320.355,41.7631 322.355,50.7631 321.5,60.5C 322.833,60.5 324.167,60.5 325.5,60.5C 327.591,69.7804 329.091,79.1137 330,88.5C 324.056,91.9517 318.556,95.9517 313.5,100.5C 318.568,112.043 323.234,123.71 327.5,135.5C 330.325,135.081 332.491,136.081 334,138.5C 341.333,147.833 348.667,157.167 356,166.5C 355.789,169.58 353.956,171.247 350.5,171.5C 351.315,170.163 352.482,169.163 354,168.5C 354.667,167.833 354.667,167.167 354,166.5C 346.288,157.79 338.955,148.79 332,139.5C 330.4,138.134 328.567,137.134 326.5,136.5C 321.108,124.657 316.108,112.657 311.5,100.5C 311.529,98.9707 312.196,97.804 313.5,97C 319.12,94.0277 324.12,90.361 328.5,86C 326.884,77.8018 325.218,69.6351 323.5,61.5C 322.167,61.5 320.833,61.5 319.5,61.5C 319.666,57.4862 319.499,53.4862 319,49.5C 317.465,45.2272 316.131,40.8938 315,36.5C 314.015,35.1859 312.848,34.1859 311.5,33.5 Z"/></g>
<g><path style="opacity:1" fill="#d3a88a" d="M 80.5,86.5 C 83.9366,92.1693 82.77,96.836 77,100.5C 75.5944,111.461 74.7611,122.461 74.5,133.5C 73.1667,133.5 71.8333,133.5 70.5,133.5C 69.9967,141.527 69.1634,149.527 68,157.5C 60.8651,163.105 52.6985,165.105 43.5,163.5C 42.0724,173.804 40.0724,183.971 37.5,194C 28.2795,196.96 18.9462,197.127 9.5,194.5C 6.58183,195.581 4.41516,197.581 3,200.5C 4.08353,208.349 5.58353,216.182 7.5,224C 6.40666,228.526 4.73999,232.859 2.5,237C 5.86551,243.564 9.36551,250.064 13,256.5C 13.3823,264.23 13.049,271.897 12,279.5C 17.3756,284.544 23.0422,289.211 29,293.5C 30,301.5 31,309.5 32,317.5C 35.7107,321.949 40.544,323.782 46.5,323C 51.3981,327.408 56.3981,331.574 61.5,335.5C 61.8281,347.012 61.4948,358.346 60.5,369.5C 60.8321,358.48 60.4988,347.48 59.5,336.5C 55.1667,332.667 50.8333,328.833 46.5,325C 43.1832,324.502 39.8499,324.335 36.5,324.5C 34.8729,322.37 33.0396,320.37 31,318.5C 30.8019,316.618 30.3019,314.952 29.5,313.5C 29.5495,306.859 28.5495,300.526 26.5,294.5C 20.8976,290.073 15.3976,285.407 10,280.5C 10.3333,272.833 10.6667,265.167 11,257.5C 7.22767,250.954 3.72767,244.288 0.5,237.5C 2.45378,233.262 4.12045,228.929 5.5,224.5C 3.75386,217.016 2.08719,209.516 0.5,202C 1.24938,198.561 2.91604,195.561 5.5,193C 12.3669,192.741 19.2002,193.241 26,194.5C 29.5721,194.141 33.0721,193.474 36.5,192.5C 38.1667,182.5 39.8333,172.5 41.5,162.5C 50.5757,164.127 58.5757,162.127 65.5,156.5C 67.1564,148.582 68.1564,140.582 68.5,132.5C 69.8333,132.5 71.1667,132.5 72.5,132.5C 72.7261,123.788 73.3928,115.121 74.5,106.5C 75.3138,104.369 75.8138,102.036 76,99.5C 77.6667,97.8333 79.3333,96.1667 81,94.5C 81.6917,93.5632 81.525,92.8966 80.5,92.5C 80.5,91.8333 80.5,91.1667 80.5,90.5C 80.5,89.1667 80.5,87.8333 80.5,86.5 Z"/></g>
<g><path style="opacity:1" fill="#d7a989" d="M 350.5,171.5 C 348.476,179.073 346.143,186.573 343.5,194C 346.97,197.799 350.803,201.299 355,204.5C 356.158,209.457 356.992,214.457 357.5,219.5C 362.823,221.159 368.156,222.826 373.5,224.5C 373.5,225.167 373.5,225.833 373.5,226.5C 367.574,225.302 361.908,223.302 356.5,220.5C 355.016,215.584 353.85,210.584 353,205.5C 349.333,202.5 345.667,199.5 342,196.5C 341.333,194.833 341.333,193.167 342,191.5C 344.61,184.628 347.443,177.962 350.5,171.5 Z"/></g>
<g><path style="opacity:1" fill="#d7a686" d="M 373.5,281.5 C 373.5,285.833 373.5,290.167 373.5,294.5C 373.167,294.5 372.833,294.5 372.5,294.5C 371.833,294.5 371.5,294.167 371.5,293.5C 371.851,289.316 372.518,285.316 373.5,281.5 Z"/></g>
<g><path style="opacity:0.922" fill="#c39b95" d="M 371.5,293.5 C 371.5,294.167 371.833,294.5 372.5,294.5C 370.451,297.55 367.784,299.883 364.5,301.5C 364.5,300.833 364.5,300.167 364.5,299.5C 366.607,297.273 368.94,295.273 371.5,293.5 Z"/></g>
<g><path style="opacity:0.02" fill="#958ab4" d="M 364.5,301.5 C 364.027,302.906 363.027,303.573 361.5,303.5C 361.973,302.094 362.973,301.427 364.5,301.5 Z"/></g>
<g><path style="opacity:0.004" fill="#9a8eb4" d="M 361.5,303.5 C 360.921,306.331 359.588,308.664 357.5,310.5C 358.079,307.669 359.412,305.336 361.5,303.5 Z"/></g>
<g><path style="opacity:0.463" fill="#b8a77b" d="M 26.5,294.5 C 28.5495,300.526 29.5495,306.859 29.5,313.5C 27.9809,307.379 26.9809,301.046 26.5,294.5 Z"/></g>
<g><path style="opacity:0.231" fill="#bdaa80" d="M 29.5,313.5 C 30.3019,314.952 30.8019,316.618 31,318.5C 33.0396,320.37 34.8729,322.37 36.5,324.5C 31.3164,322.649 28.9831,318.983 29.5,313.5 Z"/></g>
<g><path style="opacity:1" fill="#cfa28e" d="M 364.5,299.5 C 364.5,300.167 364.5,300.833 364.5,301.5C 362.973,301.427 361.973,302.094 361.5,303.5C 359.412,305.336 358.079,307.669 357.5,310.5C 356.986,312.366 356.32,314.2 355.5,316C 357.043,318.33 357.543,320.83 357,323.5C 352.225,332.716 347.725,342.05 343.5,351.5C 344.723,354.947 346.223,358.28 348,361.5C 348.17,367.196 348.67,372.862 349.5,378.5C 353.481,380.003 355.147,383.003 354.5,387.5C 353.692,398.502 352.859,409.502 352,420.5C 349.167,423.333 346.333,426.167 343.5,429C 339.83,428.841 336.163,428.341 332.5,427.5C 331.833,427.5 331.5,427.167 331.5,426.5C 332.097,425.861 332.93,425.528 334,425.5C 336.822,426.451 339.655,426.951 342.5,427C 345,424.5 347.5,422 350,419.5C 350.731,408.659 351.565,397.825 352.5,387C 353.001,382.951 351.335,380.451 347.5,379.5C 346.67,373.528 346.17,367.528 346,361.5C 344.223,358.28 342.723,354.947 341.5,351.5C 345.725,342.05 350.225,332.716 355,323.5C 354.667,320.167 354.333,316.833 354,313.5C 355.667,310.167 357.333,306.833 359,303.5C 360.451,301.536 362.284,300.203 364.5,299.5 Z"/></g>
<g><path style="opacity:0.863" fill="#d2a991" d="M 61.5,335.5 C 62.1667,346.674 62.8333,358.007 63.5,369.5C 68.5,372.833 73.5,376.167 78.5,379.5C 78.8333,380.5 79.1667,381.5 79.5,382.5C 77.0389,392.551 74.3722,402.551 71.5,412.5C 77.3353,417.91 84.3353,420.91 92.5,421.5C 97.0463,419.978 101.546,418.311 106,416.5C 116.178,418.361 126.011,421.027 135.5,424.5C 135.062,424.435 134.728,424.601 134.5,425C 135.737,425.232 136.737,425.732 137.5,426.5C 126.939,424.148 116.439,421.481 106,418.5C 102.338,419.58 98.8382,421.08 95.5,423C 92.8333,423.667 90.1667,423.667 87.5,423C 81.8333,420.5 76.1667,418 70.5,415.5C 69.3691,413.926 69.2025,412.259 70,410.5C 72.4221,401.311 74.9221,392.145 77.5,383C 77.2409,381.739 76.5742,380.739 75.5,380C 70.0836,376.97 65.0836,373.47 60.5,369.5C 61.4948,358.346 61.8281,347.012 61.5,335.5 Z"/></g>
<g><path style="opacity:0.753" fill="#d5a88d" d="M 198.5,478.5 C 198.5,479.167 198.167,479.5 197.5,479.5C 195.693,471.896 194.86,463.896 195,455.5C 191.333,451.5 187.667,447.5 184,443.5C 183.501,437.843 183.334,432.176 183.5,426.5C 171.989,426.094 160.489,425.428 149,424.5C 144.98,424.352 141.147,425.019 137.5,426.5C 136.737,425.732 135.737,425.232 134.5,425C 134.728,424.601 135.062,424.435 135.5,424.5C 140.529,423.113 145.695,422.446 151,422.5C 162.178,423.18 173.345,424.014 184.5,425C 185.31,430.751 185.81,436.584 186,442.5C 189.667,446.833 193.333,451.167 197,455.5C 197.199,463.245 197.699,470.912 198.5,478.5 Z"/></g>
<g><path style="opacity:0.741" fill="#ca9f91" d="M 331.5,426.5 C 331.5,427.167 331.833,427.5 332.5,427.5C 324.23,432.307 315.896,437.14 307.5,442C 312,447.167 316.5,452.333 321,457.5C 321.78,459.387 321.613,461.054 320.5,462.5C 320.672,461.508 320.338,460.842 319.5,460.5C 315.618,454.439 311.118,448.773 306,443.5C 305.333,442.5 305.333,441.5 306,440.5C 314.154,435.175 322.654,430.508 331.5,426.5 Z"/></g>
<g><path style="opacity:1" fill="#d1a38e" d="M 319.5,460.5 C 320.338,460.842 320.672,461.508 320.5,462.5C 320.02,465.443 319.02,468.11 317.5,470.5C 316.069,471.78 315.402,473.447 315.5,475.5C 314.263,476.965 313.263,478.632 312.5,480.5C 307.833,480.5 303.167,480.5 298.5,480.5C 297.508,480.672 296.842,480.338 296.5,479.5C 301.316,478.674 306.316,478.174 311.5,478C 314.31,472.215 316.976,466.382 319.5,460.5 Z"/></g>
<g><path style="opacity:0.004" fill="#988db5" d="M 317.5,470.5 C 317.598,472.553 316.931,474.22 315.5,475.5C 315.402,473.447 316.069,471.78 317.5,470.5 Z"/></g>
<g><path style="opacity:0.027" fill="#998fb7" d="M 315.5,475.5 C 315.741,478.034 314.741,479.7 312.5,480.5C 313.263,478.632 314.263,476.965 315.5,475.5 Z"/></g>
<g><path style="opacity:1" fill="#d2a988" d="M 296.5,479.5 C 296.842,480.338 297.508,480.672 298.5,480.5C 293.695,484.275 288.361,487.275 282.5,489.5C 278.167,486.833 273.833,484.167 269.5,481.5C 258.608,484.808 247.608,487.308 236.5,489C 233.833,485.667 231.167,482.333 228.5,479C 220.157,478.967 211.824,479.467 203.5,480.5C 201.304,480.495 199.304,480.162 197.5,479.5C 198.167,479.5 198.5,479.167 198.5,478.5C 208.82,477.467 219.153,476.967 229.5,477C 232.367,480.862 235.534,484.362 239,487.5C 249.108,484.598 259.275,481.931 269.5,479.5C 274.307,481.289 278.641,483.956 282.5,487.5C 287.194,484.821 291.861,482.155 296.5,479.5 Z"/></g>
</svg>
