<?xml version="1.0" encoding="UTF-8"?>
<!DOCTYPE svg PUBLIC "-//W3C//DTD SVG 1.1//EN" "http://www.w3.org/Graphics/SVG/1.1/DTD/svg11.dtd">
<svg xmlns="http://www.w3.org/2000/svg" version="1.1" width="507px" height="296px" style="shape-rendering:geometricPrecision; text-rendering:geometricPrecision; image-rendering:optimizeQuality; fill-rule:evenodd; clip-rule:evenodd" xmlns:xlink="http://www.w3.org/1999/xlink">
<g><path style="opacity:1" fill="#f2bccb" d="M 278.5,42.5 C 278.833,42.5 279.167,42.5 279.5,42.5C 282.028,49.2219 285.362,55.5553 289.5,61.5C 292.141,62.8356 294.474,62.5023 296.5,60.5C 297.167,60.5 297.833,60.5 298.5,60.5C 300.141,61.147 301.474,62.147 302.5,63.5C 303.191,67.2717 305.524,68.9383 309.5,68.5C 314.813,67.8048 320.146,67.4715 325.5,67.5C 327.062,67.7329 328.395,68.3995 329.5,69.5C 330.99,75.0332 334.657,77.0332 340.5,75.5C 343.682,77.1927 345.348,79.8593 345.5,83.5C 345.999,88.4918 346.499,93.4918 347,98.5C 352.109,102.77 356.275,107.77 359.5,113.5C 363.445,114.491 367.445,114.824 371.5,114.5C 373.514,114.392 375.18,115.058 376.5,116.5C 377.767,120.568 380.433,123.068 384.5,124C 389.11,125.29 393.777,125.624 398.5,125C 399.381,124.292 400.047,123.458 400.5,122.5C 408.905,122.905 413.905,127.238 415.5,135.5C 415.334,140.179 415.501,144.845 416,149.5C 420.167,153.667 424.333,157.833 428.5,162C 434.409,162.341 440.242,163.174 446,164.5C 449.329,164.587 451.829,163.254 453.5,160.5C 455.117,159.962 456.784,159.629 458.5,159.5C 460.117,160.972 462.117,161.639 464.5,161.5C 474.769,159.87 485.102,159.203 495.5,159.5C 497.38,159.229 498.713,159.896 499.5,161.5C 500.412,163.595 501.579,165.595 503,167.5C 504.011,168.337 505.178,168.67 506.5,168.5C 506.5,178.833 506.5,189.167 506.5,199.5C 504.734,201.771 502.734,203.937 500.5,206C 498.323,207.202 495.989,207.702 493.5,207.5C 490.428,207.183 487.428,207.516 484.5,208.5C 481.562,213.378 478.895,218.378 476.5,223.5C 478.224,227.948 480.224,232.281 482.5,236.5C 484.022,237.562 485.688,238.229 487.5,238.5C 490.377,239.904 492.044,242.237 492.5,245.5C 492.999,249.49 493.499,253.49 494,257.5C 495.704,259.373 497.537,261.04 499.5,262.5C 501.432,265.177 501.932,268.177 501,271.5C 497.185,275.645 493.019,279.478 488.5,283C 483.09,284.788 477.59,286.288 472,287.5C 470.697,287.022 469.531,286.355 468.5,285.5C 464.453,281.136 459.453,278.469 453.5,277.5C 451.574,276.758 449.741,275.758 448,274.5C 446.144,271.444 444.311,268.444 442.5,265.5C 441.615,259.782 438.282,256.616 432.5,256C 424.403,256.845 416.236,257.345 408,257.5C 397.828,256.61 387.661,255.61 377.5,254.5C 374.473,247.472 369.14,244.139 361.5,244.5C 358.573,243.243 356.239,241.243 354.5,238.5C 353.949,235.193 353.616,231.86 353.5,228.5C 348.38,229.068 343.713,230.734 339.5,233.5C 335.881,234.244 332.215,234.577 328.5,234.5C 327.04,232.537 325.373,230.704 323.5,229C 301.43,227.968 279.43,228.468 257.5,230.5C 253.402,228.941 249.069,228.441 244.5,229C 240.25,231.374 236.084,233.874 232,236.5C 227.36,229.693 222.527,223.027 217.5,216.5C 213.571,215.184 209.571,214.184 205.5,213.5C 202.63,203.557 199.963,193.557 197.5,183.5C 189.857,185.16 182.523,187.827 175.5,191.5C 170.193,185.565 165.36,179.232 161,172.5C 158.261,168.218 154.927,167.552 151,170.5C 147.958,175.419 144.791,180.252 141.5,185C 132.786,185.218 124.12,184.551 115.5,183C 110.123,177.292 105.123,171.292 100.5,165C 94.0165,164.982 87.6831,164.148 81.5,162.5C 74.0457,166.061 66.7124,169.894 59.5,174C 53.5365,175.329 47.5365,175.996 41.5,176C 37.8333,173.833 34.1667,171.667 30.5,169.5C 29.7564,168.009 29.0897,166.509 28.5,165C 25.1667,164.667 21.8333,164.333 18.5,164C 11.9365,157.605 5.60321,151.105 -0.5,144.5C -0.5,143.5 -0.5,142.5 -0.5,141.5C 3.84687,137.314 7.68021,132.647 11,127.5C 12.6788,120.451 14.5121,113.451 16.5,106.5C 17.3333,106.167 18.1667,105.833 19,105.5C 25.4363,107.027 31.9363,107.527 38.5,107C 41.8333,103.667 45.1667,100.333 48.5,97C 52.0894,96.7931 55.5894,96.2931 59,95.5C 63.1058,88.2876 66.9391,80.9543 70.5,73.5C 67.2875,69.8807 63.6208,66.714 59.5,64C 64.957,56.2533 70.2903,48.42 75.5,40.5C 77.7649,39.3526 80.0982,39.1859 82.5,40C 85.2619,43.2321 88.5952,44.3987 92.5,43.5C 100.844,33.4602 109.177,23.4602 117.5,13.5C 118.308,13.8076 118.975,14.3076 119.5,15C 129.544,15.8376 139.544,17.0043 149.5,18.5C 151.5,23.1667 153.5,27.8333 155.5,32.5C 160.466,34.4598 165.633,35.4598 171,35.5C 179.781,34.4772 188.448,32.8105 197,30.5C 199.449,31.9443 201.615,33.7776 203.5,36C 213.764,37.9188 224.098,38.5854 234.5,38C 244.167,33.5 253.833,29 263.5,24.5C 267.529,30.03 271.362,35.6967 275,41.5C 276.011,42.3366 277.178,42.67 278.5,42.5 Z"/></g>
<g><path style="opacity:0.675" fill="#d4b88c" d="M 108.5,20.5 C 106.215,24.7267 103.215,28.3933 99.5,31.5C 101.785,27.2733 104.785,23.6067 108.5,20.5 Z"/></g>
<g><path style="opacity:0.984" fill="#9aa4b8" d="M 267.5,22.5 C 270.008,26.1822 272.008,30.1822 273.5,34.5C 269.421,31.6762 267.421,27.6762 267.5,22.5 Z"/></g>
<g><path style="opacity:0.599" fill="#d5bd8e" d="M 204.5,33.5 C 202.438,31.4361 200.105,29.7695 197.5,28.5C 188.5,30.5 179.5,32.5 170.5,34.5C 165.588,33.7895 160.921,32.4562 156.5,30.5C 154.629,25.9258 152.629,21.4258 150.5,17C 140.229,15.339 129.896,14.0057 119.5,13C 118.975,12.3076 118.308,11.8076 117.5,11.5C 114.721,14.7269 111.721,17.7269 108.5,20.5C 110.776,16.3042 113.776,12.6376 117.5,9.5C 118.646,10.1449 119.646,10.9783 120.5,12C 130.833,13 141.167,14 151.5,15C 154.192,19.9105 156.192,25.0772 157.5,30.5C 162.334,31.0996 167.167,31.7663 172,32.5C 180.328,30.8349 188.661,29.1682 197,27.5C 200.833,27.8324 203.333,29.8324 204.5,33.5 Z"/></g>
<g><path style="opacity:0.988" fill="#948996" d="M 274.5,36.5 C 276.914,37.9108 278.581,39.9108 279.5,42.5C 279.167,42.5 278.833,42.5 278.5,42.5C 276.748,40.7541 275.415,38.7541 274.5,36.5 Z"/></g>
<g><path style="opacity:0.965" fill="#d6bd8f" d="M 99.5,31.5 C 97.27,35.9494 94.1033,39.6161 90,42.5C 87.2481,41.4137 84.7481,39.9137 82.5,38C 80.1667,37.3333 77.8333,37.3333 75.5,38C 69.2788,46.7143 63.2788,55.5477 57.5,64.5C 57.1667,64.5 56.8333,64.5 56.5,64.5C 61.9149,55.2357 67.5816,46.0691 73.5,37C 80.0092,35.2409 85.5092,36.7409 90,41.5C 92.9517,37.9008 96.1184,34.5675 99.5,31.5 Z"/></g>
<g><path style="opacity:1" fill="#d6869d" d="M 204.5,33.5 C 213.601,35.6424 222.935,36.8091 232.5,37C 243.591,31.7851 254.591,26.6184 265.5,21.5C 266.167,21.8333 266.833,22.1667 267.5,22.5C 267.421,27.6762 269.421,31.6762 273.5,34.5C 274.338,34.8417 274.672,35.5084 274.5,36.5C 275.415,38.7541 276.748,40.7541 278.5,42.5C 277.178,42.67 276.011,42.3366 275,41.5C 271.362,35.6967 267.529,30.03 263.5,24.5C 253.833,29 244.167,33.5 234.5,38C 224.098,38.5854 213.764,37.9188 203.5,36C 201.615,33.7776 199.449,31.9443 197,30.5C 188.448,32.8105 179.781,34.4772 171,35.5C 165.633,35.4598 160.466,34.4598 155.5,32.5C 153.5,27.8333 151.5,23.1667 149.5,18.5C 139.544,17.0043 129.544,15.8376 119.5,15C 118.975,14.3076 118.308,13.8076 117.5,13.5C 109.177,23.4602 100.844,33.4602 92.5,43.5C 88.5952,44.3987 85.2619,43.2321 82.5,40C 80.0982,39.1859 77.7649,39.3526 75.5,40.5C 70.2903,48.42 64.957,56.2533 59.5,64C 63.6208,66.714 67.2875,69.8807 70.5,73.5C 66.9391,80.9543 63.1058,88.2876 59,95.5C 55.5894,96.2931 52.0894,96.7931 48.5,97C 45.1667,100.333 41.8333,103.667 38.5,107C 31.9363,107.527 25.4363,107.027 19,105.5C 18.1667,105.833 17.3333,106.167 16.5,106.5C 14.5121,113.451 12.6788,120.451 11,127.5C 7.68021,132.647 3.84687,137.314 -0.5,141.5C -0.5,140.833 -0.5,140.167 -0.5,139.5C 3.82752,135.499 7.16086,130.833 9.5,125.5C 9.5,125.167 9.5,124.833 9.5,124.5C 11.559,117.779 13.559,110.945 15.5,104C 22.8333,104.667 30.1667,105.333 37.5,106C 41.3705,102.298 45.0371,98.4643 48.5,94.5C 51.5184,94.6646 54.5184,94.498 57.5,94C 61.5,87.3333 65.5,80.6667 69.5,74C 65.625,70.6193 61.625,67.4526 57.5,64.5C 63.2788,55.5477 69.2788,46.7143 75.5,38C 77.8333,37.3333 80.1667,37.3333 82.5,38C 84.7481,39.9137 87.2481,41.4137 90,42.5C 94.1033,39.6161 97.27,35.9494 99.5,31.5C 103.215,28.3933 106.215,24.7267 108.5,20.5C 111.721,17.7269 114.721,14.7269 117.5,11.5C 118.308,11.8076 118.975,12.3076 119.5,13C 129.896,14.0057 140.229,15.339 150.5,17C 152.629,21.4258 154.629,25.9258 156.5,30.5C 160.921,32.4562 165.588,33.7895 170.5,34.5C 179.5,32.5 188.5,30.5 197.5,28.5C 200.105,29.7695 202.438,31.4361 204.5,33.5 Z"/></g>
<g><path style="opacity:0.957" fill="#d7bf91" d="M 265.5,21.5 C 254.591,26.6184 243.591,31.7851 232.5,37C 222.935,36.8091 213.601,35.6424 204.5,33.5C 213.821,34.4994 223.154,34.9994 232.5,35C 243.11,29.3553 254.11,24.8553 265.5,21.5 Z"/></g>
<g><path style="opacity:0.541" fill="#8fa0b3" d="M 284.5,49.5 C 285.906,49.9731 286.573,50.9731 286.5,52.5C 285.094,52.0269 284.427,51.0269 284.5,49.5 Z"/></g>
<g><path style="opacity:0.408" fill="#8e9daf" d="M 286.5,52.5 C 288.25,53.6594 289.25,55.326 289.5,57.5C 287.75,56.3406 286.75,54.674 286.5,52.5 Z"/></g>
<g><path style="opacity:1" fill="#c58498" d="M 279.5,42.5 C 281.9,44.2964 283.567,46.6298 284.5,49.5C 284.427,51.0269 285.094,52.0269 286.5,52.5C 286.75,54.674 287.75,56.3406 289.5,57.5C 291.547,59.0745 293.881,60.0745 296.5,60.5C 294.474,62.5023 292.141,62.8356 289.5,61.5C 285.362,55.5553 282.028,49.2219 279.5,42.5 Z"/></g>
<g><path style="opacity:0.733" fill="#987b8f" d="M 298.5,60.5 C 301.196,59.4306 303.196,60.4306 304.5,63.5C 303.833,63.5 303.167,63.5 302.5,63.5C 301.474,62.147 300.141,61.147 298.5,60.5 Z"/></g>
<g><path style="opacity:0.082" fill="#92a9bf" d="M 304.5,63.5 C 307.373,63.8023 310.039,64.469 312.5,65.5C 311.167,65.5 309.833,65.5 308.5,65.5C 306.847,65.3404 305.514,64.6737 304.5,63.5 Z"/></g>
<g><path style="opacity:1" fill="#d990a5" d="M 302.5,63.5 C 303.167,63.5 303.833,63.5 304.5,63.5C 305.514,64.6737 306.847,65.3404 308.5,65.5C 314.167,66.1667 319.833,66.8333 325.5,67.5C 320.146,67.4715 314.813,67.8048 309.5,68.5C 305.524,68.9383 303.191,67.2717 302.5,63.5 Z"/></g>
<g><path style="opacity:0.996" fill="#97889b" d="M 347.5,87.5 C 346.833,86.1667 346.167,84.8333 345.5,83.5C 345.348,79.8593 343.682,77.1927 340.5,75.5C 336.74,73.7845 333.073,71.7845 329.5,69.5C 328.395,68.3995 327.062,67.7329 325.5,67.5C 319.833,66.8333 314.167,66.1667 308.5,65.5C 309.833,65.5 311.167,65.5 312.5,65.5C 317.489,64.7784 322.489,64.6117 327.5,65C 332.193,69.3473 337.527,72.6806 343.5,75C 346.127,78.7165 347.461,82.8832 347.5,87.5 Z"/></g>
<g><path style="opacity:1" fill="#d98da3" d="M 329.5,69.5 C 333.073,71.7845 336.74,73.7845 340.5,75.5C 334.657,77.0332 330.99,75.0332 329.5,69.5 Z"/></g>
<g><path style="opacity:0.702" fill="#9c8fb8" d="M 56.5,64.5 C 56.8333,64.5 57.1667,64.5 57.5,64.5C 61.625,67.4526 65.625,70.6193 69.5,74C 65.5,80.6667 61.5,87.3333 57.5,94C 54.5184,94.498 51.5184,94.6646 48.5,94.5C 47.8333,94.5 47.5,94.1667 47.5,93.5C 50.5719,93.8174 53.5719,93.4841 56.5,92.5C 60.2926,86.4159 63.9592,80.2493 67.5,74C 64.672,71.7519 61.672,69.7519 58.5,68C 57.1772,67.1841 56.5106,66.0174 56.5,64.5 Z"/></g>
<g><path style="opacity:1" fill="#b698a6" d="M 347.5,87.5 C 349.003,91.3411 350.336,95.3411 351.5,99.5C 350.504,99.5858 349.671,99.2524 349,98.5C 347.763,94.9399 347.263,91.2733 347.5,87.5 Z"/></g>
<g><path style="opacity:0.904" fill="#a396bd" d="M 47.5,93.5 C 47.5,94.1667 47.8333,94.5 48.5,94.5C 45.0371,98.4643 41.3705,102.298 37.5,106C 30.1667,105.333 22.8333,104.667 15.5,104C 13.559,110.945 11.559,117.779 9.5,124.5C 9.82552,117.023 11.4922,109.856 14.5,103C 21.8384,102.89 29.1717,102.89 36.5,103C 39.7635,99.2271 43.4302,96.0604 47.5,93.5 Z"/></g>
<g><path style="opacity:0.976" fill="#95a9bf" d="M 358.5,107.5 C 359.627,108.122 360.627,108.955 361.5,110C 365.637,110.839 369.637,111.673 373.5,112.5C 371.5,112.5 369.5,112.5 367.5,112.5C 363.073,113.125 360.073,111.459 358.5,107.5 Z"/></g>
<g><path style="opacity:1" fill="#d0849b" d="M 345.5,83.5 C 346.167,84.8333 346.833,86.1667 347.5,87.5C 347.263,91.2733 347.763,94.9399 349,98.5C 349.671,99.2524 350.504,99.5858 351.5,99.5C 353.833,102.167 356.167,104.833 358.5,107.5C 360.073,111.459 363.073,113.125 367.5,112.5C 368.833,113.167 370.167,113.833 371.5,114.5C 367.445,114.824 363.445,114.491 359.5,113.5C 356.275,107.77 352.109,102.77 347,98.5C 346.499,93.4918 345.999,88.4918 345.5,83.5 Z"/></g>
<g><path style="opacity:0.957" fill="#988093" d="M 367.5,112.5 C 369.5,112.5 371.5,112.5 373.5,112.5C 376.723,114.048 379.39,116.381 381.5,119.5C 379.589,118.925 377.922,117.925 376.5,116.5C 375.18,115.058 373.514,114.392 371.5,114.5C 370.167,113.833 368.833,113.167 367.5,112.5 Z"/></g>
<g><path style="opacity:1" fill="#d88ba1" d="M 376.5,116.5 C 377.922,117.925 379.589,118.925 381.5,119.5C 381.973,120.906 382.973,121.573 384.5,121.5C 386.679,122.926 389.179,123.592 392,123.5C 394.848,123.202 397.681,122.869 400.5,122.5C 400.047,123.458 399.381,124.292 398.5,125C 393.777,125.624 389.11,125.29 384.5,124C 380.433,123.068 377.767,120.568 376.5,116.5 Z"/></g>
<g><path style="opacity:0.325" fill="#918e98" d="M 381.5,119.5 C 383.027,119.427 384.027,120.094 384.5,121.5C 382.973,121.573 381.973,120.906 381.5,119.5 Z"/></g>
<g><path style="opacity:0.961" fill="#958698" d="M 417.5,138.5 C 417.5,138.833 417.5,139.167 417.5,139.5C 416.833,138.167 416.167,136.833 415.5,135.5C 413.905,127.238 408.905,122.905 400.5,122.5C 397.681,122.869 394.848,123.202 392,123.5C 389.179,123.592 386.679,122.926 384.5,121.5C 387.193,121.572 389.86,121.905 392.5,122.5C 397.825,120.33 403.158,120.163 408.5,122C 411,124.5 413.5,127 416,129.5C 417.289,132.351 417.789,135.351 417.5,138.5 Z"/></g>
<g><path style="opacity:0.867" fill="#9b8eb7" d="M 9.5,125.5 C 7.16086,130.833 3.82752,135.499 -0.5,139.5C -0.5,138.5 -0.5,137.5 -0.5,136.5C 2.83333,132.833 6.16667,129.167 9.5,125.5 Z"/></g>
<g><path style="opacity:1" fill="#d68aa0" d="M 415.5,135.5 C 416.167,136.833 416.833,138.167 417.5,139.5C 417.871,146.909 420.871,152.909 426.5,157.5C 426.833,157.5 427.167,157.5 427.5,157.5C 427.577,158.75 428.244,159.583 429.5,160C 433.145,160.719 436.812,161.219 440.5,161.5C 444.804,162.761 449.137,162.428 453.5,160.5C 451.829,163.254 449.329,164.587 446,164.5C 440.242,163.174 434.409,162.341 428.5,162C 424.333,157.833 420.167,153.667 416,149.5C 415.501,144.845 415.334,140.179 415.5,135.5 Z"/></g>
<g><path style="opacity:0.839" fill="#96a0b3" d="M 417.5,138.5 C 419.672,145.179 422.672,151.512 426.5,157.5C 420.871,152.909 417.871,146.909 417.5,139.5C 417.5,139.167 417.5,138.833 417.5,138.5 Z"/></g>
<g><path style="opacity:0.875" fill="#957a89" d="M 484.5,158.5 C 488.981,157.352 493.648,157.185 498.5,158C 500.751,160.758 503.418,162.925 506.5,164.5C 506.5,165.167 506.5,165.833 506.5,166.5C 503.907,165.246 501.573,163.58 499.5,161.5C 498.713,159.896 497.38,159.229 495.5,159.5C 492.038,158.518 488.371,158.185 484.5,158.5 Z"/></g>
<g><path style="opacity:0.914" fill="#9eb0cf" d="M 458.5,158.5 C 456.435,158.517 454.435,158.85 452.5,159.5C 453.134,158.053 454.301,157.387 456,157.5C 457.07,157.528 457.903,157.861 458.5,158.5 Z"/></g>
<g><path style="opacity:0.82" fill="#99a8bf" d="M 427.5,157.5 C 433.927,159.638 440.594,160.638 447.5,160.5C 445.393,161.468 443.059,161.802 440.5,161.5C 436.812,161.219 433.145,160.719 429.5,160C 428.244,159.583 427.577,158.75 427.5,157.5 Z"/></g>
<g><path style="opacity:0.971" fill="#c78297" d="M 484.5,158.5 C 488.371,158.185 492.038,158.518 495.5,159.5C 485.102,159.203 474.769,159.87 464.5,161.5C 462.117,161.639 460.117,160.972 458.5,159.5C 459.167,159.5 459.833,159.5 460.5,159.5C 461.93,159.421 463.264,159.754 464.5,160.5C 471.029,158.73 477.696,158.064 484.5,158.5 Z"/></g>
<g><path style="opacity:0.973" fill="#8d8490" d="M 458.5,158.5 C 459.492,158.328 460.158,158.662 460.5,159.5C 459.833,159.5 459.167,159.5 458.5,159.5C 456.784,159.629 455.117,159.962 453.5,160.5C 449.137,162.428 444.804,162.761 440.5,161.5C 443.059,161.802 445.393,161.468 447.5,160.5C 449.117,159.962 450.784,159.629 452.5,159.5C 454.435,158.85 456.435,158.517 458.5,158.5 Z"/></g>
<g><path style="opacity:1" fill="#d988a0" d="M 499.5,161.5 C 501.573,163.58 503.907,165.246 506.5,166.5C 506.5,167.167 506.5,167.833 506.5,168.5C 505.178,168.67 504.011,168.337 503,167.5C 501.579,165.595 500.412,163.595 499.5,161.5 Z"/></g>
<g><path style="opacity:0.702" fill="#a196be" d="M 5.5,154.5 C 9.584,158.081 13.584,161.914 17.5,166C 20.8168,166.498 24.1501,166.665 27.5,166.5C 27.2965,168.39 27.9632,169.89 29.5,171C 34.1576,173.912 38.991,176.412 44,178.5C 49.8951,177.601 55.7284,176.434 61.5,175C 67.8876,171.476 74.221,167.976 80.5,164.5C 74.5851,169.469 68.2518,173.969 61.5,178C 56.1728,178.566 50.8395,179.066 45.5,179.5C 42.7052,179.547 40.0385,179.047 37.5,178C 34.1667,176 30.8333,174 27.5,172C 26.6634,170.989 26.33,169.822 26.5,168.5C 23.1501,168.665 19.8168,168.498 16.5,168C 12.6207,163.626 8.95407,159.126 5.5,154.5 Z"/></g>
<g><path style="opacity:0.835" fill="#a295bc" d="M 153.5,170.5 C 155.757,169.197 157.59,169.864 159,172.5C 163.95,179.784 169.283,186.784 175,193.5C 176.011,192.663 177.178,192.33 178.5,192.5C 176.881,194.238 174.881,194.738 172.5,194C 166.628,185.645 160.295,177.812 153.5,170.5 Z"/></g>
<g><path style="opacity:0.718" fill="#9c90b9" d="M 99.5,167.5 C 104.634,172.805 109.634,178.305 114.5,184C 122.231,185.601 130.064,186.768 138,187.5C 140.034,187.646 141.701,186.98 143,185.5C 146.03,180.084 149.53,175.084 153.5,170.5C 150.864,176.435 147.698,182.102 144,187.5C 142.094,188.131 140.094,188.464 138,188.5C 129.823,187.766 121.657,186.932 113.5,186C 108.451,180.043 103.784,173.876 99.5,167.5 Z"/></g>
<g><path style="opacity:1" fill="#d4859e" d="M -0.5,144.5 C 5.60321,151.105 11.9365,157.605 18.5,164C 21.8333,164.333 25.1667,164.667 28.5,165C 29.0897,166.509 29.7564,168.009 30.5,169.5C 34.1667,171.667 37.8333,173.833 41.5,176C 47.5365,175.996 53.5365,175.329 59.5,174C 66.7124,169.894 74.0457,166.061 81.5,162.5C 87.6831,164.148 94.0165,164.982 100.5,165C 105.123,171.292 110.123,177.292 115.5,183C 124.12,184.551 132.786,185.218 141.5,185C 144.791,180.252 147.958,175.419 151,170.5C 154.927,167.552 158.261,168.218 161,172.5C 165.36,179.232 170.193,185.565 175.5,191.5C 182.523,187.827 189.857,185.16 197.5,183.5C 199.963,193.557 202.63,203.557 205.5,213.5C 209.571,214.184 213.571,215.184 217.5,216.5C 222.527,223.027 227.36,229.693 232,236.5C 236.084,233.874 240.25,231.374 244.5,229C 249.069,228.441 253.402,228.941 257.5,230.5C 256.5,230.5 255.5,230.5 254.5,230.5C 247.221,229.896 240.888,231.896 235.5,236.5C 234.833,236.5 234.5,236.833 234.5,237.5C 233.391,237.557 232.391,237.89 231.5,238.5C 226.814,233.142 222.481,227.475 218.5,221.5C 218.573,219.973 217.906,218.973 216.5,218.5C 212.832,216.95 208.998,215.617 205,214.5C 202.849,209.839 201.016,205.172 199.5,200.5C 199.59,197.848 198.924,195.515 197.5,193.5C 196.566,192.432 196.232,191.099 196.5,189.5C 196.769,187.571 196.269,185.905 195,184.5C 189.363,187.07 183.863,189.736 178.5,192.5C 177.178,192.33 176.011,192.663 175,193.5C 169.283,186.784 163.95,179.784 159,172.5C 157.59,169.864 155.757,169.197 153.5,170.5C 149.53,175.084 146.03,180.084 143,185.5C 141.701,186.98 140.034,187.646 138,187.5C 130.064,186.768 122.231,185.601 114.5,184C 109.634,178.305 104.634,172.805 99.5,167.5C 93.8473,166.954 88.1806,165.954 82.5,164.5C 81.8333,164.5 81.1667,164.5 80.5,164.5C 74.221,167.976 67.8876,171.476 61.5,175C 55.7284,176.434 49.8951,177.601 44,178.5C 38.991,176.412 34.1576,173.912 29.5,171C 27.9632,169.89 27.2965,168.39 27.5,166.5C 24.1501,166.665 20.8168,166.498 17.5,166C 13.584,161.914 9.584,158.081 5.5,154.5C 3.13942,152.806 1.13942,150.806 -0.5,148.5C -0.5,147.167 -0.5,145.833 -0.5,144.5 Z"/></g>
<g><path style="opacity:1" fill="#9288b4" d="M 82.5,164.5 C 88.1806,165.954 93.8473,166.954 99.5,167.5C 94.4889,167.666 89.4889,167.499 84.5,167C 83.6195,166.292 82.9528,165.458 82.5,164.5 Z"/></g>
<g><path style="opacity:0.094" fill="#998cb6" d="M 196.5,189.5 C 195.842,188.602 195.176,187.602 194.5,186.5C 189.354,189.076 184.021,191.076 178.5,192.5C 183.863,189.736 189.363,187.07 195,184.5C 196.269,185.905 196.769,187.571 196.5,189.5 Z"/></g>
<g><path style="opacity:0.104" fill="#9889b4" d="M 197.5,193.5 C 198.924,195.515 199.59,197.848 199.5,200.5C 198.076,198.485 197.41,196.152 197.5,193.5 Z"/></g>
<g><path style="opacity:0.918" fill="#9b7a8d" d="M 506.5,199.5 C 506.5,200.833 506.5,202.167 506.5,203.5C 503.981,206.759 500.648,208.426 496.5,208.5C 495.5,208.5 494.5,208.5 493.5,208.5C 493.5,208.167 493.5,207.833 493.5,207.5C 495.989,207.702 498.323,207.202 500.5,206C 502.734,203.937 504.734,201.771 506.5,199.5 Z"/></g>
<g><path style="opacity:0.11" fill="#90a6bb" d="M 493.5,208.5 C 494.5,208.5 495.5,208.5 496.5,208.5C 494.095,209.768 491.428,210.435 488.5,210.5C 489.93,209.463 491.597,208.796 493.5,208.5 Z"/></g>
<g><path style="opacity:0.051" fill="#929eb0" d="M 488.5,210.5 C 486.5,213.167 484.167,215.5 481.5,217.5C 482.833,214.167 485.167,211.833 488.5,210.5 Z"/></g>
<g><path style="opacity:0.902" fill="#998db8" d="M 199.5,200.5 C 201.016,205.172 202.849,209.839 205,214.5C 208.998,215.617 212.832,216.95 216.5,218.5C 211.825,218.206 207.325,217.206 203,215.5C 201.358,210.598 200.191,205.598 199.5,200.5 Z"/></g>
<g><path style="opacity:0.039" fill="#978ab5" d="M 216.5,218.5 C 217.906,218.973 218.573,219.973 218.5,221.5C 217.094,221.027 216.427,220.027 216.5,218.5 Z"/></g>
<g><path style="opacity:1" fill="#d689a0" d="M 493.5,207.5 C 493.5,207.833 493.5,208.167 493.5,208.5C 491.597,208.796 489.93,209.463 488.5,210.5C 485.167,211.833 482.833,214.167 481.5,217.5C 480.028,219.117 479.361,221.117 479.5,223.5C 479.511,225.045 479.844,226.378 480.5,227.5C 480.5,227.833 480.5,228.167 480.5,228.5C 481.353,232.02 483.353,234.687 486.5,236.5C 486.833,237.167 487.167,237.833 487.5,238.5C 485.688,238.229 484.022,237.562 482.5,236.5C 480.224,232.281 478.224,227.948 476.5,223.5C 478.895,218.378 481.562,213.378 484.5,208.5C 487.428,207.516 490.428,207.183 493.5,207.5 Z"/></g>
<g><path style="opacity:0.98" fill="#94939f" d="M 481.5,217.5 C 481.384,220.86 481.051,224.193 480.5,227.5C 479.844,226.378 479.511,225.045 479.5,223.5C 479.361,221.117 480.028,219.117 481.5,217.5 Z"/></g>
<g><path style="opacity:1" fill="#b57589" d="M 328.5,234.5 C 327.833,234.5 327.167,234.5 326.5,234.5C 326.027,233.094 325.027,232.427 323.5,232.5C 322.653,231.034 321.32,230.2 319.5,230C 302.995,229.172 286.661,229.338 270.5,230.5C 265.26,231.449 259.927,231.782 254.5,231.5C 254.5,231.167 254.5,230.833 254.5,230.5C 255.5,230.5 256.5,230.5 257.5,230.5C 279.43,228.468 301.43,227.968 323.5,229C 325.373,230.704 327.04,232.537 328.5,234.5 Z"/></g>
<g><path style="opacity:1" fill="#d2819a" d="M 354.5,238.5 C 353.833,238.5 353.167,238.5 352.5,238.5C 352.5,237.833 352.5,237.167 352.5,236.5C 352.5,236.167 352.5,235.833 352.5,235.5C 352.628,233.345 352.128,231.345 351,229.5C 349.124,230.609 347.291,231.609 345.5,232.5C 343.5,232.833 341.5,233.167 339.5,233.5C 343.713,230.734 348.38,229.068 353.5,228.5C 353.616,231.86 353.949,235.193 354.5,238.5 Z"/></g>
<g><path style="opacity:0.355" fill="#8ea8bf" d="M 270.5,230.5 C 286.661,229.338 302.995,229.172 319.5,230C 321.32,230.2 322.653,231.034 323.5,232.5C 321.073,232.477 318.74,231.977 316.5,231C 301.17,230.5 285.837,230.333 270.5,230.5 Z"/></g>
<g><path style="opacity:1" fill="#edb5c4" d="M 352.5,235.5 C 350.787,233.15 348.453,232.15 345.5,232.5C 347.291,231.609 349.124,230.609 351,229.5C 352.128,231.345 352.628,233.345 352.5,235.5 Z"/></g>
<g><path style="opacity:0.659" fill="#938d99" d="M 254.5,230.5 C 254.5,230.833 254.5,231.167 254.5,231.5C 247.694,231.451 241.361,233.118 235.5,236.5C 240.888,231.896 247.221,229.896 254.5,230.5 Z"/></g>
<g><path style="opacity:0.914" fill="#8e8fa2" d="M 323.5,232.5 C 325.027,232.427 326.027,233.094 326.5,234.5C 324.973,234.573 323.973,233.906 323.5,232.5 Z"/></g>
<g><path style="opacity:0.914" fill="#99acc3" d="M 480.5,228.5 C 483.916,232.587 487.916,235.92 492.5,238.5C 490.5,237.833 488.5,237.167 486.5,236.5C 483.353,234.687 481.353,232.02 480.5,228.5 Z"/></g>
<g><path style="opacity:0.992" fill="#9b899b" d="M 345.5,232.5 C 348.453,232.15 350.787,233.15 352.5,235.5C 352.5,235.833 352.5,236.167 352.5,236.5C 350.511,235.519 348.511,234.519 346.5,233.5C 341.681,234.536 337.014,235.869 332.5,237.5C 329.898,237.533 327.898,236.533 326.5,234.5C 327.167,234.5 327.833,234.5 328.5,234.5C 332.215,234.577 335.881,234.244 339.5,233.5C 341.5,233.167 343.5,232.833 345.5,232.5 Z"/></g>
<g><path style="opacity:0.306" fill="#8e93a1" d="M 234.5,237.5 C 233.779,239.382 232.779,239.715 231.5,238.5C 232.391,237.89 233.391,237.557 234.5,237.5 Z"/></g>
<g><path style="opacity:0.439" fill="#988295" d="M 352.5,238.5 C 353.167,238.5 353.833,238.5 354.5,238.5C 356.239,241.243 358.573,243.243 361.5,244.5C 362.5,245.167 363.5,245.833 364.5,246.5C 358.76,246.306 354.76,243.639 352.5,238.5 Z"/></g>
<g><path style="opacity:0.863" fill="#947e91" d="M 486.5,236.5 C 488.5,237.167 490.5,237.833 492.5,238.5C 493.323,241.461 493.99,244.461 494.5,247.5C 494.5,247.833 494.5,248.167 494.5,248.5C 493.833,247.5 493.167,246.5 492.5,245.5C 492.044,242.237 490.377,239.904 487.5,238.5C 487.167,237.833 486.833,237.167 486.5,236.5 Z"/></g>
<g><path style="opacity:1" fill="#ce859b" d="M 361.5,244.5 C 369.14,244.139 374.473,247.472 377.5,254.5C 375.973,254.573 374.973,253.906 374.5,252.5C 371.839,249.498 368.505,247.498 364.5,246.5C 363.5,245.833 362.5,245.167 361.5,244.5 Z"/></g>
<g><path style="opacity:0.396" fill="#8f92a1" d="M 364.5,246.5 C 368.505,247.498 371.839,249.498 374.5,252.5C 370.827,251 367.494,249 364.5,246.5 Z"/></g>
<g><path style="opacity:1" fill="#c58196" d="M 377.5,254.5 C 387.661,255.61 397.828,256.61 408,257.5C 416.236,257.345 424.403,256.845 432.5,256C 438.282,256.616 441.615,259.782 442.5,265.5C 441.272,264.694 440.272,263.694 439.5,262.5C 437.906,261.017 436.24,259.517 434.5,258C 430.311,257.188 426.311,257.355 422.5,258.5C 407.072,260.336 392.072,259.003 377.5,254.5 Z"/></g>
<g><path style="opacity:1" fill="#d1849b" d="M 492.5,245.5 C 493.167,246.5 493.833,247.5 494.5,248.5C 495.055,253.6 496.721,258.267 499.5,262.5C 497.537,261.04 495.704,259.373 494,257.5C 493.499,253.49 492.999,249.49 492.5,245.5 Z"/></g>
<g><path style="opacity:0.914" fill="#91a3b8" d="M 422.5,258.5 C 426.311,257.355 430.311,257.188 434.5,258C 436.24,259.517 437.906,261.017 439.5,262.5C 439.5,262.833 439.5,263.167 439.5,263.5C 437.456,262.969 435.789,261.802 434.5,260C 430.582,258.844 426.582,258.344 422.5,258.5 Z"/></g>
<g><path style="opacity:0.992" fill="#988598" d="M 439.5,262.5 C 440.272,263.694 441.272,264.694 442.5,265.5C 444.311,268.444 446.144,271.444 448,274.5C 449.741,275.758 451.574,276.758 453.5,277.5C 456.167,279.167 458.833,280.833 461.5,282.5C 457.089,281.307 452.756,279.807 448.5,278C 445.102,273.362 442.102,268.529 439.5,263.5C 439.5,263.167 439.5,262.833 439.5,262.5 Z"/></g>
<g><path style="opacity:1" fill="#cc8399" d="M 453.5,277.5 C 459.453,278.469 464.453,281.136 468.5,285.5C 467.833,285.5 467.167,285.5 466.5,285.5C 465.508,285.672 464.842,285.338 464.5,284.5C 464.027,283.094 463.027,282.427 461.5,282.5C 458.833,280.833 456.167,279.167 453.5,277.5 Z"/></g>
<g><path style="opacity:0.992" fill="#998296" d="M 494.5,247.5 C 496.653,253.428 499.486,259.094 503,264.5C 503.667,267.167 503.667,269.833 503,272.5C 498.468,277.367 493.634,281.867 488.5,286C 483.24,286.325 478.073,287.158 473,288.5C 470.198,288.68 468.031,287.68 466.5,285.5C 467.167,285.5 467.833,285.5 468.5,285.5C 469.531,286.355 470.697,287.022 472,287.5C 477.59,286.288 483.09,284.788 488.5,283C 493.019,279.478 497.185,275.645 501,271.5C 501.932,268.177 501.432,265.177 499.5,262.5C 496.721,258.267 495.055,253.6 494.5,248.5C 494.5,248.167 494.5,247.833 494.5,247.5 Z"/></g>
<g><path style="opacity:0.471" fill="#8e8491" d="M 461.5,282.5 C 463.027,282.427 464.027,283.094 464.5,284.5C 462.973,284.573 461.973,283.906 461.5,282.5 Z"/></g>
</svg>
