<?xml version="1.0" encoding="UTF-8"?>
<!DOCTYPE svg PUBLIC "-//W3C//DTD SVG 1.1//EN" "http://www.w3.org/Graphics/SVG/1.1/DTD/svg11.dtd">
<svg xmlns="http://www.w3.org/2000/svg" version="1.1" width="576px" height="469px" style="shape-rendering:geometricPrecision; text-rendering:geometricPrecision; image-rendering:optimizeQuality; fill-rule:evenodd; clip-rule:evenodd" xmlns:xlink="http://www.w3.org/1999/xlink">
<g><path style="opacity:1" fill="#7aa386" d="M 391.5,2.5 C 394.395,3.79872 397.062,5.46538 399.5,7.5C 397.135,6.40551 394.635,5.73885 392,5.5C 389.992,5.30684 388.492,5.9735 387.5,7.5C 387.167,7.5 386.833,7.5 386.5,7.5C 386.5,6.83333 386.5,6.16667 386.5,5.5C 387.401,3.2729 389.067,2.2729 391.5,2.5 Z"/></g>
<g><path style="opacity:0.886" fill="#9acae0" d="M 391.5,2.5 C 395.674,2.65861 399.008,4.32528 401.5,7.5C 400.833,7.5 400.167,7.5 399.5,7.5C 397.062,5.46538 394.395,3.79872 391.5,2.5 Z"/></g>
<g><path style="opacity:1" fill="#c4efc0" d="M 399.5,7.5 C 400.5,9.16667 401.833,10.5 403.5,11.5C 405.094,14.7642 407.427,17.4309 410.5,19.5C 413.024,23.3626 415.691,27.1959 418.5,31C 422.17,31.5482 425.837,32.0482 429.5,32.5C 433.272,32.8838 436.272,34.5505 438.5,37.5C 438.5,37.8333 438.5,38.1667 438.5,38.5C 438.244,41.5979 437.578,44.5979 436.5,47.5C 433.075,50.6866 431.741,54.6866 432.5,59.5C 432.5,59.8333 432.5,60.1667 432.5,60.5C 429.29,63.5194 427.79,67.186 428,71.5C 429.735,76.8707 431.568,82.204 433.5,87.5C 435.396,88.4656 437.396,88.7989 439.5,88.5C 444.514,89.502 448.848,91.8354 452.5,95.5C 452.427,97.0269 453.094,98.0269 454.5,98.5C 454.427,100.027 455.094,101.027 456.5,101.5C 456.427,103.027 457.094,104.027 458.5,104.5C 458.833,104.5 459.167,104.5 459.5,104.5C 460.026,106.23 461.026,107.564 462.5,108.5C 462.517,112.534 463.517,116.201 465.5,119.5C 465.5,120.833 465.5,122.167 465.5,123.5C 465.335,126.518 465.502,129.518 466,132.5C 468.759,136.407 471.259,140.407 473.5,144.5C 474.234,145.708 474.567,147.041 474.5,148.5C 473.191,149.624 472.525,151.124 472.5,153C 474.131,158.892 475.964,164.725 478,170.5C 479.734,172.734 481.9,174.401 484.5,175.5C 485.906,175.973 486.573,176.973 486.5,178.5C 486.335,182.182 486.501,185.848 487,189.5C 489.833,192.333 492.667,195.167 495.5,198C 499.833,198.667 504.167,198.667 508.5,198C 510.066,197.392 511.4,196.558 512.5,195.5C 515.679,194.207 519.012,193.54 522.5,193.5C 522.833,193.5 523.167,193.5 523.5,193.5C 530.027,198.883 533.694,205.883 534.5,214.5C 532.573,217.137 532.073,220.137 533,223.5C 534.879,227.259 536.713,230.925 538.5,234.5C 539.375,237.987 541.375,240.321 544.5,241.5C 545.5,241.5 546.5,241.5 547.5,241.5C 548.607,243.969 550.607,244.969 553.5,244.5C 555.46,246.156 557.46,247.823 559.5,249.5C 559.887,253.303 561.887,255.637 565.5,256.5C 566.167,256.833 566.833,257.167 567.5,257.5C 567.5,258.167 567.5,258.833 567.5,259.5C 567.665,262.85 567.498,266.183 567,269.5C 558.258,276.786 549.425,283.953 540.5,291C 537.774,291.182 535.107,291.682 532.5,292.5C 529.178,300.477 525.345,308.143 521,315.5C 520.333,317.833 520.333,320.167 521,322.5C 523.99,335.777 526.323,349.11 528,362.5C 527.107,363.081 526.107,363.415 525,363.5C 516.169,361.668 507.336,359.834 498.5,358C 496.833,356.333 495.167,354.667 493.5,353C 483.46,352.781 473.46,353.448 463.5,355C 461.67,359.982 460.67,365.148 460.5,370.5C 451.314,372.895 442.314,375.895 433.5,379.5C 431.872,383.345 430.872,387.345 430.5,391.5C 424.158,391.334 417.825,391.5 411.5,392C 406.667,396.167 401.833,400.333 397,404.5C 394.664,410.007 392.831,415.674 391.5,421.5C 394.28,428.393 397.613,435.06 401.5,441.5C 388.699,445.786 375.699,449.62 362.5,453C 353.592,454.603 345.258,453.103 337.5,448.5C 334.629,437.346 331.296,426.346 327.5,415.5C 320.684,412.008 313.851,408.675 307,405.5C 294.791,413.194 282.958,421.527 271.5,430.5C 270.833,433.5 270.167,436.5 269.5,439.5C 262.5,442.333 255.5,445.167 248.5,448C 245.324,452.006 241.991,455.84 238.5,459.5C 229.162,455.83 219.828,452.164 210.5,448.5C 208.617,448.876 207.117,449.876 206,451.5C 204.167,454 202.333,456.5 200.5,459C 192.981,459.124 185.481,458.624 178,457.5C 174.367,457.482 170.867,458.148 167.5,459.5C 160.723,456.945 154.056,454.112 147.5,451C 137.5,450.667 127.5,450.333 117.5,450C 113.568,442.135 109.901,434.135 106.5,426C 108.626,422.253 111.126,418.753 114,415.5C 114.322,410.442 113.822,405.442 112.5,400.5C 114.16,390.875 115.493,381.209 116.5,371.5C 120.074,369.754 122.74,367.254 124.5,364C 118.521,352.377 112.521,340.711 106.5,329C 109,322.167 111.5,315.333 114,308.5C 114.667,307.167 114.667,305.833 114,304.5C 104.164,301.04 94.1636,298.04 84,295.5C 79.964,297.522 76.464,300.356 73.5,304C 66.8544,305.237 60.1877,305.903 53.5,306C 52.9186,305.107 52.5852,304.107 52.5,303C 54.9556,288.568 56.4556,274.068 57,259.5C 53.2834,258.112 49.45,257.112 45.5,256.5C 43.1533,244.926 39.8199,233.76 35.5,223C 31.6649,222.293 27.9982,221.126 24.5,219.5C 20.5918,211.023 17.2585,202.357 14.5,193.5C 16.5,193.5 18.5,193.5 20.5,193.5C 21.8333,193.5 23.1667,193.5 24.5,193.5C 24.8333,193.5 25.1667,193.5 25.5,193.5C 27.5792,195.873 30.2459,197.206 33.5,197.5C 36.5418,197.733 39.2084,198.733 41.5,200.5C 41.9175,201.222 42.5842,201.722 43.5,202C 50.4808,203.648 57.4808,204.148 64.5,203.5C 67.0837,200.651 69.417,197.651 71.5,194.5C 72.5,192.833 73.8333,191.5 75.5,190.5C 78.6433,190.031 80.9767,188.364 82.5,185.5C 85.1092,184.557 87.1092,182.89 88.5,180.5C 90.5,179.833 92.5,179.167 94.5,178.5C 100.739,178.724 106.739,178.057 112.5,176.5C 116.634,175.515 120.968,175.182 125.5,175.5C 126.659,177.377 128.326,177.877 130.5,177C 134.88,172.952 139.546,169.285 144.5,166C 146.058,163.948 147.392,161.781 148.5,159.5C 149.833,157.833 151.167,156.167 152.5,154.5C 154.956,153.738 157.456,153.071 160,152.5C 162.544,153.071 165.044,153.738 167.5,154.5C 169.098,156.698 170.431,159.031 171.5,161.5C 171.335,164.85 171.502,168.183 172,171.5C 176.388,174.731 180.888,177.731 185.5,180.5C 192.089,175.416 198.256,169.749 204,163.5C 204.495,160.469 204.329,157.469 203.5,154.5C 206.068,150.587 209.068,146.92 212.5,143.5C 217.566,140.975 222.899,139.808 228.5,140C 232.614,142.284 236.28,145.117 239.5,148.5C 239.5,149.167 239.5,149.833 239.5,150.5C 240.082,154.532 241.416,158.199 243.5,161.5C 245.326,169.858 247.993,177.858 251.5,185.5C 251.756,187.937 252.423,190.271 253.5,192.5C 254.689,193.429 256.022,193.762 257.5,193.5C 258.167,193.5 258.5,193.833 258.5,194.5C 260.628,197.13 262.961,199.63 265.5,202C 275.167,202.667 284.833,202.667 294.5,202C 298.056,198.314 299.889,193.814 300,188.5C 300.667,185.833 300.667,183.167 300,180.5C 299.722,179.584 299.222,178.918 298.5,178.5C 298.5,176.833 298.5,175.167 298.5,173.5C 300.258,170.146 301.258,166.479 301.5,162.5C 302.927,160.852 303.76,158.852 304,156.5C 304.5,149.508 304.666,142.508 304.5,135.5C 304.5,134.167 304.5,132.833 304.5,131.5C 306.191,130.136 307.858,128.803 309.5,127.5C 310.167,127.5 310.833,127.5 311.5,127.5C 313.144,127.714 314.644,127.38 316,126.5C 320.351,120.461 324.185,114.128 327.5,107.5C 323.084,101.579 318.084,96.0787 312.5,91C 310.866,90.5065 309.199,90.3398 307.5,90.5C 306.609,89.8902 305.609,89.5569 304.5,89.5C 304.027,88.0937 303.027,87.427 301.5,87.5C 301.027,86.0937 300.027,85.427 298.5,85.5C 296.5,83.1667 294.5,80.8333 292.5,78.5C 292.739,76.5328 292.406,74.6995 291.5,73C 286.481,72.5892 281.481,72.0892 276.5,71.5C 270.323,70.976 267.99,67.6427 269.5,61.5C 274.049,55.2277 274.715,48.561 271.5,41.5C 271.461,38.911 272.461,36.911 274.5,35.5C 276.675,33.0184 278.675,30.3517 280.5,27.5C 283.039,24.8095 286.039,22.6428 289.5,21C 294.435,19.1875 299.435,17.6875 304.5,16.5C 307.801,18.6498 311.468,19.4831 315.5,19C 316.883,17.7292 317.883,16.2292 318.5,14.5C 320.764,13.7814 323.097,13.448 325.5,13.5C 328.105,14.5921 330.938,15.2587 334,15.5C 336.221,15.6068 338.054,14.9402 339.5,13.5C 341.861,13.6741 344.194,14.0074 346.5,14.5C 350.995,17.2797 355.829,18.2797 361,17.5C 362.122,15.5932 362.955,13.5932 363.5,11.5C 365.922,9.34985 368.589,9.01652 371.5,10.5C 373.99,12.9158 376.99,14.5824 380.5,15.5C 383.543,13.4567 385.876,10.7901 387.5,7.5C 388.492,5.9735 389.992,5.30684 392,5.5C 394.635,5.73885 397.135,6.40551 399.5,7.5 Z"/></g>
<g><path style="opacity:0.957" fill="#89a2a9" d="M 386.5,5.5 C 386.5,6.16667 386.5,6.83333 386.5,7.5C 385.167,8.16667 384.167,9.16667 383.5,10.5C 382.833,10.5 382.167,10.5 381.5,10.5C 382.833,8.5 384.5,6.83333 386.5,5.5 Z"/></g>
<g><path style="opacity:0.953" fill="#759680" d="M 399.5,7.5 C 400.167,7.5 400.833,7.5 401.5,7.5C 402.5,8.83333 403.5,10.1667 404.5,11.5C 404.167,11.5 403.833,11.5 403.5,11.5C 401.833,10.5 400.5,9.16667 399.5,7.5 Z"/></g>
<g><path style="opacity:0.984" fill="#7b9c8c" d="M 369.5,7.5 C 370.78,8.93127 372.447,9.59794 374.5,9.5C 376.027,9.42702 377.027,10.0937 377.5,11.5C 377.167,11.5 376.833,11.5 376.5,11.5C 374.883,10.962 373.216,10.6287 371.5,10.5C 368.589,9.01652 365.922,9.34985 363.5,11.5C 363.167,11.5 362.833,11.5 362.5,11.5C 363.11,10.609 363.443,9.60895 363.5,8.5C 365.379,7.65859 367.379,7.32526 369.5,7.5 Z"/></g>
<g><path style="opacity:0.486" fill="#a1cfef" d="M 369.5,7.5 C 371.553,7.40206 373.22,8.06873 374.5,9.5C 372.447,9.59794 370.78,8.93127 369.5,7.5 Z"/></g>
<g><path style="opacity:1" fill="#8ed18a" d="M 386.5,7.5 C 386.833,7.5 387.167,7.5 387.5,7.5C 385.876,10.7901 383.543,13.4567 380.5,15.5C 376.99,14.5824 373.99,12.9158 371.5,10.5C 373.216,10.6287 374.883,10.962 376.5,11.5C 377.688,12.3636 378.855,13.3636 380,14.5C 381.376,13.2949 382.542,11.9616 383.5,10.5C 384.167,9.16667 385.167,8.16667 386.5,7.5 Z"/></g>
<g><path style="opacity:0.722" fill="#96b8c9" d="M 363.5,8.5 C 363.443,9.60895 363.11,10.609 362.5,11.5C 362.027,12.9063 361.027,13.573 359.5,13.5C 360.124,11.246 361.457,9.57935 363.5,8.5 Z"/></g>
<g><path style="opacity:0.526" fill="#bfecbb" d="M 381.5,10.5 C 382.167,10.5 382.833,10.5 383.5,10.5C 382.542,11.9616 381.376,13.2949 380,14.5C 378.855,13.3636 377.688,12.3636 376.5,11.5C 376.833,11.5 377.167,11.5 377.5,11.5C 379.375,13.0781 380.708,12.7448 381.5,10.5 Z"/></g>
<g><path style="opacity:0.914" fill="#94bcce" d="M 340.5,11.5 C 339.5,12.1667 338.5,12.8333 337.5,13.5C 334.833,13.5 332.167,13.5 329.5,13.5C 326.36,12.3592 323.027,12.1925 319.5,13C 318.944,13.3826 318.611,13.8826 318.5,14.5C 316.676,16.0234 314.51,17.0234 312,17.5C 310.408,17.3948 308.908,17.0614 307.5,16.5C 306.5,15.8333 305.5,15.1667 304.5,14.5C 307.313,14.5481 309.979,15.2147 312.5,16.5C 314.359,14.8076 316.359,13.3076 318.5,12C 325.872,12.0624 333.206,11.8957 340.5,11.5 Z"/></g>
<g><path style="opacity:0.993" fill="#6e8b74" d="M 329.5,13.5 C 328.167,13.5 326.833,13.5 325.5,13.5C 323.097,13.448 320.764,13.7814 318.5,14.5C 318.611,13.8826 318.944,13.3826 319.5,13C 323.027,12.1925 326.36,12.3592 329.5,13.5 Z"/></g>
<g><path style="opacity:0.988" fill="#81a397" d="M 340.5,11.5 C 346.279,11.4336 351.613,12.7669 356.5,15.5C 353.193,14.9492 349.86,14.6159 346.5,14.5C 344.194,14.0074 341.861,13.6741 339.5,13.5C 338.833,13.5 338.167,13.5 337.5,13.5C 338.5,12.8333 339.5,12.1667 340.5,11.5 Z"/></g>
<g><path style="opacity:1" fill="#8dc789" d="M 403.5,11.5 C 403.833,11.5 404.167,11.5 404.5,11.5C 406.167,13.8333 408.167,15.8333 410.5,17.5C 410.5,18.1667 410.5,18.8333 410.5,19.5C 407.427,17.4309 405.094,14.7642 403.5,11.5 Z"/></g>
<g><path style="opacity:0.537" fill="#9ac0da" d="M 401.5,7.5 C 406.167,10.1667 409.833,13.8333 412.5,18.5C 411.833,18.1667 411.167,17.8333 410.5,17.5C 408.167,15.8333 406.167,13.8333 404.5,11.5C 403.5,10.1667 402.5,8.83333 401.5,7.5 Z"/></g>
<g><path style="opacity:1" fill="#88c384" d="M 325.5,13.5 C 326.833,13.5 328.167,13.5 329.5,13.5C 332.167,13.5 334.833,13.5 337.5,13.5C 338.167,13.5 338.833,13.5 339.5,13.5C 338.054,14.9402 336.221,15.6068 334,15.5C 330.938,15.2587 328.105,14.5921 325.5,13.5 Z"/></g>
<g><path style="opacity:1" fill="#99d595" d="M 362.5,11.5 C 362.833,11.5 363.167,11.5 363.5,11.5C 362.955,13.5932 362.122,15.5932 361,17.5C 355.829,18.2797 350.995,17.2797 346.5,14.5C 349.86,14.6159 353.193,14.9492 356.5,15.5C 358.027,15.573 359.027,14.9063 359.5,13.5C 361.027,13.573 362.027,12.9063 362.5,11.5 Z"/></g>
<g><path style="opacity:0.969" fill="#7ca592" d="M 304.5,14.5 C 305.5,15.1667 306.5,15.8333 307.5,16.5C 306.5,16.5 305.5,16.5 304.5,16.5C 299.435,17.6875 294.435,19.1875 289.5,21C 286.039,22.6428 283.039,24.8095 280.5,27.5C 280.167,27.5 279.833,27.5 279.5,27.5C 279.5,26.8333 279.5,26.1667 279.5,25.5C 281.63,22.2633 284.63,20.2633 288.5,19.5C 291.479,18.6827 294.479,17.8494 297.5,17C 298.056,16.6174 298.389,16.1174 298.5,15.5C 300.265,14.5386 302.265,14.2053 304.5,14.5 Z"/></g>
<g><path style="opacity:0.486" fill="#9cc6e2" d="M 298.5,15.5 C 298.389,16.1174 298.056,16.6174 297.5,17C 294.479,17.8494 291.479,18.6827 288.5,19.5C 291.37,17.2057 294.703,15.8723 298.5,15.5 Z"/></g>
<g><path style="opacity:1" fill="#88c285" d="M 318.5,14.5 C 317.883,16.2292 316.883,17.7292 315.5,19C 311.468,19.4831 307.801,18.6498 304.5,16.5C 305.5,16.5 306.5,16.5 307.5,16.5C 308.908,17.0614 310.408,17.3948 312,17.5C 314.51,17.0234 316.676,16.0234 318.5,14.5 Z"/></g>
<g><path style="opacity:0.627" fill="#89a6ae" d="M 410.5,17.5 C 411.167,17.8333 411.833,18.1667 412.5,18.5C 414.984,20.8003 416.984,23.4669 418.5,26.5C 415.833,24.1667 413.167,21.8333 410.5,19.5C 410.5,18.8333 410.5,18.1667 410.5,17.5 Z"/></g>
<g><path style="opacity:1" fill="#93d18e" d="M 410.5,19.5 C 413.167,21.8333 415.833,24.1667 418.5,26.5C 418.414,27.4959 418.748,28.3292 419.5,29C 421.134,29.4935 422.801,29.6602 424.5,29.5C 425.78,30.9313 427.447,31.5979 429.5,31.5C 429.5,31.8333 429.5,32.1667 429.5,32.5C 425.837,32.0482 422.17,31.5482 418.5,31C 415.691,27.1959 413.024,23.3626 410.5,19.5 Z"/></g>
<g><path style="opacity:0.863" fill="#99bfd8" d="M 279.5,25.5 C 279.5,26.1667 279.5,26.8333 279.5,27.5C 277.357,29.1307 275.69,31.1307 274.5,33.5C 273.5,34.1667 272.5,34.8333 271.5,35.5C 273.688,31.7929 276.355,28.4595 279.5,25.5 Z"/></g>
<g><path style="opacity:0.6" fill="#abccac" d="M 418.5,26.5 C 420.412,27.7992 422.412,28.7992 424.5,29.5C 422.801,29.6602 421.134,29.4935 419.5,29C 418.748,28.3292 418.414,27.4959 418.5,26.5 Z"/></g>
<g><path style="opacity:0.941" fill="#8db0b9" d="M 424.5,29.5 C 428.924,29.2724 432.924,30.2724 436.5,32.5C 434.194,32.0074 431.861,31.6741 429.5,31.5C 427.447,31.5979 425.78,30.9313 424.5,29.5 Z"/></g>
<g><path style="opacity:1" fill="#87bf84" d="M 279.5,27.5 C 279.833,27.5 280.167,27.5 280.5,27.5C 278.675,30.3517 276.675,33.0184 274.5,35.5C 274.5,34.8333 274.5,34.1667 274.5,33.5C 275.69,31.1307 277.357,29.1307 279.5,27.5 Z"/></g>
<g><path style="opacity:0.941" fill="#77a48a" d="M 429.5,32.5 C 429.5,32.1667 429.5,31.8333 429.5,31.5C 431.861,31.6741 434.194,32.0074 436.5,32.5C 437.5,32.8333 438.167,33.5 438.5,34.5C 438.5,35.5 438.5,36.5 438.5,37.5C 436.272,34.5505 433.272,32.8838 429.5,32.5 Z"/></g>
<g><path style="opacity:0.988" fill="#7e9e94" d="M 274.5,33.5 C 274.5,34.1667 274.5,34.8333 274.5,35.5C 272.461,36.911 271.461,38.911 271.5,41.5C 271.815,45.3714 271.482,49.0381 270.5,52.5C 270.077,49.353 269.744,46.1864 269.5,43C 269.3,40.1345 269.967,37.6345 271.5,35.5C 272.5,34.8333 273.5,34.1667 274.5,33.5 Z"/></g>
<g><path style="opacity:0.988" fill="#729379" d="M 438.5,38.5 C 439.895,42.4554 439.229,46.1221 436.5,49.5C 436.5,48.8333 436.5,48.1667 436.5,47.5C 437.578,44.5979 438.244,41.5979 438.5,38.5 Z"/></g>
<g><path style="opacity:0.339" fill="#97bed4" d="M 438.5,34.5 C 439.222,34.9175 439.722,35.5842 440,36.5C 441.158,43.0333 439.824,49.0333 436,54.5C 436.318,59.8528 434.484,64.1861 430.5,67.5C 430.5,67.1667 430.5,66.8333 430.5,66.5C 430.893,64.7162 431.559,63.0495 432.5,61.5C 434.213,60.3646 434.88,58.698 434.5,56.5C 434.394,53.9214 435.061,51.588 436.5,49.5C 439.229,46.1221 439.895,42.4554 438.5,38.5C 438.5,38.1667 438.5,37.8333 438.5,37.5C 438.5,36.5 438.5,35.5 438.5,34.5 Z"/></g>
<g><path style="opacity:1" fill="#8cc888" d="M 436.5,47.5 C 436.5,48.1667 436.5,48.8333 436.5,49.5C 435.061,51.588 434.394,53.9214 434.5,56.5C 433.833,57.5 433.167,58.5 432.5,59.5C 431.741,54.6866 433.075,50.6866 436.5,47.5 Z"/></g>
<g><path style="opacity:1" fill="#94d28f" d="M 271.5,41.5 C 274.715,48.561 274.049,55.2277 269.5,61.5C 269.5,61.1667 269.5,60.8333 269.5,60.5C 269.833,58.5 270.167,56.5 270.5,54.5C 270.5,53.8333 270.5,53.1667 270.5,52.5C 271.482,49.0381 271.815,45.3714 271.5,41.5 Z"/></g>
<g><path style="opacity:0.992" fill="#6e8f73" d="M 434.5,56.5 C 434.88,58.698 434.213,60.3646 432.5,61.5C 432.5,61.1667 432.5,60.8333 432.5,60.5C 432.5,60.1667 432.5,59.8333 432.5,59.5C 433.167,58.5 433.833,57.5 434.5,56.5 Z"/></g>
<g><path style="opacity:0.186" fill="#9cc2dc" d="M 270.5,54.5 C 270.167,56.5 269.833,58.5 269.5,60.5C 268.143,61.5903 267.143,62.9236 266.5,64.5C 266.752,60.6733 268.085,57.3399 270.5,54.5 Z"/></g>
<g><path style="opacity:0.973" fill="#82a99a" d="M 269.5,60.5 C 269.5,60.8333 269.5,61.1667 269.5,61.5C 267.99,67.6427 270.323,70.976 276.5,71.5C 278.779,72.6515 281.112,73.6515 283.5,74.5C 277.826,75.1562 272.826,73.8229 268.5,70.5C 268.938,70.5654 269.272,70.3988 269.5,70C 268.809,68.9326 268.309,67.7659 268,66.5C 267.617,67.056 267.117,67.3893 266.5,67.5C 266.5,66.5 266.5,65.5 266.5,64.5C 267.143,62.9236 268.143,61.5903 269.5,60.5 Z"/></g>
<g><path style="opacity:0.514" fill="#a3d0f1" d="M 268.5,70.5 C 267.599,69.7095 266.932,68.7095 266.5,67.5C 267.117,67.3893 267.617,67.056 268,66.5C 268.309,67.7659 268.809,68.9326 269.5,70C 269.272,70.3988 268.938,70.5654 268.5,70.5 Z"/></g>
<g><path style="opacity:0.69" fill="#aed6aa" d="M 430.5,66.5 C 430.5,66.8333 430.5,67.1667 430.5,67.5C 430.5,68.8333 430.5,70.1667 430.5,71.5C 430.5,72.1667 430.5,72.8333 430.5,73.5C 429.566,72.2275 428.899,70.7275 428.5,69C 428.639,67.699 429.305,66.8656 430.5,66.5 Z"/></g>
<g><path style="opacity:1" fill="#9ad497" d="M 276.5,71.5 C 281.481,72.0892 286.481,72.5892 291.5,73C 292.406,74.6995 292.739,76.5328 292.5,78.5C 291.5,77.8333 290.5,77.1667 289.5,76.5C 287.5,75.8333 285.5,75.1667 283.5,74.5C 281.112,73.6515 278.779,72.6515 276.5,71.5 Z"/></g>
<g><path style="opacity:0.416" fill="#879fa5" d="M 430.5,71.5 C 432.538,75.9399 434.204,80.6066 435.5,85.5C 432.688,82.0876 431.022,78.0876 430.5,73.5C 430.5,72.8333 430.5,72.1667 430.5,71.5 Z"/></g>
<g><path style="opacity:0.976" fill="#7ea592" d="M 289.5,76.5 C 290.5,77.1667 291.5,77.8333 292.5,78.5C 294.5,80.8333 296.5,83.1667 298.5,85.5C 297.833,85.5 297.167,85.5 296.5,85.5C 295.738,83.7376 294.404,82.7376 292.5,82.5C 290.025,81.3126 289.025,79.3126 289.5,76.5 Z"/></g>
<g><path style="opacity:0.867" fill="#a3d2f1" d="M 292.5,82.5 C 294.404,82.7376 295.738,83.7376 296.5,85.5C 294.596,85.2624 293.262,84.2624 292.5,82.5 Z"/></g>
<g><path style="opacity:1" fill="#8ccd88" d="M 432.5,60.5 C 432.5,60.8333 432.5,61.1667 432.5,61.5C 431.559,63.0495 430.893,64.7162 430.5,66.5C 429.305,66.8656 428.639,67.699 428.5,69C 428.899,70.7275 429.566,72.2275 430.5,73.5C 431.022,78.0876 432.688,82.0876 435.5,85.5C 435.5,86.1667 435.833,86.5 436.5,86.5C 437.5,87.1667 438.5,87.8333 439.5,88.5C 437.396,88.7989 435.396,88.4656 433.5,87.5C 431.568,82.204 429.735,76.8707 428,71.5C 427.79,67.186 429.29,63.5194 432.5,60.5 Z"/></g>
<g><path style="opacity:0.292" fill="#9dc4e3" d="M 435.5,85.5 C 438.91,85.4571 442.243,85.9571 445.5,87C 446.056,87.3826 446.389,87.8826 446.5,88.5C 443.237,87.5178 439.903,86.8511 436.5,86.5C 435.833,86.5 435.5,86.1667 435.5,85.5 Z"/></g>
<g><path style="opacity:0.996" fill="#739579" d="M 298.5,85.5 C 300.027,85.427 301.027,86.0937 301.5,87.5C 299.973,87.573 298.973,86.9063 298.5,85.5 Z"/></g>
<g><path style="opacity:0.624" fill="#a2cef0" d="M 296.5,85.5 C 297.167,85.5 297.833,85.5 298.5,85.5C 298.973,86.9063 299.973,87.573 301.5,87.5C 301.973,88.9063 302.973,89.573 304.5,89.5C 304.833,90.1667 305.167,90.8333 305.5,91.5C 301.951,90.2768 298.951,88.2768 296.5,85.5 Z"/></g>
<g><path style="opacity:0.996" fill="#729279" d="M 301.5,87.5 C 303.027,87.427 304.027,88.0937 304.5,89.5C 302.973,89.573 301.973,88.9063 301.5,87.5 Z"/></g>
<g><path style="opacity:1" fill="#789f8a" d="M 436.5,86.5 C 439.903,86.8511 443.237,87.5178 446.5,88.5C 449.089,89.4194 451.089,91.086 452.5,93.5C 452.5,94.1667 452.5,94.8333 452.5,95.5C 448.848,91.8354 444.514,89.502 439.5,88.5C 438.5,87.8333 437.5,87.1667 436.5,86.5 Z"/></g>
<g><path style="opacity:0.988" fill="#71917f" d="M 304.5,89.5 C 305.609,89.5569 306.609,89.8902 307.5,90.5C 307.5,90.8333 307.5,91.1667 307.5,91.5C 306.833,91.5 306.167,91.5 305.5,91.5C 305.167,90.8333 304.833,90.1667 304.5,89.5 Z"/></g>
<g><path style="opacity:0.296" fill="#a5d2f5" d="M 305.5,91.5 C 306.167,91.5 306.833,91.5 307.5,91.5C 308.167,92.1667 308.833,92.8333 309.5,93.5C 307.62,93.7709 306.287,93.1042 305.5,91.5 Z"/></g>
<g><path style="opacity:0.545" fill="#8ba8b3" d="M 307.5,91.5 C 308.552,91.3505 309.552,91.5172 310.5,92C 312.763,93.617 314.763,95.4503 316.5,97.5C 315.833,97.5 315.167,97.5 314.5,97.5C 312.833,96.1667 311.167,94.8333 309.5,93.5C 308.833,92.8333 308.167,92.1667 307.5,91.5 Z"/></g>
<g><path style="opacity:0.996" fill="#729575" d="M 452.5,95.5 C 453.906,95.9731 454.573,96.9731 454.5,98.5C 453.094,98.0269 452.427,97.0269 452.5,95.5 Z"/></g>
<g><path style="opacity:0.227" fill="#a1cced" d="M 452.5,93.5 C 455.277,95.9505 457.277,98.9505 458.5,102.5C 457.833,102.167 457.167,101.833 456.5,101.5C 456.573,99.9731 455.906,98.9731 454.5,98.5C 454.573,96.9731 453.906,95.9731 452.5,95.5C 452.5,94.8333 452.5,94.1667 452.5,93.5 Z"/></g>
<g><path style="opacity:0.996" fill="#75967a" d="M 454.5,98.5 C 455.906,98.9731 456.573,99.9731 456.5,101.5C 455.094,101.027 454.427,100.027 454.5,98.5 Z"/></g>
<g><path style="opacity:0.992" fill="#799a82" d="M 456.5,101.5 C 457.167,101.833 457.833,102.167 458.5,102.5C 458.5,103.167 458.5,103.833 458.5,104.5C 457.094,104.027 456.427,103.027 456.5,101.5 Z"/></g>
<g><path style="opacity:0.722" fill="#97bcda" d="M 458.5,102.5 C 459.71,102.932 460.71,103.599 461.5,104.5C 460.833,104.5 460.167,104.5 459.5,104.5C 459.167,104.5 458.833,104.5 458.5,104.5C 458.5,103.833 458.5,103.167 458.5,102.5 Z"/></g>
<g><path style="opacity:0.953" fill="#6e9579" d="M 459.5,104.5 C 460.167,104.5 460.833,104.5 461.5,104.5C 461.833,105.833 462.167,107.167 462.5,108.5C 461.026,107.564 460.026,106.23 459.5,104.5 Z"/></g>
<g><path style="opacity:0.251" fill="#a4d1f3" d="M 461.5,104.5 C 463.834,106.176 464.834,108.509 464.5,111.5C 463.833,110.5 463.167,109.5 462.5,108.5C 462.167,107.167 461.833,105.833 461.5,104.5 Z"/></g>
<g><path style="opacity:1" fill="#789e7e" d="M 462.5,108.5 C 463.167,109.5 463.833,110.5 464.5,111.5C 464.833,114.167 465.167,116.833 465.5,119.5C 463.517,116.201 462.517,112.534 462.5,108.5 Z"/></g>
<g><path style="opacity:0.627" fill="#95b7cd" d="M 314.5,97.5 C 315.167,97.5 315.833,97.5 316.5,97.5C 319.506,101.173 322.839,104.506 326.5,107.5C 322.823,112.862 319.157,118.196 315.5,123.5C 315.167,123.5 314.833,123.5 314.5,123.5C 317.19,117.965 320.523,112.799 324.5,108C 320.963,104.631 317.629,101.131 314.5,97.5 Z"/></g>
<g><path style="opacity:1" fill="#8ac587" d="M 307.5,91.5 C 307.5,91.1667 307.5,90.8333 307.5,90.5C 309.199,90.3398 310.866,90.5065 312.5,91C 318.084,96.0787 323.084,101.579 327.5,107.5C 324.185,114.128 320.351,120.461 316,126.5C 314.644,127.38 313.144,127.714 311.5,127.5C 312.833,126.167 314.167,124.833 315.5,123.5C 319.157,118.196 322.823,112.862 326.5,107.5C 322.839,104.506 319.506,101.173 316.5,97.5C 314.763,95.4503 312.763,93.617 310.5,92C 309.552,91.5172 308.552,91.3505 307.5,91.5 Z"/></g>
<g><path style="opacity:0.247" fill="#a0caeb" d="M 464.5,111.5 C 466.822,116.488 468.155,121.821 468.5,127.5C 468.167,127.5 467.833,127.5 467.5,127.5C 467.5,127.167 467.5,126.833 467.5,126.5C 467.59,123.848 466.924,121.515 465.5,119.5C 465.167,116.833 464.833,114.167 464.5,111.5 Z"/></g>
<g><path style="opacity:0.506" fill="#8ca695" d="M 314.5,123.5 C 314.833,123.5 315.167,123.5 315.5,123.5C 314.167,124.833 312.833,126.167 311.5,127.5C 310.833,127.5 310.167,127.5 309.5,127.5C 309.833,126.833 310.167,126.167 310.5,125.5C 311.833,124.833 313.167,124.167 314.5,123.5 Z"/></g>
<g><path style="opacity:0.992" fill="#719078" d="M 465.5,119.5 C 466.924,121.515 467.59,123.848 467.5,126.5C 466.833,125.5 466.167,124.5 465.5,123.5C 465.5,122.167 465.5,120.833 465.5,119.5 Z"/></g>
<g><path style="opacity:0.722" fill="#9ec7e7" d="M 310.5,125.5 C 310.167,126.167 309.833,126.833 309.5,127.5C 308.5,127.5 307.5,127.5 306.5,127.5C 307.514,126.326 308.847,125.66 310.5,125.5 Z"/></g>
<g><path style="opacity:0.347" fill="#a4d3f4" d="M 306.5,127.5 C 305.4,128.605 304.733,129.938 304.5,131.5C 302.837,133.438 302.171,135.772 302.5,138.5C 302.167,138.5 301.833,138.5 301.5,138.5C 301.16,134.869 301.994,131.536 304,128.5C 304.671,127.748 305.504,127.414 306.5,127.5 Z"/></g>
<g><path style="opacity:0.996" fill="#6f9175" d="M 306.5,127.5 C 307.5,127.5 308.5,127.5 309.5,127.5C 307.858,128.803 306.191,130.136 304.5,131.5C 304.733,129.938 305.4,128.605 306.5,127.5 Z"/></g>
<g><path style="opacity:0.635" fill="#869da1" d="M 467.5,127.5 C 467.833,127.5 468.167,127.5 468.5,127.5C 468.878,129.921 469.545,132.254 470.5,134.5C 470.5,135.167 470.5,135.833 470.5,136.5C 468.69,133.855 467.69,130.855 467.5,127.5 Z"/></g>
<g><path style="opacity:1" fill="#8dc38a" d="M 465.5,123.5 C 466.167,124.5 466.833,125.5 467.5,126.5C 467.5,126.833 467.5,127.167 467.5,127.5C 467.69,130.855 468.69,133.855 470.5,136.5C 472.008,138.181 473.008,140.181 473.5,142.5C 473.5,143.167 473.5,143.833 473.5,144.5C 471.259,140.407 468.759,136.407 466,132.5C 465.502,129.518 465.335,126.518 465.5,123.5 Z"/></g>
<g><path style="opacity:0.991" fill="#729974" d="M 304.5,131.5 C 304.5,132.833 304.5,134.167 304.5,135.5C 303.833,142.167 303.167,148.833 302.5,155.5C 302.5,149.833 302.5,144.167 302.5,138.5C 302.171,135.772 302.837,133.438 304.5,131.5 Z"/></g>
<g><path style="opacity:0.356" fill="#9fcce8" d="M 224.5,137.5 C 221.417,139.025 218.084,140.025 214.5,140.5C 217.381,138.32 220.714,137.32 224.5,137.5 Z"/></g>
<g><path style="opacity:0.99" fill="#73997f" d="M 224.5,137.5 C 225.833,137.5 227.167,137.5 228.5,137.5C 229.749,139.136 231.416,140.303 233.5,141C 236.118,143.106 238.118,145.606 239.5,148.5C 236.28,145.117 232.614,142.284 228.5,140C 222.899,139.808 217.566,140.975 212.5,143.5C 213.167,142.5 213.833,141.5 214.5,140.5C 218.084,140.025 221.417,139.025 224.5,137.5 Z"/></g>
<g><path style="opacity:1" fill="#9fd89a" d="M 304.5,135.5 C 304.666,142.508 304.5,149.508 304,156.5C 303.76,158.852 302.927,160.852 301.5,162.5C 301.5,161.5 301.5,160.5 301.5,159.5C 302.234,158.292 302.567,156.959 302.5,155.5C 303.167,148.833 303.833,142.167 304.5,135.5 Z"/></g>
<g><path style="opacity:0.186" fill="#a3d0f1" d="M 228.5,137.5 C 235.103,139.77 239.769,144.103 242.5,150.5C 241.5,149.833 240.5,149.167 239.5,148.5C 238.118,145.606 236.118,143.106 233.5,141C 231.416,140.303 229.749,139.136 228.5,137.5 Z"/></g>
<g><path style="opacity:0.624" fill="#9fc9e9" d="M 470.5,134.5 C 472.924,137.008 474.59,140.008 475.5,143.5C 474.833,143.167 474.167,142.833 473.5,142.5C 473.008,140.181 472.008,138.181 470.5,136.5C 470.5,135.833 470.5,135.167 470.5,134.5 Z"/></g>
<g><path style="opacity:0.937" fill="#96bfd8" d="M 214.5,140.5 C 213.833,141.5 213.167,142.5 212.5,143.5C 209.833,145.167 207.167,146.833 204.5,148.5C 206.963,144.7 210.296,142.033 214.5,140.5 Z"/></g>
<g><path style="opacity:0.996" fill="#7ea08c" d="M 239.5,148.5 C 240.5,149.167 241.5,149.833 242.5,150.5C 243.451,151.919 243.784,153.585 243.5,155.5C 243.5,156.167 243.5,156.833 243.5,157.5C 242.312,155.054 240.979,152.72 239.5,150.5C 239.5,149.833 239.5,149.167 239.5,148.5 Z"/></g>
<g><path style="opacity:0.988" fill="#769a84" d="M 158.5,150.5 C 160.167,150.5 161.833,150.5 163.5,150.5C 164.833,151.833 166.167,153.167 167.5,154.5C 165.044,153.738 162.544,153.071 160,152.5C 157.456,153.071 154.956,153.738 152.5,154.5C 154.364,152.986 156.364,151.653 158.5,150.5 Z"/></g>
<g><path style="opacity:0.329" fill="#a2cff0" d="M 163.5,150.5 C 166.198,150.845 168.198,152.178 169.5,154.5C 168.833,154.5 168.167,154.5 167.5,154.5C 166.167,153.167 164.833,151.833 163.5,150.5 Z"/></g>
<g><path style="opacity:0.996" fill="#82ab96" d="M 212.5,143.5 C 209.068,146.92 206.068,150.587 203.5,154.5C 202.833,155.833 202.167,157.167 201.5,158.5C 199.741,154.436 200.741,151.103 204.5,148.5C 207.167,146.833 209.833,145.167 212.5,143.5 Z"/></g>
<g><path style="opacity:0.722" fill="#a3d1f1" d="M 158.5,150.5 C 156.364,151.653 154.364,152.986 152.5,154.5C 151.833,154.5 151.167,154.5 150.5,154.5C 152.412,151.851 155.079,150.518 158.5,150.5 Z"/></g>
<g><path style="opacity:1" fill="#9ad695" d="M 239.5,150.5 C 240.979,152.72 242.312,155.054 243.5,157.5C 243.5,157.833 243.5,158.167 243.5,158.5C 243.5,159.5 243.5,160.5 243.5,161.5C 241.416,158.199 240.082,154.532 239.5,150.5 Z"/></g>
<g><path style="opacity:0.553" fill="#87a4a6" d="M 473.5,142.5 C 474.167,142.833 474.833,143.167 475.5,143.5C 476.705,146.678 476.705,150.012 475.5,153.5C 477.043,158.127 478.376,162.793 479.5,167.5C 475.825,161.804 474.158,155.47 474.5,148.5C 474.567,147.041 474.234,145.708 473.5,144.5C 473.5,143.833 473.5,143.167 473.5,142.5 Z"/></g>
<g><path style="opacity:1" fill="#8dcc89" d="M 474.5,148.5 C 474.158,155.47 475.825,161.804 479.5,167.5C 479.241,170.48 480.574,172.313 483.5,173C 484.252,173.671 484.586,174.504 484.5,175.5C 481.9,174.401 479.734,172.734 478,170.5C 475.964,164.725 474.131,158.892 472.5,153C 472.525,151.124 473.191,149.624 474.5,148.5 Z"/></g>
<g><path style="opacity:0.941" fill="#84aea6" d="M 167.5,154.5 C 168.167,154.5 168.833,154.5 169.5,154.5C 173.691,157.721 175.357,162.055 174.5,167.5C 173.5,165.5 172.5,163.5 171.5,161.5C 170.431,159.031 169.098,156.698 167.5,154.5 Z"/></g>
<g><path style="opacity:0.996" fill="#719476" d="M 150.5,154.5 C 151.167,154.5 151.833,154.5 152.5,154.5C 151.167,156.167 149.833,157.833 148.5,159.5C 148.167,159.5 147.833,159.5 147.5,159.5C 148.075,157.589 149.075,155.922 150.5,154.5 Z"/></g>
<g><path style="opacity:0.4" fill="#9cc4e3" d="M 243.5,155.5 C 244.931,156.78 245.598,158.447 245.5,160.5C 244.833,159.833 244.167,159.167 243.5,158.5C 243.5,158.167 243.5,157.833 243.5,157.5C 243.5,156.833 243.5,156.167 243.5,155.5 Z"/></g>
<g><path style="opacity:0.4" fill="#a0c9ea" d="M 245.5,160.5 C 246.931,161.78 247.598,163.447 247.5,165.5C 246.069,164.22 245.402,162.553 245.5,160.5 Z"/></g>
<g><path style="opacity:1" fill="#8dcc89" d="M 147.5,159.5 C 147.833,159.5 148.167,159.5 148.5,159.5C 147.392,161.781 146.058,163.948 144.5,166C 139.546,169.285 134.88,172.952 130.5,177C 128.326,177.877 126.659,177.377 125.5,175.5C 128.01,175.946 130.01,175.28 131.5,173.5C 137.773,169.893 143.106,165.227 147.5,159.5 Z"/></g>
<g><path style="opacity:0.953" fill="#91b3c8" d="M 301.5,138.5 C 301.833,138.5 302.167,138.5 302.5,138.5C 302.5,144.167 302.5,149.833 302.5,155.5C 302.567,156.959 302.234,158.292 301.5,159.5C 300.716,162.795 299.716,166.129 298.5,169.5C 298.167,169.5 297.833,169.5 297.5,169.5C 298.348,164.774 299.515,160.108 301,155.5C 301.499,149.843 301.666,144.176 301.5,138.5 Z"/></g>
<g><path style="opacity:1" fill="#82b380" d="M 301.5,159.5 C 301.5,160.5 301.5,161.5 301.5,162.5C 301.258,166.479 300.258,170.146 298.5,173.5C 298.5,172.167 298.5,170.833 298.5,169.5C 299.716,166.129 300.716,162.795 301.5,159.5 Z"/></g>
<g><path style="opacity:0.631" fill="#8eacba" d="M 150.5,154.5 C 149.075,155.922 148.075,157.589 147.5,159.5C 143.106,165.227 137.773,169.893 131.5,173.5C 131.167,173.5 130.833,173.5 130.5,173.5C 134.473,169.699 138.64,166.032 143,162.5C 144.833,160 146.667,157.5 148.5,155C 149.094,154.536 149.761,154.369 150.5,154.5 Z"/></g>
<g><path style="opacity:1" fill="#87be85" d="M 243.5,158.5 C 244.167,159.167 244.833,159.833 245.5,160.5C 245.402,162.553 246.069,164.22 247.5,165.5C 248.215,172.305 249.548,178.972 251.5,185.5C 247.993,177.858 245.326,169.858 243.5,161.5C 243.5,160.5 243.5,159.5 243.5,158.5 Z"/></g>
<g><path style="opacity:0.514" fill="#9fc9ea" d="M 128.5,174.5 C 123.223,173.815 117.889,173.815 112.5,174.5C 117.275,172.948 122.275,172.448 127.5,173C 128.056,173.383 128.389,173.883 128.5,174.5 Z"/></g>
<g><path style="opacity:1" fill="#95d391" d="M 203.5,154.5 C 204.329,157.469 204.495,160.469 204,163.5C 198.256,169.749 192.089,175.416 185.5,180.5C 180.888,177.731 176.388,174.731 172,171.5C 171.502,168.183 171.335,164.85 171.5,161.5C 172.5,163.5 173.5,165.5 174.5,167.5C 174.733,169.062 175.4,170.395 176.5,171.5C 177.5,173.167 178.833,174.5 180.5,175.5C 184.241,179.735 187.575,179.402 190.5,174.5C 194.233,170.773 197.566,166.773 200.5,162.5C 201.234,161.292 201.567,159.959 201.5,158.5C 202.167,157.167 202.833,155.833 203.5,154.5 Z"/></g>
<g><path style="opacity:0.275" fill="#8aa1a6" d="M 176.5,171.5 C 178.777,172.449 180.777,173.782 182.5,175.5C 181.833,175.5 181.167,175.5 180.5,175.5C 178.833,174.5 177.5,173.167 176.5,171.5 Z"/></g>
<g><path style="opacity:0.553" fill="#8ca2a5" d="M 200.5,162.5 C 197.566,166.773 194.233,170.773 190.5,174.5C 189.833,174.5 189.167,174.5 188.5,174.5C 192.167,170.167 196.167,166.167 200.5,162.5 Z"/></g>
<g><path style="opacity:1" fill="#7fa38d" d="M 128.5,174.5 C 129.167,174.167 129.833,173.833 130.5,173.5C 130.833,173.5 131.167,173.5 131.5,173.5C 130.01,175.28 128.01,175.946 125.5,175.5C 120.968,175.182 116.634,175.515 112.5,176.5C 109.833,176.5 107.167,176.5 104.5,176.5C 104.5,176.167 104.5,175.833 104.5,175.5C 107.054,174.612 109.721,174.279 112.5,174.5C 117.889,173.815 123.223,173.815 128.5,174.5 Z"/></g>
<g><path style="opacity:0.953" fill="#86a9a0" d="M 479.5,167.5 C 482.411,169.906 485.245,172.573 488,175.5C 489.337,179.026 489.837,182.692 489.5,186.5C 488.5,183.833 487.5,181.167 486.5,178.5C 486.573,176.973 485.906,175.973 484.5,175.5C 484.586,174.504 484.252,173.671 483.5,173C 480.574,172.313 479.241,170.48 479.5,167.5 Z"/></g>
<g><path style="opacity:0.453" fill="#bbe9b7" d="M 188.5,174.5 C 189.167,174.5 189.833,174.5 190.5,174.5C 187.575,179.402 184.241,179.735 180.5,175.5C 181.167,175.5 181.833,175.5 182.5,175.5C 183.458,175.953 184.292,176.619 185,177.5C 186.039,176.29 187.206,175.29 188.5,174.5 Z"/></g>
<g><path style="opacity:0.996" fill="#7da299" d="M 297.5,169.5 C 297.833,169.5 298.167,169.5 298.5,169.5C 298.5,170.833 298.5,172.167 298.5,173.5C 298.5,175.167 298.5,176.833 298.5,178.5C 298.5,178.833 298.5,179.167 298.5,179.5C 297.833,178.833 297.167,178.167 296.5,177.5C 296.194,174.615 296.527,171.948 297.5,169.5 Z"/></g>
<g><path style="opacity:0.969" fill="#7ea594" d="M 104.5,175.5 C 104.5,175.833 104.5,176.167 104.5,176.5C 101.167,177.167 97.8333,177.833 94.5,178.5C 92.5,179.167 90.5,179.833 88.5,180.5C 89.1667,179.5 89.8333,178.5 90.5,177.5C 91.2625,176.732 92.2625,176.232 93.5,176C 97.1516,175.501 100.818,175.335 104.5,175.5 Z"/></g>
<g><path style="opacity:1" fill="#9dd898" d="M 104.5,176.5 C 107.167,176.5 109.833,176.5 112.5,176.5C 106.739,178.057 100.739,178.724 94.5,178.5C 97.8333,177.833 101.167,177.167 104.5,176.5 Z"/></g>
<g><path style="opacity:1" fill="#79a478" d="M 88.5,180.5 C 87.1092,182.89 85.1092,184.557 82.5,185.5C 82.1667,185.5 81.8333,185.5 81.5,185.5C 83.5496,183.453 85.883,181.786 88.5,180.5 Z"/></g>
<g><path style="opacity:1" fill="#93d28e" d="M 486.5,178.5 C 487.5,181.167 488.5,183.833 489.5,186.5C 489.5,186.833 489.5,187.167 489.5,187.5C 493.912,197.639 501.246,200.306 511.5,195.5C 511.833,195.5 512.167,195.5 512.5,195.5C 511.4,196.558 510.066,197.392 508.5,198C 504.167,198.667 499.833,198.667 495.5,198C 492.667,195.167 489.833,192.333 487,189.5C 486.501,185.848 486.335,182.182 486.5,178.5 Z"/></g>
<g><path style="opacity:1" fill="#8dcc89" d="M 251.5,185.5 C 253.013,188.524 255.013,191.191 257.5,193.5C 256.022,193.762 254.689,193.429 253.5,192.5C 252.423,190.271 251.756,187.937 251.5,185.5 Z"/></g>
<g><path style="opacity:1" fill="#8fce8b" d="M 81.5,185.5 C 81.8333,185.5 82.1667,185.5 82.5,185.5C 80.9767,188.364 78.6433,190.031 75.5,190.5C 75.8333,189.833 76.1667,189.167 76.5,188.5C 78.4113,187.925 80.078,186.925 81.5,185.5 Z"/></g>
<g><path style="opacity:0.914" fill="#99c0d9" d="M 90.5,177.5 C 89.8333,178.5 89.1667,179.5 88.5,180.5C 85.883,181.786 83.5496,183.453 81.5,185.5C 80.078,186.925 78.4113,187.925 76.5,188.5C 73.5,189.5 71.5,191.5 70.5,194.5C 70.1667,194.5 69.8333,194.5 69.5,194.5C 69.1667,194.5 68.8333,194.5 68.5,194.5C 69.5434,191.944 71.2101,189.777 73.5,188C 79.1898,184.491 84.8565,180.991 90.5,177.5 Z"/></g>
<g><path style="opacity:0.354" fill="#a1cced" d="M 12.5,191.5 C 20.2773,189.939 27.6107,191.273 34.5,195.5C 33.5,195.5 32.5,195.5 31.5,195.5C 29.5786,194.637 27.5786,193.971 25.5,193.5C 25.1667,193.5 24.8333,193.5 24.5,193.5C 20.8171,191.75 16.8171,191.083 12.5,191.5 Z"/></g>
<g><path style="opacity:0.992" fill="#6e9174" d="M 11.5,192.5 C 11.5,191.833 11.8333,191.5 12.5,191.5C 16.8171,191.083 20.8171,191.75 24.5,193.5C 23.1667,193.5 21.8333,193.5 20.5,193.5C 17.7131,192.523 14.7131,192.19 11.5,192.5 Z"/></g>
<g><path style="opacity:1" fill="#79a479" d="M 76.5,188.5 C 76.1667,189.167 75.8333,189.833 75.5,190.5C 73.8333,191.5 72.5,192.833 71.5,194.5C 71.1667,194.5 70.8333,194.5 70.5,194.5C 71.5,191.5 73.5,189.5 76.5,188.5 Z"/></g>
<g><path style="opacity:0.269" fill="#a2d0f0" d="M 517.5,191.5 C 515.75,192.87 513.75,193.87 511.5,194.5C 510.833,194.5 510.167,194.5 509.5,194.5C 511.792,192.733 514.458,191.733 517.5,191.5 Z"/></g>
<g><path style="opacity:0.614" fill="#9fcfe9" d="M 520.5,191.5 C 522.415,191.216 524.081,191.549 525.5,192.5C 525.158,193.338 524.492,193.672 523.5,193.5C 523.167,193.5 522.833,193.5 522.5,193.5C 521.833,192.833 521.167,192.167 520.5,191.5 Z"/></g>
<g><path style="opacity:1" fill="#7da285" d="M 517.5,191.5 C 518.5,191.5 519.5,191.5 520.5,191.5C 521.167,192.167 521.833,192.833 522.5,193.5C 519.012,193.54 515.679,194.207 512.5,195.5C 512.167,195.5 511.833,195.5 511.5,195.5C 511.5,195.167 511.5,194.833 511.5,194.5C 513.75,193.87 515.75,192.87 517.5,191.5 Z"/></g>
<g><path style="opacity:0.863" fill="#889ea2" d="M 68.5,194.5 C 68.8333,194.5 69.1667,194.5 69.5,194.5C 68.1667,196.5 66.5,198.167 64.5,199.5C 65.0798,197.251 66.4131,195.585 68.5,194.5 Z"/></g>
<g><path style="opacity:0.549" fill="#8daab6" d="M 247.5,165.5 C 249.922,173.431 252.588,181.431 255.5,189.5C 259.737,191.073 263.07,193.74 265.5,197.5C 263.02,196.758 260.687,195.758 258.5,194.5C 258.5,193.833 258.167,193.5 257.5,193.5C 255.013,191.191 253.013,188.524 251.5,185.5C 249.548,178.972 248.215,172.305 247.5,165.5 Z"/></g>
<g><path style="opacity:0.992" fill="#89a09b" d="M 489.5,187.5 C 492.631,190.129 495.631,192.962 498.5,196C 502.357,196.758 506.023,196.258 509.5,194.5C 510.167,194.5 510.833,194.5 511.5,194.5C 511.5,194.833 511.5,195.167 511.5,195.5C 501.246,200.306 493.912,197.639 489.5,187.5 Z"/></g>
<g><path style="opacity:1" fill="#82b681" d="M 25.5,193.5 C 27.5786,193.971 29.5786,194.637 31.5,195.5C 32.1667,196.167 32.8333,196.833 33.5,197.5C 30.2459,197.206 27.5792,195.873 25.5,193.5 Z"/></g>
<g><path style="opacity:0.584" fill="#8eadb6" d="M 31.5,195.5 C 32.5,195.5 33.5,195.5 34.5,195.5C 42.5057,198.769 50.839,200.769 59.5,201.5C 58.3784,202.156 57.0451,202.489 55.5,202.5C 50.8234,201.831 46.1567,201.165 41.5,200.5C 39.2084,198.733 36.5418,197.733 33.5,197.5C 32.8333,196.833 32.1667,196.167 31.5,195.5 Z"/></g>
<g><path style="opacity:1" fill="#93cf8f" d="M 298.5,178.5 C 299.222,178.918 299.722,179.584 300,180.5C 300.667,183.167 300.667,185.833 300,188.5C 299.889,193.814 298.056,198.314 294.5,202C 284.833,202.667 275.167,202.667 265.5,202C 262.961,199.63 260.628,197.13 258.5,194.5C 260.687,195.758 263.02,196.758 265.5,197.5C 267.479,199.168 269.812,199.834 272.5,199.5C 279.321,200.655 286.321,200.821 293.5,200C 296.142,197.424 297.642,194.257 298,190.5C 298.499,186.848 298.665,183.182 298.5,179.5C 298.5,179.167 298.5,178.833 298.5,178.5 Z"/></g>
<g><path style="opacity:0.635" fill="#8aa2a8" d="M 296.5,177.5 C 297.167,178.167 297.833,178.833 298.5,179.5C 298.665,183.182 298.499,186.848 298,190.5C 297.642,194.257 296.142,197.424 293.5,200C 286.321,200.821 279.321,200.655 272.5,199.5C 279.175,199.666 285.842,199.5 292.5,199C 295.28,195.753 296.78,191.919 297,187.5C 297.388,184.151 297.221,180.817 296.5,177.5 Z"/></g>
<g><path style="opacity:0.988" fill="#7ca291" d="M 525.5,192.5 C 527.167,193.5 528.5,194.833 529.5,196.5C 531,200.173 533,203.506 535.5,206.5C 536.644,211.446 536.644,216.446 535.5,221.5C 534.532,219.393 534.198,217.059 534.5,214.5C 533.694,205.883 530.027,198.883 523.5,193.5C 524.492,193.672 525.158,193.338 525.5,192.5 Z"/></g>
<g><path style="opacity:0.363" fill="#a4d4f3" d="M 529.5,196.5 C 532.502,199.161 534.502,202.495 535.5,206.5C 533,203.506 531,200.173 529.5,196.5 Z"/></g>
<g><path style="opacity:1" fill="#98d593" d="M 69.5,194.5 C 69.8333,194.5 70.1667,194.5 70.5,194.5C 70.8333,194.5 71.1667,194.5 71.5,194.5C 69.417,197.651 67.0837,200.651 64.5,203.5C 57.4808,204.148 50.4808,203.648 43.5,202C 42.5842,201.722 41.9175,201.222 41.5,200.5C 46.1567,201.165 50.8234,201.831 55.5,202.5C 57.0451,202.489 58.3784,202.156 59.5,201.5C 61.5138,201.608 63.1805,200.942 64.5,199.5C 66.5,198.167 68.1667,196.5 69.5,194.5 Z"/></g>
<g><path style="opacity:1" fill="#92d08e" d="M 534.5,214.5 C 534.198,217.059 534.532,219.393 535.5,221.5C 535.5,221.833 535.5,222.167 535.5,222.5C 535.733,225.542 536.733,228.208 538.5,230.5C 538.5,230.833 538.5,231.167 538.5,231.5C 538.5,232.5 538.5,233.5 538.5,234.5C 536.713,230.925 534.879,227.259 533,223.5C 532.073,220.137 532.573,217.137 534.5,214.5 Z"/></g>
<g><path style="opacity:0.361" fill="#88a1ab" d="M 535.5,222.5 C 537.008,224.181 538.008,226.181 538.5,228.5C 538.5,229.167 538.5,229.833 538.5,230.5C 536.733,228.208 535.733,225.542 535.5,222.5 Z"/></g>
<g><path style="opacity:1" fill="#83b483" d="M 538.5,231.5 C 540.504,234.843 542.504,238.176 544.5,241.5C 541.375,240.321 539.375,237.987 538.5,234.5C 538.5,233.5 538.5,232.5 538.5,231.5 Z"/></g>
<g><path style="opacity:1" fill="#7ba67d" d="M 547.5,241.5 C 549.819,241.992 551.819,242.992 553.5,244.5C 550.607,244.969 548.607,243.969 547.5,241.5 Z"/></g>
<g><path style="opacity:0.722" fill="#9bc5df" d="M 538.5,228.5 C 540.474,231.77 542.474,235.103 544.5,238.5C 549.342,240.085 553.675,242.418 557.5,245.5C 556.167,245.167 554.833,244.833 553.5,244.5C 551.819,242.992 549.819,241.992 547.5,241.5C 546.5,241.5 545.5,241.5 544.5,241.5C 542.504,238.176 540.504,234.843 538.5,231.5C 538.5,231.167 538.5,230.833 538.5,230.5C 538.5,229.833 538.5,229.167 538.5,228.5 Z"/></g>
<g><path style="opacity:0.953" fill="#759c89" d="M 553.5,244.5 C 554.833,244.833 556.167,245.167 557.5,245.5C 558.5,245.833 559.167,246.5 559.5,247.5C 559.5,248.167 559.5,248.833 559.5,249.5C 557.46,247.823 555.46,246.156 553.5,244.5 Z"/></g>
<g><path style="opacity:0.404" fill="#8eafbc" d="M 559.5,247.5 C 562.5,251.167 565.833,254.5 569.5,257.5C 568.833,257.5 568.167,257.5 567.5,257.5C 566.833,257.167 566.167,256.833 565.5,256.5C 563.471,254.142 561.471,251.808 559.5,249.5C 559.5,248.833 559.5,248.167 559.5,247.5 Z"/></g>
<g><path style="opacity:1" fill="#87c384" d="M 559.5,249.5 C 561.471,251.808 563.471,254.142 565.5,256.5C 561.887,255.637 559.887,253.303 559.5,249.5 Z"/></g>
<g><path style="opacity:0.969" fill="#7c9e8f" d="M 567.5,257.5 C 568.167,257.5 568.833,257.5 569.5,257.5C 570.477,260.287 570.81,263.287 570.5,266.5C 570.167,266.5 569.833,266.5 569.5,266.5C 569.59,263.848 568.924,261.515 567.5,259.5C 567.5,258.833 567.5,258.167 567.5,257.5 Z"/></g>
<g><path style="opacity:0.578" fill="#d1c197" d="M 569.5,266.5 C 569.833,266.5 570.167,266.5 570.5,266.5C 570.378,270.147 568.712,272.981 565.5,275C 557.212,280.953 549.212,287.286 541.5,294C 539.1,294.186 536.766,294.686 534.5,295.5C 531.257,302.986 527.757,310.319 524,317.5C 525.972,332.034 528.472,346.534 531.5,361C 531.646,363.034 530.98,364.701 529.5,366C 518.74,365.25 508.074,363.584 497.5,361C 494.705,359.207 492.205,357.04 490,354.5C 481.924,355.898 473.757,356.898 465.5,357.5C 465.106,362.99 463.773,368.157 461.5,373C 453.129,375.735 444.796,378.568 436.5,381.5C 434.935,385.261 433.602,389.095 432.5,393C 426.5,393.333 420.5,393.667 414.5,394C 409.379,397.453 404.546,401.286 400,405.5C 397.869,410.727 396.035,416.06 394.5,421.5C 398.121,428.406 401.454,435.406 404.5,442.5C 400.164,436.135 396.164,429.468 392.5,422.5C 394.634,416.932 396.467,411.265 398,405.5C 402.833,401.333 407.667,397.167 412.5,393C 418.833,392.667 425.167,392.333 431.5,392C 432.584,387.908 433.917,383.908 435.5,380C 443.895,377.535 452.228,374.868 460.5,372C 462.274,366.968 463.608,361.801 464.5,356.5C 472.672,355.61 480.839,354.61 489,353.5C 492.401,355.219 495.568,357.386 498.5,360C 508.446,362.324 518.446,363.991 528.5,365C 529.894,364.044 530.561,362.711 530.5,361C 527.749,346.575 524.749,332.242 521.5,318C 526.246,310.674 530.079,302.841 533,294.5C 535.405,293.726 537.905,293.226 540.5,293C 550.092,285.286 559.592,277.453 569,269.5C 569.483,268.552 569.649,267.552 569.5,266.5 Z"/></g>
<g><path style="opacity:1" fill="#91d28e" d="M 11.5,192.5 C 14.7131,192.19 17.7131,192.523 20.5,193.5C 18.5,193.5 16.5,193.5 14.5,193.5C 17.2585,202.357 20.5918,211.023 24.5,219.5C 27.9982,221.126 31.6649,222.293 35.5,223C 39.8199,233.76 43.1533,244.926 45.5,256.5C 49.45,257.112 53.2834,258.112 57,259.5C 56.4556,274.068 54.9556,288.568 52.5,303C 52.5852,304.107 52.9186,305.107 53.5,306C 60.1877,305.903 66.8544,305.237 73.5,304C 76.464,300.356 79.964,297.522 84,295.5C 94.1636,298.04 104.164,301.04 114,304.5C 114.667,305.833 114.667,307.167 114,308.5C 111.5,315.333 109,322.167 106.5,329C 112.521,340.711 118.521,352.377 124.5,364C 122.74,367.254 120.074,369.754 116.5,371.5C 115.493,381.209 114.16,390.875 112.5,400.5C 113.822,405.442 114.322,410.442 114,415.5C 111.126,418.753 108.626,422.253 106.5,426C 109.901,434.135 113.568,442.135 117.5,450C 127.5,450.333 137.5,450.667 147.5,451C 154.056,454.112 160.723,456.945 167.5,459.5C 170.867,458.148 174.367,457.482 178,457.5C 185.481,458.624 192.981,459.124 200.5,459C 202.333,456.5 204.167,454 206,451.5C 207.117,449.876 208.617,448.876 210.5,448.5C 219.828,452.164 229.162,455.83 238.5,459.5C 241.991,455.84 245.324,452.006 248.5,448C 255.5,445.167 262.5,442.333 269.5,439.5C 270.167,436.5 270.833,433.5 271.5,430.5C 282.958,421.527 294.791,413.194 307,405.5C 313.851,408.675 320.684,412.008 327.5,415.5C 331.296,426.346 334.629,437.346 337.5,448.5C 345.258,453.103 353.592,454.603 362.5,453C 375.699,449.62 388.699,445.786 401.5,441.5C 397.613,435.06 394.28,428.393 391.5,421.5C 392.831,415.674 394.664,410.007 397,404.5C 401.833,400.333 406.667,396.167 411.5,392C 417.825,391.5 424.158,391.334 430.5,391.5C 430.872,387.345 431.872,383.345 433.5,379.5C 442.314,375.895 451.314,372.895 460.5,370.5C 460.67,365.148 461.67,359.982 463.5,355C 473.46,353.448 483.46,352.781 493.5,353C 495.167,354.667 496.833,356.333 498.5,358C 507.336,359.834 516.169,361.668 525,363.5C 526.107,363.415 527.107,363.081 528,362.5C 526.323,349.11 523.99,335.777 521,322.5C 520.333,320.167 520.333,317.833 521,315.5C 525.345,308.143 529.178,300.477 532.5,292.5C 535.107,291.682 537.774,291.182 540.5,291C 549.425,283.953 558.258,276.786 567,269.5C 567.498,266.183 567.665,262.85 567.5,259.5C 568.924,261.515 569.59,263.848 569.5,266.5C 569.649,267.552 569.483,268.552 569,269.5C 559.592,277.453 550.092,285.286 540.5,293C 537.905,293.226 535.405,293.726 533,294.5C 530.079,302.841 526.246,310.674 521.5,318C 524.749,332.242 527.749,346.575 530.5,361C 530.561,362.711 529.894,364.044 528.5,365C 518.446,363.991 508.446,362.324 498.5,360C 495.568,357.386 492.401,355.219 489,353.5C 480.839,354.61 472.672,355.61 464.5,356.5C 463.608,361.801 462.274,366.968 460.5,372C 452.228,374.868 443.895,377.535 435.5,380C 433.917,383.908 432.584,387.908 431.5,392C 425.167,392.333 418.833,392.667 412.5,393C 407.667,397.167 402.833,401.333 398,405.5C 396.467,411.265 394.634,416.932 392.5,422.5C 396.164,429.468 400.164,436.135 404.5,442.5C 404.5,442.833 404.5,443.167 404.5,443.5C 389.5,447.5 374.5,451.5 359.5,455.5C 351.282,456.063 343.615,454.229 336.5,450C 332.937,438.931 329.437,427.764 326,416.5C 319.912,412.956 313.578,409.956 307,407.5C 295.206,414.741 283.872,422.741 273,431.5C 272.788,434.758 272.288,437.924 271.5,441C 263.722,443.723 256.055,446.723 248.5,450C 245.198,453.456 242.531,457.289 240.5,461.5C 239.5,461.5 238.5,461.5 237.5,461.5C 228.459,457.423 219.292,453.423 210,449.5C 206.833,453.333 203.667,457.167 200.5,461C 198.19,461.497 195.857,461.663 193.5,461.5C 190.615,461.806 187.948,461.473 185.5,460.5C 182.829,459.702 179.996,459.035 177,458.5C 173.864,459.601 170.697,460.601 167.5,461.5C 160.723,458.945 154.056,456.112 147.5,453C 137.172,452.5 126.839,452.334 116.5,452.5C 112.787,443.404 108.787,434.404 104.5,425.5C 107.925,421.418 110.925,417.084 113.5,412.5C 112.5,408.5 111.5,404.5 110.5,400.5C 112.703,390.961 113.869,381.294 114,371.5C 117.63,369.789 120.463,367.289 122.5,364C 117.166,352.166 111.166,340.666 104.5,329.5C 107.696,321.912 110.696,314.246 113.5,306.5C 113.291,305.914 112.957,305.414 112.5,305C 103.023,302.089 93.5229,299.256 84,296.5C 80.5471,298.95 77.3805,301.783 74.5,305C 67.5911,305.986 60.7578,307.152 54,308.5C 52.647,307.315 51.4803,305.981 50.5,304.5C 52.5717,290.526 54.5717,276.526 56.5,262.5C 56.3918,261.558 56.0585,260.725 55.5,260C 51.8549,259.005 48.1883,258.172 44.5,257.5C 41.7756,246.823 38.9423,236.157 36,225.5C 31.9729,223.612 27.8063,221.945 23.5,220.5C 20.5689,213.54 17.7355,206.54 15,199.5C 14.5017,197.456 13.335,196.122 11.5,195.5C 11.5,194.5 11.5,193.5 11.5,192.5 Z"/></g>
<g><path style="opacity:0.957" fill="#9cc9a9" d="M 11.5,195.5 C 13.335,196.122 14.5017,197.456 15,199.5C 17.7355,206.54 20.5689,213.54 23.5,220.5C 27.8063,221.945 31.9729,223.612 36,225.5C 38.9423,236.157 41.7756,246.823 44.5,257.5C 48.1883,258.172 51.8549,259.005 55.5,260C 56.0585,260.725 56.3918,261.558 56.5,262.5C 54.5717,276.526 52.5717,290.526 50.5,304.5C 51.4803,305.981 52.647,307.315 54,308.5C 60.7578,307.152 67.5911,305.986 74.5,305C 77.3805,301.783 80.5471,298.95 84,296.5C 93.5229,299.256 103.023,302.089 112.5,305C 112.957,305.414 113.291,305.914 113.5,306.5C 110.696,314.246 107.696,321.912 104.5,329.5C 111.166,340.666 117.166,352.166 122.5,364C 120.463,367.289 117.63,369.789 114,371.5C 113.869,381.294 112.703,390.961 110.5,400.5C 111.5,404.5 112.5,408.5 113.5,412.5C 110.925,417.084 107.925,421.418 104.5,425.5C 108.787,434.404 112.787,443.404 116.5,452.5C 116.167,452.5 115.833,452.5 115.5,452.5C 110.857,444.042 106.857,435.208 103.5,426C 106.167,421.333 108.833,416.667 111.5,412C 110.514,408.389 109.847,404.723 109.5,401C 111.375,390.914 112.542,380.748 113,370.5C 115.743,368.212 118.577,366.045 121.5,364C 114.96,352.587 108.96,340.92 103.5,329C 105.774,321.51 108.441,314.177 111.5,307C 102.842,303.79 94.009,300.957 85,298.5C 81.4374,301.733 77.6041,304.567 73.5,307C 67.5064,307.88 61.5064,308.713 55.5,309.5C 53.3066,309.674 51.4733,309.007 50,307.5C 50.7903,293.459 52.2903,279.459 54.5,265.5C 54.1667,264.167 53.8333,262.833 53.5,261.5C 49.738,260.692 46.238,259.358 43,257.5C 40.0577,246.843 37.2244,236.177 34.5,225.5C 30.0063,225.005 25.8396,223.672 22,221.5C 18.3945,212.844 14.8945,204.178 11.5,195.5 Z"/></g>
<g><path style="opacity:0.578" fill="#6eb2be" d="M 359.5,455.5 C 359.5,455.833 359.5,456.167 359.5,456.5C 350.89,457.363 342.89,455.53 335.5,451C 331.95,440.316 328.616,429.483 325.5,418.5C 319.413,415.04 313.246,411.706 307,408.5C 295.72,416.113 284.72,424.113 274,432.5C 273.788,435.758 273.288,438.924 272.5,442C 264.833,445 257.167,448 249.5,451C 246.635,454.692 243.635,458.192 240.5,461.5C 242.531,457.289 245.198,453.456 248.5,450C 256.055,446.723 263.722,443.723 271.5,441C 272.288,437.924 272.788,434.758 273,431.5C 283.872,422.741 295.206,414.741 307,407.5C 313.578,409.956 319.912,412.956 326,416.5C 329.437,427.764 332.937,438.931 336.5,450C 343.615,454.229 351.282,456.063 359.5,455.5 Z"/></g>
<g><path style="opacity:0.6" fill="#cfc298" d="M 404.5,443.5 C 402.615,445.311 400.281,446.478 397.5,447C 384.892,450.485 372.226,453.652 359.5,456.5C 359.5,456.167 359.5,455.833 359.5,455.5C 374.5,451.5 389.5,447.5 404.5,443.5 Z"/></g>
<g><path style="opacity:0.424" fill="#6fb2be" d="M 237.5,461.5 C 228.381,458.571 219.381,455.237 210.5,451.5C 207.392,454.867 204.392,458.367 201.5,462C 198.633,462.801 195.966,462.634 193.5,461.5C 195.857,461.663 198.19,461.497 200.5,461C 203.667,457.167 206.833,453.333 210,449.5C 219.292,453.423 228.459,457.423 237.5,461.5 Z"/></g>
<g><path style="opacity:0.376" fill="#6cb1be" d="M 115.5,452.5 C 115.833,452.5 116.167,452.5 116.5,452.5C 126.839,452.334 137.172,452.5 147.5,453C 154.056,456.112 160.723,458.945 167.5,461.5C 170.697,460.601 173.864,459.601 177,458.5C 179.996,459.035 182.829,459.702 185.5,460.5C 182.552,460.777 179.719,460.444 177,459.5C 174.008,460.997 170.841,461.997 167.5,462.5C 160.294,460.232 153.294,457.399 146.5,454C 135.992,453.83 125.659,453.33 115.5,452.5 Z"/></g>
</svg>
