<?xml version="1.0" encoding="UTF-8"?>
<!DOCTYPE svg PUBLIC "-//W3C//DTD SVG 1.1//EN" "http://www.w3.org/Graphics/SVG/1.1/DTD/svg11.dtd">
<svg xmlns="http://www.w3.org/2000/svg" version="1.1" width="484px" height="573px" style="shape-rendering:geometricPrecision; text-rendering:geometricPrecision; image-rendering:optimizeQuality; fill-rule:evenodd; clip-rule:evenodd" xmlns:xlink="http://www.w3.org/1999/xlink">
<g><path style="opacity:1" fill="#d5e0e0" d="M 467.5,76.5 C 468.08,78.7488 469.413,80.4154 471.5,81.5C 472.031,83.5441 473.198,85.2107 475,86.5C 475.333,94.1667 475.667,101.833 476,109.5C 477.859,110.645 478.693,112.312 478.5,114.5C 476.62,124.138 474.953,133.804 473.5,143.5C 466.95,143.231 463.95,146.231 464.5,152.5C 469.201,179.96 470.701,207.626 469,235.5C 461.833,245.333 454.667,255.167 447.5,265C 442.845,265.499 438.179,265.666 433.5,265.5C 432.127,265.657 430.793,265.49 429.5,265C 423.804,260.824 418.137,256.657 412.5,252.5C 410.721,250.454 409.054,248.287 407.5,246C 398.179,247.494 389.179,250.327 380.5,254.5C 379.507,259.12 379.173,263.786 379.5,268.5C 379.727,270.933 378.727,272.599 376.5,273.5C 371.385,274.682 368.885,278.016 369,283.5C 367.969,288.304 368.802,292.637 371.5,296.5C 372.017,301.537 374.517,305.204 379,307.5C 379.497,311.524 379.331,315.524 378.5,319.5C 377.359,322.64 377.192,325.973 378,329.5C 378.383,330.056 378.883,330.389 379.5,330.5C 378.29,338.133 377.79,345.8 378,353.5C 379.774,354.965 381.608,356.298 383.5,357.5C 383.427,359.027 384.094,360.027 385.5,360.5C 385.557,361.609 385.89,362.609 386.5,363.5C 389.904,368.619 393.571,373.619 397.5,378.5C 401.813,379.186 405.48,377.853 408.5,374.5C 416.583,370.386 424.083,371.386 431,377.5C 433.377,381.088 435.877,384.588 438.5,388C 442.5,388.333 446.5,388.667 450.5,389C 452.491,389.374 454.158,390.207 455.5,391.5C 456.29,392.794 457.29,393.961 458.5,395C 462.821,395.499 467.154,395.666 471.5,395.5C 474.617,395.642 477.117,396.976 479,399.5C 479.498,402.817 479.665,406.15 479.5,409.5C 479.737,410.791 479.404,411.791 478.5,412.5C 476.31,415.688 473.976,418.855 471.5,422C 468.986,423.252 466.32,423.752 463.5,423.5C 458.135,422 453.801,423.667 450.5,428.5C 447.459,429.772 444.626,431.439 442,433.5C 437.366,431.668 432.532,430.668 427.5,430.5C 423.47,427.491 419.47,424.491 415.5,421.5C 413.975,419.784 412.975,417.784 412.5,415.5C 412.249,411.751 411.583,408.085 410.5,404.5C 402.443,404.722 394.443,405.556 386.5,407C 383.914,410.736 381.581,414.57 379.5,418.5C 376.597,423.45 372.264,425.45 366.5,424.5C 364.432,423.625 362.432,422.459 360.5,421C 358.074,417.484 355.407,414.151 352.5,411C 346.324,408.748 340.99,405.248 336.5,400.5C 333.489,395.826 329.155,393.493 323.5,393.5C 320.436,392.779 317.769,391.445 315.5,389.5C 308.151,385.571 300.817,385.571 293.5,389.5C 292.5,390.167 291.5,390.833 290.5,391.5C 290.167,391.5 289.833,391.5 289.5,391.5C 286.343,391.079 284.01,392.245 282.5,395C 277.054,396.855 272.054,399.355 267.5,402.5C 265.214,402.595 263.214,403.262 261.5,404.5C 260.833,404.5 260.167,404.5 259.5,404.5C 259.749,400.542 259.082,396.876 257.5,393.5C 256.795,388.012 255.461,382.679 253.5,377.5C 249.366,375.234 245.033,373.568 240.5,372.5C 236.689,369.626 232.355,368.459 227.5,369C 226.086,370.993 225.086,373.16 224.5,375.5C 220.742,380.431 220.742,385.431 224.5,390.5C 225.72,396.743 223.387,400.743 217.5,402.5C 211.476,402.794 206.809,400.461 203.5,395.5C 204.46,390.807 202.793,387.474 198.5,385.5C 194.907,382.41 193.241,378.41 193.5,373.5C 194.075,369.845 193.075,366.845 190.5,364.5C 187.049,361.59 185.882,357.923 187,353.5C 191.302,349.601 196.136,346.601 201.5,344.5C 202.873,344.657 204.207,344.49 205.5,344C 207.745,341.269 209.745,338.436 211.5,335.5C 213.167,333.167 215.167,331.167 217.5,329.5C 218.822,329.67 219.989,329.337 221,328.5C 221.497,326.19 221.663,323.857 221.5,321.5C 222.122,317.717 223.122,314.05 224.5,310.5C 227.896,305.602 231.896,301.102 236.5,297C 241.236,294.761 245.569,291.928 249.5,288.5C 252.118,287.055 254.618,285.389 257,283.5C 257.772,278.809 258.605,274.142 259.5,269.5C 260.029,265.051 261.029,260.718 262.5,256.5C 264.41,251.798 263.41,247.798 259.5,244.5C 258.416,241.996 257.083,239.663 255.5,237.5C 254.276,230.277 255.943,223.943 260.5,218.5C 271.214,215.111 277.214,207.778 278.5,196.5C 279.702,190.026 281.368,183.692 283.5,177.5C 288.091,170.43 287.091,164.097 280.5,158.5C 277.78,157.14 275.114,155.807 272.5,154.5C 269.5,153.167 266.5,151.833 263.5,150.5C 262.766,149.292 262.433,147.959 262.5,146.5C 260.833,146.5 259.167,146.5 257.5,146.5C 253.085,146.695 248.751,146.195 244.5,145C 240.669,142.981 237.336,140.481 234.5,137.5C 228.885,140.462 223.551,143.796 218.5,147.5C 217.279,148.028 216.113,148.695 215,149.5C 213.194,154.378 212.527,159.378 213,164.5C 213.377,165.942 214.21,166.942 215.5,167.5C 216.758,171.134 216.758,174.8 215.5,178.5C 214.131,180.754 213.131,183.254 212.5,186C 212.387,187.699 213.053,188.866 214.5,189.5C 213.833,191.5 213.167,193.5 212.5,195.5C 210.5,198.167 208.167,200.5 205.5,202.5C 201.083,203.972 196.75,205.638 192.5,207.5C 191.193,208.153 189.86,208.82 188.5,209.5C 187.516,212.428 187.183,215.428 187.5,218.5C 183.182,225.15 177.182,229.483 169.5,231.5C 164.304,233.087 158.97,233.754 153.5,233.5C 149.818,233.335 146.152,233.501 142.5,234C 137.63,238.702 132.963,243.535 128.5,248.5C 128.5,252.167 128.5,255.833 128.5,259.5C 128.5,261.167 128.5,262.833 128.5,264.5C 127.518,268.316 126.851,272.316 126.5,276.5C 125.017,283.777 124.35,291.277 124.5,299C 124.501,304.012 124.834,308.845 125.5,313.5C 126.512,314.872 127.512,316.205 128.5,317.5C 129.174,325.121 128.174,332.454 125.5,339.5C 121.137,345.896 118.137,352.896 116.5,360.5C 116.54,363.425 115.707,366.091 114,368.5C 110.397,373.381 106.564,378.048 102.5,382.5C 94.6049,389.286 85.6049,394.286 75.5,397.5C 73.516,396.844 71.516,396.178 69.5,395.5C 67.5828,395.754 66.2495,396.754 65.5,398.5C 61.9883,401.17 58.3216,403.67 54.5,406C 51.1832,406.498 47.8499,406.665 44.5,406.5C 41.5152,405.674 38.8485,404.341 36.5,402.5C 35.7377,400.738 34.4044,399.738 32.5,399.5C 30.8437,397.54 29.177,395.54 27.5,393.5C 27.5858,392.504 27.2524,391.671 26.5,391C 27.9797,389.701 28.6464,388.034 28.5,386C 27.3413,380.217 26.6747,374.383 26.5,368.5C 18.8371,369.154 11.1704,369.321 3.5,369C -0.327368,365.248 -0.327368,361.415 3.5,357.5C 8.40429,353.882 8.73762,349.882 4.5,345.5C 4.3404,343.847 3.67373,342.514 2.5,341.5C 4.21987,338.269 6.5532,335.436 9.5,333C 14.9691,332.514 20.1358,331.014 25,328.5C 26.5733,319.336 28.0733,310.17 29.5,301C 43.2867,293.85 56.7867,286.017 70,277.5C 68.5616,271.602 66.2283,265.936 63,260.5C 62.1816,257.773 62.3483,255.106 63.5,252.5C 68.6981,248.803 74.0314,245.303 79.5,242C 80.6105,239.263 80.7772,236.429 80,233.5C 74.9219,227.01 70.0886,220.344 65.5,213.5C 68.7941,207.543 73.1275,202.543 78.5,198.5C 80.5441,197.969 82.2107,196.802 83.5,195C 87.211,194.825 90.8776,194.325 94.5,193.5C 102.692,181.11 110.358,168.444 117.5,155.5C 119.745,156.635 122.078,157.135 124.5,157C 128.752,150.499 132.752,143.832 136.5,137C 142.167,136.333 147.833,136.333 153.5,137C 158.068,139.452 162.735,141.618 167.5,143.5C 170.771,146.047 174.105,145.88 177.5,143C 179.352,139.789 181.019,136.456 182.5,133C 190.746,129.632 198.246,125.132 205,119.5C 204.417,109.575 202.917,99.7419 200.5,90C 201.978,86.9009 202.644,83.5675 202.5,80C 200.709,67.8417 199.043,55.675 197.5,43.5C 201.137,42.5032 204.804,42.0032 208.5,42C 215.011,46.4226 221.345,51.0892 227.5,56C 231.167,56.6667 234.833,56.6667 238.5,56C 243.833,50.6667 249.167,45.3333 254.5,40C 255.577,39.5304 256.577,39.6971 257.5,40.5C 264.493,48.8258 271.826,56.8258 279.5,64.5C 279.484,66.4841 280.484,67.4841 282.5,67.5C 288.463,64.5164 294.13,61.0164 299.5,57C 307.167,56.6667 314.833,56.3333 322.5,56C 323.056,55.6174 323.389,55.1174 323.5,54.5C 326.353,52.9854 328.019,50.6521 328.5,47.5C 325.99,37.7954 323.324,28.1287 320.5,18.5C 320.719,17.062 321.219,15.7287 322,14.5C 326.026,11.3016 329.859,7.96829 333.5,4.5C 336.789,3.45247 340.122,2.95247 343.5,3C 348.708,6.43197 353.708,10.0986 358.5,14C 355.526,23.7536 352.86,33.5869 350.5,43.5C 350.57,44.7716 350.903,45.9383 351.5,47C 355.327,48.746 358.993,50.746 362.5,53C 366.284,54.0711 370.118,54.9045 374,55.5C 378.757,54.1232 383.424,52.4565 388,50.5C 398.285,53.3733 408.619,56.0399 419,58.5C 422.401,57.3868 425.901,56.7201 429.5,56.5C 440.803,57.7285 452.136,58.3951 463.5,58.5C 463.334,63.5111 463.501,68.5111 464,73.5C 465.039,74.7101 466.206,75.7101 467.5,76.5 Z"/></g>
<g><path style="opacity:0.867" fill="#b4b8b4" d="M 372.5,53.5 C 374.68,54.7944 376.68,54.4611 378.5,52.5C 381.202,50.2367 384.369,48.9034 388,48.5C 398.701,51.0085 409.367,53.6752 420,56.5C 423.674,55.0566 427.507,54.39 431.5,54.5C 442.502,55.3078 453.502,56.1412 464.5,57C 465.307,62.083 465.807,67.2497 466,72.5C 466.717,73.0442 467.217,73.7109 467.5,74.5C 467.5,75.1667 467.5,75.8333 467.5,76.5C 466.206,75.7101 465.039,74.7101 464,73.5C 463.501,68.5111 463.334,63.5111 463.5,58.5C 452.136,58.3951 440.803,57.7285 429.5,56.5C 425.901,56.7201 422.401,57.3868 419,58.5C 408.619,56.0399 398.285,53.3733 388,50.5C 383.424,52.4565 378.757,54.1232 374,55.5C 370.118,54.9045 366.284,54.0711 362.5,53C 358.993,50.746 355.327,48.746 351.5,47C 350.903,45.9383 350.57,44.7716 350.5,43.5C 352.86,33.5869 355.526,23.7536 358.5,14C 353.708,10.0986 348.708,6.43197 343.5,3C 340.122,2.95247 336.789,3.45247 333.5,4.5C 336.597,1.62216 340.263,0.455492 344.5,1C 349.333,4.5 354.167,8 359,11.5C 357.386,22.4626 354.886,33.2959 351.5,44C 357.891,48.4125 364.891,51.5792 372.5,53.5 Z"/></g>
<g><path style="opacity:0.99" fill="#afb8ad" d="M 333.5,4.5 C 329.859,7.96829 326.026,11.3016 322,14.5C 321.219,15.7287 320.719,17.062 320.5,18.5C 323.324,28.1287 325.99,37.7954 328.5,47.5C 328.019,50.6521 326.353,52.9854 323.5,54.5C 322.833,54.5 322.167,54.5 321.5,54.5C 323.564,52.4384 325.231,50.105 326.5,47.5C 324.101,39.1368 321.601,30.8034 319,22.5C 317.534,17.2652 319.034,13.0985 323.5,10C 326.727,7.88825 330.06,6.05491 333.5,4.5 Z"/></g>
<g><path style="opacity:0.846" fill="#adb9b2" d="M 257.5,38.5 C 257.5,39.1667 257.5,39.8333 257.5,40.5C 256.577,39.6971 255.577,39.5304 254.5,40C 249.167,45.3333 243.833,50.6667 238.5,56C 234.833,56.6667 231.167,56.6667 227.5,56C 221.345,51.0892 215.011,46.4226 208.5,42C 204.804,42.0032 201.137,42.5032 197.5,43.5C 199.043,55.675 200.709,67.8417 202.5,80C 202.644,83.5675 201.978,86.9009 200.5,90C 202.917,99.7419 204.417,109.575 205,119.5C 198.246,125.132 190.746,129.632 182.5,133C 181.019,136.456 179.352,139.789 177.5,143C 174.105,145.88 170.771,146.047 167.5,143.5C 167.833,143.5 168.167,143.5 168.5,143.5C 172.103,144.542 175.103,143.542 177.5,140.5C 178.434,139.432 178.768,138.099 178.5,136.5C 179.674,135.486 180.34,134.153 180.5,132.5C 186.182,128.992 192.182,125.992 198.5,123.5C 200.463,122.04 202.296,120.373 204,118.5C 204.74,117.251 204.573,116.251 203.5,115.5C 201.836,106.848 200.17,98.1811 198.5,89.5C 199.736,86.759 200.736,83.9257 201.5,81C 199.01,67.8961 197.01,54.7295 195.5,41.5C 199.807,40.6734 204.14,40.0067 208.5,39.5C 209.262,41.2624 210.596,42.2624 212.5,42.5C 212.973,43.9063 213.973,44.573 215.5,44.5C 216.262,46.2624 217.596,47.2624 219.5,47.5C 219.973,48.9063 220.973,49.573 222.5,49.5C 223.167,49.5 223.5,49.8333 223.5,50.5C 223.973,51.9063 224.973,52.573 226.5,52.5C 230.413,53.5958 234.413,53.7625 238.5,53C 243.833,47.6667 249.167,42.3333 254.5,37C 255.998,36.4153 256.998,36.9153 257.5,38.5 Z"/></g>
<g><path style="opacity:0.337" fill="#b5a77b" d="M 208.5,39.5 C 210.404,39.7376 211.738,40.7376 212.5,42.5C 210.596,42.2624 209.262,41.2624 208.5,39.5 Z"/></g>
<g><path style="opacity:0.063" fill="#b5a679" d="M 212.5,42.5 C 214.027,42.427 215.027,43.0937 215.5,44.5C 213.973,44.573 212.973,43.9063 212.5,42.5 Z"/></g>
<g><path style="opacity:0.239" fill="#b5a87c" d="M 215.5,44.5 C 217.404,44.7376 218.738,45.7376 219.5,47.5C 217.596,47.2624 216.262,46.2624 215.5,44.5 Z"/></g>
<g><path style="opacity:0.016" fill="#b5a679" d="M 219.5,47.5 C 221.027,47.427 222.027,48.0937 222.5,49.5C 220.973,49.573 219.973,48.9063 219.5,47.5 Z"/></g>
<g><path style="opacity:0.031" fill="#b5a87d" d="M 223.5,50.5 C 225.027,50.427 226.027,51.0937 226.5,52.5C 224.973,52.573 223.973,51.9063 223.5,50.5 Z"/></g>
<g><path style="opacity:0.882" fill="#d4a88e" d="M 378.5,52.5 C 376.68,54.4611 374.68,54.7944 372.5,53.5C 374.5,53.1667 376.5,52.8333 378.5,52.5 Z"/></g>
<g><path style="opacity:0.878" fill="#b7a97e" d="M 299.5,54.5 C 299.027,55.9063 298.027,56.573 296.5,56.5C 296.973,55.0937 297.973,54.427 299.5,54.5 Z"/></g>
<g><path style="opacity:0.8" fill="#b7a97f" d="M 296.5,56.5 C 296.027,57.9063 295.027,58.573 293.5,58.5C 293.973,57.0937 294.973,56.427 296.5,56.5 Z"/></g>
<g><path style="opacity:0.976" fill="#afb6aa" d="M 257.5,38.5 C 266.167,47.5 274.833,56.5 283.5,65.5C 283.44,66.0431 283.107,66.3764 282.5,66.5C 281.482,65.8075 280.482,65.1408 279.5,64.5C 271.826,56.8258 264.493,48.8258 257.5,40.5C 257.5,39.8333 257.5,39.1667 257.5,38.5 Z"/></g>
<g><path style="opacity:0.702" fill="#b7ac85" d="M 293.5,58.5 C 292.738,60.2624 291.404,61.2624 289.5,61.5C 290.262,59.7376 291.596,58.7376 293.5,58.5 Z"/></g>
<g><path style="opacity:1" fill="#acbdbd" d="M 299.5,54.5 C 306.833,54.5 314.167,54.5 321.5,54.5C 322.167,54.5 322.833,54.5 323.5,54.5C 323.389,55.1174 323.056,55.6174 322.5,56C 314.833,56.3333 307.167,56.6667 299.5,57C 294.13,61.0164 288.463,64.5164 282.5,67.5C 280.484,67.4841 279.484,66.4841 279.5,64.5C 280.482,65.1408 281.482,65.8075 282.5,66.5C 283.107,66.3764 283.44,66.0431 283.5,65.5C 285.027,65.573 286.027,64.9063 286.5,63.5C 288.027,63.573 289.027,62.9063 289.5,61.5C 291.404,61.2624 292.738,60.2624 293.5,58.5C 295.027,58.573 296.027,57.9063 296.5,56.5C 298.027,56.573 299.027,55.9063 299.5,54.5 Z"/></g>
<g><path style="opacity:0.839" fill="#b7b191" d="M 289.5,61.5 C 289.027,62.9063 288.027,63.573 286.5,63.5C 286.973,62.0937 287.973,61.427 289.5,61.5 Z"/></g>
<g><path style="opacity:0.753" fill="#b7b191" d="M 286.5,63.5 C 286.027,64.9063 285.027,65.573 283.5,65.5C 283.973,64.0937 284.973,63.427 286.5,63.5 Z"/></g>
<g><path style="opacity:0.584" fill="#d0a991" d="M 467.5,74.5 C 469.587,75.5846 470.92,77.2512 471.5,79.5C 470.167,78.5 468.833,77.5 467.5,76.5C 467.5,75.8333 467.5,75.1667 467.5,74.5 Z"/></g>
<g><path style="opacity:1" fill="#abbbbc" d="M 467.5,76.5 C 468.833,77.5 470.167,78.5 471.5,79.5C 471.5,80.1667 471.5,80.8333 471.5,81.5C 469.413,80.4154 468.08,78.7488 467.5,76.5 Z"/></g>
<g><path style="opacity:0.824" fill="#d1a78d" d="M 471.5,79.5 C 474.243,81.2393 476.243,83.5726 477.5,86.5C 475.5,84.8333 473.5,83.1667 471.5,81.5C 471.5,80.8333 471.5,80.1667 471.5,79.5 Z"/></g>
<g><path style="opacity:0.82" fill="#b8af8a" d="M 203.5,115.5 C 204.573,116.251 204.74,117.251 204,118.5C 202.296,120.373 200.463,122.04 198.5,123.5C 200.167,120.833 201.833,118.167 203.5,115.5 Z"/></g>
<g><path style="opacity:1" fill="#acbbb8" d="M 471.5,81.5 C 473.5,83.1667 475.5,84.8333 477.5,86.5C 477.334,93.8409 477.5,101.174 478,108.5C 479.946,109.994 480.779,111.994 480.5,114.5C 480.15,118.268 479.484,121.934 478.5,125.5C 477.054,132.131 475.388,138.797 473.5,145.5C 471.299,146.566 468.965,147.233 466.5,147.5C 465.833,149.167 465.167,150.833 464.5,152.5C 463.95,146.231 466.95,143.231 473.5,143.5C 474.953,133.804 476.62,124.138 478.5,114.5C 478.693,112.312 477.859,110.645 476,109.5C 475.667,101.833 475.333,94.1667 475,86.5C 473.198,85.2107 472.031,83.5441 471.5,81.5 Z"/></g>
<g><path style="opacity:1" fill="#b8ad87" d="M 180.5,132.5 C 180.34,134.153 179.674,135.486 178.5,136.5C 178.229,134.62 178.896,133.287 180.5,132.5 Z"/></g>
<g><path style="opacity:0.441" fill="#babe93" d="M 478.5,125.5 C 477.995,131.869 477.162,138.202 476,144.5C 475.329,145.252 474.496,145.586 473.5,145.5C 475.388,138.797 477.054,132.131 478.5,125.5 Z"/></g>
<g><path style="opacity:1" fill="#acb5ab" d="M 168.5,142.5 C 168.5,142.833 168.5,143.167 168.5,143.5C 168.167,143.5 167.833,143.5 167.5,143.5C 162.735,141.618 158.068,139.452 153.5,137C 147.833,136.333 142.167,136.333 136.5,137C 132.752,143.832 128.752,150.499 124.5,157C 122.078,157.135 119.745,156.635 117.5,155.5C 117.5,155.167 117.5,154.833 117.5,154.5C 117.5,154.167 117.5,153.833 117.5,153.5C 119.258,153.877 120.925,154.544 122.5,155.5C 126.862,149.287 130.862,142.787 134.5,136C 141.833,135.333 149.167,135.333 156.5,136C 160.722,137.941 164.722,140.108 168.5,142.5 Z"/></g>
<g><path style="opacity:0.976" fill="#90a2ab" d="M 257.5,146.5 C 257.918,147.222 258.584,147.722 259.5,148C 258.906,148.464 258.239,148.631 257.5,148.5C 249.106,149.648 242.106,147.148 236.5,141C 234.833,140.333 233.167,140.333 231.5,141C 226.305,145.366 221.305,149.866 216.5,154.5C 216.962,152.243 217.962,150.243 219.5,148.5C 219.376,147.893 219.043,147.56 218.5,147.5C 223.551,143.796 228.885,140.462 234.5,137.5C 237.336,140.481 240.669,142.981 244.5,145C 248.751,146.195 253.085,146.695 257.5,146.5 Z"/></g>
<g><path style="opacity:0.367" fill="#b7a97c" d="M 177.5,140.5 C 175.103,143.542 172.103,144.542 168.5,143.5C 168.5,143.167 168.5,142.833 168.5,142.5C 171.598,142.244 174.598,141.578 177.5,140.5 Z"/></g>
<g><path style="opacity:1" fill="#9cb3be" d="M 257.5,146.5 C 259.167,146.5 260.833,146.5 262.5,146.5C 262.433,147.959 262.766,149.292 263.5,150.5C 263.833,151.167 264.167,151.833 264.5,152.5C 261.996,151.416 259.663,150.083 257.5,148.5C 258.239,148.631 258.906,148.464 259.5,148C 258.584,147.722 257.918,147.222 257.5,146.5 Z"/></g>
<g><path style="opacity:0.996" fill="#8898a0" d="M 263.5,150.5 C 266.5,151.833 269.5,153.167 272.5,154.5C 273.167,155.5 273.833,156.5 274.5,157.5C 270.849,156.341 267.515,154.674 264.5,152.5C 264.167,151.833 263.833,151.167 263.5,150.5 Z"/></g>
<g><path style="opacity:1" fill="#a6b6b7" d="M 218.5,147.5 C 219.043,147.56 219.376,147.893 219.5,148.5C 217.962,150.243 216.962,152.243 216.5,154.5C 215.597,157.391 215.264,160.391 215.5,163.5C 215.5,164.833 215.5,166.167 215.5,167.5C 214.21,166.942 213.377,165.942 213,164.5C 212.527,159.378 213.194,154.378 215,149.5C 216.113,148.695 217.279,148.028 218.5,147.5 Z"/></g>
<g><path style="opacity:0.952" fill="#b0beb6" d="M 466.5,147.5 C 468.3,164.067 470.3,180.567 472.5,197C 471.676,210.092 471.176,223.258 471,236.5C 465.3,245.257 459.133,253.591 452.5,261.5C 451.094,261.973 450.427,262.973 450.5,264.5C 449.094,264.973 448.427,265.973 448.5,267.5C 448.5,268.167 448.167,268.5 447.5,268.5C 447.389,267.883 447.056,267.383 446.5,267C 441.981,266.825 437.647,266.325 433.5,265.5C 438.179,265.666 442.845,265.499 447.5,265C 454.667,255.167 461.833,245.333 469,235.5C 470.701,207.626 469.201,179.96 464.5,152.5C 465.167,150.833 465.833,149.167 466.5,147.5 Z"/></g>
<g><path style="opacity:1" fill="#aababb" d="M 272.5,154.5 C 275.114,155.807 277.78,157.14 280.5,158.5C 287.091,164.097 288.091,170.43 283.5,177.5C 283.666,173.486 283.499,169.486 283,165.5C 281.953,163.292 280.453,161.626 278.5,160.5C 276.596,160.262 275.262,159.262 274.5,157.5C 273.833,156.5 273.167,155.5 272.5,154.5 Z"/></g>
<g><path style="opacity:0.863" fill="#85959d" d="M 215.5,163.5 C 217.018,166.574 218.018,169.907 218.5,173.5C 218.579,176.658 217.579,179.325 215.5,181.5C 215.5,180.5 215.5,179.5 215.5,178.5C 216.758,174.8 216.758,171.134 215.5,167.5C 215.5,166.167 215.5,164.833 215.5,163.5 Z"/></g>
<g><path style="opacity:0.878" fill="#c99fb8" d="M 117.5,153.5 C 117.5,153.833 117.5,154.167 117.5,154.5C 109.167,167.167 100.833,179.833 92.5,192.5C 99.079,180.738 105.912,169.071 113,157.5C 113.876,155.365 115.376,154.031 117.5,153.5 Z"/></g>
<g><path style="opacity:0.998" fill="#90a4b2" d="M 278.5,160.5 C 280.453,161.626 281.953,163.292 283,165.5C 283.499,169.486 283.666,173.486 283.5,177.5C 281.368,183.692 279.702,190.026 278.5,196.5C 276.713,200.075 274.879,203.741 273,207.5C 272.329,208.252 271.496,208.586 270.5,208.5C 275.674,198.17 279.174,187.17 281,175.5C 282.131,170.086 281.297,165.086 278.5,160.5 Z"/></g>
<g><path style="opacity:1" fill="#acbcbd" d="M 117.5,154.5 C 117.5,154.833 117.5,155.167 117.5,155.5C 110.358,168.444 102.692,181.11 94.5,193.5C 90.8776,194.325 87.211,194.825 83.5,195C 82.2107,196.802 80.5441,197.969 78.5,198.5C 80.1667,196.5 81.8333,194.5 83.5,192.5C 86.5,192.5 89.5,192.5 92.5,192.5C 100.833,179.833 109.167,167.167 117.5,154.5 Z"/></g>
<g><path style="opacity:1" fill="#a7b7b8" d="M 215.5,178.5 C 215.5,179.5 215.5,180.5 215.5,181.5C 215.5,181.833 215.5,182.167 215.5,182.5C 214.532,184.607 214.198,186.941 214.5,189.5C 213.053,188.866 212.387,187.699 212.5,186C 213.131,183.254 214.131,180.754 215.5,178.5 Z"/></g>
<g><path style="opacity:0.973" fill="#7e898d" d="M 215.5,182.5 C 215.665,185.85 215.498,189.183 215,192.5C 214.623,193.942 213.79,194.942 212.5,195.5C 213.167,193.5 213.833,191.5 214.5,189.5C 214.198,186.941 214.532,184.607 215.5,182.5 Z"/></g>
<g><path style="opacity:0.918" fill="#c1abbb" d="M 83.5,192.5 C 81.8333,194.5 80.1667,196.5 78.5,198.5C 77.8333,198.5 77.1667,198.5 76.5,198.5C 78.2393,195.757 80.5726,193.757 83.5,192.5 Z"/></g>
<g><path style="opacity:1" fill="#92a3a9" d="M 205.5,202.5 C 202.226,206.145 198.226,208.812 193.5,210.5C 193.443,209.391 193.11,208.391 192.5,207.5C 196.75,205.638 201.083,203.972 205.5,202.5 Z"/></g>
<g><path style="opacity:1" fill="#b1c1c2" d="M 192.5,207.5 C 193.11,208.391 193.443,209.391 193.5,210.5C 193.167,210.5 192.833,210.5 192.5,210.5C 190.331,212.34 188.998,214.674 188.5,217.5C 188.5,218.167 188.167,218.5 187.5,218.5C 187.183,215.428 187.516,212.428 188.5,209.5C 189.86,208.82 191.193,208.153 192.5,207.5 Z"/></g>
<g><path style="opacity:0.671" fill="#c6a0b8" d="M 65.5,209.5 C 65.573,211.027 64.9063,212.027 63.5,212.5C 63.427,210.973 64.0937,209.973 65.5,209.5 Z"/></g>
<g><path style="opacity:0.973" fill="#9dafb6" d="M 278.5,196.5 C 277.214,207.778 271.214,215.111 260.5,218.5C 259.833,218.5 259.167,218.5 258.5,218.5C 262.46,215.177 266.46,211.844 270.5,208.5C 271.496,208.586 272.329,208.252 273,207.5C 274.879,203.741 276.713,200.075 278.5,196.5 Z"/></g>
<g><path style="opacity:0.965" fill="#8b9da8" d="M 192.5,210.5 C 192.445,213.614 191.112,215.948 188.5,217.5C 188.998,214.674 190.331,212.34 192.5,210.5 Z"/></g>
<g><path style="opacity:0.024" fill="#c79eb7" d="M 63.5,214.5 C 64.9063,214.973 65.573,215.973 65.5,217.5C 64.0937,217.027 63.427,216.027 63.5,214.5 Z"/></g>
<g><path style="opacity:0.914" fill="#899699" d="M 258.5,218.5 C 259.167,218.5 259.833,218.5 260.5,218.5C 255.943,223.943 254.276,230.277 255.5,237.5C 253.51,230.742 254.51,224.409 258.5,218.5 Z"/></g>
<g><path style="opacity:0.941" fill="#86969f" d="M 169.5,231.5 C 164.724,234.64 159.391,235.973 153.5,235.5C 152.5,235.5 151.5,235.5 150.5,235.5C 151.5,234.833 152.5,234.167 153.5,233.5C 158.97,233.754 164.304,233.087 169.5,231.5 Z"/></g>
<g><path style="opacity:0.125" fill="#a1cbed" d="M 150.5,235.5 C 151.5,235.5 152.5,235.5 153.5,235.5C 150.785,237.072 147.785,238.072 144.5,238.5C 144.5,238.167 144.5,237.833 144.5,237.5C 146.579,237.029 148.579,236.363 150.5,235.5 Z"/></g>
<g><path style="opacity:0.549" fill="#8fa6b7" d="M 144.5,237.5 C 144.5,237.833 144.5,238.167 144.5,238.5C 141.738,240.596 138.738,242.262 135.5,243.5C 137.951,240.723 140.951,238.723 144.5,237.5 Z"/></g>
<g><path style="opacity:1" fill="#d4dfdf" d="M 213.5,240.5 C 214.492,247.648 214.825,254.981 214.5,262.5C 210.833,262.5 207.167,262.5 203.5,262.5C 201.315,262.296 199.315,261.63 197.5,260.5C 195.809,257.355 195.309,254.021 196,250.5C 198.372,248.297 200.539,245.963 202.5,243.5C 206.223,242.653 209.889,241.653 213.5,240.5 Z"/></g>
<g><path style="opacity:1" fill="#b9c8c9" d="M 213.5,240.5 C 213.56,239.957 213.893,239.624 214.5,239.5C 215.498,247.472 215.831,255.472 215.5,263.5C 211.298,263.817 207.298,263.483 203.5,262.5C 207.167,262.5 210.833,262.5 214.5,262.5C 214.825,254.981 214.492,247.648 213.5,240.5 Z"/></g>
<g><path style="opacity:1" fill="#acbcbd" d="M 153.5,233.5 C 152.5,234.167 151.5,234.833 150.5,235.5C 148.579,236.363 146.579,237.029 144.5,237.5C 140.951,238.723 137.951,240.723 135.5,243.5C 133.14,245.713 131.306,248.379 130,251.5C 129.768,250.263 129.268,249.263 128.5,248.5C 132.963,243.535 137.63,238.702 142.5,234C 146.152,233.501 149.818,233.335 153.5,233.5 Z"/></g>
<g><path style="opacity:0.855" fill="#88979d" d="M 255.5,237.5 C 257.083,239.663 258.416,241.996 259.5,244.5C 260.038,246.117 260.371,247.784 260.5,249.5C 260.167,249.5 259.833,249.5 259.5,249.5C 257.601,245.698 256.267,241.698 255.5,237.5 Z"/></g>
<g><path style="opacity:0.984" fill="#869396" d="M 197.5,260.5 C 199.315,261.63 201.315,262.296 203.5,262.5C 207.298,263.483 211.298,263.817 215.5,263.5C 215.831,255.472 215.498,247.472 214.5,239.5C 213.893,239.624 213.56,239.957 213.5,240.5C 209.889,241.653 206.223,242.653 202.5,243.5C 206.497,240.276 211.164,238.61 216.5,238.5C 216.5,247.167 216.5,255.833 216.5,264.5C 211.156,264.666 205.823,264.499 200.5,264C 199.29,262.961 198.29,261.794 197.5,260.5 Z"/></g>
<g><path style="opacity:0.984" fill="#939ea2" d="M 202.5,243.5 C 200.539,245.963 198.372,248.297 196,250.5C 195.309,254.021 195.809,257.355 197.5,260.5C 196.21,259.942 195.377,258.942 195,257.5C 193.368,250.63 195.868,245.963 202.5,243.5 Z"/></g>
<g><path style="opacity:0.624" fill="#b1b7bc" d="M 76.5,198.5 C 77.1667,198.5 77.8333,198.5 78.5,198.5C 73.1275,202.543 68.7941,207.543 65.5,213.5C 70.0886,220.344 74.9219,227.01 80,233.5C 80.7772,236.429 80.6105,239.263 79.5,242C 74.0314,245.303 68.6981,248.803 63.5,252.5C 62.3483,255.106 62.1816,257.773 63,260.5C 66.2283,265.936 68.5616,271.602 70,277.5C 56.7867,286.017 43.2867,293.85 29.5,301C 28.0733,310.17 26.5733,319.336 25,328.5C 20.1358,331.014 14.9691,332.514 9.5,333C 6.5532,335.436 4.21987,338.269 2.5,341.5C 2.16667,341.5 1.83333,341.5 1.5,341.5C 0.833333,341.5 0.166667,341.5 -0.5,341.5C -0.5,340.833 -0.5,340.167 -0.5,339.5C 3.43559,337.234 6.76893,334.234 9.5,330.5C 14.4199,330.132 19.0865,328.798 23.5,326.5C 24.9216,317.873 26.0883,309.207 27,300.5C 30.826,296.836 35.326,294.67 40.5,294C 48.5539,288.31 56.8873,283.144 65.5,278.5C 69.4075,277.684 70.0742,276.017 67.5,273.5C 62.5988,266.964 60.4322,259.631 61,251.5C 65.7478,248.209 70.5812,245.042 75.5,242C 76.9437,240.237 77.9437,238.237 78.5,236C 74.3655,229.698 70.0322,223.531 65.5,217.5C 65.573,215.973 64.9063,214.973 63.5,214.5C 63.5,213.833 63.5,213.167 63.5,212.5C 64.9063,212.027 65.573,211.027 65.5,209.5C 68.1453,204.855 71.8119,201.188 76.5,198.5 Z"/></g>
<g><path style="opacity:1" fill="#96acba" d="M 135.5,243.5 C 133.678,249.136 131.345,254.469 128.5,259.5C 128.5,255.833 128.5,252.167 128.5,248.5C 129.268,249.263 129.768,250.263 130,251.5C 131.306,248.379 133.14,245.713 135.5,243.5 Z"/></g>
<g><path style="opacity:1" fill="#b3c3c4" d="M 259.5,244.5 C 263.41,247.798 264.41,251.798 262.5,256.5C 262.59,253.848 261.924,251.515 260.5,249.5C 260.371,247.784 260.038,246.117 259.5,244.5 Z"/></g>
<g><path style="opacity:1" fill="#9fb0b3" d="M 412.5,252.5 C 411.833,252.5 411.5,252.833 411.5,253.5C 403.74,248.132 396.073,248.465 388.5,254.5C 388.167,254.5 387.833,254.5 387.5,254.5C 381.778,253.578 380.112,255.911 382.5,261.5C 381.341,263.855 380.341,266.188 379.5,268.5C 379.173,263.786 379.507,259.12 380.5,254.5C 389.179,250.327 398.179,247.494 407.5,246C 409.054,248.287 410.721,250.454 412.5,252.5 Z"/></g>
<g><path style="opacity:1" fill="#d3dede" d="M 387.5,254.5 C 384.677,255.992 383.01,258.326 382.5,261.5C 380.112,255.911 381.778,253.578 387.5,254.5 Z"/></g>
<g><path style="opacity:0.984" fill="#8ca0ac" d="M 259.5,249.5 C 259.833,249.5 260.167,249.5 260.5,249.5C 261.924,251.515 262.59,253.848 262.5,256.5C 261.029,260.718 260.029,265.051 259.5,269.5C 257.833,272.833 256.167,276.167 254.5,279.5C 254.5,278.5 254.5,277.5 254.5,276.5C 255.895,272.485 257.395,268.485 259,264.5C 259.499,259.511 259.666,254.511 259.5,249.5 Z"/></g>
<g><path style="opacity:0.91" fill="#839299" d="M 411.5,253.5 C 411.5,252.833 411.833,252.5 412.5,252.5C 418.137,256.657 423.804,260.824 429.5,265C 430.793,265.49 432.127,265.657 433.5,265.5C 437.647,266.325 441.981,266.825 446.5,267C 447.056,267.383 447.389,267.883 447.5,268.5C 441.816,268.257 436.149,267.757 430.5,267C 423.786,262.982 417.453,258.482 411.5,253.5 Z"/></g>
<g><path style="opacity:0.039" fill="#b9bd92" d="M 452.5,261.5 C 452.573,263.027 451.906,264.027 450.5,264.5C 450.427,262.973 451.094,261.973 452.5,261.5 Z"/></g>
<g><path style="opacity:0.012" fill="#babd8f" d="M 450.5,264.5 C 450.573,266.027 449.906,267.027 448.5,267.5C 448.427,265.973 449.094,264.973 450.5,264.5 Z"/></g>
<g><path style="opacity:0.996" fill="#8999a2" d="M 387.5,254.5 C 387.833,254.5 388.167,254.5 388.5,254.5C 384.944,259.619 382.444,265.286 381,271.5C 379.549,273.464 377.716,274.797 375.5,275.5C 375.833,274.833 376.167,274.167 376.5,273.5C 378.727,272.599 379.727,270.933 379.5,268.5C 380.341,266.188 381.341,263.855 382.5,261.5C 383.01,258.326 384.677,255.992 387.5,254.5 Z"/></g>
<g><path style="opacity:0.035" fill="#c5a3b9" d="M 67.5,273.5 C 70.0742,276.017 69.4075,277.684 65.5,278.5C 66.9418,277.18 67.6085,275.514 67.5,273.5 Z"/></g>
<g><path style="opacity:1" fill="#9faeb1" d="M 376.5,273.5 C 376.167,274.167 375.833,274.833 375.5,275.5C 372.161,279.868 370.827,284.868 371.5,290.5C 371.5,292.5 371.5,294.5 371.5,296.5C 368.802,292.637 367.969,288.304 369,283.5C 368.885,278.016 371.385,274.682 376.5,273.5 Z"/></g>
<g><path style="opacity:0.994" fill="#879395" d="M 128.5,264.5 C 128.332,271.51 127.999,278.51 127.5,285.5C 127.167,285.5 126.833,285.5 126.5,285.5C 126.5,282.5 126.5,279.5 126.5,276.5C 126.851,272.316 127.518,268.316 128.5,264.5 Z"/></g>
<g><path style="opacity:0.529" fill="#a5d1f5" d="M 254.5,276.5 C 254.5,277.5 254.5,278.5 254.5,279.5C 253.833,279.833 253.167,280.167 252.5,280.5C 252.66,278.847 253.326,277.514 254.5,276.5 Z"/></g>
<g><path style="opacity:1" fill="#acbbbd" d="M 259.5,269.5 C 258.605,274.142 257.772,278.809 257,283.5C 254.618,285.389 252.118,287.055 249.5,288.5C 249.5,287.833 249.5,287.167 249.5,286.5C 251.025,284.784 252.025,282.784 252.5,280.5C 253.167,280.167 253.833,279.833 254.5,279.5C 256.167,276.167 257.833,272.833 259.5,269.5 Z"/></g>
<g><path style="opacity:1" fill="#b6c6c7" d="M 126.5,276.5 C 126.5,279.5 126.5,282.5 126.5,285.5C 125.528,294.75 125.195,304.083 125.5,313.5C 124.834,308.845 124.501,304.012 124.5,299C 124.35,291.277 125.017,283.777 126.5,276.5 Z"/></g>
<g><path style="opacity:0.784" fill="#99bfdd" d="M 252.5,280.5 C 252.025,282.784 251.025,284.784 249.5,286.5C 246.313,289.593 242.646,291.927 238.5,293.5C 243.794,289.873 248.461,285.54 252.5,280.5 Z"/></g>
<g><path style="opacity:0.541" fill="#8fa0a7" d="M 371.5,290.5 C 373.491,296.142 376.324,301.475 380,306.5C 380.82,313.014 380.653,319.347 379.5,325.5C 378.539,323.735 378.205,321.735 378.5,319.5C 379.331,315.524 379.497,311.524 379,307.5C 374.517,305.204 372.017,301.537 371.5,296.5C 371.5,294.5 371.5,292.5 371.5,290.5 Z"/></g>
<g><path style="opacity:0.918" fill="#8a9ca6" d="M 249.5,286.5 C 249.5,287.167 249.5,287.833 249.5,288.5C 245.569,291.928 241.236,294.761 236.5,297C 231.896,301.102 227.896,305.602 224.5,310.5C 225.043,307.962 226.043,305.628 227.5,303.5C 230.563,299.434 234.229,296.101 238.5,293.5C 242.646,291.927 246.313,289.593 249.5,286.5 Z"/></g>
<g><path style="opacity:1" fill="#d4dfdf" d="M 164.5,314.5 C 164.5,312.5 164.5,310.5 164.5,308.5C 167.843,297.406 174.176,295.573 183.5,303C 186.387,304.709 187.721,307.209 187.5,310.5C 186.787,320.726 181.454,325.226 171.5,324C 168.115,321.471 165.782,318.304 164.5,314.5 Z"/></g>
<g><path style="opacity:0.122" fill="#a1ccee" d="M 425.5,304.5 C 427.5,304.5 428.5,305.5 428.5,307.5C 427.833,307.167 427.167,306.833 426.5,306.5C 426.167,305.833 425.833,305.167 425.5,304.5 Z"/></g>
<g><path style="opacity:0.988" fill="#8f9ea8" d="M 425.5,304.5 C 425.833,305.167 426.167,305.833 426.5,306.5C 418.974,305.03 416.307,308.03 418.5,315.5C 416.278,315.441 415.278,314.275 415.5,312C 416.416,306.248 419.749,303.748 425.5,304.5 Z"/></g>
<g><path style="opacity:0.58" fill="#99c2de" d="M 227.5,303.5 C 226.043,305.628 225.043,307.962 224.5,310.5C 223.833,310.833 223.167,311.167 222.5,311.5C 222.652,307.859 224.318,305.193 227.5,303.5 Z"/></g>
<g><path style="opacity:1" fill="#d2dddd" d="M 426.5,306.5 C 427.945,313.382 425.278,316.382 418.5,315.5C 416.307,308.03 418.974,305.03 426.5,306.5 Z"/></g>
<g><path style="opacity:1" fill="#95a6ac" d="M 126.5,285.5 C 126.833,285.5 127.167,285.5 127.5,285.5C 127.589,290.526 127.255,295.526 126.5,300.5C 127.168,305.51 127.835,310.51 128.5,315.5C 128.5,316.167 128.5,316.833 128.5,317.5C 127.512,316.205 126.512,314.872 125.5,313.5C 125.195,304.083 125.528,294.75 126.5,285.5 Z"/></g>
<g><path style="opacity:0.98" fill="#95adc0" d="M 426.5,306.5 C 427.167,306.833 427.833,307.167 428.5,307.5C 429.571,310.68 428.905,313.68 426.5,316.5C 423.433,318.096 420.766,317.763 418.5,315.5C 425.278,316.382 427.945,313.382 426.5,306.5 Z"/></g>
<g><path style="opacity:0.984" fill="#839198" d="M 224.5,310.5 C 223.122,314.05 222.122,317.717 221.5,321.5C 220.833,322.5 220.167,323.5 219.5,324.5C 219.5,323.5 219.5,322.5 219.5,321.5C 220.5,318.167 221.5,314.833 222.5,311.5C 223.167,311.167 223.833,310.833 224.5,310.5 Z"/></g>
<g><path style="opacity:0.318" fill="#8898a0" d="M 164.5,314.5 C 165.782,318.304 168.115,321.471 171.5,324C 181.454,325.226 186.787,320.726 187.5,310.5C 187.721,307.209 186.387,304.709 183.5,303C 174.176,295.573 167.843,297.406 164.5,308.5C 165.992,296.601 171.992,293.768 182.5,300C 189.172,306.099 190.338,313.266 186,321.5C 184.421,323.041 182.587,324.208 180.5,325C 176.5,325.667 172.5,325.667 168.5,325C 165.909,321.933 164.576,318.433 164.5,314.5 Z"/></g>
<g><path style="opacity:0.992" fill="#7c888c" d="M 128.5,315.5 C 130.198,324.232 129.531,332.899 126.5,341.5C 125.662,341.158 125.328,340.492 125.5,339.5C 128.174,332.454 129.174,325.121 128.5,317.5C 128.5,316.833 128.5,316.167 128.5,315.5 Z"/></g>
<g><path style="opacity:0.249" fill="#a1cbed" d="M 219.5,321.5 C 219.5,322.5 219.5,323.5 219.5,324.5C 218.662,324.842 218.328,325.508 218.5,326.5C 217.5,327.167 216.5,327.833 215.5,328.5C 216.079,325.669 217.412,323.336 219.5,321.5 Z"/></g>
<g><path style="opacity:1" fill="#a9baba" d="M 378.5,319.5 C 378.205,321.735 378.539,323.735 379.5,325.5C 379.5,326.833 379.5,328.167 379.5,329.5C 379.5,329.833 379.5,330.167 379.5,330.5C 378.883,330.389 378.383,330.056 378,329.5C 377.192,325.973 377.359,322.64 378.5,319.5 Z"/></g>
<g><path style="opacity:1" fill="#acbcbd" d="M 221.5,321.5 C 221.663,323.857 221.497,326.19 221,328.5C 219.989,329.337 218.822,329.67 217.5,329.5C 218.11,328.609 218.443,327.609 218.5,326.5C 218.328,325.508 218.662,324.842 219.5,324.5C 220.167,323.5 220.833,322.5 221.5,321.5 Z"/></g>
<g><path style="opacity:0.941" fill="#c2adbd" d="M 9.5,330.5 C 6.76893,334.234 3.43559,337.234 -0.5,339.5C -0.5,339.167 -0.5,338.833 -0.5,338.5C 2.56378,335.43 5.89711,332.763 9.5,330.5 Z"/></g>
<g><path style="opacity:1" fill="#abbbbc" d="M 211.5,335.5 C 209.745,338.436 207.745,341.269 205.5,344C 204.207,344.49 202.873,344.657 201.5,344.5C 204.808,341.529 208.141,338.529 211.5,335.5 Z"/></g>
<g><path style="opacity:0.953" fill="#8e9a9e" d="M 1.5,341.5 C 1.83333,341.5 2.16667,341.5 2.5,341.5C 3.67373,342.514 4.3404,343.847 4.5,345.5C 4.8064,348.385 4.47307,351.052 3.5,353.5C 3.66692,349.33 3.00026,345.33 1.5,341.5 Z"/></g>
<g><path style="opacity:1" fill="#95a4a8" d="M 379.5,329.5 C 380.329,337.323 380.829,345.323 381,353.5C 382.481,354.471 383.315,355.804 383.5,357.5C 381.608,356.298 379.774,354.965 378,353.5C 377.79,345.8 378.29,338.133 379.5,330.5C 379.5,330.167 379.5,329.833 379.5,329.5 Z"/></g>
<g><path style="opacity:0.973" fill="#93a4ad" d="M 125.5,339.5 C 125.328,340.492 125.662,341.158 126.5,341.5C 124.623,345.155 122.957,348.822 121.5,352.5C 119.975,355.079 118.641,357.746 117.5,360.5C 117.167,360.5 116.833,360.5 116.5,360.5C 118.137,352.896 121.137,345.896 125.5,339.5 Z"/></g>
<g><path style="opacity:0.263" fill="#a5d2f6" d="M 186.5,351.5 C 186.068,352.71 185.401,353.71 184.5,354.5C 184.285,352.821 184.952,351.821 186.5,351.5 Z"/></g>
<g><path style="opacity:1" fill="#aebfc0" d="M 4.5,345.5 C 8.73762,349.882 8.40429,353.882 3.5,357.5C 3.5,356.167 3.5,354.833 3.5,353.5C 4.47307,351.052 4.8064,348.385 4.5,345.5 Z"/></g>
<g><path style="opacity:0.359" fill="#a1cbed" d="M 121.5,352.5 C 121.333,356.673 120,360.34 117.5,363.5C 117.5,362.5 117.5,361.5 117.5,360.5C 118.641,357.746 119.975,355.079 121.5,352.5 Z"/></g>
<g><path style="opacity:0.976" fill="#899ba4" d="M 218.5,326.5 C 218.443,327.609 218.11,328.609 217.5,329.5C 215.167,331.167 213.167,333.167 211.5,335.5C 208.141,338.529 204.808,341.529 201.5,344.5C 196.136,346.601 191.302,349.601 187,353.5C 185.882,357.923 187.049,361.59 190.5,364.5C 190.5,365.833 190.5,367.167 190.5,368.5C 186.335,364.83 184.335,360.163 184.5,354.5C 185.401,353.71 186.068,352.71 186.5,351.5C 187.716,349.549 189.382,348.049 191.5,347C 196.266,345.416 200.6,343.083 204.5,340C 207.837,335.804 211.503,331.971 215.5,328.5C 216.5,327.833 217.5,327.167 218.5,326.5 Z"/></g>
<g><path style="opacity:0.576" fill="#9fc9ea" d="M 2.5,354.5 C 2.00751,356.819 1.00751,358.819 -0.5,360.5C -0.5,359.5 -0.5,358.5 -0.5,357.5C 0.271873,356.306 1.27187,355.306 2.5,354.5 Z"/></g>
<g><path style="opacity:0.647" fill="#889596" d="M 383.5,357.5 C 384.906,357.973 385.573,358.973 385.5,360.5C 384.094,360.027 383.427,359.027 383.5,357.5 Z"/></g>
<g><path style="opacity:1" fill="#a2b2b4" d="M 190.5,364.5 C 193.075,366.845 194.075,369.845 193.5,373.5C 192.833,372.833 192.167,372.167 191.5,371.5C 190.596,370.791 190.263,369.791 190.5,368.5C 190.5,367.167 190.5,365.833 190.5,364.5 Z"/></g>
<g><path style="opacity:1" fill="#92a3ac" d="M 240.5,372.5 C 242.869,373.69 244.869,375.357 246.5,377.5C 245.833,377.5 245.167,377.5 244.5,377.5C 240.687,375.092 236.687,372.925 232.5,371C 231.056,370.219 229.723,370.386 228.5,371.5C 226.386,377.445 225.052,383.445 224.5,389.5C 224.5,384.833 224.5,380.167 224.5,375.5C 225.086,373.16 226.086,370.993 227.5,369C 232.355,368.459 236.689,369.626 240.5,372.5 Z"/></g>
<g><path style="opacity:1" fill="#acbdbe" d="M 386.5,363.5 C 389.859,366.529 393.192,369.529 396.5,372.5C 396.062,372.435 395.728,372.601 395.5,373C 396.622,375.124 398.122,376.957 400,378.5C 401.812,377.023 403.645,375.69 405.5,374.5C 406.5,374.5 407.5,374.5 408.5,374.5C 405.48,377.853 401.813,379.186 397.5,378.5C 393.571,373.619 389.904,368.619 386.5,363.5 Z"/></g>
<g><path style="opacity:1" fill="#8fa0a7" d="M 3.5,353.5 C 3.5,354.833 3.5,356.167 3.5,357.5C -0.327368,361.415 -0.327368,365.248 3.5,369C 11.1704,369.321 18.8371,369.154 26.5,368.5C 26.6747,374.383 27.3413,380.217 28.5,386C 28.6464,388.034 27.9797,389.701 26.5,391C 27.2524,391.671 27.5858,392.504 27.5,393.5C 26.8826,393.389 26.3826,393.056 26,392.5C 24.8143,385.214 24.3143,377.881 24.5,370.5C 17.8509,371.38 11.1843,371.546 4.5,371C 2.09347,370.743 0.426808,369.576 -0.5,367.5C -0.5,365.167 -0.5,362.833 -0.5,360.5C 1.00751,358.819 2.00751,356.819 2.5,354.5C 2.5,353.833 2.83333,353.5 3.5,353.5 Z"/></g>
<g><path style="opacity:1" fill="#d2dddd" d="M 396.5,372.5 C 399.246,374.126 402.246,374.793 405.5,374.5C 403.645,375.69 401.812,377.023 400,378.5C 398.122,376.957 396.622,375.124 395.5,373C 395.728,372.601 396.062,372.435 396.5,372.5 Z"/></g>
<g><path style="opacity:0.565" fill="#8798a1" d="M 385.5,360.5 C 389.565,364.572 393.898,368.238 398.5,371.5C 402.167,374.167 405.833,374.167 409.5,371.5C 416.599,369.517 423.266,370.35 429.5,374C 433.562,377.496 436.895,381.496 439.5,386C 444.855,386.835 450.189,387.669 455.5,388.5C 456.306,389.728 457.306,390.728 458.5,391.5C 457.5,391.5 456.5,391.5 455.5,391.5C 454.158,390.207 452.491,389.374 450.5,389C 446.5,388.667 442.5,388.333 438.5,388C 435.877,384.588 433.377,381.088 431,377.5C 424.083,371.386 416.583,370.386 408.5,374.5C 407.5,374.5 406.5,374.5 405.5,374.5C 402.246,374.793 399.246,374.126 396.5,372.5C 393.192,369.529 389.859,366.529 386.5,363.5C 385.89,362.609 385.557,361.609 385.5,360.5 Z"/></g>
<g><path style="opacity:0.898" fill="#9ec6e7" d="M 398.5,371.5 C 402.315,372.105 405.982,372.105 409.5,371.5C 405.833,374.167 402.167,374.167 398.5,371.5 Z"/></g>
<g><path style="opacity:0.761" fill="#82939b" d="M 116.5,360.5 C 116.833,360.5 117.167,360.5 117.5,360.5C 117.5,361.5 117.5,362.5 117.5,363.5C 115.113,371.888 110.113,378.222 102.5,382.5C 106.564,378.048 110.397,373.381 114,368.5C 115.707,366.091 116.54,363.425 116.5,360.5 Z"/></g>
<g><path style="opacity:1" fill="#b4c3c4" d="M 240.5,372.5 C 245.033,373.568 249.366,375.234 253.5,377.5C 255.461,382.679 256.795,388.012 257.5,393.5C 255.379,389.259 253.213,384.925 251,380.5C 249.871,378.859 248.371,377.859 246.5,377.5C 244.869,375.357 242.869,373.69 240.5,372.5 Z"/></g>
<g><path style="opacity:1" fill="#abbbbc" d="M 224.5,375.5 C 224.5,380.167 224.5,384.833 224.5,389.5C 224.5,389.833 224.5,390.167 224.5,390.5C 220.742,385.431 220.742,380.431 224.5,375.5 Z"/></g>
<g><path style="opacity:0.984" fill="#91a0a7" d="M 246.5,377.5 C 248.371,377.859 249.871,378.859 251,380.5C 253.213,384.925 255.379,389.259 257.5,393.5C 259.082,396.876 259.749,400.542 259.5,404.5C 256.795,397.417 253.795,390.417 250.5,383.5C 249.585,381.246 248.252,379.246 246.5,377.5 Z"/></g>
<g><path style="opacity:0.439" fill="#a2cdef" d="M 244.5,377.5 C 245.167,377.5 245.833,377.5 246.5,377.5C 248.252,379.246 249.585,381.246 250.5,383.5C 248.167,381.833 246.167,379.833 244.5,377.5 Z"/></g>
<g><path style="opacity:0.914" fill="#8699a3" d="M 191.5,371.5 C 192.167,372.167 192.833,372.833 193.5,373.5C 193.241,378.41 194.907,382.41 198.5,385.5C 198.414,386.496 198.748,387.329 199.5,388C 198.906,388.464 198.239,388.631 197.5,388.5C 193.139,383.791 191.139,378.124 191.5,371.5 Z"/></g>
<g><path style="opacity:1" fill="#aabbbc" d="M 315.5,389.5 C 310.672,388.501 306.005,388.501 301.5,389.5C 300.833,389.5 300.167,389.5 299.5,389.5C 297.5,389.5 295.5,389.5 293.5,389.5C 300.817,385.571 308.151,385.571 315.5,389.5 Z"/></g>
<g><path style="opacity:1" fill="#a5b9c3" d="M 198.5,385.5 C 202.793,387.474 204.46,390.807 203.5,395.5C 202.768,394.192 201.934,392.858 201,391.5C 200.536,392.094 200.369,392.761 200.5,393.5C 199.263,392.035 198.263,390.368 197.5,388.5C 198.239,388.631 198.906,388.464 199.5,388C 198.748,387.329 198.414,386.496 198.5,385.5 Z"/></g>
<g><path style="opacity:0.682" fill="#a2ccee" d="M 455.5,388.5 C 457.819,388.992 459.819,389.992 461.5,391.5C 460.5,391.5 459.5,391.5 458.5,391.5C 457.306,390.728 456.306,389.728 455.5,388.5 Z"/></g>
<g><path style="opacity:0.098" fill="#859196" d="M 293.5,389.5 C 295.5,389.5 297.5,389.5 299.5,389.5C 296.727,390.657 293.727,391.324 290.5,391.5C 291.5,390.833 292.5,390.167 293.5,389.5 Z"/></g>
<g><path style="opacity:0.996" fill="#8d9faa" d="M 301.5,389.5 C 306.005,388.501 310.672,388.501 315.5,389.5C 317.769,391.445 320.436,392.779 323.5,393.5C 326.629,394.899 329.629,396.565 332.5,398.5C 331.833,398.5 331.167,398.5 330.5,398.5C 324.4,396.305 318.4,393.805 312.5,391C 308.855,390.281 305.188,389.781 301.5,389.5 Z"/></g>
<g><path style="opacity:1" fill="#adbdbe" d="M 455.5,391.5 C 456.5,391.5 457.5,391.5 458.5,391.5C 462.707,393.301 467.04,394.634 471.5,395.5C 467.154,395.666 462.821,395.499 458.5,395C 457.29,393.961 456.29,392.794 455.5,391.5 Z"/></g>
<g><path style="opacity:0.98" fill="#8395a0" d="M 203.5,395.5 C 206.809,400.461 211.476,402.794 217.5,402.5C 214.5,403.833 211.5,403.833 208.5,402.5C 208.027,401.094 207.027,400.427 205.5,400.5C 202.677,399.008 201.01,396.674 200.5,393.5C 200.369,392.761 200.536,392.094 201,391.5C 201.934,392.858 202.768,394.192 203.5,395.5 Z"/></g>
<g><path style="opacity:0.992" fill="#8a989f" d="M 458.5,391.5 C 459.5,391.5 460.5,391.5 461.5,391.5C 466.495,392.62 471.495,393.786 476.5,395C 481.967,398.977 482.967,403.81 479.5,409.5C 479.665,406.15 479.498,402.817 479,399.5C 477.117,396.976 474.617,395.642 471.5,395.5C 467.04,394.634 462.707,393.301 458.5,391.5 Z"/></g>
<g><path style="opacity:1" fill="#a1afb1" d="M 75.5,397.5 C 73.3926,398.468 71.0593,398.802 68.5,398.5C 67.5,398.5 66.5,398.5 65.5,398.5C 66.2495,396.754 67.5828,395.754 69.5,395.5C 71.516,396.178 73.516,396.844 75.5,397.5 Z"/></g>
<g><path style="opacity:1" fill="#a8b8b9" d="M 323.5,393.5 C 329.155,393.493 333.489,395.826 336.5,400.5C 335.833,400.5 335.167,400.5 334.5,400.5C 333.5,400.167 332.833,399.5 332.5,398.5C 329.629,396.565 326.629,394.899 323.5,393.5 Z"/></g>
<g><path style="opacity:0.439" fill="#879598" d="M 289.5,391.5 C 283.032,396.734 275.698,400.401 267.5,402.5C 272.054,399.355 277.054,396.855 282.5,395C 284.01,392.245 286.343,391.079 289.5,391.5 Z"/></g>
<g><path style="opacity:0.949" fill="#96b8d3" d="M 330.5,398.5 C 331.167,398.5 331.833,398.5 332.5,398.5C 332.833,399.5 333.5,400.167 334.5,400.5C 334.833,401.167 335.167,401.833 335.5,402.5C 333.251,401.92 331.585,400.587 330.5,398.5 Z"/></g>
<g><path style="opacity:1" fill="#869293" d="M 32.5,399.5 C 34.4044,399.738 35.7377,400.738 36.5,402.5C 34.5956,402.262 33.2623,401.262 32.5,399.5 Z"/></g>
<g><path style="opacity:0.608" fill="#9bc3e2" d="M 205.5,400.5 C 207.027,400.427 208.027,401.094 208.5,402.5C 206.973,402.573 205.973,401.906 205.5,400.5 Z"/></g>
<g><path style="opacity:0.035" fill="#818c90" d="M 267.5,402.5 C 265.898,404.074 263.898,404.741 261.5,404.5C 263.214,403.262 265.214,402.595 267.5,402.5 Z"/></g>
<g><path style="opacity:1" fill="#aababd" d="M 412.5,415.5 C 410.738,414.738 409.738,413.404 409.5,411.5C 410.67,406.185 408.67,404.685 403.5,407C 404.056,407.383 404.389,407.883 404.5,408.5C 404.5,408.833 404.5,409.167 404.5,409.5C 399.327,407.965 394.327,408.465 389.5,411C 386.316,413.752 382.982,416.252 379.5,418.5C 381.581,414.57 383.914,410.736 386.5,407C 394.443,405.556 402.443,404.722 410.5,404.5C 411.583,408.085 412.249,411.751 412.5,415.5 Z"/></g>
<g><path style="opacity:1" fill="#ced9d9" d="M 409.5,411.5 C 408.341,409.75 406.674,408.75 404.5,408.5C 404.389,407.883 404.056,407.383 403.5,407C 408.67,404.685 410.67,406.185 409.5,411.5 Z"/></g>
<g><path style="opacity:0.749" fill="#869499" d="M 65.5,398.5 C 66.5,398.5 67.5,398.5 68.5,398.5C 63.9026,402.142 58.9026,405.308 53.5,408C 50.1834,408.781 47.1834,408.281 44.5,406.5C 47.8499,406.665 51.1832,406.498 54.5,406C 58.3216,403.67 61.9883,401.17 65.5,398.5 Z"/></g>
<g><path style="opacity:0.745" fill="#8d9da9" d="M 404.5,409.5 C 404.5,409.167 404.5,408.833 404.5,408.5C 406.674,408.75 408.341,409.75 409.5,411.5C 407.716,411.107 406.05,410.441 404.5,409.5 Z"/></g>
<g><path style="opacity:1" fill="#8ea0ab" d="M 334.5,400.5 C 335.167,400.5 335.833,400.5 336.5,400.5C 340.99,405.248 346.324,408.748 352.5,411C 355.407,414.151 358.074,417.484 360.5,421C 362.432,422.459 364.432,423.625 366.5,424.5C 364.011,424.702 361.677,424.202 359.5,423C 355.833,419.333 352.167,415.667 348.5,412C 343.744,409.301 339.411,406.134 335.5,402.5C 335.167,401.833 334.833,401.167 334.5,400.5 Z"/></g>
<g><path style="opacity:0.357" fill="#8a9ba3" d="M 478.5,412.5 C 477.84,417.315 475.506,421.149 471.5,424C 461.093,425.132 451.76,428.798 443.5,435C 437.822,434.606 432.489,433.106 427.5,430.5C 432.532,430.668 437.366,431.668 442,433.5C 444.626,431.439 447.459,429.772 450.5,428.5C 454.998,427.005 459.332,425.338 463.5,423.5C 466.32,423.752 468.986,423.252 471.5,422C 473.976,418.855 476.31,415.688 478.5,412.5 Z"/></g>
<g><path style="opacity:0.125" fill="#85969e" d="M 415.5,421.5 C 419.47,424.491 423.47,427.491 427.5,430.5C 421.77,429.766 417.77,426.766 415.5,421.5 Z"/></g>
<g><path style="opacity:1" fill="#adbebe" d="M 463.5,423.5 C 459.332,425.338 454.998,427.005 450.5,428.5C 453.801,423.667 458.135,422 463.5,423.5 Z"/></g>
<g><path style="opacity:1" fill="#d4e0e0" d="M 250.5,433.5 C 251.581,435.764 252.915,437.931 254.5,440C 257.482,440.498 260.482,440.665 263.5,440.5C 267.23,441.968 269.563,444.635 270.5,448.5C 270.861,454.557 274.194,457.557 280.5,457.5C 283.427,458.757 285.761,460.757 287.5,463.5C 289.962,466.464 292.629,469.297 295.5,472C 297.881,472.738 299.881,472.238 301.5,470.5C 309.845,471.149 318.178,471.983 326.5,473C 331.286,476.118 335.786,479.618 340,483.5C 342.486,488.791 341.986,493.624 338.5,498C 332.762,500.295 326.762,501.128 320.5,500.5C 319.5,500.5 318.5,500.5 317.5,500.5C 313.135,496.874 308.468,496.541 303.5,499.5C 299.915,499.848 296.582,499.181 293.5,497.5C 291.142,494.764 288.142,493.93 284.5,495C 280.358,495.546 277.692,497.712 276.5,501.5C 273.076,505.377 268.743,507.377 263.5,507.5C 260.729,507.421 258.063,507.921 255.5,509C 255.833,509.333 256.167,509.667 256.5,510C 255.429,510.852 254.429,511.685 253.5,512.5C 252.926,511.472 252.593,510.472 252.5,509.5C 251.833,511.5 251.167,513.5 250.5,515.5C 246.395,516.389 242.729,518.055 239.5,520.5C 236.492,521.42 233.659,522.754 231,524.5C 230.503,527.146 230.336,529.813 230.5,532.5C 230.086,535.743 229.086,538.743 227.5,541.5C 227.5,542.167 227.167,542.5 226.5,542.5C 224.973,542.427 223.973,543.094 223.5,544.5C 221.486,544.392 219.82,545.058 218.5,546.5C 217.279,547.028 216.113,547.695 215,548.5C 214.263,552.87 213.43,557.204 212.5,561.5C 212.167,562.833 211.833,564.167 211.5,565.5C 205.319,567.252 198.986,567.919 192.5,567.5C 189.189,566.189 186.855,563.855 185.5,560.5C 185.334,555.156 185.501,549.823 186,544.5C 190.583,536.751 195.75,529.418 201.5,522.5C 204.397,519.931 207.73,518.264 211.5,517.5C 216.73,517.397 220.397,515.064 222.5,510.5C 225.161,507.498 228.495,505.498 232.5,504.5C 237.082,503.362 241.248,501.362 245,498.5C 246.275,494.178 247.442,489.844 248.5,485.5C 248.5,484.833 248.5,484.167 248.5,483.5C 249.687,481.26 250.354,478.76 250.5,476C 250.693,473.992 250.026,472.492 248.5,471.5C 242.535,466.036 236.702,460.37 231,454.5C 229.455,452.791 228.622,450.791 228.5,448.5C 230.986,440.833 235.32,434.333 241.5,429C 245.695,428.013 248.695,429.513 250.5,433.5 Z"/></g>
<g><path style="opacity:1" fill="#b2c1c1" d="M 250.5,433.5 C 252.517,434.529 254.517,435.529 256.5,436.5C 257.167,436.833 257.833,437.167 258.5,437.5C 260.072,438.687 261.739,439.687 263.5,440.5C 260.482,440.665 257.482,440.498 254.5,440C 252.915,437.931 251.581,435.764 250.5,433.5 Z"/></g>
<g><path style="opacity:0.478" fill="#9dc4e2" d="M 270.5,444.5 C 271.906,444.973 272.573,445.973 272.5,447.5C 271.094,447.027 270.427,446.027 270.5,444.5 Z"/></g>
<g><path style="opacity:0.341" fill="#899ba5" d="M 256.5,436.5 C 254.517,435.529 252.517,434.529 250.5,433.5C 248.695,429.513 245.695,428.013 241.5,429C 235.32,434.333 230.986,440.833 228.5,448.5C 228.622,450.791 229.455,452.791 231,454.5C 236.702,460.37 242.535,466.036 248.5,471.5C 248.5,475.5 248.5,479.5 248.5,483.5C 248.5,484.167 248.5,484.833 248.5,485.5C 246.588,487.657 244.921,489.991 243.5,492.5C 243.5,491.833 243.5,491.167 243.5,490.5C 246.411,485.191 247.577,479.524 247,473.5C 239.595,466.765 232.928,459.432 227,451.5C 227.975,442.135 232.142,434.302 239.5,428C 241.167,427.167 242.833,426.333 244.5,425.5C 249.146,428.48 253.146,432.147 256.5,436.5 Z"/></g>
<g><path style="opacity:1" fill="#afbfbf" d="M 270.5,448.5 C 273.374,451.949 276.707,454.949 280.5,457.5C 274.194,457.557 270.861,454.557 270.5,448.5 Z"/></g>
<g><path style="opacity:1" fill="#aebebf" d="M 287.5,463.5 C 291.577,466.872 296.244,469.205 301.5,470.5C 299.881,472.238 297.881,472.738 295.5,472C 292.629,469.297 289.962,466.464 287.5,463.5 Z"/></g>
<g><path style="opacity:0.992" fill="#899ba4" d="M 258.5,437.5 C 264.082,437.286 268.082,439.619 270.5,444.5C 270.427,446.027 271.094,447.027 272.5,447.5C 279.587,452.729 286.253,458.562 292.5,465C 294.5,466 296.5,467 298.5,468C 308.192,468.753 317.858,469.753 327.5,471C 332.588,474.083 337.088,477.917 341,482.5C 342.555,487.382 342.888,492.382 342,497.5C 340.421,499.041 338.587,500.208 336.5,501C 330.984,501.817 325.65,501.651 320.5,500.5C 326.762,501.128 332.762,500.295 338.5,498C 341.986,493.624 342.486,488.791 340,483.5C 335.786,479.618 331.286,476.118 326.5,473C 318.178,471.983 309.845,471.149 301.5,470.5C 296.244,469.205 291.577,466.872 287.5,463.5C 285.761,460.757 283.427,458.757 280.5,457.5C 276.707,454.949 273.374,451.949 270.5,448.5C 269.563,444.635 267.23,441.968 263.5,440.5C 261.739,439.687 260.072,438.687 258.5,437.5 Z"/></g>
<g><path style="opacity:1" fill="#acbcbd" d="M 248.5,471.5 C 250.026,472.492 250.693,473.992 250.5,476C 250.354,478.76 249.687,481.26 248.5,483.5C 248.5,479.5 248.5,475.5 248.5,471.5 Z"/></g>
<g><path style="opacity:0.49" fill="#a0cbed" d="M 243.5,490.5 C 243.5,491.167 243.5,491.833 243.5,492.5C 242.833,492.833 242.167,493.167 241.5,493.5C 241.427,491.973 242.094,490.973 243.5,490.5 Z"/></g>
<g><path style="opacity:0.506" fill="#9fc9ea" d="M 241.5,493.5 C 241.573,495.027 240.906,496.027 239.5,496.5C 239.427,494.973 240.094,493.973 241.5,493.5 Z"/></g>
<g><path style="opacity:1" fill="#9eadb0" d="M 293.5,497.5 C 292.5,497.5 291.5,497.5 290.5,497.5C 285.154,496.678 280.82,498.345 277.5,502.5C 277.5,501.833 277.167,501.5 276.5,501.5C 277.692,497.712 280.358,495.546 284.5,495C 288.142,493.93 291.142,494.764 293.5,497.5 Z"/></g>
<g><path style="opacity:1" fill="#95a5ab" d="M 317.5,500.5 C 313.81,500.617 309.81,500.617 305.5,500.5C 305.158,499.662 304.492,499.328 303.5,499.5C 308.468,496.541 313.135,496.874 317.5,500.5 Z"/></g>
<g><path style="opacity:1" fill="#b0bfc1" d="M 248.5,485.5 C 247.442,489.844 246.275,494.178 245,498.5C 241.248,501.362 237.082,503.362 232.5,504.5C 233.973,502.605 235.64,500.939 237.5,499.5C 237.427,497.973 238.094,496.973 239.5,496.5C 240.906,496.027 241.573,495.027 241.5,493.5C 242.167,493.167 242.833,492.833 243.5,492.5C 244.921,489.991 246.588,487.657 248.5,485.5 Z"/></g>
<g><path style="opacity:0.992" fill="#7c898f" d="M 290.5,497.5 C 291.5,497.5 292.5,497.5 293.5,497.5C 296.582,499.181 299.915,499.848 303.5,499.5C 304.492,499.328 305.158,499.662 305.5,500.5C 301.486,500.666 297.486,500.499 293.5,500C 292.058,499.623 291.058,498.79 290.5,497.5 Z"/></g>
<g><path style="opacity:1" fill="#889aa4" d="M 237.5,499.5 C 235.64,500.939 233.973,502.605 232.5,504.5C 228.495,505.498 225.161,507.498 222.5,510.5C 221.518,511.141 220.518,511.807 219.5,512.5C 218.537,512.03 218.537,511.363 219.5,510.5C 224.824,505.833 230.824,502.166 237.5,499.5 Z"/></g>
<g><path style="opacity:1" fill="#9eafb3" d="M 263.5,507.5 C 261.58,508.065 259.913,509.065 258.5,510.5C 257.22,511.931 255.553,512.598 253.5,512.5C 254.429,511.685 255.429,510.852 256.5,510C 256.167,509.667 255.833,509.333 255.5,509C 258.063,507.921 260.729,507.421 263.5,507.5 Z"/></g>
<g><path style="opacity:0.373" fill="#828f93" d="M 276.5,501.5 C 277.167,501.5 277.5,501.833 277.5,502.5C 276.106,504.708 274.106,506.208 271.5,507C 267.192,508.327 262.859,509.493 258.5,510.5C 259.913,509.065 261.58,508.065 263.5,507.5C 268.743,507.377 273.076,505.377 276.5,501.5 Z"/></g>
<g><path style="opacity:0.996" fill="#9eb2bc" d="M 219.5,510.5 C 218.537,511.363 218.537,512.03 219.5,512.5C 220.518,511.807 221.518,511.141 222.5,510.5C 220.397,515.064 216.73,517.397 211.5,517.5C 213.031,516.075 212.698,515.409 210.5,515.5C 213.331,513.583 216.331,511.917 219.5,510.5 Z"/></g>
<g><path style="opacity:0.835" fill="#8f9fa5" d="M 253.5,512.5 C 253.703,514.39 253.037,515.89 251.5,517C 246.83,518.668 242.497,520.835 238.5,523.5C 238.557,522.391 238.89,521.391 239.5,520.5C 242.729,518.055 246.395,516.389 250.5,515.5C 251.167,513.5 251.833,511.5 252.5,509.5C 252.593,510.472 252.926,511.472 253.5,512.5 Z"/></g>
<g><path style="opacity:0.976" fill="#8b9ca3" d="M 210.5,515.5 C 212.698,515.409 213.031,516.075 211.5,517.5C 207.73,518.264 204.397,519.931 201.5,522.5C 195.75,529.418 190.583,536.751 186,544.5C 185.501,549.823 185.334,555.156 185.5,560.5C 184.835,557.686 184.502,554.686 184.5,551.5C 186.384,538.579 192.384,527.746 202.5,519C 205.267,517.917 207.933,516.75 210.5,515.5 Z"/></g>
<g><path style="opacity:1" fill="#a1b3b9" d="M 239.5,520.5 C 238.89,521.391 238.557,522.391 238.5,523.5C 237.167,525.5 235.5,527.167 233.5,528.5C 233.539,527.417 233.873,526.417 234.5,525.5C 233.998,524.479 233.332,524.312 232.5,525C 231.199,526.616 231.199,528.116 232.5,529.5C 232.068,530.71 231.401,531.71 230.5,532.5C 230.336,529.813 230.503,527.146 231,524.5C 233.659,522.754 236.492,521.42 239.5,520.5 Z"/></g>
<g><path style="opacity:1" fill="#ced9d9" d="M 233.5,528.5 C 232.833,528.5 232.5,528.833 232.5,529.5C 231.199,528.116 231.199,526.616 232.5,525C 233.332,524.312 233.998,524.479 234.5,525.5C 233.873,526.417 233.539,527.417 233.5,528.5 Z"/></g>
<g><path style="opacity:0.98" fill="#84939a" d="M 233.5,528.5 C 232.644,532.57 231.477,536.57 230,540.5C 229.329,541.252 228.496,541.586 227.5,541.5C 229.086,538.743 230.086,535.743 230.5,532.5C 231.401,531.71 232.068,530.71 232.5,529.5C 232.5,528.833 232.833,528.5 233.5,528.5 Z"/></g>
<g><path style="opacity:0.008" fill="#818c8e" d="M 226.5,542.5 C 226.027,543.906 225.027,544.573 223.5,544.5C 223.973,543.094 224.973,542.427 226.5,542.5 Z"/></g>
<g><path style="opacity:1" fill="#b2c1c1" d="M 218.5,546.5 C 218.804,547.15 219.137,547.817 219.5,548.5C 217.962,550.243 216.962,552.243 216.5,554.5C 214.9,556.703 213.567,559.036 212.5,561.5C 213.43,557.204 214.263,552.87 215,548.5C 216.113,547.695 217.279,547.028 218.5,546.5 Z"/></g>
<g><path style="opacity:0.341" fill="#92a7b3" d="M 223.5,544.5 C 221.656,548.192 219.323,551.525 216.5,554.5C 216.962,552.243 217.962,550.243 219.5,548.5C 219.137,547.817 218.804,547.15 218.5,546.5C 219.82,545.058 221.486,544.392 223.5,544.5 Z"/></g>
<g><path style="opacity:0.706" fill="#8596a1" d="M 216.5,554.5 C 216.47,559.022 214.803,562.689 211.5,565.5C 211.833,564.167 212.167,562.833 212.5,561.5C 213.567,559.036 214.9,556.703 216.5,554.5 Z"/></g>
<g><path style="opacity:0.565" fill="#8b989b" d="M 211.5,565.5 C 211.047,566.458 210.381,567.292 209.5,568C 203.651,568.818 197.985,568.652 192.5,567.5C 198.986,567.919 205.319,567.252 211.5,565.5 Z"/></g>
</svg>
