<?xml version="1.0" encoding="UTF-8"?>
<!DOCTYPE svg PUBLIC "-//W3C//DTD SVG 1.1//EN" "http://www.w3.org/Graphics/SVG/1.1/DTD/svg11.dtd">
<svg xmlns="http://www.w3.org/2000/svg" version="1.1" width="582px" height="411px" style="shape-rendering:geometricPrecision; text-rendering:geometricPrecision; image-rendering:optimizeQuality; fill-rule:evenodd; clip-rule:evenodd" xmlns:xlink="http://www.w3.org/1999/xlink">
<g><path style="opacity:1" fill="#d2d6e7" d="M 234.5,16.5 C 242.735,25.3119 250.735,34.3119 258.5,43.5C 261.79,49.0869 265.79,54.0869 270.5,58.5C 272.044,63.3627 275.378,65.3627 280.5,64.5C 282.5,64.3333 284.5,64.1667 286.5,64C 290.046,60.1182 293.879,56.6182 298,53.5C 302.249,54.2346 306.415,55.2346 310.5,56.5C 312.292,56.366 313.958,56.6993 315.5,57.5C 321.868,58.7846 328.201,60.2846 334.5,62C 341.843,62.5564 349.177,63.2231 356.5,64C 363.921,64.7794 371.255,64.2794 378.5,62.5C 382.521,63.0374 386.521,63.7041 390.5,64.5C 391.726,64.4805 392.726,64.1471 393.5,63.5C 397.462,55.4706 400.962,47.1373 404,38.5C 404.519,37.4844 405.353,36.8178 406.5,36.5C 415.183,40.1762 423.85,43.8429 432.5,47.5C 435.83,49.4094 437.164,52.4094 436.5,56.5C 445.103,58.4839 453.77,60.1506 462.5,61.5C 472.339,60.3312 482.006,58.3312 491.5,55.5C 492.192,54.9747 492.692,54.3081 493,53.5C 493.984,43.5069 494.818,33.5069 495.5,23.5C 506.216,23.5989 516.883,24.2656 527.5,25.5C 533.367,25.0671 538.534,26.7338 543,30.5C 542.824,38.5783 543.991,46.4116 546.5,54C 544.962,57.7216 544.462,61.5549 545,65.5C 550.667,73.1667 556.333,80.8333 562,88.5C 568.41,89.4777 574.91,89.811 581.5,89.5C 581.5,94.1667 581.5,98.8333 581.5,103.5C 578.108,109.28 574.941,115.28 572,121.5C 568.41,124.046 564.577,126.213 560.5,128C 555.654,132.175 553.487,137.342 554,143.5C 554.383,144.056 554.883,144.389 555.5,144.5C 559.266,150.776 563.266,156.943 567.5,163C 565.589,169.478 563.756,175.978 562,182.5C 556.333,186.5 550.667,190.5 545,194.5C 546.375,201.784 548.875,208.784 552.5,215.5C 546.181,222.319 539.681,228.986 533,235.5C 532.333,236.833 532.333,238.167 533,239.5C 535.634,243.935 538.134,248.435 540.5,253C 539.876,255.085 538.876,256.918 537.5,258.5C 530.668,261.412 524.334,265.079 518.5,269.5C 517.842,270.793 517.508,272.293 517.5,274C 518.497,281.476 519.164,288.976 519.5,296.5C 518.5,296.5 517.5,296.5 516.5,296.5C 509.897,297.659 503.23,298.492 496.5,299C 495.361,300.78 494.361,302.614 493.5,304.5C 491.559,307.459 489.559,310.459 487.5,313.5C 480.872,310.902 474.205,308.402 467.5,306C 465.862,303.867 465.029,301.367 465,298.5C 460.978,293.979 457.144,289.312 453.5,284.5C 444.853,283.335 436.186,283.168 427.5,284C 426.5,285 425.5,286 424.5,287C 414.549,289.152 404.549,290.985 394.5,292.5C 393.178,292.33 392.011,292.663 391,293.5C 390.501,297.152 390.335,300.818 390.5,304.5C 389.494,309.662 388.661,314.995 388,320.5C 387.25,321.126 386.416,321.626 385.5,322C 377.5,322.667 369.5,322.667 361.5,322C 354.998,318.25 348.665,314.25 342.5,310C 334.742,308.107 327.076,308.607 319.5,311.5C 318.627,313.413 317.627,315.247 316.5,317C 305.487,318.077 294.487,319.244 283.5,320.5C 282.833,321.833 282.167,323.167 281.5,324.5C 268.006,325.167 254.673,325.833 241.5,326.5C 241.179,332.026 241.512,337.36 242.5,342.5C 245.524,353.074 248.858,363.574 252.5,374C 251.056,376.449 249.222,378.615 247,380.5C 246.501,384.821 246.334,389.154 246.5,393.5C 246.365,399.181 246.032,404.848 245.5,410.5C 242.167,410.5 238.833,410.5 235.5,410.5C 228.683,407.33 221.683,404.33 214.5,401.5C 213.148,397.392 211.815,393.392 210.5,389.5C 207.219,389.42 204.219,390.087 201.5,391.5C 200.209,391.263 199.209,391.596 198.5,392.5C 195.933,392.721 193.599,393.388 191.5,394.5C 190.209,394.263 189.209,394.596 188.5,395.5C 185.933,395.855 183.433,396.521 181,397.5C 177.054,392.453 173.221,387.287 169.5,382C 167.167,381.333 164.833,381.333 162.5,382C 155.392,385.304 148.225,388.471 141,391.5C 136.225,388.396 131.725,384.896 127.5,381C 122.249,380.886 117.249,379.719 112.5,377.5C 109.005,368.849 106.005,360.015 103.5,351C 106.585,341.737 108.085,332.237 108,322.5C 105,320.5 102,318.5 99,316.5C 94.6075,306.048 89.9409,295.715 85,285.5C 82.023,283.394 78.6896,282.061 75,281.5C 70.8035,283.354 66.9702,285.854 63.5,289C 58.8731,288.442 54.7065,286.608 51,283.5C 45.5633,273.736 39.73,264.236 33.5,255C 31.0946,254.852 28.7613,255.352 26.5,256.5C 24.8129,256.24 23.3129,255.573 22,254.5C 21.331,242.472 20.331,230.472 19,218.5C 16.1655,209.161 13.3322,199.828 10.5,190.5C 13.5203,187.484 16.8536,184.817 20.5,182.5C 23.4271,183.801 26.4271,184.801 29.5,185.5C 37.8032,189.986 46.1365,194.486 54.5,199C 68.206,199.454 81.5393,197.454 94.5,193C 101.278,187.856 107.778,182.356 114,176.5C 114.765,174.934 114.598,173.601 113.5,172.5C 113.167,172.5 112.833,172.5 112.5,172.5C 111.596,171.791 111.263,170.791 111.5,169.5C 112.222,169.918 112.722,170.584 113,171.5C 113.339,169.166 113.172,166.832 112.5,164.5C 114.167,157.167 115.833,149.833 117.5,142.5C 115.053,136.866 111.553,131.866 107,127.5C 106.51,126.207 106.343,124.873 106.5,123.5C 107.331,116.183 107.998,108.849 108.5,101.5C 102.835,102.336 97.1678,102.836 91.5,103C 87.612,100.228 83.612,97.7279 79.5,95.5C 75.9754,94.2411 72.9754,92.2411 70.5,89.5C 70.0472,88.5416 69.3805,87.7083 68.5,87C 75.5,80 82.5,73 89.5,66C 94.0743,66.9687 98.741,67.302 103.5,67C 105.167,65.3333 106.833,63.6667 108.5,62C 117.432,59.6782 126.432,57.6782 135.5,56C 140.5,51 145.5,46 150.5,41C 159.833,39 169.167,37 178.5,35C 181.082,33.6668 183.749,32.5002 186.5,31.5C 188.12,28.5963 189.453,25.5963 190.5,22.5C 196.402,16.8701 203.069,12.2035 210.5,8.5C 218.596,10.9766 226.596,13.6433 234.5,16.5 Z"/></g>
<g><path style="opacity:0.796" fill="#afb0c1" d="M 236.5,15.5 C 235.508,15.3284 234.842,15.6618 234.5,16.5C 226.596,13.6433 218.596,10.9766 210.5,8.5C 203.069,12.2035 196.402,16.8701 190.5,22.5C 189.833,22.8333 189.167,23.1667 188.5,23.5C 188.84,21.321 189.84,19.4877 191.5,18C 197.44,13.711 203.607,9.87765 210,6.5C 219.104,9.03388 227.937,12.0339 236.5,15.5 Z"/></g>
<g><path style="opacity:0.008" fill="#b278ad" d="M 537.5,24.5 C 539.027,24.427 540.027,25.0937 540.5,26.5C 538.973,26.573 537.973,25.9063 537.5,24.5 Z"/></g>
<g><path style="opacity:1" fill="#abafc4" d="M 190.5,22.5 C 189.453,25.5963 188.12,28.5963 186.5,31.5C 183.749,32.5002 181.082,33.6668 178.5,35C 169.167,37 159.833,39 150.5,41C 145.5,46 140.5,51 135.5,56C 126.432,57.6782 117.432,59.6782 108.5,62C 106.833,63.6667 105.167,65.3333 103.5,67C 98.741,67.302 94.0743,66.9687 89.5,66C 82.5,73 75.5,80 68.5,87C 69.3805,87.7083 70.0472,88.5416 70.5,89.5C 67.9986,89.1744 66.8319,87.8411 67,85.5C 74.1667,78.3333 81.3333,71.1667 88.5,64C 92.2577,63.6873 95.9243,64.1873 99.5,65.5C 100.251,66.5735 101.251,66.7401 102.5,66C 104.799,63.1833 107.465,61.0167 110.5,59.5C 118.257,57.2321 126.257,55.5654 134.5,54.5C 140.251,48.7405 146.251,43.4072 152.5,38.5C 161.351,36.1968 170.351,34.5302 179.5,33.5C 179.5,32.5 179.5,31.5 179.5,30.5C 181.5,30.5 183.5,30.5 185.5,30.5C 185.707,27.7594 186.707,25.4261 188.5,23.5C 189.167,23.1667 189.833,22.8333 190.5,22.5 Z"/></g>
<g><path style="opacity:0.498" fill="#a8a2c3" d="M 234.5,16.5 C 234.842,15.6618 235.508,15.3284 236.5,15.5C 244.179,23.8483 251.513,32.5149 258.5,41.5C 258.5,42.1667 258.5,42.8333 258.5,43.5C 250.735,34.3119 242.735,25.3119 234.5,16.5 Z"/></g>
<g><path style="opacity:1" fill="#ab9cc0" d="M 435.5,47.5 C 434.5,47.5 433.5,47.5 432.5,47.5C 423.85,43.8429 415.183,40.1762 406.5,36.5C 405.353,36.8178 404.519,37.4844 404,38.5C 400.962,47.1373 397.462,55.4706 393.5,63.5C 392.209,63.7373 391.209,63.404 390.5,62.5C 391.497,62.5299 392.164,62.0299 392.5,61C 396.069,52.1262 399.736,43.2929 403.5,34.5C 404.167,34.1667 404.833,33.8333 405.5,33.5C 415.826,37.6657 425.826,42.3324 435.5,47.5 Z"/></g>
<g><path style="opacity:0.976" fill="#c5bbae" d="M 152.5,38.5 C 146.251,43.4072 140.251,48.7405 134.5,54.5C 138.567,48.9254 143.234,43.7587 148.5,39C 149.793,38.51 151.127,38.3433 152.5,38.5 Z"/></g>
<g><path style="opacity:0.688" fill="#b276ad" d="M 492.5,37.5 C 492.24,43.172 491.907,48.8387 491.5,54.5C 488.873,55.0916 486.206,55.4249 483.5,55.5C 485.515,54.0762 487.848,53.4095 490.5,53.5C 490.527,47.9494 491.194,42.6161 492.5,37.5 Z"/></g>
<g><path style="opacity:0.994" fill="#ad97bd" d="M 258.5,41.5 C 264.539,48.2049 270.206,55.2049 275.5,62.5C 273.833,61.1667 272.167,59.8333 270.5,58.5C 265.79,54.0869 261.79,49.0869 258.5,43.5C 258.5,42.8333 258.5,42.1667 258.5,41.5 Z"/></g>
<g><path style="opacity:1" fill="#a99fc1" d="M 306.5,53.5 C 308.219,54.0221 309.552,55.0221 310.5,56.5C 306.415,55.2346 302.249,54.2346 298,53.5C 293.879,56.6182 290.046,60.1182 286.5,64C 284.5,64.1667 282.5,64.3333 280.5,64.5C 275.378,65.3627 272.044,63.3627 270.5,58.5C 272.167,59.8333 273.833,61.1667 275.5,62.5C 278.85,62.665 282.183,62.4983 285.5,62C 288.833,58.6667 292.167,55.3333 295.5,52C 299.417,51.4334 303.083,51.9334 306.5,53.5 Z"/></g>
<g><path style="opacity:1" fill="#b08cb8" d="M 306.5,53.5 C 313.053,54.3427 319.386,55.676 325.5,57.5C 321.965,56.9883 318.632,56.9883 315.5,57.5C 313.958,56.6993 312.292,56.366 310.5,56.5C 309.552,55.0221 308.219,54.0221 306.5,53.5 Z"/></g>
<g><path style="opacity:1" fill="#a8a1c2" d="M 537.5,24.5 C 533.958,24.1872 530.625,24.5206 527.5,25.5C 516.883,24.2656 506.216,23.5989 495.5,23.5C 494.818,33.5069 493.984,43.5069 493,53.5C 492.692,54.3081 492.192,54.9747 491.5,55.5C 482.006,58.3312 472.339,60.3312 462.5,61.5C 453.77,60.1506 445.103,58.4839 436.5,56.5C 437.164,52.4094 435.83,49.4094 432.5,47.5C 433.5,47.5 434.5,47.5 435.5,47.5C 437.344,49.2789 438.01,51.6122 437.5,54.5C 446.223,56.1804 454.89,58.1804 463.5,60.5C 466.42,59.4144 469.42,58.7477 472.5,58.5C 476.479,58.2576 480.146,57.2576 483.5,55.5C 486.206,55.4249 488.873,55.0916 491.5,54.5C 491.907,48.8387 492.24,43.172 492.5,37.5C 492.833,32.1667 493.167,26.8333 493.5,21.5C 508.364,21.8018 523.031,22.8018 537.5,24.5 Z"/></g>
<g><path style="opacity:0.988" fill="#b582b3" d="M 483.5,55.5 C 480.146,57.2576 476.479,58.2576 472.5,58.5C 475.854,56.7424 479.521,55.7424 483.5,55.5 Z"/></g>
<g><path style="opacity:0.524" fill="#b379ae" d="M 325.5,57.5 C 330.709,58.058 335.709,59.058 340.5,60.5C 335.106,60.8758 330.106,59.8758 325.5,57.5 Z"/></g>
<g><path style="opacity:1" fill="#a7a3c3" d="M 315.5,57.5 C 318.632,56.9883 321.965,56.9883 325.5,57.5C 330.106,59.8758 335.106,60.8758 340.5,60.5C 353.005,63.0746 365.505,63.0746 378,60.5C 382.082,61.6199 386.248,62.2866 390.5,62.5C 391.209,63.404 392.209,63.7373 393.5,63.5C 392.726,64.1471 391.726,64.4805 390.5,64.5C 386.521,63.7041 382.521,63.0374 378.5,62.5C 371.255,64.2794 363.921,64.7794 356.5,64C 349.177,63.2231 341.843,62.5564 334.5,62C 328.201,60.2846 321.868,58.7846 315.5,57.5 Z"/></g>
<g><path style="opacity:0.855" fill="#c6bbad" d="M 110.5,59.5 C 107.465,61.0167 104.799,63.1833 102.5,66C 101.251,66.7401 100.251,66.5735 99.5,65.5C 102.225,64.287 104.559,62.4536 106.5,60C 107.793,59.51 109.127,59.3433 110.5,59.5 Z"/></g>
<g><path style="opacity:0.5" fill="#a8adc7" d="M 527.5,25.5 C 530.625,24.5206 533.958,24.1872 537.5,24.5C 537.973,25.9063 538.973,26.573 540.5,26.5C 542.129,27.6253 543.629,28.9586 545,30.5C 544.868,38.4066 546.035,46.0733 548.5,53.5C 547.654,56.6976 546.654,59.8643 545.5,63C 550.794,71.0813 556.461,78.9147 562.5,86.5C 568.798,87.4963 575.132,87.8297 581.5,87.5C 581.5,88.1667 581.5,88.8333 581.5,89.5C 574.91,89.811 568.41,89.4777 562,88.5C 556.333,80.8333 550.667,73.1667 545,65.5C 544.462,61.5549 544.962,57.7216 546.5,54C 543.991,46.4116 542.824,38.5783 543,30.5C 538.534,26.7338 533.367,25.0671 527.5,25.5 Z"/></g>
<g><path style="opacity:1" fill="#a4acc4" d="M 79.5,95.5 C 83.612,97.7279 87.612,100.228 91.5,103C 97.1678,102.836 102.835,102.336 108.5,101.5C 107.998,108.849 107.331,116.183 106.5,123.5C 105.549,122.081 105.216,120.415 105.5,118.5C 105.423,114.785 105.756,111.119 106.5,107.5C 107.451,106.081 107.784,104.415 107.5,102.5C 105.901,102.232 104.568,102.566 103.5,103.5C 99.204,104.463 94.8706,104.629 90.5,104C 86.4031,101.63 82.7365,98.7971 79.5,95.5 Z"/></g>
<g><path style="opacity:0.157" fill="#b7cbb4" d="M 103.5,103.5 C 104.568,102.566 105.901,102.232 107.5,102.5C 107.784,104.415 107.451,106.081 106.5,107.5C 106.5,106.167 106.5,104.833 106.5,103.5C 105.5,103.5 104.5,103.5 103.5,103.5 Z"/></g>
<g><path style="opacity:1" fill="#b2aebd" d="M 581.5,103.5 C 581.5,105.167 581.5,106.833 581.5,108.5C 578.694,113.437 575.861,118.437 573,123.5C 567.656,126.337 562.656,129.671 558,133.5C 556.851,135.99 555.684,138.49 554.5,141C 554.989,142.138 555.322,143.305 555.5,144.5C 554.883,144.389 554.383,144.056 554,143.5C 553.487,137.342 555.654,132.175 560.5,128C 564.577,126.213 568.41,124.046 572,121.5C 574.941,115.28 578.108,109.28 581.5,103.5 Z"/></g>
<g><path style="opacity:1" fill="#abb5c2" d="M 105.5,118.5 C 105.216,120.415 105.549,122.081 106.5,123.5C 106.343,124.873 106.51,126.207 107,127.5C 111.553,131.866 115.053,136.866 117.5,142.5C 115.833,149.833 114.167,157.167 112.5,164.5C 113.172,166.832 113.339,169.166 113,171.5C 112.722,170.584 112.222,169.918 111.5,169.5C 110.366,167.034 110.199,164.367 111,161.5C 113.147,154.594 114.48,147.594 115,140.5C 111.667,136.5 108.333,132.5 105,128.5C 104.192,124.973 104.359,121.64 105.5,118.5 Z"/></g>
<g><path style="opacity:0.749" fill="#b4ccad" d="M 112.5,172.5 C 112.833,172.5 113.167,172.5 113.5,172.5C 113.256,175.263 111.923,177.429 109.5,179C 103.604,183.741 97.6045,188.241 91.5,192.5C 96.681,187.157 102.348,182.323 108.5,178C 110.464,176.549 111.797,174.716 112.5,172.5 Z"/></g>
<g><path style="opacity:0.004" fill="#d1baab" d="M 565.5,177.5 C 565.455,184.213 562.122,188.213 555.5,189.5C 557.812,187.364 560.312,185.364 563,183.5C 563.566,181.277 564.4,179.277 565.5,177.5 Z"/></g>
<g><path style="opacity:1" fill="#a9b1c8" d="M 113.5,172.5 C 114.598,173.601 114.765,174.934 114,176.5C 107.778,182.356 101.278,187.856 94.5,193C 81.5393,197.454 68.206,199.454 54.5,199C 46.1365,194.486 37.8032,189.986 29.5,185.5C 39.4777,188.907 48.9777,193.241 58,198.5C 62.1246,197.508 66.2913,196.841 70.5,196.5C 76.142,196.504 81.4753,195.504 86.5,193.5C 87.9187,192.549 89.5853,192.216 91.5,192.5C 97.6045,188.241 103.604,183.741 109.5,179C 111.923,177.429 113.256,175.263 113.5,172.5 Z"/></g>
<g><path style="opacity:0.344" fill="#b4ccaa" d="M 86.5,193.5 C 81.4753,195.504 76.142,196.504 70.5,196.5C 75.5719,194.754 80.9053,193.754 86.5,193.5 Z"/></g>
<g><path style="opacity:0.784" fill="#adaec3" d="M 555.5,144.5 C 560.219,149.577 564.719,154.91 569,160.5C 569.239,166.531 568.072,172.198 565.5,177.5C 564.4,179.277 563.566,181.277 563,183.5C 560.312,185.364 557.812,187.364 555.5,189.5C 552.349,191.583 549.349,193.916 546.5,196.5C 548.569,201.873 550.736,207.207 553,212.5C 553.667,214.167 553.667,215.833 553,217.5C 546.601,223.977 540.434,230.643 534.5,237.5C 536.667,241.833 538.833,246.167 541,250.5C 541.703,253.482 541.203,256.149 539.5,258.5C 538.833,258.5 538.167,258.5 537.5,258.5C 538.876,256.918 539.876,255.085 540.5,253C 538.134,248.435 535.634,243.935 533,239.5C 532.333,238.167 532.333,236.833 533,235.5C 539.681,228.986 546.181,222.319 552.5,215.5C 548.875,208.784 546.375,201.784 545,194.5C 550.667,190.5 556.333,186.5 562,182.5C 563.756,175.978 565.589,169.478 567.5,163C 563.266,156.943 559.266,150.776 555.5,144.5 Z"/></g>
<g><path style="opacity:0.969" fill="#b2b0ba" d="M 537.5,258.5 C 538.167,258.5 538.833,258.5 539.5,258.5C 533.563,262.81 527.23,266.643 520.5,270C 519.62,271.356 519.286,272.856 519.5,274.5C 518.549,273.081 518.216,271.415 518.5,269.5C 524.334,265.079 530.668,261.412 537.5,258.5 Z"/></g>
<g><path style="opacity:1" fill="#aeaabe" d="M 493.5,304.5 C 493.5,305.5 493.5,306.5 493.5,307.5C 492.176,310.526 490.176,312.859 487.5,314.5C 479.875,311.958 472.208,309.624 464.5,307.5C 464.664,304.813 464.497,302.146 464,299.5C 460.264,295.687 456.764,291.687 453.5,287.5C 444.853,286.335 436.186,286.168 427.5,287C 426.956,287.717 426.289,288.217 425.5,288.5C 416.615,289.678 407.948,291.345 399.5,293.5C 399.167,293.5 398.833,293.5 398.5,293.5C 396.901,293.768 395.568,293.434 394.5,292.5C 404.549,290.985 414.549,289.152 424.5,287C 425.5,286 426.5,285 427.5,284C 436.186,283.168 444.853,283.335 453.5,284.5C 457.144,289.312 460.978,293.979 465,298.5C 465.029,301.367 465.862,303.867 467.5,306C 474.205,308.402 480.872,310.902 487.5,313.5C 489.559,310.459 491.559,307.459 493.5,304.5 Z"/></g>
<g><path style="opacity:0.992" fill="#a8abc0" d="M 518.5,269.5 C 518.216,271.415 518.549,273.081 519.5,274.5C 520.46,282.139 521.126,289.805 521.5,297.5C 519.585,297.784 517.919,297.451 516.5,296.5C 517.5,296.5 518.5,296.5 519.5,296.5C 519.164,288.976 518.497,281.476 517.5,274C 517.508,272.293 517.842,270.793 518.5,269.5 Z"/></g>
<g><path style="opacity:0.533" fill="#d2a48c" d="M 425.5,288.5 C 425.082,289.222 424.416,289.722 423.5,290C 415.537,291.494 407.537,292.661 399.5,293.5C 407.948,291.345 416.615,289.678 425.5,288.5 Z"/></g>
<g><path style="opacity:0.945" fill="#bcaaaf" d="M 394.5,292.5 C 395.568,293.434 396.901,293.768 398.5,293.5C 396.735,294.461 394.735,294.795 392.5,294.5C 392.477,300.712 391.81,306.712 390.5,312.5C 390.5,309.833 390.5,307.167 390.5,304.5C 390.335,300.818 390.501,297.152 391,293.5C 392.011,292.663 393.178,292.33 394.5,292.5 Z"/></g>
<g><path style="opacity:1" fill="#aab4c2" d="M 29.5,185.5 C 26.4271,184.801 23.4271,183.801 20.5,182.5C 16.8536,184.817 13.5203,187.484 10.5,190.5C 13.3322,199.828 16.1655,209.161 19,218.5C 20.331,230.472 21.331,242.472 22,254.5C 23.3129,255.573 24.8129,256.24 26.5,256.5C 28.7613,255.352 31.0946,254.852 33.5,255C 39.73,264.236 45.5633,273.736 51,283.5C 54.7065,286.608 58.8731,288.442 63.5,289C 66.9702,285.854 70.8035,283.354 75,281.5C 78.6896,282.061 82.023,283.394 85,285.5C 89.9409,295.715 94.6075,306.048 99,316.5C 102,318.5 105,320.5 108,322.5C 108.085,332.237 106.585,341.737 103.5,351C 106.005,360.015 109.005,368.849 112.5,377.5C 117.249,379.719 122.249,380.886 127.5,381C 131.725,384.896 136.225,388.396 141,391.5C 148.225,388.471 155.392,385.304 162.5,382C 164.833,381.333 167.167,381.333 169.5,382C 173.221,387.287 177.054,392.453 181,397.5C 183.433,396.521 185.933,395.855 188.5,395.5C 188.938,395.435 189.272,395.601 189.5,396C 188.584,396.278 187.918,396.778 187.5,397.5C 184.848,397.41 182.515,398.076 180.5,399.5C 175.857,393.853 171.19,388.186 166.5,382.5C 158.162,386.587 149.662,390.253 141,393.5C 140.167,393.333 139.333,393.167 138.5,393C 134.5,389.333 130.5,385.667 126.5,382C 121.047,381.637 115.714,380.637 110.5,379C 106.797,369.723 103.797,360.223 101.5,350.5C 104.166,344.195 105.833,337.528 106.5,330.5C 106.433,328.599 106.767,326.766 107.5,325C 104.45,322.72 101.283,320.553 98,318.5C 92.5988,307.702 87.7654,296.702 83.5,285.5C 80.7965,285.045 78.1298,284.378 75.5,283.5C 70.8983,285.717 66.3983,288.05 62,290.5C 57.2051,289.459 52.8718,287.459 49,284.5C 43.8773,275.085 38.3773,265.918 32.5,257C 28.2059,258.007 24.0393,257.507 20,255.5C 19,243.167 18,230.833 17,218.5C 13.3861,208.716 11.0528,198.716 10,188.5C 13.6524,184.255 18.1524,182.088 23.5,182C 25.7274,182.941 27.7274,184.108 29.5,185.5 Z"/></g>
<g><path style="opacity:1" fill="#b1b1be" d="M 516.5,296.5 C 517.919,297.451 519.585,297.784 521.5,297.5C 513.636,298.822 505.636,300.155 497.5,301.5C 496.5,303.813 495.166,305.813 493.5,307.5C 493.5,306.5 493.5,305.5 493.5,304.5C 494.361,302.614 495.361,300.78 496.5,299C 503.23,298.492 509.897,297.659 516.5,296.5 Z"/></g>
<g><path style="opacity:0.99" fill="#afadc1" d="M 390.5,304.5 C 390.5,307.167 390.5,309.833 390.5,312.5C 390.665,315.518 390.498,318.518 390,321.5C 388.581,322.46 387.081,323.293 385.5,324C 377.833,324.667 370.167,324.667 362.5,324C 354.219,318.704 345.719,313.871 337,309.5C 331.397,310.442 325.897,311.776 320.5,313.5C 319.289,315.422 317.956,317.255 316.5,319C 305.793,319.837 295.126,321.004 284.5,322.5C 284.035,324.808 282.701,326.142 280.5,326.5C 267.5,326.5 254.5,326.5 241.5,326.5C 254.673,325.833 268.006,325.167 281.5,324.5C 282.167,323.167 282.833,321.833 283.5,320.5C 294.487,319.244 305.487,318.077 316.5,317C 317.627,315.247 318.627,313.413 319.5,311.5C 327.076,308.607 334.742,308.107 342.5,310C 348.665,314.25 354.998,318.25 361.5,322C 369.5,322.667 377.5,322.667 385.5,322C 386.416,321.626 387.25,321.126 388,320.5C 388.661,314.995 389.494,309.662 390.5,304.5 Z"/></g>
<g><path style="opacity:0.652" fill="#9da4c3" d="M 241.5,326.5 C 254.5,326.5 267.5,326.5 280.5,326.5C 268.011,327.495 255.344,327.829 242.5,327.5C 242.5,331.833 242.5,336.167 242.5,340.5C 242.5,341.167 242.5,341.833 242.5,342.5C 241.512,337.36 241.179,332.026 241.5,326.5 Z"/></g>
<g><path style="opacity:0.498" fill="#b3cbac" d="M 106.5,330.5 C 105.833,337.528 104.166,344.195 101.5,350.5C 102.565,343.573 104.232,336.906 106.5,330.5 Z"/></g>
<g><path style="opacity:0.784" fill="#b0a8b9" d="M 242.5,340.5 C 246.966,351.392 250.966,362.558 254.5,374C 253.155,377.36 250.988,380.193 248,382.5C 247.823,386.356 247.323,390.023 246.5,393.5C 246.334,389.154 246.501,384.821 247,380.5C 249.222,378.615 251.056,376.449 252.5,374C 248.858,363.574 245.524,353.074 242.5,342.5C 242.5,341.833 242.5,341.167 242.5,340.5 Z"/></g>
<g><path style="opacity:0.997" fill="#a4abc7" d="M 210.5,389.5 C 209.5,390.167 208.5,390.833 207.5,391.5C 207.167,391.5 206.833,391.5 206.5,391.5C 204.833,391.5 203.167,391.5 201.5,391.5C 204.219,390.087 207.219,389.42 210.5,389.5 Z"/></g>
<g><path style="opacity:1" fill="#adbbbc" d="M 198.5,392.5 C 199.209,391.596 200.209,391.263 201.5,391.5C 203.167,391.5 204.833,391.5 206.5,391.5C 203.785,393.072 200.785,394.072 197.5,394.5C 197.918,393.778 198.584,393.278 199.5,393C 199.272,392.601 198.938,392.435 198.5,392.5 Z"/></g>
<g><path style="opacity:1" fill="#a5acc7" d="M 198.5,392.5 C 198.938,392.435 199.272,392.601 199.5,393C 198.584,393.278 197.918,393.778 197.5,394.5C 197.167,394.5 196.833,394.5 196.5,394.5C 194.833,394.5 193.167,394.5 191.5,394.5C 193.599,393.388 195.933,392.721 198.5,392.5 Z"/></g>
<g><path style="opacity:1" fill="#adbbbc" d="M 188.5,395.5 C 189.209,394.596 190.209,394.263 191.5,394.5C 193.167,394.5 194.833,394.5 196.5,394.5C 193.785,396.072 190.785,397.072 187.5,397.5C 187.918,396.778 188.584,396.278 189.5,396C 189.272,395.601 188.938,395.435 188.5,395.5 Z"/></g>
<g><path style="opacity:0.116" fill="#b3cbaa" d="M 187.5,397.5 C 185.485,398.924 183.152,399.59 180.5,399.5C 182.515,398.076 184.848,397.41 187.5,397.5 Z"/></g>
<g><path style="opacity:0.863" fill="#a9b3c3" d="M 210.5,389.5 C 211.815,393.392 213.148,397.392 214.5,401.5C 221.683,404.33 228.683,407.33 235.5,410.5C 233.833,410.5 232.167,410.5 230.5,410.5C 224.704,407.776 218.704,405.276 212.5,403C 211.351,399.741 210.351,396.408 209.5,393C 209.164,391.97 208.497,391.47 207.5,391.5C 208.5,390.833 209.5,390.167 210.5,389.5 Z"/></g>
</svg>
