<?xml version="1.0" encoding="UTF-8"?>
<!DOCTYPE svg PUBLIC "-//W3C//DTD SVG 1.1//EN" "http://www.w3.org/Graphics/SVG/1.1/DTD/svg11.dtd">
<svg xmlns="http://www.w3.org/2000/svg" version="1.1" width="443px" height="457px" style="shape-rendering:geometricPrecision; text-rendering:geometricPrecision; image-rendering:optimizeQuality; fill-rule:evenodd; clip-rule:evenodd" xmlns:xlink="http://www.w3.org/1999/xlink">
<g><path style="opacity:0.725" fill="#8a929c" d="M 114.5,3.5 C 115.906,3.97306 116.573,4.97306 116.5,6.5C 115.833,6.16667 115.167,5.83333 114.5,5.5C 114.5,4.83333 114.5,4.16667 114.5,3.5 Z"/></g>
<g><path style="opacity:1" fill="#f0e0d5" d="M 116.5,8.5 C 117.312,10.9446 118.312,13.2779 119.5,15.5C 119.749,22.0418 123.083,25.3751 129.5,25.5C 133.847,27.858 135.847,31.5247 135.5,36.5C 135.327,43.3421 137.661,49.0088 142.5,53.5C 145.055,56.6269 146.055,60.2935 145.5,64.5C 142.734,70.1253 142.9,75.792 146,81.5C 146.333,86.5 146.667,91.5 147,96.5C 147.608,98.0664 148.442,99.3998 149.5,100.5C 150.475,103.067 151.142,105.733 151.5,108.5C 148.222,117.923 151.556,123.923 161.5,126.5C 164.348,128.92 167.681,130.253 171.5,130.5C 176.906,133.26 182.573,135.76 188.5,138C 194.61,142.377 200.277,147.211 205.5,152.5C 206.419,155.089 208.086,157.089 210.5,158.5C 212.027,158.427 213.027,159.094 213.5,160.5C 215.094,161.983 216.76,163.483 218.5,165C 224.357,165.671 230.19,166.504 236,167.5C 238.008,167.693 239.508,167.026 240.5,165.5C 247.728,164.391 254.728,162.391 261.5,159.5C 266.844,159.666 272.177,159.499 277.5,159C 278.731,157.595 280.064,156.429 281.5,155.5C 283.371,155.141 284.871,154.141 286,152.5C 286.805,149.304 286.638,146.304 285.5,143.5C 285.988,136.402 282.655,132.736 275.5,132.5C 269.649,128.462 263.982,128.796 258.5,133.5C 249.545,133.954 241.545,131.621 234.5,126.5C 230.177,118.702 228.01,110.369 228,101.5C 229.313,94.7382 233.48,91.0716 240.5,90.5C 245.547,91.376 250.547,92.376 255.5,93.5C 256.263,94.2679 257.263,94.7679 258.5,95C 271.5,95.3333 284.5,95.6667 297.5,96C 298.044,96.7172 298.711,97.2172 299.5,97.5C 303.833,103.833 309.167,109.167 315.5,113.5C 316.262,115.262 317.596,116.262 319.5,116.5C 322.544,121.377 326.878,123.211 332.5,122C 336.114,121.055 339.781,120.388 343.5,120C 345.387,117.05 347.387,114.216 349.5,111.5C 354.199,105.477 359.866,104.31 366.5,108C 368.734,109.638 370.067,111.805 370.5,114.5C 370.335,118.182 370.501,121.848 371,125.5C 373.069,127.085 375.236,128.419 377.5,129.5C 380.55,131.549 382.883,134.216 384.5,137.5C 384.247,139.827 384.914,141.827 386.5,143.5C 390.107,144.489 393.774,144.823 397.5,144.5C 401.746,145.745 404.746,148.412 406.5,152.5C 407.42,155.508 408.754,158.341 410.5,161C 414.131,160.684 417.465,159.518 420.5,157.5C 427.783,157.639 433.45,160.639 437.5,166.5C 437.763,171.375 436.43,175.708 433.5,179.5C 431.629,179.859 430.129,180.859 429,182.5C 428.184,187.684 428.35,192.684 429.5,197.5C 429.091,203.012 431.091,207.345 435.5,210.5C 438.282,213.332 439.615,216.832 439.5,221C 439.407,232.066 435.574,241.566 428,249.5C 425.807,258.865 419.974,262.865 410.5,261.5C 409.292,260.766 407.959,260.433 406.5,260.5C 404.897,259.404 403.397,258.07 402,256.5C 401.821,252.975 401.321,249.641 400.5,246.5C 400.675,244.379 400.341,242.379 399.5,240.5C 400.329,239.668 401.162,240.001 402,241.5C 402.333,242.5 402.667,243.5 403,244.5C 403.798,242.741 403.631,241.074 402.5,239.5C 398.022,236.19 393.689,232.69 389.5,229C 385.05,228.73 381.05,229.897 377.5,232.5C 376.833,232.5 376.167,232.5 375.5,232.5C 373.932,231.527 372.265,231.36 370.5,232C 368.604,234.068 366.604,235.901 364.5,237.5C 361.448,240.555 358.115,243.222 354.5,245.5C 352.156,244.149 349.822,242.816 347.5,241.5C 346.396,239.611 345.063,237.945 343.5,236.5C 343.5,236.167 343.5,235.833 343.5,235.5C 343.5,234.167 343.5,232.833 343.5,231.5C 345.68,229.969 346.68,227.802 346.5,225C 345.904,221.118 345.071,217.284 344,213.5C 339.961,212.244 335.794,211.577 331.5,211.5C 330.5,211.5 329.5,211.5 328.5,211.5C 325.898,209.549 323.064,209.216 320,210.5C 317.333,215.167 314.667,219.833 312,224.5C 311.503,227.146 311.336,229.813 311.5,232.5C 309.441,235.611 307.608,238.944 306,242.5C 305.297,245.482 305.797,248.149 307.5,250.5C 307.309,254.262 306.642,257.929 305.5,261.5C 300.74,271.102 302.406,279.602 310.5,287C 315.793,287.372 320.793,286.539 325.5,284.5C 329.792,284.035 333.792,284.868 337.5,287C 339.921,290.351 341.921,293.851 343.5,297.5C 343.5,299.167 343.5,300.833 343.5,302.5C 342.492,306.194 341.325,309.861 340,313.5C 337.665,315.4 335.498,317.4 333.5,319.5C 332.71,320.401 331.71,321.068 330.5,321.5C 321.794,322.566 314.461,326.233 308.5,332.5C 303.49,334.685 300.49,338.519 299.5,344C 302.204,351.275 305.204,358.441 308.5,365.5C 317.102,366.972 325.768,367.972 334.5,368.5C 336.045,368.489 337.378,368.156 338.5,367.5C 343.956,365.721 349.623,364.387 355.5,363.5C 355.414,364.496 355.748,365.329 356.5,366C 362.491,366.499 368.491,366.666 374.5,366.5C 376.117,367.038 377.784,367.371 379.5,367.5C 384.98,372.996 386.98,379.663 385.5,387.5C 383.797,389.851 383.297,392.518 384,395.5C 386.375,397.714 388.875,399.714 391.5,401.5C 392.492,401.328 393.158,401.662 393.5,402.5C 393.804,403.15 394.137,403.817 394.5,404.5C 392.425,409.724 390.758,415.058 389.5,420.5C 384.466,421.398 379.799,423.065 375.5,425.5C 372.754,425.072 371.087,423.406 370.5,420.5C 363.562,419.009 356.562,417.842 349.5,417C 348.324,414.314 346.657,411.981 344.5,410C 340.5,407.667 336.5,405.333 332.5,403C 326.167,402.333 319.833,402.333 313.5,403C 302.5,408.5 291.5,414 280.5,419.5C 279.692,419.192 279.025,418.692 278.5,418C 267.172,417.5 255.838,417.333 244.5,417.5C 242.942,429.182 241.275,440.848 239.5,452.5C 236.101,451.984 232.768,451.15 229.5,450C 228.474,446.307 226.14,443.974 222.5,443C 209.886,440.176 197.22,437.676 184.5,435.5C 184.276,439.179 183.942,442.846 183.5,446.5C 183.5,447.5 183.5,448.5 183.5,449.5C 179.731,449.756 176.064,449.423 172.5,448.5C 164.705,446.717 156.705,445.383 148.5,444.5C 148.5,436.167 148.5,427.833 148.5,419.5C 142.824,419.666 137.157,419.499 131.5,419C 126.328,415.915 121.328,412.581 116.5,409C 108.167,408.333 99.8333,408.333 91.5,409C 88.1824,413.111 83.849,414.611 78.5,413.5C 75.6146,413.806 72.9479,413.473 70.5,412.5C 68.369,411.686 66.0356,411.186 63.5,411C 60.4242,408.38 57.2576,405.88 54,403.5C 54.1084,398.72 53.275,394.386 51.5,390.5C 43.557,385.188 35.2237,380.355 26.5,376C 22.0451,375.422 17.7117,375.922 13.5,377.5C 10.7329,373.483 8.06626,369.316 5.5,365C 12.9546,358.22 19.6212,350.887 25.5,343C 23.2551,336.341 20.5884,329.841 17.5,323.5C 23.1667,319.5 28.8333,315.5 34.5,311.5C 36.7327,304.403 38.7327,297.236 40.5,290C 36.451,282.935 31.951,276.102 27,269.5C 26.9933,264.666 28.8267,260.499 32.5,257C 36.5766,255.213 40.41,253.046 44,250.5C 49.1084,240.617 53.9417,230.617 58.5,220.5C 57.1026,217.594 55.1026,215.094 52.5,213C 46.1667,212.667 39.8333,212.333 33.5,212C 28.6978,204.898 23.5311,198.064 18,191.5C 18.05,187.988 18.55,184.488 19.5,181C 17.5885,175.841 16.5885,170.508 16.5,165C 16.3505,160.931 17.0172,157.098 18.5,153.5C 19.8333,152.5 21.1667,151.5 22.5,150.5C 28.7914,143.94 34.6247,136.94 40,129.5C 42.1936,127.635 44.3603,125.968 46.5,124.5C 48.7703,118.663 50.6036,112.663 52,106.5C 55.1814,101.462 58.348,96.4615 61.5,91.5C 57.6059,83.3792 53.4393,75.3792 49,67.5C 48.3292,66.7476 47.4959,66.4142 46.5,66.5C 46.281,65.325 46.6143,64.325 47.5,63.5C 53.5309,57.4704 59.1976,51.137 64.5,44.5C 65.4511,43.0813 65.7845,41.4147 65.5,39.5C 76.3464,39.8278 87.0131,39.4944 97.5,38.5C 98.8345,33.3398 100.001,28.0065 101,22.5C 105.167,17.6667 109.333,12.8333 113.5,8C 114.577,7.53042 115.577,7.69708 116.5,8.5 Z"/></g>
<g><path style="opacity:0.573" fill="#979ca2" d="M 116.5,6.5 C 119.532,10.0608 122.032,14.0608 124,18.5C 127.966,21.464 131.633,24.7974 135,28.5C 136.252,31.0135 136.752,33.6802 136.5,36.5C 136.167,36.5 135.833,36.5 135.5,36.5C 135.847,31.5247 133.847,27.858 129.5,25.5C 125.833,22.5 122.5,19.1667 119.5,15.5C 118.312,13.2779 117.312,10.9446 116.5,8.5C 116.5,7.83333 116.5,7.16667 116.5,6.5 Z"/></g>
<g><path style="opacity:0.792" fill="#b57bae" d="M 114.5,3.5 C 114.5,4.16667 114.5,4.83333 114.5,5.5C 109.532,10.638 104.699,15.9714 100,21.5C 98.9293,26.3169 97.7627,30.9836 96.5,35.5C 96.638,30.364 97.4713,25.364 99,20.5C 104.033,14.6377 109.199,8.971 114.5,3.5 Z"/></g>
<g><path style="opacity:1" fill="#d4beaf" d="M 119.5,15.5 C 122.5,19.1667 125.833,22.5 129.5,25.5C 123.083,25.3751 119.749,22.0418 119.5,15.5 Z"/></g>
<g><path style="opacity:1" fill="#d0b5aa" d="M 114.5,5.5 C 115.167,5.83333 115.833,6.16667 116.5,6.5C 116.5,7.16667 116.5,7.83333 116.5,8.5C 115.577,7.69708 114.577,7.53042 113.5,8C 109.333,12.8333 105.167,17.6667 101,22.5C 100.001,28.0065 98.8345,33.3398 97.5,38.5C 86.5,38.5 75.5,38.5 64.5,38.5C 64.5,40.5 64.5,42.5 64.5,44.5C 59.1976,51.137 53.5309,57.4704 47.5,63.5C 46.6143,64.325 46.281,65.325 46.5,66.5C 45.4017,65.3991 45.235,64.0657 46,62.5C 47.7038,60.6266 49.5372,58.9599 51.5,57.5C 52.9063,57.0269 53.573,56.0269 53.5,54.5C 54.5,52.8333 55.8333,51.5 57.5,50.5C 58.9063,50.0269 59.573,49.0269 59.5,47.5C 60.4577,46.0384 61.6244,44.7051 63,43.5C 63.4955,41.5273 63.6621,39.5273 63.5,37.5C 74.8842,38.1436 85.8842,37.477 96.5,35.5C 97.7627,30.9836 98.9293,26.3169 100,21.5C 104.699,15.9714 109.532,10.638 114.5,5.5 Z"/></g>
<g><path style="opacity:1" fill="#e0ccbd" d="M 97.5,38.5 C 87.0131,39.4944 76.3464,39.8278 65.5,39.5C 65.7845,41.4147 65.4511,43.0813 64.5,44.5C 64.5,42.5 64.5,40.5 64.5,38.5C 75.5,38.5 86.5,38.5 97.5,38.5 Z"/></g>
<g><path style="opacity:1" fill="#c1afa4" d="M 135.5,36.5 C 135.833,36.5 136.167,36.5 136.5,36.5C 137.06,38.8008 137.56,41.1341 138,43.5C 140.157,45.8171 141.657,48.4838 142.5,51.5C 142.5,52.1667 142.5,52.8333 142.5,53.5C 137.661,49.0088 135.327,43.3421 135.5,36.5 Z"/></g>
<g><path style="opacity:0.694" fill="#c194b1" d="M 59.5,47.5 C 59.573,49.0269 58.9063,50.0269 57.5,50.5C 57.427,48.9731 58.0937,47.9731 59.5,47.5 Z"/></g>
<g><path style="opacity:0.694" fill="#c194b1" d="M 53.5,54.5 C 53.573,56.0269 52.9063,57.0269 51.5,57.5C 51.427,55.9731 52.0937,54.9731 53.5,54.5 Z"/></g>
<g><path style="opacity:0.627" fill="#8a8786" d="M 142.5,51.5 C 143.794,52.2899 144.961,53.2899 146,54.5C 146.814,59.0204 146.647,63.3537 145.5,67.5C 145.5,66.5 145.5,65.5 145.5,64.5C 146.055,60.2935 145.055,56.6269 142.5,53.5C 142.5,52.8333 142.5,52.1667 142.5,51.5 Z"/></g>
<g><path style="opacity:1" fill="#b3a399" d="M 145.5,64.5 C 145.5,65.5 145.5,66.5 145.5,67.5C 146.712,77.8189 148.045,88.1522 149.5,98.5C 149.5,99.1667 149.5,99.8333 149.5,100.5C 148.442,99.3998 147.608,98.0664 147,96.5C 146.667,91.5 146.333,86.5 146,81.5C 142.9,75.792 142.734,70.1253 145.5,64.5 Z"/></g>
<g><path style="opacity:1" fill="#cdacad" d="M 46.5,66.5 C 47.4959,66.4142 48.3292,66.7476 49,67.5C 53.4393,75.3792 57.6059,83.3792 61.5,91.5C 58.348,96.4615 55.1814,101.462 52,106.5C 50.6036,112.663 48.7703,118.663 46.5,124.5C 46.1667,124.5 45.8333,124.5 45.5,124.5C 46.7098,111.943 51.3765,100.943 59.5,91.5C 54.8858,83.2704 50.5525,74.937 46.5,66.5 Z"/></g>
<g><path style="opacity:0.298" fill="#9cc1de" d="M 245.5,89.5 C 248.228,89.1706 250.562,89.8372 252.5,91.5C 249.933,91.2785 247.599,90.6118 245.5,89.5 Z"/></g>
<g><path style="opacity:1" fill="#94908f" d="M 245.5,89.5 C 247.599,90.6118 249.933,91.2785 252.5,91.5C 253.167,91.5 253.833,91.5 254.5,91.5C 254.833,92.1667 255.167,92.8333 255.5,93.5C 250.547,92.376 245.547,91.376 240.5,90.5C 233.48,91.0716 229.313,94.7382 228,101.5C 228.01,110.369 230.177,118.702 234.5,126.5C 233.833,126.5 233.167,126.5 232.5,126.5C 231.662,126.158 231.328,125.492 231.5,124.5C 230.736,121.982 229.736,119.649 228.5,117.5C 225.8,109.86 225.966,102.193 229,94.5C 233.568,90.0137 239.068,88.347 245.5,89.5 Z"/></g>
<g><path style="opacity:0.678" fill="#8ca1b2" d="M 254.5,91.5 C 260.567,92.8291 266.567,93.8291 272.5,94.5C 266.797,94.6252 261.13,94.2919 255.5,93.5C 255.167,92.8333 254.833,92.1667 254.5,91.5 Z"/></g>
<g><path style="opacity:0.761" fill="#ac9a8f" d="M 255.5,93.5 C 261.13,94.2919 266.797,94.6252 272.5,94.5C 281.584,94.1956 290.584,94.5289 299.5,95.5C 299.5,96.1667 299.5,96.8333 299.5,97.5C 298.711,97.2172 298.044,96.7172 297.5,96C 284.5,95.6667 271.5,95.3333 258.5,95C 257.263,94.7679 256.263,94.2679 255.5,93.5 Z"/></g>
<g><path style="opacity:0.914" fill="#939faa" d="M 299.5,95.5 C 307.559,103.563 315.893,111.23 324.5,118.5C 322.833,117.833 321.167,117.167 319.5,116.5C 317.596,116.262 316.262,115.262 315.5,113.5C 310.5,107.833 305.167,102.5 299.5,97.5C 299.5,96.8333 299.5,96.1667 299.5,95.5 Z"/></g>
<g><path style="opacity:1" fill="#c9b4a6" d="M 299.5,97.5 C 305.167,102.5 310.5,107.833 315.5,113.5C 309.167,109.167 303.833,103.833 299.5,97.5 Z"/></g>
<g><path style="opacity:0.584" fill="#949fa9" d="M 374.5,123.5 C 372.432,120.788 371.099,117.788 370.5,114.5C 370.067,111.805 368.734,109.638 366.5,108C 359.866,104.31 354.199,105.477 349.5,111.5C 346.006,114.144 342.34,116.644 338.5,119C 336.047,119.738 333.547,120.238 331,120.5C 328.779,120.607 326.946,119.94 325.5,118.5C 331.105,119.092 336.439,118.259 341.5,116C 344.833,112.667 348.167,109.333 351.5,106C 366.685,101.667 374.352,107.501 374.5,123.5 Z"/></g>
<g><path style="opacity:1" fill="#d2bbac" d="M 349.5,111.5 C 347.387,114.216 345.387,117.05 343.5,120C 339.781,120.388 336.114,121.055 332.5,122C 326.878,123.211 322.544,121.377 319.5,116.5C 321.167,117.167 322.833,117.833 324.5,118.5C 324.833,118.5 325.167,118.5 325.5,118.5C 326.946,119.94 328.779,120.607 331,120.5C 333.547,120.238 336.047,119.738 338.5,119C 342.34,116.644 346.006,114.144 349.5,111.5 Z"/></g>
<g><path style="opacity:0.98" fill="#8f959b" d="M 149.5,98.5 C 150.793,99.842 151.626,101.509 152,103.5C 152.175,108.019 152.675,112.353 153.5,116.5C 153.5,117.167 153.5,117.833 153.5,118.5C 152.883,118.389 152.383,118.056 152,117.5C 151.502,114.518 151.335,111.518 151.5,108.5C 151.142,105.733 150.475,103.067 149.5,100.5C 149.5,99.8333 149.5,99.1667 149.5,98.5 Z"/></g>
<g><path style="opacity:0.761" fill="#a6d4f8" d="M 153.5,116.5 C 155.833,118.167 157.833,120.167 159.5,122.5C 158.833,122.5 158.167,122.5 157.5,122.5C 156.5,120.833 155.167,119.5 153.5,118.5C 153.5,117.833 153.5,117.167 153.5,116.5 Z"/></g>
<g><path style="opacity:0.153" fill="#a5cff0" d="M 228.5,117.5 C 229.736,119.649 230.736,121.982 231.5,124.5C 229.166,122.824 228.166,120.491 228.5,117.5 Z"/></g>
<g><path style="opacity:1" fill="#d2beb1" d="M 370.5,114.5 C 371.099,117.788 372.432,120.788 374.5,123.5C 375.338,123.842 375.672,124.508 375.5,125.5C 375.733,127.062 376.4,128.395 377.5,129.5C 375.236,128.419 373.069,127.085 371,125.5C 370.501,121.848 370.335,118.182 370.5,114.5 Z"/></g>
<g><path style="opacity:0.243" fill="#a7d4f9" d="M 159.5,122.5 C 161.027,122.427 162.027,123.094 162.5,124.5C 161.833,124.5 161.167,124.5 160.5,124.5C 160.167,123.833 159.833,123.167 159.5,122.5 Z"/></g>
<g><path style="opacity:0.953" fill="#8a98a4" d="M 157.5,122.5 C 158.167,122.5 158.833,122.5 159.5,122.5C 159.833,123.167 160.167,123.833 160.5,124.5C 158.973,124.573 157.973,123.906 157.5,122.5 Z"/></g>
<g><path style="opacity:1" fill="#c5b1a4" d="M 151.5,108.5 C 151.335,111.518 151.502,114.518 152,117.5C 152.383,118.056 152.883,118.389 153.5,118.5C 155.167,119.5 156.5,120.833 157.5,122.5C 157.973,123.906 158.973,124.573 160.5,124.5C 160.833,125.167 161.167,125.833 161.5,126.5C 151.556,123.923 148.222,117.923 151.5,108.5 Z"/></g>
<g><path style="opacity:0.953" fill="#979ca3" d="M 160.5,124.5 C 161.167,124.5 161.833,124.5 162.5,124.5C 164.873,125.839 167.207,127.172 169.5,128.5C 170.167,129.167 170.833,129.833 171.5,130.5C 167.681,130.253 164.348,128.92 161.5,126.5C 161.167,125.833 160.833,125.167 160.5,124.5 Z"/></g>
<g><path style="opacity:0.886" fill="#b77eb0" d="M 42.5,124.5 C 38.8451,129.486 34.8451,134.153 30.5,138.5C 32.4854,134.544 34.9854,130.878 38,127.5C 39.129,125.859 40.629,124.859 42.5,124.5 Z"/></g>
<g><path style="opacity:1" fill="#d3baab" d="M 42.5,124.5 C 43.5,124.5 44.5,124.5 45.5,124.5C 45.8333,124.5 46.1667,124.5 46.5,124.5C 44.3603,125.968 42.1936,127.635 40,129.5C 34.6247,136.94 28.7914,143.94 22.5,150.5C 22.5,149.833 22.5,149.167 22.5,148.5C 24.5869,147.415 25.9202,145.749 26.5,143.5C 28.5869,142.415 29.9202,140.749 30.5,138.5C 34.8451,134.153 38.8451,129.486 42.5,124.5 Z"/></g>
<g><path style="opacity:0.565" fill="#9fc8e8" d="M 169.5,128.5 C 175.285,129.536 180.618,131.536 185.5,134.5C 180.833,133.167 176.167,131.833 171.5,130.5C 170.833,129.833 170.167,129.167 169.5,128.5 Z"/></g>
<g><path style="opacity:1" fill="#cfbbac" d="M 275.5,132.5 C 269.797,132.375 264.13,132.708 258.5,133.5C 263.982,128.796 269.649,128.462 275.5,132.5 Z"/></g>
<g><path style="opacity:0.992" fill="#969698" d="M 375.5,125.5 C 380.23,129.227 384.23,133.56 387.5,138.5C 386.609,137.89 385.609,137.557 384.5,137.5C 382.883,134.216 380.55,131.549 377.5,129.5C 376.4,128.395 375.733,127.062 375.5,125.5 Z"/></g>
<g><path style="opacity:0.471" fill="#959ba2" d="M 232.5,126.5 C 233.167,126.5 233.833,126.5 234.5,126.5C 241.545,131.621 249.545,133.954 258.5,133.5C 264.13,132.708 269.797,132.375 275.5,132.5C 276.833,133.833 278.167,135.167 279.5,136.5C 275.597,135.191 271.597,134.191 267.5,133.5C 261.888,134.882 256.221,135.382 250.5,135C 246.227,133.465 241.894,132.131 237.5,131C 235.34,130.004 233.673,128.504 232.5,126.5 Z"/></g>
<g><path style="opacity:1" fill="#ccbaae" d="M 275.5,132.5 C 282.655,132.736 285.988,136.402 285.5,143.5C 284.833,143.167 284.167,142.833 283.5,142.5C 282.18,140.537 280.846,138.537 279.5,136.5C 278.167,135.167 276.833,133.833 275.5,132.5 Z"/></g>
<g><path style="opacity:1" fill="#d3bfb3" d="M 384.5,137.5 C 385.609,137.557 386.609,137.89 387.5,138.5C 388.833,139.167 389.833,140.167 390.5,141.5C 392.779,142.651 395.112,143.651 397.5,144.5C 393.774,144.823 390.107,144.489 386.5,143.5C 384.914,141.827 384.247,139.827 384.5,137.5 Z"/></g>
<g><path style="opacity:0.569" fill="#ba85b0" d="M 30.5,138.5 C 29.9202,140.749 28.5869,142.415 26.5,143.5C 27.0798,141.251 28.4131,139.585 30.5,138.5 Z"/></g>
<g><path style="opacity:0.094" fill="#99a0a7" d="M 390.5,141.5 C 396.801,140.491 401.801,142.491 405.5,147.5C 405.427,149.027 406.094,150.027 407.5,150.5C 408.11,151.391 408.443,152.391 408.5,153.5C 407.833,153.167 407.167,152.833 406.5,152.5C 404.746,148.412 401.746,145.745 397.5,144.5C 395.112,143.651 392.779,142.651 390.5,141.5 Z"/></g>
<g><path style="opacity:0.224" fill="#939395" d="M 171.5,130.5 C 176.167,131.833 180.833,133.167 185.5,134.5C 190.955,138.115 196.288,141.948 201.5,146C 203.706,148.037 205.706,150.203 207.5,152.5C 207.5,152.833 207.5,153.167 207.5,153.5C 206.833,153.167 206.167,152.833 205.5,152.5C 200.277,147.211 194.61,142.377 188.5,138C 182.573,135.76 176.906,133.26 171.5,130.5 Z"/></g>
<g><path style="opacity:1" fill="#d0b8a8" d="M 285.5,143.5 C 286.638,146.304 286.805,149.304 286,152.5C 284.871,154.141 283.371,155.141 281.5,155.5C 285.078,152.367 286.411,148.367 285.5,143.5 Z"/></g>
<g><path style="opacity:0.51" fill="#bc89b1" d="M 26.5,143.5 C 25.9202,145.749 24.5869,147.415 22.5,148.5C 23.0798,146.251 24.4131,144.585 26.5,143.5 Z"/></g>
<g><path style="opacity:0.329" fill="#a2cbeb" d="M 405.5,147.5 C 406.906,147.973 407.573,148.973 407.5,150.5C 406.094,150.027 405.427,149.027 405.5,147.5 Z"/></g>
<g><path style="opacity:0.447" fill="#be8db1" d="M 22.5,148.5 C 22.5,149.167 22.5,149.833 22.5,150.5C 21.1667,151.5 19.8333,152.5 18.5,153.5C 19.0798,151.251 20.4131,149.585 22.5,148.5 Z"/></g>
<g><path style="opacity:1" fill="#bfac9f" d="M 205.5,152.5 C 206.167,152.833 206.833,153.167 207.5,153.5C 208.925,154.922 209.925,156.589 210.5,158.5C 208.086,157.089 206.419,155.089 205.5,152.5 Z"/></g>
<g><path style="opacity:0.976" fill="#91a7b9" d="M 207.5,152.5 C 210.5,154.833 213.167,157.5 215.5,160.5C 214.833,160.5 214.167,160.5 213.5,160.5C 213.027,159.094 212.027,158.427 210.5,158.5C 209.925,156.589 208.925,154.922 207.5,153.5C 207.5,153.167 207.5,152.833 207.5,152.5 Z"/></g>
<g><path style="opacity:0.361" fill="#a4cdef" d="M 427.5,156.5 C 429.38,156.229 430.713,156.896 431.5,158.5C 429.847,158.34 428.514,157.674 427.5,156.5 Z"/></g>
<g><path style="opacity:0.494" fill="#969ba2" d="M 283.5,142.5 C 284.167,142.833 284.833,143.167 285.5,143.5C 286.411,148.367 285.078,152.367 281.5,155.5C 274.815,157.277 268.149,158.611 261.5,159.5C 254.728,162.391 247.728,164.391 240.5,165.5C 234.435,165.739 228.435,165.239 222.5,164C 221.058,163.623 220.058,162.79 219.5,161.5C 234.387,165.558 248.721,164.058 262.5,157C 270.95,158.027 278.283,155.694 284.5,150C 283.565,147.619 283.232,145.119 283.5,142.5 Z"/></g>
<g><path style="opacity:1" fill="#d6c2b3" d="M 281.5,155.5 C 280.064,156.429 278.731,157.595 277.5,159C 272.177,159.499 266.844,159.666 261.5,159.5C 268.149,158.611 274.815,157.277 281.5,155.5 Z"/></g>
<g><path style="opacity:0.988" fill="#919091" d="M 410.5,155.5 C 416.13,156.292 421.797,156.625 427.5,156.5C 428.514,157.674 429.847,158.34 431.5,158.5C 431.973,159.906 432.973,160.573 434.5,160.5C 436.025,162.216 437.025,164.216 437.5,166.5C 433.45,160.639 427.783,157.639 420.5,157.5C 417.482,157.665 414.482,157.498 411.5,157C 410.944,156.617 410.611,156.117 410.5,155.5 Z"/></g>
<g><path style="opacity:0.078" fill="#a3cdee" d="M 431.5,158.5 C 433.027,158.427 434.027,159.094 434.5,160.5C 432.973,160.573 431.973,159.906 431.5,158.5 Z"/></g>
<g><path style="opacity:1" fill="#d4bfb1" d="M 406.5,152.5 C 407.167,152.833 407.833,153.167 408.5,153.5C 409.5,153.833 410.167,154.5 410.5,155.5C 410.611,156.117 410.944,156.617 411.5,157C 414.482,157.498 417.482,157.665 420.5,157.5C 417.465,159.518 414.131,160.684 410.5,161C 408.754,158.341 407.42,155.508 406.5,152.5 Z"/></g>
<g><path style="opacity:0.569" fill="#a7bdd1" d="M 434.5,160.5 C 437.874,161.691 439.54,164.191 439.5,168C 439.472,169.07 439.139,169.903 438.5,170.5C 438.768,168.901 438.434,167.568 437.5,166.5C 437.025,164.216 436.025,162.216 434.5,160.5 Z"/></g>
<g><path style="opacity:1" fill="#c6b1a4" d="M 213.5,160.5 C 214.167,160.5 214.833,160.5 215.5,160.5C 216.833,160.833 218.167,161.167 219.5,161.5C 220.058,162.79 221.058,163.623 222.5,164C 228.435,165.239 234.435,165.739 240.5,165.5C 239.508,167.026 238.008,167.693 236,167.5C 230.19,166.504 224.357,165.671 218.5,165C 216.76,163.483 215.094,161.983 213.5,160.5 Z"/></g>
<g><path style="opacity:0.925" fill="#909499" d="M 437.5,166.5 C 438.434,167.568 438.768,168.901 438.5,170.5C 438.58,175.621 436.58,179.621 432.5,182.5C 432.557,181.391 432.89,180.391 433.5,179.5C 436.43,175.708 437.763,171.375 437.5,166.5 Z"/></g>
<g><path style="opacity:1" fill="#bfada1" d="M 433.5,179.5 C 432.89,180.391 432.557,181.391 432.5,182.5C 429.98,187.149 428.98,192.149 429.5,197.5C 428.35,192.684 428.184,187.684 429,182.5C 430.129,180.859 431.629,179.859 433.5,179.5 Z"/></g>
<g><path style="opacity:0.61" fill="#a1a7c4" d="M 16.5,185.5 C 16.4809,187.06 16.1476,188.56 15.5,190C 16.4138,191.406 17.0805,192.906 17.5,194.5C 13.9097,191.878 13.5764,188.878 16.5,185.5 Z"/></g>
<g><path style="opacity:0.5" fill="#a3a9c5" d="M 17.5,194.5 C 19.2624,195.262 20.2624,196.596 20.5,198.5C 18.7376,197.738 17.7376,196.404 17.5,194.5 Z"/></g>
<g><path style="opacity:0.5" fill="#a3a9c5" d="M 20.5,198.5 C 22.2624,199.262 23.2624,200.596 23.5,202.5C 21.7376,201.738 20.7376,200.404 20.5,198.5 Z"/></g>
<g><path style="opacity:1" fill="#b2a59d" d="M 429.5,197.5 C 430.736,199.649 431.736,201.982 432.5,204.5C 433.5,206.5 434.5,208.5 435.5,210.5C 431.091,207.345 429.091,203.012 429.5,197.5 Z"/></g>
<g><path style="opacity:0.5" fill="#a3a9c5" d="M 23.5,202.5 C 25.2624,203.262 26.2624,204.596 26.5,206.5C 24.7376,205.738 23.7376,204.404 23.5,202.5 Z"/></g>
<g><path style="opacity:0.5" fill="#a3a9c5" d="M 26.5,206.5 C 28.2624,207.262 29.2624,208.596 29.5,210.5C 27.7376,209.738 26.7376,208.404 26.5,206.5 Z"/></g>
<g><path style="opacity:0.5" fill="#a3a9c5" d="M 29.5,210.5 C 31.2624,211.262 32.2624,212.596 32.5,214.5C 30.7376,213.738 29.7376,212.404 29.5,210.5 Z"/></g>
<g><path style="opacity:1" fill="#989ca2" d="M 328.5,211.5 C 329.5,211.5 330.5,211.5 331.5,211.5C 334.909,212.372 337.909,214.039 340.5,216.5C 333.495,213.292 326.495,212.959 319.5,215.5C 319.511,213.983 320.177,212.816 321.5,212C 323.81,211.503 326.143,211.337 328.5,211.5 Z"/></g>
<g><path style="opacity:0.978" fill="#969da5" d="M 340.5,216.5 C 342.074,216.937 343.241,217.937 344,219.5C 344.497,223.524 344.331,227.524 343.5,231.5C 343.5,232.833 343.5,234.167 343.5,235.5C 342.18,232.101 342.18,228.601 343.5,225C 342.811,222.05 341.811,219.217 340.5,216.5 Z"/></g>
<g><path style="opacity:1" fill="#bbaba2" d="M 328.5,211.5 C 326.143,211.337 323.81,211.503 321.5,212C 320.177,212.816 319.511,213.983 319.5,215.5C 316.54,221.084 313.873,226.751 311.5,232.5C 311.336,229.813 311.503,227.146 312,224.5C 314.667,219.833 317.333,215.167 320,210.5C 323.064,209.216 325.898,209.549 328.5,211.5 Z"/></g>
<g><path style="opacity:1" fill="#d4bdae" d="M 331.5,211.5 C 335.794,211.577 339.961,212.244 344,213.5C 345.071,217.284 345.904,221.118 346.5,225C 346.68,227.802 345.68,229.969 343.5,231.5C 344.331,227.524 344.497,223.524 344,219.5C 343.241,217.937 342.074,216.937 340.5,216.5C 337.909,214.039 334.909,212.372 331.5,211.5 Z"/></g>
<g><path style="opacity:1" fill="#cab7aa" d="M 399.5,240.5 C 399.167,240.5 398.833,240.5 398.5,240.5C 397.194,238.527 395.527,236.861 393.5,235.5C 393.167,235.5 392.833,235.5 392.5,235.5C 392.047,234.542 391.381,233.708 390.5,233C 387.183,232.502 383.85,232.335 380.5,232.5C 379.5,232.5 378.5,232.5 377.5,232.5C 381.05,229.897 385.05,228.73 389.5,229C 393.689,232.69 398.022,236.19 402.5,239.5C 403.631,241.074 403.798,242.741 403,244.5C 402.667,243.5 402.333,242.5 402,241.5C 401.162,240.001 400.329,239.668 399.5,240.5 Z"/></g>
<g><path style="opacity:0.784" fill="#8e9195" d="M 375.5,232.5 C 376.167,232.5 376.833,232.5 377.5,232.5C 378.5,232.5 379.5,232.5 380.5,232.5C 380.5,232.833 380.5,233.167 380.5,233.5C 376.773,234.348 373.107,235.348 369.5,236.5C 369.369,235.624 369.702,234.957 370.5,234.5C 372.336,233.972 374.003,233.306 375.5,232.5 Z"/></g>
<g><path style="opacity:0.941" fill="#95b2ca" d="M 380.5,233.5 C 380.5,233.167 380.5,232.833 380.5,232.5C 383.85,232.335 387.183,232.502 390.5,233C 391.381,233.708 392.047,234.542 392.5,235.5C 388.574,234.448 384.574,233.782 380.5,233.5 Z"/></g>
<g><path style="opacity:1" fill="#cab4a6" d="M 375.5,232.5 C 374.003,233.306 372.336,233.972 370.5,234.5C 369.702,234.957 369.369,235.624 369.5,236.5C 367.784,236.629 366.117,236.962 364.5,237.5C 366.604,235.901 368.604,234.068 370.5,232C 372.265,231.36 373.932,231.527 375.5,232.5 Z"/></g>
<g><path style="opacity:0.933" fill="#919aa2" d="M 343.5,236.5 C 345.063,237.945 346.396,239.611 347.5,241.5C 346.833,241.5 346.167,241.5 345.5,241.5C 343.787,240.365 343.12,238.698 343.5,236.5 Z"/></g>
<g><path style="opacity:0.016" fill="#a3cdef" d="M 393.5,235.5 C 395.527,236.861 397.194,238.527 398.5,240.5C 398.5,241.167 398.5,241.833 398.5,242.5C 396.453,240.45 394.786,238.117 393.5,235.5 Z"/></g>
<g><path style="opacity:0.929" fill="#98999d" d="M 432.5,204.5 C 436.195,206.869 438.695,210.203 440,214.5C 442.139,227.362 439.473,239.028 432,249.5C 430,252.167 428,254.833 426,257.5C 424.223,259.79 422.056,261.457 419.5,262.5C 416.287,262.81 413.287,262.477 410.5,261.5C 419.974,262.865 425.807,258.865 428,249.5C 435.574,241.566 439.407,232.066 439.5,221C 439.615,216.832 438.282,213.332 435.5,210.5C 434.5,208.5 433.5,206.5 432.5,204.5 Z"/></g>
<g><path style="opacity:1" fill="#c0ada2" d="M 311.5,232.5 C 310.901,235.963 309.901,239.296 308.5,242.5C 307.527,244.948 307.194,247.615 307.5,250.5C 305.797,248.149 305.297,245.482 306,242.5C 307.608,238.944 309.441,235.611 311.5,232.5 Z"/></g>
<g><path style="opacity:0.663" fill="#9dc4e4" d="M 345.5,241.5 C 346.167,241.5 346.833,241.5 347.5,241.5C 348.5,242.833 349.5,244.167 350.5,245.5C 348.251,244.92 346.585,243.587 345.5,241.5 Z"/></g>
<g><path style="opacity:0.8" fill="#92a5b6" d="M 398.5,240.5 C 398.833,240.5 399.167,240.5 399.5,240.5C 400.341,242.379 400.675,244.379 400.5,246.5C 400.5,246.833 400.5,247.167 400.5,247.5C 399.463,246.07 398.796,244.403 398.5,242.5C 398.5,241.833 398.5,241.167 398.5,240.5 Z"/></g>
<g><path style="opacity:0.6" fill="#a4a9c4" d="M 49.5,235.5 C 47.5932,240.984 44.9266,245.984 41.5,250.5C 43.4068,245.016 46.0734,240.016 49.5,235.5 Z"/></g>
<g><path style="opacity:1" fill="#9e9895" d="M 369.5,236.5 C 365.387,239.406 361.387,242.573 357.5,246C 354.961,246.796 352.628,246.629 350.5,245.5C 349.5,244.167 348.5,242.833 347.5,241.5C 349.822,242.816 352.156,244.149 354.5,245.5C 358.115,243.222 361.448,240.555 364.5,237.5C 366.117,236.962 367.784,236.629 369.5,236.5 Z"/></g>
<g><path style="opacity:0.553" fill="#a6aac4" d="M 41.5,250.5 C 38.4846,252.674 35.1513,254.341 31.5,255.5C 34.2466,252.793 37.5799,251.127 41.5,250.5 Z"/></g>
<g><path style="opacity:0.988" fill="#919294" d="M 308.5,242.5 C 310.52,250.36 309.52,257.693 305.5,264.5C 305.5,263.5 305.5,262.5 305.5,261.5C 306.642,257.929 307.309,254.262 307.5,250.5C 307.194,247.615 307.527,244.948 308.5,242.5 Z"/></g>
<g><path style="opacity:0.757" fill="#9c9592" d="M 400.5,246.5 C 401.321,249.641 401.821,252.975 402,256.5C 403.397,258.07 404.897,259.404 406.5,260.5C 405.5,260.5 404.5,260.5 403.5,260.5C 402.542,260.047 401.708,259.381 401,258.5C 400.501,254.848 400.335,251.182 400.5,247.5C 400.5,247.167 400.5,246.833 400.5,246.5 Z"/></g>
<g><path style="opacity:0.473" fill="#97a6b4" d="M 403.5,260.5 C 404.5,260.5 405.5,260.5 406.5,260.5C 407.959,260.433 409.292,260.766 410.5,261.5C 413.287,262.477 416.287,262.81 419.5,262.5C 416.024,263.643 412.358,263.81 408.5,263C 406.509,262.626 404.842,261.793 403.5,260.5 Z"/></g>
<g><path style="opacity:1" fill="#cdb9ac" d="M 305.5,261.5 C 305.5,262.5 305.5,263.5 305.5,264.5C 305.5,265.5 305.5,266.5 305.5,267.5C 304.366,269.966 304.199,272.633 305,275.5C 305.424,278.025 306.59,280.025 308.5,281.5C 309.492,281.328 310.158,281.662 310.5,282.5C 310.611,283.117 310.944,283.617 311.5,284C 316.155,284.499 320.821,284.666 325.5,284.5C 320.793,286.539 315.793,287.372 310.5,287C 302.406,279.602 300.74,271.102 305.5,261.5 Z"/></g>
<g><path style="opacity:0.988" fill="#8f99a3" d="M 305.5,267.5 C 305.307,272.438 306.307,277.105 308.5,281.5C 306.59,280.025 305.424,278.025 305,275.5C 304.199,272.633 304.366,269.966 305.5,267.5 Z"/></g>
<g><path style="opacity:0.557" fill="#969fa8" d="M 310.5,282.5 C 319.132,282.126 327.799,282.626 336.5,284C 341.614,287.061 343.947,291.561 343.5,297.5C 341.921,293.851 339.921,290.351 337.5,287C 333.792,284.868 329.792,284.035 325.5,284.5C 320.821,284.666 316.155,284.499 311.5,284C 310.944,283.617 310.611,283.117 310.5,282.5 Z"/></g>
<g><path style="opacity:0.937" fill="#aadafe" d="M 260.5,288.5 C 269.951,287.805 276.451,291.805 280,300.5C 278.222,310.652 277.222,320.985 277,331.5C 276.5,332 276,332.5 275.5,333C 269.903,334.456 264.237,334.789 258.5,334C 255.78,333.277 253.613,331.777 252,329.5C 251.414,319.455 250.747,309.455 250,299.5C 252.357,294.645 255.857,290.979 260.5,288.5 Z"/></g>
<g><path style="opacity:0.216" fill="#919090" d="M 343.5,302.5 C 344.608,310.601 341.274,316.268 333.5,319.5C 335.498,317.4 337.665,315.4 340,313.5C 341.325,309.861 342.492,306.194 343.5,302.5 Z"/></g>
<g><path style="opacity:0.914" fill="#cebab0" d="M 18.5,153.5 C 17.0172,157.098 16.3505,160.931 16.5,165C 16.5885,170.508 17.5885,175.841 19.5,181C 18.55,184.488 18.05,187.988 18,191.5C 23.5311,198.064 28.6978,204.898 33.5,212C 39.8333,212.333 46.1667,212.667 52.5,213C 55.1026,215.094 57.1026,217.594 58.5,220.5C 53.9417,230.617 49.1084,240.617 44,250.5C 40.41,253.046 36.5766,255.213 32.5,257C 28.8267,260.499 26.9933,264.666 27,269.5C 31.951,276.102 36.451,282.935 40.5,290C 38.7327,297.236 36.7327,304.403 34.5,311.5C 28.8333,315.5 23.1667,319.5 17.5,323.5C 20.5884,329.841 23.2551,336.341 25.5,343C 19.6212,350.887 12.9546,358.22 5.5,365C 8.06626,369.316 10.7329,373.483 13.5,377.5C 13.5,378.167 13.5,378.833 13.5,379.5C 12.5041,379.586 11.6708,379.252 11,378.5C 8.36607,374.065 5.86607,369.565 3.5,365C 9.62223,357.876 16.1222,351.043 23,344.5C 21.5719,337.95 19.2386,331.617 16,325.5C 15.3333,324.167 15.3333,322.833 16,321.5C 21.586,317.957 27.086,314.291 32.5,310.5C 35.2899,303.341 37.1232,296.007 38,288.5C 32.6004,281.795 28.1004,274.628 24.5,267C 24.931,261.965 27.2643,258.132 31.5,255.5C 35.1513,254.341 38.4846,252.674 41.5,250.5C 44.9266,245.984 47.5932,240.984 49.5,235.5C 51.9969,230.191 54.1635,224.857 56,219.5C 54.5,218 53,216.5 51.5,215C 45.1754,214.5 38.8421,214.334 32.5,214.5C 32.2624,212.596 31.2624,211.262 29.5,210.5C 29.2624,208.596 28.2624,207.262 26.5,206.5C 26.2624,204.596 25.2624,203.262 23.5,202.5C 23.2624,200.596 22.2624,199.262 20.5,198.5C 20.2624,196.596 19.2624,195.262 17.5,194.5C 17.0805,192.906 16.4138,191.406 15.5,190C 16.1476,188.56 16.4809,187.06 16.5,185.5C 17.8643,182.396 17.6976,179.396 16,176.5C 15.3333,169.5 15.3333,162.5 16,155.5C 16.7083,154.619 17.5416,153.953 18.5,153.5 Z"/></g>
<g><path style="opacity:0.047" fill="#94979b" d="M 330.5,321.5 C 324.925,324.287 319.259,327.121 313.5,330C 311.559,332.454 309.225,334.287 306.5,335.5C 307.167,334.5 307.833,333.5 308.5,332.5C 314.461,326.233 321.794,322.566 330.5,321.5 Z"/></g>
<g><path style="opacity:0.478" fill="#91b1ca" d="M 304.5,338.5 C 303.781,340.764 303.448,343.097 303.5,345.5C 302.853,344.726 302.52,343.726 302.5,342.5C 302.34,340.645 303.007,339.312 304.5,338.5 Z"/></g>
<g><path style="opacity:1" fill="#c0b1a7" d="M 308.5,332.5 C 307.833,333.5 307.167,334.5 306.5,335.5C 305.833,336.5 305.167,337.5 304.5,338.5C 303.007,339.312 302.34,340.645 302.5,342.5C 302.52,343.726 302.853,344.726 303.5,345.5C 303.5,345.833 303.5,346.167 303.5,346.5C 303.624,350.412 304.624,354.079 306.5,357.5C 307.466,363.885 311.132,366.385 317.5,365C 315.934,364.392 314.6,363.558 313.5,362.5C 319.436,364.614 325.436,365.948 331.5,366.5C 333.607,367.468 335.941,367.802 338.5,367.5C 337.378,368.156 336.045,368.489 334.5,368.5C 325.768,367.972 317.102,366.972 308.5,365.5C 305.204,358.441 302.204,351.275 299.5,344C 300.49,338.519 303.49,334.685 308.5,332.5 Z"/></g>
<g><path style="opacity:0.988" fill="#97abbc" d="M 303.5,346.5 C 305.736,350.645 307.736,354.978 309.5,359.5C 308.5,358.833 307.5,358.167 306.5,357.5C 304.624,354.079 303.624,350.412 303.5,346.5 Z"/></g>
<g><path style="opacity:1" fill="#dfd1c7" d="M 306.5,357.5 C 307.5,358.167 308.5,358.833 309.5,359.5C 310.872,360.512 312.205,361.512 313.5,362.5C 314.6,363.558 315.934,364.392 317.5,365C 311.132,366.385 307.466,363.885 306.5,357.5 Z"/></g>
<g><path style="opacity:0.992" fill="#91959a" d="M 379.5,367.5 C 377.784,367.371 376.117,367.038 374.5,366.5C 368.351,365.144 362.017,364.144 355.5,363.5C 349.623,364.387 343.956,365.721 338.5,367.5C 335.941,367.802 333.607,367.468 331.5,366.5C 339.325,365.057 347.159,363.723 355,362.5C 362.208,362.958 369.375,363.792 376.5,365C 377.942,365.377 378.942,366.21 379.5,367.5 Z"/></g>
<g><path style="opacity:1" fill="#d4bfb1" d="M 355.5,363.5 C 362.017,364.144 368.351,365.144 374.5,366.5C 368.491,366.666 362.491,366.499 356.5,366C 355.748,365.329 355.414,364.496 355.5,363.5 Z"/></g>
<g><path style="opacity:1" fill="#d3bc9f" d="M 51.5,390.5 C 51.5,394.833 51.5,399.167 51.5,403.5C 50.8337,399.647 50.167,395.647 49.5,391.5C 41.1667,387 32.8333,382.5 24.5,378C 20.8036,378.003 17.1369,378.503 13.5,379.5C 13.5,378.833 13.5,378.167 13.5,377.5C 17.7117,375.922 22.0451,375.422 26.5,376C 35.2237,380.355 43.557,385.188 51.5,390.5 Z"/></g>
<g><path style="opacity:0.093" fill="#a4cef0" d="M 386.5,376.5 C 388.413,379.04 388.746,381.707 387.5,384.5C 387.167,381.833 386.833,379.167 386.5,376.5 Z"/></g>
<g><path style="opacity:1" fill="#9b9b9d" d="M 379.5,367.5 C 383.733,369.062 386.067,372.062 386.5,376.5C 386.833,379.167 387.167,381.833 387.5,384.5C 387.708,386.92 387.374,389.253 386.5,391.5C 386.942,392.739 387.609,393.739 388.5,394.5C 388.5,395.167 388.5,395.833 388.5,396.5C 385.925,394.155 384.925,391.155 385.5,387.5C 386.98,379.663 384.98,372.996 379.5,367.5 Z"/></g>
<g><path style="opacity:0.627" fill="#a1ccee" d="M 388.5,394.5 C 390.833,396.167 392.833,398.167 394.5,400.5C 393.391,400.443 392.391,400.11 391.5,399.5C 390.833,398.167 389.833,397.167 388.5,396.5C 388.5,395.833 388.5,395.167 388.5,394.5 Z"/></g>
<g><path style="opacity:1" fill="#cab6a9" d="M 385.5,387.5 C 384.925,391.155 385.925,394.155 388.5,396.5C 389.833,397.167 390.833,398.167 391.5,399.5C 391.5,400.167 391.5,400.833 391.5,401.5C 388.875,399.714 386.375,397.714 384,395.5C 383.297,392.518 383.797,389.851 385.5,387.5 Z"/></g>
<g><path style="opacity:0.443" fill="#97999a" d="M 391.5,399.5 C 392.391,400.11 393.391,400.443 394.5,400.5C 395.833,401.167 396.833,402.167 397.5,403.5C 396.167,403.167 394.833,402.833 393.5,402.5C 393.158,401.662 392.492,401.328 391.5,401.5C 391.5,400.833 391.5,400.167 391.5,399.5 Z"/></g>
<g><path style="opacity:1" fill="#d5bdaa" d="M 51.5,390.5 C 53.275,394.386 54.1084,398.72 54,403.5C 57.2576,405.88 60.4242,408.38 63.5,411C 66.0356,411.186 68.369,411.686 70.5,412.5C 62.665,412.664 56.3316,409.664 51.5,403.5C 51.5,399.167 51.5,394.833 51.5,390.5 Z"/></g>
<g><path style="opacity:0.624" fill="#d4bca6" d="M 375.5,425.5 C 374.399,426.598 373.066,426.765 371.5,426C 370.516,423.875 368.85,422.708 366.5,422.5C 360.287,421.527 354.287,420.194 348.5,418.5C 345.495,412.65 340.828,408.65 334.5,406.5C 333.373,405.878 332.373,405.045 331.5,404C 325.833,403.333 320.167,403.333 314.5,404C 303.396,409.968 292.23,415.802 281,421.5C 279.566,421.07 278.399,420.236 277.5,419C 267.506,418.5 257.506,418.334 247.5,418.5C 245.5,430.167 243.5,441.833 241.5,453.5C 237.466,453.495 233.466,453.162 229.5,452.5C 228.093,450.692 226.926,448.692 226,446.5C 225.329,445.748 224.496,445.414 223.5,445.5C 211.132,442.991 198.799,440.325 186.5,437.5C 186.072,440.785 185.072,443.785 183.5,446.5C 183.942,442.846 184.276,439.179 184.5,435.5C 197.22,437.676 209.886,440.176 222.5,443C 226.14,443.974 228.474,446.307 229.5,450C 232.768,451.15 236.101,451.984 239.5,452.5C 241.275,440.848 242.942,429.182 244.5,417.5C 255.838,417.333 267.172,417.5 278.5,418C 279.025,418.692 279.692,419.192 280.5,419.5C 291.5,414 302.5,408.5 313.5,403C 319.833,402.333 326.167,402.333 332.5,403C 336.5,405.333 340.5,407.667 344.5,410C 346.657,411.981 348.324,414.314 349.5,417C 356.562,417.842 363.562,419.009 370.5,420.5C 371.087,423.406 372.754,425.072 375.5,425.5 Z"/></g>
<g><path style="opacity:0.62" fill="#dcc89a" d="M 334.5,406.5 C 340.828,408.65 345.495,412.65 348.5,418.5C 343.533,414.868 338.867,410.868 334.5,406.5 Z"/></g>
<g><path style="opacity:1" fill="#d4bda6" d="M 393.5,402.5 C 394.833,402.833 396.167,403.167 397.5,403.5C 395.908,409.356 393.742,415.023 391,420.5C 385.997,422.668 380.83,424.334 375.5,425.5C 379.799,423.065 384.466,421.398 389.5,420.5C 390.758,415.058 392.425,409.724 394.5,404.5C 394.137,403.817 393.804,403.15 393.5,402.5 Z"/></g>
<g><path style="opacity:0.81" fill="#d5c08c" d="M 132.5,421.5 C 137.5,421.5 142.5,421.5 147.5,421.5C 147.198,429.918 147.531,438.252 148.5,446.5C 147.504,446.586 146.671,446.252 146,445.5C 145.5,437.841 145.334,430.174 145.5,422.5C 140.968,422.818 136.634,422.485 132.5,421.5 Z"/></g>
<g><path style="opacity:0.335" fill="#d3baa8" d="M 172.5,448.5 C 164.493,447.907 156.493,447.24 148.5,446.5C 147.531,438.252 147.198,429.918 147.5,421.5C 142.5,421.5 137.5,421.5 132.5,421.5C 126.387,417.938 120.387,414.104 114.5,410C 107.167,409.333 99.8333,409.333 92.5,410C 88.6197,414.483 83.953,415.65 78.5,413.5C 83.849,414.611 88.1824,413.111 91.5,409C 99.8333,408.333 108.167,408.333 116.5,409C 121.328,412.581 126.328,415.915 131.5,419C 137.157,419.499 142.824,419.666 148.5,419.5C 148.5,427.833 148.5,436.167 148.5,444.5C 156.705,445.383 164.705,446.717 172.5,448.5 Z"/></g>
<g><path style="opacity:0.671" fill="#d7c393" d="M 223.5,445.5 C 224.496,445.414 225.329,445.748 226,446.5C 226.926,448.692 228.093,450.692 229.5,452.5C 226.348,451.221 224.348,448.888 223.5,445.5 Z"/></g>
</svg>
