<?xml version="1.0" encoding="UTF-8"?>
<!DOCTYPE svg PUBLIC "-//W3C//DTD SVG 1.1//EN" "http://www.w3.org/Graphics/SVG/1.1/DTD/svg11.dtd">
<svg xmlns="http://www.w3.org/2000/svg" version="1.1" width="651px" height="371px" style="shape-rendering:geometricPrecision; text-rendering:geometricPrecision; image-rendering:optimizeQuality; fill-rule:evenodd; clip-rule:evenodd" xmlns:xlink="http://www.w3.org/1999/xlink">
<g><path style="opacity:1" fill="#b4e1eb" d="M 362.5,15.5 C 363.341,17.3792 363.675,19.3792 363.5,21.5C 362.587,27.7076 365.253,31.0409 371.5,31.5C 371.511,33.0174 372.177,34.1841 373.5,35C 379.667,39.1667 385.833,43.3333 392,47.5C 391.031,52.0743 390.698,56.741 391,61.5C 393.5,65.8333 396,70.1667 398.5,74.5C 400.074,75.6309 401.741,75.7975 403.5,75C 413.502,70.0811 423.669,65.5811 434,61.5C 439.451,62.9044 444.951,64.0711 450.5,65C 452.948,73.5042 455.948,81.6708 459.5,89.5C 464.346,92.2967 469.679,94.4633 475.5,96C 481.815,95.7886 487.815,94.1219 493.5,91C 496.086,87.1641 498.419,83.1641 500.5,79C 504.756,78.2991 508.756,77.1324 512.5,75.5C 521.806,73.8421 531.139,72.1755 540.5,70.5C 544.367,70.8589 547.367,72.6922 549.5,76C 558.533,76.7074 567.533,77.7074 576.5,79C 581.437,85.3298 586.104,91.8298 590.5,98.5C 595.048,99.1924 599.548,99.8591 604,100.5C 608.355,109.224 613.188,117.557 618.5,125.5C 618.62,126.586 619.287,127.253 620.5,127.5C 624.444,128.556 628.444,129.223 632.5,129.5C 632.985,139.888 630.485,149.554 625,158.5C 624.211,160.712 624.378,162.712 625.5,164.5C 626.167,166.819 626.334,169.153 626,171.5C 620.667,177.5 615.333,183.5 610,189.5C 603.915,185.873 597.748,182.373 591.5,179C 589.934,178.235 588.601,178.402 587.5,179.5C 587.027,180.906 586.027,181.573 584.5,181.5C 574.826,186.667 565.492,192.334 556.5,198.5C 544.929,196.255 534.929,198.922 526.5,206.5C 520.9,209.099 516.567,213.099 513.5,218.5C 517.727,227.287 522.227,235.954 527,244.5C 526.543,249.27 525.043,253.77 522.5,258C 518.247,258.2 514.08,258.7 510,259.5C 503.58,269.341 496.913,279.007 490,288.5C 489.596,292.692 491.096,296.025 494.5,298.5C 494.325,306.564 493.492,314.564 492,322.5C 489.833,324 487.667,325.5 485.5,327C 480.582,327.195 475.749,327.695 471,328.5C 469.835,338.141 469.002,347.807 468.5,357.5C 464.481,357.354 460.481,357.021 456.5,356.5C 452.114,354.715 448.114,355.215 444.5,358C 436.833,358.667 429.167,358.667 421.5,358C 417.615,355.957 413.615,354.124 409.5,352.5C 407.829,352.668 406.496,353.335 405.5,354.5C 402.62,354.06 399.954,353.06 397.5,351.5C 395.231,350.024 392.898,348.524 390.5,347C 387.183,346.219 384.183,346.719 381.5,348.5C 378.673,348.416 376.006,347.75 373.5,346.5C 368.726,342.866 363.726,342.533 358.5,345.5C 356.833,345.5 355.167,345.5 353.5,345.5C 353.082,344.778 352.416,344.278 351.5,344C 348.167,343.333 344.833,343.333 341.5,344C 338.596,348.407 334.929,351.907 330.5,354.5C 325.833,355.833 321.167,355.833 316.5,354.5C 312.539,351.519 310.206,347.519 309.5,342.5C 313.251,333.91 311.918,326.243 305.5,319.5C 304.596,318.791 304.263,317.791 304.5,316.5C 302.38,305.552 302.047,294.552 303.5,283.5C 305.167,281.167 307.167,279.167 309.5,277.5C 312.331,276.921 314.664,275.588 316.5,273.5C 320.466,272.838 324.466,272.505 328.5,272.5C 330.754,273.124 332.421,274.457 333.5,276.5C 334.833,278.167 336.167,279.833 337.5,281.5C 339.711,286.614 342.878,290.947 347,294.5C 349.111,294.299 350.945,293.633 352.5,292.5C 354.861,292.674 357.194,293.007 359.5,293.5C 362.332,296.082 365.665,297.249 369.5,297C 376.831,291.666 384.498,286.832 392.5,282.5C 393.631,280.926 393.798,279.259 393,277.5C 390.124,270.374 386.957,263.374 383.5,256.5C 374.127,255.888 364.794,255.055 355.5,254C 352.659,252.414 349.993,250.58 347.5,248.5C 343.5,243.167 339.5,237.833 335.5,232.5C 332.55,231.295 329.55,230.295 326.5,229.5C 325.075,228.078 324.075,226.411 323.5,224.5C 322.783,222.063 321.783,219.73 320.5,217.5C 312.742,214.514 304.742,212.347 296.5,211C 294.237,209.383 292.237,207.55 290.5,205.5C 287.737,201.565 284.237,198.565 280,196.5C 274.679,198.076 269.512,200.076 264.5,202.5C 262.382,207.99 263.716,212.323 268.5,215.5C 271.764,222.608 270.764,229.108 265.5,235C 263.966,235.923 262.299,236.423 260.5,236.5C 257.518,235.668 254.518,235.501 251.5,236C 244.272,242.857 235.605,245.524 225.5,244C 222.833,247.667 220.167,251.333 217.5,255C 206,262.5 194.5,270 183,277.5C 186.253,289.647 181.753,295.98 169.5,296.5C 165.762,296.421 162.428,295.254 159.5,293C 153.859,282.193 146.859,272.36 138.5,263.5C 137.667,263.167 136.833,262.833 136,262.5C 131.024,263.937 126.191,265.77 121.5,268C 119.03,271.778 116.697,275.611 114.5,279.5C 114.027,280.906 113.027,281.573 111.5,281.5C 108.432,281.547 105.432,282.047 102.5,283C 96.8936,288.794 90.2269,292.627 82.5,294.5C 76.7793,292.806 71.446,290.306 66.5,287C 64.7905,285.084 63.4572,282.918 62.5,280.5C 58.3582,278.022 54.6915,275.022 51.5,271.5C 51.6495,270.448 51.4828,269.448 51,268.5C 45.652,262.985 40.152,257.652 34.5,252.5C 28.865,256.735 22.6983,259.735 16,261.5C 14.2358,261.456 12.5691,261.122 11,260.5C 6.0517,252.244 5.21837,243.577 8.5,234.5C 8.5142,232.389 7.84753,230.555 6.5,229C 8.36945,223.725 10.0361,218.392 11.5,213C 9.17345,203.532 9.34012,194.032 12,184.5C 19.4245,188.128 26.9245,191.628 34.5,195C 36.0657,195.765 37.3991,195.598 38.5,194.5C 42.7298,186.371 46.7298,178.037 50.5,169.5C 57.3201,172.124 64.3201,173.624 71.5,174C 74.5,168.333 77.5,162.667 80.5,157C 89.1858,156.168 97.8525,156.335 106.5,157.5C 109.854,161.521 113.521,165.188 117.5,168.5C 125.454,167.595 133.121,165.595 140.5,162.5C 142.822,153.562 144.822,144.562 146.5,135.5C 154.5,134.833 162.5,134.167 170.5,133.5C 171.78,124.537 172.78,115.537 173.5,106.5C 182.828,107.24 192.161,107.907 201.5,108.5C 202.756,99.7227 204.589,91.056 207,82.5C 215.638,87.0762 224.472,90.9095 233.5,94C 240.167,86.3333 246.833,78.6667 253.5,71C 258.463,69.379 262.963,66.879 267,63.5C 268,56.5 269,49.5 270,42.5C 272.328,41.3365 274.162,39.6698 275.5,37.5C 276.5,36.1667 277.5,34.8333 278.5,33.5C 280.749,32.9202 282.415,31.5869 283.5,29.5C 283.833,29.5 284.167,29.5 284.5,29.5C 284.414,30.4959 284.748,31.3292 285.5,32C 290.749,34.1265 296.082,35.9599 301.5,37.5C 303.851,39.2029 306.518,39.7029 309.5,39C 312.167,36.3333 314.833,33.6667 317.5,31C 320.833,29.6667 324.167,28.3333 327.5,27C 331.833,22.6667 336.167,18.3333 340.5,14C 348.033,12.9895 355.366,13.4895 362.5,15.5 Z"/></g>
<g><path style="opacity:1" fill="#7fbecf" d="M 340.5,11.5 C 347.833,11.5 355.167,11.5 362.5,11.5C 362.5,12.8333 362.5,14.1667 362.5,15.5C 355.366,13.4895 348.033,12.9895 340.5,14C 336.167,18.3333 331.833,22.6667 327.5,27C 324.167,28.3333 320.833,29.6667 317.5,31C 314.833,33.6667 312.167,36.3333 309.5,39C 306.518,39.7029 303.851,39.2029 301.5,37.5C 302.5,37.5 303.5,37.5 304.5,37.5C 304.833,37.5 305.167,37.5 305.5,37.5C 306.251,38.5735 307.251,38.7401 308.5,38C 311.371,35.2972 314.038,32.4639 316.5,29.5C 319.923,28.6366 323.256,27.4699 326.5,26C 331.37,21.2979 336.037,16.4646 340.5,11.5 Z"/></g>
<g><path style="opacity:0.882" fill="#b5757a" d="M 340.5,11.5 C 336.037,16.4646 331.37,21.2979 326.5,26C 323.256,27.4699 319.923,28.6366 316.5,29.5C 319.773,26.8558 323.44,24.6891 327.5,23C 331.428,18.5642 335.761,14.7308 340.5,11.5 Z"/></g>
<g><path style="opacity:1" fill="#90aab7" d="M 363.5,21.5 C 364.163,23.0419 364.83,24.7086 365.5,26.5C 367.941,27.709 369.941,29.3757 371.5,31.5C 365.253,31.0409 362.587,27.7076 363.5,21.5 Z"/></g>
<g><path style="opacity:0.973" fill="#999ca7" d="M 283.5,29.5 C 282.415,31.5869 280.749,32.9202 278.5,33.5C 279.585,31.4131 281.251,30.0798 283.5,29.5 Z"/></g>
<g><path style="opacity:0.796" fill="#b27d82" d="M 316.5,29.5 C 314.038,32.4639 311.371,35.2972 308.5,38C 307.251,38.7401 306.251,38.5735 305.5,37.5C 309.167,34.8333 312.833,32.1667 316.5,29.5 Z"/></g>
<g><path style="opacity:1" fill="#8dacba" d="M 284.5,29.5 C 291.46,31.654 298.126,34.3207 304.5,37.5C 303.5,37.5 302.5,37.5 301.5,37.5C 296.082,35.9599 290.749,34.1265 285.5,32C 284.748,31.3292 284.414,30.4959 284.5,29.5 Z"/></g>
<g><path style="opacity:0.973" fill="#999ca7" d="M 278.5,33.5 C 277.5,34.8333 276.5,36.1667 275.5,37.5C 274.833,37.5 274.167,37.5 273.5,37.5C 274.585,35.4131 276.251,34.0798 278.5,33.5 Z"/></g>
<g><path style="opacity:0.614" fill="#87b1bf" d="M 371.5,31.5 C 379.205,36.4458 386.705,41.7792 394,47.5C 394.241,51.3898 393.741,55.2231 392.5,59C 393.702,61.903 395.035,64.7364 396.5,67.5C 396.427,69.0269 397.094,70.0269 398.5,70.5C 398.685,72.1958 399.519,73.5291 401,74.5C 405.766,72.535 410.266,70.2016 414.5,67.5C 417.241,67.2927 419.574,66.2927 421.5,64.5C 425.325,62.1775 429.492,60.5108 434,59.5C 439.976,61.6583 446.143,62.6583 452.5,62.5C 453.699,66.0986 454.699,69.7653 455.5,73.5C 455.12,75.698 455.787,77.3646 457.5,78.5C 457.5,78.8333 457.5,79.1667 457.5,79.5C 457.12,81.698 457.787,83.3646 459.5,84.5C 459.5,84.8333 459.5,85.1667 459.5,85.5C 459.5,86.8333 459.5,88.1667 459.5,89.5C 455.948,81.6708 452.948,73.5042 450.5,65C 444.951,64.0711 439.451,62.9044 434,61.5C 423.669,65.5811 413.502,70.0811 403.5,75C 401.741,75.7975 400.074,75.6309 398.5,74.5C 396,70.1667 393.5,65.8333 391,61.5C 390.698,56.741 391.031,52.0743 392,47.5C 385.833,43.3333 379.667,39.1667 373.5,35C 372.177,34.1841 371.511,33.0174 371.5,31.5 Z"/></g>
<g><path style="opacity:0.137" fill="#b3696e" d="M 421.5,64.5 C 419.574,66.2927 417.241,67.2927 414.5,67.5C 416.426,65.7073 418.759,64.7073 421.5,64.5 Z"/></g>
<g><path style="opacity:0.576" fill="#b17c81" d="M 396.5,67.5 C 397.906,67.9731 398.573,68.9731 398.5,70.5C 397.094,70.0269 396.427,69.0269 396.5,67.5 Z"/></g>
<g><path style="opacity:0.498" fill="#b4666b" d="M 544.5,69.5 C 543.183,69.179 541.849,68.8457 540.5,68.5C 535.273,70.141 529.939,71.141 524.5,71.5C 529.41,69.6464 534.577,68.3131 540,67.5C 542.008,67.3068 543.508,67.9735 544.5,69.5 Z"/></g>
<g><path style="opacity:0.973" fill="#b5696d" d="M 414.5,67.5 C 410.266,70.2016 405.766,72.535 401,74.5C 399.519,73.5291 398.685,72.1958 398.5,70.5C 399.482,71.1408 400.482,71.8075 401.5,72.5C 405.754,70.536 410.088,68.8693 414.5,67.5 Z"/></g>
<g><path style="opacity:0.784" fill="#a88a91" d="M 249.5,72.5 C 249.262,74.4044 248.262,75.7377 246.5,76.5C 246.738,74.5956 247.738,73.2623 249.5,72.5 Z"/></g>
<g><path style="opacity:0.922" fill="#b1797e" d="M 519.5,72.5 C 517.221,73.6515 514.888,74.6515 512.5,75.5C 510.833,75.5 509.167,75.5 507.5,75.5C 511.239,73.8984 515.239,72.8984 519.5,72.5 Z"/></g>
<g><path style="opacity:0.627" fill="#b36b6f" d="M 547.5,71.5 C 555.144,73.4464 562.81,75.1131 570.5,76.5C 563.424,76.2879 556.424,75.4546 549.5,74C 548.619,73.2917 547.953,72.4584 547.5,71.5 Z"/></g>
<g><path style="opacity:0.969" fill="#aa868d" d="M 455.5,73.5 C 456.537,74.9303 457.204,76.597 457.5,78.5C 455.787,77.3646 455.12,75.698 455.5,73.5 Z"/></g>
<g><path style="opacity:1" fill="#8babb8" d="M 544.5,69.5 C 546.027,69.427 547.027,70.0937 547.5,71.5C 547.953,72.4584 548.619,73.2917 549.5,74C 556.424,75.4546 563.424,76.2879 570.5,76.5C 572.857,76.3367 575.19,76.5034 577.5,77C 582.289,83.4118 586.956,89.9118 591.5,96.5C 596.048,97.1924 600.548,97.8591 605,98.5C 610.038,107.243 614.538,116.243 618.5,125.5C 613.188,117.557 608.355,109.224 604,100.5C 599.548,99.8591 595.048,99.1924 590.5,98.5C 586.104,91.8298 581.437,85.3298 576.5,79C 567.533,77.7074 558.533,76.7074 549.5,76C 547.367,72.6922 544.367,70.8589 540.5,70.5C 531.139,72.1755 521.806,73.8421 512.5,75.5C 514.888,74.6515 517.221,73.6515 519.5,72.5C 521.042,71.6993 522.708,71.366 524.5,71.5C 529.939,71.141 535.273,70.141 540.5,68.5C 541.849,68.8457 543.183,69.179 544.5,69.5 Z"/></g>
<g><path style="opacity:0.992" fill="#aa868d" d="M 457.5,79.5 C 458.537,80.9303 459.204,82.597 459.5,84.5C 457.787,83.3646 457.12,81.698 457.5,79.5 Z"/></g>
<g><path style="opacity:0.933" fill="#b27277" d="M 459.5,85.5 C 460.404,86.209 460.737,87.209 460.5,88.5C 464.137,89.2635 467.47,90.5968 470.5,92.5C 466.777,91.7033 463.11,90.7033 459.5,89.5C 459.5,88.1667 459.5,86.8333 459.5,85.5 Z"/></g>
<g><path style="opacity:1" fill="#8aadbb" d="M 507.5,75.5 C 509.167,75.5 510.833,75.5 512.5,75.5C 508.756,77.1324 504.756,78.2991 500.5,79C 498.419,83.1641 496.086,87.1641 493.5,91C 487.815,94.1219 481.815,95.7886 475.5,96C 469.679,94.4633 464.346,92.2967 459.5,89.5C 463.11,90.7033 466.777,91.7033 470.5,92.5C 472.703,92.6036 474.703,93.2702 476.5,94.5C 478.68,95.7944 480.68,95.4611 482.5,93.5C 485.99,91.6601 489.657,89.9934 493.5,88.5C 495.372,84.5879 497.372,80.7546 499.5,77C 502.117,76.1785 504.784,75.6785 507.5,75.5 Z"/></g>
<g><path style="opacity:0.176" fill="#b3787d" d="M 482.5,93.5 C 480.68,95.4611 478.68,95.7944 476.5,94.5C 478.5,94.1667 480.5,93.8333 482.5,93.5 Z"/></g>
<g><path style="opacity:0.685" fill="#b67993" d="M 169.5,130.5 C 162.036,132.062 154.369,133.228 146.5,134C 145.956,134.717 145.289,135.217 144.5,135.5C 144.414,134.504 144.748,133.671 145.5,133C 153.473,131.837 161.473,131.003 169.5,130.5 Z"/></g>
<g><path style="opacity:1" fill="#8ab1c1" d="M 273.5,37.5 C 274.167,37.5 274.833,37.5 275.5,37.5C 274.162,39.6698 272.328,41.3365 270,42.5C 269,49.5 268,56.5 267,63.5C 262.963,66.879 258.463,69.379 253.5,71C 246.833,78.6667 240.167,86.3333 233.5,94C 224.472,90.9095 215.638,87.0762 207,82.5C 204.589,91.056 202.756,99.7227 201.5,108.5C 192.161,107.907 182.828,107.24 173.5,106.5C 172.78,115.537 171.78,124.537 170.5,133.5C 162.5,134.167 154.5,134.833 146.5,135.5C 144.822,144.562 142.822,153.562 140.5,162.5C 133.121,165.595 125.454,167.595 117.5,168.5C 118.5,167.833 119.5,167.167 120.5,166.5C 126.695,164.368 133.028,162.701 139.5,161.5C 140.85,152.769 142.516,144.102 144.5,135.5C 145.289,135.217 145.956,134.717 146.5,134C 154.369,133.228 162.036,132.062 169.5,130.5C 170.093,121.827 170.76,113.161 171.5,104.5C 180.839,105.093 190.172,105.76 199.5,106.5C 201.167,97.8333 202.833,89.1667 204.5,80.5C 213.819,83.3241 222.819,86.9908 231.5,91.5C 233.725,92.3321 235.058,91.3321 235.5,88.5C 236.5,86.8333 237.833,85.5 239.5,84.5C 241.262,83.7377 242.262,82.4044 242.5,80.5C 243.5,78.8333 244.833,77.5 246.5,76.5C 248.262,75.7377 249.262,74.4044 249.5,72.5C 251.113,69.2603 253.78,67.7603 257.5,68C 259.833,66.1667 262.167,64.3333 264.5,62.5C 265.991,55.5617 267.158,48.5617 268,41.5C 269.451,39.5359 271.284,38.2026 273.5,37.5 Z"/></g>
<g><path style="opacity:0.784" fill="#a9898f" d="M 235.5,88.5 C 235.058,91.3321 233.725,92.3321 231.5,91.5C 232.833,90.5 234.167,89.5 235.5,88.5 Z"/></g>
<g><path style="opacity:0.784" fill="#a88a91" d="M 242.5,80.5 C 242.262,82.4044 241.262,83.7377 239.5,84.5C 239.738,82.5956 240.738,81.2623 242.5,80.5 Z"/></g>
<g><path style="opacity:0.173" fill="#b26b6f" d="M 634.5,141.5 C 634.598,143.553 633.931,145.22 632.5,146.5C 632.402,144.447 633.069,142.78 634.5,141.5 Z"/></g>
<g><path style="opacity:1" fill="#90a9b5" d="M 618.5,125.5 C 623.851,126.037 629.184,126.704 634.5,127.5C 634.5,132.167 634.5,136.833 634.5,141.5C 633.069,142.78 632.402,144.447 632.5,146.5C 631.16,151.013 629.327,155.347 627,159.5C 626.506,161.134 626.34,162.801 626.5,164.5C 626.167,164.5 625.833,164.5 625.5,164.5C 624.378,162.712 624.211,160.712 625,158.5C 630.485,149.554 632.985,139.888 632.5,129.5C 628.444,129.223 624.444,128.556 620.5,127.5C 619.287,127.253 618.62,126.586 618.5,125.5 Z"/></g>
<g><path style="opacity:1" fill="#8baec0" d="M 120.5,166.5 C 119.5,167.167 118.5,167.833 117.5,168.5C 113.521,165.188 109.854,161.521 106.5,157.5C 97.8525,156.335 89.1858,156.168 80.5,157C 77.5,162.667 74.5,168.333 71.5,174C 64.3201,173.624 57.3201,172.124 50.5,169.5C 46.7298,178.037 42.7298,186.371 38.5,194.5C 36.1815,194.008 34.1815,193.008 32.5,191.5C 34.3307,192.052 35.9974,192.052 37.5,191.5C 41.3595,183.919 45.0262,176.253 48.5,168.5C 53.4377,167.572 58.1044,168.239 62.5,170.5C 64.8281,171.718 67.3281,172.718 70,173.5C 71.0386,172.756 71.5386,171.756 71.5,170.5C 73.4213,165.49 75.7547,160.657 78.5,156C 88.5,155.333 98.5,155.333 108.5,156C 112.095,160.104 116.095,163.604 120.5,166.5 Z"/></g>
<g><path style="opacity:0.475" fill="#b27b94" d="M 62.5,170.5 C 65.5785,171.372 68.5785,171.372 71.5,170.5C 71.5386,171.756 71.0386,172.756 70,173.5C 67.3281,172.718 64.8281,171.718 62.5,170.5 Z"/></g>
<g><path style="opacity:0.89" fill="#92b0bc" d="M 625.5,164.5 C 625.833,164.5 626.167,164.5 626.5,164.5C 628.203,166.851 628.703,169.518 628,172.5C 622.5,178.667 617,184.833 611.5,191C 610.5,191.667 609.5,191.667 608.5,191C 601.766,186.634 594.766,182.801 587.5,179.5C 588.601,178.402 589.934,178.235 591.5,179C 597.748,182.373 603.915,185.873 610,189.5C 615.333,183.5 620.667,177.5 626,171.5C 626.334,169.153 626.167,166.819 625.5,164.5 Z"/></g>
<g><path style="opacity:0.278" fill="#b37c95" d="M 25.5,188.5 C 27.5529,188.402 29.2196,189.069 30.5,190.5C 28.4471,190.598 26.7804,189.931 25.5,188.5 Z"/></g>
<g><path style="opacity:0.937" fill="#aadafe" d="M 211.5,189.5 C 222.157,187.998 228.49,192.498 230.5,203C 228.906,207.685 226.406,211.851 223,215.5C 221.023,216.905 218.857,217.905 216.5,218.5C 209.712,217.19 203.879,214.19 199,209.5C 197.855,199.447 202.022,192.781 211.5,189.5 Z"/></g>
<g><path style="opacity:0.961" fill="#8fb2bf" d="M 584.5,181.5 C 578.192,186.656 571.525,191.323 564.5,195.5C 561.802,195.845 559.802,197.178 558.5,199.5C 558.158,200.338 557.492,200.672 556.5,200.5C 556.5,199.833 556.5,199.167 556.5,198.5C 565.492,192.334 574.826,186.667 584.5,181.5 Z"/></g>
<g><path style="opacity:0.063" fill="#ca8f8c" d="M 564.5,195.5 C 562.853,197.326 560.853,198.66 558.5,199.5C 559.802,197.178 561.802,195.845 564.5,195.5 Z"/></g>
<g><path style="opacity:1" fill="#7cbbcc" d="M 556.5,198.5 C 556.5,199.167 556.5,199.833 556.5,200.5C 550.158,200.334 543.825,200.5 537.5,201C 534.778,203.358 531.778,205.191 528.5,206.5C 527.833,206.5 527.167,206.5 526.5,206.5C 534.929,198.922 544.929,196.255 556.5,198.5 Z"/></g>
<g><path style="opacity:0.933" fill="#8dabbd" d="M 283.5,203.5 C 273.157,199.159 268.157,202.492 268.5,213.5C 264.985,210.393 264.652,206.893 267.5,203C 273.5,198.333 279.5,198.333 285.5,203C 284.906,203.464 284.239,203.631 283.5,203.5 Z"/></g>
<g><path style="opacity:0.605" fill="#b37c95" d="M 7.5,200.5 C 7.02903,204.874 8.02903,208.874 10.5,212.5C 10.3764,213.107 10.0431,213.44 9.5,213.5C 6.6123,209.375 5.94564,205.042 7.5,200.5 Z"/></g>
<g><path style="opacity:0.616" fill="#76a0b1" d="M 290.5,205.5 C 292.237,207.55 294.237,209.383 296.5,211C 304.742,212.347 312.742,214.514 320.5,217.5C 321.783,219.73 322.783,222.063 323.5,224.5C 322.163,223.685 321.163,222.518 320.5,221C 312.163,216.999 303.496,213.999 294.5,212C 292.382,210.951 290.716,209.451 289.5,207.5C 287.969,206.075 288.302,205.409 290.5,205.5 Z"/></g>
<g><path style="opacity:1" fill="#7fbecf" d="M 290.5,205.5 C 288.302,205.409 287.969,206.075 289.5,207.5C 287.147,206.66 285.147,205.326 283.5,203.5C 284.239,203.631 284.906,203.464 285.5,203C 279.5,198.333 273.5,198.333 267.5,203C 264.652,206.893 264.985,210.393 268.5,213.5C 268.5,214.167 268.5,214.833 268.5,215.5C 263.716,212.323 262.382,207.99 264.5,202.5C 269.512,200.076 274.679,198.076 280,196.5C 284.237,198.565 287.737,201.565 290.5,205.5 Z"/></g>
<g><path style="opacity:1" fill="#92b2be" d="M 526.5,206.5 C 527.167,206.5 527.833,206.5 528.5,206.5C 523.773,210.208 519.44,214.375 515.5,219C 519.873,227.579 524.373,236.079 529,244.5C 528.718,249.767 527.218,254.767 524.5,259.5C 520.167,260.167 515.833,260.833 511.5,261.5C 505.195,270.971 498.695,280.305 492,289.5C 493.154,292.873 494.654,296.207 496.5,299.5C 495.833,299.167 495.167,298.833 494.5,298.5C 491.096,296.025 489.596,292.692 490,288.5C 496.913,279.007 503.58,269.341 510,259.5C 514.08,258.7 518.247,258.2 522.5,258C 525.043,253.77 526.543,249.27 527,244.5C 522.227,235.954 517.727,227.287 513.5,218.5C 516.567,213.099 520.9,209.099 526.5,206.5 Z"/></g>
<g><path style="opacity:1" fill="#85b3c4" d="M 25.5,188.5 C 26.7804,189.931 28.4471,190.598 30.5,190.5C 31.4916,190.328 32.1583,190.662 32.5,191.5C 34.1815,193.008 36.1815,194.008 38.5,194.5C 37.3991,195.598 36.0657,195.765 34.5,195C 26.9245,191.628 19.4245,188.128 12,184.5C 9.34012,194.032 9.17345,203.532 11.5,213C 10.0361,218.392 8.36945,223.725 6.5,229C 7.84753,230.555 8.5142,232.389 8.5,234.5C 5.21837,243.577 6.0517,252.244 11,260.5C 12.5691,261.122 14.2358,261.456 16,261.5C 22.6983,259.735 28.865,256.735 34.5,252.5C 40.152,257.652 45.652,262.985 51,268.5C 51.4828,269.448 51.6495,270.448 51.5,271.5C 50.0613,269.64 48.3947,267.973 46.5,266.5C 43.3643,262.87 39.531,260.203 35,258.5C 29.5097,258.903 24.343,260.403 19.5,263C 12.1947,265.217 7.86141,262.717 6.5,255.5C 6.13361,253.095 5.46695,250.762 4.5,248.5C 5.22336,246.218 5.55669,243.884 5.5,241.5C 5.59001,239.304 5.92335,237.137 6.5,235C 6.0665,233.072 5.39984,231.239 4.5,229.5C 6.17296,224.149 7.83963,218.816 9.5,213.5C 10.0431,213.44 10.3764,213.107 10.5,212.5C 8.02903,208.874 7.02903,204.874 7.5,200.5C 8.16667,194.5 8.83333,188.5 9.5,182.5C 15.2674,183.531 20.6008,185.531 25.5,188.5 Z"/></g>
<g><path style="opacity:0.251" fill="#b28199" d="M 5.5,241.5 C 5.55669,243.884 5.22336,246.218 4.5,248.5C 5.46695,250.762 6.13361,253.095 6.5,255.5C 2.87177,251.065 2.53844,246.399 5.5,241.5 Z"/></g>
<g><path style="opacity:0.976" fill="#7ca9ba" d="M 268.5,213.5 C 271.676,215.179 273.343,217.846 273.5,221.5C 271.82,234.344 264.487,240.511 251.5,240C 247.921,241.262 244.588,242.929 241.5,245C 236.306,245.012 231.306,245.845 226.5,247.5C 219.051,257.774 209.384,265.274 197.5,270C 194.651,273.016 191.651,275.85 188.5,278.5C 186.564,282.682 185.064,287.016 184,291.5C 182.127,293.709 179.96,295.542 177.5,297C 171.747,297.851 166.08,297.517 160.5,296C 153.372,287.561 146.372,279.061 139.5,270.5C 138.047,269.175 138.381,268.342 140.5,268C 139,266.5 137.5,265 136,263.5C 128.514,265.664 128.681,266.831 136.5,267C 133.964,267.186 131.631,267.686 129.5,268.5C 128.022,268.238 126.689,268.571 125.5,269.5C 122.417,273.588 118.75,276.921 114.5,279.5C 116.697,275.611 119.03,271.778 121.5,268C 126.191,265.77 131.024,263.937 136,262.5C 136.833,262.833 137.667,263.167 138.5,263.5C 146.859,272.36 153.859,282.193 159.5,293C 162.428,295.254 165.762,296.421 169.5,296.5C 181.753,295.98 186.253,289.647 183,277.5C 194.5,270 206,262.5 217.5,255C 220.167,251.333 222.833,247.667 225.5,244C 235.605,245.524 244.272,242.857 251.5,236C 254.518,235.501 257.518,235.668 260.5,236.5C 262.299,236.423 263.966,235.923 265.5,235C 270.764,229.108 271.764,222.608 268.5,215.5C 268.5,214.833 268.5,214.167 268.5,213.5 Z"/></g>
<g><path style="opacity:1" fill="#a8d3e4" d="M 139.5,270.5 C 136.302,269.213 132.969,268.547 129.5,268.5C 131.631,267.686 133.964,267.186 136.5,267C 128.681,266.831 128.514,265.664 136,263.5C 137.5,265 139,266.5 140.5,268C 138.381,268.342 138.047,269.175 139.5,270.5 Z"/></g>
<g><path style="opacity:0.992" fill="#698892" d="M 328.5,272.5 C 324.466,272.505 320.466,272.838 316.5,273.5C 318.679,272.074 321.179,271.408 324,271.5C 325.707,271.508 327.207,271.842 328.5,272.5 Z"/></g>
<g><path style="opacity:0.498" fill="#7eacbc" d="M 326.5,229.5 C 329.55,230.295 332.55,231.295 335.5,232.5C 339.5,237.833 343.5,243.167 347.5,248.5C 349.993,250.58 352.659,252.414 355.5,254C 364.794,255.055 374.127,255.888 383.5,256.5C 386.957,263.374 390.124,270.374 393,277.5C 393.798,279.259 393.631,280.926 392.5,282.5C 384.498,286.832 376.831,291.666 369.5,297C 365.665,297.249 362.332,296.082 359.5,293.5C 362.653,293.843 364.987,293.51 366.5,292.5C 371.429,290.798 376.429,288.965 381.5,287C 389.527,283.93 391.694,278.43 388,270.5C 386.414,268.33 385.08,265.996 384,263.5C 382.735,261.603 381.069,260.27 379,259.5C 372.187,258.521 365.354,257.687 358.5,257C 355.756,256.197 353.089,255.197 350.5,254C 341.753,246.482 333.753,238.315 326.5,229.5 Z"/></g>
<g><path style="opacity:0.859" fill="#67909c" d="M 316.5,273.5 C 314.664,275.588 312.331,276.921 309.5,277.5C 311.34,275.331 313.674,273.998 316.5,273.5 Z"/></g>
<g><path style="opacity:0.745" fill="#6c929f" d="M 34.5,284.5 C 32.1432,284.337 29.8098,284.503 27.5,285C 24.8334,286.862 22.5001,289.028 20.5,291.5C 21.5237,287.638 23.8571,284.805 27.5,283C 30.2116,282.174 32.5449,282.674 34.5,284.5 Z"/></g>
<g><path style="opacity:0.999" fill="#b2dfe9" d="M 34.5,284.5 C 43.5576,296.728 40.5576,302.895 25.5,303C 24.4734,302.487 23.4734,301.987 22.5,301.5C 20.9774,298.37 20.3107,295.037 20.5,291.5C 22.5001,289.028 24.8334,286.862 27.5,285C 29.8098,284.503 32.1432,284.337 34.5,284.5 Z"/></g>
<g><path style="opacity:0.667" fill="#7ba4b5" d="M 46.5,266.5 C 48.3947,267.973 50.0613,269.64 51.5,271.5C 54.6915,275.022 58.3582,278.022 62.5,280.5C 63.4572,282.918 64.7905,285.084 66.5,287C 71.446,290.306 76.7793,292.806 82.5,294.5C 90.2269,292.627 96.8936,288.794 102.5,283C 105.432,282.047 108.432,281.547 111.5,281.5C 104.048,286.732 96.0483,291.232 87.5,295C 84.1667,295.667 80.8333,295.667 77.5,295C 73.5,293 69.5,291 65.5,289C 60.3333,283.833 55.1667,278.667 50,273.5C 48.295,271.423 47.1283,269.09 46.5,266.5 Z"/></g>
<g><path style="opacity:0.925" fill="#7e9cac" d="M 333.5,276.5 C 335.595,277.412 337.595,278.579 339.5,280C 345.711,289.744 354.711,293.911 366.5,292.5C 364.987,293.51 362.653,293.843 359.5,293.5C 357.194,293.007 354.861,292.674 352.5,292.5C 349.533,292.011 346.867,290.845 344.5,289C 342.034,286.521 339.701,284.021 337.5,281.5C 336.167,279.833 334.833,278.167 333.5,276.5 Z"/></g>
<g><path style="opacity:0.914" fill="#678f9b" d="M 303.5,283.5 C 302.047,294.552 302.38,305.552 304.5,316.5C 303.224,314.438 302.39,312.104 302,309.5C 301.333,301.167 301.333,292.833 302,284.5C 302.383,283.944 302.883,283.611 303.5,283.5 Z"/></g>
<g><path style="opacity:1" fill="#83c3d3" d="M 337.5,281.5 C 339.701,284.021 342.034,286.521 344.5,289C 346.867,290.845 349.533,292.011 352.5,292.5C 350.945,293.633 349.111,294.299 347,294.5C 342.878,290.947 339.711,286.614 337.5,281.5 Z"/></g>
<g><path style="opacity:0.451" fill="#7498a7" d="M 34.5,284.5 C 40.0007,287.46 42.1674,292.127 41,298.5C 36.5559,304.272 30.7225,306.105 23.5,304C 22.7476,303.329 22.4142,302.496 22.5,301.5C 23.4734,301.987 24.4734,302.487 25.5,303C 40.5576,302.895 43.5576,296.728 34.5,284.5 Z"/></g>
<g><path style="opacity:1" fill="#78b4c4" d="M 305.5,319.5 C 311.918,326.243 313.251,333.91 309.5,342.5C 309.818,337.968 309.485,333.634 308.5,329.5C 307.099,326.296 306.099,322.963 305.5,319.5 Z"/></g>
<g><path style="opacity:0.996" fill="#88b7c4" d="M 494.5,298.5 C 495.167,298.833 495.833,299.167 496.5,299.5C 495.997,307.527 495.163,315.527 494,323.5C 492.568,325.439 490.735,326.772 488.5,327.5C 486.973,327.427 485.973,328.094 485.5,329.5C 481.167,329.5 476.833,329.5 472.5,329.5C 471.793,339.531 470.793,349.531 469.5,359.5C 466.833,359.167 464.167,358.833 461.5,358.5C 461.167,358.5 460.833,358.5 460.5,358.5C 459.167,357.833 457.833,357.167 456.5,356.5C 460.481,357.021 464.481,357.354 468.5,357.5C 469.002,347.807 469.835,338.141 471,328.5C 475.749,327.695 480.582,327.195 485.5,327C 487.667,325.5 489.833,324 492,322.5C 493.492,314.564 494.325,306.564 494.5,298.5 Z"/></g>
<g><path style="opacity:0.039" fill="#c78a87" d="M 488.5,327.5 C 488.027,328.906 487.027,329.573 485.5,329.5C 485.973,328.094 486.973,327.427 488.5,327.5 Z"/></g>
<g><path style="opacity:1" fill="#7ab2c1" d="M 373.5,346.5 C 372.5,346.5 371.5,346.5 370.5,346.5C 366.466,346.495 362.466,346.162 358.5,345.5C 363.726,342.533 368.726,342.866 373.5,346.5 Z"/></g>
<g><path style="opacity:0.965" fill="#82abbe" d="M 353.5,345.5 C 350.813,345.336 348.146,345.503 345.5,346C 341.562,350.785 336.562,353.618 330.5,354.5C 334.929,351.907 338.596,348.407 341.5,344C 344.833,343.333 348.167,343.333 351.5,344C 352.416,344.278 353.082,344.778 353.5,345.5 Z"/></g>
<g><path style="opacity:1" fill="#80b8c9" d="M 397.5,351.5 C 396.5,351.5 395.5,351.5 394.5,351.5C 390.922,351.451 387.589,350.785 384.5,349.5C 385.552,349.649 386.552,349.483 387.5,349C 385.527,348.505 383.527,348.338 381.5,348.5C 384.183,346.719 387.183,346.219 390.5,347C 392.898,348.524 395.231,350.024 397.5,351.5 Z"/></g>
<g><path style="opacity:0.918" fill="#6f8f9c" d="M 308.5,329.5 C 309.485,333.634 309.818,337.968 309.5,342.5C 310.206,347.519 312.539,351.519 316.5,354.5C 312.726,353.694 310.226,351.361 309,347.5C 308.501,341.509 308.334,335.509 308.5,329.5 Z"/></g>
<g><path style="opacity:0.98" fill="#6e8b95" d="M 370.5,346.5 C 371.5,346.5 372.5,346.5 373.5,346.5C 376.006,347.75 378.673,348.416 381.5,348.5C 383.527,348.338 385.527,348.505 387.5,349C 386.552,349.483 385.552,349.649 384.5,349.5C 379.393,349.956 374.726,348.956 370.5,346.5 Z"/></g>
<g><path style="opacity:0.498" fill="#6e8e9b" d="M 394.5,351.5 C 395.5,351.5 396.5,351.5 397.5,351.5C 399.954,353.06 402.62,354.06 405.5,354.5C 407.735,354.205 409.735,354.539 411.5,355.5C 405.121,356.428 399.454,355.095 394.5,351.5 Z"/></g>
<g><path style="opacity:1" fill="#759fae" d="M 456.5,356.5 C 457.833,357.167 459.167,357.833 460.5,358.5C 457.603,358.681 454.77,358.348 452,357.5C 441.966,359.948 431.799,360.782 421.5,360C 417.958,358.725 414.625,357.225 411.5,355.5C 409.735,354.539 407.735,354.205 405.5,354.5C 406.496,353.335 407.829,352.668 409.5,352.5C 413.615,354.124 417.615,355.957 421.5,358C 429.167,358.667 436.833,358.667 444.5,358C 448.114,355.215 452.114,354.715 456.5,356.5 Z"/></g>
<g><path style="opacity:0.802" fill="#9aa6b0" d="M 461.5,358.5 C 464.167,358.833 466.833,359.167 469.5,359.5C 469.5,360.5 469.5,361.5 469.5,362.5C 466.558,361.696 463.891,360.362 461.5,358.5 Z"/></g>
</svg>
