<?xml version="1.0" encoding="UTF-8"?>
<!DOCTYPE svg PUBLIC "-//W3C//DTD SVG 1.1//EN" "http://www.w3.org/Graphics/SVG/1.1/DTD/svg11.dtd">
<svg xmlns="http://www.w3.org/2000/svg" version="1.1" width="749px" height="475px" style="shape-rendering:geometricPrecision; text-rendering:geometricPrecision; image-rendering:optimizeQuality; fill-rule:evenodd; clip-rule:evenodd" xmlns:xlink="http://www.w3.org/1999/xlink">
<g><path style="opacity:1" fill="#f2e6b2" d="M 338.5,55.5 C 341.734,61.1848 344.401,67.1848 346.5,73.5C 346.924,76.354 347.924,79.0207 349.5,81.5C 353.5,82.8333 357.5,84.1667 361.5,85.5C 365.303,96.2442 369.303,106.911 373.5,117.5C 377.122,118.659 380.789,118.825 384.5,118C 391.191,112.66 398.191,107.826 405.5,103.5C 408.833,104.333 412.167,105.167 415.5,106C 419.237,113.329 423.57,120.162 428.5,126.5C 435.288,123.272 441.954,119.772 448.5,116C 455.332,116.117 462.165,116.617 469,117.5C 474.924,117.412 480.424,115.912 485.5,113C 496.161,112.5 506.828,112.333 517.5,112.5C 520.484,123.145 523.484,133.812 526.5,144.5C 532.315,150.785 539.148,152.119 547,148.5C 553.072,157.636 558.906,166.969 564.5,176.5C 566.074,177.631 567.741,177.798 569.5,177C 576.205,174.598 582.872,172.098 589.5,169.5C 597.514,174.509 605.848,179.009 614.5,183C 617.606,183.844 620.439,183.344 623,181.5C 630.4,185.45 637.566,189.783 644.5,194.5C 645.2,198.041 645.867,201.541 646.5,205C 654,209.249 661.334,213.749 668.5,218.5C 669.188,224.052 669.854,229.552 670.5,235C 681.757,238.418 692.757,242.418 703.5,247C 707.88,251.711 711.88,256.711 715.5,262C 723.554,262.84 731.554,264.007 739.5,265.5C 742.304,271.608 744.971,277.775 747.5,284C 744.381,289.737 740.881,295.237 737,300.5C 736.997,311.665 738.497,322.665 741.5,333.5C 734.39,338.562 726.724,342.895 718.5,346.5C 715.723,353.275 713.723,360.275 712.5,367.5C 705.159,367.334 697.826,367.5 690.5,368C 686.5,370.333 682.5,372.667 678.5,375C 676.203,375.018 673.869,374.851 671.5,374.5C 665.871,373.071 660.537,371.071 655.5,368.5C 653.393,367.532 651.059,367.198 648.5,367.5C 646.994,379.538 645.16,391.538 643,403.5C 642.5,404 642,404.5 641.5,405C 634.919,405.187 628.419,405.687 622,406.5C 619.251,418.914 616.251,431.248 613,443.5C 609.167,440.333 605.333,437.167 601.5,434C 600.167,433.333 598.833,433.333 597.5,434C 588.349,441.74 579.016,449.24 569.5,456.5C 564.415,453.12 559.081,450.62 553.5,449C 549.639,454.028 545.972,459.194 542.5,464.5C 539.5,465.833 536.5,465.833 533.5,464.5C 527.961,453.255 522.294,442.089 516.5,431C 509.774,430.786 503.107,431.453 496.5,433C 495.106,437.072 493.94,441.238 493,445.5C 487.833,450 482.667,454.5 477.5,459C 474.167,459.667 470.833,459.667 467.5,459C 461.98,452.981 456.647,446.814 451.5,440.5C 442.518,439.335 433.518,439.168 424.5,440C 420.456,445.919 416.789,452.086 413.5,458.5C 408.198,459.663 402.864,459.829 397.5,459C 393.757,454.63 389.09,452.13 383.5,451.5C 377.149,452.193 370.816,453.026 364.5,454C 363.5,455 362.5,456 361.5,457C 350.49,459.869 339.323,461.703 328,462.5C 324.582,462.481 321.249,462.147 318,461.5C 314.264,452.126 310.431,442.793 306.5,433.5C 301.124,431.461 295.79,431.128 290.5,432.5C 289.508,432.672 288.842,432.338 288.5,431.5C 286.296,430.495 283.296,430.162 279.5,430.5C 276.833,441.5 274.167,452.5 271.5,463.5C 268.797,463.955 266.13,464.622 263.5,465.5C 255.252,461.874 246.919,458.54 238.5,455.5C 237.399,454.402 236.066,454.235 234.5,455C 232.167,457.333 229.833,459.667 227.5,462C 218.383,460.439 209.383,458.105 200.5,455C 199.061,454.009 198.061,452.676 197.5,451C 193.673,449.254 190.007,447.254 186.5,445C 182.129,444.828 177.796,444.328 173.5,443.5C 172.008,439.323 169.675,435.823 166.5,433C 156.225,431.257 145.892,430.091 135.5,429.5C 135.008,422.556 134.008,415.723 132.5,409C 126.833,408.667 121.167,408.333 115.5,408C 97.9924,395.072 79.3257,383.905 59.5,374.5C 58.7122,372.671 59.2122,371.004 61,369.5C 61.6667,365.833 61.6667,362.167 61,358.5C 52.9818,349.983 45.1484,341.316 37.5,332.5C 32.7919,331.502 28.1253,331.836 23.5,333.5C 21.1063,332.76 19.6063,331.093 19,328.5C 17.3333,324.5 15.6667,320.5 14,316.5C 13.6667,307.5 13.3333,298.5 13,289.5C 12,288.5 11,287.5 10,286.5C 9.47002,276.307 8.63668,266.14 7.5,256C 7.55887,254.564 7.89221,253.231 8.5,252C 11.0529,251.239 13.5529,250.406 16,249.5C 16.1674,237.486 16.6674,225.486 17.5,213.5C 20.7079,212.198 24.0412,211.531 27.5,211.5C 27.1425,201.472 26.4759,191.472 25.5,181.5C 35.1142,181.265 44.4475,179.431 53.5,176C 56.8168,175.502 60.1501,175.335 63.5,175.5C 67.2671,176.795 71.2671,177.461 75.5,177.5C 72.5459,170.595 69.8792,163.595 67.5,156.5C 70.9334,151.755 74.1001,146.755 77,141.5C 77.4828,140.552 77.6495,139.552 77.5,138.5C 79.2225,136.747 80.7225,134.747 82,132.5C 82.5213,129.081 83.3546,125.748 84.5,122.5C 85.5,122.167 86.5,121.833 87.5,121.5C 94.7803,122.994 102.114,123.494 109.5,123C 113.167,119.333 116.833,115.667 120.5,112C 130.435,110.341 140.435,109.508 150.5,109.5C 154.64,111.229 158.973,111.562 163.5,110.5C 169.026,103.474 174.359,96.3077 179.5,89C 182.972,89.2361 186.472,89.7361 190,90.5C 191.167,90.1667 192.333,89.8333 193.5,89.5C 196,85.1667 198.5,80.8333 201,76.5C 201.738,68.3582 200.238,60.6915 196.5,53.5C 197.156,51.5466 197.489,49.5466 197.5,47.5C 199.585,45.3155 200.585,42.6489 200.5,39.5C 202.625,36.9122 203.958,33.9122 204.5,30.5C 211.627,28.9681 218.627,26.9681 225.5,24.5C 227.121,20.7557 229.121,17.2557 231.5,14C 244.5,13.3333 257.5,13.3333 270.5,14C 279.861,21.0094 289.527,27.5094 299.5,33.5C 302.957,31.9373 306.29,30.104 309.5,28C 317.143,26.3087 324.81,25.8087 332.5,26.5C 334.667,30.1667 336.833,33.8333 339,37.5C 339.163,42.368 338.663,47.2014 337.5,52C 337.514,53.3847 337.848,54.5514 338.5,55.5 Z"/></g>
<g><path style="opacity:0.586" fill="#a0c8a8" d="M 519.5,110.5 C 519.167,110.5 518.833,110.5 518.5,110.5C 507.495,110.333 496.495,110.5 485.5,111C 484.449,112.385 483.116,113.385 481.5,114C 470.985,117.044 460.485,116.877 450,113.5C 443.016,117.493 436.016,121.493 429,125.5C 424.457,118.917 420.29,112.083 416.5,105C 412.494,103.832 408.494,102.665 404.5,101.5C 397.973,106.527 391.307,111.36 384.5,116C 381.167,116.667 377.833,116.667 374.5,116C 370.371,105.57 366.371,95.0701 362.5,84.5C 359.002,82.8741 355.335,81.7074 351.5,81C 349.686,78.5205 348.019,76.0205 346.5,73.5C 344.401,67.1848 341.734,61.1848 338.5,55.5C 338.791,49.8792 339.791,44.3792 341.5,39C 338.516,34.0101 335.516,29.0101 332.5,24C 324.459,24.3384 316.459,25.3384 308.5,27C 305.5,28.8333 302.5,30.6667 299.5,32.5C 289.637,25.4713 279.637,18.6379 269.5,12C 256.5,11.3333 243.5,11.3333 230.5,12C 228.518,16.1471 226.184,19.9805 223.5,23.5C 223.5,23.1667 223.5,22.8333 223.5,22.5C 224.837,18.3267 226.837,14.4934 229.5,11C 243.5,10.3333 257.5,10.3333 271.5,11C 280.695,17.6948 290.029,24.1948 299.5,30.5C 302.472,28.0315 305.806,26.1982 309.5,25C 317.444,23.3877 325.444,22.721 333.5,23C 336.708,27.2471 339.542,31.7471 342,36.5C 341.667,42.8333 341.333,49.1667 341,55.5C 344.5,63.1667 348,70.8333 351.5,78.5C 355.806,79.945 359.973,81.6116 364,83.5C 367.932,93.7947 371.765,104.128 375.5,114.5C 377.765,115.647 380.098,115.814 382.5,115C 389.167,110.333 395.833,105.667 402.5,101C 407.269,100.688 411.935,101.355 416.5,103C 421.294,109.417 425.461,116.25 429,123.5C 435.085,119.873 441.252,116.373 447.5,113C 455.13,112.805 462.63,113.638 470,115.5C 473.782,114.261 477.615,113.095 481.5,112C 482.167,111.333 482.833,110.667 483.5,110C 495.674,109.174 507.674,109.34 519.5,110.5 Z"/></g>
<g><path style="opacity:1" fill="#d6c677" d="M 338.5,55.5 C 337.848,54.5514 337.514,53.3847 337.5,52C 338.663,47.2014 339.163,42.368 339,37.5C 336.833,33.8333 334.667,30.1667 332.5,26.5C 324.81,25.8087 317.143,26.3087 309.5,28C 306.29,30.104 302.957,31.9373 299.5,33.5C 289.527,27.5094 279.861,21.0094 270.5,14C 257.5,13.3333 244.5,13.3333 231.5,14C 229.121,17.2557 227.121,20.7557 225.5,24.5C 218.627,26.9681 211.627,28.9681 204.5,30.5C 203.958,33.9122 202.625,36.9122 200.5,39.5C 201.246,35.9296 202.579,32.5963 204.5,29.5C 210.993,27.6337 217.327,25.6337 223.5,23.5C 226.184,19.9805 228.518,16.1471 230.5,12C 243.5,11.3333 256.5,11.3333 269.5,12C 279.637,18.6379 289.637,25.4713 299.5,32.5C 302.5,30.6667 305.5,28.8333 308.5,27C 316.459,25.3384 324.459,24.3384 332.5,24C 335.516,29.0101 338.516,34.0101 341.5,39C 339.791,44.3792 338.791,49.8792 338.5,55.5 Z"/></g>
<g><path style="opacity:1" fill="#d5c676" d="M 197.5,47.5 C 197.489,49.5466 197.156,51.5466 196.5,53.5C 200.238,60.6915 201.738,68.3582 201,76.5C 198.5,80.8333 196,85.1667 193.5,89.5C 192.333,89.8333 191.167,90.1667 190,90.5C 186.472,89.7361 182.972,89.2361 179.5,89C 174.359,96.3077 169.026,103.474 163.5,110.5C 158.973,111.562 154.64,111.229 150.5,109.5C 154.24,109.241 157.906,109.574 161.5,110.5C 167.858,102.643 174.025,94.6427 180,86.5C 183.259,87.6494 186.592,88.6494 190,89.5C 191.261,89.2409 192.261,88.5742 193,87.5C 195.912,82.8424 198.412,78.009 200.5,73C 199.817,66.0715 197.817,59.5715 194.5,53.5C 195.519,51.396 196.519,49.396 197.5,47.5 Z"/></g>
<g><path style="opacity:0.937" fill="#b8d18a" d="M 223.5,22.5 C 223.5,22.8333 223.5,23.1667 223.5,23.5C 217.327,25.6337 210.993,27.6337 204.5,29.5C 202.579,32.5963 201.246,35.9296 200.5,39.5C 200.585,42.6489 199.585,45.3155 197.5,47.5C 196.519,49.396 195.519,51.396 194.5,53.5C 197.817,59.5715 199.817,66.0715 200.5,73C 198.412,78.009 195.912,82.8424 193,87.5C 192.261,88.5742 191.261,89.2409 190,89.5C 186.592,88.6494 183.259,87.6494 180,86.5C 174.025,94.6427 167.858,102.643 161.5,110.5C 157.906,109.574 154.24,109.241 150.5,109.5C 148.016,108.631 145.349,107.964 142.5,107.5C 134.822,108.585 127.156,109.751 119.5,111C 115.833,114.667 112.167,118.333 108.5,122C 100.426,121.991 92.4262,121.158 84.5,119.5C 82.6232,126.011 80.2899,132.345 77.5,138.5C 77.6495,139.552 77.4828,140.552 77,141.5C 74.1001,146.755 70.9334,151.755 67.5,156.5C 66.5222,156.811 65.8555,157.478 65.5,158.5C 68.1667,163.833 70.8333,169.167 73.5,174.5C 70.2317,175.487 66.8984,175.82 63.5,175.5C 61.3157,174.734 58.9823,174.067 56.5,173.5C 45.9244,177.895 34.9244,179.895 23.5,179.5C 33.2721,178.537 42.9388,176.371 52.5,173C 58.8926,172.791 65.226,173.124 71.5,174C 68.6215,169.244 66.2882,164.244 64.5,159C 68.9208,149.325 73.7542,139.825 79,130.5C 80.0948,126.615 81.2614,122.782 82.5,119C 90.8268,119.416 99.1602,119.749 107.5,120C 111.27,115.555 115.603,111.889 120.5,109C 127.815,108.002 135.149,107.169 142.5,106.5C 148.828,107.446 155.161,107.946 161.5,108C 166.784,100.381 172.451,93.0478 178.5,86C 182.239,85.6806 185.906,86.1806 189.5,87.5C 193.045,84.1025 195.879,80.1025 198,75.5C 198.09,67.8575 196.59,60.5241 193.5,53.5C 195.763,44.5377 199.096,36.0377 203.5,28C 210.099,25.855 216.765,24.0217 223.5,22.5 Z"/></g>
<g><path style="opacity:1" fill="#d7c778" d="M 150.5,109.5 C 140.435,109.508 130.435,110.341 120.5,112C 116.833,115.667 113.167,119.333 109.5,123C 102.114,123.494 94.7803,122.994 87.5,121.5C 86.5,121.833 85.5,122.167 84.5,122.5C 83.3546,125.748 82.5213,129.081 82,132.5C 80.7225,134.747 79.2225,136.747 77.5,138.5C 80.2899,132.345 82.6232,126.011 84.5,119.5C 92.4262,121.158 100.426,121.991 108.5,122C 112.167,118.333 115.833,114.667 119.5,111C 127.156,109.751 134.822,108.585 142.5,107.5C 145.349,107.964 148.016,108.631 150.5,109.5 Z"/></g>
<g><path style="opacity:1" fill="#d1c677" d="M 67.5,156.5 C 69.8792,163.595 72.5459,170.595 75.5,177.5C 71.2671,177.461 67.2671,176.795 63.5,175.5C 66.8984,175.82 70.2317,175.487 73.5,174.5C 70.8333,169.167 68.1667,163.833 65.5,158.5C 65.8555,157.478 66.5222,156.811 67.5,156.5 Z"/></g>
<g><path style="opacity:1" fill="#d5c578" d="M 346.5,73.5 C 348.019,76.0205 349.686,78.5205 351.5,81C 355.335,81.7074 359.002,82.8741 362.5,84.5C 366.371,95.0701 370.371,105.57 374.5,116C 377.833,116.667 381.167,116.667 384.5,116C 391.307,111.36 397.973,106.527 404.5,101.5C 408.494,102.665 412.494,103.832 416.5,105C 420.29,112.083 424.457,118.917 429,125.5C 436.016,121.493 443.016,117.493 450,113.5C 460.485,116.877 470.985,117.044 481.5,114C 483.116,113.385 484.449,112.385 485.5,111C 496.495,110.5 507.495,110.333 518.5,110.5C 521.329,121.148 524.162,131.815 527,142.5C 530.067,145.237 533.401,147.571 537,149.5C 540.835,148.247 544.668,147.413 548.5,147C 554.5,156.667 560.5,166.333 566.5,176C 574.401,173.646 582.234,170.813 590,167.5C 598.766,173.135 607.933,178.135 617.5,182.5C 619.729,181.037 622.063,180.203 624.5,180C 631.833,184.667 639.167,189.333 646.5,194C 647.288,197.076 647.788,200.242 648,203.5C 655.667,208.5 663.333,213.5 671,218.5C 671.193,223.75 671.693,228.917 672.5,234C 679.336,236.613 686.336,238.613 693.5,240C 696.833,241.667 700.167,243.333 703.5,245C 708.196,250.359 712.862,255.692 717.5,261C 725.238,261.759 732.905,262.925 740.5,264.5C 742.942,270.378 745.608,276.045 748.5,281.5C 748.5,283.167 748.5,284.833 748.5,286.5C 743.55,292.11 739.884,298.444 737.5,305.5C 739.283,315.578 741.117,325.578 743,335.5C 734.84,339.579 726.84,343.912 719,348.5C 716.855,355.099 715.022,361.765 713.5,368.5C 706.159,368.334 698.826,368.5 691.5,369C 686.684,371.662 682.018,374.495 677.5,377.5C 675.25,376.87 673.25,375.87 671.5,374.5C 673.869,374.851 676.203,375.018 678.5,375C 682.5,372.667 686.5,370.333 690.5,368C 697.826,367.5 705.159,367.334 712.5,367.5C 713.723,360.275 715.723,353.275 718.5,346.5C 726.724,342.895 734.39,338.562 741.5,333.5C 738.497,322.665 736.997,311.665 737,300.5C 740.881,295.237 744.381,289.737 747.5,284C 744.971,277.775 742.304,271.608 739.5,265.5C 731.554,264.007 723.554,262.84 715.5,262C 711.88,256.711 707.88,251.711 703.5,247C 692.757,242.418 681.757,238.418 670.5,235C 669.854,229.552 669.188,224.052 668.5,218.5C 661.334,213.749 654,209.249 646.5,205C 645.867,201.541 645.2,198.041 644.5,194.5C 637.566,189.783 630.4,185.45 623,181.5C 620.439,183.344 617.606,183.844 614.5,183C 605.848,179.009 597.514,174.509 589.5,169.5C 582.872,172.098 576.205,174.598 569.5,177C 567.741,177.798 566.074,177.631 564.5,176.5C 558.906,166.969 553.072,157.636 547,148.5C 539.148,152.119 532.315,150.785 526.5,144.5C 523.484,133.812 520.484,123.145 517.5,112.5C 506.828,112.333 496.161,112.5 485.5,113C 480.424,115.912 474.924,117.412 469,117.5C 462.165,116.617 455.332,116.117 448.5,116C 441.954,119.772 435.288,123.272 428.5,126.5C 423.57,120.162 419.237,113.329 415.5,106C 412.167,105.167 408.833,104.333 405.5,103.5C 398.191,107.826 391.191,112.66 384.5,118C 380.789,118.825 377.122,118.659 373.5,117.5C 369.303,106.911 365.303,96.2442 361.5,85.5C 357.5,84.1667 353.5,82.8333 349.5,81.5C 347.924,79.0207 346.924,76.354 346.5,73.5 Z"/></g>
<g><path style="opacity:0.278" fill="#75b3be" d="M 518.5,110.5 C 518.833,110.5 519.167,110.5 519.5,110.5C 522.726,121.024 525.893,131.691 529,142.5C 531.739,144.701 534.739,146.368 538,147.5C 541.777,146.259 545.61,145.759 549.5,146C 555.698,155.367 561.698,164.867 567.5,174.5C 574.9,171.534 582.4,168.867 590,166.5C 599.029,171.265 608.196,175.932 617.5,180.5C 620.749,178.147 624.082,177.981 627.5,180C 634.419,184.376 641.252,188.876 648,193.5C 648.212,196.758 648.712,199.924 649.5,203C 657.085,207.709 664.585,212.542 672,217.5C 672.171,222.533 672.671,227.533 673.5,232.5C 680.632,235.378 687.965,237.544 695.5,239C 698.833,240.667 702.167,242.333 705.5,244C 709.12,249.289 713.12,254.289 717.5,259C 725.588,260.01 733.588,261.343 741.5,263C 743.754,267.962 746.088,272.796 748.5,277.5C 748.5,278.833 748.5,280.167 748.5,281.5C 745.608,276.045 742.942,270.378 740.5,264.5C 732.905,262.925 725.238,261.759 717.5,261C 712.862,255.692 708.196,250.359 703.5,245C 700.167,243.333 696.833,241.667 693.5,240C 686.336,238.613 679.336,236.613 672.5,234C 671.693,228.917 671.193,223.75 671,218.5C 663.333,213.5 655.667,208.5 648,203.5C 647.788,200.242 647.288,197.076 646.5,194C 639.167,189.333 631.833,184.667 624.5,180C 622.063,180.203 619.729,181.037 617.5,182.5C 607.933,178.135 598.766,173.135 590,167.5C 582.234,170.813 574.401,173.646 566.5,176C 560.5,166.333 554.5,156.667 548.5,147C 544.668,147.413 540.835,148.247 537,149.5C 533.401,147.571 530.067,145.237 527,142.5C 524.162,131.815 521.329,121.148 518.5,110.5 Z"/></g>
<g><path style="opacity:0.446" fill="#b6d089" d="M 23.5,179.5 C 25.062,189.452 25.8954,199.452 26,209.5C 22.2834,210.888 18.45,211.888 14.5,212.5C 14.1667,212.5 13.8333,212.5 13.5,212.5C 13.6107,211.883 13.944,211.383 14.5,211C 18.2106,210.156 21.8772,209.156 25.5,208C 24.2734,199.912 23.2734,191.745 22.5,183.5C 22.5108,181.955 22.8442,180.622 23.5,179.5 Z"/></g>
<g><path style="opacity:0.361" fill="#72b2c0" d="M 748.5,286.5 C 748.5,287.5 748.5,288.5 748.5,289.5C 744.669,294.489 741.336,299.822 738.5,305.5C 738.167,305.5 737.833,305.5 737.5,305.5C 739.884,298.444 743.55,292.11 748.5,286.5 Z"/></g>
<g><path style="opacity:0.212" fill="#b47f7a" d="M 13.5,212.5 C 13.8333,212.5 14.1667,212.5 14.5,212.5C 14.6665,224.505 14.4999,236.505 14,248.5C 10.8121,249.443 7.97874,250.943 5.5,253C 6.74845,264.479 7.91512,275.979 9,287.5C 9.66667,288.167 10.3333,288.833 11,289.5C 11.3333,298.167 11.6667,306.833 12,315.5C 15,322.167 18,328.833 21,335.5C 26.0696,333.582 31.2363,332.915 36.5,333.5C 43.8149,341.983 51.3149,350.316 59,358.5C 59.6667,362.167 59.6667,365.833 59,369.5C 58.3918,371.066 57.5585,372.4 56.5,373.5C 57.0112,370.307 57.6778,367.141 58.5,364C 58.6164,361.456 57.783,359.289 56,357.5C 49.1667,350 42.3333,342.5 35.5,335C 30.1825,335.462 24.8492,335.796 19.5,336C 11.1716,322.367 8.00498,307.533 10,291.5C 8.01861,289.641 7.01861,287.308 7,284.5C 5.77819,273.178 5.11152,261.845 5,250.5C 7.44327,249.407 9.94327,248.407 12.5,247.5C 13.4989,235.852 13.8322,224.186 13.5,212.5 Z"/></g>
<g><path style="opacity:0.318" fill="#d7a183" d="M 737.5,305.5 C 737.833,305.5 738.167,305.5 738.5,305.5C 741.41,315.561 743.244,325.894 744,336.5C 736.738,340.882 729.238,344.882 721.5,348.5C 719.066,355.303 716.732,362.136 714.5,369C 707.5,369.333 700.5,369.667 693.5,370C 688.271,373.113 682.938,375.947 677.5,378.5C 677.5,378.167 677.5,377.833 677.5,377.5C 682.018,374.495 686.684,371.662 691.5,369C 698.826,368.5 706.159,368.334 713.5,368.5C 715.022,361.765 716.855,355.099 719,348.5C 726.84,343.912 734.84,339.579 743,335.5C 741.117,325.578 739.283,315.578 737.5,305.5 Z"/></g>
<g><path style="opacity:1" fill="#d6c376" d="M 63.5,175.5 C 60.1501,175.335 56.8168,175.502 53.5,176C 44.4475,179.431 35.1142,181.265 25.5,181.5C 26.4759,191.472 27.1425,201.472 27.5,211.5C 24.0412,211.531 20.7079,212.198 17.5,213.5C 16.6674,225.486 16.1674,237.486 16,249.5C 13.5529,250.406 11.0529,251.239 8.5,252C 7.89221,253.231 7.55887,254.564 7.5,256C 8.63668,266.14 9.47002,276.307 10,286.5C 11,287.5 12,288.5 13,289.5C 13.3333,298.5 13.6667,307.5 14,316.5C 15.6667,320.5 17.3333,324.5 19,328.5C 19.6063,331.093 21.1063,332.76 23.5,333.5C 28.1253,331.836 32.7919,331.502 37.5,332.5C 45.1484,341.316 52.9818,349.983 61,358.5C 61.6667,362.167 61.6667,365.833 61,369.5C 59.2122,371.004 58.7122,372.671 59.5,374.5C 79.3257,383.905 97.9924,395.072 115.5,408C 121.167,408.333 126.833,408.667 132.5,409C 134.008,415.723 135.008,422.556 135.5,429.5C 145.892,430.091 156.225,431.257 166.5,433C 169.675,435.823 172.008,439.323 173.5,443.5C 177.796,444.328 182.129,444.828 186.5,445C 190.007,447.254 193.673,449.254 197.5,451C 198.061,452.676 199.061,454.009 200.5,455C 209.383,458.105 218.383,460.439 227.5,462C 229.833,459.667 232.167,457.333 234.5,455C 236.066,454.235 237.399,454.402 238.5,455.5C 234.019,457.459 230.185,460.459 227,464.5C 217.885,461.595 208.718,458.761 199.5,456C 192.696,448.28 184.03,444.947 173.5,446C 171.5,442.333 169.5,438.667 167.5,435C 156.614,432.764 145.614,431.598 134.5,431.5C 134.008,424.556 133.008,417.723 131.5,411C 126.167,410.667 120.833,410.333 115.5,410C 97.1329,396.144 77.4663,384.31 56.5,374.5C 56.5,374.167 56.5,373.833 56.5,373.5C 57.5585,372.4 58.3918,371.066 59,369.5C 59.6667,365.833 59.6667,362.167 59,358.5C 51.3149,350.316 43.8149,341.983 36.5,333.5C 31.2363,332.915 26.0696,333.582 21,335.5C 18,328.833 15,322.167 12,315.5C 11.6667,306.833 11.3333,298.167 11,289.5C 10.3333,288.833 9.66667,288.167 9,287.5C 7.91512,275.979 6.74845,264.479 5.5,253C 7.97874,250.943 10.8121,249.443 14,248.5C 14.4999,236.505 14.6665,224.505 14.5,212.5C 18.45,211.888 22.2834,210.888 26,209.5C 25.8954,199.452 25.062,189.452 23.5,179.5C 34.9244,179.895 45.9244,177.895 56.5,173.5C 58.9823,174.067 61.3157,174.734 63.5,175.5 Z"/></g>
<g><path style="opacity:0.894" fill="#b4807b" d="M 56.5,374.5 C 77.4663,384.31 97.1329,396.144 115.5,410C 120.833,410.333 126.167,410.667 131.5,411C 133.008,417.723 134.008,424.556 134.5,431.5C 133.883,431.389 133.383,431.056 133,430.5C 132.025,424.176 131.192,417.843 130.5,411.5C 125.156,411.666 119.823,411.499 114.5,411C 96.6578,397.905 77.6578,386.571 57.5,377C 56.7476,376.329 56.4142,375.496 56.5,374.5 Z"/></g>
<g><path style="opacity:0.563" fill="#b96c6b" d="M 655.5,368.5 C 660.537,371.071 665.871,373.071 671.5,374.5C 673.25,375.87 675.25,376.87 677.5,377.5C 677.5,377.833 677.5,378.167 677.5,378.5C 668.973,376.102 660.64,373.102 652.5,369.5C 649.787,381.771 647.287,394.105 645,406.5C 644.5,407 644,407.5 643.5,408C 637.175,408.5 630.842,408.666 624.5,408.5C 622.162,419.522 619.662,430.522 617,441.5C 616.8,443.32 615.966,444.653 614.5,445.5C 617.266,433.171 620.1,420.837 623,408.5C 629.085,407.688 635.252,407.188 641.5,407C 642.333,406.167 643.167,405.333 644,404.5C 646.108,392.852 648.108,381.186 650,369.5C 651.699,368.594 653.533,368.261 655.5,368.5 Z"/></g>
<g><path style="opacity:0.361" fill="#b96a6c" d="M 612.5,445.5 C 607.927,442.941 603.594,439.941 599.5,436.5C 590.312,444.58 580.646,451.913 570.5,458.5C 579.912,450.28 589.578,442.28 599.5,434.5C 604.171,437.844 608.505,441.51 612.5,445.5 Z"/></g>
<g><path style="opacity:0.278" fill="#b96b6c" d="M 134.5,431.5 C 145.614,431.598 156.614,432.764 167.5,435C 169.5,438.667 171.5,442.333 173.5,446C 184.03,444.947 192.696,448.28 199.5,456C 208.718,458.761 217.885,461.595 227,464.5C 230.185,460.459 234.019,457.459 238.5,455.5C 246.62,459.725 254.954,463.725 263.5,467.5C 265.795,466.568 268.129,465.735 270.5,465C 272.41,463.299 273.577,461.133 274,458.5C 276.333,449.833 278.667,441.167 281,432.5C 283.381,431.565 285.881,431.232 288.5,431.5C 288.842,432.338 289.508,432.672 290.5,432.5C 295.587,432.822 300.587,433.655 305.5,435C 309.593,444.442 313.593,453.942 317.5,463.5C 320.167,463.833 322.833,464.167 325.5,464.5C 336.606,463.379 347.606,461.546 358.5,459C 361.611,458.556 364.277,457.223 366.5,455C 373.469,453.67 380.469,453.003 387.5,453C 390.833,455.667 394.167,458.333 397.5,461C 402.833,461.667 408.167,461.667 413.5,461C 417.5,454.333 421.5,447.667 425.5,441C 433.853,440.168 442.187,440.335 450.5,441.5C 455.98,448.148 461.647,454.648 467.5,461C 470.833,461.667 474.167,461.667 477.5,461C 483,456.167 488.5,451.333 494,446.5C 494.975,442.071 496.475,437.904 498.5,434C 503.343,433.221 508.176,432.387 513,431.5C 514.107,431.585 515.107,431.919 516,432.5C 521.706,444.078 527.539,455.578 533.5,467C 536.5,467.667 539.5,467.667 542.5,467C 546.544,461.079 550.711,455.245 555,449.5C 559.824,452.151 564.324,455.151 568.5,458.5C 563.703,456.851 559.203,454.518 555,451.5C 551.556,457.276 547.723,462.776 543.5,468C 539.833,468.667 536.167,468.667 532.5,468C 526.245,456.825 520.245,445.492 514.5,434C 509.139,433.947 503.805,434.447 498.5,435.5C 497.828,439.188 496.995,442.855 496,446.5C 490.167,451.667 484.333,456.833 478.5,462C 474.5,462.667 470.5,462.667 466.5,462C 460.5,455.333 454.5,448.667 448.5,442C 441.167,441.333 433.833,441.333 426.5,442C 422.752,448.832 418.752,455.499 414.5,462C 403.995,464.62 394.995,462.287 387.5,455C 380.423,454.629 373.423,455.296 366.5,457C 365.449,458.385 364.116,459.385 362.5,460C 350.811,462.872 338.978,464.705 327,465.5C 323.25,465.483 319.583,465.149 316,464.5C 312.264,455.126 308.431,445.793 304.5,436.5C 297.255,434.703 289.922,433.37 282.5,432.5C 279.776,443.177 276.942,453.843 274,464.5C 270.879,466.709 267.379,468.042 263.5,468.5C 254.623,465.397 245.956,461.73 237.5,457.5C 234.683,459.817 232.016,462.317 229.5,465C 218.675,463.294 208.009,460.627 197.5,457C 190.966,449.579 182.633,446.246 172.5,447C 170.121,443.744 168.121,440.244 166.5,436.5C 155.754,434.494 145.087,432.827 134.5,431.5 Z"/></g>
<g><path style="opacity:1" fill="#d6c273" d="M 288.5,431.5 C 285.881,431.232 283.381,431.565 281,432.5C 278.667,441.167 276.333,449.833 274,458.5C 273.577,461.133 272.41,463.299 270.5,465C 268.129,465.735 265.795,466.568 263.5,467.5C 254.954,463.725 246.62,459.725 238.5,455.5C 246.919,458.54 255.252,461.874 263.5,465.5C 266.13,464.622 268.797,463.955 271.5,463.5C 274.167,452.5 276.833,441.5 279.5,430.5C 283.296,430.162 286.296,430.495 288.5,431.5 Z"/></g>
<g><path style="opacity:1" fill="#d5c074" d="M 655.5,368.5 C 653.533,368.261 651.699,368.594 650,369.5C 648.108,381.186 646.108,392.852 644,404.5C 643.167,405.333 642.333,406.167 641.5,407C 635.252,407.188 629.085,407.688 623,408.5C 620.1,420.837 617.266,433.171 614.5,445.5C 613.833,445.5 613.167,445.5 612.5,445.5C 608.505,441.51 604.171,437.844 599.5,434.5C 589.578,442.28 579.912,450.28 570.5,458.5C 569.833,458.5 569.167,458.5 568.5,458.5C 564.324,455.151 559.824,452.151 555,449.5C 550.711,455.245 546.544,461.079 542.5,467C 539.5,467.667 536.5,467.667 533.5,467C 527.539,455.578 521.706,444.078 516,432.5C 515.107,431.919 514.107,431.585 513,431.5C 508.176,432.387 503.343,433.221 498.5,434C 496.475,437.904 494.975,442.071 494,446.5C 488.5,451.333 483,456.167 477.5,461C 474.167,461.667 470.833,461.667 467.5,461C 461.647,454.648 455.98,448.148 450.5,441.5C 442.187,440.335 433.853,440.168 425.5,441C 421.5,447.667 417.5,454.333 413.5,461C 408.167,461.667 402.833,461.667 397.5,461C 394.167,458.333 390.833,455.667 387.5,453C 380.469,453.003 373.469,453.67 366.5,455C 364.277,457.223 361.611,458.556 358.5,459C 347.606,461.546 336.606,463.379 325.5,464.5C 322.833,464.167 320.167,463.833 317.5,463.5C 313.593,453.942 309.593,444.442 305.5,435C 300.587,433.655 295.587,432.822 290.5,432.5C 295.79,431.128 301.124,431.461 306.5,433.5C 310.431,442.793 314.264,452.126 318,461.5C 321.249,462.147 324.582,462.481 328,462.5C 339.323,461.703 350.49,459.869 361.5,457C 362.5,456 363.5,455 364.5,454C 370.816,453.026 377.149,452.193 383.5,451.5C 389.09,452.13 393.757,454.63 397.5,459C 402.864,459.829 408.198,459.663 413.5,458.5C 416.789,452.086 420.456,445.919 424.5,440C 433.518,439.168 442.518,439.335 451.5,440.5C 456.647,446.814 461.98,452.981 467.5,459C 470.833,459.667 474.167,459.667 477.5,459C 482.667,454.5 487.833,450 493,445.5C 493.94,441.238 495.106,437.072 496.5,433C 503.107,431.453 509.774,430.786 516.5,431C 522.294,442.089 527.961,453.255 533.5,464.5C 536.5,465.833 539.5,465.833 542.5,464.5C 545.972,459.194 549.639,454.028 553.5,449C 559.081,450.62 564.415,453.12 569.5,456.5C 579.016,449.24 588.349,441.74 597.5,434C 598.833,433.333 600.167,433.333 601.5,434C 605.333,437.167 609.167,440.333 613,443.5C 616.251,431.248 619.251,418.914 622,406.5C 628.419,405.687 634.919,405.187 641.5,405C 642,404.5 642.5,404 643,403.5C 645.16,391.538 646.994,379.538 648.5,367.5C 651.059,367.198 653.393,367.532 655.5,368.5 Z"/></g>
</svg>
